<svg width="121" height="42" viewBox="0 0 121 42" fill="none" xmlns="http://www.w3.org/2000/svg">
<g clip-path="url(#clip0_855_67)">
<path d="M44.554 20.4987C44.5272 19.7661 44.6497 19.0355 44.914 18.351C45.1783 17.6665 45.5791 17.0422 46.0922 16.5156C46.6053 15.989 47.22 15.5709 47.8997 15.2866C48.5794 15.0021 49.3099 14.8572 50.0472 14.8605C52.8257 14.8605 54.4701 16.4815 54.9663 18.3844L53.2227 18.9694C53.0692 18.2599 52.6636 17.6292 52.0805 17.193C51.4972 16.7567 50.7753 16.5442 50.0472 16.5943C48.2468 16.5943 46.4465 17.8981 46.4465 20.534C46.4465 23.1698 48.2044 24.4243 50.0684 24.4243C50.8005 24.4455 51.5186 24.2215 52.1073 23.7882C52.6961 23.3549 53.1213 22.7375 53.3148 22.0351L55.0088 22.5849C54.7188 23.6573 54.0685 24.5986 53.1658 25.2525C52.2632 25.9064 51.1626 26.2334 50.0472 26.1792C49.3032 26.1931 48.5643 26.054 47.8769 25.7705C47.1895 25.487 46.5685 25.0654 46.0528 24.5321C45.537 23.9987 45.1376 23.3651 44.8797 22.6711C44.6218 21.977 44.5109 21.2374 44.554 20.4987Z" fill="#BAC7E1"/>
<path d="M58.3686 25.9186H56.5825V14.8324H58.3686V19.1809C58.6289 18.875 58.9553 18.6318 59.3236 18.4694C59.6919 18.3071 60.0925 18.2298 60.4951 18.2435C62.3451 18.2435 63.2381 19.5615 63.2381 21.2036V25.9186H61.5016V21.5066C61.5342 21.2921 61.5177 21.0729 61.4533 20.8655C61.389 20.6581 61.2785 20.4677 61.1301 20.3086C60.9816 20.1495 60.799 20.0257 60.5958 19.9463C60.3926 19.867 60.1741 19.8342 59.9564 19.8505C59.7404 19.8506 59.5268 19.8954 59.329 19.982C59.1314 20.0686 58.9539 20.1951 58.808 20.3535C58.662 20.5118 58.5508 20.6986 58.4813 20.902C58.4117 21.1054 58.3855 21.3209 58.4041 21.5349L58.3686 25.9186Z" fill="#BAC7E1"/>
<path d="M67.2286 21.6476L69.1495 21.3516C69.5819 21.2952 69.7023 21.0767 69.7023 20.8159C69.7023 20.1887 69.277 19.6812 68.2847 19.6812C68.0934 19.6649 67.9007 19.6874 67.7183 19.7473C67.5359 19.8073 67.3677 19.9034 67.2239 20.0299C67.08 20.1565 66.9636 20.3108 66.8815 20.4834C66.7995 20.6561 66.7536 20.8435 66.7467 21.0344L65.1164 20.6679C65.251 19.3782 66.4276 18.2294 68.2705 18.2294C70.5813 18.2294 71.4601 19.5332 71.4601 21.0485V24.7486C71.4561 25.1499 71.4869 25.5507 71.5523 25.9467H69.8866C69.8294 25.6329 69.8057 25.314 69.8157 24.9953C69.5669 25.3744 69.2229 25.6825 68.8177 25.8889C68.4123 26.0953 67.9599 26.193 67.505 26.1722C67.188 26.1981 66.8688 26.1598 66.567 26.0597C66.2652 25.9595 65.9869 25.7995 65.7491 25.5894C65.5112 25.3791 65.3187 25.1232 65.1831 24.837C65.0476 24.5508 64.9718 24.2402 64.9604 23.924C64.9604 22.5638 65.9457 21.8308 67.2286 21.6476ZM69.7023 22.8457V22.5074L67.7461 22.7963C67.4802 22.8054 67.228 22.9159 67.042 23.1048C66.8559 23.2938 66.7501 23.5467 66.7467 23.8112C66.7489 23.9478 66.7796 24.0823 66.8368 24.2064C66.8941 24.3306 66.9767 24.4415 67.0792 24.5322C67.1818 24.623 67.3023 24.6916 67.4329 24.7337C67.5636 24.7757 67.7015 24.7904 67.8382 24.7767C68.0963 24.803 68.3571 24.7703 68.6006 24.6813C68.8441 24.5923 69.0642 24.4493 69.2439 24.2632C69.4235 24.0771 69.5582 23.8527 69.6376 23.6071C69.7171 23.3614 69.7392 23.1011 69.7023 22.8457Z" fill="#BAC7E1"/>
<path d="M74.4937 14.6775C74.6485 14.6756 74.8021 14.7043 74.9456 14.7619C75.0892 14.8195 75.2198 14.9048 75.3298 15.0131C75.44 15.1212 75.5274 15.25 75.5871 15.3921C75.6467 15.5341 75.6774 15.6864 75.6774 15.8404C75.6774 16.1469 75.555 16.4409 75.3369 16.6576C75.1189 16.8744 74.8233 16.9962 74.515 16.9962C74.2067 16.9962 73.911 16.8744 73.693 16.6576C73.475 16.4409 73.3525 16.1469 73.3525 15.8404C73.3525 15.5368 73.4718 15.2451 73.685 15.0278C73.8982 14.8106 74.1884 14.6848 74.4937 14.6775ZM73.6219 25.9539V18.4621H75.3868V25.9187L73.6219 25.9539Z" fill="#BAC7E1"/>
<path d="M79.484 25.9186H77.6978V18.4621H79.4414V19.4558C79.6677 19.0743 79.9932 18.7604 80.3835 18.5471C80.7739 18.3338 81.2148 18.2289 81.66 18.2435C83.4887 18.2435 84.3676 19.5615 84.3676 21.2036V25.9186H82.5814V21.5067C82.5814 20.5905 82.1632 19.8505 81.0433 19.8505C80.8204 19.8518 80.6003 19.9 80.3974 19.992C80.1946 20.0839 80.0136 20.2174 79.8663 20.3837C79.7191 20.5501 79.6089 20.7457 79.543 20.9574C79.477 21.1691 79.457 21.3924 79.484 21.6124V25.9186Z" fill="#BAC7E1"/>
<path d="M86.5435 25.9186V14.8324H88.3296V25.9186H86.5435Z" fill="#BAC7E1"/>
<path d="M91.5196 14.6774C91.8298 14.6774 92.1273 14.7999 92.3465 15.018C92.5662 15.2361 92.6891 15.5318 92.6891 15.8403C92.6874 16.0682 92.6181 16.2907 92.4903 16.4797C92.362 16.6688 92.1804 16.8158 91.9683 16.9024C91.7561 16.989 91.523 17.0113 91.2981 16.9665C91.0733 16.9216 90.8668 16.8117 90.7047 16.6504C90.5426 16.4892 90.432 16.284 90.3869 16.0604C90.3419 15.8368 90.3643 15.6051 90.4514 15.3941C90.5385 15.1833 90.6864 15.0027 90.8765 14.8751C91.0666 14.7476 91.2903 14.6788 91.5196 14.6774ZM90.6407 25.9538V18.4621H92.4126V25.9186L90.6407 25.9538Z" fill="#BAC7E1"/>
<path d="M96.5093 25.9186H94.7231V18.4621H96.4598V19.4558C96.6866 19.0753 97.0125 18.7623 97.4027 18.5491C97.793 18.3359 98.2335 18.2305 98.6782 18.2435C100.514 18.2435 101.392 19.5614 101.392 21.2036V25.9186H99.6063V21.5066C99.6393 21.292 99.6228 21.0728 99.5585 20.8654C99.4941 20.658 99.3836 20.4677 99.2351 20.3086C99.0866 20.1495 98.9042 20.0257 98.7005 19.9463C98.4975 19.867 98.2789 19.8342 98.0611 19.8504C97.8392 19.8517 97.6189 19.8999 97.4168 19.9918C97.2138 20.0838 97.0331 20.2175 96.8863 20.3841C96.7394 20.5505 96.6305 20.7461 96.5654 20.9579C96.5002 21.1697 96.4812 21.3927 96.5093 21.6124V25.9186Z" fill="#BAC7E1"/>
<path d="M107.503 21.6124L110.65 25.9186H108.46L106.256 22.8457L105.334 23.8113V25.9256H103.562V14.8324H105.334V21.4784L108.213 18.4621H110.587L107.503 21.6124Z" fill="#BAC7E1"/>
<path d="M23.3893 11.8372L31.1152 16.2491V25.1081L23.4105 29.5482L15.6846 25.1434V16.2843L23.3893 11.8372ZM23.3893 5.32507L20.5541 6.96015L12.8352 11.4073L10 13.0424V16.2984V25.1504V28.4064L12.8352 30.0275L20.5612 34.4393L23.3964 36.0603L26.2316 34.4252L33.9363 29.9781L36.7715 28.3501V25.0941V16.235V12.9789L33.9363 11.358L26.2103 6.94606L23.3751 5.32507H23.3893Z" fill="#BAC7E1"/>
</g>
<defs>
<clipPath id="clip0_855_67">
<rect width="100.65" height="33" fill="white" transform="translate(10 4.5)"/>
</clipPath>
</defs>
</svg>
