<svg width="53" height="42" viewBox="0 0 53 42" fill="none" xmlns="http://www.w3.org/2000/svg">
<g clip-path="url(#clip0_855_76)">
<path d="M11.3245 28.424C10.593 28.424 10 27.8392 10 27.1178V8.93161C10 8.22017 10.5848 7.64343 11.3062 7.64343H12.0726C12.5968 7.64343 13.081 7.91974 13.3422 8.36792L19.9636 19.7277C20.6303 20.8715 22.4023 20.405 22.4023 19.0857V13.8893C22.4023 13.1761 22.9886 12.5979 23.7118 12.5979C24.435 12.5979 25.0212 13.1761 25.0212 13.8893V27.1358C25.0212 27.8473 24.4364 28.424 23.715 28.424H22.9787C22.4545 28.424 21.9703 28.1477 21.7091 27.6995L15.0878 16.3397C14.4211 15.196 12.649 15.6624 12.649 16.9817V27.1178C12.649 27.8392 12.056 28.424 11.3245 28.424Z" fill="#BAC7E1"/>
<path d="M25.6423 8.90842C25.6423 9.96241 24.7759 10.8168 23.7071 10.8168C22.6384 10.8168 21.772 9.96241 21.772 8.90842C21.772 7.85443 22.6384 7 23.7071 7C24.7759 7 25.6423 7.85443 25.6423 8.90842Z" fill="#BAC7E1"/>
<path d="M31.9659 7.63623L28.3354 7.64437C27.6506 7.64591 27.098 8.197 27.1041 8.87233C27.1101 9.54142 27.6627 10.0803 28.3412 10.0787L31.7551 10.0706C34.344 10.0706 36.3407 10.8524 37.7455 12.4159C39.1503 13.9597 39.8527 15.83 39.8527 18.0269C39.8527 20.204 39.1503 22.0743 37.7455 23.6379C36.3407 25.2014 34.344 25.9832 31.7551 25.9832L28.8735 25.9876C28.1968 25.9886 27.6472 26.5267 27.6412 27.194C27.635 27.8712 28.1906 28.423 28.8772 28.422L31.9659 28.4176C35.2972 28.4176 37.9161 27.3983 39.8226 25.3597C41.7291 23.3212 42.6824 20.8769 42.6824 18.0269C42.6824 15.1769 41.7291 12.7326 39.8226 10.6941C37.9161 8.65551 35.2972 7.63623 31.9659 7.63623Z" fill="#BAC7E1"/>
<path d="M16.7168 34.7932V31.3871H17.1954L18.7496 34.0536V31.3871H19.1789V34.7932H18.7052L17.151 32.1267V34.7932H16.7168ZM21.9627 33.5426C21.9627 33.6043 21.9578 33.6886 21.9479 33.7957H20.1865C20.1897 34.0098 20.2555 34.1784 20.3838 34.3017C20.5121 34.4217 20.6848 34.4818 20.9019 34.4818C21.2045 34.4818 21.4052 34.3715 21.5038 34.1509H21.9331C21.8936 34.3585 21.7785 34.5272 21.5877 34.6569C21.3969 34.7867 21.1683 34.8516 20.9019 34.8516C20.5532 34.8516 20.2753 34.7461 20.068 34.5353C19.8641 34.3212 19.7621 34.0325 19.7621 33.6692C19.7621 33.3123 19.8641 33.0269 20.068 32.8128C20.272 32.5987 20.5433 32.4916 20.8822 32.4916C21.2045 32.4916 21.4644 32.5889 21.6617 32.7836C21.8624 32.9782 21.9627 33.2312 21.9627 33.5426ZM20.1865 33.4697H21.5384C21.5384 33.2718 21.4792 33.1161 21.3608 33.0025C21.2456 32.889 21.0844 32.8322 20.8772 32.8322C20.6733 32.8322 20.5088 32.8906 20.3838 33.0074C20.2621 33.1242 20.1963 33.2783 20.1865 33.4697ZM22.1444 34.7932L22.998 33.6643L22.1543 32.55H22.6823L23.2497 33.3529L23.8121 32.55H24.3401L23.4964 33.6643L24.3549 34.7932H23.822L23.2497 33.9708L22.6724 34.7932H22.1444ZM26.7232 33.5426C26.7232 33.6043 26.7183 33.6886 26.7084 33.7957H24.947C24.9503 34.0098 25.0161 34.1784 25.1443 34.3017C25.2726 34.4217 25.4453 34.4818 25.6624 34.4818C25.965 34.4818 26.1657 34.3715 26.2644 34.1509H26.6936C26.6542 34.3585 26.539 34.5272 26.3482 34.6569C26.1575 34.7867 25.9288 34.8516 25.6624 34.8516C25.3137 34.8516 25.0358 34.7461 24.8286 34.5353C24.6246 34.3212 24.5227 34.0325 24.5227 33.6692C24.5227 33.3123 24.6246 33.0269 24.8286 32.8128C25.0325 32.5987 25.3039 32.4916 25.6427 32.4916C25.965 32.4916 26.2249 32.5889 26.4223 32.7836C26.6229 32.9782 26.7232 33.2312 26.7232 33.5426ZM24.947 33.4697H26.2989C26.2989 33.2718 26.2397 33.1161 26.1213 33.0025C26.0062 32.889 25.845 32.8322 25.6377 32.8322C25.4338 32.8322 25.2693 32.8906 25.1443 33.0074C25.0226 33.1242 24.9568 33.2783 24.947 33.4697ZM27.2783 34.7932V32.55H27.7076V33.0609C27.7503 32.8825 27.8342 32.7479 27.9592 32.6571C28.0842 32.563 28.2224 32.516 28.3737 32.516C28.4625 32.516 28.5316 32.5224 28.5809 32.5354V32.9247C28.5316 32.915 28.4608 32.9101 28.3687 32.9101C28.1549 32.9101 27.9905 32.9944 27.8753 33.1631C27.7635 33.3318 27.7076 33.5475 27.7076 33.8103V34.7932H27.2783ZM29.9071 34.8516C29.5552 34.8516 29.2789 34.7413 29.0782 34.5207C28.8808 34.3001 28.7822 34.0179 28.7822 33.674C28.7822 33.3334 28.8841 33.0512 29.0881 32.8274C29.2953 32.6035 29.5716 32.4916 29.917 32.4916C30.0946 32.4916 30.2542 32.5322 30.3956 32.6133C30.537 32.6944 30.6439 32.8047 30.7163 32.9441V32.55H31.1406V34.7932H30.7163V34.399C30.6439 34.5353 30.5337 34.6456 30.3857 34.7299C30.2377 34.811 30.0782 34.8516 29.9071 34.8516ZM29.9663 34.472C30.2065 34.472 30.3939 34.3958 30.5288 34.2433C30.667 34.0876 30.736 33.8979 30.736 33.674C30.736 33.447 30.667 33.2572 30.5288 33.1047C30.3939 32.949 30.2065 32.8712 29.9663 32.8712C29.7361 32.8712 29.5519 32.9474 29.4137 33.0999C29.2756 33.2491 29.2065 33.4405 29.2065 33.674C29.2065 33.9076 29.2756 34.099 29.4137 34.2482C29.5519 34.3974 29.7361 34.472 29.9663 34.472ZM31.9044 34.7932V31.3871H32.3534V34.7932H31.9044ZM33.1428 34.7932V31.3871H34.2431C34.7891 31.3871 35.2184 31.5541 35.5309 31.8883C35.8434 32.2224 35.9996 32.623 35.9996 33.0901C35.9996 33.5572 35.8434 33.9579 35.5309 34.292C35.2184 34.6261 34.7891 34.7932 34.2431 34.7932H33.1428ZM33.5918 34.3942H34.2086C34.6329 34.3942 34.9602 34.266 35.1905 34.0098C35.4207 33.7535 35.5358 33.447 35.5358 33.0901C35.5358 32.7301 35.4207 32.4235 35.1905 32.1705C34.9602 31.9142 34.6329 31.7861 34.2086 31.7861H33.5918V34.3942Z" fill="#BAC7E1"/>
</g>
<defs>
<clipPath id="clip0_855_76">
<rect width="32.6667" height="28" fill="white" transform="translate(10 7)"/>
</clipPath>
</defs>
</svg>
