<svg width="121" height="42" viewBox="0 0 121 42" fill="none" xmlns="http://www.w3.org/2000/svg">
<g clip-path="url(#clip0_855_54)">
<path d="M14.2965 23.2929H12.9164V30.262H10V11.7123H14.2965C17.2129 11.7123 18.6467 13.328 18.6467 16.297V18.7083C18.6467 21.676 17.2141 23.2929 14.2965 23.2929ZM15.729 16.1115C15.729 14.7862 15.2251 14.3616 14.2965 14.3616H12.9164V20.6424H14.2965C15.2298 20.6424 15.729 20.219 15.729 18.8926V16.1115ZM19.7339 30.262V11.7123H22.6503V27.6116H27.452V30.262H19.7339ZM32.5452 30.4953C29.6801 30.4953 28.1951 28.8003 28.1951 25.829V11.7123H31.1115V26.0215C31.1115 27.3467 31.6948 27.8239 32.628 27.8239C33.5613 27.8239 34.1446 27.3467 34.1446 26.0215V11.7123H36.9035V25.8372C36.9035 28.805 35.4173 30.5035 32.5534 30.5035L32.5452 30.4953ZM42.8624 22.5825V19.9273H46.9454V25.8104C46.9454 28.7781 45.4604 30.4767 42.5953 30.4767C39.7302 30.4767 38.2451 28.7805 38.2451 25.8104V16.1663C38.2451 13.1985 39.7313 11.5 42.5953 11.5C45.4592 11.5 46.9454 13.1962 46.9454 16.1663V17.9663H44.1888V15.9831C44.1888 14.6579 43.6055 14.1551 42.6723 14.1551C41.739 14.1551 41.1557 14.6579 41.1557 15.9831V26.0005C41.1557 27.3257 41.739 27.8029 42.6723 27.8029C43.6055 27.8029 44.1888 27.3257 44.1888 26.0005V22.5825H42.8624Z" fill="#BAC7E1"/>
<path d="M77.8497 23.2982H76.4697V30.2685H73.5532V11.7176H77.8509C80.7673 11.7176 82.1999 13.3345 82.1999 16.3022V18.7135C82.1999 21.6825 80.7673 23.2982 77.8509 23.2982H77.8497ZM79.2811 16.1167C79.2811 14.7927 78.7771 14.3669 77.8497 14.3669H76.4697V20.6489H77.8497C78.7771 20.6489 79.2811 20.2243 79.2811 18.899V16.1167ZM83.286 30.2685V11.7176H86.2024V27.618H91.004V30.2685H83.286ZM99.3065 30.2685L98.8026 26.8994H95.2223L94.7184 30.265H92.0353L95.0065 11.7164H99.2762L102.247 30.265L99.3065 30.2685ZM96.999 15.0003L95.5991 24.3819H98.4106L96.999 15.0003ZM107.132 24.1171V30.265H104.215V24.1171L100.527 11.7176H103.577L105.806 20.1718L108.034 11.7176H110.818L107.132 24.1206V24.1171Z" fill="#BAC7E1"/>
<path d="M53.7699 13.819H50.4977L48.2217 28.0325H50.2748L50.661 25.4532H53.4036L53.7897 28.0325H56.0459L53.7699 13.819ZM52.02 16.3364L53.0968 23.5249H50.9468L52.0247 16.3364H52.02Z" fill="#BAC7E1"/>
<path d="M61.5565 28.0191H63.8535V13.8068H61.8622V22.3134L59.5652 13.8068H56.7607V28.0191H58.7731V17.7253L61.5565 28.0191Z" fill="#BAC7E1"/>
<path d="M65.1519 28.0329H68.6877C70.9241 28.0329 72.0206 26.794 72.0206 24.5204V17.3331C72.0206 15.0595 70.9241 13.8206 68.6877 13.8206H65.1519V28.0329ZM68.6516 15.8504C69.362 15.8504 69.789 16.2155 69.789 17.2305V24.6219C69.789 25.6368 69.362 26.0019 68.6516 26.0019H67.3917V15.8527L68.6516 15.8504Z" fill="#BAC7E1"/>
</g>
<defs>
<clipPath id="clip0_855_54">
<rect width="100.818" height="19" fill="white" transform="translate(10 11.5)"/>
</clipPath>
</defs>
</svg>
