<svg width="160" height="42" viewBox="0 0 160 42" fill="none" xmlns="http://www.w3.org/2000/svg">
<path fill-rule="evenodd" clip-rule="evenodd" d="M10 3.58069H44.8468V38.4194H10V3.58069ZM22.0653 14.0431H27.6327C32.0599 14.0431 35.1521 16.8868 35.1521 20.9586C35.1521 25.0794 32.0599 27.958 27.6327 27.958H22.0653V14.0431ZM25.3693 25.0071H27.6327C28.1745 25.0262 28.7145 24.9353 29.2202 24.74C29.7259 24.5446 30.1867 24.2488 30.5749 23.8704C30.963 23.4921 31.2705 23.039 31.4786 22.5385C31.6868 22.038 31.7913 21.5006 31.7859 20.9586C31.7859 18.6977 30.0003 16.9935 27.6327 16.9935H25.3693V25.0071Z" fill="#BAC7E1"/>
<path d="M25.369 16.9932H22.0645V19.6599H25.369V16.9932Z" fill="url(#paint0_linear_855_74)"/>
<path fill-rule="evenodd" clip-rule="evenodd" d="M123.139 14.8568C123.147 14.3765 123.344 13.9187 123.687 13.5821C124.03 13.2455 124.492 13.0569 124.972 13.0569C125.453 13.0569 125.914 13.2455 126.257 13.5821C126.6 13.9187 126.797 14.3765 126.806 14.8568C126.786 15.3295 126.584 15.7762 126.242 16.1036C125.9 16.431 125.445 16.6137 124.972 16.6137C124.499 16.6137 124.044 16.431 123.702 16.1036C123.361 15.7762 123.159 15.3295 123.139 14.8568ZM60.151 14.0589H54.3262V28.6176H60.151C64.7832 28.6176 68.0188 25.6059 68.0188 21.2941C68.0188 17.0338 64.7832 14.0589 60.151 14.0589ZM60.151 25.5305H57.783V17.1454H60.151C60.7142 17.1253 61.2758 17.2189 61.8021 17.4206C62.3283 17.6223 62.8086 17.9279 63.2142 18.3192C63.6197 18.7105 63.9423 19.1794 64.1626 19.6981C64.3829 20.2167 64.4964 20.7745 64.4964 21.3379C64.4964 21.9014 64.3829 22.4591 64.1626 22.9778C63.9423 23.4965 63.6197 23.9654 63.2142 24.3567C62.8086 24.748 62.3283 25.0536 61.8021 25.2553C61.2758 25.457 60.7142 25.5506 60.151 25.5305ZM88.9793 25.9213C88.7465 25.9528 88.5096 25.9312 88.2864 25.8582C88.0631 25.7852 87.8593 25.6626 87.6901 25.4997C87.5209 25.3368 87.3908 25.1378 87.3094 24.9175C87.228 24.6972 87.1975 24.4614 87.2202 24.2276V21.0995H90.8058V18.2957H87.2202V14.7102H83.9148V18.2957H81.8503V21.0995H83.9148V24.3361C83.9148 27.1345 85.5365 28.9434 88.0455 28.9434C89.0912 28.9591 90.1318 28.7934 91.121 28.4536L90.7561 25.6804C90.1724 25.8145 89.5777 25.8952 88.9793 25.9213ZM91.9491 23.4461C91.9491 20.3229 94.317 18.0566 97.5783 18.0566C100.815 18.0566 103.164 20.3229 103.164 23.4461C103.135 24.914 102.532 26.312 101.483 27.3399C100.435 28.3679 99.025 28.9437 97.5566 28.9437C96.0881 28.9437 94.6782 28.3679 93.6297 27.3399C92.5812 26.312 91.9778 24.914 91.9491 23.4461ZM96.5851 25.9155C96.8988 26.0501 97.2369 26.1189 97.5783 26.1175C98.064 26.1154 98.5386 25.9715 98.9436 25.7034C99.3485 25.4353 99.6663 25.0547 99.8579 24.6084C100.049 24.1621 100.106 23.6696 100.022 23.1915C99.9369 22.7133 99.7143 22.2703 99.3811 21.9169C99.0479 21.5635 98.6187 21.3152 98.1463 21.2024C97.6738 21.0897 97.1787 21.1174 96.7218 21.2822C96.2649 21.447 95.8661 21.7417 95.5745 22.1301C95.2829 22.5184 95.1112 22.9835 95.0804 23.4682C95.0589 23.8089 95.1076 24.1503 95.2236 24.4714C95.3395 24.7925 95.5201 25.0863 95.7543 25.3347C95.9886 25.5831 96.2713 25.7808 96.5851 25.9155ZM117.47 17.9697C116.795 17.9444 116.123 18.0559 115.493 18.2976C114.863 18.5393 114.288 18.9061 113.804 19.3759L113.722 19.45L113.65 19.3661C113.256 18.9127 112.767 18.5522 112.218 18.3107C111.668 18.0692 111.072 17.9528 110.472 17.9697C110.013 17.9476 109.555 18.0163 109.123 18.172C108.692 18.3277 108.295 18.5673 107.956 18.8769L107.778 19.0332V18.2958H104.451V28.618H107.778V21.9315L107.8 21.9027C107.979 21.6239 108.223 21.3918 108.51 21.2258C108.797 21.0597 109.119 20.9643 109.45 20.9476C110.72 20.9476 111.449 21.7948 111.449 23.2721V28.618H114.753V22.7069C114.753 22.455 114.733 22.1969 114.712 21.9468L114.709 21.9033L114.735 21.8555C114.929 21.5853 115.183 21.3631 115.476 21.2058C115.769 21.0485 116.094 20.9602 116.427 20.9476C117.696 20.9476 118.425 21.7948 118.425 23.2721V28.618H121.73V22.7069C121.73 19.8736 120.018 17.9697 117.47 17.9697ZM123.319 18.2947H126.624V28.617H123.319V18.2947ZM128.496 27.0486V28.6185H138.103V25.9219H133.2L138.103 20.0175V18.2962H128.583V21.0136H133.574L128.496 27.0486ZM69.3897 25.4756C69.1439 24.8279 69.0297 24.1377 69.054 23.4454C69.0297 22.7531 69.1439 22.0629 69.3897 21.4152C69.6356 20.7675 70.0083 20.1754 70.4859 19.6736C70.9636 19.1717 71.5366 18.7702 72.1714 18.4925C72.8062 18.2149 73.4901 18.0666 74.1829 18.0565C75.184 18.0353 76.1691 18.309 77.0156 18.8436L77.1812 18.9491V18.2956H80.4866V28.6179H77.1812V27.9417L77.0156 28.0478C76.169 28.5821 75.1839 28.8556 74.1829 28.8342C73.4901 28.8242 72.8062 28.6759 72.1714 28.3983C71.5366 28.1206 70.9636 27.7191 70.4859 27.2172C70.0083 26.7154 69.6356 26.1233 69.3897 25.4756ZM74.9733 20.7114L74.9444 20.7102L74.9306 20.7095C74.9207 20.7089 74.9105 20.7084 74.9009 20.7084C74.496 20.7094 74.0973 20.8072 73.7378 20.9934C73.277 21.2177 72.8909 21.5702 72.6258 22.0087C72.3607 22.4472 72.228 22.9529 72.2436 23.465C72.2332 23.8324 72.2967 24.1982 72.4301 24.5406C72.5636 24.8831 72.7644 25.1953 73.0207 25.4588C73.2769 25.7224 73.5835 25.9318 73.9221 26.0749C74.2607 26.2179 74.6246 26.2916 74.9923 26.2916C75.3599 26.2916 75.7238 26.2179 76.0624 26.0749C76.4011 25.9318 76.7076 25.7224 76.9639 25.4588C77.2201 25.1953 77.4209 24.8831 77.5544 24.5406C77.6879 24.1982 77.7513 23.8324 77.741 23.465C77.7449 22.8536 77.5482 22.2578 77.1812 21.7689L77.1542 21.7223C77.145 21.7125 77.1358 21.7039 77.1199 21.6892C76.9022 21.4221 76.6338 21.2008 76.3301 21.0381C76.0263 20.8754 75.6933 20.7746 75.3503 20.7415C75.2639 20.7298 75.1762 20.7212 75.0879 20.7163L75.0603 20.7133C75.0316 20.7081 75.0022 20.7074 74.9733 20.7114ZM144.525 18.0559C147.172 18.0559 150 19.5528 150 23.7549C150 23.9572 150 24.1816 149.988 24.398H142.51L142.551 24.553C142.681 25.1124 143.008 25.6065 143.472 25.9451C143.936 26.2838 144.507 26.4446 145.079 26.3982C145.539 26.397 145.995 26.3045 146.419 26.126C146.843 25.9475 147.227 25.6867 147.55 25.3585L149.518 26.921C148.946 27.5859 148.231 28.113 147.427 28.463C146.623 28.8131 145.75 28.9771 144.874 28.9427C141.445 28.9427 139.05 26.7206 139.05 23.5385V23.4993C139.035 22.7779 139.167 22.0611 139.438 21.3922C139.708 20.7232 140.111 20.116 140.623 19.6073C141.135 19.0985 141.745 18.6987 142.415 18.4321C143.086 18.1654 143.803 18.0375 144.525 18.0559ZM145.963 21.1343C145.582 20.7681 145.074 20.5628 144.545 20.5612C143.5 20.5612 142.741 21.2956 142.501 22.5277H146.594C146.571 21.9995 146.345 21.5004 145.963 21.1343Z" fill="#BAC7E1"/>
<defs>
<linearGradient id="paint0_linear_855_74" x1="23.9021" y1="17.1341" x2="23.9021" y2="19.4912" gradientUnits="userSpaceOnUse">
<stop stop-color="#BAC7E1"/>
<stop offset="0.96887" stop-color="#24204B" stop-opacity="0"/>
<stop offset="1" stop-color="#24204B" stop-opacity="0"/>
</linearGradient>
</defs>
</svg>
