<svg width="83" height="42" viewBox="0 0 83 42" fill="none" xmlns="http://www.w3.org/2000/svg">
<g clip-path="url(#clip0_855_70)">
<path d="M29.3451 18.9179L23.0159 4.93176H19.7247L13.47 18.8L13.4253 18.9179H16.925L18.161 15.9556H24.5349L25.771 18.9179H29.3451ZM23.4478 13.3617H19.2631L21.3629 8.36564L23.4478 13.3617Z" fill="#BAC7E1"/>
<path d="M36.0473 18.9257L40.5668 8.12769H37.4313L34.4431 15.2378L31.5579 8.12769H28.2017L32.7082 18.9257H36.0473Z" fill="#BAC7E1"/>
<path d="M50.2858 9.16068C49.3876 8.36409 48.1071 7.96582 46.4437 7.96582C45.5899 7.96582 44.7362 8.08384 43.9265 8.30511C43.1168 8.52637 42.4102 8.85089 41.8214 9.26393L41.7625 9.3082L42.9402 11.6094L43.0138 11.5504C43.3818 11.2554 43.838 11.0193 44.3829 10.8423C44.9127 10.6653 45.4721 10.5768 46.0315 10.5768C46.8263 10.5768 47.415 10.7538 47.8127 11.0931C48.1805 11.4176 48.3867 11.9044 48.4015 12.5092H46.0315C44.4711 12.5092 43.2935 12.8043 42.5427 13.3796C41.7773 13.9549 41.3945 14.7662 41.3945 15.7693C41.3945 16.4036 41.5564 16.9789 41.8803 17.4804C42.2041 17.9819 42.6752 18.3802 43.2787 18.6605C43.8824 18.9408 44.6035 19.0883 45.4279 19.0883C46.9 19.0883 47.9599 18.6605 48.578 17.7902V18.926H51.6252V12.7747C51.6252 11.1816 51.1689 9.95725 50.2858 9.16068ZM47.5625 16.4921C47.1648 16.7281 46.7087 16.8461 46.208 16.8461C45.693 16.8461 45.2808 16.7281 44.9864 16.5216C44.692 16.3003 44.5594 16.02 44.5594 15.6513C44.5594 14.8694 45.1481 14.4859 46.37 14.4859H48.3867V15.4742C48.2247 15.9168 47.9451 16.2561 47.5625 16.4921Z" fill="#BAC7E1"/>
<path fill-rule="evenodd" clip-rule="evenodd" d="M13.4253 22.0759H16.7815V33.5593H27.3986V36.9217H16.7815V36.9256H13.4253V36.9217L13.4253 33.5593L13.4253 22.0759Z" fill="#BAC7E1"/>
<path d="M38.1714 27.1571C37.2735 26.3605 35.9928 25.9623 34.3294 25.9623C33.4756 25.9623 32.6218 26.0803 31.8122 26.3015C31.0026 26.5228 30.296 26.8473 29.7072 27.2604L29.6483 27.3046L30.8259 29.6058L30.8995 29.5468C31.2675 29.2518 31.7239 29.0158 32.2685 28.8388C32.7985 28.6617 33.3578 28.5732 33.9172 28.5732C34.7121 28.5732 35.3009 28.7502 35.6984 29.0895C36.0664 29.4141 36.2725 29.9008 36.2872 30.5057H33.9172C32.3569 30.5057 31.1792 30.8007 30.4285 31.376C29.663 31.9513 29.2803 32.7626 29.2803 33.7657C29.2803 34.4 29.4422 34.9753 29.7661 35.4768C30.0899 35.9785 30.561 36.3766 31.1645 36.657C31.768 36.9374 32.4893 37.0848 33.3137 37.0848C34.7857 37.0848 35.8456 36.657 36.4639 35.7865V36.9225H39.511V30.7712C39.511 29.178 39.0694 27.9537 38.1714 27.1571ZM35.4481 34.4885C35.0507 34.7245 34.5944 34.8425 34.0939 34.8425C33.5786 34.8425 33.1665 34.7245 32.872 34.518C32.5777 34.2967 32.4452 34.0165 32.4452 33.6477C32.4452 32.8659 33.034 32.4823 34.2558 32.4823H36.2872V33.4707C36.1106 33.9132 35.8309 34.2525 35.4481 34.4885Z" fill="#BAC7E1"/>
<path d="M50.8677 26.6554C50.0433 26.1981 49.1309 25.9621 48.1296 25.9621C46.8343 25.9621 45.7893 26.3604 45.0089 27.1275V22.0825H41.7705V36.9077H44.8766V35.8159C45.6421 36.6422 46.7461 37.07 48.1296 37.07C49.1309 37.07 50.0433 36.8338 50.8677 36.3766C51.6922 35.9191 52.3398 35.2555 52.7962 34.4294C53.267 33.6033 53.5028 32.6149 53.5028 31.5086C53.5028 30.4022 53.267 29.4287 52.7962 28.5878C52.325 27.7765 51.6774 27.1127 50.8677 26.6554ZM47.5998 28.6616C48.3654 28.6616 48.9982 28.9271 49.4839 29.4434C49.9698 29.9597 50.2201 30.6678 50.2201 31.5381C50.2201 32.4084 49.9698 33.1165 49.4839 33.6328C48.9982 34.1491 48.3654 34.4146 47.5998 34.4146C46.8343 34.4146 46.2015 34.1491 45.7155 33.6328C45.2298 33.1165 44.9796 32.4084 44.9796 31.5381C44.9796 30.6678 45.2298 29.9597 45.7155 29.4434C46.2015 28.9271 46.8343 28.6616 47.5998 28.6616Z" fill="#BAC7E1"/>
<path d="M63.7644 31.7448C63.3522 31.3022 62.8517 30.9925 62.2923 30.8302C61.7332 30.6679 61.0266 30.5057 60.158 30.3582C59.3925 30.2401 58.8183 30.1221 58.4798 29.9894C58.1561 29.8714 57.9941 29.6648 57.9941 29.3698C57.9941 29.1043 58.1413 28.8978 58.4505 28.7355C58.7597 28.5585 59.2453 28.47 59.893 28.47C60.9822 28.47 61.9979 28.7355 62.9106 29.2518L62.9844 29.2961L64.0736 26.9506L64.0146 26.9064C63.529 26.6113 62.8961 26.3753 62.1451 26.213C61.3944 26.0508 60.6437 25.9623 59.893 25.9623C58.8772 25.9623 57.9793 26.1098 57.2286 26.4048C56.4779 26.6998 55.8892 27.1129 55.4915 27.6439C55.094 28.1749 54.8879 28.7945 54.8879 29.4878C54.8879 30.3139 55.1089 30.9482 55.5359 31.4055C55.9626 31.848 56.4631 32.1578 57.0373 32.3348C57.5967 32.5118 58.3326 32.6593 59.2012 32.7921C59.9223 32.8806 60.4672 32.9986 60.8205 33.1167C61.1442 33.2346 61.3061 33.4264 61.3061 33.692C61.3061 34.282 60.6733 34.577 59.4366 34.577C58.8038 34.577 58.1413 34.4885 57.4937 34.2967C56.8312 34.105 56.257 33.869 55.8006 33.5592L55.7272 33.5149L54.6377 35.8752L54.6966 35.9194C55.1971 36.2585 55.8892 36.5389 56.7281 36.7454C57.5671 36.9667 58.4505 37.07 59.3336 37.07C60.3786 37.07 61.2913 36.9225 62.0569 36.6421C62.8224 36.3621 63.4111 35.9488 63.8233 35.4177C64.2207 34.8868 64.4269 34.282 64.4269 33.6034C64.3975 32.8216 64.1766 32.1873 63.7644 31.7448Z" fill="#BAC7E1"/>
<path d="M69.5506 33.6902H66.312V36.9355H69.5506V33.6902Z" fill="#BAC7E1"/>
</g>
<defs>
<clipPath id="clip0_855_70">
<rect width="56.1522" height="32.1848" fill="white" transform="translate(13.4238 4.90747)"/>
</clipPath>
</defs>
</svg>
