<svg width="148" height="64" fill="none" xmlns="http://www.w3.org/2000/svg">
    <path d="M11.834 26.49c-2.116-1.258-3.778-.249-3.778 2.16v19.898c0 .356.346.61.685.502l4.767-1.505c.33-.104.553-.399.552-.744-.004-3.043-.022-17.274-.022-18.224 0 0-.787-.944-.948-1.106-.58-.632-1.256-.98-1.256-.98Z" fill="#fff"/>
    <path d="M19.545 6.427a1.936 1.936 0 0 0-1.495-.173c-2.084.597-5.256 1.533-5.256 1.533l-6.26 1.75a724.31 724.31 0 0 0-4.865 1.381.526.526 0 0 0-.115.961l14.032 8.106c3.053 1.962 7.26 6.64 7.533 12.514 0 8.306.02 21.573.026 24.788 0 .357.347.609.687.5l4.765-1.526c.328-.105.55-.4.549-.744-.006-2.955-.031-16.756-.031-25.035 0-5.418-5.244-11.173-7.533-12.285-1.592-.911-4.64-2.677-7.584-4.378-.08-.047-.167-.087-.237-.137-1.022-.73-.936-1.809.25-2.494 1.242-.716 3.265-.755 4.527-.078a2.722 2.722 0 0 1 .164.094 5038.67 5038.67 0 0 1 9.165 5.296c3.052 1.962 7.274 6.637 7.547 12.512 0 8.322.037 21.564.046 24.732 0 .35.336.601.673.504l4.737-1.368a.779.779 0 0 0 .57-.75c-.005-3.006-.03-16.869-.03-25.135 0-5.365-5.257-11.086-7.533-12.286-3.102-1.775-11.73-6.806-14.332-8.282ZM56.644 47.612h-5.53V26.976h5.488v1.156c1.871-1.1 3.591-1.65 5.16-1.65 2.75 0 4.65.81 5.695 2.434s1.568 4.127 1.568 7.512v11.184h-5.53v-11.02c0-1.76-.207-3.053-.62-3.879-.412-.853-1.237-1.28-2.476-1.28a9.357 9.357 0 0 0-3.26.579l-.495.165v15.435Zm27.393-20.636h5.53v20.636h-5.489v-1.155c-1.98 1.1-3.7 1.65-5.159 1.65-2.861 0-4.787-.784-5.778-2.352-.99-1.596-1.486-4.25-1.486-7.965V26.977h5.53v10.895c0 2.036.166 3.426.496 4.169.33.742 1.128 1.114 2.394 1.114 1.21 0 2.352-.193 3.425-.578l.537-.165V26.977Zm14.104 20.636h-5.53v-28.89h5.53v16.426l2.105-.371 4.086-7.8h6.19l-5.365 9.78 5.654 10.855h-6.232l-4.168-8.048-2.27.372v7.676Zm13.894 0v-28.89h5.53v28.89h-5.53Zm24.62-14.197v8.584c.055.66.165 1.128.33 1.404.165.247.509.426 1.032.536l-.165 4.169c-1.404 0-2.532-.097-3.385-.29-.825-.192-1.664-.577-2.517-1.155-1.981.963-4.004 1.445-6.067 1.445-4.265 0-6.397-2.257-6.397-6.769 0-2.201.591-3.756 1.774-4.664 1.184-.935 3-1.485 5.448-1.65l4.416-.33v-1.28c0-.853-.192-1.43-.577-1.733-.386-.33-1.005-.496-1.858-.496l-7.759.33-.165-3.838c2.944-.798 5.737-1.197 8.378-1.197 2.669 0 4.581.55 5.737 1.651 1.183 1.1 1.775 2.862 1.775 5.283Zm-9.286 5.448c-1.541.137-2.312.963-2.312 2.476s.675 2.27 2.023 2.27c1.045 0 2.187-.165 3.425-.495l.619-.165v-4.416l-3.755.33Zm12.494 8.75V26.976h5.531v20.635h-5.531Zm0-23.278v-5.613h5.531v5.613h-5.531Z" fill="#fff"/>
</svg>
