<svg width="1112" height="1112" fill="none" xmlns="http://www.w3.org/2000/svg">
    <g filter="url(#a)">
        <circle cx="556.238" cy="556.235" r="409.154" fill="url(#b)"/>
    </g>
    <circle cx="556.238" cy="556.235" r="408.103" stroke="url(#c)" stroke-width="2.102"/>
    <circle cx="556.004" cy="556.004" r="392.103" transform="rotate(135 556.004 556.004)" stroke="url(#d)" stroke-width="2.102"/>
    <circle cx="556.006" cy="556.004" r="428.588" transform="rotate(-15 556.006 556.004)" stroke="url(#e)" stroke-width="2.102"/>
    <g filter="url(#f)">
        <circle cx="556.236" cy="556.235" r="312.81" fill="url(#g)"/>
    </g>
    <circle cx="556.236" cy="556.235" r="311.759" stroke="url(#h)" stroke-width="2.102"/>
    <path d="M552.853 229.076c-182.299 0-330.082 147.783-330.082 330.082s147.783 330.081 330.082 330.081" stroke="url(#i)" stroke-width="2.102"/>
    <path d="M557.057 846.14c159.076 0 288.033-129.428 288.033-289.084 0-159.657-128.957-289.084-288.033-289.084" stroke="url(#j)" stroke-width="2.102"/>
    <path d="M562.313 361.529c109.148 0 197.629 88.481 197.629 197.628 0 109.147-88.481 197.629-197.629 197.629" stroke="url(#k)" stroke-width="2.102"/>
    <path d="M557.057 757.837c-109.147 0-197.628-88.481-197.628-197.629 0-109.147 88.481-197.628 197.628-197.628" stroke="url(#l)" stroke-width="2.102"/>
    <g filter="url(#m)">
        <circle cx="556.237" cy="556.235" r="179.979" fill="url(#n)"/>
    </g>
    <circle cx="556.237" cy="556.235" r="178.927" stroke="url(#o)" stroke-width="2.102"/>
    <g filter="url(#p)">
        <circle cx="255.882" cy="640.626" r="12.089" fill="url(#q)"/>
    </g>
    <g filter="url(#r)">
        <circle cx="630.117" cy="393.591" r="12.089" fill="url(#s)"/>
    </g>
    <g filter="url(#t)">
        <circle cx="416.986" cy="277.986" r="9.986" fill="url(#u)"/>
    </g>
    <g filter="url(#v)">
        <circle cx="400.951" cy="645.882" r="15.242" fill="url(#w)"/>
    </g>
    <g filter="url(#x)">
        <circle cx="705.802" cy="655.343" r="6.833" fill="url(#y)"/>
    </g>
    <g filter="url(#z)">
        <circle cx="247.472" cy="599.629" r="4.73" fill="url(#A)"/>
    </g>
    <g filter="url(#B)">
        <circle cx="781.49" cy="339.979" r="5.782" fill="url(#C)"/>
    </g>
    <g filter="url(#D)">
        <circle cx="524.782" cy="148.781" r="5.782" fill="url(#E)"/>
    </g>
    <g filter="url(#F)">
        <circle cx="603.836" cy="961.247" r="7.884" fill="url(#G)"/>
    </g>
    <g filter="url(#H)">
        <circle cx="431.437" cy="427.23" r="6.833" fill="url(#I)"/>
    </g>
    <g filter="url(#J)">
        <circle cx="148.986" cy="558.986" r="9.986" fill="url(#K)"/>
    </g>
    <g filter="url(#L)">
        <path d="M512.582 540v-22.303h7.642l5.379 18.367h.328v-18.367h4.526V540h-7.445l-5.576-18.367h-.328V540h-4.526Zm32.023-16.399h4.394V540h-4.362v-.918c-1.574.874-2.941 1.311-4.099 1.311-2.274 0-3.805-.623-4.592-1.869-.787-1.268-1.181-3.378-1.181-6.33v-8.593h4.395v8.659c0 1.618.131 2.722.394 3.312.262.591.896.886 1.902.886.962 0 1.869-.153 2.722-.459l.427-.132v-12.266ZM557.453 540h-4.395v-22.959h4.395v13.054l1.672-.295 3.247-6.199h4.92l-4.264 7.773 4.494 8.626h-4.953l-3.313-6.396-1.803.295V540Zm12.681 0v-22.959h4.395V540h-4.395Zm21.205-11.283v6.822c.043.525.131.897.262 1.115.131.197.405.339.82.427l-.131 3.312c-1.115 0-2.012-.076-2.69-.229-.656-.153-1.322-.459-2-.918-1.575.765-3.182 1.147-4.822 1.147-3.389 0-5.083-1.792-5.083-5.378 0-1.75.47-2.985 1.41-3.707.94-.743 2.383-1.18 4.329-1.311l3.51-.263v-1.017c0-.677-.153-1.137-.459-1.377-.306-.262-.798-.394-1.476-.394l-6.166.263-.131-3.051c2.339-.634 4.558-.951 6.658-.951 2.12 0 3.64.438 4.558 1.312.941.875 1.411 2.274 1.411 4.198Zm-7.38 4.33c-1.224.109-1.836.765-1.836 1.968 0 1.202.535 1.803 1.607 1.803.83 0 1.738-.131 2.722-.393l.492-.131v-3.51l-2.985.263ZM595.528 540v-16.399h4.395V540h-4.395Zm0-18.498v-4.461h4.395v4.461h-4.395ZM496.936 584v-22.303h7.642l5.378 18.367h.328v-18.367h4.527V584h-7.446l-5.575-18.367h-.328V584h-4.526Zm25.762-6.33c.022 1.006.285 1.738.788 2.197.524.438 1.268.656 2.23.656 2.033 0 3.848-.065 5.444-.196l.919-.099.065 3.247c-2.514.612-4.788.918-6.822.918-2.47 0-4.263-.656-5.379-1.967-1.115-1.312-1.672-3.444-1.672-6.396 0-5.882 2.416-8.823 7.248-8.823 4.767 0 7.15 2.471 7.15 7.413l-.328 3.05h-9.643Zm5.642-3.346c0-1.311-.208-2.219-.623-2.722-.416-.524-1.148-.787-2.198-.787-1.028 0-1.76.273-2.197.82-.416.525-.634 1.421-.656 2.689h5.674Zm16.555-2.984h-4.034v6.723c0 .656.011 1.127.033 1.411.043.262.164.492.36.689.219.196.547.295.984.295l2.493-.066.197 3.509c-1.465.328-2.58.492-3.346.492-1.968 0-3.312-.437-4.034-1.311-.721-.897-1.082-2.537-1.082-4.92v-6.822h-1.935v-3.739h1.935v-4.559h4.395v4.559h4.034v3.739Zm1.616-3.739h4.329l2.001 12.66h.787l2.492-12.332h4.526l2.493 12.332h.787l2.001-12.66h4.329L567.14 584h-6.887l-1.87-10.036L556.514 584h-6.888l-3.115-16.399Zm27.466 1.869c1.159-1.508 3.094-2.263 5.806-2.263 2.711 0 4.646.755 5.805 2.263 1.159 1.487 1.738 3.586 1.738 6.298 0 5.75-2.514 8.625-7.543 8.625s-7.544-2.875-7.544-8.625c0-2.712.58-4.811 1.738-6.298Zm3.379 10.004c.459.787 1.268 1.18 2.427 1.18s1.957-.393 2.394-1.18c.459-.787.689-2.023.689-3.706 0-1.684-.23-2.908-.689-3.674-.437-.765-1.235-1.148-2.394-1.148s-1.968.383-2.427 1.148c-.438.766-.656 1.99-.656 3.674 0 1.683.218 2.919.656 3.706ZM590.548 584v-16.399h4.362v1.738c1.837-1.093 3.586-1.804 5.248-2.132v4.428c-1.771.372-3.291.754-4.559 1.148l-.656.23V584h-4.395Zm16.598 0h-4.395v-22.959h4.395v13.054l1.673-.295 3.247-6.199h4.919l-4.263 7.773 4.493 8.626h-4.953l-3.312-6.396-1.804.295V584Z" fill="#fff"/>
    </g>
    <path d="m417.034 231.782-2.958 1.378 2.426 5.235-3.667 1.68-8.353-18.011 6.625-3.059c4.259-1.985 7.382-.878 9.311 3.292.965 2.1 1.176 3.974.606 5.594-.541 1.62-1.891 2.926-3.99 3.891Zm-4.42-1.757 2.928-1.35c1.805-.856 2.197-2.393 1.15-4.64-.524-1.124-1.119-1.812-1.782-2.093-.664-.281-1.454-.215-2.401.226l-2.928 1.35 3.033 6.507ZM430.45 216.441l3.632-1.477 5.498 13.524-3.602 1.449-.3-.767c-.999 1.257-1.985 2.077-2.929 2.459-1.861.767-3.35.755-4.409-.004-1.06-.759-2.096-2.364-3.08-4.815l-2.871-7.086 3.632-1.477 2.899 7.145c.547 1.329 1.02 2.189 1.446 2.61.427.391 1.039.437 1.867.08a7.096 7.096 0 0 0 2.079-1.286l.299-.254-4.161-10.101ZM444.385 210.838c1.917-.677 3.522-.662 4.787.073 1.264.736 2.385 2.46 3.332 5.173.977 2.713 1.125 4.761.444 6.173-.652 1.412-2.26 2.536-4.766 3.431-.796.27-2.268.697-4.414 1.251l-1.088.262-6.801-19.195 3.685-1.3 2.086 5.926c1.046-.906 1.939-1.523 2.735-1.794Zm2.661 11.549c1.238-.434 1.956-1.027 2.151-1.781.226-.753.053-1.896-.489-3.43-.867-2.476-2.096-3.444-3.629-2.902a8.376 8.376 0 0 0-1.984 1.026l-.357.223 2.602 7.342c.852-.21 1.44-.369 1.706-.478ZM457.743 222.096l-6.181-19.47 3.74-1.182 6.181 19.47-3.74 1.182ZM460.369 204.036l-1.122-3.797 3.767-1.094 1.122 3.797-3.767 1.094Zm4.647 15.778-4.112-14.011 3.768-1.094 4.112 14.011-3.768 1.094ZM473.597 201.917c.971-.265 2.26-.434 3.869-.536l.818-.036.676 3.026c-1.525.25-2.64.453-3.375.638-1.294.344-2.096.847-2.377 1.511-.281.664-.224 1.775.201 3.305.396 1.529.894 2.536 1.464 3.019.572.453 1.534.509 2.828.165l3.213-1.08.91 3.003c-1.923.911-3.4 1.513-4.459 1.805-2.088.556-3.747.364-4.977-.575-1.23-.939-2.174-2.716-2.862-5.305-.688-2.588-.691-4.603-.068-6.017.681-1.412 2.05-2.367 4.139-2.923ZM497.56 211.773l-6.547 1.28-3.815-19.493 6.546-1.28c1.674-.333 3.107-.411 4.271-.291 1.164.148 2.117.554 2.886 1.247.769.693 1.359 1.556 1.797 2.619.438 1.063.838 2.446 1.169 4.207.331 1.761.525 3.227.55 4.424a8.303 8.303 0 0 1-.587 3.313c-.408 1.011-1.131 1.838-2.142 2.481-1.04.673-2.396 1.161-4.128 1.493Zm2.658-8.541c-.071-.615-.223-1.466-.427-2.552-.203-1.086-.414-1.938-.63-2.557-.216-.649-.493-1.182-.889-1.66a2.377 2.377 0 0 0-1.495-.858c-.61-.105-1.371-.038-2.339.14l-2.613.512 2.457 12.594 2.613-.513c1.438-.281 2.388-.839 2.908-1.701.428-.689.576-1.824.415-3.405ZM518.345 198.153l.886 6.011c.104.47.241.765.382.944.142.179.402.274.781.285l.299 2.928c-.967.148-1.786.184-2.369.139-.612-.046-1.249-.239-1.883-.548a9.989 9.989 0 0 1-4.103 1.639c-2.991.444-4.705-.917-5.173-4.084-.22-1.553.015-2.686.766-3.453.722-.769 1.935-1.32 3.639-1.711l3.055-.675-.121-.908c-.101-.587-.294-1.001-.581-1.155-.317-.184-.753-.225-1.339-.154l-5.401 1.02-.511-2.671c1.98-.851 3.894-1.441 5.741-1.711 1.847-.271 3.244-.086 4.19.553.886.696 1.495 1.88 1.742 3.551Zm-5.942 4.772c-1.058.263-1.514.922-1.368 1.977.146 1.055.717 1.509 1.655 1.389.733-.097 1.528-.338 2.355-.695l.414-.193-.441-3.078-2.615.6ZM530.126 195.586l-3.574.398.655 5.945c.071.586.118.996.17 1.231.052.235.193.444.393.595.2.152.49.218.871.17l2.198-.29.528 3.08c-1.267.433-2.238.698-2.911.767-1.728.186-2.976-.081-3.687-.773-.711-.691-1.196-2.164-1.43-4.273l-.652-6.033-1.699.187-.376-3.309 1.698-.187-.443-4.042 3.895-.419.443 4.042 3.574-.398.347 3.309ZM544.137 195.737l.446 6.057c.075.469.183.793.295.971.141.18.371.303.75.342l.094 2.952c-.995.06-1.783.068-2.393-.037a5.459 5.459 0 0 1-1.85-.693c-1.335.781-2.75 1.239-4.212 1.344-3.014.21-4.637-1.266-4.871-4.455-.103-1.55.22-2.68.998-3.389.779-.708 2.048-1.199 3.748-1.444l3.108-.47-.063-.906c-.041-.615-.206-.999-.492-1.211-.286-.212-.722-.283-1.336-.241l-5.449.639-.306-2.695c2.034-.703 4.003-1.146 5.875-1.27 1.872-.123 3.237.148 4.122.873.886.696 1.408 1.907 1.536 3.633Zm-6.28 4.325c-1.085.174-1.57.803-1.511 1.856.088 1.054.599 1.564 1.536 1.502a9.929 9.929 0 0 0 2.379-.519l.442-.133-.236-3.102-2.61.396ZM555.001 205.204l.019-19.855 6.862.014 3.485 14.49 3.522-14.473 6.861.013-.019 19.855-4.029-.023.013-15.358-.438-.013-3.901 14.463-4.029.007-3.866-14.472-.438-.012-.013 15.358-4.029.006ZM591.139 196.064l-.342 6.064c.016.468.066.79.177.998.112.178.341.33.718.428l-.285 2.942c-.991-.057-1.777-.166-2.356-.328-.58-.162-1.155-.47-1.756-.924-1.447.603-2.885.855-4.343.786-3.003-.17-4.417-1.844-4.241-5.051.101-1.545.569-2.642 1.432-3.231.863-.59 2.185-.904 3.909-.944l3.126-.06.054-.904c.046-.612-.088-1.024-.345-1.265-.256-.24-.69-.369-1.302-.415l-5.487-.092.045-2.715c2.115-.438 4.105-.617 5.971-.507 1.866.109 3.196.584 3.991 1.394.794.84 1.138 2.134 1.034 3.824Zm-6.753 3.465c-1.081.028-1.681.596-1.739 1.646-.058 1.078.394 1.616 1.327 1.671a8.201 8.201 0 0 0 2.43-.225l.44-.105.174-3.119-2.632.132ZM594.126 206.395l1.362-14.532 3.873.369-.13 1.544c1.717-.829 3.336-1.31 4.829-1.444l-.371 3.931c-1.611.19-2.989.385-4.135.646l-.588.159-.91 9.727-3.93-.4ZM608.622 207.932l-3.869-.515 2.629-20.25 3.869.515-1.513 11.521 1.52-.075 3.586-5.099 4.335.557-4.643 6.384 2.959 8.14-4.364-.557-2.2-6.017-1.636.042-.673 5.354ZM623.705 206.39c.395.478 1 .787 1.843.927a57.1 57.1 0 0 0 4.8.657l.816.052-.429 2.85c-2.311.17-4.353.084-6.125-.227-2.18-.381-3.646-1.21-4.427-2.545-.782-1.306-.932-3.267-.511-5.854.9-5.143 3.444-7.38 7.687-6.65 4.184.728 5.896 3.257 5.135 7.586l-.744 2.637-8.457-1.459c-.112.873.016 1.548.412 2.026Zm5.077-4.123c.207-1.162.142-1.982-.137-2.486-.278-.504-.882-.842-1.782-1.012-.901-.171-1.605-.044-2.054.381-.449.397-.792 1.176-.997 2.28l4.97.837ZM643.897 202.594l-3.513-.739-1.241 5.864c-.133.581-.203.987-.209 1.221-.006.233.045.468.186.677.14.208.399.361.776.43l2.179.41-.464 3.082c-1.344.022-2.335-.035-3.003-.17-1.713-.368-2.805-.982-3.277-1.9-.472-.889-.489-2.379-.052-4.469l1.244-5.952-1.684-.367.674-3.252 1.683.368.839-3.977 3.832.806-.839 3.977 3.513.739-.644 3.252ZM642.424 220.073l4.991-20.098 3.769.951-.196.753c1.414-.428 2.585-.542 3.513-.312 1.914.461 3.173 1.401 3.807 2.762.635 1.36.607 3.433-.081 6.158-.688 2.726-1.642 4.51-2.92 5.322-1.278.812-3.033.939-5.325.379a16.639 16.639 0 0 1-1.967-.667l-.317-.155-1.445 5.83-3.829-.923Zm10.5-15.508a5.664 5.664 0 0 0-2.217-.09l-.381.048-1.839 7.424c.809.314 1.503.567 2.025.698 1.102.264 1.923.14 2.493-.399.569-.539 1.036-1.577 1.429-3.143.627-2.611.113-4.114-1.51-4.538ZM659.27 218.083l5.591-19.643 3.767 1.067-5.591 19.643-3.767-1.067ZM680.259 213.959l-1.853 5.788c-.1.465-.138.785-.085.991.052.206.251.416.567.599l-1.01 2.776c-.956-.289-1.677-.601-2.195-.907-.517-.306-1.001-.758-1.452-1.325-1.554.22-3.011.122-4.4-.325-2.866-.926-3.833-2.909-2.844-5.947.478-1.476 1.205-2.42 2.207-2.772 1.003-.352 2.346-.344 4.027.082l3.046.726.287-.869c.191-.578.174-1.017-.022-1.314-.197-.297-.57-.541-1.148-.732l-5.304-1.46.714-2.608c2.159.088 4.135.434 5.929 1.009 1.795.575 2.97 1.367 3.498 2.345.527 1.007.55 2.322.038 3.943Zm-7.434 1.693c-1.074-.234-1.756.156-2.076 1.17-.32 1.013-.046 1.663.881 1.951.694.223 1.508.363 2.412.417l.467.012.958-2.981-2.642-.569ZM690.78 212.496c.954.347 2.106.934 3.485 1.76l.689.427-1.159 2.859c-1.383-.68-2.422-1.117-3.145-1.371-1.271-.473-2.205-.498-2.8-.106-.595.393-1.175 1.34-1.713 2.844-.538 1.503-.714 2.608-.5 3.315.214.706.958 1.282 2.229 1.754l3.274.937-.958 2.981c-2.093-.32-3.66-.684-4.672-1.033-2.024-.727-3.278-1.842-3.764-3.315-.485-1.474-.255-3.453.662-5.997.915-2.515 2.041-4.178 3.348-4.989 1.306-.752 3-.793 5.024-.066ZM697.505 227.134c.278.533.82.986 1.6 1.299a71.206 71.206 0 0 0 4.538 1.672l.782.226-1.037 2.687c-2.268-.354-4.269-.847-5.944-1.536-2.049-.844-3.304-1.959-3.76-3.431-.485-1.445-.228-3.394.773-5.819 1.973-4.851 4.966-6.463 8.951-4.835 3.927 1.597 5.076 4.432 3.417 8.503l-1.293 2.417-7.941-3.225c-.344.808-.363 1.508-.086 2.042Zm5.833-2.935c.438-1.069.578-1.912.418-2.471-.159-.559-.673-1.011-1.539-1.356-.867-.345-1.538-.363-2.071-.086-.534.306-1.019.965-1.456 2.004l4.648 1.909ZM462.47 342.508l-6.546 2.392L449 325.513l6.546-2.392c1.637-.629 3.148-.881 4.281-1.007 1.258 0 2.266.252 3.147.881a8.275 8.275 0 0 1 2.266 2.392c.629 1.007 1.259 2.392 1.888 4.154a36.317 36.317 0 0 1 1.259 4.407c.252 1.258.126 2.391-.126 3.524-.252 1.134-.881 2.015-1.762 2.896-1.007.881-2.266 1.637-4.029 2.14Zm1.385-9.064c-.126-.629-.504-1.511-.881-2.518-.378-1.007-.756-1.888-1.007-2.518-.252-.629-.756-1.133-1.133-1.51-.504-.378-1.007-.63-1.637-.63-.629 0-1.385.126-2.392.504l-2.644.881 4.533 12.463 2.643-.881c1.385-.504 2.266-1.259 2.77-2.14.252-.881.126-2.14-.252-3.651ZM481.731 325.513l1.763 6.043c.126.503.378.755.503.881.126.126.504.252.882.126l.755 3.021c-1.007.252-1.762.504-2.392.504-.629 0-1.259 0-2.014-.252a8.85 8.85 0 0 1-3.903 2.266c-3.021.881-4.909-.252-5.917-3.399-.503-1.511-.377-2.77.252-3.651.63-.881 1.763-1.636 3.525-2.266l3.022-1.133-.252-.881c-.126-.63-.378-1.007-.756-1.133-.377-.126-.755-.126-1.384 0l-5.414 1.888-.881-2.644c1.888-1.133 3.777-2.014 5.665-2.643 1.889-.504 3.273-.504 4.406 0 .882.503 1.637 1.51 2.14 3.273Zm-5.413 5.791c-1.007.378-1.385 1.133-1.133 2.266.252 1.007 1.007 1.511 1.889 1.133.755-.252 1.51-.63 2.266-1.007l.377-.252-.881-3.147-2.518 1.007ZM493.565 321.233l-3.651.881 1.511 6.043c.126.629.252 1.007.378 1.259a.984.984 0 0 0 .503.503c.252.126.504.126.881 0l2.266-.629 1.008 3.147c-1.259.629-2.141 1.007-2.896 1.133-1.762.378-3.021.378-3.903-.252-.881-.629-1.51-2.014-2.014-4.154l-1.51-6.043-1.763.378-.881-3.399 1.762-.378-1.007-4.028 3.903-1.008 1.007 4.029 3.651-.881.755 3.399ZM507.916 319.596l1.259 6.169c.126.503.252.755.378 1.007.126.252.378.252.881.252l.504 3.021c-1.007.252-1.889.252-2.518.252-.63 0-1.259-.126-2.014-.504-1.259 1.007-2.644 1.637-4.155 1.889-3.021.629-4.909-.756-5.539-3.903-.377-1.637-.126-2.77.63-3.651.755-.881 1.888-1.511 3.65-2.014l3.148-.881-.126-.882c-.126-.629-.378-1.007-.63-1.133-.377-.125-.755-.251-1.384-.125l-5.54 1.384-.629-2.769c2.014-1.007 3.903-1.637 5.917-2.014 2.014-.378 3.399-.252 4.406.377.755.504 1.385 1.763 1.762 3.525ZM502 324.758c-1.133.377-1.511 1.007-1.259 2.14.251 1.133.755 1.51 1.762 1.385.755-.126 1.511-.378 2.392-.882l.378-.251-.63-3.148-2.643.756ZM520.38 328.031l-2.518-20.394L531.08 306l.378 3.651-9.064 1.133.629 4.784 7.302-.882.378 3.525-7.302.882.629 4.909 9.065-1.133.377 3.651-13.092 1.511ZM540.774 310.406c1.007-.126 2.392 0 4.029.252l.881.126.126 3.147h-3.525c-1.385.126-2.266.504-2.644 1.133-.378.63-.504 1.763-.504 3.399.126 1.637.378 2.77.882 3.399.503.63 1.384.881 2.895.755l3.525-.503.378 3.273c-2.14.63-3.777.881-4.91 1.007-2.266.126-3.903-.377-4.91-1.511-1.007-1.133-1.636-3.147-1.888-5.916-.252-2.77.126-4.784 1.133-6.169.755-1.511 2.266-2.266 4.532-2.392ZM549.838 312.043c1.007-1.385 2.769-2.14 5.287-2.14s4.28.629 5.413 2.014c1.133 1.385 1.637 3.273 1.763 5.791.126 5.287-2.14 7.931-6.798 8.057-4.658.126-7.05-2.518-7.05-7.805-.252-2.644.252-4.532 1.385-5.917Zm3.273 9.064c.378.755 1.133 1.007 2.266 1.007 1.007 0 1.762-.378 2.14-1.133.378-.755.629-1.888.504-3.399-.126-1.511-.252-2.644-.63-3.399-.378-.755-1.133-1.007-2.266-1.007-1.007 0-1.762.377-2.14 1.133-.378.755-.629 1.888-.504 3.399 0 1.636.252 2.769.63 3.399ZM569.099 325.387l-4.028-.126.503-15.107 4.029.126v.881c1.384-.755 2.643-1.133 3.776-1.133 2.015.126 3.399.756 4.155 1.889.755 1.259 1.007 3.021 1.007 5.539l-.252 8.183-4.028-.126.251-8.057c0-1.259-.126-2.266-.377-2.895-.252-.63-.882-1.008-1.763-1.008-.881 0-1.636.126-2.392.378l-.377.126-.504 11.33ZM583.576 312.672c1.133-1.259 3.022-1.762 5.54-1.511 2.517.252 4.154 1.133 5.161 2.518.881 1.511 1.259 3.399 1.007 5.917-.503 5.287-3.021 7.679-7.679 7.302-4.658-.378-6.672-3.273-6.169-8.561.252-2.518.881-4.406 2.14-5.665Zm2.266 9.442c.378.755 1.008 1.133 2.141 1.259 1.007.126 1.888-.252 2.266-.881.503-.63.755-1.763.881-3.399.126-1.637 0-2.644-.252-3.399-.252-.756-1.007-1.133-2.14-1.259-1.007-.126-1.888.126-2.266.881-.504.629-.755 1.762-.881 3.273-.252 1.637-.126 2.77.251 3.525ZM601.201 327.905l-4.029-.63 2.392-14.855 4.029.63-.126.881c1.511-.629 2.769-.755 3.777-.629 1.636.251 2.769.881 3.525 2.014 2.014-.63 3.776-.881 5.287-.63 2.014.378 3.273 1.133 3.777 2.392.629 1.259.629 3.148.251 5.665L618.7 330.8l-4.029-.629 1.259-7.931c.252-1.259.252-2.266 0-2.896-.126-.629-.629-1.007-1.511-1.133-.629-.126-1.384-.126-2.392 0l-.503.126c-.126 1.511-.252 2.644-.378 3.399l-1.259 7.68-4.028-.63 1.259-7.679c.251-1.511.251-2.518.126-3.147-.126-.63-.63-1.008-1.511-1.133-.755-.126-1.511-.126-2.392 0h-.378l-1.762 11.078ZM621.847 331.682l3.273-14.73 3.903.882-3.273 14.729-3.903-.881Zm3.651-16.618.881-4.028 3.903.881-.882 4.028-3.902-.881ZM634.184 330.674c.378.504 1.007.882 1.763 1.133 1.762.504 3.399.882 4.909 1.133l.882.126-.756 2.896c-2.392 0-4.532-.252-6.294-.756-2.14-.629-3.651-1.636-4.28-3.021-.63-1.385-.63-3.399 0-6.043 1.384-5.287 4.28-7.301 8.56-6.168s5.791 3.902 4.658 8.309l-1.007 2.643-8.561-2.266c-.377.756-.251 1.511.126 2.014Zm5.539-3.776c.252-1.133.378-2.015.126-2.644-.251-.629-.881-1.007-1.762-1.259s-1.637-.126-2.14.252c-.504.378-.881 1.133-1.259 2.266l5.035 1.385ZM657.6 329.793c-2.266-1.007-3.903-1.762-4.91-2.014-1.007-.252-1.637-.378-1.888-.378-.378.126-.504.252-.63.63-.126.377 0 .755.378 1.007.378.252 1.259.755 2.644 1.511 1.51.755 2.391 1.51 2.895 2.391.504.882.504 2.015 0 3.4-1.007 3.147-3.399 4.028-7.302 2.769-1.259-.378-2.769-1.007-4.406-2.014l-.881-.504 1.133-3.147c2.266 1.007 3.903 1.762 4.784 2.014.881.252 1.636.378 2.014.378.378-.126.63-.252.755-.63.126-.377 0-.629-.251-1.007-.252-.251-1.133-.755-2.518-1.51-1.385-.756-2.392-1.511-2.896-2.266-.503-.882-.629-2.015-.126-3.525.504-1.511 1.385-2.518 2.644-3.022 1.259-.503 2.77-.377 4.406.126 1.133.378 2.644 1.007 4.406 2.015l.882.503-1.133 3.273Z" fill="#fff"/>
    <g filter="url(#M)">
        <circle cx="722.658" cy="926.658" r="36.658" fill="#0F81F0" fill-opacity=".1"/>
        <circle cx="722.658" cy="926.658" r="36.658" fill="#070E26"/>
        <circle cx="722.658" cy="926.658" r="35.27" stroke="url(#N)" stroke-width="2.777"/>
    </g>
    <path d="M730.759 920.47c0-.742-.602-1.344-1.344-1.344h-13.953c-.742 0-1.344.602-1.344 1.344v6.976a8.32 8.32 0 1 0 16.641 0v-6.976Z" fill="#fff"/>
    <path d="M727.254 919.807c0 .43-.348.778-.778.778h-1.363a.778.778 0 0 1-.778-.778v-7.396a1.46 1.46 0 1 1 2.919 0v7.396ZM724.918 934.611a1.18 1.18 0 0 0-1.179-1.179h-2.312a1.18 1.18 0 0 0-1.18 1.179v11.083a2.335 2.335 0 0 0 4.671 0v-11.083ZM720.541 919.807c0 .43-.349.778-.779.778H718.4a.778.778 0 0 1-.779-.778v-7.396a1.46 1.46 0 1 1 2.92 0v7.396Z" fill="#fff"/>
    <path fill-rule="evenodd" clip-rule="evenodd" d="M722.436 949.197c-12.335 0-22.335-10-22.335-22.335s10-22.334 22.335-22.334 22.335 9.999 22.335 22.334c0 12.335-10 22.335-22.335 22.335Zm.001-3.018c-10.669 0-19.317-8.648-19.317-19.317 0-10.668 8.648-19.316 19.317-19.316 10.668 0 19.316 8.648 19.316 19.316 0 10.669-8.648 19.317-19.316 19.317Z" fill="#fff"/>
    <g filter="url(#O)">
        <circle cx="394.342" cy="929.658" r="37.342" fill="#0F81F0" fill-opacity=".1"/>
        <circle cx="394.342" cy="929.658" r="37.342" fill="#070E26"/>
        <circle cx="394.342" cy="929.658" r="35.927" stroke="url(#P)" stroke-width="2.829"/>
    </g>
    <circle cx="383.094" cy="945.377" r="3.678" fill="#fff"/>
    <circle cx="408.272" cy="945.377" r="3.96" fill="#fff"/>
    <path fill-rule="evenodd" clip-rule="evenodd" d="M374.326 909.63c-.698 0-1.23.627-1.116 1.316l.033.199a1.13 1.13 0 0 0 1.069.946l2.583.108c.531.022.976.412 1.067.937l4.48 25.757c.1.579.627.985 1.213.934l26.158-2.286a1.13 1.13 0 0 0 1.031-1.059l.892-14.799a1.13 1.13 0 0 0-1.129-1.2h-27.611a1.132 1.132 0 0 1-1.116-.944l-1.508-8.965a1.132 1.132 0 0 0-1.116-.944h-4.93Zm9.655 13.258a1.13 1.13 0 0 0-1.119 1.299l1.771 11.809a1.132 1.132 0 0 0 1.201.961l21.443-1.55a1.132 1.132 0 0 0 1.048-1.065l.583-10.258a1.132 1.132 0 0 0-1.13-1.196h-23.797Z" fill="#fff"/>
    <g filter="url(#Q)">
        <circle cx="873.26" cy="294.26" r="37.26" fill="#0F81F0" fill-opacity=".1"/>
        <circle cx="873.26" cy="294.26" r="37.26" fill="#070E26"/>
        <circle cx="873.26" cy="294.26" r="35.849" stroke="url(#R)" stroke-width="2.823"/>
    </g>
    <ellipse cx="879.59" cy="279.449" rx="5.888" ry="5.72" transform="rotate(44.037 879.59 279.449)" fill="#fff"/>
    <circle cx="884.307" cy="310.596" r="5.79" transform="rotate(119.037 884.307 310.596)" fill="#fff"/>
    <ellipse cx="861.586" cy="298.073" rx="5.888" ry="5.72" transform="rotate(44.037 861.586 298.073)" fill="#fff"/>
    <path fill="#fff" d="m877.569 279.364 2.177 2.105-15.436 15.964-2.177-2.105zM883.93 308.728l-1.506 2.712-19.526-10.84 1.506-2.712z"/>
    <g filter="url(#S)">
        <circle cx="234.19" cy="309.19" r="36.19" fill="#0F81F0" fill-opacity=".1"/>
        <circle cx="234.19" cy="309.19" r="36.19" fill="#070E26"/>
        <circle cx="234.19" cy="309.19" r="34.819" stroke="url(#T)" stroke-width="2.742"/>
    </g>
    <path d="M229.628 318.931a.823.823 0 0 1-1.163 0l-3.057-3.057a.823.823 0 0 1 0-1.163l15.069-15.069a.823.823 0 0 1 1.163 0l3.057 3.057a.823.823 0 0 1 0 1.163l-15.069 15.069ZM246.108 302.455a2.505 2.505 0 0 0 0-3.542l-.679-.679a2.504 2.504 0 0 0-3.541 0 .25.25 0 0 0 0 .354l3.866 3.867a.252.252 0 0 0 .354 0ZM228.011 320.55a.547.547 0 0 0 0-.776l-3.444-3.445a.55.55 0 0 0-.776 0l-.087.087c-.374.375-.618.86-.696 1.383l-.452 3.052a.822.822 0 0 0 .934.934l3.051-.452a2.47 2.47 0 0 0 1.383-.696l.087-.087Z" fill="#fff"/>
    <path fill-rule="evenodd" clip-rule="evenodd" d="M214.796 294.325c0-1.85 1.5-3.35 3.35-3.35h31.408a3.35 3.35 0 0 1 3.35 3.35v8.157a1.37 1.37 0 0 1-1.37 1.37h-.609a1.37 1.37 0 0 1-1.371-1.37v-4.806a3.35 3.35 0 0 0-3.35-3.351h-24.708a3.35 3.35 0 0 0-3.35 3.351v24.707a3.35 3.35 0 0 0 3.35 3.351h24.708c1.85 0 3.35-1.5 3.35-3.351V311.4c0-.757.614-1.371 1.371-1.371h.609c.757 0 1.37.614 1.37 1.371v14.334a3.35 3.35 0 0 1-3.35 3.35h-31.408a3.35 3.35 0 0 1-3.35-3.35v-31.409Z" fill="#fff"/>
    <g filter="url(#U)">
        <circle cx="865.26" cy="503.26" r="37.26" fill="#08F7DB" fill-opacity=".1"/>
        <circle cx="865.26" cy="503.26" r="37.26" fill="#061A24"/>
        <circle cx="865.26" cy="503.26" r="35.849" stroke="url(#V)" stroke-width="2.823"/>
    </g>
    <path d="M891.719 508.423c.551-7.343-4.954-12.908-12.297-13.459-.83-.062-1.827.107-2.759.31-.864.187-1.41 1.053-1.228 1.918.184.877 1.043 1.405 1.917 1.205.638-.146 1.293-.258 1.828-.218 5.568.418 9.742 4.435 9.324 10.003-.418 5.567-5.464 9.324-11.286 9.324h-23.216v3.215h22.974c7.401 0 14.192-4.955 14.743-12.298Z" fill="#fff"/>
    <path fill-rule="evenodd" clip-rule="evenodd" d="m882.97 497.709-3.297.405c-1.021-7.099-7.082-12.233-14.464-12.233-5.977 0-11.119 3.577-13.401 8.707l-3.215-.931c2.702-6.515 9.124-11.097 16.616-11.097 9.079 0 16.54 6.407 17.761 15.149Z" fill="#fff"/>
    <path fill-rule="evenodd" clip-rule="evenodd" d="M844.675 518.236c5.893 4.135 13.866 3.098 18.528-2.166.585-.661.405-1.666-.318-2.174-.723-.507-1.713-.322-2.321.319-3.627 3.828-9.606 4.523-14.051 1.403-4.889-3.43-6.071-10.174-2.641-15.063 3.119-4.445 8.978-5.826 13.691-3.46.789.396 1.783.234 2.29-.489.508-.723.336-1.73-.44-2.153-6.174-3.364-14.024-1.627-18.159 4.265-4.445 6.335-2.913 15.074 3.421 19.518Z" fill="#fff"/>
    <path d="M866.863 505.338a.561.561 0 0 0-.467.881l2.431 3.467a.571.571 0 0 0 .934 0l2.43-3.467a.561.561 0 0 0-.467-.881h-.655a.564.564 0 0 1-.568-.561v-6.312a.565.565 0 0 0-.568-.561h-1.456a.564.564 0 0 0-.568.561v6.312c0 .31-.254.561-.568.561h-.478ZM864.695 502.919a.561.561 0 0 0 .467-.881l-2.43-3.468a.572.572 0 0 0-.934 0l-2.431 3.468a.561.561 0 0 0 .467.881h.656c.313 0 .568.251.568.561v6.312c0 .31.254.561.568.561h1.455a.564.564 0 0 0 .568-.561v-6.312c0-.31.254-.561.568-.561h.478Z" fill="#fff"/>
    <g filter="url(#W)">
        <circle cx="781.658" cy="773.658" r="36.658" fill="#08F7DB" fill-opacity=".1"/>
        <circle cx="781.658" cy="773.658" r="36.658" fill="#061A24"/>
        <circle cx="781.658" cy="773.658" r="35.27" stroke="url(#X)" stroke-width="2.777"/>
    </g>
    <path fill-rule="evenodd" clip-rule="evenodd" d="M781.166 770.115c10.382 0 18.799-4.335 18.799-9.684 0-5.349-8.417-9.684-18.799-9.684-10.383 0-18.799 4.335-18.799 9.684 0 5.349 8.416 9.684 18.799 9.684Zm0-2.829c8.959 0 16.221-3.069 16.221-6.855 0-3.786-7.262-6.855-16.221-6.855s-16.221 3.069-16.221 6.855c0 3.786 7.262 6.855 16.221 6.855Z" fill="#fff"/>
    <path d="M799.965 768.528c0 5.281-8.416 9.563-18.799 9.563-10.382 0-18.799-4.282-18.799-9.563V760.2h2.579v8.328c0 3.738 7.262 6.769 16.22 6.769 8.959 0 16.221-3.031 16.221-6.769v-8.382h2.578v8.382Z" fill="#fff"/>
    <path fill-rule="evenodd" clip-rule="evenodd" d="M762.367 776.788c0 5.042 7.672 9.173 17.401 9.537.771.029 1.398-.599 1.398-1.371 0-.771-.627-1.394-1.398-1.422-8.304-.295-14.822-3.202-14.822-6.744v-8.328h-2.579v8.328Z" fill="#fff"/>
    <path fill-rule="evenodd" clip-rule="evenodd" d="M762.367 785.048c0 5.042 7.672 9.173 17.401 9.537.771.029 1.398-.599 1.398-1.371 0-.771-.627-1.394-1.398-1.421-8.304-.296-14.822-3.203-14.822-6.745v-8.328h-2.579v8.328ZM791.857 792.6a6.979 6.979 0 1 0-.001-13.957 6.979 6.979 0 0 0 .001 13.957Zm-.002-2.849a4.13 4.13 0 1 0 0-8.26 4.13 4.13 0 0 0 0 8.26Z" fill="#fff"/>
    <path d="M787.723 793.733c0-.218.27-.352.452-.235.619.397 1.865 1.008 3.678 1.008s3.06-.611 3.679-1.008c.181-.117.451.017.451.235v8.367c0 .666-.787 1.004-1.255.539l-2.359-2.336a.732.732 0 0 0-1.032 0l-2.358 2.336c-.469.465-1.256.127-1.256-.539v-8.367Z" fill="#fff"/>
    <g filter="url(#Y)">
        <circle cx="254.74" cy="480.74" r="37.26" fill="#08F7DB" fill-opacity=".1"/>
        <circle cx="254.74" cy="480.74" r="37.26" fill="#061A24"/>
        <circle cx="254.74" cy="480.74" r="35.849" stroke="url(#Z)" stroke-width="2.823"/>
    </g>
    <path d="M263.844 465.755c0-1.308 1.592-1.953 2.505-1.016.899.924.244 2.473-1.046 2.473a1.458 1.458 0 0 1-1.459-1.457Z" fill="#fff"/>
    <path fill-rule="evenodd" clip-rule="evenodd" d="M271.815 501.635h-32.998a1.853 1.853 0 0 1-1.854-1.851v-3.289h2.595v.697c0 1.022.83 1.851 1.854 1.851h27.808a1.853 1.853 0 0 0 1.854-1.851v-25.536c0-1.023-.83-1.852-1.854-1.852h-6.118a1.853 1.853 0 0 1-1.854-1.851v-6.388c0-1.022-.83-1.851-1.853-1.851h-17.983a1.853 1.853 0 0 0-1.854 1.851v24.046h-2.595v-26.638c0-1.023.83-1.851 1.854-1.851h24.244c.5 0 .98.202 1.329.56l8.755 8.991c.336.346.524.809.524 1.291v31.82c0 1.022-.83 1.851-1.854 1.851Zm-7.971-35.88c0-1.308 1.592-1.953 2.505-1.016.899.924.244 2.473-1.046 2.473a1.458 1.458 0 0 1-1.459-1.457Z" fill="#fff"/>
    <path d="M239.558 485.611h-2.595v10.884h2.595v-10.884Z" fill="#fff"/>
    <path fill-rule="evenodd" clip-rule="evenodd" d="M234.02 479.292a1.01 1.01 0 0 0-1.01 1.01v11.106a1.01 1.01 0 0 0 1.01 1.009h31.913a1.01 1.01 0 0 0 1.009-1.009v-11.106a1.01 1.01 0 0 0-1.009-1.01H234.02Zm1.99 1.753a1.01 1.01 0 0 0-1.01 1.009v7.648a1.01 1.01 0 0 0 1.01 1.009h27.831a1.01 1.01 0 0 0 1.01-1.009v-7.648a1.01 1.01 0 0 0-1.01-1.009H236.01Z" fill="#fff"/>
    <path d="M235 482.054a1.01 1.01 0 0 1 1.01-1.009h27.831c.558 0 1.01.452 1.01 1.009v7.648a1.01 1.01 0 0 1-1.01 1.009H236.01a1.01 1.01 0 0 1-1.01-1.009v-7.648Z" fill="#fff"/>
    <g filter="url(#aa)">
        <circle cx="336.342" cy="785.342" r="37.342" fill="#08F7DB" fill-opacity=".1"/>
        <circle cx="336.342" cy="785.342" r="37.342" fill="#061A24"/>
        <circle cx="336.342" cy="785.342" r="35.927" stroke="url(#ab)" stroke-width="2.829"/>
    </g>
    <path fill-rule="evenodd" clip-rule="evenodd" d="M318.354 767.178a1.926 1.926 0 0 0-1.925 1.926v36.037c0 1.064.862 1.926 1.925 1.926h36.038a1.925 1.925 0 0 0 1.925-1.926v-36.037a1.926 1.926 0 0 0-1.925-1.926h-36.038Zm3.576 3.577a1.925 1.925 0 0 0-1.926 1.925v28.885c0 1.064.862 1.926 1.926 1.926h28.885a1.925 1.925 0 0 0 1.925-1.926V772.68a1.925 1.925 0 0 0-1.925-1.925H321.93Z" fill="#fff"/>
    <rect x="331.007" y="761.677" width="10.729" height="10.729" rx="1.926" fill="#fff"/>
    <path d="m330.507 794.288-5.437-7.581c-.354-.493.211-1.125.729-.816l5.019 2.994c.443.264.994.258 1.431-.015l16.017-10.019c.577-.36 1.166.443.659.9l-16.375 14.76a1.374 1.374 0 0 1-2.043-.223Z" fill="#fff"/>
    <g filter="url(#ac)">
        <circle cx="552.74" cy="728.74" r="36.26" fill="#fff" fill-opacity=".1"/>
        <circle cx="552.74" cy="728.74" r="36.26" fill="#1F1A28"/>
        <circle cx="552.74" cy="728.74" r="34.886" stroke="url(#ad)" stroke-width="2.747"/>
    </g>
    <path fill-rule="evenodd" clip-rule="evenodd" d="M533.933 716.473c-.306.014-.553.252-.542.561.076 2.281.058 5.343.033 9.643-.009 1.615-.02 3.404-.027 5.393-.008 2.574 1.181 5.491 2.971 7.342 4.47 4.626 12.707 12.853 15.757 12.853 3.057 0 11.466-8.26 16.012-12.88 1.806-1.836 3.006-4.743 3-7.317-.007-3.193-.022-5.58-.033-7.471-.023-3.622-.034-5.421.038-7.563.011-.309-.237-.547-.543-.56-7.209-.303-14.315-6.389-17.101-9.061a1.84 1.84 0 0 0-2.496-.038c-2.901 2.648-10.31 8.773-17.069 9.098Zm3.553 2.544a.444.444 0 0 0-.437.453c.062 1.837.047 4.305.027 7.771-.006 1.072-.013 2.241-.018 3.515-.011 2.575 1.172 5.501 2.969 7.345 3.695 3.796 9.789 9.763 12.121 9.763 2.338 0 8.56-5.995 12.321-9.789 1.812-1.829 3.008-4.743 3-7.318-.006-2.164-.017-3.837-.025-5.192-.018-2.919-.027-4.369.031-6.095.009-.25-.191-.441-.438-.452-5.81-.244-11.537-5.149-13.782-7.303a1.482 1.482 0 0 0-2.012-.03c-2.338 2.134-8.309 7.07-13.757 7.332Z" fill="#fff"/>
    <path d="m548.176 736.758-4.875-4.984a1.352 1.352 0 0 1 1.922-1.901l3.153 3.153c.2.2.525.2.726 0l10.268-10.268a1.3 1.3 0 0 1 1.85 1.831l-11.918 12.169a.788.788 0 0 1-1.126 0Z" fill="#fff"/>
    <g filter="url(#ae)">
        <circle cx="722.74" cy="490.74" r="36.26" fill="#fff" fill-opacity=".1"/>
        <circle cx="722.74" cy="490.74" r="36.26" fill="#1F1A28"/>
        <circle cx="722.74" cy="490.74" r="34.886" stroke="url(#af)" stroke-width="2.747"/>
    </g>
    <path d="M729.136 486.482a1.985 1.985 0 0 0-1.985-1.985h-9.925a1.985 1.985 0 0 0-1.986 1.985v9.925c0 1.096.889 1.985 1.986 1.985h9.925a1.985 1.985 0 0 0 1.985-1.985v-9.925ZM730.837 471.736a1.985 1.985 0 0 0-1.985-1.986h-.141a1.985 1.985 0 0 0-1.985 1.986v5.955c0 1.096.888 1.985 1.985 1.985h.141a1.985 1.985 0 0 0 1.985-1.985v-5.955ZM741.968 500.023a1.985 1.985 0 0 0 1.985-1.985v-.142a1.985 1.985 0 0 0-1.985-1.985h-5.955a1.985 1.985 0 0 0-1.985 1.985v.142c0 1.096.889 1.985 1.985 1.985h5.955ZM730.837 505.198a1.985 1.985 0 0 0-1.985-1.985h-.141a1.985 1.985 0 0 0-1.985 1.985v5.955c0 1.097.888 1.986 1.985 1.986h.141a1.985 1.985 0 0 0 1.985-1.986v-5.955ZM708.505 500.023a1.985 1.985 0 0 0 1.985-1.985v-.142a1.985 1.985 0 0 0-1.985-1.985h-5.955a1.985 1.985 0 0 0-1.985 1.985v.142c0 1.096.889 1.985 1.985 1.985h5.955ZM724.315 471.736a1.986 1.986 0 0 0-1.985-1.986h-.142a1.986 1.986 0 0 0-1.985 1.986v5.955c0 1.096.889 1.985 1.985 1.985h.142a1.985 1.985 0 0 0 1.985-1.985v-5.955ZM741.968 493.5a1.985 1.985 0 0 0 1.985-1.985v-.141a1.985 1.985 0 0 0-1.985-1.985h-5.955a1.985 1.985 0 0 0-1.985 1.985v.141c0 1.097.889 1.985 1.985 1.985h5.955ZM724.315 505.198a1.985 1.985 0 0 0-1.985-1.985h-.142a1.985 1.985 0 0 0-1.985 1.985v5.955c0 1.097.889 1.986 1.985 1.986h.142a1.986 1.986 0 0 0 1.985-1.986v-5.955ZM708.505 493.5a1.984 1.984 0 0 0 1.985-1.985v-.141a1.984 1.984 0 0 0-1.985-1.985h-5.955a1.985 1.985 0 0 0-1.985 1.985v.141c0 1.097.889 1.985 1.985 1.985h5.955ZM717.793 471.736a1.986 1.986 0 0 0-1.985-1.986h-.142a1.986 1.986 0 0 0-1.985 1.986v5.955c0 1.096.889 1.985 1.985 1.985h.142a1.985 1.985 0 0 0 1.985-1.985v-5.955ZM741.968 486.978a1.985 1.985 0 0 0 1.985-1.985v-.142a1.985 1.985 0 0 0-1.985-1.985h-5.955a1.985 1.985 0 0 0-1.985 1.985v.142c0 1.096.889 1.985 1.985 1.985h5.955ZM717.793 505.198a1.985 1.985 0 0 0-1.985-1.985h-.142a1.985 1.985 0 0 0-1.985 1.985v5.955c0 1.097.889 1.986 1.985 1.986h.142a1.986 1.986 0 0 0 1.985-1.986v-5.955ZM708.505 486.978a1.985 1.985 0 0 0 1.985-1.985v-.142a1.985 1.985 0 0 0-1.985-1.985h-5.955a1.985 1.985 0 0 0-1.985 1.985v.142c0 1.096.889 1.985 1.985 1.985h5.955Z" fill="#fff"/>
    <path fill-rule="evenodd" clip-rule="evenodd" d="M735.091 476.556c1.097 0 1.985.889 1.985 1.986v25.805a1.985 1.985 0 0 1-1.985 1.986h-25.806a1.986 1.986 0 0 1-1.985-1.986v-25.805c0-1.097.889-1.986 1.985-1.986h25.806Zm-3.33 3.331c1.096 0 1.985.888 1.985 1.985v19.145a1.985 1.985 0 0 1-1.985 1.985h-19.146a1.985 1.985 0 0 1-1.985-1.985v-19.145c0-1.097.889-1.985 1.985-1.985h19.146Z" fill="#fff"/>
    <g filter="url(#ag)">
        <circle cx="394.74" cy="490.74" r="36.26" fill="#fff" fill-opacity=".1"/>
        <circle cx="394.74" cy="490.74" r="36.26" fill="#1F1A28"/>
        <circle cx="394.74" cy="490.74" r="34.886" stroke="url(#ah)" stroke-width="2.747"/>
    </g>
    <path fill-rule="evenodd" clip-rule="evenodd" d="M394.661 513.628c0 .871-.708 1.583-1.578 1.526-12.339-.812-22.095-11.078-22.095-23.622 0-13.074 10.599-23.673 23.673-23.673 12.545 0 22.81 9.756 23.622 22.095.058.869-.655 1.578-1.526 1.578-.872 0-1.572-.709-1.638-1.578-.806-10.594-9.657-18.939-20.458-18.939-11.331 0-20.517 9.186-20.517 20.517 0 10.8 8.345 19.652 18.939 20.458.869.066 1.578.766 1.578 1.638Z" fill="#fff"/>
    <path fill-rule="evenodd" clip-rule="evenodd" d="M394.66 513.628c0 .871-.718 1.596-1.559 1.369-5.713-1.546-10.12-11.462-10.12-23.465 0-13.074 5.229-23.673 11.679-23.673 6.188 0 11.253 9.756 11.654 22.094.028.871-.681 1.579-1.553 1.579-.872 0-1.576-.708-1.603-1.579-.335-10.594-4.012-18.938-8.498-18.938-4.707 0-8.522 9.186-8.522 20.517 0 10.073 3.015 18.451 6.991 20.187.799.349 1.531 1.037 1.531 1.909Z" fill="#fff"/>
    <path fill="#fff" d="M373.197 481.747h42.928v3.472h-42.928zM373.197 498.161h18.939a1.736 1.736 0 1 1 0 3.472h-18.939v-3.472Z"/>
    <path fill-rule="evenodd" clip-rule="evenodd" d="M416.353 494.479a8.153 8.153 0 0 1-1.392 11.446l-1.534-1.958a5.666 5.666 0 1 0-9.06-5.518l-2.583 1.296a8.154 8.154 0 0 1 14.569-5.266Z" fill="#fff"/>
    <path fill-rule="evenodd" clip-rule="evenodd" d="M415.449 503.244a8.153 8.153 0 0 1-6.612 9.446l-.432-2.449a5.666 5.666 0 1 0-5.401-9.13l-2.889-.072a8.153 8.153 0 0 1 15.334 2.205Z" fill="#fff"/>
    <path fill-rule="evenodd" clip-rule="evenodd" d="M407.478 514.294a8.153 8.153 0 1 0-9.748-13.071 8.153 8.153 0 1 0 9.748 13.071Zm-1.487-1.994a5.665 5.665 0 1 0-6.774-9.083 5.666 5.666 0 1 0 6.774 9.083Z" fill="#fff"/>
    <defs>
        <linearGradient id="c" x1="556.238" y1="147.081" x2="556.238" y2="965.389" gradientUnits="userSpaceOnUse">
            <stop stop-color="#0F81F0"/>
            <stop offset="1" stop-color="#0F81F0"/>
        </linearGradient>
        <linearGradient id="d" x1="556.004" y1="255.357" x2="556.004" y2="364.683" gradientUnits="userSpaceOnUse">
            <stop stop-color="#0F81F0"/>
            <stop offset="1" stop-color="#0F0032" stop-opacity="0"/>
        </linearGradient>
        <linearGradient id="e" x1="556.006" y1="227.456" x2="556.006" y2="346.928" gradientUnits="userSpaceOnUse">
            <stop stop-color="#0F81F0"/>
            <stop offset="1" stop-color="#0F0032" stop-opacity="0"/>
        </linearGradient>
        <linearGradient id="h" x1="556.236" y1="243.425" x2="556.236" y2="869.045" gradientUnits="userSpaceOnUse">
            <stop stop-color="#08F7DB"/>
            <stop offset="1" stop-color="#08F7DB"/>
        </linearGradient>
        <linearGradient id="i" x1="434.393" y1="559.158" x2="399.055" y2="559.158" gradientUnits="userSpaceOnUse">
            <stop offset=".281" stop-color="#08F7DB"/>
            <stop offset=".99" stop-color="#08F7DB" stop-opacity="0"/>
        </linearGradient>
        <linearGradient id="j" x1="660.427" y1="557.056" x2="691.262" y2="557.056" gradientUnits="userSpaceOnUse">
            <stop offset=".281" stop-color="#08F7DB"/>
            <stop offset=".99" stop-color="#08F7DB" stop-opacity="0"/>
        </linearGradient>
        <linearGradient id="k" x1="633.239" y1="559.157" x2="662.743" y2="449.044" gradientUnits="userSpaceOnUse">
            <stop offset=".25" stop-color="#fff"/>
            <stop offset="1" stop-color="#fff" stop-opacity="0"/>
        </linearGradient>
        <linearGradient id="l" x1="486.132" y1="560.208" x2="403.58" y2="560.208" gradientUnits="userSpaceOnUse">
            <stop offset=".25" stop-color="#fff"/>
            <stop offset="1" stop-color="#fff" stop-opacity="0"/>
        </linearGradient>
        <linearGradient id="o" x1="556.237" y1="376.257" x2="556.237" y2="736.214" gradientUnits="userSpaceOnUse">
            <stop stop-color="#fff"/>
            <stop offset="1" stop-color="#fff"/>
        </linearGradient>
        <linearGradient id="q" x1="249.135" y1="628.537" x2="262.307" y2="652.715" gradientUnits="userSpaceOnUse">
            <stop stop-color="#08F7DB"/>
            <stop offset="1" stop-color="#0F0032"/>
        </linearGradient>
        <linearGradient id="s" x1="623.369" y1="381.502" x2="636.542" y2="405.679" gradientUnits="userSpaceOnUse">
            <stop stop-color="#08F7DB"/>
            <stop offset="1" stop-color="#0F0032"/>
        </linearGradient>
        <linearGradient id="u" x1="411.413" y1="268" x2="422.294" y2="287.973" gradientUnits="userSpaceOnUse">
            <stop stop-color="#0F81F0"/>
            <stop offset="1" stop-color="#0F0032"/>
        </linearGradient>
        <linearGradient id="w" x1="392.444" y1="630.64" x2="409.053" y2="661.125" gradientUnits="userSpaceOnUse">
            <stop stop-color="#0F81F0"/>
            <stop offset="1" stop-color="#0F0032"/>
        </linearGradient>
        <linearGradient id="y" x1="702.587" y1="649.314" x2="709.434" y2="662.176" gradientUnits="userSpaceOnUse">
            <stop stop-color="#FEB67B"/>
            <stop offset="1" stop-color="#0F0032"/>
        </linearGradient>
        <linearGradient id="A" x1="245.246" y1="595.455" x2="249.987" y2="604.36" gradientUnits="userSpaceOnUse">
            <stop stop-color="#FEB67B"/>
            <stop offset="1" stop-color="#0F0032"/>
        </linearGradient>
        <linearGradient id="C" x1="778.769" y1="334.877" x2="784.563" y2="345.76" gradientUnits="userSpaceOnUse">
            <stop stop-color="#FEB67B"/>
            <stop offset="1" stop-color="#0F0032"/>
        </linearGradient>
        <linearGradient id="E" x1="522.061" y1="143.68" x2="527.855" y2="154.563" gradientUnits="userSpaceOnUse">
            <stop stop-color="#FEB67B"/>
            <stop offset="1" stop-color="#0F0032"/>
        </linearGradient>
        <linearGradient id="G" x1="600.126" y1="954.291" x2="608.027" y2="969.131" gradientUnits="userSpaceOnUse">
            <stop stop-color="#FEB67B"/>
            <stop offset="1" stop-color="#0F0032"/>
        </linearGradient>
        <linearGradient id="I" x1="428.221" y1="421.201" x2="435.069" y2="434.062" gradientUnits="userSpaceOnUse">
            <stop stop-color="#FEB67B"/>
            <stop offset="1" stop-color="#0F0032"/>
        </linearGradient>
        <linearGradient id="K" x1="143.413" y1="549" x2="154.294" y2="568.973" gradientUnits="userSpaceOnUse">
            <stop stop-color="#0F81F0"/>
            <stop offset="1" stop-color="#0F0032"/>
        </linearGradient>
        <linearGradient id="N" x1="702.348" y1="898.256" x2="745.942" y2="956.712" gradientUnits="userSpaceOnUse">
            <stop stop-color="#0F81F0"/>
            <stop offset="1" stop-color="#0F81F0"/>
        </linearGradient>
        <linearGradient id="P" x1="373.652" y1="900.727" x2="418.058" y2="960.272" gradientUnits="userSpaceOnUse">
            <stop stop-color="#0F81F0"/>
            <stop offset="1" stop-color="#0F81F0"/>
        </linearGradient>
        <linearGradient id="R" x1="852.616" y1="265.392" x2="896.925" y2="324.806" gradientUnits="userSpaceOnUse">
            <stop stop-color="#0F81F0"/>
            <stop offset="1" stop-color="#0F81F0"/>
        </linearGradient>
        <linearGradient id="T" x1="214.139" y1="281.151" x2="257.175" y2="338.859" gradientUnits="userSpaceOnUse">
            <stop stop-color="#0F81F0"/>
            <stop offset="1" stop-color="#0F81F0"/>
        </linearGradient>
        <linearGradient id="V" x1="844.616" y1="474.392" x2="888.925" y2="533.806" gradientUnits="userSpaceOnUse">
            <stop stop-color="#08F7DB"/>
            <stop offset="1" stop-color="#08F7DB"/>
        </linearGradient>
        <linearGradient id="X" x1="761.348" y1="745.256" x2="804.942" y2="803.712" gradientUnits="userSpaceOnUse">
            <stop stop-color="#08F7DB"/>
            <stop offset="1" stop-color="#08F7DB"/>
        </linearGradient>
        <linearGradient id="Z" x1="234.096" y1="451.872" x2="278.406" y2="511.286" gradientUnits="userSpaceOnUse">
            <stop stop-color="#08F7DB"/>
            <stop offset="1" stop-color="#08F7DB"/>
        </linearGradient>
        <linearGradient id="ab" x1="315.652" y1="756.41" x2="360.058" y2="815.955" gradientUnits="userSpaceOnUse">
            <stop stop-color="#08F7DB"/>
            <stop offset="1" stop-color="#08F7DB"/>
        </linearGradient>
        <linearGradient id="ad" x1="532.65" y1="700.647" x2="575.77" y2="758.467" gradientUnits="userSpaceOnUse">
            <stop stop-color="#fff"/>
            <stop offset="1" stop-color="#fff"/>
        </linearGradient>
        <linearGradient id="af" x1="702.65" y1="462.647" x2="745.77" y2="520.467" gradientUnits="userSpaceOnUse">
            <stop stop-color="#fff"/>
            <stop offset="1" stop-color="#fff"/>
        </linearGradient>
        <linearGradient id="ah" x1="374.65" y1="462.647" x2="417.77" y2="520.467" gradientUnits="userSpaceOnUse">
            <stop stop-color="#fff"/>
            <stop offset="1" stop-color="#fff"/>
        </linearGradient>
        <filter id="a" x="147.084" y="147.081" width="818.308" height="818.308" filterUnits="userSpaceOnUse" color-interpolation-filters="sRGB">
            <feFlood flood-opacity="0" result="BackgroundImageFix"/>
            <feBlend in="SourceGraphic" in2="BackgroundImageFix" result="shape"/>
            <feColorMatrix in="SourceAlpha" values="0 0 0 0 0 0 0 0 0 0 0 0 0 0 0 0 0 0 127 0" result="hardAlpha"/>
            <feMorphology radius="15.768" operator="dilate" in="SourceAlpha" result="effect1_innerShadow_1031_479"/>
            <feOffset/>
            <feGaussianBlur stdDeviation="21.073"/>
            <feComposite in2="hardAlpha" operator="arithmetic" k2="-1" k3="1"/>
            <feColorMatrix values="0 0 0 0 0.060241 0 0 0 0 0.506024 0 0 0 0 0.939759 0 0 0 1 0"/>
            <feBlend in2="shape" result="effect1_innerShadow_1031_479"/>
        </filter>
        <filter id="f" x="243.426" y="243.425" width="625.62" height="625.62" filterUnits="userSpaceOnUse" color-interpolation-filters="sRGB">
            <feFlood flood-opacity="0" result="BackgroundImageFix"/>
            <feBlend in="SourceGraphic" in2="BackgroundImageFix" result="shape"/>
            <feColorMatrix in="SourceAlpha" values="0 0 0 0 0 0 0 0 0 0 0 0 0 0 0 0 0 0 127 0" result="hardAlpha"/>
            <feMorphology radius="15.768" operator="dilate" in="SourceAlpha" result="effect1_innerShadow_1031_479"/>
            <feOffset/>
            <feGaussianBlur stdDeviation="21.278"/>
            <feComposite in2="hardAlpha" operator="arithmetic" k2="-1" k3="1"/>
            <feColorMatrix values="0 0 0 0 0.0306748 0 0 0 0 0.969325 0 0 0 0 0.858896 0 0 0 1 0"/>
            <feBlend in2="shape" result="effect1_innerShadow_1031_479"/>
        </filter>
        <filter id="m" x="376.259" y="376.257" width="359.957" height="359.957" filterUnits="userSpaceOnUse" color-interpolation-filters="sRGB">
            <feFlood flood-opacity="0" result="BackgroundImageFix"/>
            <feBlend in="SourceGraphic" in2="BackgroundImageFix" result="shape"/>
            <feColorMatrix in="SourceAlpha" values="0 0 0 0 0 0 0 0 0 0 0 0 0 0 0 0 0 0 127 0" result="hardAlpha"/>
            <feMorphology radius="15.768" operator="dilate" in="SourceAlpha" result="effect1_innerShadow_1031_479"/>
            <feOffset/>
            <feGaussianBlur stdDeviation="21.278"/>
            <feComposite in2="hardAlpha" operator="arithmetic" k2="-1" k3="1"/>
            <feColorMatrix values="0 0 0 0 1 0 0 0 0 1 0 0 0 0 1 0 0 0 1 0"/>
            <feBlend in2="shape" result="effect1_innerShadow_1031_479"/>
        </filter>
        <filter id="p" x="240.64" y="625.384" width="30.485" height="30.485" filterUnits="userSpaceOnUse" color-interpolation-filters="sRGB">
            <feFlood flood-opacity="0" result="BackgroundImageFix"/>
            <feBlend in="SourceGraphic" in2="BackgroundImageFix" result="shape"/>
            <feGaussianBlur stdDeviation="1.577" result="effect1_foregroundBlur_1031_479"/>
        </filter>
        <filter id="r" x="614.874" y="378.348" width="30.485" height="30.485" filterUnits="userSpaceOnUse" color-interpolation-filters="sRGB">
            <feFlood flood-opacity="0" result="BackgroundImageFix"/>
            <feBlend in="SourceGraphic" in2="BackgroundImageFix" result="shape"/>
            <feGaussianBlur stdDeviation="1.577" result="effect1_foregroundBlur_1031_479"/>
        </filter>
        <filter id="t" x="404.898" y="265.897" width="24.177" height="24.178" filterUnits="userSpaceOnUse" color-interpolation-filters="sRGB">
            <feFlood flood-opacity="0" result="BackgroundImageFix"/>
            <feBlend in="SourceGraphic" in2="BackgroundImageFix" result="shape"/>
            <feGaussianBlur stdDeviation="1.051" result="effect1_foregroundBlur_1031_479"/>
        </filter>
        <filter id="v" x="383.607" y="628.538" width="34.69" height="34.69" filterUnits="userSpaceOnUse" color-interpolation-filters="sRGB">
            <feFlood flood-opacity="0" result="BackgroundImageFix"/>
            <feBlend in="SourceGraphic" in2="BackgroundImageFix" result="shape"/>
            <feGaussianBlur stdDeviation="1.051" result="effect1_foregroundBlur_1031_479"/>
        </filter>
        <filter id="x" x="696.867" y="646.408" width="17.87" height="17.87" filterUnits="userSpaceOnUse" color-interpolation-filters="sRGB">
            <feFlood flood-opacity="0" result="BackgroundImageFix"/>
            <feBlend in="SourceGraphic" in2="BackgroundImageFix" result="shape"/>
            <feGaussianBlur stdDeviation="1.051" result="effect1_foregroundBlur_1031_479"/>
        </filter>
        <filter id="z" x="241.48" y="593.637" width="11.984" height="11.984" filterUnits="userSpaceOnUse" color-interpolation-filters="sRGB">
            <feFlood flood-opacity="0" result="BackgroundImageFix"/>
            <feBlend in="SourceGraphic" in2="BackgroundImageFix" result="shape"/>
            <feGaussianBlur stdDeviation=".631" result="effect1_foregroundBlur_1031_479"/>
        </filter>
        <filter id="B" x="774.962" y="333.451" width="13.055" height="13.055" filterUnits="userSpaceOnUse" color-interpolation-filters="sRGB">
            <feFlood flood-opacity="0" result="BackgroundImageFix"/>
            <feBlend in="SourceGraphic" in2="BackgroundImageFix" result="shape"/>
            <feGaussianBlur stdDeviation=".373" result="effect1_foregroundBlur_1031_479"/>
        </filter>
        <filter id="D" x="517.899" y="141.899" width="13.766" height="13.766" filterUnits="userSpaceOnUse" color-interpolation-filters="sRGB">
            <feFlood flood-opacity="0" result="BackgroundImageFix"/>
            <feBlend in="SourceGraphic" in2="BackgroundImageFix" result="shape"/>
            <feGaussianBlur stdDeviation=".551" result="effect1_foregroundBlur_1031_479"/>
        </filter>
        <filter id="F" x="593.85" y="951.261" width="19.973" height="19.973" filterUnits="userSpaceOnUse" color-interpolation-filters="sRGB">
            <feFlood flood-opacity="0" result="BackgroundImageFix"/>
            <feBlend in="SourceGraphic" in2="BackgroundImageFix" result="shape"/>
            <feGaussianBlur stdDeviation="1.051" result="effect1_foregroundBlur_1031_479"/>
        </filter>
        <filter id="H" x="423.511" y="419.304" width="15.852" height="15.852" filterUnits="userSpaceOnUse" color-interpolation-filters="sRGB">
            <feFlood flood-opacity="0" result="BackgroundImageFix"/>
            <feBlend in="SourceGraphic" in2="BackgroundImageFix" result="shape"/>
            <feGaussianBlur stdDeviation=".547" result="effect1_foregroundBlur_1031_479"/>
        </filter>
        <filter id="J" x="136.898" y="546.897" width="24.177" height="24.178" filterUnits="userSpaceOnUse" color-interpolation-filters="sRGB">
            <feFlood flood-opacity="0" result="BackgroundImageFix"/>
            <feBlend in="SourceGraphic" in2="BackgroundImageFix" result="shape"/>
            <feGaussianBlur stdDeviation="1.051" result="effect1_foregroundBlur_1031_479"/>
        </filter>
        <filter id="L" x="496.936" y="517.041" width="121.057" height="68.129" filterUnits="userSpaceOnUse" color-interpolation-filters="sRGB">
            <feFlood flood-opacity="0" result="BackgroundImageFix"/>
            <feBlend in="SourceGraphic" in2="BackgroundImageFix" result="shape"/>
            <feColorMatrix in="SourceAlpha" values="0 0 0 0 0 0 0 0 0 0 0 0 0 0 0 0 0 0 127 0" result="hardAlpha"/>
            <feOffset dx=".777" dy=".777"/>
            <feGaussianBlur stdDeviation=".739"/>
            <feComposite in2="hardAlpha" operator="arithmetic" k2="-1" k3="1"/>
            <feColorMatrix values="0 0 0 0 0 0 0 0 0 0 0 0 0 0 0 0 0 0 0.25 0"/>
            <feBlend in2="shape" result="effect1_innerShadow_1031_479"/>
        </filter>
        <filter id="M" x="685.661" y="889.661" width="73.996" height="73.996" filterUnits="userSpaceOnUse" color-interpolation-filters="sRGB">
            <feFlood flood-opacity="0" result="BackgroundImageFix"/>
            <feBlend in="SourceGraphic" in2="BackgroundImageFix" result="shape"/>
            <feGaussianBlur stdDeviation=".17" result="effect1_foregroundBlur_1031_479"/>
        </filter>
        <filter id="O" x="356.654" y="891.971" width="75.374" height="75.374" filterUnits="userSpaceOnUse" color-interpolation-filters="sRGB">
            <feFlood flood-opacity="0" result="BackgroundImageFix"/>
            <feBlend in="SourceGraphic" in2="BackgroundImageFix" result="shape"/>
            <feGaussianBlur stdDeviation=".173" result="effect1_foregroundBlur_1031_479"/>
        </filter>
        <filter id="Q" x="835.655" y="256.655" width="75.21" height="75.21" filterUnits="userSpaceOnUse" color-interpolation-filters="sRGB">
            <feFlood flood-opacity="0" result="BackgroundImageFix"/>
            <feBlend in="SourceGraphic" in2="BackgroundImageFix" result="shape"/>
            <feGaussianBlur stdDeviation=".172" result="effect1_foregroundBlur_1031_479"/>
        </filter>
        <filter id="S" x="197.665" y="272.665" width="73.049" height="73.049" filterUnits="userSpaceOnUse" color-interpolation-filters="sRGB">
            <feFlood flood-opacity="0" result="BackgroundImageFix"/>
            <feBlend in="SourceGraphic" in2="BackgroundImageFix" result="shape"/>
            <feGaussianBlur stdDeviation=".168" result="effect1_foregroundBlur_1031_479"/>
        </filter>
        <filter id="U" x="827.655" y="465.655" width="75.21" height="75.21" filterUnits="userSpaceOnUse" color-interpolation-filters="sRGB">
            <feFlood flood-opacity="0" result="BackgroundImageFix"/>
            <feBlend in="SourceGraphic" in2="BackgroundImageFix" result="shape"/>
            <feGaussianBlur stdDeviation=".172" result="effect1_foregroundBlur_1031_479"/>
        </filter>
        <filter id="W" x="744.661" y="736.661" width="73.996" height="73.996" filterUnits="userSpaceOnUse" color-interpolation-filters="sRGB">
            <feFlood flood-opacity="0" result="BackgroundImageFix"/>
            <feBlend in="SourceGraphic" in2="BackgroundImageFix" result="shape"/>
            <feGaussianBlur stdDeviation=".17" result="effect1_foregroundBlur_1031_479"/>
        </filter>
        <filter id="Y" x="217.136" y="443.135" width="75.21" height="75.21" filterUnits="userSpaceOnUse" color-interpolation-filters="sRGB">
            <feFlood flood-opacity="0" result="BackgroundImageFix"/>
            <feBlend in="SourceGraphic" in2="BackgroundImageFix" result="shape"/>
            <feGaussianBlur stdDeviation=".172" result="effect1_foregroundBlur_1031_479"/>
        </filter>
        <filter id="aa" x="298.654" y="747.654" width="75.374" height="75.374" filterUnits="userSpaceOnUse" color-interpolation-filters="sRGB">
            <feFlood flood-opacity="0" result="BackgroundImageFix"/>
            <feBlend in="SourceGraphic" in2="BackgroundImageFix" result="shape"/>
            <feGaussianBlur stdDeviation=".173" result="effect1_foregroundBlur_1031_479"/>
        </filter>
        <filter id="ac" x="516.145" y="692.144" width="73.191" height="73.191" filterUnits="userSpaceOnUse" color-interpolation-filters="sRGB">
            <feFlood flood-opacity="0" result="BackgroundImageFix"/>
            <feBlend in="SourceGraphic" in2="BackgroundImageFix" result="shape"/>
            <feGaussianBlur stdDeviation=".168" result="effect1_foregroundBlur_1031_479"/>
        </filter>
        <filter id="ae" x="686.145" y="454.144" width="73.191" height="73.191" filterUnits="userSpaceOnUse" color-interpolation-filters="sRGB">
            <feFlood flood-opacity="0" result="BackgroundImageFix"/>
            <feBlend in="SourceGraphic" in2="BackgroundImageFix" result="shape"/>
            <feGaussianBlur stdDeviation=".168" result="effect1_foregroundBlur_1031_479"/>
        </filter>
        <filter id="ag" x="358.145" y="454.144" width="73.191" height="73.191" filterUnits="userSpaceOnUse" color-interpolation-filters="sRGB">
            <feFlood flood-opacity="0" result="BackgroundImageFix"/>
            <feBlend in="SourceGraphic" in2="BackgroundImageFix" result="shape"/>
            <feGaussianBlur stdDeviation=".168" result="effect1_foregroundBlur_1031_479"/>
        </filter>
        <radialGradient id="b" cx="0" cy="0" r="1" gradientUnits="userSpaceOnUse" gradientTransform="rotate(58.294 -221.534 774.141) scale(512.781)">
            <stop offset=".171" stop-color="#05000F"/>
            <stop offset="1" stop-color="#081836"/>
        </radialGradient>
        <radialGradient id="g" cx="0" cy="0" r="1" gradientUnits="userSpaceOnUse" gradientTransform="rotate(56.367 -248.297 792.424) scale(420.671)">
            <stop offset=".183" stop-color="#05000F"/>
            <stop offset="1" stop-color="#072336"/>
        </radialGradient>
        <radialGradient id="n" cx="0" cy="0" r="1" gradientUnits="userSpaceOnUse" gradientTransform="rotate(61.92 -187.989 758.822) scale(219.882)">
            <stop offset=".132" stop-color="#05000F"/>
            <stop offset="1" stop-color="#0D1125"/>
        </radialGradient>
    </defs>
</svg>
