<svg width="104" height="30" viewBox="0 0 104 30" fill="none" xmlns="http://www.w3.org/2000/svg">
<path d="M85.3827 19.9614C85.9383 20.8875 87.0497 21.5464 88.5325 21.5464C91.415 21.5464 93 19.2205 93 16.4412C93 13.6619 91.415 11.335 88.5334 11.335C87.0497 11.335 85.9383 11.9939 85.3827 12.92V8.06174H83.6124V21.2589H85.3827V19.9614ZM85.2795 16.4402C85.2795 14.4848 86.3088 12.8177 88.244 12.8177C90.1792 12.8177 91.2085 14.4028 91.2085 16.4412C91.2085 18.4786 90.1792 20.0646 88.244 20.0646C86.3088 20.0646 85.2795 18.3764 85.2795 16.4412V16.4402ZM75.0063 14.1162C75.1095 13.2712 75.8504 12.7155 77.2714 12.7155C79.0417 12.7155 79.5973 13.5596 79.5973 14.8571V15.0424L76.2624 15.3298C73.8535 15.5363 72.7219 16.7296 72.7219 18.3976C72.7219 20.5392 74.3889 21.5474 76.3444 21.5474C77.9303 21.5474 79.0417 20.8065 79.5973 20.0656V21.2801H81.3676V14.8552C81.3676 14.0738 81.2036 13.4149 80.8949 12.8997C80.2148 11.7469 78.8564 11.3147 77.2714 11.3147C74.6571 11.3147 73.3596 12.5496 73.1743 14.0931H75.0073V14.1143L75.0063 14.1162ZM76.5305 20.1476C75.4182 20.1476 74.4921 19.6749 74.4921 18.3773C74.4921 17.348 75.151 16.7296 76.4476 16.6061L79.5973 16.3187V17.0596C79.5771 19.0362 78.1985 20.1476 76.5305 20.1476ZM54.5835 11.6244H52.8132V21.2589H54.5835V15.7823C54.5835 13.8259 55.799 12.8177 57.2808 12.8177C58.8456 12.8177 59.4832 13.6619 59.4832 15.2266V21.258H61.2544V15.0424C61.2544 12.6335 59.9569 11.336 57.7332 11.336C56.4367 11.336 55.2221 11.8916 54.5835 12.921V11.6244ZM46.4317 12.7357C48.284 12.7357 49.2101 14.0333 49.293 15.7003H43.4874C43.5694 14.1153 44.5785 12.7357 46.4317 12.7357ZM48.9843 18.5626C48.8599 19.2215 48.0987 20.1476 46.534 20.1476C44.6817 20.1476 43.5694 18.6658 43.4874 17.0798H51.0633V16.8946C51.0633 16.0717 50.96 15.2681 50.7546 14.5687C50.1372 12.6335 48.7576 11.3369 46.4308 11.3369C43.5492 11.3369 41.696 13.5596 41.696 16.4421C41.696 19.3237 43.5482 21.5474 46.5137 21.5474C48.9226 21.5474 50.4459 20.1678 50.878 18.5828H48.9843V18.5626ZM36.0341 21.258H37.7021L41.5108 11.6234H39.6585L38.0108 16.009C37.5989 17.0798 37.2082 18.3764 36.9197 19.4048H36.8377C36.5483 18.3764 36.1576 17.0798 35.7457 16.009L34.0989 11.6234H32.2467L36.0341 21.258ZM27.4096 12.7348C29.2619 12.7348 30.188 14.0323 30.271 15.6993H24.4654C24.5271 14.1143 25.5555 12.7348 27.4096 12.7348ZM29.941 18.5616C29.8176 19.2205 29.0564 20.1466 27.4907 20.1466C25.6384 20.1466 24.5271 18.6648 24.4441 17.0788H32.0209V16.8946C32.0209 16.0717 31.9177 15.2681 31.7122 14.5687C31.0948 12.6335 29.7153 11.3369 27.3884 11.3369C24.5068 11.3369 22.6536 13.5596 22.6536 16.4421C22.6536 19.3237 24.5059 21.5474 27.4714 21.5474C29.8793 21.5474 31.4035 20.1678 31.8357 18.5828H29.941V18.5626V18.5616ZM16.2914 8C12.8937 8 11.2884 9.66798 11.2884 11.6437C11.2884 13.9493 12.8735 15.0819 15.4058 15.4736L16.8876 15.7205C18.5353 16.009 19.6467 16.3177 19.6467 17.8207C19.6467 19.1588 18.4524 20.0646 16.2914 20.0646C14.088 20.0646 12.9352 19.2408 12.8532 17.8207H11C11.1032 19.8582 12.7915 21.5252 16.2914 21.5252C19.6679 21.5252 21.4786 19.8996 21.4786 17.676C21.4786 15.2256 19.7499 14.341 17.259 13.9493L15.7753 13.7236C14.1285 13.4766 13.078 12.8795 13.078 11.5202C13.078 10.4089 14.0041 9.46153 16.2904 9.46153C18.3694 9.46153 19.2338 10.3876 19.3167 11.418H21.2104C21.0667 9.91494 19.8116 8 16.2914 8Z" fill="#BAC7E1"/>
<path d="M68.7994 8H70.7964L64.8876 19.5909H71.7437V21.1962H62.8906V19.5909L68.7994 8Z" fill="#9BABCB"/>
</svg>
