<svg width="124" height="18" viewBox="0 0 124 18" fill="none" xmlns="http://www.w3.org/2000/svg">
<g clip-path="url(#clip0_1157_400)">
<path d="M42.0859 13.6875H46.2081V17.8164H42.0859V13.6875Z" fill="#BAC7E1"/>
<path d="M66.7796 0.296875C69.7531 0.296875 72.1754 2.72472 72.1754 5.70136V17.8117H68.0533V5.70136C68.0533 5.00173 67.4781 4.42566 66.7796 4.42566H54.1633C53.4648 4.42566 52.8897 5.00173 52.8897 5.70136V17.8117H48.7676V5.70136C48.7676 2.72312 51.1899 0.296875 54.1633 0.296875H66.7796Z" fill="#BAC7E1"/>
<path d="M98.1461 0.296875V4.42566H80.134C79.4355 4.42566 78.8604 5.00173 78.8604 5.70136V7.00274H74.7383V5.70136C74.7383 2.72312 77.1606 0.296875 80.134 0.296875H98.1461ZM80.134 7.00274H98.1461V11.1059H80.134C79.4355 11.1059 78.8604 11.706 78.8604 12.4072C78.8604 13.1085 79.4355 13.6829 80.134 13.6829H98.1461V17.8117H80.134C77.1606 17.8117 74.7383 15.3839 74.7383 12.4072C74.7383 9.40652 77.1606 7.00274 80.134 7.00274Z" fill="#BAC7E1"/>
<path d="M114.357 5.35315V17.8133H110.235V5.70136C110.235 5.00173 109.659 4.42566 108.961 4.42566H100.592V0.296875H108.961C111.808 0.296875 114.156 2.52414 114.333 5.35155H114.357V5.35315ZM114.357 4.42566V0.296875H124V4.42566H114.357Z" fill="#BAC7E1"/>
<path d="M28.1316 0.296875H4.12305L10.1196 4.42566H28.1316C28.8317 4.42566 29.4053 5.00013 29.4053 5.70136V8.78231L33.5274 11.6209V5.70136C33.5274 2.72953 31.1003 0.296875 28.1316 0.296875Z" fill="#BAC7E1"/>
<path d="M15.5169 17.8163H39.5255L33.5289 13.6875H15.5169C14.8184 13.6875 14.2432 13.1114 14.2432 12.4118V9.33083L10.1211 6.49219V12.4102C10.1195 15.3884 12.5434 17.8163 15.5169 17.8163Z" fill="#BAC7E1"/>
<path d="M4.12212 6.49219H0V17.8147H4.12212V6.49219Z" fill="#BAC7E1"/>
<path d="M0 0.296875V3.83514L3.97633 6.57269L4.12212 6.48925V0.296875H0Z" fill="#BAC7E1"/>
</g>
<defs>
<clipPath id="clip0_1157_400">
<rect width="124" height="17.6512" fill="white" transform="translate(0 0.226562)"/>
</clipPath>
</defs>
</svg>
