<svg width="104" height="43" viewBox="0 0 104 43" fill="none" xmlns="http://www.w3.org/2000/svg">
<path d="M28.632 18.8198L28.641 28.3909L20.4243 33.2175L20.4175 42.5248L36.7967 33.0841L36.8336 14.1371L28.632 18.8198Z" fill="#9296AD"/>
<path d="M18.7334 1.73438L2.20497 11.267L10.4488 15.9821L18.7515 11.2701L26.9893 15.9821L35.1827 11.2294L18.7334 1.73438Z" fill="#9296AD"/>
<path d="M8.82714 28.3909L8.83618 18.8198L0.660156 14.1371L0.725727 33.1007L17.0506 42.5248L17.0431 33.2175L8.82714 28.3909Z" fill="#9296AD"/>
<path d="M25.3397 18.8876L18.7472 22.696H18.7465L18.7487 30.3105L25.342 26.5014L25.3397 18.8876Z" fill="#9296AD"/>
<path d="M18.7487 30.3105L18.7465 22.696L12.1517 18.8853L12.1532 26.5044L18.7487 30.3105Z" fill="#9296AD"/>
<path d="M12.1517 18.8853L18.7465 22.696H18.7472L25.3397 18.8876L18.7449 15.138L12.1517 18.8853Z" fill="#9296AD"/>
<path d="M52.1984 21.6416C51.9353 22.4299 51.3301 23.3698 49.9373 23.3698C48.292 23.3698 47.3099 22.0991 47.3099 19.9714C47.3099 17.9153 48.3357 16.5866 49.9245 16.5866C51.0068 16.5866 51.768 17.1353 52.187 18.2176L52.2345 18.3389L53.4661 17.7465L53.4269 17.6433C53.2241 17.1044 52.3725 15.3438 49.9373 15.3438C47.4614 15.3438 45.8613 17.1654 45.8613 19.985C45.8613 22.8467 47.4132 24.6254 49.9109 24.6254C52.5126 24.6254 53.3206 22.6832 53.5068 22.0878L53.5414 21.9762L52.2368 21.5255L52.1984 21.6416Z" fill="#BAC7E1"/>
<path d="M58.1396 21.7952C58.1396 22.1946 58.0386 23.4978 56.7445 23.4978C55.8476 23.4978 55.5296 23.0056 55.5296 21.6151V18.1172H54.2227V22.0394C54.2227 23.7789 54.9341 24.6253 56.3978 24.6253C57.1507 24.6253 57.7612 24.3638 58.1396 23.8837V24.4708H59.4465V18.1172H58.1396V21.7952Z" fill="#BAC7E1"/>
<path fill-rule="evenodd" clip-rule="evenodd" d="M66.2274 21.3215C66.2274 23.2984 65.121 24.6272 63.4742 24.6272C62.7371 24.6272 62.1077 24.3483 61.6819 23.8381V24.4727H60.375V15.5H61.6819V18.7552C61.9472 18.4477 62.5072 17.9781 63.4614 17.9781C65.1421 17.9781 66.2274 19.2903 66.2274 21.3215ZM61.6435 21.3087C61.6435 22.6729 62.2509 23.4868 63.2692 23.4868C64.2874 23.4868 64.8949 22.6683 64.8949 21.2959C64.8949 19.9242 64.2821 19.1049 63.2564 19.1049C62.2464 19.1049 61.6435 19.9294 61.6435 21.3087Z" fill="#BAC7E1"/>
<path fill-rule="evenodd" clip-rule="evenodd" d="M71.716 22.2108L72.6935 22.9162L72.6415 23.0097C72.2059 23.7913 71.2306 24.6256 69.8009 24.6256C67.9046 24.6256 66.7266 23.3391 66.7266 21.2687C66.7266 19.3302 67.9701 17.9766 69.7496 17.9766C71.5539 17.9766 72.631 19.2217 72.631 21.3071V21.6078H68.0659C68.1488 22.8024 68.7721 23.4597 69.8265 23.4597C70.8666 23.4597 71.3648 22.8122 71.6489 22.3254L71.716 22.2108ZM69.7368 19.0393C68.803 19.0393 68.1887 19.6053 68.0832 20.5579H71.2562C71.2155 19.8435 70.7972 19.0393 69.7368 19.0393Z" fill="#BAC7E1"/>
<path d="M78.3962 20.2686C78.1588 20.9703 77.8475 21.9621 77.6817 22.5131C77.647 22.4038 77.6063 22.2749 77.5611 22.1325C77.3727 21.5348 77.1134 20.7163 76.8775 20.0741L75.2307 15.5H73.4844V24.4727H74.8305V20.2558C74.8305 19.6415 74.8086 18.4997 74.783 17.6646C75.0422 18.5472 75.4274 19.781 75.649 20.399L77.1028 24.4727H78.2243L79.7407 20.0154C79.9164 19.5443 80.2593 18.4077 80.5148 17.5297C80.4809 18.3881 80.4447 19.588 80.4447 20.2302V24.4727H81.79V15.5H80.0294L78.3962 20.2686Z" fill="#BAC7E1"/>
<path fill-rule="evenodd" clip-rule="evenodd" d="M88.304 23.5434L88.4924 23.5163V24.4531L88.4034 24.478C88.2648 24.5156 88.0613 24.5594 87.7168 24.5594C87.1335 24.5594 86.7785 24.331 86.6602 23.8818C86.1612 24.3807 85.5266 24.6234 84.7247 24.6234C83.3356 24.6234 82.4727 23.8886 82.4727 22.7053C82.4727 21.2808 83.7509 20.8979 85.002 20.711L85.7836 20.5829C86.4009 20.4864 86.5433 20.3862 86.5433 20.047C86.5433 19.5488 86.3911 19.0883 85.2899 19.0883C84.3697 19.0883 83.9589 19.4478 83.9589 20.252V20.3824L82.7153 20.2867L82.7161 20.1744C82.7297 18.7921 83.6673 18 85.2899 18C86.9353 18 87.7515 18.6346 87.7854 19.9408C87.7862 20.1164 87.7892 20.289 87.7922 20.4615C87.7952 20.6364 87.799 20.8105 87.799 20.9839V23.0264C87.799 23.523 87.9286 23.56 88.1276 23.56C88.1909 23.56 88.2384 23.5532 88.304 23.5434ZM85.0073 23.5863C85.5002 23.5863 85.8801 23.4462 86.1672 23.159C86.3692 22.957 86.5561 22.6849 86.5561 22.0631V21.4104C86.4672 21.4459 86.3511 21.479 86.2019 21.5129L85.0563 21.7443C84.1609 21.9418 83.8436 22.1867 83.8436 22.6789C83.8436 23.4974 84.6568 23.5863 85.0073 23.5863Z" fill="#BAC7E1"/>
<path d="M90.7893 15.6328L89.4824 15.932V18.1162H88.2109V19.1669H89.4824V23.2194C89.4824 24.1781 89.9776 24.6243 91.041 24.6243C91.5302 24.6243 91.8867 24.5768 92.1618 24.4751L92.2409 24.4465V23.3129L92.0849 23.3611C91.8867 23.4222 91.6463 23.484 91.3621 23.484C90.8858 23.484 90.7893 23.3687 90.7893 22.7959V19.1669H92.2409V18.1162H90.7893V15.6328Z" fill="#BAC7E1"/>
<path d="M96.8761 22.4263C96.5536 23.1401 96.0697 23.4725 95.3552 23.4725C94.3128 23.4725 93.6654 22.6427 93.6654 21.3071C93.6654 19.9354 94.297 19.1169 95.3552 19.1169C96.0787 19.1169 96.5626 19.4937 96.8339 20.2685L96.8807 20.4027L97.9969 19.7967L97.9592 19.698C97.5416 18.6036 96.5882 17.9766 95.3424 17.9766C93.5501 17.9766 92.3457 19.3204 92.3457 21.3199C92.3457 23.3587 93.4943 24.6256 95.3424 24.6256C96.9922 24.6256 97.7195 23.4913 97.9554 23.0037L98.0052 22.9004L96.9304 22.3073L96.8761 22.4263Z" fill="#BAC7E1"/>
<path d="M101.698 17.9781C100.697 17.9781 100.156 18.4288 99.9046 18.7333V15.5H98.5977V24.4727H99.9046V20.821C99.9046 19.5564 100.651 19.1049 101.351 19.1049C102.267 19.1049 102.591 19.5978 102.591 20.9876V24.4727H103.898V20.564C103.898 18.8479 103.158 17.9781 101.698 17.9781Z" fill="#BAC7E1"/>
<path fill-rule="evenodd" clip-rule="evenodd" d="M48.0175 31.3513H47.416V26.75H49.1261C49.5859 26.75 49.8429 26.7975 50.0592 26.8857C50.5386 27.0952 50.8295 27.4811 50.8295 28.0697C50.8295 28.5769 50.6064 28.9493 50.2348 29.1656C49.9032 29.3623 49.5655 29.3894 49.0515 29.3894H48.0175V31.3513ZM48.0175 28.8611H49.1194C49.451 28.8611 49.6062 28.834 49.7683 28.7804C50.0931 28.6516 50.2213 28.4217 50.2213 28.0697C50.2213 27.7177 50.0931 27.4879 49.7683 27.359C49.6062 27.3047 49.451 27.2776 49.1194 27.2776H48.0175V28.8611Z" fill="#9296AD"/>
<path fill-rule="evenodd" clip-rule="evenodd" d="M52.4174 28.0625C53.3573 28.0625 53.9452 28.7325 53.9452 29.7606C53.9452 30.7826 53.3641 31.439 52.4174 31.439C51.4708 31.439 50.8965 30.7826 50.8965 29.7606C50.8965 28.7325 51.4776 28.0625 52.4174 28.0625ZM52.4174 30.9861C52.985 30.9861 53.3776 30.5323 53.3776 29.7545C53.3776 28.9624 53.0053 28.5087 52.4174 28.5087C51.8431 28.5087 51.4648 28.9624 51.4648 29.7545C51.4648 30.5391 51.8499 30.9861 52.4174 30.9861Z" fill="#9296AD"/>
<path d="M56.9639 29.9055C57.031 30.1693 57.1327 30.5213 57.1667 30.6637H57.1734L57.3762 29.9191L57.8555 28.1328H58.417L57.4433 31.3533H56.9096L56.4499 29.7502C56.3753 29.4789 56.2336 28.931 56.2132 28.8428H56.2065C56.1861 28.931 56.058 29.4653 55.9698 29.7563L55.4897 31.3533H54.9425L53.9688 28.1328H54.5574L55.0639 29.9462C55.1453 30.21 55.2063 30.5077 55.253 30.6637H55.2598C55.3073 30.5077 55.3751 30.2032 55.4565 29.9394L55.963 28.1328H56.4702L56.9639 29.9055Z" fill="#9296AD"/>
<path fill-rule="evenodd" clip-rule="evenodd" d="M59.0157 29.8487C59.0429 30.5798 59.4152 30.9521 60.0098 30.9521C60.6045 30.9521 60.8819 30.5663 61.0235 30.3228L61.4358 30.6205C61.2399 30.9725 60.7665 31.439 59.9963 31.439C59.0836 31.439 58.4414 30.8368 58.4414 29.7342C58.4414 28.7325 59.07 28.0625 59.9691 28.0625C60.9286 28.0625 61.4223 28.7597 61.4223 29.7545V29.8487H59.0157ZM60.8276 29.4229C60.8276 28.9217 60.5231 28.4959 59.9624 28.4959C59.388 28.4959 59.0564 28.8742 59.0225 29.4229H60.8276Z" fill="#9296AD"/>
<path d="M62.4494 28.1324V28.7414C62.5376 28.4165 62.882 28.0781 63.3961 28.0781C63.4563 28.0781 63.5242 28.0849 63.5852 28.0985V28.6261C63.5106 28.6125 63.436 28.6057 63.3689 28.6057C62.7675 28.6057 62.4494 29.0187 62.4494 29.6955V31.3529H61.8887V28.1324H62.4494Z" fill="#9296AD"/>
<path d="M64.4416 27.4675H63.8809V26.75H64.4416V27.4675ZM64.4416 31.3513H63.8809V28.1308H64.4416V31.3513Z" fill="#9296AD"/>
<path d="M67.7339 31.3576H67.1724V29.585C67.1724 28.7732 66.9357 28.529 66.4563 28.529C65.8813 28.529 65.6311 28.9963 65.6311 29.4968V31.3576H65.0703V28.1371H65.6311V28.6172C65.7667 28.3127 66.0976 28.0625 66.6387 28.0625C67.4226 28.0625 67.7339 28.5697 67.7339 29.3619V31.3576Z" fill="#9296AD"/>
<path fill-rule="evenodd" clip-rule="evenodd" d="M68.8305 31.5204C68.8636 31.9131 69.04 32.2379 69.655 32.2379C70.4049 32.2379 70.5609 31.8114 70.5609 31.1617V30.8233C70.4049 31.1006 70.0944 31.3508 69.5465 31.3508C68.7084 31.3508 68.168 30.7486 68.168 29.7342C68.168 28.7054 68.7151 28.0625 69.5465 28.0625C70.0333 28.0625 70.3778 28.2992 70.5609 28.5901V28.1371H71.1217V31.2092C71.1217 32.2651 70.6551 32.6977 69.6482 32.6977C68.7016 32.6977 68.3029 32.2379 68.269 31.6086L68.8305 31.5204ZM69.6686 28.5358C69.0935 28.5358 68.7423 28.9353 68.7423 29.7138C68.7423 30.4781 69.0671 30.8843 69.6618 30.8843C70.2293 30.8843 70.5805 30.4713 70.5805 29.7138C70.5805 28.9488 70.2361 28.5358 69.6686 28.5358Z" fill="#9296AD"/>
<path d="M75.6417 28.1001C75.4322 27.559 75.0335 27.2002 74.3913 27.2002C73.465 27.2002 72.9518 27.9848 72.9518 29.0475C72.9518 30.1502 73.4582 30.9016 74.3981 30.9016C75.0742 30.9016 75.4661 30.4953 75.6485 29.9474L76.216 30.1434C76.02 30.7727 75.4593 31.4359 74.3845 31.4359C73.0528 31.4359 72.3164 30.4682 72.3164 29.0543C72.3164 27.6532 73.0935 26.6719 74.3981 26.6719C75.3915 26.6719 75.9597 27.2673 76.1761 27.8431L75.6417 28.1001Z" fill="#9296AD"/>
<path d="M79.2311 31.3513H78.6704V29.5786C78.6704 28.7669 78.4337 28.5227 77.9536 28.5227C77.3793 28.5227 77.1291 28.99 77.1291 29.4904V31.3513H76.5684V26.75H77.1291V28.6109C77.2648 28.3064 77.616 28.0561 78.1368 28.0561C78.9206 28.0561 79.2311 28.5634 79.2311 29.3555V31.3513Z" fill="#9296AD"/>
<path fill-rule="evenodd" clip-rule="evenodd" d="M79.7558 29.1526C79.7626 28.4494 80.2555 28.0703 81.0469 28.0703C81.6958 28.0703 82.2769 28.2527 82.2973 29.0313C82.2973 29.2137 82.3041 29.3968 82.3041 29.5792V30.6555C82.3041 30.9193 82.3719 31.0007 82.5407 31.0007C82.5882 31.0007 82.6214 30.9939 82.6688 30.9871V31.3594C82.5942 31.379 82.4932 31.3994 82.3244 31.3994C82.0267 31.3994 81.8307 31.2848 81.8104 30.9667C81.6687 31.1288 81.3845 31.4333 80.7492 31.4333C80.107 31.4333 79.627 31.1084 79.627 30.4859C79.627 29.8226 80.1817 29.6063 80.9045 29.4978L81.3167 29.4307C81.6212 29.3832 81.7697 29.329 81.7697 29.0855C81.7697 28.7403 81.6076 28.5165 81.0469 28.5165C80.4786 28.5165 80.2827 28.7878 80.2827 29.1933L79.7558 29.1526ZM81.5534 30.77C81.689 30.6351 81.7765 30.4655 81.7765 30.1475V29.6945C81.7493 29.7149 81.723 29.7488 81.5134 29.7955L80.9112 29.9176C80.4515 30.0194 80.2224 30.1543 80.2224 30.4723C80.2224 30.8514 80.5193 31.0142 80.8977 31.0142C81.175 31.0142 81.3913 30.9328 81.5534 30.77Z" fill="#9296AD"/>
<path d="M85.6335 31.3576H85.0727V29.585C85.0727 28.7732 84.8361 28.529 84.356 28.529C83.7817 28.529 83.5314 28.9963 83.5314 29.4968V31.3576H82.9707V28.1371H83.5314V28.6172C83.6664 28.3127 83.998 28.0625 84.5384 28.0625C85.323 28.0625 85.6335 28.5697 85.6335 29.3619V31.3576Z" fill="#9296AD"/>
<path fill-rule="evenodd" clip-rule="evenodd" d="M86.7289 31.5204C86.7628 31.9131 86.9384 32.2379 87.5534 32.2379C88.3041 32.2379 88.4594 31.8114 88.4594 31.1617V30.8233C88.3041 31.1006 87.9928 31.3508 87.4457 31.3508C86.6076 31.3508 86.0664 30.7486 86.0664 29.7342C86.0664 28.7054 86.6143 28.0625 87.4457 28.0625C87.9325 28.0625 88.277 28.2992 88.4594 28.5901V28.1371H89.0209V31.2092C89.0209 32.2651 88.5543 32.6977 87.5467 32.6977C86.6008 32.6977 86.2021 32.2379 86.1682 31.6086L86.7289 31.5204ZM87.567 28.5358C86.9927 28.5358 86.6415 28.9353 86.6415 29.7138C86.6415 30.4781 86.9656 30.8843 87.5602 30.8843C88.1285 30.8843 88.4797 30.4713 88.4797 29.7138C88.4797 28.9488 88.1353 28.5358 87.567 28.5358Z" fill="#9296AD"/>
<path fill-rule="evenodd" clip-rule="evenodd" d="M90.045 29.8487C90.0721 30.5798 90.4445 30.9521 91.0391 30.9521C91.6338 30.9521 91.9112 30.5663 92.0528 30.3228L92.4651 30.6205C92.2692 30.9725 91.7958 31.439 91.0256 31.439C90.1128 31.439 89.4707 30.8368 89.4707 29.7342C89.4707 28.7325 90.0993 28.0625 90.9984 28.0625C91.9579 28.0625 92.4515 28.7597 92.4515 29.7545V29.8487H90.045ZM91.8569 29.4229C91.8569 28.9217 91.5524 28.4959 90.9916 28.4959C90.4173 28.4959 90.0857 28.8742 90.0518 29.4229H91.8569Z" fill="#9296AD"/>
</svg>
