<svg width="276" height="75" viewBox="0 0 276 75" fill="none" xmlns="http://www.w3.org/2000/svg">
<path d="M221.274 30.5093H235.355C236.025 30.5093 236.528 31.0133 236.528 31.5162V36.5451C236.528 37.2157 236.36 37.7186 235.355 37.7186H223.788C221.944 37.7186 221.274 38.6306 221.274 39.2272V39.8978C221.274 40.5683 221.944 41.2388 223.285 42.077C224.626 42.9151 226.973 44.0885 232.673 47.2735C238.372 50.4585 238.707 53.8111 238.707 54.4817V56.9961C238.707 64.2043 230.493 65.0424 229.32 65.0424H213.227C212.155 65.0424 211.886 64.1484 211.886 63.7014V59.0077C211.886 58.2031 212.78 58.0019 213.227 58.0019H226.806C228.549 58.0019 229.096 56.9961 229.152 56.4932V55.4874C229.152 54.4817 227.979 53.4759 226.135 52.4701C224.291 51.4643 220.436 49.4527 216.245 47.2735C212.054 45.0943 211.719 42.2446 211.719 41.2388V38.388C211.719 31.9509 218.089 30.4534 221.274 30.5093Z" fill="#BAC7E1"/>
<path d="M205.852 19.2769C204.343 19.1118 201.996 17.4355 201.158 16.4297C199.984 17.6031 197.925 18.9776 196.129 19.2769C196.297 23.8029 199.108 26.6803 200.823 27.4908H201.325C203.505 26.6526 206.187 22.4618 205.852 19.2769Z" fill="#BAC7E1"/>
<path d="M170.648 30.5078C169.907 30.5078 169.307 31.1082 169.307 31.8489V63.6987C169.307 64.4394 169.907 65.0398 170.648 65.0398H177.688C178.244 65.0398 178.694 64.5895 178.694 64.034V42.6991C178.694 40.0598 180.869 37.9394 183.508 38.007L185.232 38.0512H189.255C189.81 38.0512 190.261 37.6009 190.261 37.0454V31.5136C190.261 30.9581 189.81 30.5078 189.255 30.5078H188.752H185.064C183.388 30.5078 180.203 31.5136 179.029 34.1957H178.694V31.6812C178.694 31.0332 178.169 30.5078 177.521 30.5078H170.648Z" fill="#BAC7E1"/>
<path d="M43.4164 45.2604L30.5088 64.3703C32.7998 64.5379 37.6834 64.8732 38.8904 64.8732C40.3991 64.8732 41.7401 63.1969 42.5783 61.6882C43.2488 60.4812 47.4396 53.4743 49.4511 50.1217C51.7421 54.0889 56.4581 62.2581 56.9945 63.1969C57.6651 64.3703 58.0003 64.8732 61.1853 64.8732C63.7333 64.8732 66.9406 64.6497 68.2258 64.5379L55.4858 45.2604C57.0504 42.4106 61.0847 35.9065 64.7056 32.688C69.2316 28.6649 70.5726 28.8325 81.301 25.3123C89.8837 22.4961 92.3647 17.4336 92.5323 15.2544C85.1565 20.7527 77.6131 22.9096 74.7634 23.3007C77.1661 22.5184 83.7484 19.6463 90.856 14.4163C97.9635 9.18618 98.9581 2.84973 98.567 0.335262C91.0236 10.5607 74.2605 16.4278 65.879 19.7805C57.4974 23.1331 54.1448 29.503 52.9714 32.0175C52.0326 34.0291 50.2334 37.5493 49.4511 39.058C48.6689 37.6052 46.8361 34.1632 45.7633 32.0175C41.4048 22.9654 36.7112 21.2891 32.0175 19.2776C27.3238 17.266 24.6418 16.4278 14.7515 11.7342C6.83934 7.97923 1.62043 2.34683 0 0C0.167631 12.0694 12.9076 17.4336 15.0868 18.607C16.8301 19.5458 21.7361 22.0155 23.9712 23.1331C22.6861 22.9096 19.1099 22.0267 15.0868 20.2833C11.0636 18.54 7.37576 15.9808 6.03471 14.9192C7.37576 21.9597 15.7573 24.8094 18.4394 25.4799C21.1215 26.1504 24.1389 26.3181 31.347 30.5088C37.1135 33.8615 41.796 41.7401 43.4164 45.2604Z" fill="#BAC7E1"/>
<path fill-rule="evenodd" clip-rule="evenodd" d="M75.6016 31.5136C75.6016 30.9581 76.0519 30.5078 76.6073 30.5078H83.8155C84.371 30.5078 84.8213 30.9581 84.8213 31.5136V34.1957H85.1565C86.1623 31.5136 90.0178 30.5078 91.5265 30.5078H96.8907C106.11 30.5078 106.781 39.2246 106.781 40.9009V55.3172C106.781 62.5588 100.634 64.8163 97.5612 65.0398H90.5207C87.5704 65.0398 85.7153 62.693 85.1565 61.5195H84.8213V73.4213C84.8213 73.9768 84.371 74.4271 83.8155 74.4271H76.6073C76.0519 74.4271 75.6016 73.9768 75.6016 73.4213V31.5136ZM89.5149 37.8836C86.9227 37.8836 84.8213 39.985 84.8213 42.5772V53.3056C84.8213 55.7127 86.7726 57.664 89.1797 57.664H94.2086C96.0602 57.664 97.5612 56.163 97.5612 54.3114V41.2362C97.5612 39.3846 96.0602 37.8836 94.2086 37.8836H89.5149Z" fill="#BAC7E1"/>
<path d="M114.324 18.7707C114.324 18.0301 114.925 17.4297 115.665 17.4297H122.371C123.111 17.4297 123.712 18.0301 123.712 18.7707V64.0311C123.712 64.7717 123.111 65.3721 122.371 65.3721H115.665C114.925 65.3721 114.324 64.7717 114.324 64.0311V18.7707Z" fill="#BAC7E1"/>
<path d="M196.129 31.5129C196.129 30.7723 196.729 30.1719 197.47 30.1719H204.175C204.916 30.1719 205.516 30.7723 205.516 31.5129V63.6981C205.516 64.4387 204.916 65.0391 204.175 65.0391H197.47C196.729 65.0391 196.129 64.4387 196.129 63.6981V31.5129Z" fill="#BAC7E1"/>
<path fill-rule="evenodd" clip-rule="evenodd" d="M141.481 30.5078C135.741 30.5078 131.088 35.1622 131.088 40.9009V54.9819C131.088 60.7207 135.741 65.375 141.481 65.375H151.539C157.279 65.375 161.932 60.7207 161.932 54.9819V40.9009C161.932 35.1622 157.279 30.5078 151.539 30.5078H141.481ZM143.914 37.8836C142.062 37.8836 140.562 39.3844 140.562 41.2362V54.479C140.562 56.3308 142.063 57.8317 143.914 57.8317H149.394C151.246 57.8317 152.746 56.3308 152.746 54.479V41.2362C152.746 39.3844 151.246 37.8836 149.394 37.8836H143.914Z" fill="#BAC7E1"/>
<path d="M245.077 18.4355C245.077 17.88 245.527 17.4297 246.083 17.4297H253.458C254.014 17.4297 254.464 17.88 254.464 18.4355V27.6552H250.609V30.2863H254.464V39.6323H250.59V43.1139H254.464V52.6322H250.607V55.7346H254.464V64.26C254.464 64.8155 254.014 65.2658 253.458 65.2658H246.083C245.527 65.2658 245.077 64.8155 245.077 64.26V55.7346H249.039V52.6322H245.016L245.077 43.1139H249.043V39.6323H245.077V30.2863H249.1V27.6552H245.077V18.4355Z" fill="#BAC7E1"/>
<path d="M267.205 30.5078C266.032 30.5078 265.361 30.8431 264.858 31.6812C264.356 32.5194 255.975 46.266 255.806 46.6004C255.592 47.0235 255.303 47.6062 255.974 48.612C256.644 49.6177 264.689 62.8606 265.527 64.034C266.366 65.2074 267.036 65.0398 267.874 65.0398H274.916C276.928 65.0398 275.587 63.3635 275.251 62.8606C274.987 62.4637 268.828 52.6825 265.658 47.6438C265.572 47.5074 265.529 47.353 265.529 47.1919C265.529 47.0247 265.576 46.8646 265.667 46.725C268.731 42.073 274.723 32.9766 275.251 32.1841C275.893 31.2216 275.419 30.5078 274.581 30.5078H267.205Z" fill="#BAC7E1"/>
</svg>
