<svg width="100" height="30" viewBox="0 0 100 30" fill="none" xmlns="http://www.w3.org/2000/svg">
<path d="M73.5433 13.1567H77.7779C77.9795 13.1567 78.1307 13.3083 78.1307 13.4595V14.9718C78.1307 15.1735 78.0803 15.3247 77.7779 15.3247H74.2995C73.745 15.3247 73.5433 15.599 73.5433 15.7784V15.98C73.5433 16.1817 73.745 16.3833 74.1483 16.6354C74.5516 16.8874 75.2573 17.2403 76.9713 18.1981C78.6853 19.1559 78.7861 20.1642 78.7861 20.3658V21.122C78.7861 23.2896 76.3159 23.5417 75.9631 23.5417H71.1236C70.801 23.5417 70.7203 23.2728 70.7203 23.1384V21.7269C70.7203 21.4849 70.9892 21.4244 71.1236 21.4244H75.2069C75.7312 21.4244 75.8959 21.122 75.9127 20.9707V20.6683C75.9127 20.3658 75.5598 20.0633 75.0053 19.7609C74.4507 19.4584 73.2913 18.8535 72.031 18.1981C70.7707 17.5428 70.6699 16.6858 70.6699 16.3833V15.526C70.6699 13.5902 72.5855 13.1399 73.5433 13.1567Z" fill="#BAC7E1"/>
<path d="M68.9043 9.78591C68.4506 9.73626 67.7449 9.23215 67.4928 8.92969C67.1399 9.28256 66.5205 9.69591 65.9805 9.78591C66.0309 11.147 66.8765 12.0123 67.392 12.256H67.5432C68.1985 12.004 69.0051 10.7437 68.9043 9.78591Z" fill="#BAC7E1"/>
<path d="M58.3173 13.1562C58.0946 13.1562 57.9141 13.3368 57.9141 13.5595V23.1376C57.9141 23.3603 58.0946 23.5409 58.3173 23.5409H60.4346C60.6017 23.5409 60.7371 23.4055 60.7371 23.2384V16.8225C60.7371 16.0288 61.3913 15.3911 62.1848 15.4115L62.7031 15.4247H63.913C64.08 15.4247 64.2154 15.2893 64.2154 15.1223V13.4587C64.2154 13.2917 64.08 13.1562 63.913 13.1562H63.7617H62.6527C62.1486 13.1562 61.1908 13.4587 60.8379 14.2653H60.7371V13.5091C60.7371 13.3142 60.5791 13.1562 60.3842 13.1562H58.3173Z" fill="#BAC7E1"/>
<path d="M20.0564 17.5953L16.1748 23.3422C16.8637 23.3926 18.3324 23.4934 18.6953 23.4934C19.149 23.4934 19.5523 22.9893 19.8044 22.5356C20.006 22.1726 21.2663 20.0655 21.8712 19.0572C22.5602 20.2503 23.9784 22.707 24.1397 22.9893C24.3414 23.3422 24.4422 23.4934 25.4 23.4934C26.1662 23.4934 27.1308 23.4262 27.5173 23.3926L23.686 17.5953C24.1565 16.7383 25.3697 14.7824 26.4586 13.8145C27.8197 12.6046 28.223 12.6551 31.4493 11.5964C34.0303 10.7495 34.7764 9.22711 34.8268 8.57177C32.6088 10.2252 30.3403 10.8739 29.4833 10.9915C30.2058 10.7562 32.1853 9.89254 34.3227 8.31972C36.4601 6.74689 36.7593 4.84136 36.6416 4.0852C34.3731 7.16026 29.332 8.92465 26.8115 9.93286C24.291 10.9411 23.2827 12.8567 22.9299 13.6129C22.6476 14.2178 22.1065 15.2764 21.8712 15.7301C21.636 15.2932 21.0848 14.2581 20.7622 13.6129C19.4515 10.8907 18.04 10.3866 16.6285 9.78163C15.217 9.1767 14.4104 8.92465 11.4362 7.51314C9.05677 6.38394 7.48731 4.69013 7 3.98438C7.05041 7.61396 10.8816 9.22711 11.537 9.57999C12.0613 9.86229 13.5366 10.605 14.2088 10.9411C13.8223 10.8739 12.7468 10.6084 11.537 10.0841C10.3271 9.55982 9.21808 8.79022 8.81479 8.47095C9.21808 10.5882 11.7386 11.4452 12.5452 11.6468C13.3518 11.8485 14.2592 11.8989 16.4268 13.1592C18.161 14.1674 19.5691 16.5367 20.0564 17.5953Z" fill="#BAC7E1"/>
<path fill-rule="evenodd" clip-rule="evenodd" d="M29.7344 13.4587C29.7344 13.2917 29.8698 13.1562 30.0368 13.1562H32.2045C32.3716 13.1562 32.507 13.2917 32.507 13.4587V14.2653H32.6078C32.9103 13.4587 34.0697 13.1562 34.5234 13.1562H36.1366C38.9092 13.1562 39.1108 15.7776 39.1108 16.2817V20.6171C39.1108 22.7948 37.2624 23.4737 36.3382 23.5409H34.2209C33.3337 23.5409 32.7758 22.8352 32.6078 22.4823H32.507V26.0615C32.507 26.2285 32.3716 26.3639 32.2045 26.3639H30.0368C29.8698 26.3639 29.7344 26.2285 29.7344 26.0615V13.4587ZM33.9185 15.3743C33.1389 15.3743 32.507 16.0063 32.507 16.7858V20.0121C32.507 20.736 33.0938 21.3228 33.8177 21.3228H35.33C35.8868 21.3228 36.3382 20.8714 36.3382 20.3146V16.3826C36.3382 15.8257 35.8868 15.3743 35.33 15.3743H33.9185Z" fill="#BAC7E1"/>
<path d="M41.3809 9.62985C41.3809 9.40712 41.5614 9.22656 41.7841 9.22656H43.8006C44.0233 9.22656 44.2039 9.40712 44.2039 9.62985V23.2408C44.2039 23.4635 44.0233 23.6441 43.8006 23.6441H41.7841C41.5614 23.6441 41.3809 23.4635 41.3809 23.2408V9.62985Z" fill="#BAC7E1"/>
<path d="M65.9805 13.4658C65.9805 13.2431 66.161 13.0625 66.3838 13.0625H68.4002C68.6229 13.0625 68.8035 13.2431 68.8035 13.4658V23.1447C68.8035 23.3674 68.6229 23.548 68.4002 23.548H66.3838C66.161 23.548 65.9805 23.3674 65.9805 23.1447V13.4658Z" fill="#BAC7E1"/>
<path fill-rule="evenodd" clip-rule="evenodd" d="M49.5474 13.1562C47.8212 13.1562 46.4219 14.5559 46.4219 16.2817V20.5162C46.4219 22.242 47.8212 23.6417 49.5474 23.6417H52.572C54.2982 23.6417 55.6975 22.242 55.6975 20.5162V16.2817C55.6975 14.5559 54.2982 13.1562 52.572 13.1562H49.5474ZM50.2791 15.3743C49.7222 15.3743 49.2709 15.8257 49.2709 16.3825V20.365C49.2709 20.9219 49.7224 21.3732 50.2791 21.3732H51.9269C52.4838 21.3732 52.9351 20.9219 52.9351 20.365V16.3825C52.9351 15.8257 52.4838 15.3743 51.9269 15.3743H50.2791Z" fill="#BAC7E1"/>
<path d="M80.7001 9.52903C80.7001 9.36198 80.8355 9.22656 81.0025 9.22656H83.2206C83.3877 9.22656 83.5231 9.36198 83.5231 9.52903V12.3016H82.3636V13.0929H83.5231V15.9035H82.3581V16.9505H83.5231V19.8129H82.3631V20.7458H83.5231V23.3096C83.5231 23.4767 83.3877 23.6121 83.2206 23.6121H81.0025C80.8355 23.6121 80.7001 23.4767 80.7001 23.3096V20.7458H81.8915V19.8129H80.6816L80.7001 16.9505H81.8928V15.9035H80.7001V13.0929H81.9099V12.3016H80.7001V9.52903Z" fill="#BAC7E1"/>
<path d="M87.3545 13.1562C87.0017 13.1562 86.8001 13.2571 86.6489 13.5091C86.4976 13.7612 83.9775 17.8951 83.9266 17.9957C83.8622 18.1229 83.7754 18.2982 83.977 18.6006C84.1786 18.9031 86.598 22.8856 86.85 23.2384C87.1021 23.5913 87.3037 23.5409 87.5558 23.5409H89.6734C90.2784 23.5409 89.8751 23.0368 89.7743 22.8856C89.6947 22.7662 87.8427 19.8248 86.8893 18.3095C86.8635 18.2685 86.8504 18.222 86.8504 18.1736C86.8504 18.1233 86.8645 18.0752 86.8922 18.0332C87.8134 16.6342 89.6154 13.8987 89.7743 13.6604C89.9672 13.3709 89.8247 13.1562 89.5726 13.1562H87.3545Z" fill="#BAC7E1"/>
</svg>
