<svg width="840" height="349" viewBox="0 0 840 349" fill="none" xmlns="http://www.w3.org/2000/svg">
<g clip-path="url(#clip0_3514_1811)">
<g opacity="0.4">
<ellipse cx="420" cy="275.326" rx="124.495" ry="57.1173" fill="url(#paint0_linear_3514_1811)"/>
<g filter="url(#filter0_d_3514_1811)">
<path fill-rule="evenodd" clip-rule="evenodd" d="M420 334.495C501.224 334.495 567.068 304.329 567.068 267.117C567.068 229.905 501.224 199.739 420 199.739C338.776 199.739 272.932 229.905 272.932 267.117C272.932 304.329 338.776 334.495 420 334.495ZM420 332.443C488.757 332.443 544.495 306.871 544.495 275.326C544.495 243.781 488.757 218.208 420 218.208C351.243 218.208 295.505 243.781 295.505 275.326C295.505 306.871 351.243 332.443 420 332.443Z" fill="url(#paint1_linear_3514_1811)"/>
</g>
<g filter="url(#filter1_d_3514_1811)">
<path fill-rule="evenodd" clip-rule="evenodd" d="M420 336.547C517.469 336.547 596.482 300.256 596.482 255.489C596.482 210.721 517.469 174.43 420 174.43C322.532 174.43 243.518 210.721 243.518 255.489C243.518 300.256 322.532 336.547 420 336.547ZM420 334.495C501.224 334.495 567.069 304.329 567.069 267.117C567.069 229.905 501.224 199.739 420 199.739C338.777 199.739 272.932 229.905 272.932 267.117C272.932 304.329 338.777 334.495 420 334.495Z" fill="url(#paint2_linear_3514_1811)"/>
</g>
<g filter="url(#filter2_d_3514_1811)">
<path fill-rule="evenodd" clip-rule="evenodd" d="M420 339.283C550.335 339.283 655.993 297.173 655.993 245.228C655.993 193.283 550.335 151.173 420 151.173C289.664 151.173 184.006 193.283 184.006 245.228C184.006 297.173 289.664 339.283 420 339.283ZM420 336.547C517.468 336.547 596.482 300.256 596.482 255.489C596.482 210.721 517.468 174.43 420 174.43C322.531 174.43 243.518 210.721 243.518 255.489C243.518 300.256 322.531 336.547 420 336.547Z" fill="url(#paint3_linear_3514_1811)"/>
</g>
<g filter="url(#filter3_d_3514_1811)">
<path fill-rule="evenodd" clip-rule="evenodd" d="M420 344.072C580.18 344.072 710.032 294.918 710.032 234.283C710.032 173.649 580.18 124.495 420 124.495C259.819 124.495 129.967 173.649 129.967 234.283C129.967 294.918 259.819 344.072 420 344.072ZM420 339.283C550.335 339.283 655.993 297.173 655.993 245.228C655.993 193.283 550.335 151.173 420 151.173C289.664 151.173 184.006 193.283 184.006 245.228C184.006 297.173 289.664 339.283 420 339.283Z" fill="url(#paint4_linear_3514_1811)"/>
<path fill-rule="evenodd" clip-rule="evenodd" d="M420 344.072C580.18 344.072 710.032 294.918 710.032 234.283C710.032 173.649 580.18 124.495 420 124.495C259.819 124.495 129.967 173.649 129.967 234.283C129.967 294.918 259.819 344.072 420 344.072ZM420 339.283C550.335 339.283 655.993 297.173 655.993 245.228C655.993 193.283 550.335 151.173 420 151.173C289.664 151.173 184.006 193.283 184.006 245.228C184.006 297.173 289.664 339.283 420 339.283Z" fill="url(#paint5_linear_3514_1811)"/>
</g>
<g filter="url(#filter4_d_3514_1811)">
<path fill-rule="evenodd" clip-rule="evenodd" d="M420 348.86C651.96 348.86 840 284.546 840 205.212C840 125.877 651.96 61.5635 420 61.5635C188.04 61.5635 0 125.877 0 205.212C0 284.546 188.04 348.86 420 348.86ZM420 344.072C580.181 344.072 710.033 294.918 710.033 234.283C710.033 173.649 580.181 124.495 420 124.495C259.819 124.495 129.967 173.649 129.967 234.283C129.967 294.918 259.819 344.072 420 344.072Z" fill="url(#paint6_linear_3514_1811)" shape-rendering="crispEdges"/>
</g>
<g filter="url(#filter5_f_3514_1811)">
<ellipse cx="410.565" cy="302.85" rx="344.049" ry="78.7263" transform="rotate(0.66267 410.565 302.85)" fill="#05000F" fill-opacity="0.38"/>
</g>
<g filter="url(#filter6_f_3514_1811)">
<ellipse cx="107.865" cy="212.981" rx="108.962" ry="78.7263" transform="rotate(0.66267 107.865 212.981)" fill="#05000F" fill-opacity="0.68"/>
</g>
<g filter="url(#filter7_f_3514_1811)">
<path d="M416.922 312.948C382.378 293.795 329.137 268.827 309.87 254.463V248.648L292.427 238.046V232.573L269.17 219.235V211.71L233.258 193.241L239.756 187.427L202.134 168.616L200.082 161.091L151.173 142.28L189.137 126.547L226.417 115.603L257.541 108.42L291.059 102.606L321.157 98.8436H344.756H370.407L406.319 123.469V130.651L436.759 150.831V159.381L453.176 238.046L479.854 294.137L476.775 298.241L416.922 312.948Z" fill="url(#paint7_linear_3514_1811)"/>
</g>
<g filter="url(#filter8_f_3514_1811)">
<path d="M278.404 199.739C278.404 241.296 244.716 274.984 203.16 274.984C161.604 274.984 127.916 241.296 127.916 199.739C127.916 158.183 161.604 124.495 203.16 124.495C244.716 124.495 278.404 158.183 278.404 199.739Z" fill="url(#paint8_linear_3514_1811)"/>
</g>
<g filter="url(#filter9_f_3514_1811)">
<path d="M219.576 213.42C219.576 248.932 190.788 277.72 155.277 277.72C119.765 277.72 90.9771 248.932 90.9771 213.42C90.9771 177.908 119.765 149.12 155.277 149.12C190.788 149.12 219.576 177.908 219.576 213.42Z" fill="url(#paint9_linear_3514_1811)"/>
</g>
<g filter="url(#filter10_f_3514_1811)">
<path d="M679.935 233.941C679.935 281.92 641.041 320.814 593.062 320.814C545.083 320.814 506.189 281.92 506.189 233.941C506.189 185.963 545.083 147.068 593.062 147.068C641.041 147.068 679.935 185.963 679.935 233.941Z" fill="url(#paint10_linear_3514_1811)"/>
</g>
<g filter="url(#filter11_f_3514_1811)">
<path d="M745.602 228.469C745.602 267.381 714.058 298.925 675.146 298.925C636.235 298.925 604.69 267.381 604.69 228.469C604.69 189.557 636.235 158.013 675.146 158.013C714.058 158.013 745.602 189.557 745.602 228.469Z" fill="url(#paint11_linear_3514_1811)"/>
</g>
<g filter="url(#filter12_f_3514_1811)">
<line x1="221.061" y1="111.136" x2="181.387" y2="125.501" stroke="#1491B6" stroke-width="0.684039"/>
</g>
</g>
<path d="M521.917 272.336C521.936 275.278 521.182 278.172 519.98 280.687C518.778 283.215 517.194 285.428 515.439 287.375C511.918 291.288 507.801 294.235 503.594 296.834C499.367 299.408 494.759 300.787 490.294 302.628C485.824 304.463 481.483 306.73 476.899 308.073C458.542 313.376 439.651 315.383 420.842 315.341C402.027 315.182 383.194 312.915 364.828 307.831C360.243 306.534 355.697 305.013 351.213 303.249C346.734 301.474 342.312 299.432 338.061 296.911C333.825 294.377 329.694 291.436 326.121 287.553C324.341 285.612 322.724 283.398 321.484 280.853C320.244 278.32 319.452 275.366 319.447 272.342C319.418 269.317 320.186 266.34 321.408 263.772C322.629 261.191 324.232 258.936 326.002 256.959C329.551 252.988 333.682 249.987 337.928 247.418C346.462 242.322 355.559 238.943 364.737 236.332C383.141 231.195 402.023 229.147 420.842 229.153C425.55 229.165 430.258 229.295 434.962 229.585C439.666 229.857 444.364 230.284 449.044 230.893C458.409 232.107 467.735 233.888 476.903 236.575C481.488 237.919 486.029 239.463 490.499 241.298C494.964 243.139 499.367 245.246 503.598 247.827C507.806 250.425 511.923 253.378 515.443 257.291C517.199 259.238 518.783 261.457 519.985 263.979C521.187 266.494 521.941 269.388 521.922 272.33L521.917 272.336ZM521.922 272.246C521.922 269.34 521.015 266.583 519.813 264.109C518.611 261.623 517.027 259.439 515.276 257.527C511.756 253.692 507.663 250.739 503.427 248.276C499.186 245.808 494.773 243.814 490.299 242.085C485.824 240.363 481.273 238.943 476.693 237.723C467.525 235.32 458.242 233.639 448.911 232.58C439.58 231.532 430.211 230.97 420.842 230.988C411.473 230.994 402.104 231.568 392.778 232.657C383.456 233.758 374.168 235.457 365.033 237.966C360.468 239.227 355.936 240.701 351.475 242.441C347.02 244.193 342.474 245.826 338.257 248.306C334.059 250.798 330.137 254.083 326.65 257.865C324.914 259.753 323.349 261.895 322.166 264.328C320.983 266.749 320.239 269.519 320.229 272.342C320.206 275.165 320.921 277.959 322.085 280.415C323.249 282.877 324.799 285.061 326.526 286.991C328.248 288.932 330.152 290.625 332.122 292.181C334.106 293.714 336.167 295.093 338.276 296.354C346.729 301.373 355.788 304.717 364.933 307.239C369.512 308.499 374.13 309.553 378.767 310.417C383.408 311.263 388.069 311.938 392.739 312.465C402.08 313.512 411.463 313.945 420.837 313.885C425.526 313.862 430.211 313.726 434.89 313.436C439.57 313.151 444.245 312.713 448.911 312.193C458.242 311.115 467.525 309.411 476.693 307.002C481.273 305.777 485.819 304.35 490.294 302.628C494.764 300.9 499.348 299.302 503.594 296.834C507.83 294.371 511.918 291.211 515.439 287.375C517.189 285.458 518.807 283.112 520.009 280.626C521.211 278.152 521.922 275.242 521.917 272.336L521.922 272.246Z" fill="url(#paint12_linear_3514_1811)"/>
<path d="M594.421 255.655C594.454 261.188 593.148 266.632 591.065 271.363C588.981 276.117 586.236 280.281 583.194 283.943C577.092 291.302 569.957 296.846 562.665 301.734C555.34 306.576 547.709 310.54 539.971 314.002C532.224 317.453 524.345 320.348 516.4 322.875C484.586 332.85 451.846 336.624 419.247 336.546C386.64 336.245 353.999 331.982 322.169 322.418C314.224 319.98 306.345 317.119 298.573 313.802C290.81 310.462 283.146 306.621 275.78 301.878C268.438 297.114 261.278 291.581 255.086 284.277C252.002 280.626 249.199 276.462 247.05 271.675C244.9 266.91 243.528 261.355 243.519 255.666C243.47 249.977 244.801 244.377 246.917 239.546C249.034 234.692 251.812 230.45 254.879 226.732C261.03 219.262 268.19 213.617 275.548 208.786C290.339 199.2 306.105 192.844 322.012 187.934C353.908 178.271 386.632 174.419 419.247 174.43C427.407 174.452 435.568 174.697 443.719 175.243C451.871 175.755 460.015 176.556 468.125 177.703C484.355 179.985 500.518 183.336 516.408 188.391C524.353 190.918 532.224 193.823 539.971 197.275C547.709 200.737 555.34 204.7 562.674 209.554C569.966 214.441 577.101 219.997 583.202 227.355C586.245 231.018 588.989 235.193 591.073 239.935C593.156 244.667 594.463 250.111 594.429 255.644L594.421 255.655ZM594.173 255.655C594.173 250.189 592.859 244.834 590.775 240.18C588.692 235.505 585.947 231.397 582.913 227.801C576.811 220.587 569.718 215.031 562.376 210.4C555.026 205.758 547.726 201.28 539.971 198.029C532.216 194.79 524.345 191.43 516.408 189.137C500.518 184.617 484.297 179.874 468.125 177.881C451.954 175.911 435.485 177.848 419.247 177.881C403.01 177.892 386.57 175.833 370.407 177.881C354.252 179.952 337.844 183.214 322.012 187.934C314.1 190.305 305.629 194.414 297.899 197.687C290.177 200.983 282.857 205.677 275.548 210.342C268.273 215.029 262.047 221.321 256.003 228.435C252.994 231.987 250.282 236.017 248.232 240.592C246.182 245.146 244.892 250.356 244.875 255.666C244.834 260.976 246.074 266.231 248.091 270.851C250.109 275.483 252.796 279.591 255.789 283.22C258.773 286.871 262.072 290.055 265.486 292.983C268.926 295.867 272.497 298.461 276.152 300.832C290.802 310.273 306.502 316.563 322.351 321.305C330.288 323.676 338.291 325.658 346.327 327.284C354.371 328.875 362.449 330.145 370.543 331.135C386.731 333.106 402.993 333.919 419.239 333.807C427.366 333.763 435.485 333.507 443.595 332.961C451.706 332.427 459.808 331.603 467.894 330.623C484.065 328.597 500.154 325.391 516.044 320.86C523.981 318.555 531.86 315.872 539.615 312.633C547.362 309.382 555.01 305.619 562.368 300.977C569.709 296.345 576.803 290.779 582.904 283.565C585.939 279.958 588.683 275.85 590.767 271.174C592.85 266.521 594.165 261.155 594.157 255.688L594.173 255.655Z" fill="url(#paint13_linear_3514_1811)"/>
<g filter="url(#filter13_f_3514_1811)">
<path d="M289.167 201.226L315.001 188.517L316.024 190.853L289.167 201.226Z" fill="#0DCFDA"/>
</g>
<path d="M420.876 185.501C428.094 189.667 433.946 199.804 433.946 208.137V276.159C433.946 277.155 434.631 278.364 435.494 278.875C440.996 282.136 459.361 293 460.752 293.542C460.204 292.902 460.025 292.916 460.025 291.902C460.025 259.188 460.085 208.137 460.085 208.137C460.085 191.467 448.382 171.197 433.946 162.864L385.46 135.033C384.513 134.442 383.181 134.11 380.626 135.131L380.717 244.039C380.717 245.011 381.364 246.185 382.206 246.717C387.89 250.31 407.957 262.991 408.796 263.46C408.614 263.096 407.817 262.775 407.817 262.002V192.831C407.817 184.494 413.658 181.33 420.876 185.501Z" fill="url(#paint14_linear_3514_1811)"/>
<path d="M377.847 197.532C385.065 201.698 390.917 211.835 390.917 220.168V288.173C390.917 289.176 391.612 290.392 392.483 290.899C397.953 294.087 415.989 304.598 417.999 305.755C417.454 305.115 416.996 304.944 416.996 303.93C416.996 271.216 417.056 220.165 417.056 220.165C417.056 203.495 405.353 183.225 390.917 174.892L342.431 147.061C341.484 146.47 341.351 145.768 341.337 145.464C341.337 165.003 341.414 246.692 341.428 259.772C341.428 260.782 342.134 261.946 343.008 262.446C348.272 265.466 364.945 275.026 365.767 275.488C365.585 275.124 364.788 274.802 364.788 274.03V204.858C364.788 196.525 370.629 193.358 377.847 197.528V197.532Z" fill="url(#paint15_linear_3514_1811)"/>
<path d="M377.829 197.535C370.506 193.18 364.753 196.672 364.753 205.005V273.873C364.753 275.103 365.948 275.984 367.126 275.61L383.625 270.402C384.764 270.042 385.537 269.021 385.537 267.826C385.523 257.294 385.46 208.039 385.46 204.754C385.46 204.754 382.741 201.485 382.178 200.926C380.171 198.738 377.833 197.532 377.833 197.532L377.829 197.535Z" fill="url(#paint16_linear_3514_1811)"/>
<path d="M404.517 128.095C402.941 127.2 401.088 127 399.344 127.497C392.13 129.559 381.15 132.803 381.15 132.803L359.482 138.861C355.06 140.101 347.36 142.272 342.648 143.639C341.106 144.086 340.858 146.163 342.249 146.963L390.815 175.014C401.378 181.806 415.944 197.993 416.884 218.326C416.884 247.073 416.954 292.989 416.972 304.119C416.972 305.353 418.174 306.223 419.352 305.849L435.844 300.568C436.976 300.204 437.745 299.183 437.745 297.991C437.724 287.764 437.637 239.998 437.637 211.346C437.637 192.593 419.488 172.672 411.568 168.824C406.059 165.671 395.506 159.561 385.32 153.671C385.041 153.51 384.744 153.37 384.499 153.195C380.961 150.672 381.259 146.939 385.369 144.565C389.665 142.087 396.663 141.954 401.036 144.296C401.134 144.348 401.232 144.404 401.326 144.457C401.42 144.509 401.511 144.565 401.599 144.621C412.868 151.119 426.004 158.704 433.32 162.951C443.883 169.743 458.494 185.92 459.438 206.253C459.438 235.056 459.564 280.885 459.599 291.853C459.602 293.063 460.763 293.933 461.927 293.598L478.324 288.861C479.495 288.522 480.302 287.484 480.299 286.264C480.278 275.865 480.191 227.883 480.191 199.276C480.191 180.708 461.997 160.906 454.121 156.754C443.387 150.609 413.525 133.198 404.517 128.088V128.095Z" fill="url(#paint17_linear_3514_1811)"/>
<path d="M710.033 176.905C710.022 180.538 709.282 184.153 708.001 187.491C706.719 190.84 704.923 193.925 702.847 196.739C700.766 199.558 698.416 202.113 695.918 204.48C693.421 206.848 690.792 209.041 688.053 211.053C677.094 219.138 664.979 225.073 652.704 230.254C640.387 235.381 627.757 239.562 615.011 243.183C602.255 246.785 589.373 249.822 576.42 252.449C550.514 257.684 524.328 261.148 498.082 263.48C491.52 264.052 484.953 264.564 478.375 264.98C471.803 265.371 465.225 265.739 458.647 265.992C445.491 266.54 432.324 266.763 419.158 266.775C392.824 266.691 366.496 265.552 340.25 263.209C327.127 262.028 314.031 260.558 300.974 258.726C287.911 256.919 274.892 254.774 261.933 252.208C248.98 249.635 236.098 246.611 223.331 243.08C210.57 239.52 197.929 235.405 185.583 230.344C179.416 227.802 173.326 225.018 167.378 221.898C164.409 220.325 161.462 218.698 158.587 216.921C155.695 215.174 152.88 213.282 150.136 211.264C147.386 209.258 144.741 207.071 142.227 204.709C139.719 202.342 137.342 199.781 135.238 196.955C133.141 194.13 131.311 191.027 130.008 187.647C128.699 184.274 127.937 180.611 127.916 176.917C127.926 173.224 128.671 169.555 129.964 166.169C131.257 162.772 133.075 159.657 135.167 156.813C137.259 153.97 139.631 151.391 142.134 149.011C144.642 146.632 147.282 144.42 150.032 142.402C161.03 134.281 173.156 128.298 185.463 123.141C197.808 118.026 210.455 113.863 223.216 110.255C235.983 106.664 248.887 103.682 261.846 101.097C287.78 95.9641 313.965 92.494 340.217 90.1865C366.474 87.8851 392.818 86.897 419.152 86.8729C432.319 86.897 445.491 87.1441 458.647 87.7104C465.225 87.9694 471.803 88.349 478.375 88.7466C484.948 89.1683 491.515 89.6865 498.082 90.2648C524.328 92.6205 550.508 96.1027 576.42 101.344C589.373 103.965 602.255 107.013 615.006 110.616C627.751 114.243 640.381 118.424 652.704 123.551C664.984 128.732 677.099 134.673 688.053 142.758C690.792 144.77 693.421 146.963 695.918 149.331C698.41 151.698 700.766 154.259 702.841 157.072C704.917 159.886 706.714 162.97 707.995 166.32C709.277 169.664 710.011 173.273 710.022 176.905H710.033ZM709.868 176.905C709.847 173.297 709.107 169.718 707.825 166.398C706.544 163.079 704.747 160.012 702.677 157.223C700.601 154.427 698.252 151.885 695.76 149.535C693.267 147.186 690.639 145.005 687.9 143.011C685.172 141.004 682.368 139.113 679.487 137.372C676.623 135.6 673.687 133.968 670.729 132.401C664.798 129.287 658.713 126.527 652.551 124.015C640.217 118.996 627.581 114.93 614.831 111.417C602.075 107.923 589.368 103.85 576.42 101.344C550.532 96.1075 524.301 92.4638 498.082 90.2648C471.863 88.0899 445.447 86.8669 419.152 86.8729C392.857 86.897 366.43 87.9634 340.217 90.1865C314.004 92.4096 287.73 96.0364 261.846 101.097C248.909 103.64 236.197 106.676 223.452 110.188C210.718 113.719 198.219 119.394 185.912 124.425C173.638 129.491 161.556 135.39 150.64 143.372C147.912 145.36 145.294 147.529 142.813 149.861C140.337 152.198 137.999 154.717 135.939 157.488C133.88 160.253 132.105 163.284 130.84 166.561C129.575 169.832 128.841 173.351 128.819 176.905C128.83 180.46 129.542 183.984 130.796 187.268C132.051 190.557 133.82 193.6 135.868 196.383C137.922 199.173 140.25 201.709 142.725 204.065C145.201 206.414 147.814 208.601 150.541 210.607C161.441 218.668 173.523 224.621 185.797 229.736C198.104 234.814 210.729 238.947 223.468 242.526C236.213 246.093 249.101 249.027 262.048 251.581C275.002 254.105 288.015 256.232 301.067 257.979C314.124 259.72 327.22 261.1 340.332 262.196C366.562 264.371 392.868 265.311 419.169 265.269C445.469 265.245 471.765 264.112 497.983 261.919C524.202 259.702 550.344 256.286 576.25 251.334C589.198 248.828 602.086 245.912 614.842 242.411C627.592 238.899 640.233 234.826 652.562 229.814C658.724 227.302 664.809 224.536 670.74 221.422C673.703 219.855 676.634 218.223 679.498 216.451C682.379 214.71 685.178 212.818 687.911 210.806C690.649 208.806 693.278 206.631 695.77 204.281C698.263 201.932 700.612 199.389 702.688 196.594C704.758 193.799 706.555 190.738 707.836 187.412C709.118 184.099 709.858 180.514 709.879 176.905H709.868Z" fill="url(#paint18_linear_3514_1811)"/>
<g filter="url(#filter14_f_3514_1811)">
<path d="M190.943 121.22L217.709 110.587L218.661 113.396L190.943 121.22Z" fill="#0DCFDA"/>
</g>
<g filter="url(#filter15_f_3514_1811)">
<path d="M461.853 311.369L489.123 302.094L489.958 305.062L461.853 311.369Z" fill="#0DCFDA"/>
</g>
<path d="M583.485 60.2499C583.479 62.681 583.05 65.1 582.306 67.3336C581.562 69.5752 580.519 71.6394 579.314 73.5222C578.106 75.4091 576.742 77.1185 575.292 78.703C573.842 80.2875 572.316 81.755 570.726 83.1016C564.364 88.5121 557.274 92.2254 550.124 95.6563C542.973 99.0873 535.724 102.18 528.326 104.603C520.921 107.014 513.443 109.046 505.924 110.803C490.885 114.307 475.685 116.625 460.449 118.186C456.64 118.569 452.828 118.911 449.01 119.189C445.194 119.451 441.376 119.697 437.557 119.867C429.921 120.234 422.277 120.383 414.634 120.391C399.347 120.334 384.064 119.572 368.828 118.004C361.211 117.214 353.609 116.23 346.029 115.005C338.446 113.795 330.889 112.36 323.366 110.642C315.847 108.921 308.369 106.897 300.958 104.534C293.55 102.151 286.212 99.3978 279.046 96.0111C275.466 94.3098 271.93 92.4471 268.477 90.3587C266.754 89.3064 265.044 88.2178 263.374 87.0285C261.696 85.8593 260.061 84.5933 258.469 83.2427C256.873 81.9001 255.337 80.4366 253.878 78.8562C252.421 77.2717 251.042 75.5583 249.821 73.6674C248.603 71.7765 247.541 69.7002 246.784 67.4384C246.024 65.1806 245.583 62.7294 245.57 60.2579C245.576 57.7865 246.009 55.3312 246.759 53.0654C247.509 50.7915 248.565 48.7071 249.779 46.8041C250.994 44.9011 252.371 43.1756 253.824 41.5831C255.28 39.9905 256.812 38.5109 258.408 37.1603C264.792 31.7255 271.832 27.722 278.976 24.2709C286.142 20.848 293.483 18.0621 300.891 15.6471C308.302 13.2442 315.793 11.2485 323.315 9.51886C338.37 6.08384 353.571 3.76158 368.809 2.21744C384.051 0.677327 399.344 0.0161268 414.631 0C422.274 0.0161268 429.921 0.181433 437.557 0.560414C441.376 0.733777 445.194 0.987763 449.01 1.25386C452.825 1.53608 456.637 1.88281 460.449 2.26985C475.685 3.84625 490.882 6.17657 505.924 9.68416C513.443 11.438 520.921 13.478 528.323 15.889C535.721 18.3161 543.053 21.1141 550.206 24.545C557.335 28.0123 564.367 31.9876 570.726 37.3981C572.316 38.7447 573.842 40.2123 575.292 41.7967C576.738 43.3812 578.106 45.0947 579.311 46.9775C580.516 48.8603 581.558 50.9245 582.302 53.1662C583.046 55.4038 583.472 57.8187 583.479 60.2499H583.485ZM583.39 60.2499C583.377 57.8349 582.948 55.44 582.204 53.2186C581.46 50.9971 580.417 48.9449 579.215 47.0783C578.01 45.2076 576.646 43.5062 575.2 41.9338C573.753 40.3614 572.227 38.902 570.637 37.5675C569.054 36.2249 567.426 34.959 565.754 33.7938C564.091 32.6085 562.387 31.5159 560.67 30.4676C557.227 28.3832 553.694 26.5367 550.117 24.8555C542.957 21.4971 535.623 18.7757 528.221 16.4252C520.816 14.0868 513.335 12.1395 505.819 10.4623C490.78 7.14823 475.605 4.8824 460.385 3.41082C445.166 1.95538 429.901 1.23371 414.637 1.23774C399.373 1.25386 384.109 1.97554 368.892 3.46324C353.679 4.96303 338.503 7.24094 323.478 10.6276C315.968 12.329 308.5 14.3166 301.101 16.6671C293.709 19.0297 286.38 21.7632 279.236 25.1296C272.111 28.5203 265.098 32.4674 258.761 37.8094C257.178 39.1398 255.658 40.5912 254.218 42.1515C252.781 43.7158 251.423 45.4011 250.228 47.2557C249.032 49.1062 248.002 51.1342 247.268 53.3274C246.533 55.5166 246.107 57.8712 246.094 60.2499C246.101 62.6286 246.514 64.9871 247.242 67.1844C247.97 69.3857 248.997 71.4217 250.186 73.2844C251.379 75.1511 252.73 76.8484 254.167 78.4248C255.604 79.9972 257.121 81.4607 258.704 82.8032C265.031 88.1977 272.045 92.181 279.17 95.6039C286.314 99.0027 293.642 101.768 301.037 104.163C308.436 106.55 315.917 108.513 323.433 110.223C330.952 111.912 338.507 113.335 346.083 114.505C353.663 115.67 361.265 116.593 368.876 117.327C384.102 118.782 399.373 119.411 414.64 119.383C429.908 119.367 445.172 118.609 460.392 117.141C475.612 115.658 490.787 113.372 505.825 110.058C513.341 108.38 520.822 106.429 528.227 104.087C535.629 101.736 542.967 99.0107 550.124 95.6563C553.701 93.9751 557.253 92.2005 560.697 90.1162C562.417 89.0679 564.275 88.018 565.938 86.8327C567.611 85.6675 569.14 84.4482 570.726 83.1016C572.316 81.7631 573.845 80.2754 575.292 78.703C576.738 77.1306 578.017 75.2962 579.222 73.4255C580.423 71.5548 581.466 69.5067 582.21 67.2812C582.954 65.0637 583.383 62.6649 583.396 60.2499H583.39Z" fill="url(#paint19_linear_3514_1811)"/>
<path d="M521.922 33.5457C521.918 34.7889 521.661 36.0259 521.215 37.168C520.769 38.3143 520.144 39.3699 519.422 40.3327C518.699 41.2976 517.881 42.1717 517.013 42.9819C516.144 43.7922 515.229 44.5426 514.277 45.2312C510.465 47.998 506.251 50.0287 501.982 51.8018C497.697 53.5562 493.304 54.987 488.871 56.2261C484.434 57.459 479.953 58.4981 475.448 59.397C466.437 61.1886 457.329 62.374 448.2 63.1719C445.918 63.3677 443.633 63.543 441.345 63.6852C439.059 63.8192 436.771 63.945 434.483 64.0316C429.907 64.2192 425.328 64.2955 420.748 64.2996C411.588 64.2707 402.431 63.8811 393.302 63.0791C388.737 62.675 384.182 62.172 379.64 61.5452C375.097 60.9267 370.569 60.1928 366.061 59.3145C361.556 58.4342 357.075 57.3992 352.634 56.1911C348.196 54.9726 343.799 53.5645 339.505 51.8327C337.36 50.9627 335.241 50.0102 333.172 48.9422C332.14 48.4041 331.115 47.8475 330.115 47.2393C329.109 46.6414 328.13 45.994 327.175 45.3034C326.219 44.6168 325.299 43.8685 324.424 43.0603C323.552 42.25 322.725 41.3738 321.993 40.4069C321.264 39.44 320.627 38.3782 320.174 37.2216C319.719 36.0671 319.454 34.8136 319.446 33.5498C319.45 32.286 319.709 31.0304 320.159 29.8718C320.608 28.709 321.241 27.6431 321.969 26.67C322.696 25.6969 323.521 24.8145 324.392 24.0002C325.264 23.1858 326.183 22.4292 327.139 21.7385C330.964 18.9594 335.182 16.9121 339.463 15.1473C343.757 13.397 348.156 11.9724 352.594 10.7374C357.035 9.50867 361.523 8.48814 366.031 7.60368C375.051 5.84714 384.159 4.65962 393.29 3.87C402.423 3.08244 411.586 2.74433 420.746 2.73608C425.326 2.74433 429.907 2.82886 434.483 3.02266C436.771 3.11131 439.059 3.24119 441.345 3.37726C443.631 3.52158 445.916 3.69888 448.2 3.89681C457.329 4.70292 466.435 5.89456 475.448 7.68821C479.953 8.58504 484.434 9.62825 488.869 10.8611C493.302 12.1023 497.695 13.5331 501.982 15.2875C506.253 17.0606 510.467 19.0934 514.277 21.8601C515.229 22.5487 516.144 23.2992 517.013 24.1094C517.879 24.9197 518.698 25.7959 519.421 26.7587C520.143 27.7215 520.767 28.777 521.213 29.9233C521.659 31.0676 521.914 32.3025 521.918 33.5457H521.922ZM521.865 33.5457C521.857 32.3107 521.6 31.0861 521.154 29.9501C520.708 28.8141 520.083 27.7648 519.363 26.8102C518.641 25.8536 517.824 24.9836 516.957 24.1795C516.09 23.3755 515.176 22.6291 514.224 21.9467C513.275 21.2602 512.299 20.6128 511.297 20.017C510.301 19.4109 509.28 18.8522 508.251 18.3161C506.188 17.2502 504.071 16.306 501.928 15.4463C497.638 13.7289 493.243 12.3373 488.808 11.1353C484.371 9.93956 479.889 8.94377 475.385 8.08612C466.374 6.39143 457.281 5.23276 448.162 4.48026C439.042 3.73599 429.896 3.36696 420.75 3.36902C411.604 3.37726 402.457 3.7463 393.34 4.50706C384.224 5.274 375.131 6.43884 366.128 8.17064C361.628 9.04067 357.153 10.0571 352.72 11.259C348.291 12.4672 343.9 13.865 339.619 15.5865C335.35 17.3203 331.147 19.3387 327.35 22.0704C326.402 22.7508 325.491 23.493 324.628 24.2908C323.767 25.0908 322.954 25.9525 322.237 26.9009C321.521 27.8472 320.904 28.8842 320.464 30.0058C320.024 31.1253 319.768 32.3293 319.761 33.5457C319.764 34.7621 320.012 35.9681 320.448 37.0918C320.885 38.2174 321.5 39.2586 322.212 40.2111C322.927 41.1656 323.736 42.0336 324.598 42.8397C325.459 43.6437 326.367 44.3921 327.316 45.0787C331.107 47.8372 335.35 49.5525 339.619 51.3029C343.9 53.0408 348.289 54.1825 352.72 55.4071C357.153 56.6276 361.624 57.6111 366.128 58.4853C370.633 59.3491 375.101 60.2815 379.64 60.8794C384.182 61.4752 388.741 61.8723 393.302 62.2475C402.425 62.9917 411.6 63.1863 420.748 63.1719C429.896 63.1636 439.08 62.9979 448.2 62.2475C457.319 61.4888 466.437 61.0917 475.448 59.397C479.951 58.5393 484.434 57.4239 488.871 56.2261C493.306 55.0242 497.693 53.5171 501.982 51.8018C504.125 50.942 506.192 49.8452 508.255 48.7794C509.286 48.2433 510.305 47.6846 511.301 47.0785C512.303 46.4827 513.277 45.8353 514.227 45.1467C515.18 44.4622 516.094 43.718 516.961 42.9139C517.828 42.1099 518.645 41.2398 519.367 40.2832C520.087 39.3266 520.712 38.2793 521.158 37.1412C521.604 36.0073 521.861 34.7806 521.869 33.5457H521.865Z" fill="url(#paint20_linear_3514_1811)"/>
<g filter="url(#filter16_df_3514_1811)">
<circle cx="4.10423" cy="4.10423" r="4.10423" transform="matrix(1 0 0 -1 216.84 115.603)" fill="url(#paint21_linear_3514_1811)"/>
</g>
<g filter="url(#filter17_df_3514_1811)">
<circle cx="4.10423" cy="4.10423" r="4.10423" transform="matrix(1 0 0 -1 312.606 193.583)" fill="url(#paint22_linear_3514_1811)"/>
</g>
<g filter="url(#filter18_df_3514_1811)">
<circle cx="4.10423" cy="4.10423" r="4.10423" transform="matrix(1 0 0 -1 484.984 307.134)" fill="url(#paint23_linear_3514_1811)"/>
</g>
<g filter="url(#filter19_df_3514_1811)">
<circle cx="4.10423" cy="4.10423" r="4.10423" transform="matrix(1 0 0 -1 540.391 102.606)" fill="url(#paint24_linear_3514_1811)"/>
</g>
<g filter="url(#filter20_df_3514_1811)">
<circle cx="4.10423" cy="4.10423" r="4.10423" transform="matrix(1 0 0 -1 466.515 64.2997)" fill="url(#paint25_linear_3514_1811)"/>
</g>
<g filter="url(#filter21_f_3514_1811)">
<path d="M516.443 107.494L543.458 97.4033L544.632 101.41L516.443 107.494Z" fill="#0DCFDA"/>
</g>
<g filter="url(#filter22_f_3514_1811)">
<path d="M440.591 63.3574L469.108 59.345L469.364 62.1653L440.591 63.3574Z" fill="#0DCFDA"/>
</g>
</g>
<defs>
<filter id="filter0_d_3514_1811" x="263.48" y="191.232" width="318.078" height="158.697" filterUnits="userSpaceOnUse" color-interpolation-filters="sRGB">
<feFlood flood-opacity="0" result="BackgroundImageFix"/>
<feColorMatrix in="SourceAlpha" type="matrix" values="0 0 0 0 0 0 0 0 0 0 0 0 0 0 0 0 0 0 127 0" result="hardAlpha"/>
<feOffset dx="2.51895" dy="3.46356"/>
<feGaussianBlur stdDeviation="5.98534"/>
<feComposite in2="hardAlpha" operator="out"/>
<feColorMatrix type="matrix" values="0 0 0 0 0 0 0 0 0 0 0 0 0 0 0 0 0 0 0.65 0"/>
<feBlend mode="normal" in2="BackgroundImageFix" result="effect1_dropShadow_3514_1811"/>
<feBlend mode="normal" in="SourceGraphic" in2="effect1_dropShadow_3514_1811" result="shape"/>
</filter>
<filter id="filter1_d_3514_1811" x="215.837" y="147.693" width="413.364" height="222.517" filterUnits="userSpaceOnUse" color-interpolation-filters="sRGB">
<feFlood flood-opacity="0" result="BackgroundImageFix"/>
<feColorMatrix in="SourceAlpha" type="matrix" values="0 0 0 0 0 0 0 0 0 0 0 0 0 0 0 0 0 0 127 0" result="hardAlpha"/>
<feOffset dx="2.51895" dy="3.46356"/>
<feGaussianBlur stdDeviation="15.1"/>
<feComposite in2="hardAlpha" operator="out"/>
<feColorMatrix type="matrix" values="0 0 0 0 0 0 0 0 0 0 0 0 0 0 0 0 0 0 0.65 0"/>
<feBlend mode="normal" in2="BackgroundImageFix" result="effect1_dropShadow_3514_1811"/>
<feBlend mode="normal" in="SourceGraphic" in2="effect1_dropShadow_3514_1811" result="shape"/>
</filter>
<filter id="filter2_d_3514_1811" x="178.043" y="146.154" width="488.951" height="205.075" filterUnits="userSpaceOnUse" color-interpolation-filters="sRGB">
<feFlood flood-opacity="0" result="BackgroundImageFix"/>
<feColorMatrix in="SourceAlpha" type="matrix" values="0 0 0 0 0 0 0 0 0 0 0 0 0 0 0 0 0 0 127 0" result="hardAlpha"/>
<feOffset dx="2.51895" dy="3.46356"/>
<feGaussianBlur stdDeviation="4.24104"/>
<feComposite in2="hardAlpha" operator="out"/>
<feColorMatrix type="matrix" values="0 0 0 0 0 0 0 0 0 0 0 0 0 0 0 0 0 0 0.65 0"/>
<feBlend mode="normal" in2="BackgroundImageFix" result="effect1_dropShadow_3514_1811"/>
<feBlend mode="normal" in="SourceGraphic" in2="effect1_dropShadow_3514_1811" result="shape"/>
</filter>
<filter id="filter3_d_3514_1811" x="86.9862" y="72.9951" width="671.065" height="310.577" filterUnits="userSpaceOnUse" color-interpolation-filters="sRGB">
<feFlood flood-opacity="0" result="BackgroundImageFix"/>
<feColorMatrix in="SourceAlpha" type="matrix" values="0 0 0 0 0 0 0 0 0 0 0 0 0 0 0 0 0 0 127 0" result="hardAlpha"/>
<feOffset dx="2.51895" dy="-6"/>
<feGaussianBlur stdDeviation="22.75"/>
<feComposite in2="hardAlpha" operator="out"/>
<feColorMatrix type="matrix" values="0 0 0 0 0 0 0 0 0 0 0 0 0 0 0 0 0 0 0.65 0"/>
<feBlend mode="normal" in2="BackgroundImageFix" result="effect1_dropShadow_3514_1811"/>
<feBlend mode="normal" in="SourceGraphic" in2="effect1_dropShadow_3514_1811" result="shape"/>
</filter>
<filter id="filter4_d_3514_1811" x="-64.9811" y="-3.93652" width="975" height="422.296" filterUnits="userSpaceOnUse" color-interpolation-filters="sRGB">
<feFlood flood-opacity="0" result="BackgroundImageFix"/>
<feColorMatrix in="SourceAlpha" type="matrix" values="0 0 0 0 0 0 0 0 0 0 0 0 0 0 0 0 0 0 127 0" result="hardAlpha"/>
<feOffset dx="2.51895" dy="2"/>
<feGaussianBlur stdDeviation="33.75"/>
<feComposite in2="hardAlpha" operator="out"/>
<feColorMatrix type="matrix" values="0 0 0 0 0 0 0 0 0 0 0 0 0 0 0 0 0 0 0.65 0"/>
<feBlend mode="normal" in2="BackgroundImageFix" result="effect1_dropShadow_3514_1811"/>
<feBlend mode="normal" in="SourceGraphic" in2="effect1_dropShadow_3514_1811" result="shape"/>
</filter>
<filter id="filter5_f_3514_1811" x="28.1381" y="185.627" width="764.853" height="234.447" filterUnits="userSpaceOnUse" color-interpolation-filters="sRGB">
<feFlood flood-opacity="0" result="BackgroundImageFix"/>
<feBlend mode="normal" in="SourceGraphic" in2="BackgroundImageFix" result="shape"/>
<feGaussianBlur stdDeviation="19.2" result="effect1_foregroundBlur_3514_1811"/>
</filter>
<filter id="filter6_f_3514_1811" x="-39.4938" y="95.8499" width="294.717" height="234.263" filterUnits="userSpaceOnUse" color-interpolation-filters="sRGB">
<feFlood flood-opacity="0" result="BackgroundImageFix"/>
<feBlend mode="normal" in="SourceGraphic" in2="BackgroundImageFix" result="shape"/>
<feGaussianBlur stdDeviation="19.2" result="effect1_foregroundBlur_3514_1811"/>
</filter>
<filter id="filter7_f_3514_1811" x="149.258" y="96.9283" width="332.511" height="217.935" filterUnits="userSpaceOnUse" color-interpolation-filters="sRGB">
<feFlood flood-opacity="0" result="BackgroundImageFix"/>
<feBlend mode="normal" in="SourceGraphic" in2="BackgroundImageFix" result="shape"/>
<feGaussianBlur stdDeviation="0.957655" result="effect1_foregroundBlur_3514_1811"/>
</filter>
<filter id="filter8_f_3514_1811" x="17.3064" y="13.886" width="371.707" height="371.707" filterUnits="userSpaceOnUse" color-interpolation-filters="sRGB">
<feFlood flood-opacity="0" result="BackgroundImageFix"/>
<feBlend mode="normal" in="SourceGraphic" in2="BackgroundImageFix" result="shape"/>
<feGaussianBlur stdDeviation="55.3046" result="effect1_foregroundBlur_3514_1811"/>
</filter>
<filter id="filter9_f_3514_1811" x="-19.6321" y="38.5114" width="349.817" height="349.818" filterUnits="userSpaceOnUse" color-interpolation-filters="sRGB">
<feFlood flood-opacity="0" result="BackgroundImageFix"/>
<feBlend mode="normal" in="SourceGraphic" in2="BackgroundImageFix" result="shape"/>
<feGaussianBlur stdDeviation="55.3046" result="effect1_foregroundBlur_3514_1811"/>
</filter>
<filter id="filter10_f_3514_1811" x="395.58" y="36.4592" width="394.964" height="394.964" filterUnits="userSpaceOnUse" color-interpolation-filters="sRGB">
<feFlood flood-opacity="0" result="BackgroundImageFix"/>
<feBlend mode="normal" in="SourceGraphic" in2="BackgroundImageFix" result="shape"/>
<feGaussianBlur stdDeviation="55.3046" result="effect1_foregroundBlur_3514_1811"/>
</filter>
<filter id="filter11_f_3514_1811" x="494.081" y="47.4038" width="362.13" height="362.13" filterUnits="userSpaceOnUse" color-interpolation-filters="sRGB">
<feFlood flood-opacity="0" result="BackgroundImageFix"/>
<feBlend mode="normal" in="SourceGraphic" in2="BackgroundImageFix" result="shape"/>
<feGaussianBlur stdDeviation="55.3046" result="effect1_foregroundBlur_3514_1811"/>
</filter>
<filter id="filter12_f_3514_1811" x="171.557" y="101.101" width="59.3339" height="34.4348" filterUnits="userSpaceOnUse" color-interpolation-filters="sRGB">
<feFlood flood-opacity="0" result="BackgroundImageFix"/>
<feBlend mode="normal" in="SourceGraphic" in2="BackgroundImageFix" result="shape"/>
<feGaussianBlur stdDeviation="4.85668" result="effect1_foregroundBlur_3514_1811"/>
</filter>
<filter id="filter13_f_3514_1811" x="288.073" y="187.423" width="29.0459" height="14.8978" filterUnits="userSpaceOnUse" color-interpolation-filters="sRGB">
<feFlood flood-opacity="0" result="BackgroundImageFix"/>
<feBlend mode="normal" in="SourceGraphic" in2="BackgroundImageFix" result="shape"/>
<feGaussianBlur stdDeviation="0.547231" result="effect1_foregroundBlur_3514_1811"/>
</filter>
<filter id="filter14_f_3514_1811" x="189.849" y="109.492" width="29.9062" height="12.8217" filterUnits="userSpaceOnUse" color-interpolation-filters="sRGB">
<feFlood flood-opacity="0" result="BackgroundImageFix"/>
<feBlend mode="normal" in="SourceGraphic" in2="BackgroundImageFix" result="shape"/>
<feGaussianBlur stdDeviation="0.547231" result="effect1_foregroundBlur_3514_1811"/>
</filter>
<filter id="filter15_f_3514_1811" x="460.759" y="301" width="30.2934" height="11.4633" filterUnits="userSpaceOnUse" color-interpolation-filters="sRGB">
<feFlood flood-opacity="0" result="BackgroundImageFix"/>
<feBlend mode="normal" in="SourceGraphic" in2="BackgroundImageFix" result="shape"/>
<feGaussianBlur stdDeviation="0.547231" result="effect1_foregroundBlur_3514_1811"/>
</filter>
<filter id="filter16_df_3514_1811" x="199.055" y="91.6611" width="75.2443" height="75.2443" filterUnits="userSpaceOnUse" color-interpolation-filters="sRGB">
<feFlood flood-opacity="0" result="BackgroundImageFix"/>
<feColorMatrix in="SourceAlpha" type="matrix" values="0 0 0 0 0 0 0 0 0 0 0 0 0 0 0 0 0 0 127 0" result="hardAlpha"/>
<feOffset dx="15.7329" dy="17.785"/>
<feGaussianBlur stdDeviation="16.759"/>
<feComposite in2="hardAlpha" operator="out"/>
<feColorMatrix type="matrix" values="0 0 0 0 0 0 0 0 0 0 0 0 0 0 0 0 0 0 1 0"/>
<feBlend mode="normal" in2="BackgroundImageFix" result="effect1_dropShadow_3514_1811"/>
<feBlend mode="normal" in="SourceGraphic" in2="effect1_dropShadow_3514_1811" result="shape"/>
<feGaussianBlur stdDeviation="1.64169" result="effect2_foregroundBlur_3514_1811"/>
</filter>
<filter id="filter17_df_3514_1811" x="294.821" y="169.642" width="75.2443" height="75.2443" filterUnits="userSpaceOnUse" color-interpolation-filters="sRGB">
<feFlood flood-opacity="0" result="BackgroundImageFix"/>
<feColorMatrix in="SourceAlpha" type="matrix" values="0 0 0 0 0 0 0 0 0 0 0 0 0 0 0 0 0 0 127 0" result="hardAlpha"/>
<feOffset dx="15.7329" dy="17.785"/>
<feGaussianBlur stdDeviation="16.759"/>
<feComposite in2="hardAlpha" operator="out"/>
<feColorMatrix type="matrix" values="0 0 0 0 0 0 0 0 0 0 0 0 0 0 0 0 0 0 1 0"/>
<feBlend mode="normal" in2="BackgroundImageFix" result="effect1_dropShadow_3514_1811"/>
<feBlend mode="normal" in="SourceGraphic" in2="effect1_dropShadow_3514_1811" result="shape"/>
<feGaussianBlur stdDeviation="1.64169" result="effect2_foregroundBlur_3514_1811"/>
</filter>
<filter id="filter18_df_3514_1811" x="467.199" y="283.192" width="75.2443" height="75.2443" filterUnits="userSpaceOnUse" color-interpolation-filters="sRGB">
<feFlood flood-opacity="0" result="BackgroundImageFix"/>
<feColorMatrix in="SourceAlpha" type="matrix" values="0 0 0 0 0 0 0 0 0 0 0 0 0 0 0 0 0 0 127 0" result="hardAlpha"/>
<feOffset dx="15.7329" dy="17.785"/>
<feGaussianBlur stdDeviation="16.759"/>
<feComposite in2="hardAlpha" operator="out"/>
<feColorMatrix type="matrix" values="0 0 0 0 0 0 0 0 0 0 0 0 0 0 0 0 0 0 1 0"/>
<feBlend mode="normal" in2="BackgroundImageFix" result="effect1_dropShadow_3514_1811"/>
<feBlend mode="normal" in="SourceGraphic" in2="effect1_dropShadow_3514_1811" result="shape"/>
<feGaussianBlur stdDeviation="1.64169" result="effect2_foregroundBlur_3514_1811"/>
</filter>
<filter id="filter19_df_3514_1811" x="522.606" y="78.6644" width="75.2443" height="75.2443" filterUnits="userSpaceOnUse" color-interpolation-filters="sRGB">
<feFlood flood-opacity="0" result="BackgroundImageFix"/>
<feColorMatrix in="SourceAlpha" type="matrix" values="0 0 0 0 0 0 0 0 0 0 0 0 0 0 0 0 0 0 127 0" result="hardAlpha"/>
<feOffset dx="15.7329" dy="17.785"/>
<feGaussianBlur stdDeviation="16.759"/>
<feComposite in2="hardAlpha" operator="out"/>
<feColorMatrix type="matrix" values="0 0 0 0 0 0 0 0 0 0 0 0 0 0 0 0 0 0 1 0"/>
<feBlend mode="normal" in2="BackgroundImageFix" result="effect1_dropShadow_3514_1811"/>
<feBlend mode="normal" in="SourceGraphic" in2="effect1_dropShadow_3514_1811" result="shape"/>
<feGaussianBlur stdDeviation="1.64169" result="effect2_foregroundBlur_3514_1811"/>
</filter>
<filter id="filter20_df_3514_1811" x="448.73" y="40.3583" width="75.2443" height="75.2443" filterUnits="userSpaceOnUse" color-interpolation-filters="sRGB">
<feFlood flood-opacity="0" result="BackgroundImageFix"/>
<feColorMatrix in="SourceAlpha" type="matrix" values="0 0 0 0 0 0 0 0 0 0 0 0 0 0 0 0 0 0 127 0" result="hardAlpha"/>
<feOffset dx="15.7329" dy="17.785"/>
<feGaussianBlur stdDeviation="16.759"/>
<feComposite in2="hardAlpha" operator="out"/>
<feColorMatrix type="matrix" values="0 0 0 0 0 0 0 0 0 0 0 0 0 0 0 0 0 0 1 0"/>
<feBlend mode="normal" in2="BackgroundImageFix" result="effect1_dropShadow_3514_1811"/>
<feBlend mode="normal" in="SourceGraphic" in2="effect1_dropShadow_3514_1811" result="shape"/>
<feGaussianBlur stdDeviation="1.64169" result="effect2_foregroundBlur_3514_1811"/>
</filter>
<filter id="filter21_f_3514_1811" x="514.391" y="95.3512" width="32.2932" height="14.1954" filterUnits="userSpaceOnUse" color-interpolation-filters="sRGB">
<feFlood flood-opacity="0" result="BackgroundImageFix"/>
<feBlend mode="normal" in="SourceGraphic" in2="BackgroundImageFix" result="shape"/>
<feGaussianBlur stdDeviation="1.02606" result="effect1_foregroundBlur_3514_1811"/>
</filter>
<filter id="filter22_f_3514_1811" x="438.539" y="57.293" width="32.8767" height="8.11656" filterUnits="userSpaceOnUse" color-interpolation-filters="sRGB">
<feFlood flood-opacity="0" result="BackgroundImageFix"/>
<feBlend mode="normal" in="SourceGraphic" in2="BackgroundImageFix" result="shape"/>
<feGaussianBlur stdDeviation="1.02606" result="effect1_foregroundBlur_3514_1811"/>
</filter>
<linearGradient id="paint0_linear_3514_1811" x1="327.334" y1="229.548" x2="352.07" y2="332.647" gradientUnits="userSpaceOnUse">
<stop stop-color="#303138"/>
<stop offset="1" stop-color="#141418"/>
</linearGradient>
<linearGradient id="paint1_linear_3514_1811" x1="343.615" y1="215.139" x2="352.367" y2="329.839" gradientUnits="userSpaceOnUse">
<stop stop-color="#3D3E43"/>
<stop offset="1" stop-color="#17151A"/>
</linearGradient>
<linearGradient id="paint2_linear_3514_1811" x1="326.12" y1="204.809" x2="339.133" y2="334.494" gradientUnits="userSpaceOnUse">
<stop stop-color="#46474C"/>
<stop offset="1" stop-color="#17161A"/>
</linearGradient>
<linearGradient id="paint3_linear_3514_1811" x1="293.453" y1="176.14" x2="302.031" y2="331.095" gradientUnits="userSpaceOnUse">
<stop stop-color="#4D4E52"/>
<stop offset="1" stop-color="#17161A"/>
</linearGradient>
<linearGradient id="paint4_linear_3514_1811" x1="116.971" y1="57.1173" x2="129.249" y2="338.562" gradientUnits="userSpaceOnUse">
<stop stop-color="#545459"/>
<stop offset="1" stop-color="#17161A"/>
</linearGradient>
<linearGradient id="paint5_linear_3514_1811" x1="265.717" y1="165.642" x2="280.289" y2="341.854" gradientUnits="userSpaceOnUse">
<stop stop-color="#545459"/>
<stop offset="1" stop-color="#17161A"/>
</linearGradient>
<linearGradient id="paint6_linear_3514_1811" x1="272.248" y1="105.342" x2="293.577" y2="258.22" gradientUnits="userSpaceOnUse">
<stop stop-color="#777879" stop-opacity="0.73"/>
<stop offset="1" stop-color="#0E0621"/>
</linearGradient>
<linearGradient id="paint7_linear_3514_1811" x1="345.098" y1="91.6612" x2="402.215" y2="292.085" gradientUnits="userSpaceOnUse">
<stop stop-opacity="0"/>
<stop offset="1"/>
</linearGradient>
<linearGradient id="paint8_linear_3514_1811" x1="35.0464" y1="37.049" x2="179.095" y2="251.597" gradientUnits="userSpaceOnUse">
<stop stop-color="#08F7DB"/>
<stop offset="1" stop-color="#08F7DB" stop-opacity="0"/>
</linearGradient>
<linearGradient id="paint9_linear_3514_1811" x1="11.6162" y1="74.3938" x2="134.712" y2="257.735" gradientUnits="userSpaceOnUse">
<stop stop-color="#08F7DB"/>
<stop offset="1" stop-color="#08F7DB" stop-opacity="0"/>
</linearGradient>
<linearGradient id="paint10_linear_3514_1811" x1="398.967" y1="46.1079" x2="565.278" y2="293.813" gradientUnits="userSpaceOnUse">
<stop stop-color="#08F7DB"/>
<stop offset="1" stop-color="#08F7DB" stop-opacity="0"/>
</linearGradient>
<linearGradient id="paint11_linear_3514_1811" x1="517.731" y1="76.1316" x2="652.613" y2="277.026" gradientUnits="userSpaceOnUse">
<stop stop-color="#08F7DB"/>
<stop offset="1" stop-color="#08F7DB" stop-opacity="0"/>
</linearGradient>
<linearGradient id="paint12_linear_3514_1811" x1="420.684" y1="315.495" x2="420.684" y2="229.177" gradientUnits="userSpaceOnUse">
<stop stop-color="#6AC8C1"/>
<stop offset="1" stop-color="#417BBF"/>
</linearGradient>
<linearGradient id="paint13_linear_3514_1811" x1="418.974" y1="336.835" x2="418.974" y2="174.474" gradientUnits="userSpaceOnUse">
<stop stop-color="#6AC8C1"/>
<stop offset="1" stop-color="#417BBF"/>
</linearGradient>
<linearGradient id="paint14_linear_3514_1811" x1="459.204" y1="147.631" x2="382.248" y2="280.923" gradientUnits="userSpaceOnUse">
<stop stop-color="#161031"/>
<stop offset="1" stop-color="#081B2F"/>
</linearGradient>
<linearGradient id="paint15_linear_3514_1811" x1="417.86" y1="159.466" x2="340.33" y2="293.751" gradientUnits="userSpaceOnUse">
<stop stop-color="#161031"/>
<stop offset="1" stop-color="#081B2F"/>
</linearGradient>
<linearGradient id="paint16_linear_3514_1811" x1="375.145" y1="140.689" x2="375.145" y2="287.379" gradientUnits="userSpaceOnUse">
<stop stop-color="#6AC8C1"/>
<stop offset="1" stop-color="#417BBF"/>
</linearGradient>
<linearGradient id="paint17_linear_3514_1811" x1="410.82" y1="127.231" x2="410.82" y2="326.997" gradientUnits="userSpaceOnUse">
<stop stop-color="#6AC8C1"/>
<stop offset="1" stop-color="#417BBF"/>
</linearGradient>
<linearGradient id="paint18_linear_3514_1811" x1="418.977" y1="266.763" x2="418.977" y2="86.8609" gradientUnits="userSpaceOnUse">
<stop stop-color="#6AC8C1"/>
<stop offset="1" stop-color="#417BBF"/>
</linearGradient>
<linearGradient id="paint19_linear_3514_1811" x1="414.529" y1="120.383" x2="414.529" y2="-0.00806566" gradientUnits="userSpaceOnUse">
<stop stop-color="#6AC8C1"/>
<stop offset="1" stop-color="#417BBF"/>
</linearGradient>
<linearGradient id="paint20_linear_3514_1811" x1="420.685" y1="64.2955" x2="420.685" y2="2.73196" gradientUnits="userSpaceOnUse">
<stop stop-color="#6AC8C1"/>
<stop offset="1" stop-color="#417BBF"/>
</linearGradient>
<linearGradient id="paint21_linear_3514_1811" x1="2.60586" y1="6.97068" x2="5.27687" y2="-1.41454e-07" gradientUnits="userSpaceOnUse">
<stop stop-color="#08F7DB"/>
<stop offset="1" stop-color="#128FD6"/>
</linearGradient>
<linearGradient id="paint22_linear_3514_1811" x1="2.60586" y1="6.97068" x2="5.27687" y2="-1.41454e-07" gradientUnits="userSpaceOnUse">
<stop stop-color="#08F7DB"/>
<stop offset="1" stop-color="#128FD6"/>
</linearGradient>
<linearGradient id="paint23_linear_3514_1811" x1="2.60586" y1="6.97068" x2="5.27687" y2="-1.41454e-07" gradientUnits="userSpaceOnUse">
<stop stop-color="#08F7DB"/>
<stop offset="1" stop-color="#128FD6"/>
</linearGradient>
<linearGradient id="paint24_linear_3514_1811" x1="2.60586" y1="6.97068" x2="5.27687" y2="-1.41454e-07" gradientUnits="userSpaceOnUse">
<stop stop-color="#08F7DB"/>
<stop offset="1" stop-color="#128FD6"/>
</linearGradient>
<linearGradient id="paint25_linear_3514_1811" x1="2.60586" y1="6.97068" x2="5.27687" y2="-1.41454e-07" gradientUnits="userSpaceOnUse">
<stop stop-color="#08F7DB"/>
<stop offset="1" stop-color="#128FD6"/>
</linearGradient>
<clipPath id="clip0_3514_1811">
<rect width="840" height="348.86" fill="white"/>
</clipPath>
</defs>
</svg>
