<svg width="155" height="53" viewBox="0 0 155 53" fill="none" xmlns="http://www.w3.org/2000/svg">
<g filter="url(#filter0_d_3532_204)">
<path d="M113.584 37.4398L113.585 23.6861C113.585 22.638 114.434 21.7883 115.483 21.7883H129.399C130.407 21.7883 131.224 22.6053 131.224 23.6131C131.224 24.621 130.407 25.438 129.399 25.438H118.923C117.976 25.438 117.208 26.2059 117.208 27.1533C117.208 28.1006 117.976 28.8686 118.923 28.8686H122.136C123.124 28.8686 123.924 29.6693 123.924 30.6569C123.924 31.6446 123.124 32.4453 122.136 32.4453H118.85C117.943 32.4453 117.208 33.1806 117.208 34.0876C117.208 34.9946 117.943 35.7299 118.85 35.7299H129.394C130.39 35.7299 131.198 36.5376 131.198 37.5338C131.198 38.5301 130.39 39.3377 129.394 39.3377H115.482C114.434 39.3377 113.584 38.488 113.584 37.4398Z" fill="url(#paint0_linear_3532_204)"/>
<path d="M109.617 21.7883C110.665 21.7883 111.514 22.638 111.514 23.6861V37.5445C111.514 38.5523 110.697 39.3693 109.69 39.3693C108.682 39.3693 107.865 38.5523 107.865 37.5445V27.1168C107.865 26.1493 107.08 25.365 106.113 25.365H99.3246C98.3571 25.365 97.5728 26.1493 97.5728 27.1168V37.581C97.5728 38.5686 96.7721 39.3693 95.7844 39.3693C94.7968 39.3693 93.9961 38.5686 93.9961 37.581V23.6861C93.9961 22.638 94.8458 21.7883 95.8939 21.7883H109.617Z" fill="url(#paint1_linear_3532_204)"/>
<path d="M83.8501 39.3693C84.8983 39.3693 85.7479 38.5196 85.7479 37.4715V23.6131C85.7479 22.6053 84.9309 21.7883 83.9231 21.7883C82.9153 21.7883 82.0983 22.6053 82.0983 23.6131V34.0408C82.0983 35.0083 81.314 35.7926 80.3465 35.7926H73.5582C72.5907 35.7926 71.8063 35.0083 71.8063 34.0408V23.5766C71.8063 22.589 71.0057 21.7883 70.018 21.7883C69.0304 21.7883 68.2297 22.589 68.2297 23.5766V37.4715C68.2297 38.5196 69.0794 39.3693 70.1275 39.3693H83.8501Z" fill="url(#paint2_linear_3532_204)"/>
<path d="M148.887 21.7883H135.018C134.051 21.7883 133.266 22.5726 133.266 23.5401C133.266 24.5883 134.116 25.438 135.164 25.438H138.522C139.409 25.438 140.128 26.1569 140.128 27.0438V37.5938C140.128 38.5613 140.912 39.3456 141.879 39.3456H141.999C142.966 39.3456 143.751 38.5613 143.751 37.5938V27.0438C143.751 26.1569 144.47 25.438 145.357 25.438H148.887C149.895 25.438 150.712 24.621 150.712 23.6131C150.712 22.6053 149.895 21.7883 148.887 21.7883Z" fill="url(#paint3_linear_3532_204)"/>
<path d="M91.5874 37.5547C91.5874 38.6029 90.7377 39.4526 89.6896 39.4526C88.6414 39.4526 87.7917 38.6029 87.7917 37.5547C87.7917 36.5066 88.6414 35.6569 89.6896 35.6569C90.7377 35.6569 91.5874 36.5066 91.5874 37.5547Z" fill="url(#paint4_linear_3532_204)"/>
<path fill-rule="evenodd" clip-rule="evenodd" d="M48.4419 37.5689L48.5217 26.6058L48.4605 23.425C48.4432 22.5262 49.1671 21.7883 50.066 21.7883H64.3611C65.248 21.7883 65.967 22.5073 65.967 23.3942V30.8394C65.967 31.7263 65.248 32.4453 64.3611 32.4453H53.6312C52.7443 32.4453 52.0253 33.1642 52.0253 34.0511V37.5816C52.0253 38.5492 51.241 39.3335 50.2735 39.3335H50.1937C49.2212 39.3335 48.4348 38.5414 48.4419 37.5689ZM53.7772 25.292C52.8097 25.292 52.0253 26.0763 52.0253 27.0438C52.0253 28.0113 52.8097 28.7956 53.7772 28.7956H60.6385C61.606 28.7956 62.3903 28.0113 62.3903 27.0438C62.3903 26.0763 61.606 25.292 60.6385 25.292H53.7772Z" fill="url(#paint5_linear_3532_204)"/>
<path d="M26.9158 9.37956C26.9158 9.94394 26.4583 10.4015 25.8939 10.4015C25.3295 10.4015 24.872 9.94394 24.872 9.37956C24.872 8.81518 25.3295 8.35766 25.8939 8.35766C26.4583 8.35766 26.9158 8.81518 26.9158 9.37956Z" fill="url(#paint6_linear_3532_204)"/>
<path d="M23.4122 10.9854C23.4122 11.7917 22.7586 12.4453 21.9523 12.4453C21.1461 12.4453 20.4925 11.7917 20.4925 10.9854C20.4925 10.1791 21.1461 9.52555 21.9523 9.52555C22.7586 9.52555 23.4122 10.1791 23.4122 10.9854Z" fill="url(#paint7_linear_3532_204)"/>
<path d="M18.8866 12.8102C18.8866 13.5762 18.2657 14.1971 17.4998 14.1971C16.7338 14.1971 16.1129 13.5762 16.1129 12.8102C16.1129 12.0443 16.7338 11.4234 17.4998 11.4234C18.2657 11.4234 18.8866 12.0443 18.8866 12.8102Z" fill="url(#paint8_linear_3532_204)"/>
<path d="M9.98152 23.6131C9.98152 24.3791 9.3606 25 8.59466 25C7.82871 25 7.20779 24.3791 7.20779 23.6131C7.20779 22.8472 7.82871 22.2263 8.59466 22.2263C9.3606 22.2263 9.98152 22.8472 9.98152 23.6131Z" fill="url(#paint9_linear_3532_204)"/>
<path d="M6.1859 12.2263C6.1859 12.7503 5.76106 13.1752 5.23699 13.1752C4.71293 13.1752 4.28809 12.7503 4.28809 12.2263C4.28809 11.7022 4.71293 11.2774 5.23699 11.2774C5.76106 11.2774 6.1859 11.7022 6.1859 12.2263Z" fill="url(#paint10_linear_3532_204)"/>
<path d="M16.2589 7.33577C16.2589 7.65827 15.9974 7.91971 15.6749 7.91971C15.3524 7.91971 15.091 7.65827 15.091 7.33577C15.091 7.01326 15.3524 6.75182 15.6749 6.75182C15.9974 6.75182 16.2589 7.01326 16.2589 7.33577Z" fill="url(#paint11_linear_3532_204)"/>
<path d="M10.5655 28.8686C10.5655 29.3121 10.206 29.6715 9.76254 29.6715C9.3191 29.6715 8.95962 29.3121 8.95962 28.8686C8.95962 28.4252 9.3191 28.0657 9.76254 28.0657C10.206 28.0657 10.5655 28.4252 10.5655 28.8686Z" fill="url(#paint12_linear_3532_204)"/>
<path d="M26.3319 17.4088C26.3319 19.1019 24.9593 20.4745 23.2662 20.4745C21.5731 20.4745 20.2005 19.1019 20.2005 17.4088C20.2005 15.7156 21.5731 14.3431 23.2662 14.3431C24.9593 14.3431 26.3319 15.7156 26.3319 17.4088Z" fill="url(#paint13_linear_3532_204)"/>
<path fill-rule="evenodd" clip-rule="evenodd" d="M30.7844 15.5839L46.0399 15.5109V45H31.6906C25.9669 45 19.5709 40.5567 18.0566 34.2537L17.9937 33.992C17.958 33.8436 17.8522 33.6873 17.7187 33.6131C17.4352 33.4556 17.0333 33.4701 16.731 33.5877L16.4779 33.6861C16.0922 33.8361 15.6622 33.8562 15.4065 33.6428C15.1352 33.4163 14.945 33.0896 14.945 32.7372C14.945 32.1728 15.3968 31.7153 15.9612 31.7153H16.4049C16.6047 31.7153 16.8451 31.6001 17.0151 31.5187C17.0264 31.5133 17.0374 31.508 17.0481 31.5029L17.0618 31.4963L17.5728 31.2044C18.6676 30.4015 19.6833 29.6038 19.9085 28.2117C20.1812 26.5261 19.1786 24.708 18.0535 23.8288L17.8647 23.6861C17.4765 23.3926 17.0027 23.0543 16.5248 22.9624L16.1129 22.8832C15.8803 22.8385 15.6433 22.8123 15.4062 22.7861C15.1286 22.7554 14.8508 22.7247 14.5801 22.6642C13.0141 22.3144 11.9523 20.978 11.9523 19.3066C11.9523 17.3716 13.448 15.8759 15.383 15.8759C16.5872 15.8759 17.6496 16.4105 18.2802 17.3358C18.5232 17.6923 18.6473 17.9584 18.7624 18.205C18.9459 18.5983 19.1063 18.9423 19.6895 19.5255C21.2954 21.1314 23.4852 21.7883 25.485 20.4654C27.2294 19.3115 27.2104 17.1018 27.0011 15.1862C26.9889 15.0741 26.9651 14.9637 26.9313 14.8562C26.8244 14.5165 26.661 14.1974 26.4479 13.9121L26.3336 13.7591C26.1483 13.4892 26.0399 13.1624 26.0399 12.8102C26.0399 11.883 26.7916 11.1314 27.7187 11.1314C28.6459 11.1314 29.3976 11.883 29.3976 12.8102L29.3894 12.9005C29.3464 13.3731 29.3718 13.8495 29.4649 14.3148C29.4676 14.3284 29.47 14.3421 29.4723 14.3558L29.475 14.3715C29.5065 14.5506 29.725 15.5177 30.7844 15.5839ZM42.3903 19.1606V22.8832H32.0983C28.1071 22.8832 24.872 26.254 24.872 30.2452C24.872 34.3212 28.1877 37.6832 32.2637 37.6616L38.6676 37.6277V30.3285H34.945V33.9535H32.2685C30.2395 33.9535 28.5947 32.3087 28.5947 30.2797C28.5947 28.2507 30.2395 26.6058 32.2685 26.6058H42.4253V41.4234H32.0983C26.0111 41.4234 21.0764 36.4342 21.0764 30.347C21.0764 24.1993 26.0601 19.1606 32.2078 19.1606H42.3903Z" fill="url(#paint14_linear_3532_204)"/>
<path d="M16.1129 30.5474C17.806 30.5474 19.1786 29.1749 19.1786 27.4818C19.1786 25.7886 17.806 24.4161 16.1129 24.4161C14.4198 24.4161 13.0472 25.7886 13.0472 27.4818C13.0472 29.1749 14.4198 30.5474 16.1129 30.5474Z" fill="url(#paint15_linear_3532_204)"/>
<path d="M19.4706 5H21.3684V6.89781H19.4706V5Z" fill="url(#paint16_linear_3532_204)"/>
<path d="M9.68955 6.16788H11.5874V8.06569H9.68955V6.16788Z" fill="url(#paint17_linear_3532_204)"/>
<path d="M9.1056 11.5693H12.3173V15.073H9.1056V11.5693Z" fill="url(#paint18_linear_3532_204)"/>
<path d="M5.45597 17.4088H7.49976V19.3066H5.45597V17.4088Z" fill="url(#paint19_linear_3532_204)"/>
</g>
<defs>
<filter id="filter0_d_3532_204" x="0.288086" y="5" width="154.424" height="48" filterUnits="userSpaceOnUse" color-interpolation-filters="sRGB">
<feFlood flood-opacity="0" result="BackgroundImageFix"/>
<feColorMatrix in="SourceAlpha" type="matrix" values="0 0 0 0 0 0 0 0 0 0 0 0 0 0 0 0 0 0 127 0" result="hardAlpha"/>
<feOffset dy="4"/>
<feGaussianBlur stdDeviation="2"/>
<feComposite in2="hardAlpha" operator="out"/>
<feColorMatrix type="matrix" values="0 0 0 0 0 0 0 0 0 0 0 0 0 0 0 0 0 0 0.27 0"/>
<feBlend mode="normal" in2="BackgroundImageFix" result="effect1_dropShadow_3532_204"/>
<feBlend mode="normal" in="SourceGraphic" in2="effect1_dropShadow_3532_204" result="shape"/>
</filter>
<linearGradient id="paint0_linear_3532_204" x1="6.76984" y1="15.7299" x2="148.741" y2="32.5182" gradientUnits="userSpaceOnUse">
<stop stop-color="white"/>
<stop offset="0.169692" stop-color="#BAC7E1"/>
<stop offset="1" stop-color="#BAC7E1"/>
</linearGradient>
<linearGradient id="paint1_linear_3532_204" x1="6.76984" y1="15.7299" x2="148.741" y2="32.5182" gradientUnits="userSpaceOnUse">
<stop stop-color="white"/>
<stop offset="0.169692" stop-color="#BAC7E1"/>
<stop offset="1" stop-color="#BAC7E1"/>
</linearGradient>
<linearGradient id="paint2_linear_3532_204" x1="6.76984" y1="15.7299" x2="148.741" y2="32.5182" gradientUnits="userSpaceOnUse">
<stop stop-color="white"/>
<stop offset="0.169692" stop-color="#BAC7E1"/>
<stop offset="1" stop-color="#BAC7E1"/>
</linearGradient>
<linearGradient id="paint3_linear_3532_204" x1="6.76984" y1="15.7299" x2="148.741" y2="32.5182" gradientUnits="userSpaceOnUse">
<stop stop-color="white"/>
<stop offset="0.169692" stop-color="#BAC7E1"/>
<stop offset="1" stop-color="#BAC7E1"/>
</linearGradient>
<linearGradient id="paint4_linear_3532_204" x1="6.76984" y1="15.7299" x2="148.741" y2="32.5182" gradientUnits="userSpaceOnUse">
<stop stop-color="white"/>
<stop offset="0.169692" stop-color="#BAC7E1"/>
<stop offset="1" stop-color="#BAC7E1"/>
</linearGradient>
<linearGradient id="paint5_linear_3532_204" x1="6.76984" y1="15.7299" x2="148.741" y2="32.5182" gradientUnits="userSpaceOnUse">
<stop stop-color="white"/>
<stop offset="0.169692" stop-color="#BAC7E1"/>
<stop offset="1" stop-color="#BAC7E1"/>
</linearGradient>
<linearGradient id="paint6_linear_3532_204" x1="6.76984" y1="15.7299" x2="148.741" y2="32.5182" gradientUnits="userSpaceOnUse">
<stop stop-color="white"/>
<stop offset="0.169692" stop-color="#BAC7E1"/>
<stop offset="1" stop-color="#BAC7E1"/>
</linearGradient>
<linearGradient id="paint7_linear_3532_204" x1="6.76984" y1="15.7299" x2="148.741" y2="32.5182" gradientUnits="userSpaceOnUse">
<stop stop-color="white"/>
<stop offset="0.169692" stop-color="#BAC7E1"/>
<stop offset="1" stop-color="#BAC7E1"/>
</linearGradient>
<linearGradient id="paint8_linear_3532_204" x1="6.76984" y1="15.7299" x2="148.741" y2="32.5182" gradientUnits="userSpaceOnUse">
<stop stop-color="white"/>
<stop offset="0.169692" stop-color="#BAC7E1"/>
<stop offset="1" stop-color="#BAC7E1"/>
</linearGradient>
<linearGradient id="paint9_linear_3532_204" x1="6.76984" y1="15.7299" x2="148.741" y2="32.5182" gradientUnits="userSpaceOnUse">
<stop stop-color="white"/>
<stop offset="0.169692" stop-color="#BAC7E1"/>
<stop offset="1" stop-color="#BAC7E1"/>
</linearGradient>
<linearGradient id="paint10_linear_3532_204" x1="6.76984" y1="15.7299" x2="148.741" y2="32.5182" gradientUnits="userSpaceOnUse">
<stop stop-color="white"/>
<stop offset="0.169692" stop-color="#BAC7E1"/>
<stop offset="1" stop-color="#BAC7E1"/>
</linearGradient>
<linearGradient id="paint11_linear_3532_204" x1="6.76984" y1="15.7299" x2="148.741" y2="32.5182" gradientUnits="userSpaceOnUse">
<stop stop-color="white"/>
<stop offset="0.169692" stop-color="#BAC7E1"/>
<stop offset="1" stop-color="#BAC7E1"/>
</linearGradient>
<linearGradient id="paint12_linear_3532_204" x1="6.76984" y1="15.7299" x2="148.741" y2="32.5182" gradientUnits="userSpaceOnUse">
<stop stop-color="white"/>
<stop offset="0.169692" stop-color="#BAC7E1"/>
<stop offset="1" stop-color="#BAC7E1"/>
</linearGradient>
<linearGradient id="paint13_linear_3532_204" x1="6.76984" y1="15.7299" x2="148.741" y2="32.5182" gradientUnits="userSpaceOnUse">
<stop stop-color="white"/>
<stop offset="0.169692" stop-color="#BAC7E1"/>
<stop offset="1" stop-color="#BAC7E1"/>
</linearGradient>
<linearGradient id="paint14_linear_3532_204" x1="6.76984" y1="15.7299" x2="148.741" y2="32.5182" gradientUnits="userSpaceOnUse">
<stop stop-color="white"/>
<stop offset="0.169692" stop-color="#BAC7E1"/>
<stop offset="1" stop-color="#BAC7E1"/>
</linearGradient>
<linearGradient id="paint15_linear_3532_204" x1="6.76984" y1="15.7299" x2="148.741" y2="32.5182" gradientUnits="userSpaceOnUse">
<stop stop-color="white"/>
<stop offset="0.169692" stop-color="#BAC7E1"/>
<stop offset="1" stop-color="#BAC7E1"/>
</linearGradient>
<linearGradient id="paint16_linear_3532_204" x1="6.76984" y1="15.7299" x2="148.741" y2="32.5182" gradientUnits="userSpaceOnUse">
<stop stop-color="white"/>
<stop offset="0.169692" stop-color="#BAC7E1"/>
<stop offset="1" stop-color="#BAC7E1"/>
</linearGradient>
<linearGradient id="paint17_linear_3532_204" x1="6.76984" y1="15.7299" x2="148.741" y2="32.5182" gradientUnits="userSpaceOnUse">
<stop stop-color="white"/>
<stop offset="0.169692" stop-color="#BAC7E1"/>
<stop offset="1" stop-color="#BAC7E1"/>
</linearGradient>
<linearGradient id="paint18_linear_3532_204" x1="6.76984" y1="15.7299" x2="148.741" y2="32.5182" gradientUnits="userSpaceOnUse">
<stop stop-color="white"/>
<stop offset="0.169692" stop-color="#BAC7E1"/>
<stop offset="1" stop-color="#BAC7E1"/>
</linearGradient>
<linearGradient id="paint19_linear_3532_204" x1="6.76984" y1="15.7299" x2="148.741" y2="32.5182" gradientUnits="userSpaceOnUse">
<stop stop-color="white"/>
<stop offset="0.169692" stop-color="#BAC7E1"/>
<stop offset="1" stop-color="#BAC7E1"/>
</linearGradient>
</defs>
</svg>
