<svg width="160" height="50" viewBox="0 0 160 50" fill="none" xmlns="http://www.w3.org/2000/svg">
<g filter="url(#filter0_d_3532_202)">
<path d="M141.603 34.5733C142.629 36.2823 144.68 37.4982 147.416 37.4982C152.735 37.4982 155.66 33.206 155.66 28.0772C155.66 22.9483 152.735 18.6543 147.418 18.6543C144.68 18.6543 142.629 19.8702 141.603 21.5793V12.6139H138.337V36.9677H141.603V34.5733ZM141.413 28.0754C141.413 24.4668 143.313 21.3906 146.884 21.3906C150.455 21.3906 152.354 24.3155 152.354 28.0772C152.354 31.837 150.455 34.7638 146.884 34.7638C143.313 34.7638 141.413 31.6483 141.413 28.0772V28.0754ZM122.455 23.7868C122.646 22.2273 124.013 21.2018 126.635 21.2018C129.902 21.2018 130.927 22.7596 130.927 25.154V25.4958L124.773 26.0263C120.328 26.4073 118.24 28.6094 118.24 31.6875C118.24 35.6396 121.316 37.5 124.924 37.5C127.851 37.5 129.902 36.1328 130.927 34.7655V37.0069H134.194V25.1504C134.194 23.7084 133.891 22.4925 133.322 21.5419C132.067 19.4145 129.56 18.6169 126.635 18.6169C121.811 18.6169 119.416 20.8956 119.074 23.744H122.457V23.7832L122.455 23.7868ZM125.268 34.9169C123.215 34.9169 121.506 34.0445 121.506 31.6501C121.506 29.7506 122.722 28.6094 125.115 28.3816L130.927 27.8511V29.2183C130.89 32.866 128.346 34.9169 125.268 34.9169ZM84.7673 19.1884H81.5006V36.9677H84.7673V26.8612C84.7673 23.2509 87.0104 21.3906 89.7449 21.3906C92.6325 21.3906 93.8092 22.9483 93.8092 25.8358V36.9659H97.0777V25.4958C97.0777 21.0505 94.6833 18.6561 90.5798 18.6561C88.1872 18.6561 85.9459 19.6815 84.7673 21.581V19.1884ZM69.7243 21.2392C73.1423 21.2392 74.8514 23.6337 75.0045 26.7099H64.2909C64.4423 23.785 66.3044 21.2392 69.7243 21.2392ZM74.4348 31.9919C74.2051 33.2078 72.8005 34.9169 69.913 34.9169C66.4949 34.9169 64.4423 32.1824 64.2909 29.2557H78.2712V28.9139C78.2712 27.3953 78.0807 25.9124 77.7015 24.6217C76.5622 21.0505 74.0164 18.6579 69.7225 18.6579C64.4049 18.6579 60.985 22.7596 60.985 28.0789C60.985 33.3965 64.4031 37.5 69.8756 37.5C74.3208 37.5 77.1319 34.9542 77.9294 32.0293H74.4348V31.9919ZM50.5368 36.9659H53.6148L60.6432 19.1866H57.2251L54.1845 27.2796C53.4243 29.2557 52.7033 31.6483 52.171 33.5461H52.0197C51.4856 31.6483 50.7646 29.2557 50.0045 27.2796L46.9656 19.1866H43.5475L50.5368 36.9659ZM34.6213 21.2374C38.0394 21.2374 39.7485 23.6319 39.9016 26.7081H29.188C29.302 23.7832 31.1997 21.2374 34.6213 21.2374ZM39.2927 31.9901C39.0648 33.206 37.6602 34.9151 34.7709 34.9151C31.3528 34.9151 29.302 32.1806 29.1489 29.2539H43.1309V28.9139C43.1309 27.3953 42.9404 25.9124 42.5612 24.6217C41.4219 21.0505 38.8761 18.6579 34.5822 18.6579C29.2646 18.6579 25.8447 22.7596 25.8447 28.0789C25.8447 33.3965 29.2628 37.5 34.7353 37.5C39.1788 37.5 41.9916 34.9542 42.7891 32.0293H39.2927V31.9919V31.9901ZM14.104 12.5C7.83398 12.5 4.87165 15.578 4.87165 19.224C4.87165 23.4788 7.79659 25.5688 12.4697 26.2916L15.2042 26.7473C18.2449 27.2796 20.2957 27.8493 20.2957 30.6229C20.2957 33.0921 18.0918 34.7638 14.104 34.7638C10.0379 34.7638 7.91053 33.2434 7.75921 30.6229H4.33936C4.52984 34.3828 7.64527 37.4591 14.104 37.4591C20.3349 37.4591 23.6764 34.4593 23.6764 30.3559C23.6764 25.834 20.4862 24.2016 15.8896 23.4788L13.1516 23.0622C10.1127 22.6065 8.17401 21.5045 8.17401 18.9961C8.17401 16.9453 9.88304 15.1971 14.1022 15.1971C17.9387 15.1971 19.5338 16.9061 19.6869 18.8074H23.1815C22.9162 16.0338 20.6001 12.5 14.104 12.5Z" fill="#BAC7E1"/>
<path d="M111.001 12.4999H114.686L103.782 33.8896H116.434V36.8519H100.097V33.8896L111.001 12.4999Z" fill="#9BABCB"/>
</g>
<defs>
<filter id="filter0_d_3532_202" x="0.339355" y="0" width="159.321" height="58" filterUnits="userSpaceOnUse" color-interpolation-filters="sRGB">
<feFlood flood-opacity="0" result="BackgroundImageFix"/>
<feColorMatrix in="SourceAlpha" type="matrix" values="0 0 0 0 0 0 0 0 0 0 0 0 0 0 0 0 0 0 127 0" result="hardAlpha"/>
<feOffset dy="4"/>
<feGaussianBlur stdDeviation="2"/>
<feComposite in2="hardAlpha" operator="out"/>
<feColorMatrix type="matrix" values="0 0 0 0 0 0 0 0 0 0 0 0 0 0 0 0 0 0 0.27 0"/>
<feBlend mode="normal" in2="BackgroundImageFix" result="effect1_dropShadow_3532_202"/>
<feBlend mode="normal" in="SourceGraphic" in2="effect1_dropShadow_3532_202" result="shape"/>
</filter>
</defs>
</svg>
