<svg width="235" height="50" viewBox="0 0 235 50" fill="none" xmlns="http://www.w3.org/2000/svg">
<g filter="url(#filter0_d_3532_195)">
<g clip-path="url(#clip0_3532_195)">
<path d="M59.3148 27.6485C58.1201 30.172 55.1334 31.2605 52.5947 30.073C50.0561 28.8855 48.9609 25.8673 50.1556 23.3438C51.3503 20.8204 54.337 19.7319 56.8756 20.9194C57.9708 21.4636 58.8668 22.3543 59.3645 23.4428H63.297C62.1521 18.7423 57.3734 15.823 52.6445 17.0105C47.9156 18.198 44.9787 22.8985 46.1734 27.5991C47.368 32.2996 52.0969 35.2188 56.8259 34.0313C60.0116 33.2397 62.5503 30.7657 63.297 27.5991H59.3148V27.6485Z" fill="#BAC7E1"/>
<path d="M77.234 17.5054C76.1389 17.0106 74.9442 16.7137 73.6998 16.7632C72.4553 16.7632 71.2109 17.159 70.1656 17.8517V17.3569H66.5815V33.6356H70.2153V25.8179C70.1656 24.7788 70.2153 23.6903 70.4642 22.6512V22.5522C70.6633 21.8595 71.1611 21.2658 71.8082 20.9194C73.0029 20.1772 74.546 20.1772 75.7407 20.9194L77.234 17.5054Z" fill="#BAC7E1"/>
<path d="M90.9735 17.3569V25.1746C91.0233 26.2137 90.9735 27.3022 90.7247 28.3413V28.4403C90.5255 29.133 90.0278 29.7267 89.3806 30.0731C88.186 30.7658 86.6926 30.7658 85.4482 30.0236C84.8011 29.6772 84.3033 29.0835 84.1042 28.3908V28.2918C83.9051 27.2528 83.8055 26.1642 83.8553 25.1252V17.3569H80.2215V26.2137C80.1219 27.6486 80.3708 29.133 80.8188 30.4689C81.3664 31.8049 82.4117 32.8439 83.7557 33.3882C84.8508 33.883 86.0455 34.1799 87.29 34.1304C88.5344 34.1304 89.7789 33.7345 90.8242 33.0418V33.5861H94.4082V17.3569H90.9735Z" fill="#BAC7E1"/>
<path d="M102.621 33.6353V25.8176C102.571 24.729 102.671 23.69 102.87 22.6509V22.5519C103.069 21.8592 103.567 21.2655 104.214 20.9191C105.409 20.1769 106.952 20.1769 108.146 20.9191C108.794 21.2655 109.291 21.8592 109.49 22.5519V22.6509C109.69 23.69 109.739 24.7785 109.69 25.8176V33.6353H113.274V24.729C113.373 23.2941 113.174 21.8098 112.676 20.4738C112.129 19.1379 111.083 18.0988 109.739 17.5546C108.644 17.0598 107.45 16.7629 106.205 16.8124C104.961 16.8124 103.716 17.2082 102.671 17.9009V17.4061H99.0371V33.6353H102.621Z" fill="#BAC7E1"/>
<path d="M129.95 27.6484C128.755 30.1718 125.768 31.2604 123.229 30.0729C120.691 28.8854 119.596 25.9166 120.79 23.3932C121.985 20.8697 124.972 19.7812 127.51 20.9687C128.606 21.513 129.502 22.4036 129.999 23.4921H133.932C132.787 18.7916 128.008 15.8723 123.279 17.0598C118.55 18.2473 115.613 22.9479 116.808 27.6484C118.003 32.3489 122.732 35.2682 127.461 34.0807C130.646 33.289 133.185 30.815 133.932 27.6484H129.95Z" fill="#BAC7E1"/>
<path d="M140.851 33.6354V25.8177C140.801 24.7786 140.851 23.6901 141.1 22.651V22.5521C141.299 21.8594 141.797 21.2656 142.444 20.9193C143.639 20.1771 145.182 20.1771 146.376 20.9193C147.024 21.2656 147.521 21.8594 147.72 22.5521V22.651C147.92 23.6901 148.019 24.7786 147.969 25.8177V33.6354H151.553V24.7292C151.653 23.2943 151.404 21.8099 150.956 20.474C150.409 19.138 149.363 18.099 148.019 17.5547C146.924 17.0599 145.729 16.763 144.485 16.8125C143.24 16.8125 141.996 17.2083 140.951 17.901V8.5H137.317V33.6354H140.851Z" fill="#BAC7E1"/>
<path d="M164.496 16.763H163.849C162.306 16.862 160.812 17.4063 159.518 18.2969V8.5H155.934V33.6354H159.518V32.6953C163.5 35.4662 169.026 34.526 171.813 30.5677C174.601 26.6094 173.655 21.1172 169.673 18.3464C168.179 17.3073 166.338 16.7135 164.496 16.763ZM169.523 26.1641V26.3125L169.374 26.9063C169.324 27.1042 169.225 27.3516 169.125 27.5495V27.6484C168.428 29.0833 167.134 30.0729 165.591 30.4193L165.093 30.5182H164.446C164.197 30.5182 163.998 30.5182 163.749 30.4688H163.6C163.152 30.4193 162.704 30.2708 162.306 30.0729H162.206C161.808 29.875 161.41 29.6276 161.061 29.3307C160.713 29.0339 160.414 28.638 160.165 28.2917C160.066 28.0938 159.916 27.8958 159.817 27.6484C159.219 26.3125 159.269 24.8281 159.867 23.4922C160.613 21.9089 162.156 20.8203 163.948 20.6224H164.446C167.184 20.6719 169.374 22.7995 169.424 25.5208C169.573 25.7188 169.573 25.9167 169.523 26.1641Z" fill="#BAC7E1"/>
<path d="M176.194 25.4715C176.244 30.3204 180.226 34.2293 185.104 34.1798C186.846 34.1798 188.489 33.6355 189.933 32.6954V33.6355H193.517V17.3569H189.933V18.3465C188.638 17.4559 187.145 16.9611 185.602 16.8126H184.955C180.176 16.8126 176.244 20.672 176.194 25.4715ZM179.927 25.4715C179.927 22.7006 182.217 20.4246 185.005 20.4246H185.502C187.245 20.6225 188.788 21.7111 189.584 23.2944C190.181 24.5809 190.231 26.1147 189.634 27.4506C189.534 27.6486 189.435 27.896 189.285 28.0939C189.037 28.4897 188.738 28.8361 188.389 29.1329C188.041 29.4298 187.643 29.6772 187.245 29.8751H187.145C186.747 30.073 186.299 30.172 185.851 30.271H185.751C185.502 30.3204 185.303 30.3204 185.054 30.3204H184.457L183.959 30.2215C182.466 29.8751 181.172 28.8855 180.475 27.5001V27.4012C180.375 27.2032 180.276 27.0053 180.226 26.7579L180.077 26.1642V26.0157C180.027 25.8673 179.977 25.6694 179.927 25.4715Z" fill="#BAC7E1"/>
<path d="M210.093 22.2057V22.1068C210.093 19.4349 208.052 16.763 203.472 16.7136C198.892 16.6641 196.901 19.3854 196.852 22.0078V22.2057C196.951 23.7396 197.847 25.6693 201.232 26.4609L204.268 27.1537C205.065 27.3516 206.409 27.7474 206.509 28.7865C206.509 30.1719 204.716 30.8646 203.472 30.8646C201.979 30.8646 200.436 30.0729 200.436 28.737V28.638H196.852V28.6875C196.852 31.3594 198.892 34.0313 203.472 34.0807C208.052 34.1302 210.093 31.3594 210.093 28.6875V28.638C209.993 27.1042 209.147 25.125 205.712 24.3333L202.676 23.6406C202.028 23.4922 200.436 23.0469 200.436 22.0573C200.436 20.5235 202.028 19.9792 203.472 19.9792C204.965 19.9792 206.509 20.7708 206.509 22.1068V22.2057H210.093Z" fill="#BAC7E1"/>
<path d="M230.104 25.125C230.104 19.8308 226.47 16.7136 221.691 16.7136C217.062 16.5651 213.179 20.1276 213.03 24.7292V25.3724C212.831 30.0235 216.464 33.9323 221.144 34.1302H221.691C223.433 34.1302 225.176 33.7344 226.719 32.8438C228.312 31.9532 229.506 30.4193 229.954 28.6381H226.42C225.574 30.1719 224.031 30.9141 221.84 30.9141C218.904 30.9141 216.713 28.6381 216.713 26.461H230.054C230.104 25.9167 230.104 25.5704 230.104 25.125ZM216.664 23.4922C217.161 21.2657 219.202 19.7318 221.492 19.8802C224.031 19.8802 226.072 21.3646 226.42 23.4922H216.664Z" fill="#BAC7E1"/>
</g>
<g clip-path="url(#clip1_3532_195)">
<path d="M29.6399 26.265C29.6466 26.2333 29.6466 26.2005 29.6399 26.1688V26.1C29.6865 25.9923 29.7275 25.8821 29.7627 25.77C29.7627 24.9969 29.458 24.2555 28.9156 23.7088C28.3732 23.1621 27.6375 22.855 26.8704 22.855H26.5839C26.0896 22.9072 25.6168 23.0863 25.2108 23.3752C24.8047 23.664 24.479 24.0531 24.2646 24.505C24.083 24.8918 23.9897 25.3146 23.9918 25.7425C23.9911 26.1438 24.0699 26.5412 24.2237 26.9113C24.2448 26.959 24.278 27.0046 24.3108 27.0498C24.3632 27.1219 24.4147 27.1927 24.4147 27.2688C24.5521 27.4988 24.7222 27.7072 24.9195 27.8875C25.1096 28.0665 25.3259 28.2148 25.5607 28.3275C25.794 28.4403 26.0421 28.519 26.2974 28.5613H27.498C27.6914 28.5133 27.8789 28.4441 28.0574 28.355C28.6582 28.0723 29.1411 27.5856 29.4216 26.98C29.4753 26.8642 29.5209 26.7447 29.5581 26.6225C29.5982 26.5067 29.6257 26.3869 29.6399 26.265Z" fill="#BAC7E1"/>
<path fill-rule="evenodd" clip-rule="evenodd" d="M8.22057 8.5H34.4149C35.2822 8.50362 36.1129 8.85246 36.7262 9.47055C37.3394 10.0886 37.6856 10.9259 37.6891 11.8V38.2C37.6856 39.0741 37.3394 39.9114 36.7262 40.5295C36.1129 41.1475 35.2822 41.4964 34.4149 41.5H8.22057C7.35329 41.4964 6.52254 41.1475 5.90927 40.5295C5.296 39.9114 4.94988 39.0741 4.94629 38.2V11.8C4.94988 10.9259 5.296 10.0886 5.90927 9.47055C6.52254 8.85246 7.35329 8.50362 8.22057 8.5ZM26.4066 20.6688H26.7749C27.7993 20.6672 28.7994 20.9822 29.6405 21.5715C30.4816 22.1607 31.1232 22.9958 31.4786 23.9641C31.834 24.9323 31.8862 25.9871 31.6282 26.9862C31.3702 27.9853 30.8143 28.8806 30.0356 29.5513C29.6074 29.9228 29.1179 30.216 28.5894 30.4175C27.8339 30.7131 27.0187 30.82 26.2133 30.729C25.4079 30.638 24.6363 30.3519 23.9645 29.895V30.4175H21.9044V15.8838H23.9509V21.535C24.6814 21.0373 25.5275 20.7388 26.4066 20.6688ZM17.0412 28.343C17.6288 28.0461 18.098 27.5554 18.3706 26.9525H20.6353C20.3434 28.1578 19.6233 29.2136 18.6114 29.9201C17.5994 30.6266 16.3657 30.935 15.1435 30.7868C13.9212 30.6387 12.7952 30.0443 11.9784 29.116C11.1615 28.1878 10.7104 26.9901 10.7104 25.7494C10.7104 24.5087 11.1615 23.3109 11.9784 22.3827C12.7952 21.4545 13.9212 20.8601 15.1435 20.7119C16.3657 20.5638 17.5994 20.8721 18.6114 21.5786C19.6233 22.2852 20.3434 23.3409 20.6353 24.5463H18.3706C18.098 23.9434 17.6288 23.4527 17.0412 23.1558C16.4535 22.8589 15.7827 22.7736 15.1403 22.9142C14.4979 23.0548 13.9226 23.4127 13.51 23.9285C13.0975 24.4443 12.8725 25.0868 12.8725 25.7494C12.8725 26.4119 13.0975 27.0545 13.51 27.5703C13.9226 28.0861 14.4979 28.444 15.1403 28.5846C15.7827 28.7251 16.4535 28.6399 17.0412 28.343Z" fill="#BAC7E1"/>
</g>
</g>
<defs>
<filter id="filter0_d_3532_195" x="0.946289" y="8.5" width="233.107" height="41" filterUnits="userSpaceOnUse" color-interpolation-filters="sRGB">
<feFlood flood-opacity="0" result="BackgroundImageFix"/>
<feColorMatrix in="SourceAlpha" type="matrix" values="0 0 0 0 0 0 0 0 0 0 0 0 0 0 0 0 0 0 127 0" result="hardAlpha"/>
<feOffset dy="4"/>
<feGaussianBlur stdDeviation="2"/>
<feComposite in2="hardAlpha" operator="out"/>
<feColorMatrix type="matrix" values="0 0 0 0 0 0 0 0 0 0 0 0 0 0 0 0 0 0 0.27 0"/>
<feBlend mode="normal" in2="BackgroundImageFix" result="effect1_dropShadow_3532_195"/>
<feBlend mode="normal" in="SourceGraphic" in2="effect1_dropShadow_3532_195" result="shape"/>
</filter>
<clipPath id="clip0_3532_195">
<rect width="184.179" height="26.125" fill="white" transform="translate(45.874 8.5)"/>
</clipPath>
<clipPath id="clip1_3532_195">
<rect width="32.7429" height="33" fill="white" transform="translate(4.94629 8.5)"/>
</clipPath>
</defs>
</svg>
