<svg width="49" height="53" viewBox="0 0 49 53" fill="none" xmlns="http://www.w3.org/2000/svg">
<g filter="url(#filter0_d_3532_196)">
<circle cx="24.5" cy="25" r="20" fill="#67738F"/>
<path d="M24.4287 9.97058L29.1094 18.0778H19.748L24.4287 9.97058Z" fill="#CDD5E4"/>
<path d="M24.4287 26.217L29.1095 18.0488H19.748L24.4287 26.217Z" fill="#C0CADC"/>
<path d="M24.4287 27.9889L29.1095 36.1572H19.748L24.4287 27.9889Z" fill="#97A4BE"/>
<path d="M29.1012 18.0625L34.4231 27.1163H24.9483L24.4292 26.2155L29.1012 18.0625Z" fill="#CDD5E4"/>
<path d="M29.1012 36.1875L34.4231 27.1337H24.9483L24.4292 28.0345L29.1012 36.1875Z" fill="#A2AEC7"/>
<path d="M19.7655 36.1875L14.4436 27.1337H23.9184L24.4375 28.0345L19.7655 36.1875Z" fill="#CDD5E4"/>
<path d="M19.7655 18.0625L14.4436 27.1163H23.9184L24.4375 26.2155L19.7655 18.0625Z" fill="#A2AEC7"/>
</g>
<defs>
<filter id="filter0_d_3532_196" x="0.5" y="5" width="48" height="48" filterUnits="userSpaceOnUse" color-interpolation-filters="sRGB">
<feFlood flood-opacity="0" result="BackgroundImageFix"/>
<feColorMatrix in="SourceAlpha" type="matrix" values="0 0 0 0 0 0 0 0 0 0 0 0 0 0 0 0 0 0 127 0" result="hardAlpha"/>
<feOffset dy="4"/>
<feGaussianBlur stdDeviation="2"/>
<feComposite in2="hardAlpha" operator="out"/>
<feColorMatrix type="matrix" values="0 0 0 0 0 0 0 0 0 0 0 0 0 0 0 0 0 0 0.27 0"/>
<feBlend mode="normal" in2="BackgroundImageFix" result="effect1_dropShadow_3532_196"/>
<feBlend mode="normal" in="SourceGraphic" in2="effect1_dropShadow_3532_196" result="shape"/>
</filter>
</defs>
</svg>
