<svg width="85" height="58" viewBox="0 0 85 58" fill="none" xmlns="http://www.w3.org/2000/svg">
<g filter="url(#filter0_d_3532_210)">
<path d="M21.8354 5.41178C21.8354 2.42273 24.2586 -0.000366211 27.2476 -0.000366211C30.2367 -0.000366211 32.6598 2.42274 32.6598 5.41179V25.8304H21.8354V5.41178Z" fill="#BAC7E1"/>
<path d="M37.3335 5.41178C37.3335 2.42273 39.7566 -0.000366211 42.7456 -0.000366211C45.7347 -0.000366211 48.1578 2.42274 48.1578 5.41179V25.8304H37.3335V5.41178Z" fill="#BAC7E1"/>
<path d="M63.6567 11.8072C63.6567 14.7963 61.2336 17.2194 58.2446 17.2194C55.2555 17.2194 52.8324 14.7962 52.8324 11.8072L52.8324 5.53403L63.6567 5.53403L63.6567 11.8072Z" fill="#BAC7E1"/>
<path d="M63.6567 25.953C63.6567 28.942 61.2336 31.3651 58.2446 31.3651C55.2555 31.3651 52.8324 28.942 52.8324 25.9529L52.8324 19.6798C52.8324 19.6798 54.37 22.0783 58.2446 22.0783C62.1192 22.0783 63.6567 19.6798 63.6567 19.6798L63.6567 25.953Z" fill="#BAC7E1"/>
<path d="M4 36.3068H6.74714L9.64861 43.3909H9.77208L12.6736 36.3068H15.4207V46.8505H13.26V39.9878H13.1726L10.446 46.7991H8.97469L6.24813 39.9621H6.16067V46.8505H4V36.3068Z" fill="#BAC7E1"/>
<path d="M29.7214 39.3391C29.6802 38.9238 29.5036 38.6012 29.1915 38.3712C28.8794 38.1413 28.4559 38.0263 27.9208 38.0263C27.5573 38.0263 27.2503 38.0778 27 38.1807C26.7496 38.2803 26.5576 38.4193 26.4238 38.5978C26.2935 38.7762 26.2283 38.9787 26.2283 39.2053C26.2215 39.394 26.2609 39.5588 26.3466 39.6995C26.4358 39.8402 26.5576 39.9621 26.7119 40.065C26.8662 40.1646 27.0446 40.2521 27.2469 40.3276C27.4493 40.3997 27.6653 40.4615 27.8951 40.5129L28.8417 40.7395C29.3013 40.8424 29.7231 40.9797 30.1072 41.1513C30.4914 41.3229 30.824 41.534 31.1053 41.7846C31.3865 42.0351 31.6043 42.3303 31.7586 42.6701C31.9164 43.0099 31.997 43.3994 32.0004 43.8388C31.997 44.484 31.8323 45.0435 31.5065 45.5171C31.1841 45.9873 30.7177 46.3529 30.1072 46.6137C29.5002 46.8711 28.768 46.9998 27.9105 46.9998C27.06 46.9998 26.3192 46.8694 25.6881 46.6086C25.0605 46.3477 24.5701 45.9616 24.2168 45.4502C23.867 44.9354 23.6835 44.2987 23.6664 43.5402H25.8219C25.8459 43.8937 25.9471 44.1889 26.1254 44.4257C26.3072 44.6591 26.549 44.8358 26.8508 44.956C27.156 45.0727 27.5007 45.131 27.8848 45.131C28.2621 45.131 28.5896 45.0761 28.8674 44.9663C29.1486 44.8564 29.3664 44.7037 29.5208 44.5081C29.6751 44.3124 29.7523 44.0876 29.7523 43.8336C29.7523 43.5968 29.682 43.3977 29.5413 43.2364C29.4042 43.0751 29.2018 42.9378 28.9343 42.8245C28.6702 42.7113 28.3461 42.6083 27.962 42.5156L26.8148 42.2273C25.9265 42.0111 25.2251 41.673 24.7107 41.2131C24.1963 40.7532 23.9407 40.1337 23.9442 39.3546C23.9407 38.7162 24.1105 38.1584 24.4535 37.6814C24.7999 37.2043 25.2749 36.8319 25.8785 36.5642C26.4821 36.2965 27.168 36.1626 27.9363 36.1626C28.7182 36.1626 29.4007 36.2965 29.9838 36.5642C30.5702 36.8319 31.0264 37.2043 31.3522 37.6814C31.678 38.1584 31.8461 38.711 31.8563 39.3391H29.7214Z" fill="#BAC7E1"/>
<path d="M36.7914 38.9427V40.5902H32.0327V38.9427H36.7914ZM33.1131 37.0481H35.3046V44.4205C35.3046 44.623 35.3355 44.7809 35.3972 44.8942C35.459 45.004 35.5447 45.0812 35.6544 45.1259C35.7676 45.1705 35.898 45.1928 36.0454 45.1928C36.1483 45.1928 36.2512 45.1842 36.3541 45.167C36.457 45.1464 36.5359 45.131 36.5907 45.1207L36.9354 46.7527C36.8257 46.787 36.6713 46.8265 36.4724 46.8711C36.2735 46.9192 36.0317 46.9484 35.747 46.9587C35.2189 46.9793 34.7559 46.9089 34.358 46.7476C33.9636 46.5863 33.6567 46.3357 33.4372 45.9959C33.2177 45.6561 33.1097 45.2271 33.1131 44.7088V37.0481Z" fill="#BAC7E1"/>
<path d="M39.603 46.9998C39.0989 46.9998 38.6496 46.9123 38.2552 46.7373C37.8608 46.5588 37.5487 46.2962 37.3189 45.9496C37.0925 45.5995 36.9793 45.1636 36.9793 44.6419C36.9793 44.2026 37.0599 43.8336 37.2211 43.535C37.3823 43.2364 37.6018 42.9962 37.8796 42.8142C38.1574 42.6323 38.473 42.4951 38.8262 42.4024C39.1829 42.3097 39.5567 42.2445 39.9477 42.2067C40.4073 42.1587 40.7777 42.1141 41.0589 42.0729C41.3401 42.0283 41.5442 41.9631 41.6711 41.8773C41.798 41.7914 41.8614 41.6645 41.8614 41.4963V41.4654C41.8614 41.1393 41.7585 40.8871 41.5528 40.7086C41.3504 40.5301 41.0623 40.4409 40.6885 40.4409C40.2941 40.4409 39.9803 40.5284 39.7471 40.7034C39.5139 40.875 39.3775 41.2524 39.302 41.5132L37.3189 41.4963C37.4218 41.0158 37.5624 40.2916 37.8642 39.9415C38.166 39.588 38.5553 39.3168 39.032 39.128C39.5121 38.9358 40.0677 38.8397 40.6988 38.8397C41.1378 38.8397 41.5579 38.8912 41.9592 38.9942C42.3639 39.0971 42.7223 39.2567 43.0344 39.473C43.3499 39.6892 43.5985 39.9672 43.7803 40.307C43.9621 40.6434 44.053 41.0467 44.053 41.5169V46.8505H41.9746V45.7539H41.9129C41.786 46.0011 41.6162 46.219 41.4036 46.4078C41.1909 46.5931 40.9354 46.739 40.6371 46.8454C40.3387 46.9484 39.994 46.9998 39.603 46.9998ZM40.2306 45.4862C40.553 45.4862 40.8377 45.4227 41.0846 45.2957C41.3316 45.1653 41.5253 44.9903 41.6659 44.7706C41.8066 44.551 41.8769 44.3021 41.8769 44.0241V43.1849C41.8083 43.2295 41.714 43.2707 41.5939 43.3085C41.4773 43.3428 41.3453 43.3754 41.1978 43.4063C41.0503 43.4338 40.9029 43.4595 40.7554 43.4835C40.6079 43.5041 40.4741 43.523 40.3541 43.5402C40.0969 43.5779 39.8722 43.638 39.6802 43.7204C39.4881 43.8027 39.3389 43.9143 39.2326 44.055C39.1263 44.1923 39.0731 44.3639 39.0731 44.5698C39.0731 44.8684 39.1812 45.0967 39.3972 45.2546C39.6167 45.409 39.8945 45.4862 40.2306 45.4862Z" fill="#BAC7E1"/>
<path d="M47.0756 42.2788V46.8505H44.884V38.9427H46.9727V40.0372H47.1127C47.2876 39.5773 47.5334 39.5142 47.945 39.2465C48.3565 38.9753 48.8555 38.8397 49.442 38.8397C49.9907 38.8397 50.4692 38.9599 50.8773 39.2001C51.2854 39.4404 51.6027 39.7836 51.829 40.2298C52.0554 40.6725 52.1686 41.2011 52.1686 41.8155V46.8505H49.977V42.2067C49.9804 41.7228 49.857 41.3453 49.6066 41.0741C49.3563 40.7995 49.0116 40.6622 48.5726 40.6622C48.2776 40.6622 48.017 40.7257 47.7906 40.8527C47.5677 40.9797 47.3928 41.1651 47.2659 41.4088C47.1424 41.649 47.079 41.939 47.0756 42.2788Z" fill="#BAC7E1"/>
<path d="M55.9384 46.9793C55.3382 46.9793 54.7946 46.8248 54.3076 46.5159C53.824 46.2036 53.4399 45.7454 53.1552 45.1413C52.874 44.5338 52.7334 43.789 52.7334 42.9069C52.7334 42.0008 52.8791 41.2474 53.1706 40.6468C53.4622 40.0427 53.8497 39.5914 54.3333 39.2928C54.8203 38.9908 55.3536 38.8397 55.9332 38.8397C56.3756 38.8397 56.7443 38.9152 57.0393 39.0663C57.3377 39.2138 57.5777 39.3992 57.7595 39.6223C57.9447 39.8419 58.0853 40.0582 58.1813 40.271H58.2482V36.3068H60.4346V46.8505H58.2739V45.5841H58.1813C58.0785 45.8037 57.9327 46.0217 57.7441 46.2379C57.5589 46.4507 57.3171 46.6274 57.0187 46.7682C56.7237 46.9089 56.3636 46.9793 55.9384 46.9793ZM56.6329 45.234C56.9861 45.234 57.2845 45.1379 57.528 44.9457C57.7749 44.75 57.9636 44.4772 58.0939 44.1271C58.2276 43.777 58.2945 43.3668 58.2945 42.8966C58.2945 42.4264 58.2294 42.018 58.099 41.6713C57.9687 41.3247 57.7801 41.0569 57.5331 40.8682C57.2862 40.6794 56.9861 40.585 56.6329 40.585C56.2728 40.585 55.9692 40.6828 55.7223 40.8785C55.4754 41.0741 55.2884 41.3453 55.1615 41.6919C55.0347 42.0386 54.9712 42.4401 54.9712 42.8966C54.9712 43.3565 55.0347 43.7633 55.1615 44.1168C55.2919 44.4669 55.4788 44.7414 55.7223 44.9405C55.9692 45.1361 56.2728 45.234 56.6329 45.234Z" fill="#BAC7E1"/>
<path d="M63.6205 46.9998C63.1164 46.9998 62.6671 46.9123 62.2727 46.7373C61.8783 46.5588 61.5662 46.2962 61.3364 45.9496C61.11 45.5995 60.9968 45.1636 60.9968 44.6419C60.9968 44.2026 61.0774 43.8336 61.2386 43.535C61.3998 43.2364 61.6193 42.9962 61.8971 42.8142C62.1749 42.6323 62.4905 42.4951 62.8437 42.4024C63.2004 42.3097 63.5742 42.2445 63.9652 42.2067C64.4248 42.1587 64.7952 42.1141 65.0764 42.0729C65.3576 42.0283 65.5617 41.9631 65.6886 41.8773C65.8155 41.7914 65.8789 41.6645 65.8789 41.4963V41.4654C65.8789 41.1393 65.776 40.8871 65.5703 40.7086C65.3679 40.5301 65.0798 40.4409 64.706 40.4409C64.3116 40.4409 63.9978 40.5284 63.7646 40.7034C63.5314 40.875 63.3256 41.2612 63.2501 41.522H61.2386C61.3415 41.0415 61.5799 40.2916 61.8817 39.9415C62.1835 39.588 62.5728 39.3168 63.0495 39.128C63.5296 38.9358 64.0852 38.8397 64.7163 38.8397C65.1553 38.8397 65.5754 38.8912 65.9767 38.9942C66.3814 39.0971 66.7398 39.2567 67.0519 39.473C67.3674 39.6892 67.616 39.9672 67.7978 40.307C67.9796 40.6434 68.0705 41.0467 68.0705 41.5169V46.8505H65.9921V45.7539H65.9304C65.8035 46.0011 65.6337 46.219 65.4211 46.4078C65.2084 46.5931 64.9529 46.739 64.6546 46.8454C64.3562 46.9484 64.0115 46.9998 63.6205 46.9998ZM64.2481 45.4862C64.5705 45.4862 64.8552 45.4227 65.1021 45.2957C65.3491 45.1653 65.5428 44.9903 65.6834 44.7706C65.8241 44.551 65.8944 44.3021 65.8944 44.0241V43.1849C65.8258 43.2295 65.7315 43.2707 65.6114 43.3085C65.4948 43.3428 65.3628 43.3754 65.2153 43.4063C65.0678 43.4338 64.9204 43.4595 64.7729 43.4835C64.6254 43.5041 64.4916 43.523 64.3716 43.5402C64.1144 43.5779 63.8897 43.638 63.6977 43.7204C63.5056 43.8027 63.3564 43.9143 63.2501 44.055C63.1438 44.1923 63.0906 44.3639 63.0906 44.5698C63.0906 44.8684 63.1987 45.0967 63.4147 45.2546C63.6342 45.409 63.912 45.4862 64.2481 45.4862Z" fill="#BAC7E1"/>
<path d="M68.9015 46.8505V38.9427H71.0262L71.0369 39.6682H71.4059L71.1085 40.3225C71.2525 39.8316 71.4969 39.6885 71.8364 39.4379C72.176 39.1839 71.8245 39.3607 72.2669 39.3607C72.3767 39.3607 72.495 39.3676 72.6219 39.3813C72.7488 39.395 72.8603 39.4139 72.9563 39.4379L73.497 40.7137C73.3941 40.6828 73.4509 40.7944 73.2691 40.7704C73.0874 40.7463 72.921 40.7343 72.7701 40.7343C72.4478 40.7343 72.1597 40.8047 71.9059 40.9454C71.6555 41.0827 71.4566 41.2749 71.3091 41.522C71.1651 41.7691 71.0931 42.054 71.0931 42.3766V46.8505H68.9015Z" fill="#BAC7E1"/>
<path d="M76.5039 46.9793C75.9037 46.9793 75.3601 46.8248 74.8731 46.5159C74.3896 46.2036 74.0054 45.7454 73.7208 45.1413C73.4396 44.5338 73.2989 43.789 73.2989 42.9069C73.2989 42.0008 73.4447 41.2474 73.7362 40.6468C74.0277 40.0427 74.4153 39.5914 74.8989 39.2928C75.3859 38.9908 75.9192 38.8397 76.4988 38.8397C76.9412 38.8397 77.3099 38.9152 77.6048 39.0663C77.9032 39.2138 78.1433 39.3992 78.3251 39.6223C78.5103 39.8419 78.6509 40.0582 78.7469 40.271H78.8138V36.3068H81.0002V46.8505H78.8395V45.5841H78.7469C78.644 45.8037 78.4983 46.0217 78.3096 46.2379C78.1244 46.4507 77.8826 46.6274 77.5843 46.7682C77.2893 46.9089 76.9292 46.9793 76.5039 46.9793ZM77.1984 45.234C77.5517 45.234 77.8501 45.1379 78.0936 44.9457C78.3405 44.75 78.5291 44.4772 78.6595 44.1271C78.7932 43.777 78.8601 43.3668 78.8601 42.8966C78.8601 42.4264 78.7949 42.018 78.6646 41.6713C78.5343 41.3247 78.3456 41.0569 78.0987 40.8682C77.8518 40.6794 77.5517 40.585 77.1984 40.585C76.8383 40.585 76.5348 40.6828 76.2879 40.8785C76.0409 41.0741 75.854 41.3453 75.7271 41.6919C75.6002 42.0386 75.5368 42.4401 75.5368 42.8966C75.5368 43.3565 75.6002 43.7633 75.7271 44.1168C75.8574 44.4669 76.0444 44.7414 76.2879 44.9405C76.5348 45.1361 76.8383 45.234 77.1984 45.234Z" fill="#BAC7E1"/>
<path d="M18.424 47.4117L18.5526 47.0771L15.718 38.9427H18.0227L19.6586 44.75H19.741L21.3923 38.9427H23.7125L20.4825 47.7249L19.6586 50.0005H17.2844L18.424 47.4117Z" fill="#BAC7E1"/>
<path d="M73.62 40.2832C73.62 41.0305 73.0142 41.6363 72.2669 41.6363C71.5197 41.6363 70.9139 41.0305 70.9139 40.2832C70.9139 39.536 71.5197 38.9302 72.2669 38.9302C73.0142 38.9302 73.62 39.536 73.62 40.2832Z" fill="#BAC7E1"/>
</g>
<defs>
<filter id="filter0_d_3532_210" x="0" y="-0.000366211" width="85" height="58.0018" filterUnits="userSpaceOnUse" color-interpolation-filters="sRGB">
<feFlood flood-opacity="0" result="BackgroundImageFix"/>
<feColorMatrix in="SourceAlpha" type="matrix" values="0 0 0 0 0 0 0 0 0 0 0 0 0 0 0 0 0 0 127 0" result="hardAlpha"/>
<feOffset dy="4"/>
<feGaussianBlur stdDeviation="2"/>
<feComposite in2="hardAlpha" operator="out"/>
<feColorMatrix type="matrix" values="0 0 0 0 0 0 0 0 0 0 0 0 0 0 0 0 0 0 0.27 0"/>
<feBlend mode="normal" in2="BackgroundImageFix" result="effect1_dropShadow_3532_210"/>
<feBlend mode="normal" in="SourceGraphic" in2="effect1_dropShadow_3532_210" result="shape"/>
</filter>
</defs>
</svg>
