<svg width="135" height="50" viewBox="0 0 135 50" fill="none" xmlns="http://www.w3.org/2000/svg">
<g filter="url(#filter0_d_3532_201)">
<path d="M93.583 32.6973V40.764" stroke="#BAC7E1" stroke-width="0.378273" stroke-linecap="round" stroke-linejoin="round"/>
<path d="M102.138 33.8603V40.7659" stroke="#BAC7E1" stroke-width="0.378273" stroke-linecap="round" stroke-linejoin="round"/>
<path d="M108.25 32.824L108.25 40.7685" stroke="#BAC7E1" stroke-width="0.378273" stroke-linecap="round" stroke-linejoin="round"/>
<path d="M99.2656 32.9449L105.132 32.9449" stroke="#BAC7E1" stroke-width="0.378273" stroke-linecap="round" stroke-linejoin="round"/>
<path d="M125.85 36.7331L129.028 36.7331" stroke="#BAC7E1" stroke-width="0.378273" stroke-linecap="round" stroke-linejoin="round"/>
<path d="M94.5605 40.6422L97.6161 40.6422" stroke="#BAC7E1" stroke-width="0.378273" stroke-linecap="round" stroke-linejoin="round"/>
<path d="M65.228 40.7061V32.9449L71.0336 40.7061V32.9449" stroke="#BAC7E1" stroke-width="0.378273" stroke-linecap="round" stroke-linejoin="round"/>
<path d="M112.527 40.7061V32.9449L118.333 40.7061V32.9449" stroke="#BAC7E1" stroke-width="0.378273" stroke-linecap="round" stroke-linejoin="round"/>
<rect x="7.29346" y="17.0551" width="2.44446" height="5.25559" fill="#BAC7E1"/>
<rect x="29.9053" y="35.7544" width="2.44446" height="5.25559" transform="rotate(90 29.9053 35.7544)" fill="#BAC7E1"/>
<rect x="18.4829" y="34.4647" width="2.44446" height="11.1672" transform="rotate(135 18.4829 34.4647)" fill="#BAC7E1"/>
<rect x="29.8574" y="13.6354" width="2.44446" height="11.1672" transform="rotate(45 29.8574 13.6354)" fill="#BAC7E1"/>
<circle cx="8.51591" cy="13.0223" r="3.26134" stroke="#BAC7E1" stroke-width="2.52182"/>
<circle cx="20.8601" cy="13.0223" r="3.26134" stroke="#BAC7E1" stroke-width="2.52182"/>
<circle cx="33.2054" cy="13.0223" r="3.26134" stroke="#BAC7E1" stroke-width="2.52182"/>
<circle cx="33.2054" cy="24.9971" r="3.26134" stroke="#BAC7E1" stroke-width="2.52182"/>
<circle cx="33.2054" cy="36.9778" r="3.26134" stroke="#BAC7E1" stroke-width="2.52182"/>
<circle cx="20.8601" cy="36.9778" r="3.26134" stroke="#BAC7E1" stroke-width="2.52182"/>
<circle cx="20.8601" cy="24.9971" r="3.26134" stroke="#BAC7E1" stroke-width="2.52182"/>
<circle cx="8.51591" cy="24.9971" r="3.26134" stroke="#BAC7E1" stroke-width="2.52182"/>
<circle cx="8.51591" cy="36.9778" r="3.26134" stroke="#BAC7E1" stroke-width="2.52182"/>
<rect x="44.4502" y="8.98938" width="4.03336" height="18.4557" fill="#BAC7E1"/>
<rect x="91.8716" y="8.98938" width="4.03336" height="18.4557" fill="#BAC7E1"/>
<rect x="115.95" y="8.98938" width="4.03336" height="18.4557" fill="#BAC7E1"/>
<rect x="115.95" y="12.5358" width="3.54447" height="13.4445" transform="rotate(-90 115.95 12.5358)" fill="#BAC7E1"/>
<path d="M122.61 19.9913L123.466 16.6302L128.538 16.6302L128.538 19.9913L122.61 19.9913Z" fill="#BAC7E1"/>
<rect x="115.95" y="27.4468" width="3.42225" height="13.689" transform="rotate(-90 115.95 27.4468)" fill="#BAC7E1"/>
<path d="M103.85 14.734C105.003 13.7204 106.73 13.7204 107.883 14.734V27.4452H103.85V14.734Z" fill="#BAC7E1"/>
<path d="M98.4727 12.5358L98.4727 8.9913L113.506 8.9913L113.506 12.5358L98.4727 12.5358Z" fill="#BAC7E1"/>
<rect x="52.1499" y="8.98938" width="4.03336" height="18.4557" fill="#BAC7E1"/>
<path d="M52.1499 8.98938H56.1833L68.1 27.4451H64.0667L52.1499 8.98938Z" fill="#BAC7E1"/>
<path d="M64.3721 8.98938H68.4054V23.5339L67.8162 23.0839C66.0303 21.7202 64.8052 19.7499 64.3721 17.545V8.98938Z" fill="#BAC7E1"/>
<path fill-rule="evenodd" clip-rule="evenodd" d="M89.3207 23.6377C87.5215 26.1522 84.4645 27.8069 80.9959 27.8069C75.4608 27.8069 70.9736 23.5931 70.9736 18.3957C70.9736 13.1984 75.4608 8.98456 80.9959 8.98456C84.4428 8.98456 87.4832 10.6186 89.2868 13.1067L85.8088 14.7565C84.6901 13.4004 82.9501 12.529 80.9959 12.529C77.6209 12.529 74.8848 15.1282 74.8848 18.3346C74.8848 21.5411 77.6209 24.1402 80.9959 24.1402C82.9545 24.1402 84.6979 23.2649 85.8163 21.9036L89.3207 23.6377Z" fill="#BAC7E1"/>
<circle cx="57.5883" cy="36.7949" r="3.85003" stroke="#BAC7E1" stroke-width="0.378273"/>
<path d="M130.006 36.7949C130.006 37.6924 129.692 38.5618 129.119 39.2526C128.546 39.9435 127.75 40.4125 126.868 40.5785C125.986 40.7445 125.074 40.5972 124.289 40.1619C123.504 39.7267 122.895 39.0308 122.569 38.1947C122.243 37.3586 122.219 36.4348 122.501 35.5829C122.784 34.731 123.355 34.0046 124.117 33.5292C124.878 33.0539 125.781 32.8594 126.671 32.9795C127.56 33.0996 128.38 33.5266 128.988 34.1869" stroke="#BAC7E1" stroke-width="0.378273" stroke-linecap="round"/>
<path d="M50.5324 39.5173C49.9939 40.0557 49.3079 40.4224 48.5611 40.571C47.8143 40.7195 47.0401 40.6433 46.3366 40.3519C45.6331 40.0605 45.0319 39.567 44.6088 38.9339C44.1858 38.3007 43.96 37.5564 43.96 36.7949C43.96 36.0335 44.1858 35.2891 44.6088 34.656C45.0319 34.0228 45.6331 33.5294 46.3366 33.238C47.0401 32.9466 47.8143 32.8703 48.5611 33.0189C49.3079 33.1674 49.9939 33.5341 50.5324 34.0725" stroke="#BAC7E1" stroke-width="0.378273" stroke-linecap="round"/>
<path d="M79.7709 33.9227C79.5468 33.5967 78.7442 32.9449 77.3264 32.9449C75.5542 32.9449 75.0653 34.0449 75.0653 34.5949C75.0653 35.1449 75.1875 36.0005 77.3264 36.6116C79.4654 37.2227 80.0154 37.8949 79.9542 38.8116C79.8931 39.7283 79.4042 40.6449 77.3264 40.6449C75.6642 40.6449 74.9227 39.8709 74.7598 39.4838" stroke="#BAC7E1" stroke-width="0.378273" stroke-linecap="round" stroke-linejoin="round"/>
<path d="M83.6841 32.824V37.8962C83.6841 39.4488 84.9427 40.7074 86.4952 40.7074V40.7074C88.0478 40.7074 89.3063 39.4488 89.3063 37.8962V32.824" stroke="#BAC7E1" stroke-width="0.378273" stroke-linecap="round" stroke-linejoin="round"/>
</g>
<defs>
<filter id="filter0_d_3532_201" x="-0.00634766" y="0" width="134.201" height="58" filterUnits="userSpaceOnUse" color-interpolation-filters="sRGB">
<feFlood flood-opacity="0" result="BackgroundImageFix"/>
<feColorMatrix in="SourceAlpha" type="matrix" values="0 0 0 0 0 0 0 0 0 0 0 0 0 0 0 0 0 0 127 0" result="hardAlpha"/>
<feOffset dy="4"/>
<feGaussianBlur stdDeviation="2"/>
<feComposite in2="hardAlpha" operator="out"/>
<feColorMatrix type="matrix" values="0 0 0 0 0 0 0 0 0 0 0 0 0 0 0 0 0 0 0.27 0"/>
<feBlend mode="normal" in2="BackgroundImageFix" result="effect1_dropShadow_3532_201"/>
<feBlend mode="normal" in="SourceGraphic" in2="effect1_dropShadow_3532_201" result="shape"/>
</filter>
</defs>
</svg>
