<svg width="149" height="50" viewBox="0 0 149 50" fill="none" xmlns="http://www.w3.org/2000/svg">
<g clip-path="url(#clip0_3532_205)" filter="url(#filter0_d_3532_205)">
<path d="M51.9351 30.25H56.6057V34.9283H51.9351V30.25Z" fill="#BAC7E1"/>
<path d="M79.9142 15.0833C83.2833 15.0833 86.0279 17.8342 86.0279 21.2069V34.9288H81.3573V21.2069C81.3573 20.4142 80.7056 19.7615 79.9142 19.7615H65.6191C64.8277 19.7615 64.176 20.4142 64.176 21.2069V34.9288H59.5054V21.2069C59.5054 17.8324 62.25 15.0833 65.6191 15.0833H79.9142Z" fill="#BAC7E1"/>
<path d="M115.455 15.0833V19.7615H95.0464C94.2549 19.7615 93.6032 20.4142 93.6032 21.2069V22.6815H88.9326V21.2069C88.9326 17.8324 91.6773 15.0833 95.0464 15.0833H115.455ZM95.0464 22.6815H115.455V27.3306H95.0464C94.2549 27.3306 93.6032 28.0106 93.6032 28.8051C93.6032 29.5997 94.2549 30.2506 95.0464 30.2506H115.455V34.9288H95.0464C91.6773 34.9288 88.9326 32.1779 88.9326 28.8051C88.9326 25.4051 91.6773 22.6815 95.0464 22.6815Z" fill="#BAC7E1"/>
<path d="M133.823 20.8124V34.9306H129.153V21.2069C129.153 20.4142 128.501 19.7615 127.709 19.7615H118.227V15.0833H127.709C130.935 15.0833 133.596 17.6069 133.796 20.8106H133.823V20.8124ZM133.823 19.7615V15.0833H144.749V19.7615H133.823Z" fill="#BAC7E1"/>
<path d="M36.1256 15.0833H8.92236L15.7168 19.7615H36.1256C36.9189 19.7615 37.5688 20.4124 37.5688 21.2069V24.6979L42.2394 27.9142V21.2069C42.2394 17.8397 39.4893 15.0833 36.1256 15.0833Z" fill="#BAC7E1"/>
<path d="M21.8301 34.9247H49.0333L42.2389 30.2465H21.8301C21.0386 30.2465 20.3869 29.5938 20.3869 28.801V25.3101L15.7163 22.0938V28.7992C15.7145 32.1737 18.461 34.9247 21.8301 34.9247Z" fill="#BAC7E1"/>
<path d="M8.92111 22.0938H4.25049V34.9229H8.92111V22.0938Z" fill="#BAC7E1"/>
<path d="M4.25049 15.0833V19.0924L8.75593 22.1942L8.92111 22.0997V15.0833H4.25049Z" fill="#BAC7E1"/>
</g>
<defs>
<filter id="filter0_d_3532_205" x="0.25" y="15" width="148.5" height="28" filterUnits="userSpaceOnUse" color-interpolation-filters="sRGB">
<feFlood flood-opacity="0" result="BackgroundImageFix"/>
<feColorMatrix in="SourceAlpha" type="matrix" values="0 0 0 0 0 0 0 0 0 0 0 0 0 0 0 0 0 0 127 0" result="hardAlpha"/>
<feOffset dy="4"/>
<feGaussianBlur stdDeviation="2"/>
<feComposite in2="hardAlpha" operator="out"/>
<feColorMatrix type="matrix" values="0 0 0 0 0 0 0 0 0 0 0 0 0 0 0 0 0 0 0.27 0"/>
<feBlend mode="normal" in2="BackgroundImageFix" result="effect1_dropShadow_3532_205"/>
<feBlend mode="normal" in="SourceGraphic" in2="effect1_dropShadow_3532_205" result="shape"/>
</filter>
<clipPath id="clip0_3532_205">
<rect width="140.5" height="20" fill="white" transform="translate(4.25 15)"/>
</clipPath>
</defs>
</svg>
