<svg width="73" height="50" viewBox="0 0 73 50" fill="none" xmlns="http://www.w3.org/2000/svg">
<g filter="url(#filter0_d_3532_200)">
<path d="M35.817 41.4325C36.0774 41.4691 36.34 41.4881 36.6031 41.4896C37.3889 41.511 38.159 41.2697 38.7888 40.8043C39.5226 40.1824 39.981 39.3007 40.0656 38.3483C40.236 37.2806 40.0244 36.1872 39.467 35.2571C39.2246 34.8744 38.901 34.5485 38.5187 34.3019C38.1361 34.0554 37.704 33.894 37.2524 33.8295H37.0793C36.747 33.7794 36.4088 33.7794 36.0767 33.8295C35.3375 33.8757 34.6407 34.1853 34.1145 34.7005C33.7475 35.0857 33.4631 35.5404 33.2785 36.0374C33.0937 36.5343 33.0125 37.063 33.0396 37.5918C32.9791 38.6275 33.3168 39.6474 33.9845 40.4473C34.4588 40.9794 35.1076 41.3282 35.817 41.4325ZM35.357 35.0112C35.6816 34.8364 36.0459 34.7465 36.4156 34.7504L36.4804 34.7217C36.8018 34.694 37.1254 34.7352 37.429 34.8424C37.7328 34.9496 38.0095 35.1203 38.2407 35.343C38.7479 35.8413 39.0685 36.496 39.1495 37.1991C39.2646 38.1345 39.0056 39.077 38.4282 39.8261C38.0476 40.225 37.547 40.4912 37.0008 40.5852C36.4548 40.6791 35.8925 40.5957 35.3985 40.3474C35.0369 40.134 34.7292 39.8418 34.4992 39.4928C34.2693 39.144 34.1227 38.7475 34.071 38.3341C33.905 37.4424 34.0798 36.5213 34.5617 35.7498C34.7587 35.4405 35.0325 35.1861 35.357 35.0112Z" fill="#BAC7E1"/>
<path d="M20.0039 41.3184C20.4569 41.4444 20.9258 41.5046 21.3962 41.4969C22.0897 41.4902 22.7719 41.3213 23.3872 41.0043C23.6316 40.8957 23.8503 40.7376 24.0292 40.5403L24.0653 40.4691C24.0863 40.2887 24.0863 40.1065 24.0653 39.9264V37.7561C24.0292 37.6125 23.6585 37.5805 23.4882 37.5848H21.5477C21.4785 37.6106 21.4157 37.6506 21.3635 37.7023C21.3113 37.7541 21.2707 37.8163 21.2447 37.8847C21.2193 37.9584 21.21 38.0367 21.2175 38.1143C21.225 38.1916 21.249 38.2667 21.288 38.3344H21.3313C21.4454 38.3898 21.5723 38.4146 21.6992 38.4057H23.178V40.1834C22.671 40.4633 22.0994 40.6083 21.5188 40.6047C21.1401 40.6449 20.7571 40.5962 20.4011 40.4621C20.045 40.3281 19.726 40.1128 19.4701 39.8336C19.1727 39.4261 18.9646 38.9616 18.8591 38.4698C18.7535 37.9782 18.7528 37.4699 18.8569 36.9781C18.9063 36.5558 19.0562 36.1511 19.2945 35.7973C19.5328 35.4437 19.8526 35.151 20.2275 34.9434C20.7347 34.7307 21.2917 34.6613 21.8362 34.7434C22.2008 34.8022 22.5522 34.9229 22.875 35.1004L23.2213 35.2575C23.6281 35.4276 23.9684 34.6177 23.5243 34.4223C22.8923 33.9859 22.1293 33.7744 21.3602 33.8226C20.9154 33.805 20.4719 33.8799 20.0582 34.0423C19.6445 34.2043 19.2697 34.4508 18.9579 34.7649C18.3399 35.3724 17.9591 36.1764 17.8831 37.0352C17.7899 37.8575 17.876 38.69 18.1356 39.4767C18.2818 39.9057 18.5266 40.2954 18.8508 40.615C19.1751 40.9347 19.5697 41.1756 20.0039 41.3184Z" fill="#BAC7E1"/>
<path d="M26.4312 41.3257C26.5129 41.3707 26.6046 41.3953 26.6981 41.3972C26.7955 41.4059 26.8934 41.3859 26.9794 41.3399C27.043 41.3064 27.0956 41.2558 27.1314 41.1939C27.1671 41.132 27.1844 41.0614 27.1814 40.9901V38.4202H28.5592L28.8622 38.8983C28.9539 39.0443 29.046 39.1913 29.1382 39.3385C29.5246 39.9551 29.9148 40.578 30.3049 41.1544C30.3444 41.2284 30.4022 41.2912 30.4729 41.3375C30.5434 41.3837 30.6246 41.4114 30.709 41.4184C30.7926 41.4269 30.8767 41.4148 30.9548 41.3837C31.0326 41.3527 31.1081 41.3257 31.1562 41.2399C31.2042 41.1544 31.2028 40.9781 31.1889 40.8705C31.1752 40.7628 31.1369 40.6597 31.077 40.5691C30.9067 40.3217 30.7406 40.0592 30.5753 39.798C30.5166 39.7048 30.4576 39.6116 30.3988 39.5196C30.1198 39.0723 29.8312 38.6224 29.5331 38.1702C29.857 38.044 30.1462 37.8436 30.3768 37.5854C30.6076 37.3274 30.7731 37.0191 30.8604 36.6855C30.9684 36.2993 30.9728 35.892 30.8729 35.5039C30.7729 35.1157 30.5722 34.7601 30.2905 34.4722C29.4537 33.8084 28.3284 33.8583 27.405 33.9011H27.0948C26.8317 33.9069 26.5721 33.9628 26.3302 34.0654L26.2364 34.1153V40.9687C26.2321 41.0403 26.2481 41.1116 26.2825 41.1746C26.3169 41.2378 26.3684 41.2901 26.4312 41.3257ZM27.3761 37.4994H27.1669V34.7864C27.916 34.6452 28.69 34.7119 29.4032 34.9793C29.5681 35.0561 29.7065 35.1787 29.8026 35.332C29.8987 35.4854 29.9477 35.6627 29.9442 35.8431C29.9765 36.0483 29.9662 36.2579 29.9141 36.4593C29.8621 36.6604 29.7692 36.849 29.6412 37.0138C29.2844 37.3298 28.8216 37.5027 28.3428 37.4994C28.0221 37.5423 27.6969 37.5423 27.3761 37.4994Z" fill="#BAC7E1"/>
<path d="M43.9389 41.335C44.272 41.4513 44.7331 41.5158 45.0857 41.4968C45.0857 41.4968 45.9028 41.4072 46.261 41.2603C46.619 41.1134 46.9396 40.8893 47.1993 40.6046C47.6548 39.9834 47.8881 39.2299 47.863 38.463V34.3794C47.8718 34.3042 47.8589 34.2279 47.8257 34.1598C47.7926 34.0916 47.7404 34.034 47.6755 33.994C47.5899 33.9451 47.4928 33.9194 47.3941 33.9194C47.2954 33.9194 47.1983 33.9451 47.1127 33.994C47.0496 34.0287 46.9978 34.081 46.9644 34.1443C46.9313 34.2079 46.9174 34.2797 46.9252 34.351V37.7632C46.9886 38.4447 46.8821 39.1309 46.615 39.7623C46.4714 40.0132 46.261 40.2206 46.0064 40.3616C45.7521 40.5025 45.4636 40.5719 45.1722 40.5618C44.9123 40.588 44.6497 40.5605 44.4012 40.4806C44.1527 40.4006 43.924 40.2703 43.7295 40.0978C43.3576 39.6392 43.1632 39.0647 43.1813 38.4772V34.3151C43.1796 34.243 43.1596 34.1725 43.123 34.1101C43.0865 34.0477 43.0345 33.9955 42.9721 33.9581C42.8943 33.9176 42.8075 33.8965 42.7194 33.8965C42.6315 33.8965 42.5449 33.9176 42.4671 33.9581C42.3859 34.0068 42.3184 34.0747 42.2706 34.1559C42.2227 34.2368 42.1959 34.3283 42.193 34.4223V38.5056C42.1789 39.3487 42.4795 40.167 43.0369 40.8045C43.2993 41.0385 43.6058 41.2186 43.9389 41.335Z" fill="#BAC7E1"/>
<path d="M50.4724 41.3149C50.5593 41.3753 50.6636 41.4064 50.7697 41.404L50.8275 41.397C50.9365 41.3888 51.0389 41.3428 51.1169 41.2672C51.195 41.1913 51.243 41.0906 51.253 40.9829V38.5628C52.0372 38.6912 52.8409 38.6325 53.5975 38.3914C53.927 38.2899 54.2283 38.1148 54.4785 37.8795C54.7287 37.6444 54.9208 37.3554 55.0403 37.035C55.169 36.672 55.2171 36.2856 55.181 35.9024C55.1449 35.5191 55.0255 35.1482 54.8311 34.8148C54.5512 34.4959 54.1981 34.2478 53.8016 34.0912C53.579 34.0033 53.1974 33.938 52.9055 33.8975C52.6392 33.8605 52.3695 33.8581 52.1015 33.8817C51.638 33.9224 50.8906 33.9992 50.5027 34.1008L50.3874 34.1724C50.3159 34.3191 50.2813 34.4807 50.2864 34.6436V41.0684C50.3203 41.1682 50.3854 41.2544 50.4724 41.3149ZM51.6714 37.6918C51.54 37.6704 51.4076 37.6562 51.2747 37.649C51.2674 37.1778 51.2674 36.7066 51.2674 36.2497V34.822C51.9477 34.7016 52.646 34.7259 53.3161 34.8934C53.5234 34.9557 53.7097 35.0721 53.8557 35.2303C54.0018 35.3886 54.102 35.583 54.1457 35.7927C54.2225 36.1463 54.1898 36.5144 54.052 36.8495C53.903 37.099 53.6926 37.3074 53.4405 37.4548C53.1881 37.6022 52.9021 37.6836 52.6092 37.6918C52.2984 37.7381 51.9823 37.7381 51.6714 37.6918Z" fill="#BAC7E1"/>
<path d="M57.5539 18.8954C57.8438 17.9769 58.134 17.0584 58.4052 16.1148C58.6575 16.7219 58.854 17.3953 59.0343 18.0128C59.0576 18.0936 59.0811 18.1735 59.1043 18.2522C59.1828 18.5196 59.2681 18.7805 59.3534 19.0416C59.4849 19.444 59.6168 19.8471 59.7248 20.2763H57.1211C57.2637 19.8139 57.4088 19.3546 57.5539 18.8954Z" fill="#BAC7E1"/>
<path fill-rule="evenodd" clip-rule="evenodd" d="M57.6573 28.9744C54.4657 28.9742 51.2741 28.9719 48.0825 28.9674V8.5H68.3213V28.9674C65.1297 28.9719 61.9381 28.9742 58.7465 28.9744H57.6573ZM60.6764 23.1602L60.6696 23.1385C60.6044 22.9293 60.5391 22.7206 60.474 22.513H56.4148C56.3178 22.8158 56.2243 23.1199 56.1308 23.4237L56.1185 23.4637C55.9827 23.9061 55.8469 24.3478 55.7016 24.7847H52.5482C53.1859 23.0729 53.8184 21.361 54.4508 19.6491L54.5441 19.3966C55.3731 17.1516 56.2024 14.9065 57.0427 12.6614H59.8178C61.3157 16.7096 62.8209 20.7484 64.3335 24.7777H61.1875C61.0142 24.2423 60.8448 23.6997 60.6764 23.1602Z" fill="#BAC7E1"/>
<path fill-rule="evenodd" clip-rule="evenodd" d="M24.9175 28.9674C18.1712 28.9768 11.425 28.9768 4.67871 28.9674V8.5H24.9175V28.9674ZM13.7426 19.5014C14.5924 19.7563 15.4122 20.1002 16.1887 20.5272C16.4354 20.7038 16.6085 20.9639 16.6754 21.2584C16.7424 21.5528 16.6986 21.8614 16.5524 22.1261C16.3899 22.3441 16.1728 22.5163 15.9227 22.6255C15.6725 22.7346 15.3979 22.7771 15.1261 22.7486C14.5266 22.8015 13.9287 22.6299 13.4503 22.2675C13.1105 21.8749 12.9323 21.3697 12.951 20.8526H10.0201C10.0044 21.4265 10.1255 21.9959 10.3733 22.5146C10.6211 23.0334 10.9887 23.4868 11.4463 23.8382C12.4962 24.5863 13.7625 24.9761 15.0548 24.9489C16.2769 25.0283 17.4904 24.6968 18.4992 24.0079C18.8641 23.7338 19.1588 23.3784 19.3594 22.9703C19.5601 22.5623 19.6612 22.1131 19.6545 21.6591C19.6746 21.2374 19.6093 20.816 19.4623 20.4199C19.3153 20.0237 19.0896 19.6608 18.7988 19.3528C18.0045 18.5703 17.023 18.0006 15.9463 17.6973C15.2134 17.4986 14.5106 17.2035 13.8567 16.82C13.6967 16.7227 13.5643 16.5865 13.4719 16.4243C13.3796 16.2622 13.3304 16.0794 13.329 15.8932C13.3719 15.6006 13.5139 15.3312 13.7316 15.1293C13.9493 14.9274 14.2299 14.8051 14.5271 14.7824C14.8428 14.7054 15.1727 14.7057 15.4883 14.7833C15.8039 14.861 16.0956 15.0136 16.3385 15.2281C16.4704 15.3691 16.5719 15.5353 16.6369 15.7166C16.7019 15.8978 16.729 16.0903 16.7164 16.2823H19.6545C19.6724 15.8061 19.5881 15.3316 19.4075 14.8901C19.2267 14.4486 18.9536 14.0502 18.6062 13.7212C17.6985 12.9164 16.5217 12.4752 15.3044 12.4831C14.1663 12.4172 13.0318 12.6619 12.024 13.1906C11.3156 13.5728 10.7765 14.2035 10.5121 14.9593C10.3585 15.4376 10.3262 15.9462 10.4183 16.4399C10.5104 16.9336 10.7239 17.3971 11.0399 17.7892C11.7695 18.5903 12.7031 19.1817 13.7426 19.5014Z" fill="#BAC7E1"/>
<path fill-rule="evenodd" clip-rule="evenodd" d="M35.9542 28.9744C32.7626 28.9742 29.571 28.9719 26.3794 28.9674V8.5H46.6182V28.9674C43.4265 28.9719 40.235 28.9742 37.0434 28.9744H35.9542ZM35.0737 16.6647C34.9087 16.492 34.7843 16.2849 34.7099 16.0585C34.6938 15.7615 34.7892 15.4692 34.9775 15.2379C35.1657 15.0065 35.4334 14.8526 35.7292 14.8058C36.0755 14.6973 36.4449 14.6821 36.7992 14.7617C37.1535 14.8412 37.4802 15.0128 37.7458 15.2588C37.9764 15.5519 38.1018 15.913 38.1022 16.285H41.0381C41.0408 15.7755 40.9327 15.2714 40.7211 14.8073C40.5097 14.3432 40.1998 13.9298 39.8125 13.5956C38.6858 12.7388 37.2666 12.3528 35.8575 12.5199C34.5546 12.551 33.3172 13.0929 32.4154 14.0273C31.9904 14.5521 31.7546 15.2032 31.7456 15.8766C31.7366 16.55 31.9548 17.207 32.3654 17.7429C33.1884 18.6441 34.2503 19.2966 35.4298 19.6254C36.1813 19.837 36.9006 20.1489 37.5678 20.5525C37.7963 20.7352 37.9547 20.99 38.0169 21.2746C38.0791 21.5592 38.0413 21.8563 37.9096 22.1166C37.7445 22.3319 37.5272 22.5025 37.2783 22.6125C37.0291 22.7227 36.7562 22.7687 36.4844 22.7465C35.8692 22.7914 35.2605 22.5958 34.7884 22.2015C34.4852 21.8138 34.3264 21.3336 34.3396 20.8427H31.3964C31.391 21.5617 31.5885 22.2678 31.9665 22.881C32.4051 23.5568 33.0418 24.0828 33.7907 24.3884C35.0633 24.9221 36.4646 25.0771 37.8243 24.8343C38.8157 24.7047 39.7279 24.2279 40.3968 23.4896C40.7269 23.0405 40.9396 22.5169 41.0154 21.9659C41.0915 21.4149 41.0281 20.8539 40.8316 20.3332C40.3978 19.3719 39.61 18.612 38.6295 18.21C38.1379 17.9567 37.6157 17.7815 37.0936 17.6063C36.6091 17.4438 36.1247 17.2812 35.6651 17.0564C35.441 16.9712 35.2391 16.8373 35.0737 16.6647Z" fill="#BAC7E1"/>
</g>
<defs>
<filter id="filter0_d_3532_200" x="0.678711" y="8.5" width="71.6426" height="41.0001" filterUnits="userSpaceOnUse" color-interpolation-filters="sRGB">
<feFlood flood-opacity="0" result="BackgroundImageFix"/>
<feColorMatrix in="SourceAlpha" type="matrix" values="0 0 0 0 0 0 0 0 0 0 0 0 0 0 0 0 0 0 127 0" result="hardAlpha"/>
<feOffset dy="4"/>
<feGaussianBlur stdDeviation="2"/>
<feComposite in2="hardAlpha" operator="out"/>
<feColorMatrix type="matrix" values="0 0 0 0 0 0 0 0 0 0 0 0 0 0 0 0 0 0 0.27 0"/>
<feBlend mode="normal" in2="BackgroundImageFix" result="effect1_dropShadow_3532_200"/>
<feBlend mode="normal" in="SourceGraphic" in2="effect1_dropShadow_3532_200" result="shape"/>
</filter>
</defs>
</svg>
