<svg width="148" height="50" viewBox="0 0 148 50" fill="none" xmlns="http://www.w3.org/2000/svg">
<g filter="url(#filter0_d_3532_211)">
<path d="M35.4135 12.1939C33.1149 10.4434 26.7662 7.04012 24.0142 5.36389C25.6404 8.34107 29.6042 15.1511 30.685 17.0725C32.036 19.4742 34.663 19.174 36.089 18.0482C37.515 16.9224 37.8205 14.027 35.4135 12.1939Z" fill="#BAC7E1"/>
<path d="M7.57715 11.8391H26.343C25.6925 10.6382 24.1328 7.86999 22.992 6.06869C21.7416 4.09448 18.8447 5.31907 17.4186 6.06962C16.2778 6.67006 10.4543 10.1378 7.57715 11.8391Z" fill="#BAC7E1"/>
<path d="M7.54132 13.0553H14.3586L4.96631 29.3167V17.3235C4.96631 15.3834 5.91871 13.0553 7.54132 13.0553Z" fill="#BAC7E1"/>
<path d="M7.54132 13.0553H14.3586L4.96631 29.3167V17.3235C4.96631 15.3834 5.91871 13.0553 7.54132 13.0553Z" fill="#BAC7E1"/>
<path d="M6.37683 29.2086C6.97727 28.1879 8.71044 25.2537 9.41095 23.9528L18.8688 40.341C16.0918 38.7649 9.90229 35.4681 7.92864 34.0059C5.07188 31.8894 5.62628 30.4845 6.37683 29.2086Z" fill="#BAC7E1"/>
<path d="M6.37683 29.2086C6.97727 28.1879 8.71044 25.2537 9.41095 23.9528L18.8688 40.341C16.0918 38.7649 9.90229 35.4681 7.92864 34.0059C5.07188 31.8894 5.62628 30.4845 6.37683 29.2086Z" fill="#BAC7E1"/>
<path d="M19.3567 38.9475C18.7729 37.9171 17.1703 35.0196 16.3939 33.7624L35.0892 33.833C32.3357 35.4499 26.7232 38.9283 24.5782 39.9328C21.7918 41.2377 20.4338 40.8486 19.3567 38.9475Z" fill="#BAC7E1"/>
<path d="M19.3567 38.9475C18.7729 37.9171 17.1703 35.0196 16.3939 33.7624L35.0892 33.833C32.3357 35.4499 26.7232 38.9283 24.5782 39.9328C21.7918 41.2377 20.4338 40.8486 19.3567 38.9475Z" fill="#BAC7E1"/>
<path d="M31.2106 27.8691C30.5227 28.7864 29.0942 31.3682 28.3887 32.5971L35.373 32.5971C36.9956 32.5971 37.6297 30.3419 36.6781 28.4371C35.6551 26.3894 32.3368 26.3674 31.2106 27.8691Z" fill="#BAC7E1"/>
<path d="M31.2106 27.8691C30.5227 28.7864 29.0942 31.3682 28.3887 32.5971L35.373 32.5971C36.9956 32.5971 37.6297 30.3419 36.6781 28.4371C35.6551 26.3894 32.3368 26.3674 31.2106 27.8691Z" fill="#BAC7E1"/>
<path d="M54.4236 23.0201C54.4236 17.215 59.2067 16.7244 60.2492 16.7244C63.0904 16.6631 64.4804 18.4823 64.7257 18.748C64.9709 19.0138 65.2367 19.0546 65.5433 18.748C65.8499 18.4414 66.7084 17.5829 66.9741 17.2967C67.2399 17.0106 67.4034 16.7449 67.1172 16.4587C65.9521 15.2527 63.7036 13.4335 60.2492 13.4335C56.7947 13.4335 50.7852 16.0908 50.7852 23.0201C50.7852 29.5202 56.2019 32.7703 60.2492 32.7703C64.2964 32.7703 66.4836 30.3174 67.1172 29.786C67.7509 29.2545 67.3216 28.9275 67.0968 28.7026L67.0967 28.7026C66.9127 28.5186 65.8499 27.4557 65.7068 27.3331C65.5637 27.2105 65.298 26.8834 64.8483 27.374C64.3986 27.8646 62.9269 29.4385 60.4127 29.4385C58.9205 29.4385 54.4236 28.8253 54.4236 23.0201Z" fill="#BAC7E1"/>
<path d="M68.5483 31.205V6.86021C68.5483 6.26743 68.8345 6.28787 69.2229 6.34919C69.6113 6.41051 70.715 6.6558 71.2874 6.758C71.8597 6.86021 72.0437 7.04417 72.0437 7.61651V15.2817C72.0437 15.4861 72.2481 15.4861 72.3503 15.3635C74.0673 13.6261 75.9683 13.4625 76.6633 13.4625C84.7782 13.4625 84.492 20.9552 84.492 22.579V31.5145C84.492 31.8522 84.2183 32.1248 83.8806 32.1248H81.5264C81.1887 32.1248 80.9149 31.8518 80.9149 31.5141V22.579C80.9149 21.6591 81.3442 16.7942 76.7859 16.7942C71.7166 16.7942 72.0437 21.2299 72.0437 23.9077V31.5116C72.0437 32.0839 71.6758 32.1453 71.4713 32.1453H69.0798C68.5688 32.1453 68.5483 31.7364 68.5483 31.205Z" fill="#BAC7E1"/>
<path fill-rule="evenodd" clip-rule="evenodd" d="M94.5077 13.4741C99.1273 13.4741 103.236 17.2556 103.236 23.0608V23.9807C103.236 24.2968 102.982 24.5529 102.666 24.5529H89.9698C89.9511 24.5529 89.9317 24.5528 89.912 24.5526C89.6101 24.5502 89.2186 24.5471 89.2953 25.0844C89.3823 25.6931 90.5013 29.4791 94.753 29.4791C96.0203 29.4791 98.2892 28.9681 99.5565 26.9854C99.7405 26.6788 99.9244 26.413 100.415 26.6174C100.629 26.7065 100.947 26.8422 101.276 26.9821C101.702 27.1633 102.144 27.3517 102.398 27.4555C102.766 27.606 102.97 27.8439 102.623 28.3549C102.603 28.3832 102.578 28.4218 102.548 28.4696C102.023 29.2841 99.7914 32.7496 94.7325 32.7496C89.5202 32.7496 85.5547 28.7024 85.5547 23.0608C85.5547 17.4192 89.5406 13.4741 94.5077 13.4741ZM89.643 21.6708H99.2951C99.5557 21.6708 99.7501 21.4304 99.6804 21.1793C99.193 19.4235 97.8479 16.6629 94.4464 16.6629C91.0367 16.6629 89.699 19.4369 89.2568 21.192C89.1944 21.4397 89.3877 21.6708 89.643 21.6708Z" fill="#BAC7E1"/>
<path fill-rule="evenodd" clip-rule="evenodd" d="M123.022 17.0923V15.7637C123.022 15.4775 122.838 15.2731 122.49 15.3549C122.143 15.4366 121.059 15.6819 120.61 15.7637L120.605 15.7646C120.156 15.8462 119.606 15.9462 119.097 15.6204C118.996 15.5558 118.873 15.4563 118.724 15.3349C117.934 14.6945 116.395 13.4464 113.353 13.515C109.409 13.604 104.339 17.031 104.339 23.2245C104.339 29.418 109.449 32.7089 113.619 32.7089C115.847 32.7089 117.462 31.8503 119.117 30.4808C119.24 30.3793 119.485 30.3174 119.485 30.6444V40.8033C119.485 41.069 119.506 41.3349 120.058 41.2531C120.516 41.1852 121.61 40.9619 122.143 40.8531C122.251 40.831 122.336 40.8136 122.388 40.8033C122.695 40.742 123.062 40.6399 123.062 39.8836C123.062 39.2786 123.035 24.4373 123.022 17.0923ZM113.762 29.4589C117.482 29.4589 119.526 26.6381 119.526 23.0814C119.526 19.5247 117.176 16.6835 113.68 16.6835C110.369 16.6835 107.916 19.2999 107.916 23.061C107.916 26.822 110.144 29.4589 113.762 29.4589Z" fill="#BAC7E1"/>
<path fill-rule="evenodd" clip-rule="evenodd" d="M143.03 31.7123L142.993 29.2085C143.007 21.8953 143.034 7.15237 143.034 6.54995C143.034 6.25057 142.81 6.15979 142.38 6.26199C142.037 6.34376 140.71 6.63793 140.09 6.7748C139.522 6.93653 139.538 7.3074 139.538 7.57198L139.577 15.5648C139.577 15.8904 139.333 15.8288 139.211 15.7278C137.566 14.3642 135.947 13.4998 133.733 13.4998C129.591 13.4998 124.453 16.7947 124.453 23.1068C124.453 29.2736 129.447 32.6212 133.365 32.7097C136.387 32.778 138.027 31.3815 138.68 30.9108C138.987 30.6893 139.579 30.118 139.579 30.6871C139.579 31.2563 139.587 31.5047 139.587 31.75C139.587 31.9953 139.784 32.1793 139.988 32.1793C140.192 32.1793 142.175 32.1793 142.564 32.1793C142.952 32.1793 143.03 31.9973 143.03 31.7123ZM133.733 16.7455C137.78 16.7455 139.6 19.7248 139.6 23.266C139.6 26.8073 137.331 29.48 133.733 29.48C130.524 29.48 128.01 26.8516 128.01 23.1068C128.01 19.3621 130.463 16.7455 133.733 16.7455Z" fill="#BAC7E1"/>
</g>
<defs>
<filter id="filter0_d_3532_211" x="0.966309" y="5" width="146.067" height="44.2682" filterUnits="userSpaceOnUse" color-interpolation-filters="sRGB">
<feFlood flood-opacity="0" result="BackgroundImageFix"/>
<feColorMatrix in="SourceAlpha" type="matrix" values="0 0 0 0 0 0 0 0 0 0 0 0 0 0 0 0 0 0 127 0" result="hardAlpha"/>
<feOffset dy="4"/>
<feGaussianBlur stdDeviation="2"/>
<feComposite in2="hardAlpha" operator="out"/>
<feColorMatrix type="matrix" values="0 0 0 0 0 0 0 0 0 0 0 0 0 0 0 0 0 0 0.27 0"/>
<feBlend mode="normal" in2="BackgroundImageFix" result="effect1_dropShadow_3532_211"/>
<feBlend mode="normal" in="SourceGraphic" in2="effect1_dropShadow_3532_211" result="shape"/>
</filter>
</defs>
</svg>
