<svg width="74" height="50" viewBox="0 0 74 50" fill="none" xmlns="http://www.w3.org/2000/svg">
<g clip-path="url(#clip0_3532_207)">
<g filter="url(#filter0_d_3532_207)">
<path fill-rule="evenodd" clip-rule="evenodd" d="M10.2963 30.625C8.86897 30.625 7.71191 29.4759 7.71191 28.0584V16.5625V5.06654C7.71191 3.64908 8.86897 2.5 10.2963 2.5H28.8983C32.8085 2.5 35.9783 5.648 35.9783 9.53125C35.9783 13.4145 32.8085 16.5625 28.8983 16.5625C32.8085 16.5625 35.9783 19.7105 35.9783 23.5938C35.9783 27.477 32.8085 30.625 28.8983 30.625H10.2963ZM37.9709 5.06655C37.9709 3.6491 39.128 2.50001 40.5553 2.50001L59.2116 2.5C63.1218 2.5 66.2917 5.648 66.2917 9.53125C66.2917 13.4145 63.1218 16.5625 59.2116 16.5625C63.1218 16.5625 66.2917 19.7105 66.2917 23.5938C66.2917 27.477 63.1218 30.625 59.2116 30.625C55.3014 30.625 52.1316 27.477 52.1316 23.5938C52.1316 27.477 48.9613 30.625 45.051 30.625C41.1408 30.625 37.9709 27.477 37.9709 23.5938V16.5625V5.06655Z" fill="#BAC7E1"/>
</g>
<g filter="url(#filter1_d_3532_207)">
<path d="M16.2123 42.0778C16.2123 42.5578 16.0801 42.9477 15.8158 43.2478C15.559 43.5478 15.2117 43.769 14.7736 43.9115C14.3356 44.0541 13.8523 44.1253 13.3236 44.1253H9.37012V36.1378H14.0373C14.4149 36.1378 14.7396 36.239 15.0115 36.4415C15.291 36.6365 15.5024 36.8915 15.6459 37.2065C15.7969 37.5215 15.8725 37.8478 15.8725 38.1853C15.8725 38.5528 15.7742 38.909 15.5779 39.254C15.3891 39.5991 15.1021 39.8578 14.717 40.0303C15.1777 40.1653 15.5402 40.4015 15.8045 40.739C16.0764 41.0765 16.2123 41.5228 16.2123 42.0778ZM13.9693 41.6278C13.9693 41.4928 13.9429 41.3766 13.89 41.279C13.8447 41.1741 13.7805 41.0915 13.6975 41.0315C13.6144 40.9716 13.5162 40.9415 13.4029 40.9415H11.5791V42.2803H13.3236C13.4445 42.2803 13.5539 42.2541 13.6521 42.2015C13.7504 42.149 13.8258 42.0741 13.8787 41.9765C13.9391 41.879 13.9693 41.7628 13.9693 41.6278ZM11.5791 38.0053V39.2315H13.0857C13.184 39.2315 13.2783 39.2166 13.3689 39.1865C13.4596 39.1491 13.5351 39.0853 13.5955 38.9953C13.6559 38.9053 13.6861 38.7778 13.6861 38.6128C13.6861 38.4628 13.6597 38.3465 13.6068 38.264C13.5615 38.174 13.4973 38.1102 13.4143 38.0728C13.3387 38.0278 13.2519 38.0053 13.1537 38.0053H11.5791ZM17.4746 44.1253V36.1378H21.1676C21.5603 36.1378 21.9228 36.2165 22.2551 36.374C22.5873 36.5315 22.8744 36.7453 23.116 37.0153C23.3576 37.2777 23.5427 37.5741 23.6711 37.904C23.807 38.234 23.875 38.5678 23.875 38.9053C23.875 39.2127 23.8297 39.5091 23.7391 39.794C23.6484 40.079 23.5162 40.3416 23.3426 40.5815C23.1689 40.8141 22.9612 41.0166 22.7195 41.189L24.4187 44.1253H21.9945L20.5785 41.6728H19.6836V44.1253H17.4746ZM19.6836 39.7603H21.0769C21.1676 39.7603 21.2545 39.7265 21.3375 39.659C21.4205 39.5915 21.4885 39.494 21.5414 39.3665C21.6018 39.2391 21.632 39.0853 21.632 38.9053C21.632 38.7177 21.598 38.5641 21.5301 38.444C21.4697 38.3166 21.3904 38.219 21.2922 38.1515C21.2016 38.084 21.1109 38.0503 21.0203 38.0503H19.6836V39.7603ZM25.402 44.1253V36.1378H27.611V44.1253H25.402ZM29.2807 44.1253V36.1378H31.4896V42.2128H35.1373V44.1253H29.2807ZM36.1904 44.1253V36.1378H38.3993V42.2128H42.047V44.1253H36.1904ZM43.1001 44.1253V36.1378H45.309V44.1253H43.1001ZM50.6036 44.1928C49.9919 44.1928 49.4368 44.0803 48.9384 43.8553C48.4399 43.6227 48.0094 43.3153 47.6469 42.9328C47.292 42.5427 47.0164 42.1078 46.82 41.6278C46.6313 41.1403 46.5368 40.6378 46.5368 40.1203C46.5368 39.5878 46.6387 39.0816 46.8427 38.6015C47.0466 38.1215 47.3298 37.694 47.6923 37.319C48.0624 36.9365 48.4966 36.6365 48.995 36.419C49.501 36.2016 50.0524 36.0928 50.6489 36.0928C51.2606 36.0928 51.8157 36.209 52.3141 36.4415C52.8126 36.6665 53.2393 36.974 53.5942 37.364C53.9492 37.7541 54.2211 38.1928 54.4098 38.6803C54.6063 39.1603 54.7044 39.6553 54.7044 40.1653C54.7044 40.6903 54.6024 41.1927 54.3985 41.6728C54.2022 42.1528 53.919 42.584 53.5489 42.9665C53.1864 43.3415 52.7559 43.6415 52.2575 43.8665C51.7591 44.084 51.2078 44.1928 50.6036 44.1928ZM48.7798 40.1428C48.7798 40.4128 48.8176 40.6752 48.893 40.9303C48.9686 41.1778 49.0819 41.4028 49.2329 41.6053C49.384 41.8002 49.5727 41.9577 49.7993 42.0778C50.0334 42.1903 50.3091 42.2465 50.6262 42.2465C50.9434 42.2465 51.2192 42.1866 51.4532 42.0665C51.6874 41.9465 51.8762 41.7853 52.0196 41.5828C52.1707 41.3727 52.2802 41.144 52.3481 40.8965C52.4237 40.6415 52.4614 40.3827 52.4614 40.1203C52.4614 39.8503 52.4237 39.5915 52.3481 39.344C52.2727 39.0965 52.1594 38.8752 52.0083 38.6803C51.8573 38.4778 51.6647 38.3203 51.4305 38.2078C51.1965 38.0953 50.9246 38.039 50.6149 38.039C50.2977 38.039 50.0221 38.099 49.788 38.219C49.5614 38.3391 49.3727 38.5003 49.2216 38.7028C49.0706 38.8977 48.9573 39.1227 48.8817 39.3778C48.8137 39.6253 48.7798 39.8803 48.7798 40.1428ZM58.1328 40.199V44.1253H55.9238V36.1378H57.6457L60.8742 40.199V36.1378H63.0832V44.1253H61.3274L58.1328 40.199Z" fill="#BAC7E1"/>
</g>
</g>
<defs>
<filter id="filter0_d_3532_207" x="3.71191" y="2.5" width="66.5796" height="36.125" filterUnits="userSpaceOnUse" color-interpolation-filters="sRGB">
<feFlood flood-opacity="0" result="BackgroundImageFix"/>
<feColorMatrix in="SourceAlpha" type="matrix" values="0 0 0 0 0 0 0 0 0 0 0 0 0 0 0 0 0 0 127 0" result="hardAlpha"/>
<feOffset dy="4"/>
<feGaussianBlur stdDeviation="2"/>
<feComposite in2="hardAlpha" operator="out"/>
<feColorMatrix type="matrix" values="0 0 0 0 0 0 0 0 0 0 0 0 0 0 0 0 0 0 0.27 0"/>
<feBlend mode="normal" in2="BackgroundImageFix" result="effect1_dropShadow_3532_207"/>
<feBlend mode="normal" in="SourceGraphic" in2="effect1_dropShadow_3532_207" result="shape"/>
</filter>
<filter id="filter1_d_3532_207" x="5.37012" y="36.0928" width="61.7129" height="16.1" filterUnits="userSpaceOnUse" color-interpolation-filters="sRGB">
<feFlood flood-opacity="0" result="BackgroundImageFix"/>
<feColorMatrix in="SourceAlpha" type="matrix" values="0 0 0 0 0 0 0 0 0 0 0 0 0 0 0 0 0 0 127 0" result="hardAlpha"/>
<feOffset dy="4"/>
<feGaussianBlur stdDeviation="2"/>
<feComposite in2="hardAlpha" operator="out"/>
<feColorMatrix type="matrix" values="0 0 0 0 0 0 0 0 0 0 0 0 0 0 0 0 0 0 0.27 0"/>
<feBlend mode="normal" in2="BackgroundImageFix" result="effect1_dropShadow_3532_207"/>
<feBlend mode="normal" in="SourceGraphic" in2="effect1_dropShadow_3532_207" result="shape"/>
</filter>
<clipPath id="clip0_3532_207">
<rect width="72.5" height="45" fill="white" transform="translate(0.75 2.5)"/>
</clipPath>
</defs>
</svg>
