<svg width="175" height="50" viewBox="0 0 175 50" fill="none" xmlns="http://www.w3.org/2000/svg">
<g clip-path="url(#clip0_3532_208)">
<g filter="url(#filter0_d_3532_208)">
<path d="M56.6747 34.2561C55.2082 34.2933 53.7479 34.0521 52.3712 33.5453C51.2713 33.1363 50.3264 32.3942 49.6683 31.4226C49.0208 30.3728 48.6994 29.1544 48.7447 27.9218V27.7719H52.497V28.2555C52.4738 28.7272 52.5917 29.1951 52.8354 29.5997C53.1426 29.9923 53.583 30.2589 54.0733 30.3492C54.9269 30.5381 55.8009 30.6193 56.6747 30.5909C57.4458 30.6101 58.2169 30.5518 58.9763 30.4169C59.3955 30.3629 59.7841 30.1686 60.0788 29.8656C60.2882 29.588 60.3942 29.246 60.3786 28.8986C60.3991 28.6705 60.3631 28.4408 60.2737 28.2299C60.1843 28.0191 60.0443 27.8335 59.866 27.6897C59.3187 27.3623 58.7096 27.1516 58.0769 27.0708L53.3722 26.3213C52.4728 26.1782 51.6055 25.8788 50.8094 25.4365C50.1218 25.0464 49.5535 24.4763 49.1654 23.7876C48.763 23.0137 48.5649 22.1499 48.59 21.2781C48.5932 20.5866 48.7346 19.9027 49.0058 19.2666C49.3005 18.5768 49.7506 17.9645 50.3211 17.4775C51.022 16.9009 51.8331 16.4731 52.7049 16.2203C53.8678 15.8707 55.0787 15.7075 56.2927 15.7368C57.7489 15.6859 59.1985 15.9566 60.5381 16.5298C61.5782 16.994 62.4471 17.7717 63.0235 18.754C63.5802 19.769 63.8572 20.9138 63.8262 22.0711V22.2306H60.0546V21.8535C60.0741 21.3668 59.9569 20.8843 59.7161 20.4609C59.4157 20.0526 58.9747 19.7701 58.4783 19.6679C57.6339 19.4715 56.7676 19.3854 55.901 19.4116C55.1902 19.3932 54.4796 19.4564 53.7832 19.6002C53.3749 19.6758 52.9991 19.873 52.7049 20.1659C52.4806 20.4369 52.3651 20.7816 52.3809 21.133C52.3705 21.4261 52.439 21.7167 52.5792 21.9744C52.7224 22.2092 52.9354 22.3935 53.1884 22.5014C53.5505 22.6506 53.9285 22.7577 54.315 22.8205L59.0198 23.628C60.0759 23.7721 61.0922 24.1273 62.0081 24.6725C62.6984 25.099 63.2573 25.7082 63.6231 26.4325C63.9554 27.1416 64.1208 27.9174 64.1066 28.7003C64.1185 29.7204 63.8245 30.7207 63.2626 31.5722C62.7007 32.4237 61.8966 33.0874 60.954 33.4776C59.6005 34.0432 58.1406 34.3087 56.6747 34.2561Z" fill="#BAC7E1"/>
<path d="M73.0511 34.2544C71.7837 34.2797 70.5266 34.022 69.3714 33.5001C68.3188 33.0169 67.4493 32.2083 66.8909 31.1937C66.2692 29.9844 65.9678 28.6359 66.0157 27.277C65.9837 25.983 66.2851 24.7026 66.8909 23.5587C67.449 22.5382 68.2881 21.6992 69.3085 21.141C70.4288 20.5479 71.6823 20.2516 72.9495 20.2803C74.1944 20.241 75.4316 20.4875 76.5664 21.0008C77.5675 21.4815 78.4001 22.2534 78.955 23.2153C79.5548 24.3135 79.8488 25.5526 79.8061 26.8032C79.8061 27.0353 79.806 27.248 79.7819 27.4463C79.7577 27.6445 79.7384 27.8573 79.7045 28.0894H68.443V25.9618H77.0547L76.2037 27.2867V26.281C76.2037 25.2607 75.9426 24.5306 75.4252 24.0809C74.9079 23.6312 74.0665 23.4184 72.8963 23.4184C71.6295 23.4184 70.7462 23.6828 70.2466 24.2114C69.7631 24.7385 69.4971 25.575 69.4971 26.721V27.7412C69.4971 28.8872 69.7437 29.7237 70.2466 30.2508C70.7495 30.7778 71.6392 31.0438 72.9254 31.0438C74.023 31.0438 74.8015 30.889 75.2512 30.5602C75.4688 30.419 75.6457 30.2233 75.7645 29.9926C75.8832 29.7619 75.9396 29.5042 75.9281 29.245V28.9791H79.6803V29.274C79.6929 30.2003 79.4026 31.1052 78.8535 31.8513C78.2565 32.6371 77.4554 33.2442 76.5374 33.6065C75.4306 34.0545 74.2449 34.2748 73.0511 34.2544Z" fill="#BAC7E1"/>
<path d="M85.6756 33.9842H81.9233V16.0016H85.6756V33.9842Z" fill="#BAC7E1"/>
<path d="M96.7392 23.8719H87.3296V20.521H96.7392V23.8719ZM92.8709 33.9875H89.1187V21.4543C89.0947 20.4612 89.3493 19.4814 89.8536 18.6256C90.378 17.7744 91.1463 17.1005 92.0585 16.6915C93.1875 16.1939 94.4132 15.9544 95.6464 15.9903H96.7488V18.9157H95.0468C94.0797 18.9157 93.4124 19.0753 93.045 19.3992C92.6775 19.7232 92.6195 20.3663 92.8709 21.3721V33.9875Z" fill="#BAC7E1"/>
<path d="M113.107 34.2533C111.445 34.2958 109.801 33.9024 108.339 33.1121C107.01 32.3678 105.93 31.2475 105.235 29.8918C104.479 28.3718 104.106 26.6905 104.147 24.9936C104.105 23.2966 104.479 21.6152 105.235 20.0954C105.93 18.7397 107.01 17.6195 108.339 16.8751C109.801 16.0848 111.445 15.6914 113.107 15.7339C114.666 15.6957 116.216 15.9977 117.647 16.6188C118.859 17.1544 119.889 18.0315 120.611 19.1428C121.337 20.3282 121.701 21.6993 121.66 23.0885V23.4898H117.497V23.0885C117.497 21.9087 117.159 21.0286 116.486 20.4581C115.814 19.8875 114.712 19.5974 113.194 19.5974C112.184 19.5559 111.178 19.734 110.244 20.1196C109.511 20.4594 108.934 21.064 108.629 21.812C108.261 22.8305 108.096 23.9116 108.146 24.9936C108.099 26.0707 108.263 27.1466 108.629 28.1608C108.93 28.9139 109.508 29.5231 110.244 29.8628C111.175 30.247 112.178 30.4251 113.184 30.385C114.702 30.385 115.8 30.0997 116.477 29.5292C116.832 29.1945 117.108 28.7846 117.285 28.3295C117.461 27.8744 117.534 27.3855 117.497 26.8987V26.4974H121.675V26.8987C121.712 28.2829 121.347 29.6483 120.626 30.8299C119.906 31.9466 118.876 32.8289 117.661 33.3684C116.226 33.9916 114.671 34.2936 113.107 34.2533Z" fill="#BAC7E1"/>
<path d="M127.425 33.9842H123.673V16.0016H127.425V33.9842ZM137.734 33.9842H133.982V26.9536C133.982 25.8254 133.735 25.034 133.242 24.5795C132.758 24.1201 131.912 23.8929 130.728 23.8929C130.048 23.8623 129.371 23.9914 128.75 24.27C128.285 24.5041 127.92 24.8994 127.725 25.3821C127.508 25.9798 127.406 26.6131 127.425 27.2486H126.874L126.927 24.6472H127.652C127.78 23.8911 128.042 23.1639 128.426 22.5003C128.818 21.8264 129.384 21.2703 130.065 20.8901C130.883 20.4519 131.802 20.2383 132.729 20.2712C133.715 20.2358 134.689 20.4878 135.534 20.9965C136.263 21.4673 136.838 22.1414 137.188 22.9355C137.563 23.8171 137.749 24.7675 137.734 25.7255V33.9842Z" fill="#BAC7E1"/>
<path d="M144.092 34.2559C142.952 34.3212 141.825 33.9783 140.915 33.2888C140.331 32.7444 139.946 32.0211 139.819 31.233C139.692 30.445 139.831 29.6372 140.214 28.937C140.538 28.4309 140.999 28.0269 141.544 27.7717C142.256 27.446 143.017 27.2417 143.797 27.1673L149.411 26.5242V28.8306L144.803 29.3963C144.462 29.4065 144.129 29.503 143.836 29.6768C143.729 29.7607 143.645 29.8693 143.59 29.9932C143.536 30.1171 143.512 30.2525 143.521 30.3876C143.51 30.5417 143.542 30.6959 143.613 30.8332C143.684 30.9705 143.791 31.0857 143.923 31.1661C144.304 31.3531 144.727 31.4365 145.151 31.4078C145.901 31.4276 146.651 31.338 147.375 31.1419C147.904 31.0006 148.373 30.6939 148.714 30.2667C149.053 29.7961 149.223 29.2257 149.198 28.6469L149.546 28.6179V30.9001H149.198C148.939 31.8994 148.327 32.7716 147.477 33.3565C146.468 33.9977 145.286 34.3118 144.092 34.2559ZM152.902 33.9851H149.396V30.7938L149.198 30.7406V26.0406C149.198 25.1654 148.995 24.59 148.584 24.2709C148.173 23.9518 147.472 23.8164 146.471 23.8164C145.756 23.7578 145.04 23.9162 144.416 24.2709C144.19 24.4694 144.016 24.7194 143.907 24.9997C143.799 25.28 143.759 25.5823 143.792 25.8811V25.9874H140.016V25.9101C139.994 24.8705 140.28 23.8477 140.838 22.9702C141.41 22.1082 142.215 21.4259 143.159 21.0022C144.281 20.5052 145.5 20.2625 146.727 20.2914C147.923 20.2465 149.112 20.4956 150.189 21.0167C151.062 21.4623 151.772 22.1711 152.22 23.0427C152.681 23.9993 152.908 25.0516 152.883 26.1131L152.902 33.9851Z" fill="#BAC7E1"/>
<path d="M158.646 19.1687H154.889V16.0016H158.646V19.1687ZM158.646 33.9842H154.889V20.5178H158.646V33.9842Z" fill="#BAC7E1"/>
<path d="M164.4 33.9887H160.648V20.5223H164.125V24.729L164.4 24.8741V33.9887ZM174.511 33.9887H170.759V26.9581C170.759 25.8653 170.522 25.082 170.058 24.6081C169.593 24.1343 168.781 23.8973 167.64 23.8973C166.499 23.8973 165.599 24.1633 165.125 24.6903C164.652 25.2174 164.4 26.0539 164.4 27.1999H163.917L163.641 24.6758H164.342C164.459 23.9252 164.713 23.2024 165.092 22.5435C165.483 21.8617 166.049 21.296 166.731 20.9043C167.564 20.4545 168.502 20.2374 169.448 20.2757C170.445 20.2418 171.43 20.4952 172.287 21.0058C173.027 21.4677 173.612 22.1416 173.964 22.94C174.342 23.792 174.53 24.7159 174.516 25.6477L174.511 33.9887Z" fill="#BAC7E1"/>
<path d="M22.2033 43.4968H15.7239C13.4454 43.4916 11.2619 42.5832 9.65212 40.9707C8.04233 39.3582 7.13763 37.1732 7.13635 34.8947H10.8402C10.8389 36.1917 11.3526 37.4361 12.2683 38.3545C13.1841 39.273 14.427 39.7903 15.7239 39.7929H22.2033C23.2034 39.7853 24.1772 39.4718 24.9939 38.8944C25.8105 38.317 26.4308 37.5035 26.7715 36.5632C27.1121 35.6228 27.1568 34.6007 26.8994 33.6343C26.642 32.6678 26.0949 31.8033 25.3317 31.157L10.5356 21.9698C10.4727 21.9312 10.4147 21.8876 10.3567 21.8441C8.95396 20.734 7.93221 19.2142 7.43364 17.4963C6.93506 15.7783 6.98447 13.9477 7.57499 12.2591C8.16551 10.5706 9.26775 9.10811 10.7283 8.0753C12.1889 7.04249 13.9351 6.49071 15.7239 6.49675H22.2033C24.4813 6.50059 26.6648 7.40791 28.2748 9.01965C29.8847 10.6314 30.7895 12.8159 30.7908 15.094H27.0773C27.0773 13.7995 26.5644 12.5578 25.6509 11.6407C24.7374 10.7235 23.4977 10.2057 22.2033 10.2006H15.7239C14.7191 10.202 13.7392 10.5127 12.9171 11.0904C12.095 11.6681 11.4707 12.4849 11.129 13.4298C10.7873 14.3746 10.7447 15.4018 11.0071 16.3717C11.2694 17.3416 11.824 18.2073 12.5954 18.851L27.3867 28.0382L27.5705 28.1639C28.9597 29.2777 29.9691 30.7951 30.4594 32.5068C30.9496 34.2186 30.8966 36.0403 30.3077 37.7206C29.7187 39.4009 28.6229 40.8571 27.1713 41.8882C25.7196 42.9194 23.9838 43.4746 22.2033 43.4774V43.4968Z" fill="#BAC7E1"/>
<path d="M28.8513 36.8337V33.1298C30.1446 33.1273 31.3843 32.6134 32.3001 31.7003C33.2159 30.7872 33.7335 29.549 33.7399 28.2558V21.7523C33.7426 20.7468 33.4349 19.765 32.8588 18.9409C32.2827 18.1168 31.4663 17.4906 30.521 17.1479C29.5758 16.8051 28.5478 16.7625 27.5774 17.0257C26.607 17.289 25.7415 17.8454 25.0991 18.619L15.9071 33.4296C15.8685 33.4925 15.8249 33.5505 15.7814 33.6085C14.6697 34.9967 13.1545 36.0057 11.445 36.4963C9.73554 36.9869 7.91593 36.9349 6.23721 36.3476C4.55849 35.7602 3.10339 34.6665 2.07263 33.2171C1.04188 31.7678 0.486257 30.0343 0.482422 28.2558L0.482422 21.7523C0.484979 19.4738 1.39091 17.2892 3.00161 15.6776C4.6123 14.066 6.79631 13.1589 9.07482 13.155V16.8589C7.77785 16.8602 6.53445 17.3763 5.61781 18.2938C4.70117 19.2114 4.18629 20.4553 4.18629 21.7523V28.2558C4.18377 29.2605 4.49121 30.2416 5.0667 31.0652C5.64218 31.8888 6.45769 32.5149 7.40203 32.8581C8.34637 33.2012 9.37356 33.2448 10.3435 32.9827C11.3135 32.7207 12.1791 32.1659 12.8222 31.3939L22.0093 16.5833C22.0468 16.5207 22.0888 16.4609 22.1351 16.4044C23.2462 15.0124 24.7627 14.0004 26.4745 13.5084C28.1863 13.0164 30.0087 13.0689 31.6893 13.6585C33.37 14.2481 34.8258 15.3457 35.855 16.7993C36.8843 18.2529 37.4361 19.9905 37.4341 21.7716V28.2558C37.4277 30.5297 36.5212 32.7085 34.9129 34.3159C33.3046 35.9233 31.1252 36.8286 28.8513 36.8337Z" fill="#BAC7E1"/>
</g>
</g>
<defs>
<filter id="filter0_d_3532_208" x="-3.51758" y="6.4967" width="182.034" height="45" filterUnits="userSpaceOnUse" color-interpolation-filters="sRGB">
<feFlood flood-opacity="0" result="BackgroundImageFix"/>
<feColorMatrix in="SourceAlpha" type="matrix" values="0 0 0 0 0 0 0 0 0 0 0 0 0 0 0 0 0 0 127 0" result="hardAlpha"/>
<feOffset dy="4"/>
<feGaussianBlur stdDeviation="2"/>
<feComposite in2="hardAlpha" operator="out"/>
<feColorMatrix type="matrix" values="0 0 0 0 0 0 0 0 0 0 0 0 0 0 0 0 0 0 0.27 0"/>
<feBlend mode="normal" in2="BackgroundImageFix" result="effect1_dropShadow_3532_208"/>
<feBlend mode="normal" in="SourceGraphic" in2="effect1_dropShadow_3532_208" result="shape"/>
</filter>
<clipPath id="clip0_3532_208">
<rect width="174.033" height="37" fill="white" transform="translate(0.483398 6.5)"/>
</clipPath>
</defs>
</svg>
