<svg width="106" height="53" viewBox="0 0 106 53" fill="none" xmlns="http://www.w3.org/2000/svg">
<g filter="url(#filter0_d_3532_203)">
<g clip-path="url(#clip0_3532_203)">
<path d="M17.5324 5.22252H24.1408V21.7325H17.5324V5.22252ZM17.5324 28.3568H24.1408V44.8925H17.5324V28.3568ZM4.28929 5.22252H10.8984V44.8668H4.28857L4.28929 5.22252Z" fill="#BAC7E1"/>
<path d="M50.6264 25.082V5.26054H44.0187V25.082C44.0187 26.9163 42.5378 28.3941 40.7017 28.3941C38.8634 28.3941 37.3847 26.9155 37.3847 25.082V5.26054H30.7749V25.082C30.7749 30.5605 35.2147 34.9927 40.701 34.9927C46.1866 34.9927 50.6264 30.5598 50.6264 25.082Z" fill="#BAC7E1"/>
<path d="M65.6565 12.1035C64.7377 12.1035 64.0229 11.5178 64.0229 10.4728V5.35206H65.1215V10.4735C65.1215 10.8549 65.3248 11.0592 65.6308 11.0592C65.9375 11.0592 66.2179 10.8549 66.2179 10.4735V5.35206H67.3143V10.4735C67.34 11.5935 66.5753 12.1035 65.6565 12.1035ZM71.1171 12.0521L69.5606 7.89921V12.0521H68.5141V5.37706H69.4843L71.0408 9.58064V5.37706H72.0865V12.0521M73.2607 12.0521V5.37706H74.3578V12.0521M77.8788 11.8485L77.7504 12.0521H76.5263L76.3979 11.8485C75.9393 11.0078 75.4806 10.0392 75.4806 8.53635V5.30064H76.5777V8.35778C76.5777 9.40278 76.7817 10.2935 77.0877 10.9563C77.4194 10.2435 77.6748 9.40278 77.6748 8.35778V5.30064H78.7719V8.53635C78.7719 10.0392 78.3382 11.0078 77.8788 11.8485ZM79.8947 12.0521V5.37706H82.8287V6.42135H80.9405V8.18064H82.497V9.22349H80.9405V11.1092H82.8287V12.1542H79.8947M86.1207 12.0521V9.98778C86.1207 9.53063 85.9923 9.27492 85.5336 9.27492H85.0236V12.0521H83.9265V5.37706H85.61C86.6564 5.37706 87.2435 6.01421 87.2435 7.05849V7.51564C87.2435 8.10278 87.0388 8.48492 86.7328 8.68849C87.1158 8.89206 87.2435 9.27421 87.2435 9.85992V12.0021H86.1464V12.0521H86.1207ZM86.1207 7.10921C86.1207 6.65064 85.9923 6.39635 85.5336 6.39635H85.0236V8.20492H85.5336C85.993 8.20492 86.1207 7.95064 86.1207 7.41564V7.10921ZM89.8201 12.1035C88.902 12.1035 88.1865 11.4663 88.1865 10.5492V10.0906H89.2851V10.4728C89.2851 10.8542 89.5398 11.0585 89.8715 11.0585C90.2032 11.0585 90.3815 10.8542 90.3815 10.4728V10.2163C90.3815 9.88492 90.3052 9.70706 90.0498 9.50206L88.7487 8.40778C88.5446 8.20349 88.1616 7.77064 88.1616 7.18492V6.85349C88.1616 5.93635 88.8007 5.22278 89.7951 5.22278C90.7653 5.22278 91.4287 5.86064 91.4287 6.85421V7.31278H90.3316V6.85421C90.3316 6.52278 90.1275 6.26849 89.8208 6.26849C89.5141 6.26849 89.2344 6.47206 89.2344 6.85421V7.05778C89.2344 7.38849 89.3628 7.51492 89.5661 7.69349L90.8666 8.78992C91.2496 9.12064 91.4536 9.50278 91.4536 10.0128V10.5221C91.4536 11.4649 90.7389 12.1021 89.8201 12.1021V12.1035ZM92.4994 12.0521V5.37706H93.5965V12.0521M96.5825 6.31992V12.0271H95.484V6.31992H94.2599V5.35206H97.8323V6.31992M100.666 9.58064L100.537 9.78492V12.0521H99.4402V9.78492L99.3118 9.58064C98.8531 8.73992 98.343 7.89921 98.343 6.39635V5.30064H99.4402V6.26849C99.4402 7.31349 99.6955 8.07778 100.027 8.73992C100.359 8.10421 100.537 7.38992 100.537 6.26849V5.30064H101.634V6.39635C101.66 7.89921 101.201 8.73921 100.664 9.58064H100.666Z" fill="#BAC7E1"/>
<path d="M65.6565 23.066C64.7377 23.066 64.0229 22.4803 64.0229 21.4346V17.8682C64.0229 16.7725 64.7377 16.1867 65.6565 16.1867C66.5753 16.1867 67.29 16.7725 67.29 17.8153V21.3832C67.29 22.4789 66.5753 23.0646 65.6565 23.0646V23.066ZM66.1915 17.816C66.1915 17.4346 65.9882 17.2303 65.6822 17.2303C65.3754 17.2303 65.1714 17.4346 65.1714 17.816V21.3839C65.1714 21.766 65.3761 21.9696 65.6822 21.9696C65.9889 21.9696 66.1922 21.766 66.1922 21.3839L66.1915 17.816ZM69.5606 17.3075V19.0646H71.1171V20.1103H69.5606V23.0403H68.4635V16.3646H71.3974V17.4096H69.5856V17.3082M76.6283 23.0146V20.0846H75.5312V23.0146H74.4341V17.8932C74.4341 16.7982 75.1489 16.2117 76.0677 16.2117C76.9857 16.2117 77.7012 16.7975 77.7012 17.8425V22.9639H76.654V23.0139H76.6276L76.6283 23.0146ZM76.6283 17.8167C76.6283 17.4353 76.4243 17.231 76.042 17.231C75.711 17.231 75.5319 17.4353 75.5319 17.8167V19.041H76.6291V17.816L76.6283 17.8167ZM80.6088 20.161H80.0224V22.9382H78.926V16.2639H80.6095C81.6559 16.2639 82.243 16.8996 82.243 17.9453V18.4039C82.2173 19.5753 81.6288 20.161 80.6088 20.161ZM81.1195 18.021C81.1195 17.5625 80.9911 17.3067 80.5317 17.3067H80.0217V19.1167H80.5324C80.9918 19.1167 81.1195 18.8625 81.1195 18.3275V18.0217V18.021ZM84.7682 20.161H84.1812V22.9382H83.0848V16.2639H84.7682C85.8154 16.2639 86.4018 16.8996 86.4018 17.9453V18.4039C86.3761 19.5753 85.7897 20.161 84.7682 20.161ZM85.2783 18.021C85.2783 17.5625 85.1499 17.3067 84.6912 17.3067H84.1804V19.1167H84.6919C85.1506 19.1167 85.2783 18.8625 85.2783 18.3275V18.0217V18.021ZM87.2178 23.0146V16.3396H88.315V22.0467H90.2032V23.091H87.2178M91.0713 23.0146V16.3396H92.1677V23.0146M93.3418 23.0146V16.3396H96.2508V17.3839H94.3633V19.141H95.9199V20.1867H94.3633V22.071H96.2516V23.116H93.3176V23.0146M99.0571 23.0146H97.3736V16.3396H99.0571C100.104 16.3396 100.691 16.9753 100.691 18.021V21.3332C100.614 22.3517 100.077 23.0146 99.0571 23.0146ZM99.5679 18.0217C99.5679 17.5625 99.4409 17.3075 98.9815 17.3075H98.4715V21.9696H98.9815C99.4409 21.9696 99.5686 21.7153 99.5686 21.1803V18.021L99.5679 18.0217Z" fill="#BAC7E1"/>
<path d="M65.4773 33.9673C64.5585 33.9673 63.8438 33.3315 63.8438 32.4137V31.9551H64.9409V32.3373C64.9409 32.7194 65.1963 32.923 65.528 32.923C65.8597 32.923 66.0387 32.7194 66.0387 32.3373V32.133C66.0387 31.8023 65.9603 31.6237 65.7063 31.4201L64.4045 30.3237C64.1997 30.1194 63.8174 29.6865 63.8174 29.1008V28.7694C63.8174 27.8515 64.4551 27.138 65.4509 27.138C66.4453 27.138 67.083 27.7751 67.083 28.7687V29.2258H65.9859V28.7687C65.9859 28.4365 65.7819 28.183 65.4759 28.183C65.1692 28.183 64.8888 28.3858 64.8888 28.7687V28.9715C64.8888 29.303 65.0158 29.4301 65.2198 29.6087L66.5209 30.7044C66.904 31.0358 67.108 31.4187 67.108 31.9273V32.4365C67.083 33.3294 66.369 33.9651 65.4759 33.9651L65.4773 33.9673ZM69.7631 33.9673C68.845 33.9673 68.1309 33.3815 68.1309 32.3373V28.7708C68.1309 27.6744 68.8443 27.0887 69.7645 27.0887C70.6825 27.0887 71.3966 27.6744 71.3966 28.7194V29.4323H70.2995V28.7194C70.2995 28.3373 70.0955 28.1337 69.7894 28.1337C69.4827 28.1337 69.2787 28.3373 69.2787 28.7194V32.2851C69.2787 32.668 69.4841 32.8723 69.7902 32.8723C70.0969 32.8723 70.3002 32.668 70.3002 32.2865V31.4451H71.3973V32.2351C71.3723 33.458 70.6569 33.9673 69.7631 33.9673ZM72.5451 33.8908V27.2158H73.6422V33.8908M74.8163 33.8908V27.2158H77.7503V28.2608H75.8621V30.018H77.4186V31.063H75.8621V32.9487H77.7503V33.9915H74.8163M81.4504 33.8908L79.8939 29.738V33.8908H78.8474V27.2158H79.8175L81.3741 31.4201V27.2151H82.4198V33.8901M85.2011 33.9673C84.2823 33.9673 83.5676 33.3815 83.5676 32.3373V28.7708C83.5676 27.6744 84.2823 27.0887 85.2011 27.0887C86.1199 27.0887 86.8347 27.6744 86.8347 28.7194V29.4323H85.7361V28.7194C85.7361 28.3373 85.5328 28.1337 85.2268 28.1337C84.9201 28.1337 84.716 28.3373 84.716 28.7194V32.2851C84.716 32.668 84.9208 32.8723 85.2268 32.8723C85.5335 32.8723 85.7368 32.668 85.7368 32.2865V31.4451H86.8339V32.2351C86.8339 33.458 86.1199 33.9673 85.2011 33.9673ZM88.0081 33.8908V27.2158H90.9421V28.2608H89.0538V30.018H90.6103V31.063H89.0538V32.9487H90.9421V33.9915H88.0081M93.4687 33.9673C92.5499 33.9673 91.8351 33.3315 91.8351 32.4137V31.9551H92.9323V32.3373C92.9323 32.7194 93.1876 32.923 93.5193 32.923C93.851 32.923 94.0301 32.7194 94.0301 32.3373V32.133C94.0301 31.8023 93.9516 31.6237 93.6977 31.4201L92.3958 30.3237C92.1911 30.1194 91.8088 29.6865 91.8088 29.1008V28.7694C91.8088 27.8515 92.4465 27.138 93.4423 27.138C94.411 27.138 95.0744 27.7751 95.0744 28.7687V29.2258H93.9773V28.7687C93.9773 28.4365 93.7733 28.183 93.4673 28.183C93.1605 28.183 92.8802 28.3858 92.8802 28.7687V28.9715C92.8802 29.303 93.0072 29.4301 93.2112 29.6087L94.5123 30.7044C94.8954 31.0358 95.0994 31.4187 95.0994 31.9273V32.4365C95.0744 33.3294 94.3604 33.9651 93.4673 33.9651L93.4687 33.9673Z" fill="#BAC7E1"/>
<path d="M65.6565 44.919C64.7377 44.919 64.0229 44.3333 64.0229 43.2883V38.1669H65.1215V43.2883C65.1215 43.6705 65.3248 43.874 65.6308 43.874C65.9375 43.874 66.2179 43.6705 66.2179 43.2883V38.1669H67.3143V43.2883C67.34 44.3333 66.5753 44.919 65.6565 44.919ZM70.4023 39.1612V44.8683H69.3052V39.1612H68.0804V38.1926H71.6528V39.1612M74.4862 44.8683V42.804C74.4862 42.3455 74.3578 42.0912 73.8984 42.0912H73.3876V44.8683H72.2905V38.1926H73.974C75.0212 38.1926 75.6076 38.8297 75.6076 39.8747V40.334C75.6076 40.9197 75.4035 41.3019 75.0975 41.5055C75.4806 41.7097 75.6076 42.0912 75.6076 42.6769V44.8176H74.5104V44.869H74.4855L74.4862 44.8683ZM74.4862 39.9255C74.4862 39.4669 74.3578 39.2112 73.8984 39.2112H73.3876V41.0212H73.8984C74.3578 41.0212 74.4855 40.7662 74.4855 40.2312L74.4862 39.9255ZM76.7047 44.8683V38.1926H79.6393V39.2376H77.7511V40.9947H79.3076V42.039H77.7504V43.9247H79.6386V44.969H76.7047M82.3443 44.919C81.4255 44.919 80.7108 44.3333 80.7108 43.2883V39.7219C80.7108 38.6262 81.4255 38.0397 82.3443 38.0397C83.2624 38.0397 83.9779 38.6255 83.9779 39.6705V40.3847H82.8793V39.6705C82.8793 39.2883 82.676 39.0847 82.37 39.0847C82.0633 39.0847 81.8592 39.2883 81.8592 39.6705V43.2376C81.8592 43.619 82.0633 43.8233 82.37 43.8233C82.6767 43.8233 82.88 43.619 82.88 43.2376V42.3955H83.9771V43.1855C84.0535 44.3319 83.2624 44.9176 82.3436 44.9176L82.3443 44.919ZM87.3455 44.8683V41.9383H86.2484V44.8683H85.1499V38.1926H86.2484V40.9697H87.3448V38.1926H88.4419V44.8683M91.5043 39.1612V44.8683H90.4072V39.1612H89.1817V38.1926H92.7541V39.1612" fill="#BAC7E1"/>
</g>
</g>
<defs>
<filter id="filter0_d_3532_203" x="0.13623" y="0" width="105.727" height="58" filterUnits="userSpaceOnUse" color-interpolation-filters="sRGB">
<feFlood flood-opacity="0" result="BackgroundImageFix"/>
<feColorMatrix in="SourceAlpha" type="matrix" values="0 0 0 0 0 0 0 0 0 0 0 0 0 0 0 0 0 0 127 0" result="hardAlpha"/>
<feOffset dy="4"/>
<feGaussianBlur stdDeviation="2"/>
<feComposite in2="hardAlpha" operator="out"/>
<feColorMatrix type="matrix" values="0 0 0 0 0 0 0 0 0 0 0 0 0 0 0 0 0 0 0.27 0"/>
<feBlend mode="normal" in2="BackgroundImageFix" result="effect1_dropShadow_3532_203"/>
<feBlend mode="normal" in="SourceGraphic" in2="effect1_dropShadow_3532_203" result="shape"/>
</filter>
<clipPath id="clip0_3532_203">
<rect width="97.7273" height="40" fill="white" transform="translate(4.13623 5)"/>
</clipPath>
</defs>
</svg>
