<svg width="166" height="42" fill="none" xmlns="http://www.w3.org/2000/svg"><path fill-rule="evenodd" clip-rule="evenodd" d="M119.763 14.09c0 .584-.196 1.071-.588 1.364-.392.39-.882.487-1.372.487-.588 0-.98-.195-1.372-.487-.392-.293-.588-.78-.588-1.365s.196-1.072.588-1.364c.392-.293.882-.488 1.372-.488.588 0 .98.195 1.372.488.392.292.588.78.588 1.364ZM116.137 17.599h3.332v11.305h-3.332V17.6ZM82.138 20.23a3.538 3.538 0 0 0-1.078-.195c-.392-.098-.882-.098-1.372-.098-.196 0-.49 0-.784.098-.294 0-.49.097-.686.097v8.87H74.79V17.988c.588-.195 1.372-.39 2.156-.585a12.726 12.726 0 0 1 2.841-.292h.686c.294 0 .49.098.784.098.294 0 .49.097.784.097.294.097.49.097.686.195l-.588 2.729ZM130.051 23.057c0-.975-.196-1.852-.588-2.436-.392-.585-1.078-.878-1.862-.878s-1.372.293-1.862.878c-.392.584-.685 1.364-.685 2.436 0 .975.196 1.852.685 2.437.392.584 1.078.877 1.862.877s1.372-.293 1.862-.877c.392-.585.588-1.462.588-2.437Zm3.527 0c0 .877-.098 1.754-.392 2.534-.294.78-.686 1.365-1.176 1.95a6.287 6.287 0 0 1-1.861 1.267c-.784.292-1.568.487-2.45.487-.882 0-1.666-.195-2.449-.488-.784-.292-1.372-.682-1.862-1.266-.49-.585-.98-1.17-1.274-1.95-.294-.78-.392-1.56-.392-2.534 0-.877.196-1.754.49-2.534.294-.78.686-1.364 1.274-1.95a6.287 6.287 0 0 1 1.861-1.266c.784-.293 1.568-.488 2.45-.488.882 0 1.666.098 2.45.488.685.292 1.371.682 1.861 1.267.49.487.98 1.17 1.274 1.949.098.78.196 1.657.196 2.534ZM91.544 21.886c0-.292-.098-.584-.196-.78-.098-.292-.196-.487-.392-.682-.196-.194-.392-.39-.686-.487-.294-.097-.587-.195-.98-.195-.391 0-.685.098-.98.195-.293.098-.49.293-.685.487-.196.195-.294.488-.392.683-.098.292-.196.585-.196.78h4.507Zm-8.132 1.267c0-1.072.196-1.949.49-2.729a5.63 5.63 0 0 1 1.273-1.949c.588-.487 1.176-.877 1.862-1.17.686-.292 1.47-.39 2.155-.39 1.764 0 3.136.488 4.116 1.463.98.974 1.47 2.436 1.47 4.483v.585c0 .195 0 .39-.099.585h-7.838c.098.682.392 1.17.98 1.657.588.39 1.371.584 2.351.584.588 0 1.274-.097 1.862-.195.588-.097 1.078-.292 1.47-.39l.49 2.632a3.325 3.325 0 0 1-.784.292 3.538 3.538 0 0 1-1.078.195c-.392.098-.784.098-1.176.195-.392 0-.882.098-1.273.098a8.231 8.231 0 0 1-2.842-.488c-.784-.292-1.47-.682-2.058-1.267-.49-.487-.882-1.17-1.175-1.949a13.614 13.614 0 0 1-.196-2.242ZM103.498 22.764c0-1.072-.098-1.852-.392-2.241-.294-.488-.784-.683-1.47-.683h-.686c-.196 0-.49.098-.686.098v8.966h-3.429V17.696a3.537 3.537 0 0 1 1.078-.195c.392-.097.784-.195 1.273-.195.392-.097.882-.097 1.372-.195.49 0 .882-.097 1.372-.097.882 0 1.568.097 2.156.292.588.195.979.488 1.371.78.49-.39 1.078-.585 1.666-.78.686-.195 1.274-.292 1.764-.292.98 0 1.763.097 2.449.39.588.292 1.078.584 1.47 1.072.392.487.588 1.072.784 1.657.098.682.196 1.364.196 2.144v6.53h-3.43v-6.14c0-1.072-.098-1.852-.391-2.242-.294-.487-.784-.682-1.47-.682-.196 0-.392 0-.784.097-.294.098-.588.195-.784.293.098.39.196.682.196 1.072v7.504h-3.429v-5.945h-.196ZM68.812 26.274c-.196 0-.392.097-.686.097h-.882c-.98 0-1.665-.292-2.155-.877-.49-.585-.686-1.462-.686-2.436 0-2.145.784-3.217 2.45-3.217.391 0 .685 0 1.077.098.392.097.588.195.882.292v6.043Zm0-13.158V17.6c-.392-.195-.784-.292-1.176-.39-.392-.097-.784-.097-1.273-.097-.882 0-1.666.098-2.352.39-.686.292-1.274.682-1.666 1.17-.49.487-.784 1.17-1.078 1.949-.294.78-.392 1.56-.392 2.534 0 .877.196 1.754.392 2.534.294.78.686 1.364 1.274 1.95.588.487 1.176.974 1.96 1.169.784.292 1.665.39 2.645.39.392 0 .882 0 1.274-.098.49 0 .882-.097 1.372-.195.392-.097.882-.097 1.274-.195.391-.097.783-.195 1.077-.292V12.044l-3.331 1.072Z" fill="#BAC7E1"/><path fill-rule="evenodd" clip-rule="evenodd" d="M39.222 25.103c-.98.488-2.94 1.462-2.842 2.632.294.682 1.078 0 1.372-.293.686-.682 1.176-1.559 1.47-2.339Zm6.075-2.534c-.686 1.755-2.646 2.534-3.136 2.242-.294-.195 0-.682 0-1.072-.392.195-1.078.487-1.47.585.98.682 1.47 1.949 1.47 3.118 0 1.17-.49 2.242-1.372 3.022 1.666 2.437.784 4.483-1.47 6.14l-.097.098v-.195c-.294-1.17-.784-2.145-1.568-3.022-.392-.487-.882-.877-1.274-1.267-.588-.585-1.175-1.072-1.665-1.657-2.254-2.339-3.136-6.432-2.842-9.551a13.877 13.877 0 0 1 1.372-4.58 12.128 12.128 0 0 1 2.253-3.12c1.96-2.047 4.606-3.703 7.35-4.58 2.449-.683 5.192-.878 7.544.292.392.195.98.487 1.273.78l.588.584.098.098L63.13 5.026c.882-.488 1.568-.488 1.862-.098.294.39-.098 1.17-.784 1.56L54.9 13.213c.196.487-.098 1.267-.49 1.754 1.274.39.196 2.242-.392 2.827-1.568 1.851-4.41 3.216-6.957 4.288-.784.195-1.175.292-1.763.487Z" fill="#7B818E"/><path fill-rule="evenodd" clip-rule="evenodd" d="M53.821 16.331c.686-.877.196-1.364-.294-.877-.98.975-2.351 1.267-3.723 1.072-1.862-.292-1.96-.585-1.666-.877 2.254.78 4.9-.292 5.977-2.047.49-.682-1.078-1.17-2.058-2.436-4.409-5.946-18.322-.78-19.596 9.649-.392 3.119.49 6.627 2.646 9.064 1.665 1.852 3.33 2.631 4.409 5.458 1.96-1.657 1.665-3.509.196-5.166 2.45-1.267 2.057-4.483.392-5.458-.784 2.924-3.626 5.068-4.312 3.022-.392-2.145 3.038-3.509 8.623-5.556 4.605-1.852 7.642-3.314 9.406-5.848Z" fill="#BAC7E1"/><path fill-rule="evenodd" clip-rule="evenodd" d="M53.821 16.332c.686-.877.196-1.364-.294-.877-.784.877-2.057 1.17-3.135 1.17-1.96-.098-3.43-.488-4.801-.39-2.744.292-5.487 2.046-6.859 3.508-2.45 2.437-5.095 7.603-2.45 8.577-.195-.097-.391-.39-.49-.682-.391-2.144 3.038-3.509 8.623-5.556 4.605-1.754 7.642-3.216 9.406-5.75Z" fill="#fff"/><path fill-rule="evenodd" clip-rule="evenodd" d="M41.868 20.328c1.47.682 1.175 3.118.98 3.8 2.743-.78 1.861-4.775 3.135-5.945-1.568-.097-4.507 1.462-4.115 2.145Z" fill="#BAC7E1"/><path fill-rule="evenodd" clip-rule="evenodd" d="M46.473 13.116c.392-.195.882-.097 1.078.293.196.39.098.877-.294 1.072-.392.195-.882.097-1.078-.293-.294-.39-.098-.877.294-1.072Z" fill="#7B818E"/><path fill-rule="evenodd" clip-rule="evenodd" d="m53.038 13.41 10.876-7.506c.294-.195.686-.682.588-.877-.196-.195-.686-.097-1.078.098L51.666 11.46c-.392.78.392 2.436 1.372 1.95Z" fill="#BAC7E1"/><path fill-rule="evenodd" clip-rule="evenodd" d="m52.058 11.945 11.366-6.627c.49-.293.686-.293.98-.293-.197-.195-.686-.097-.98.098l-11.758 6.335c-.294.585.098 1.657.686 2.046-.196-.584-.294-1.072-.294-1.559Z" fill="#fff"/><path fill-rule="evenodd" clip-rule="evenodd" d="M35.303 14.967c.392-.097.686.195.686.585 0 .39-.294.78-.686.78-.392.097-.686-.195-.686-.585 0-.39.294-.78.686-.78ZM37.557 12.531c.294-.097.587.195.587.487 0 .293-.293.683-.587.683-.294.097-.588-.195-.588-.488 0-.292.196-.682.588-.682ZM44.22 9.314c.293 0 .49.292.49.585-.099.292-.393.585-.785.585-.293 0-.49-.293-.49-.585.098-.39.49-.585.784-.585ZM46.277 8.925c.294.097.392.292.294.584-.098.293-.392.39-.686.39-.294-.097-.392-.292-.294-.585.098-.292.392-.39.686-.39ZM37.556 13.992c.196 0 .392.098.392.39 0 .293-.196.488-.49.488-.196 0-.392-.098-.392-.39.098-.195.294-.39.49-.488ZM34.128 16.819c.294 0 .49.097.49.39 0 .292-.196.487-.49.585-.294 0-.49-.098-.49-.39 0-.293.196-.488.49-.585ZM54.507 9.899l-.49.292c0 .78.686 1.657 1.078 1.755-.392-.488-.686-1.462-.588-2.047Zm2.744-1.462-.49.195c.098.682.587 1.462.881 1.462-.196-.293-.49-1.17-.392-1.657Zm2.645-1.462-.294.195c0 .39.294 1.072.686 1.17-.196-.293-.49-.78-.392-1.365Zm2.547-1.365-.293.195c0 .293.392.78.587.877-.098-.194-.294-.682-.294-1.072Z" fill="#9BABCB"/></svg>