<svg width="73" height="50" viewBox="0 0 73 50" fill="none" xmlns="http://www.w3.org/2000/svg">
<g clip-path="url(#clip0_3582_166)">
<path fill-rule="evenodd" clip-rule="evenodd" d="M9.54627 30.625C8.11897 30.625 6.96191 29.4759 6.96191 28.0584V16.5625V5.06654C6.96191 3.64907 8.11897 2.5 9.54628 2.5H28.1483C32.0585 2.5 35.2283 5.648 35.2283 9.53125C35.2283 13.4145 32.0585 16.5625 28.1483 16.5625C32.0585 16.5625 35.2283 19.7105 35.2283 23.5938C35.2283 27.477 32.0585 30.625 28.1483 30.625H9.54627ZM37.2209 5.06655C37.2209 3.6491 38.378 2.50001 39.8053 2.50001L58.4616 2.5C62.3718 2.5 65.5417 5.648 65.5417 9.53125C65.5417 13.4145 62.3718 16.5625 58.4616 16.5625C62.3718 16.5625 65.5417 19.7105 65.5417 23.5938C65.5417 27.477 62.3718 30.625 58.4616 30.625C54.5514 30.625 51.3816 27.477 51.3816 23.5938C51.3816 27.477 48.2113 30.625 44.301 30.625C40.3908 30.625 37.2209 27.477 37.2209 23.5938V16.5625V5.06655Z" fill="#BAC7E1"/>
<path d="M15.4623 42.0778C15.4623 42.5578 15.3301 42.9477 15.0658 43.2478C14.809 43.5478 14.4617 43.769 14.0236 43.9115C13.5856 44.0541 13.1023 44.1253 12.5736 44.1253H8.62012V36.1378H13.2873C13.6649 36.1378 13.9896 36.239 14.2615 36.4415C14.541 36.6365 14.7524 36.8915 14.8959 37.2065C15.0469 37.5215 15.1225 37.8478 15.1225 38.1853C15.1225 38.5528 15.0242 38.909 14.8279 39.254C14.6391 39.5991 14.3521 39.8578 13.967 40.0303C14.4277 40.1653 14.7902 40.4015 15.0545 40.739C15.3264 41.0765 15.4623 41.5228 15.4623 42.0778ZM13.2193 41.6278C13.2193 41.4928 13.1929 41.3766 13.14 41.279C13.0947 41.1741 13.0305 41.0915 12.9475 41.0315C12.8644 40.9716 12.7662 40.9415 12.6529 40.9415H10.8291V42.2803H12.5736C12.6945 42.2803 12.8039 42.2541 12.9021 42.2015C13.0004 42.149 13.0758 42.0741 13.1287 41.9765C13.1891 41.879 13.2193 41.7628 13.2193 41.6278ZM10.8291 38.0053V39.2315H12.3357C12.434 39.2315 12.5283 39.2166 12.6189 39.1865C12.7096 39.1491 12.7851 39.0853 12.8455 38.9953C12.9059 38.9053 12.9361 38.7778 12.9361 38.6128C12.9361 38.4628 12.9097 38.3465 12.8568 38.264C12.8115 38.174 12.7473 38.1102 12.6643 38.0728C12.5887 38.0278 12.5019 38.0053 12.4037 38.0053H10.8291ZM16.7246 44.1253V36.1378H20.4176C20.8103 36.1378 21.1728 36.2165 21.5051 36.374C21.8373 36.5315 22.1244 36.7453 22.366 37.0153C22.6076 37.2777 22.7927 37.5741 22.9211 37.904C23.057 38.234 23.125 38.5678 23.125 38.9053C23.125 39.2127 23.0797 39.5091 22.9891 39.794C22.8984 40.079 22.7662 40.3416 22.5926 40.5815C22.4189 40.8141 22.2111 41.0166 21.9695 41.189L23.6687 44.1253H21.2445L19.8285 41.6728H18.9336V44.1253H16.7246ZM18.9336 39.7603H20.3269C20.4176 39.7603 20.5045 39.7265 20.5875 39.659C20.6705 39.5915 20.7385 39.494 20.7914 39.3665C20.8518 39.2391 20.882 39.0853 20.882 38.9053C20.882 38.7177 20.848 38.5641 20.7801 38.444C20.7197 38.3166 20.6404 38.219 20.5422 38.1515C20.4516 38.084 20.3609 38.0503 20.2703 38.0503H18.9336V39.7603ZM24.652 44.1253V36.1378H26.861V44.1253H24.652ZM28.5307 44.1253V36.1378H30.7396V42.2128H34.3873V44.1253H28.5307ZM35.4404 44.1253V36.1378H37.6493V42.2128H41.297V44.1253H35.4404ZM42.3501 44.1253V36.1378H44.559V44.1253H42.3501ZM49.8536 44.1928C49.2419 44.1928 48.6868 44.0803 48.1884 43.8553C47.6899 43.6227 47.2594 43.3153 46.8969 42.9328C46.542 42.5427 46.2664 42.1078 46.07 41.6278C45.8813 41.1403 45.7868 40.6378 45.7868 40.1203C45.7868 39.5878 45.8887 39.0816 46.0927 38.6015C46.2966 38.1215 46.5798 37.694 46.9423 37.319C47.3124 36.9365 47.7466 36.6365 48.245 36.419C48.751 36.2016 49.3024 36.0928 49.8989 36.0928C50.5106 36.0928 51.0657 36.209 51.5641 36.4415C52.0626 36.6665 52.4893 36.974 52.8442 37.364C53.1992 37.7541 53.4711 38.1928 53.6598 38.6803C53.8563 39.1603 53.9544 39.6553 53.9544 40.1653C53.9544 40.6903 53.8524 41.1927 53.6485 41.6728C53.4522 42.1528 53.169 42.584 52.7989 42.9665C52.4364 43.3415 52.0059 43.6415 51.5075 43.8665C51.0091 44.084 50.4578 44.1928 49.8536 44.1928ZM48.0298 40.1428C48.0298 40.4128 48.0676 40.6752 48.143 40.9303C48.2186 41.1778 48.3319 41.4028 48.4829 41.6053C48.634 41.8002 48.8227 41.9577 49.0493 42.0778C49.2834 42.1903 49.5591 42.2465 49.8762 42.2465C50.1934 42.2465 50.4692 42.1866 50.7032 42.0665C50.9374 41.9465 51.1262 41.7853 51.2696 41.5828C51.4207 41.3727 51.5302 41.144 51.5981 40.8965C51.6737 40.6415 51.7114 40.3827 51.7114 40.1203C51.7114 39.8503 51.6737 39.5915 51.5981 39.344C51.5227 39.0965 51.4094 38.8752 51.2583 38.6803C51.1073 38.4778 50.9147 38.3203 50.6805 38.2078C50.4465 38.0953 50.1746 38.039 49.8649 38.039C49.5477 38.039 49.2721 38.099 49.038 38.219C48.8114 38.3391 48.6227 38.5003 48.4716 38.7028C48.3206 38.8977 48.2073 39.1227 48.1317 39.3778C48.0637 39.6253 48.0298 39.8803 48.0298 40.1428ZM57.3828 40.199V44.1253H55.1738V36.1378H56.8957L60.1242 40.199V36.1378H62.3332V44.1253H60.5774L57.3828 40.199Z" fill="#BAC7E1"/>
</g>
<defs>
<clipPath id="clip0_3582_166">
<rect width="72.5" height="45" fill="white" transform="translate(0 2.5)"/>
</clipPath>
</defs>
</svg>
