<svg width="40" height="40" viewBox="0 0 40 40" fill="none" xmlns="http://www.w3.org/2000/svg">
<circle cx="20" cy="20" r="20" fill="#67738F"/>
<path d="M19.9287 4.97058L24.6094 13.0778H15.248L19.9287 4.97058Z" fill="#CDD5E4"/>
<path d="M19.9287 21.217L24.6095 13.0487H15.248L19.9287 21.217Z" fill="#C0CADC"/>
<path d="M19.9287 22.9889L24.6095 31.1572H15.248L19.9287 22.9889Z" fill="#97A4BE"/>
<path d="M24.6012 13.0626L29.9231 22.1164H20.4483L19.9292 21.2156L24.6012 13.0626Z" fill="#CDD5E4"/>
<path d="M24.6012 31.1875L29.9231 22.1337H20.4483L19.9292 23.0345L24.6012 31.1875Z" fill="#A2AEC7"/>
<path d="M15.2655 31.1875L9.94355 22.1337H19.4184L19.9375 23.0345L15.2655 31.1875Z" fill="#CDD5E4"/>
<path d="M15.2655 13.0626L9.94355 22.1164H19.4184L19.9375 21.2156L15.2655 13.0626Z" fill="#A2AEC7"/>
</svg>
