<svg width="77" height="50" fill="none" xmlns="http://www.w3.org/2000/svg"><path d="M17.835 5.412a5.412 5.412 0 0 1 10.824 0V25.83H17.836V5.412ZM33.334 5.412a5.412 5.412 0 0 1 10.824 0V25.83H33.333V5.412ZM59.657 11.807a5.412 5.412 0 0 1-10.824 0V5.534h10.824v6.273ZM59.657 25.953a5.412 5.412 0 0 1-10.824 0V19.68s1.537 2.398 5.412 2.398c3.874 0 5.412-2.398 5.412-2.398v6.273ZM0 36.307h2.747L5.65 43.39h.123l2.902-7.084h2.747V46.85H9.26v-6.862h-.087l-2.727 6.811H4.975l-2.727-6.837h-.087v6.888H0V36.307ZM25.721 39.34c-.04-.416-.217-.739-.53-.969-.312-.23-.735-.345-1.27-.345-.364 0-.67.052-.921.155-.25.1-.442.238-.576.417-.13.178-.196.38-.196.607a.869.869 0 0 0 .119.495c.089.14.21.262.365.365.154.1.333.187.535.263.202.072.418.133.648.185l.947.227c.46.102.881.24 1.265.411.384.172.717.383.998.634.282.25.5.545.654.885.157.34.238.73.241 1.169-.003.645-.168 1.205-.494 1.678-.322.47-.788.836-1.399 1.097-.607.257-1.339.386-2.197.386-.85 0-1.59-.13-2.222-.391-.627-.261-1.118-.647-1.471-1.159-.35-.515-.534-1.151-.55-1.91h2.155c.024.354.125.649.303.886.182.233.424.41.726.53.305.117.65.175 1.034.175.377 0 .705-.055.982-.165.282-.11.5-.262.654-.458a1.06 1.06 0 0 0 .231-.674.876.876 0 0 0-.21-.598c-.138-.16-.34-.298-.608-.411a6.18 6.18 0 0 0-.972-.31l-1.147-.288c-.889-.216-1.59-.554-2.104-1.014-.515-.46-.77-1.08-.767-1.858-.003-.639.166-1.197.51-1.674.346-.477.82-.85 1.424-1.117s1.29-.401 2.058-.401c.782 0 1.465.134 2.048.401.586.268 1.042.64 1.368 1.117.326.477.494 1.03.504 1.658h-2.135ZM32.791 38.943v1.647h-4.758v-1.647h4.758Zm-3.678-1.895h2.192v7.372c0 .203.03.36.092.474.062.11.148.187.257.232.114.044.244.067.391.067.103 0 .206-.009.31-.026l.236-.046.344 1.632a6.16 6.16 0 0 1-.463.118c-.199.048-.44.077-.725.088-.528.02-.991-.05-1.389-.211a1.939 1.939 0 0 1-.92-.752c-.22-.34-.328-.769-.325-1.287v-7.66ZM35.603 47c-.504 0-.953-.088-1.348-.263a2.171 2.171 0 0 1-.936-.787c-.227-.35-.34-.786-.34-1.308 0-.44.08-.808.242-1.107a1.96 1.96 0 0 1 .659-.72c.277-.183.593-.32.946-.413.357-.092.73-.157 1.122-.195.46-.048.83-.093 1.11-.134.282-.045.486-.11.613-.196a.43.43 0 0 0 .19-.38v-.032c0-.326-.102-.578-.308-.756-.203-.179-.49-.268-.864-.268-.395 0-.709.087-.942.262-.233.172-.37.55-.445.81l-1.983-.017c.103-.48.243-1.204.545-1.555a2.914 2.914 0 0 1 1.168-.813c.48-.192 1.036-.288 1.667-.288.439 0 .859.051 1.26.154.405.103.763.263 1.075.479.316.216.565.494.746.834.182.336.273.74.273 1.21v5.333h-2.078v-1.096h-.062a2.232 2.232 0 0 1-.51.654 2.359 2.359 0 0 1-.766.437 3.166 3.166 0 0 1-1.034.155Zm.628-1.514c.322 0 .607-.063.854-.19.247-.13.44-.306.58-.525.142-.22.212-.469.212-.747v-.84a1.176 1.176 0 0 1-.283.125 5.169 5.169 0 0 1-.396.097c-.148.028-.295.053-.443.078l-.4.056a2.705 2.705 0 0 0-.675.18 1.077 1.077 0 0 0-.447.335.816.816 0 0 0-.16.515c0 .298.108.527.324.685.22.154.498.231.834.231ZM43.075 42.279v4.571h-2.191v-7.907h2.089v1.094h.14c.175-.46.42-.523.832-.79.411-.272.91-.407 1.497-.407.549 0 1.027.12 1.435.36.408.24.726.584.952 1.03.226.443.34.971.34 1.586v5.034h-2.192v-4.643c.003-.484-.12-.862-.37-1.133-.25-.274-.595-.412-1.034-.412-.295 0-.556.064-.782.19a1.327 1.327 0 0 0-.525.557c-.124.24-.187.53-.19.87ZM51.938 46.98c-.6 0-1.143-.155-1.63-.464-.484-.312-.868-.77-1.153-1.375-.281-.607-.422-1.352-.422-2.234 0-.906.146-1.66.438-2.26.291-.604.679-1.056 1.162-1.354a2.978 2.978 0 0 1 1.6-.453c.443 0 .811.075 1.106.226.299.148.539.333.72.556.186.22.326.436.422.649h.067v-3.964h2.187V46.85h-2.161v-1.266h-.093c-.102.22-.248.438-.437.654-.185.213-.427.39-.725.53-.295.14-.655.211-1.08.211Zm.695-1.746c.353 0 .651-.096.895-.288.247-.196.436-.469.566-.819.134-.35.2-.76.2-1.23s-.065-.879-.195-1.226c-.13-.346-.319-.614-.566-.803a1.438 1.438 0 0 0-.9-.283c-.36 0-.664.098-.91.294a1.795 1.795 0 0 0-.562.813c-.126.347-.19.748-.19 1.205 0 .46.064.866.19 1.22.13.35.318.624.561.824.247.195.55.293.91.293ZM59.62 47c-.504 0-.953-.088-1.347-.263a2.171 2.171 0 0 1-.937-.787c-.226-.35-.34-.786-.34-1.308 0-.44.081-.808.243-1.107a1.96 1.96 0 0 1 .658-.72c.278-.183.593-.32.947-.413.356-.092.73-.157 1.121-.195.46-.048.83-.093 1.111-.134.282-.045.486-.11.613-.196a.43.43 0 0 0 .19-.38v-.032c0-.326-.103-.578-.309-.756-.202-.179-.49-.268-.864-.268-.394 0-.708.087-.941.262-.234.172-.44.558-.515.819H57.24c.103-.48.34-1.23.643-1.58a2.914 2.914 0 0 1 1.168-.814c.48-.192 1.035-.288 1.666-.288.44 0 .86.051 1.26.154.405.103.764.263 1.076.479.315.216.564.494.746.834.182.336.272.74.272 1.21v5.333h-2.078v-1.096h-.062a2.232 2.232 0 0 1-.509.654 2.359 2.359 0 0 1-.766.437A3.166 3.166 0 0 1 59.62 47Zm.628-1.514c.323 0 .607-.063.854-.19.247-.13.44-.306.581-.525.141-.22.211-.469.211-.747v-.84a1.176 1.176 0 0 1-.283.125 5.169 5.169 0 0 1-.396.097c-.147.028-.295.053-.442.078l-.401.056a2.705 2.705 0 0 0-.674.18 1.077 1.077 0 0 0-.448.335.816.816 0 0 0-.16.515c0 .298.109.527.325.685.22.154.497.231.833.231ZM64.901 46.85v-7.907h2.125l.01.725h.37l-.297.654c.144-.49.388-.634.727-.884.34-.254-.011-.077.43-.077a3.32 3.32 0 0 1 .69.077l.541 1.276c-.103-.031-.046.08-.228.056a3.822 3.822 0 0 0-.499-.036c-.322 0-.61.07-.864.211-.25.138-.45.33-.597.577a1.666 1.666 0 0 0-.216.855v4.473h-2.192ZM72.504 46.98c-.6 0-1.144-.155-1.63-.464-.484-.312-.869-.77-1.153-1.375-.281-.607-.422-1.352-.422-2.234 0-.906.146-1.66.437-2.26.292-.604.68-1.056 1.163-1.354a2.978 2.978 0 0 1 1.6-.453c.442 0 .81.075 1.106.226.298.148.538.333.72.556.185.22.326.436.422.649h.067v-3.964H77V46.85h-2.16v-1.266h-.093c-.103.22-.249.438-.437.654-.186.213-.427.39-.726.53-.295.14-.655.211-1.08.211Zm.694-1.746c.354 0 .652-.096.896-.288.247-.196.435-.469.566-.819.133-.35.2-.76.2-1.23s-.065-.879-.195-1.226c-.13-.346-.32-.614-.566-.803-.247-.189-.547-.283-.9-.283-.36 0-.664.098-.911.294a1.794 1.794 0 0 0-.56.813c-.128.347-.191.748-.191 1.205 0 .46.063.866.19 1.22.13.35.317.624.56.824.248.195.551.293.911.293ZM14.424 47.412l.129-.335-2.835-8.134h2.305l1.636 5.807h.082l1.651-5.807h2.32l-3.23 8.782L15.66 50h-2.375l1.14-2.59Z" fill="#BAC7E1"/><path d="M69.62 40.283a1.353 1.353 0 1 1-2.706 0 1.353 1.353 0 0 1 2.706 0Z" fill="#BAC7E1"/></svg>