<svg width="166" height="42" fill="none" xmlns="http://www.w3.org/2000/svg"><path d="M82.205 40.107c.303.042.608.064.914.066a4.09 4.09 0 0 0 2.542-.797 4.236 4.236 0 0 0 1.484-2.856 5.349 5.349 0 0 0-.696-3.594 3.638 3.638 0 0 0-1.102-1.11 3.68 3.68 0 0 0-1.473-.55h-.201a3.907 3.907 0 0 0-1.166 0 3.58 3.58 0 0 0-2.281 1.013 4.551 4.551 0 0 0-1.25 3.362 4.748 4.748 0 0 0 1.099 3.32 3.544 3.544 0 0 0 2.13 1.146Zm-.534-7.467a2.54 2.54 0 0 1 1.23-.303l.076-.033a2.635 2.635 0 0 1 2.046.722c.59.58.963 1.34 1.057 2.158a4.168 4.168 0 0 1-.838 3.055 3.014 3.014 0 0 1-3.523.606 3.198 3.198 0 0 1-1.046-.994 3.163 3.163 0 0 1-.498-1.347 4.214 4.214 0 0 1 .57-3.005c.23-.36.548-.655.925-.859ZM63.819 39.974a5.696 5.696 0 0 0 1.619.207 5.165 5.165 0 0 0 2.315-.572 2.23 2.23 0 0 0 .746-.54l.042-.083c.025-.21.025-.421 0-.63v-2.524c-.042-.167-.473-.204-.67-.2h-2.257a.604.604 0 0 0-.353.35.635.635 0 0 0 .05.522h.051c.133.065.28.093.428.083h1.72v2.067a3.941 3.941 0 0 1-1.93.49 2.836 2.836 0 0 1-2.382-.896 4.176 4.176 0 0 1-.713-3.32c.058-.492.232-.962.509-1.374a3.145 3.145 0 0 1 1.085-.993 3.492 3.492 0 0 1 1.87-.232 3.74 3.74 0 0 1 1.208.415l.403.183c.473.197.868-.744.352-.971a3.99 3.99 0 0 0-2.516-.698 3.739 3.739 0 0 0-2.793 1.096 4.224 4.224 0 0 0-1.25 2.64 6.664 6.664 0 0 0 .294 2.838c.17.5.454.952.831 1.324.377.372.836.652 1.34.818ZM71.292 39.982c.095.053.202.081.31.084a.585.585 0 0 0 .328-.067.442.442 0 0 0 .234-.407v-2.988h1.602l.353.556.32.512c.45.717.904 1.44 1.357 2.111a.582.582 0 0 0 .47.307.605.605 0 0 0 .286-.04c.09-.036.178-.068.234-.167.056-.1.054-.305.038-.43a.823.823 0 0 0-.13-.35c-.198-.288-.391-.593-.583-.897a53.34 53.34 0 0 0-.206-.324c-.324-.52-.66-1.043-1.006-1.569.376-.146.713-.38.98-.68.27-.3.462-.658.563-1.046a2.648 2.648 0 0 0-.662-2.573c-.974-.772-2.282-.714-3.356-.665h-.36a2.415 2.415 0 0 0-.89.192l-.108.058v7.968a.444.444 0 0 0 .226.415Zm1.099-4.449h-.243V32.38a4.852 4.852 0 0 1 2.6.224 1.092 1.092 0 0 1 .629 1.005 1.767 1.767 0 0 1-.352 1.36 2.253 2.253 0 0 1-1.51.565c-.373.05-.751.05-1.124 0ZM91.649 39.993c.387.135.923.21 1.333.188 0 0 .95-.104 1.367-.275.416-.17.789-.431 1.09-.762.53-.722.802-1.599.773-2.49v-4.748a.462.462 0 0 0-.218-.448.66.66 0 0 0-.655 0 .427.427 0 0 0-.218.415v3.967c.074.792-.05 1.59-.36 2.324a1.844 1.844 0 0 1-.708.697 1.87 1.87 0 0 1-.97.233 2.204 2.204 0 0 1-1.677-.54 2.852 2.852 0 0 1-.638-1.884v-4.84a.495.495 0 0 0-.243-.414.637.637 0 0 0-.587 0 .657.657 0 0 0-.319.54v4.747a3.96 3.96 0 0 0 .981 2.673c.305.272.662.482 1.049.617ZM99.246 39.97c.1.07.222.106.345.103l.068-.008a.542.542 0 0 0 .336-.15.525.525 0 0 0 .158-.331V36.77a5.86 5.86 0 0 0 2.726-.2 2.618 2.618 0 0 0 1.025-.595c.291-.273.514-.61.653-.982a3.072 3.072 0 0 0-.243-2.581 3.12 3.12 0 0 0-1.197-.841c-.259-.103-.703-.179-1.042-.226a4.147 4.147 0 0 0-.935-.018c-.539.047-1.408.136-1.859.255l-.134.083c-.083.17-.123.358-.118.548v7.47c.04.116.116.216.217.287Zm1.394-4.213a4.317 4.317 0 0 0-.461-.05c-.009-.548-.009-1.095-.009-1.627v-1.66a5.715 5.715 0 0 1 2.382.083c.241.073.458.208.628.392.17.184.286.41.337.654.089.411.051.84-.109 1.229a2.008 2.008 0 0 1-1.678.98 3.7 3.7 0 0 1-1.09 0ZM107.481 13.902c.337-1.068.674-2.136.989-3.233.294.706.522 1.489.732 2.207l.081.278c.091.311.191.614.29.918.153.468.306.937.432 1.436h-3.028c.166-.538.335-1.072.504-1.606Z" fill="#BAC7E1"/><path fill-rule="evenodd" clip-rule="evenodd" d="M107.601 25.621c-3.711 0-7.422-.003-11.133-.008V1.815H120v23.798c-3.711.005-7.422.008-11.133.008h-1.266Zm3.51-6.76-.008-.026-.227-.727h-4.72c-.113.352-.221.706-.33 1.06l-.014.046a69.824 69.824 0 0 1-.485 1.536h-3.667c.742-1.99 1.477-3.981 2.212-5.972l.109-.293c.964-2.61 1.928-5.221 2.905-7.832h3.227c1.742 4.708 3.492 9.404 5.25 14.088h-3.658c-.201-.622-.398-1.253-.594-1.88ZM69.532 25.613c-7.844.011-15.688.011-23.532 0V1.815h23.532v23.798ZM56.54 14.607c.988.296 1.941.696 2.844 1.192a1.43 1.43 0 0 1 .423 1.86 1.837 1.837 0 0 1-1.658.724 2.82 2.82 0 0 1-1.949-.56 2.383 2.383 0 0 1-.58-1.645H52.21c-.019.667.122 1.329.41 1.932s.716 1.13 1.248 1.54a6.98 6.98 0 0 0 4.196 1.29 6.372 6.372 0 0 0 4.005-1.094 3.368 3.368 0 0 0 1-1.206c.233-.474.35-.997.343-1.524a3.639 3.639 0 0 0-.995-2.682 7.701 7.701 0 0 0-3.317-1.925 9.942 9.942 0 0 1-2.43-1.02 1.28 1.28 0 0 1-.613-1.078c.05-.34.215-.653.468-.888s.58-.377.925-.403a2.348 2.348 0 0 1 2.106.518 1.643 1.643 0 0 1 .44 1.226h3.416a3.888 3.888 0 0 0-1.219-2.978 5.73 5.73 0 0 0-3.84-1.44 7.304 7.304 0 0 0-3.813.823 3.743 3.743 0 0 0-1.758 2.056 3.519 3.519 0 0 0 .613 3.29 7.055 7.055 0 0 0 3.143 1.992ZM82.365 25.621c-3.71 0-7.422-.003-11.133-.008V1.815h23.533v23.798c-3.711.005-7.422.008-11.133.008h-1.267Zm-1.023-14.313a1.86 1.86 0 0 1-.423-.705 1.392 1.392 0 0 1 .31-.954c.22-.269.53-.448.875-.502a2.402 2.402 0 0 1 2.344.527c.269.34.415.76.415 1.193h3.414a4.09 4.09 0 0 0-1.425-3.127 6.362 6.362 0 0 0-4.599-1.251 5.753 5.753 0 0 0-4.002 1.753 3.49 3.49 0 0 0-.058 4.32 7.58 7.58 0 0 0 3.563 2.189c.873.246 1.71.609 2.486 1.078a1.472 1.472 0 0 1 .397 1.819 1.885 1.885 0 0 1-1.657.732 2.763 2.763 0 0 1-1.972-.634 2.457 2.457 0 0 1-.522-1.58h-3.422a4.453 4.453 0 0 0 .663 2.37 4.6 4.6 0 0 0 2.12 1.753c1.48.62 3.11.8 4.69.518a4.891 4.891 0 0 0 2.992-1.563 3.886 3.886 0 0 0 .505-3.67 4.808 4.808 0 0 0-2.56-2.469c-.572-.295-1.179-.498-1.786-.702-.563-.189-1.126-.378-1.66-.64-.261-.098-.496-.254-.688-.455Z" fill="#BAC7E1"/></svg>