<svg width="155" height="35" fill="none" xmlns="http://www.w3.org/2000/svg"><path fill-rule="evenodd" clip-rule="evenodd" d="m4.07 24.855 4.904-2.818c.327.362.854.504 1.306.386l5.714 9.599L4.07 24.855Zm25.859 0-11.587 6.963 5.425-9.441c.413.112.873.033 1.18-.272.024-.024.047-.049.068-.073l4.914 2.823ZM17.72 17.84l5.163 2.967c-.062.208-.076.43-.028.646.05.227.159.417.303.567l-5.438 9.464V17.84Zm-1.444 0v13.278l-5.404-9.078c.286-.352.32-.805.192-1.205l5.212-2.995ZM3.559 9.702l5.137 2.952c-.041.191-.041.392.009.585.07.273.224.49.42.645L3.56 24.005V9.701Zm26.88 0v14.286l-5.466-10.205c.299-.315.374-.727.297-1.11l5.17-2.971Zm-5.145 11.66 4.247 2.44-5.112-9.543v5.655c.542.201.918.842.865 1.448ZM9.569 19.941v-5.4L4.48 23.789l4.195-2.41c-.074-.61.315-1.248.894-1.438Zm6.708-2.931-5.588 3.211a1.205 1.205 0 0 0-.422-.273v-5.817c.19-.048.366-.14.51-.281l5.5 3.16Zm1.444 0 5.54-3.183c.138.116.3.2.47.251v5.828a1.246 1.246 0 0 0-.472.287L17.72 17.01v-.001Zm0-14.677 5.458 9.651c-.29.332-.425.805-.307 1.236l-5.15 2.96V2.333Zm-1.444.015V16.18l-5.161-2.965a1.468 1.468 0 0 0-.236-1.057l5.397-9.81Zm2.058-.362 11.773 7.076-5.144 2.956c-.217-.271-.523-.456-.868-.463h-.064c-.09.005-.178.02-.261.044l-5.436-9.613Zm-2.659-.007-5.338 9.703a1.024 1.024 0 0 0-.469-.092c-.336.015-.633.18-.847.422l-5.133-2.95L15.677 1.98Z" fill="#909DB8"/><path d="m49.733 9.894 4.45 14.5h-2.037l-.952-3.365h-5.335l-.952 3.365h-1.926l4.428-14.5h2.324Zm-1.195 1.726-2.214 7.726h4.405l-2.191-7.726Zm9.369-2.346v15.12h-1.882V9.274h1.882Zm4.972 0v15.12h-1.882V9.274h1.882Zm4.972 4.317v10.803h-1.882V13.59h1.882Zm-.952-4.361c.399 0 .701.088.908.265.221.177.332.428.332.753v.642c0 .325-.11.575-.332.753-.207.162-.51.243-.908.243-.384 0-.686-.081-.907-.243-.207-.178-.31-.428-.31-.753v-.642c0-.325.103-.576.31-.753.22-.177.523-.265.907-.265Zm7.341 4.095c1.27 0 2.192.288 2.767.863.59.561.886 1.461.886 2.701v7.505H76.1v-1.727c-.856 1.328-1.823 1.992-2.9 1.992-.856 0-1.543-.295-2.06-.885-.501-.59-.752-1.395-.752-2.413v-.62c0-.886.303-1.616.908-2.192.605-.59 1.417-.885 2.435-.885.56 0 1.32.096 2.28.288v-1.218c0-.635-.148-1.092-.443-1.372-.28-.28-.723-.421-1.328-.421-.708 0-1.704.11-2.989.332v-1.616c1.388-.221 2.384-.332 2.989-.332Zm-.044 5.8c-.62 0-1.092.162-1.417.487-.325.325-.487.782-.487 1.372v.244c0 .546.125.974.376 1.284.251.31.569.465.952.465.399 0 .804-.17 1.218-.51.428-.354.819-.848 1.173-1.483V19.28a10.026 10.026 0 0 0-1.815-.155Zm11.405-5.8c.945 0 1.668.325 2.17.974.516.635.775 1.542.775 2.723v7.372h-1.882v-7.106c0-1.476-.48-2.214-1.44-2.214-.427 0-.862.162-1.305.487-.443.325-.827.767-1.151 1.328v7.505h-1.882V13.59h1.771v1.616c.398-.605.841-1.07 1.328-1.395a2.92 2.92 0 0 1 1.616-.487Zm9.836 0c.665 0 1.417.096 2.258.288l-.044 1.66c-.856-.192-1.594-.288-2.214-.288-.693 0-1.224.192-1.593.576-.355.383-.532.93-.532 1.638v3.564c0 .738.185 1.299.554 1.682.383.37.907.554 1.571.554.414 0 .775-.022 1.085-.066.31-.045.686-.119 1.13-.222l.043 1.66c-.9.192-1.66.288-2.28.288-2.656 0-3.984-1.343-3.984-4.029v-3.276c0-2.686 1.335-4.029 4.006-4.029Zm8.383 0c1.239 0 2.184.34 2.833 1.018.65.68.974 1.66.974 2.945v2.28h-5.689v1.306c0 .752.177 1.299.531 1.638.369.325.945.487 1.727.487.767 0 1.727-.118 2.878-.354l.044 1.638c-1.372.25-2.354.376-2.944.376-1.461 0-2.516-.317-3.166-.952-.634-.634-.952-1.616-.952-2.944v-3.476c0-1.283.31-2.265.93-2.944.635-.679 1.579-1.018 2.834-1.018Zm0 1.572c-.576 0-1.033.184-1.373.553-.339.354-.509.87-.509 1.55v1.062h3.808v-.996c0-.708-.178-1.247-.532-1.616-.339-.369-.804-.553-1.394-.553Zm10.366-5.269c1.549 0 2.73.317 3.542.952.811.635 1.217 1.498 1.217 2.59v.487c0 1.55-.679 2.62-2.036 3.21.826.177 1.468.56 1.925 1.151.473.576.709 1.291.709 2.147v.487c0 1.225-.436 2.2-1.306 2.922-.856.724-2.155 1.085-3.896 1.085-.989 0-2.34-.044-4.051-.133V9.716a89.773 89.773 0 0 1 3.896-.088Zm-.288 1.616c-.531 0-1.107.022-1.727.066v4.96h2.17c.885 0 1.557-.215 2.014-.643.472-.428.708-1.025.708-1.793v-.376c0-.738-.25-1.292-.752-1.66-.502-.37-1.306-.554-2.413-.554Zm-1.727 6.553v5.091l1.196.11c.324.016.649.023.974.023 1.136 0 1.97-.214 2.501-.642.546-.443.819-1.055.819-1.837v-.465c0-1.52-1.062-2.28-3.188-2.28h-2.302Zm11.585-8.523v15.12h-1.882V9.274h1.882Zm6.765 4.051c1.314 0 2.288.354 2.922 1.063.65.693.974 1.682.974 2.966v3.276c0 1.284-.324 2.28-.974 2.989-.634.693-1.608 1.04-2.922 1.04-1.313 0-2.295-.347-2.944-1.04-.635-.709-.952-1.705-.952-2.989v-3.276c0-1.284.317-2.273.952-2.966.649-.709 1.631-1.063 2.944-1.063Zm0 1.572c-.634 0-1.129.199-1.483.597-.354.399-.531.967-.531 1.705v3.586c0 .738.177 1.306.531 1.705.354.398.849.598 1.483.598.635 0 1.129-.2 1.484-.598.354-.399.531-.967.531-1.705v-3.608c0-.738-.177-1.299-.531-1.683-.355-.398-.849-.597-1.484-.597Zm10.553-1.572c.664 0 1.416.096 2.258.288l-.045 1.66c-.856-.192-1.593-.288-2.213-.288-.694 0-1.225.192-1.594.576-.354.383-.532.93-.532 1.638v3.564c0 .738.185 1.299.554 1.682.384.37.908.554 1.572.554.413 0 .774-.022 1.084-.066.31-.045.687-.119 1.129-.222l.045 1.66c-.901.192-1.661.288-2.28.288-2.657 0-3.985-1.343-3.985-4.029v-3.276c0-2.686 1.335-4.029 4.007-4.029Zm6.722-4.051v9.054l3.542-4.737h2.103l-3.675 4.737 3.94 6.066h-2.258l-3.652-5.8v5.8h-1.882V9.274h1.882Z" fill="#909DB8"/></svg>