<svg width="147" height="50" fill="none" xmlns="http://www.w3.org/2000/svg"><path d="m109.296 37.44.001-13.754c0-1.048.849-1.898 1.898-1.898h13.916a1.825 1.825 0 1 1 0 3.65h-10.476a1.715 1.715 0 0 0 0 3.43h3.213a1.788 1.788 0 0 1 0 3.577h-3.286a1.642 1.642 0 0 0 0 3.285h10.544a1.804 1.804 0 0 1 0 3.608h-13.912a1.898 1.898 0 0 1-1.898-1.898Z" fill="url(#a)"/><path d="M105.328 21.788c1.049 0 1.898.85 1.898 1.898v13.858a1.825 1.825 0 0 1-3.649 0V27.117c0-.968-.785-1.752-1.752-1.752h-6.788c-.968 0-1.752.784-1.752 1.752V37.58a1.788 1.788 0 0 1-3.577 0V23.686c0-1.048.85-1.898 1.898-1.898h13.722Z" fill="url(#b)"/><path d="M79.562 39.37c1.048 0 1.898-.85 1.898-1.898V23.612a1.825 1.825 0 0 0-3.65 0v10.428c0 .967-.784 1.752-1.752 1.752H69.27a1.752 1.752 0 0 1-1.752-1.752V23.577a1.788 1.788 0 0 0-3.576 0V37.47c0 1.049.85 1.898 1.897 1.898h13.723Z" fill="url(#c)"/><path d="M144.599 21.788H130.73c-.968 0-1.752.785-1.752 1.752 0 1.048.85 1.898 1.898 1.898h3.358c.886 0 1.605.719 1.605 1.606v10.55c0 .967.785 1.752 1.752 1.752h.12c.967 0 1.752-.785 1.752-1.752v-10.55c0-.887.719-1.606 1.605-1.606h3.531a1.825 1.825 0 1 0 0-3.65Z" fill="url(#d)"/><path d="M87.3 37.555a1.898 1.898 0 1 1-3.796 0 1.898 1.898 0 0 1 3.795 0Z" fill="url(#e)"/><path fill-rule="evenodd" clip-rule="evenodd" d="m44.154 37.569.08-10.963-.062-3.181a1.606 1.606 0 0 1 1.606-1.637h14.295c.887 0 1.606.72 1.606 1.606v7.445c0 .887-.72 1.606-1.606 1.606h-10.73c-.887 0-1.606.72-1.606 1.606v3.53c0 .968-.784 1.752-1.752 1.752h-.08a1.752 1.752 0 0 1-1.751-1.764Zm5.335-12.277a1.752 1.752 0 1 0 0 3.504h6.861a1.752 1.752 0 1 0 0-3.504h-6.86Z" fill="url(#f)"/><path d="M22.628 9.38a1.022 1.022 0 1 1-2.044 0 1.022 1.022 0 0 1 2.044 0Z" fill="url(#g)"/><path d="M19.124 10.985a1.46 1.46 0 1 1-2.92 0 1.46 1.46 0 0 1 2.92 0Z" fill="url(#h)"/><path d="M14.598 12.81a1.387 1.387 0 1 1-2.773 0 1.387 1.387 0 0 1 2.774 0Z" fill="url(#i)"/><path d="M5.693 23.613a1.387 1.387 0 1 1-2.773 0 1.387 1.387 0 0 1 2.773 0Z" fill="url(#j)"/><path d="M1.898 12.226a.949.949 0 1 1-1.898 0 .949.949 0 0 1 1.898 0Z" fill="url(#k)"/><path d="M11.97 7.336a.584.584 0 1 1-1.167 0 .584.584 0 0 1 1.168 0Z" fill="url(#l)"/><path d="M6.277 28.869a.803.803 0 1 1-1.605 0 .803.803 0 0 1 1.605 0Z" fill="url(#m)"/><path d="M22.044 17.409a3.066 3.066 0 1 1-6.132 0 3.066 3.066 0 0 1 6.132 0Z" fill="url(#n)"/><path fill-rule="evenodd" clip-rule="evenodd" d="m26.496 15.584 15.256-.073V45h-14.35c-5.723 0-12.12-4.443-13.634-10.746l-.062-.262a.619.619 0 0 0-.275-.379c-.284-.157-.686-.143-.988-.025l-.253.098c-.386.15-.816.17-1.072-.043-.27-.227-.461-.553-.461-.906 0-.564.452-1.022 1.016-1.022h.444c.2 0 .44-.115.61-.196l.033-.016.014-.007.51-.292c1.096-.803 2.111-1.6 2.336-2.992.273-1.686-.73-3.504-1.855-4.383l-.188-.143c-.389-.293-.862-.632-1.34-.724l-.412-.079a8.959 8.959 0 0 0-.707-.097c-.277-.03-.555-.061-.826-.122-1.566-.35-2.628-1.686-2.628-3.357 0-1.935 1.496-3.431 3.43-3.431 1.205 0 2.268.534 2.898 1.46.243.356.367.622.482.869.184.393.344.737.928 1.32 1.605 1.606 3.795 2.263 5.795.94 1.744-1.154 1.725-3.363 1.516-5.279a1.721 1.721 0 0 0-.07-.33 3.165 3.165 0 0 0-.483-.944l-.114-.153a1.679 1.679 0 1 1 3.064-.949l-.009.09c-.043.473-.017.95.076 1.415l.007.04.003.016c.031.18.25 1.147 1.31 1.213Zm11.606 3.577v3.722H27.81c-3.991 0-7.226 3.371-7.226 7.362 0 4.076 3.316 7.438 7.392 7.417l6.404-.034v-7.3h-3.723v3.625H27.98a3.674 3.674 0 1 1 0-7.347h10.157v14.817H27.81c-6.087 0-11.022-4.989-11.022-11.076 0-6.148 4.984-11.186 11.132-11.186h10.182Z" fill="url(#o)"/><path d="M11.825 30.547a3.066 3.066 0 1 0 0-6.13 3.066 3.066 0 0 0 0 6.13Z" fill="url(#p)"/><path d="M15.182 5h1.898v1.898h-1.897V5Z" fill="url(#q)"/><path d="M5.401 6.168H7.3v1.898H5.401V6.168Z" fill="url(#r)"/><path d="M4.818 11.57h3.211v3.503H4.818v-3.504Z" fill="url(#s)"/><path d="M1.168 17.409h2.044v1.898H1.168v-1.898Z" fill="url(#t)"/><defs><linearGradient id="a" x1="2.482" y1="15.73" x2="144.453" y2="32.518" gradientUnits="userSpaceOnUse"><stop stop-color="#fff"/><stop offset=".17" stop-color="#BAC7E1"/><stop offset="1" stop-color="#BAC7E1"/></linearGradient><linearGradient id="b" x1="2.482" y1="15.73" x2="144.453" y2="32.518" gradientUnits="userSpaceOnUse"><stop stop-color="#fff"/><stop offset=".17" stop-color="#BAC7E1"/><stop offset="1" stop-color="#BAC7E1"/></linearGradient><linearGradient id="c" x1="2.482" y1="15.73" x2="144.453" y2="32.518" gradientUnits="userSpaceOnUse"><stop stop-color="#fff"/><stop offset=".17" stop-color="#BAC7E1"/><stop offset="1" stop-color="#BAC7E1"/></linearGradient><linearGradient id="d" x1="2.482" y1="15.73" x2="144.453" y2="32.518" gradientUnits="userSpaceOnUse"><stop stop-color="#fff"/><stop offset=".17" stop-color="#BAC7E1"/><stop offset="1" stop-color="#BAC7E1"/></linearGradient><linearGradient id="e" x1="2.482" y1="15.73" x2="144.453" y2="32.518" gradientUnits="userSpaceOnUse"><stop stop-color="#fff"/><stop offset=".17" stop-color="#BAC7E1"/><stop offset="1" stop-color="#BAC7E1"/></linearGradient><linearGradient id="f" x1="2.482" y1="15.73" x2="144.453" y2="32.518" gradientUnits="userSpaceOnUse"><stop stop-color="#fff"/><stop offset=".17" stop-color="#BAC7E1"/><stop offset="1" stop-color="#BAC7E1"/></linearGradient><linearGradient id="g" x1="2.482" y1="15.73" x2="144.453" y2="32.518" gradientUnits="userSpaceOnUse"><stop stop-color="#fff"/><stop offset=".17" stop-color="#BAC7E1"/><stop offset="1" stop-color="#BAC7E1"/></linearGradient><linearGradient id="h" x1="2.482" y1="15.73" x2="144.453" y2="32.518" gradientUnits="userSpaceOnUse"><stop stop-color="#fff"/><stop offset=".17" stop-color="#BAC7E1"/><stop offset="1" stop-color="#BAC7E1"/></linearGradient><linearGradient id="i" x1="2.482" y1="15.73" x2="144.453" y2="32.518" gradientUnits="userSpaceOnUse"><stop stop-color="#fff"/><stop offset=".17" stop-color="#BAC7E1"/><stop offset="1" stop-color="#BAC7E1"/></linearGradient><linearGradient id="j" x1="2.482" y1="15.73" x2="144.453" y2="32.518" gradientUnits="userSpaceOnUse"><stop stop-color="#fff"/><stop offset=".17" stop-color="#BAC7E1"/><stop offset="1" stop-color="#BAC7E1"/></linearGradient><linearGradient id="k" x1="2.482" y1="15.73" x2="144.453" y2="32.518" gradientUnits="userSpaceOnUse"><stop stop-color="#fff"/><stop offset=".17" stop-color="#BAC7E1"/><stop offset="1" stop-color="#BAC7E1"/></linearGradient><linearGradient id="l" x1="2.482" y1="15.73" x2="144.453" y2="32.518" gradientUnits="userSpaceOnUse"><stop stop-color="#fff"/><stop offset=".17" stop-color="#BAC7E1"/><stop offset="1" stop-color="#BAC7E1"/></linearGradient><linearGradient id="m" x1="2.482" y1="15.73" x2="144.453" y2="32.518" gradientUnits="userSpaceOnUse"><stop stop-color="#fff"/><stop offset=".17" stop-color="#BAC7E1"/><stop offset="1" stop-color="#BAC7E1"/></linearGradient><linearGradient id="n" x1="2.482" y1="15.73" x2="144.453" y2="32.518" gradientUnits="userSpaceOnUse"><stop stop-color="#fff"/><stop offset=".17" stop-color="#BAC7E1"/><stop offset="1" stop-color="#BAC7E1"/></linearGradient><linearGradient id="o" x1="2.482" y1="15.73" x2="144.453" y2="32.518" gradientUnits="userSpaceOnUse"><stop stop-color="#fff"/><stop offset=".17" stop-color="#BAC7E1"/><stop offset="1" stop-color="#BAC7E1"/></linearGradient><linearGradient id="p" x1="2.482" y1="15.73" x2="144.453" y2="32.518" gradientUnits="userSpaceOnUse"><stop stop-color="#fff"/><stop offset=".17" stop-color="#BAC7E1"/><stop offset="1" stop-color="#BAC7E1"/></linearGradient><linearGradient id="q" x1="2.482" y1="15.73" x2="144.453" y2="32.518" gradientUnits="userSpaceOnUse"><stop stop-color="#fff"/><stop offset=".17" stop-color="#BAC7E1"/><stop offset="1" stop-color="#BAC7E1"/></linearGradient><linearGradient id="r" x1="2.482" y1="15.73" x2="144.453" y2="32.518" gradientUnits="userSpaceOnUse"><stop stop-color="#fff"/><stop offset=".17" stop-color="#BAC7E1"/><stop offset="1" stop-color="#BAC7E1"/></linearGradient><linearGradient id="s" x1="2.482" y1="15.73" x2="144.453" y2="32.518" gradientUnits="userSpaceOnUse"><stop stop-color="#fff"/><stop offset=".17" stop-color="#BAC7E1"/><stop offset="1" stop-color="#BAC7E1"/></linearGradient><linearGradient id="t" x1="2.482" y1="15.73" x2="144.453" y2="32.518" gradientUnits="userSpaceOnUse"><stop stop-color="#fff"/><stop offset=".17" stop-color="#BAC7E1"/><stop offset="1" stop-color="#BAC7E1"/></linearGradient></defs></svg>