<svg width="166" height="42" fill="none" xmlns="http://www.w3.org/2000/svg"><g clip-path="url(#a)" fill="#BAC7E1"><path d="M43.712 22.846c-.807 1.759-2.824 2.517-4.538 1.69-1.714-.828-2.453-2.932-1.647-4.69.807-1.76 2.824-2.518 4.538-1.69.74.38 1.344 1 1.68 1.759h2.656c-.773-3.276-4-5.311-7.193-4.483-3.193.827-5.176 4.103-4.37 7.38.807 3.276 4 5.31 7.193 4.482a6.033 6.033 0 0 0 4.37-4.483h-2.69v.035ZM55.812 15.776c-.74-.345-1.547-.551-2.387-.517-.84 0-1.68.276-2.386.759v-.345h-2.42v11.346h2.453v-5.45c-.033-.723 0-1.482.168-2.206v-.07c.135-.482.47-.896.908-1.137a2.466 2.466 0 0 1 2.655 0l1.009-2.38ZM65.089 15.673v5.449c.033.724 0 1.483-.168 2.207v.069c-.135.483-.47.896-.908 1.138a2.539 2.539 0 0 1-2.655-.035 1.897 1.897 0 0 1-.908-1.138v-.069a9.78 9.78 0 0 1-.168-2.207v-5.414H57.83v6.173c-.068 1 .1 2.035.403 2.966a3.638 3.638 0 0 0 1.983 2.034c.74.345 1.546.552 2.387.517.84 0 1.68-.275 2.386-.758v.38h2.42V15.672h-2.32ZM72.954 27.019v-5.45a9.63 9.63 0 0 1 .168-2.206v-.07c.134-.482.47-.896.907-1.137a2.466 2.466 0 0 1 2.656 0c.437.241.773.655.907 1.138v.069a9.75 9.75 0 0 1 .135 2.207v5.449h2.42V20.81c.067-1-.068-2.034-.404-2.965a3.638 3.638 0 0 0-1.983-2.035c-.74-.345-1.546-.552-2.386-.518-.84 0-1.68.276-2.387.76v-.346h-2.453V27.02h2.42ZM91.407 22.846c-.807 1.759-2.823 2.517-4.537 1.69-1.715-.828-2.454-2.897-1.648-4.656.807-1.759 2.824-2.517 4.538-1.69.74.38 1.345 1 1.68 1.76h2.656c-.773-3.277-4-5.312-7.193-4.484-3.193.828-5.176 4.104-4.37 7.38.807 3.276 4 5.31 7.194 4.483a6.033 6.033 0 0 0 4.369-4.483h-2.689ZM98.768 27.019v-5.45c-.034-.723 0-1.482.168-2.206v-.07c.134-.482.47-.896.907-1.137a2.466 2.466 0 0 1 2.656 0c.437.241.773.655.907 1.138v.069c.135.724.202 1.483.168 2.207v5.449h2.42V20.81c.068-1-.101-2.034-.403-2.965a3.64 3.64 0 0 0-1.983-2.035c-.74-.345-1.546-.552-2.387-.517-.84 0-1.68.275-2.386.758V9.5h-2.454v17.519h2.387ZM114.734 15.26h-.437c-1.042.068-2.05.447-2.924 1.068V9.5h-2.42v17.519h2.42v-.656a5.874 5.874 0 0 0 8.302-1.482c1.882-2.76 1.243-6.587-1.446-8.518-1.008-.725-2.251-1.138-3.495-1.104Zm3.395 6.551v.104l-.101.414c-.034.137-.101.31-.168.448v.069a3.49 3.49 0 0 1-2.387 1.931l-.336.069h-.437c-.168 0-.302 0-.47-.034h-.101a2.593 2.593 0 0 1-.874-.276h-.067a3.8 3.8 0 0 1-.773-.518c-.236-.207-.437-.482-.605-.724-.068-.138-.168-.276-.236-.448-.403-.931-.369-1.966.034-2.897a3.456 3.456 0 0 1 2.756-2h.336c1.849.034 3.328 1.517 3.361 3.414.101.138.101.276.068.448ZM122.632 21.328c.034 3.38 2.723 6.105 6.017 6.07 1.176 0 2.285-.38 3.26-1.035v.656h2.42V15.673h-2.42v.69c-.874-.621-1.882-.966-2.924-1.07h-.437c-3.227 0-5.882 2.69-5.916 6.035Zm2.521 0c0-1.93 1.546-3.517 3.429-3.517h.336c1.176.138 2.218.897 2.756 2a3.62 3.62 0 0 1 .034 2.897c-.068.138-.135.31-.236.448a3.12 3.12 0 0 1-.605.725c-.235.206-.504.379-.773.517h-.067c-.269.138-.571.207-.874.276h-.067c-.168.034-.303.034-.471.034h-.403l-.336-.069a3.546 3.546 0 0 1-2.353-1.897v-.069c-.067-.137-.135-.275-.168-.448l-.101-.414v-.103c-.034-.104-.067-.241-.101-.38ZM145.522 19.052v-.069c0-1.862-1.378-3.724-4.471-3.758-3.092-.035-4.436 1.862-4.47 3.69v.137c.067 1.07.672 2.415 2.958 2.966l2.05.483c.538.138 1.446.414 1.513 1.138 0 .966-1.21 1.448-2.051 1.448-1.008 0-2.05-.551-2.05-1.482v-.07h-2.42v.035c0 1.862 1.378 3.724 4.47 3.759 3.093.034 4.471-1.897 4.471-3.759v-.034c-.067-1.07-.639-2.449-2.958-3l-2.05-.483c-.437-.104-1.513-.414-1.513-1.104 0-1.069 1.076-1.448 2.05-1.448 1.009 0 2.051.551 2.051 1.482v.07h2.42ZM159.034 21.087c0-3.69-2.454-5.862-5.68-5.862-3.126-.104-5.748 2.38-5.849 5.586v.449c-.134 3.241 2.319 5.966 5.479 6.104h.37c1.176 0 2.353-.276 3.395-.897a4.681 4.681 0 0 0 2.184-2.931h-2.386c-.572 1.069-1.614 1.586-3.092 1.586-1.984 0-3.462-1.586-3.462-3.104h9.008c.033-.379.033-.62.033-.93Zm-9.075-1.138c.336-1.552 1.714-2.62 3.26-2.517 1.714 0 3.093 1.034 3.328 2.517h-6.588Z"/></g><g clip-path="url(#b)" fill="#BAC7E1"><path d="M23.674 21.882a.168.168 0 0 0 0-.067v-.048c.031-.075.06-.152.083-.23 0-.54-.206-1.056-.572-1.437a1.916 1.916 0 0 0-1.381-.595h-.194a1.917 1.917 0 0 0-.927.363 2.024 2.024 0 0 0-.823 1.65c0 .28.053.556.157.814a.55.55 0 0 0 .059.097c.035.05.07.1.07.152a1.905 1.905 0 0 0 .774.738c.157.079.325.134.497.163h.81c.131-.033.258-.081.378-.144a1.947 1.947 0 0 0 1.014-1.207 1.21 1.21 0 0 0 .055-.25Z"/><path fill-rule="evenodd" clip-rule="evenodd" d="M9.21 9.5h17.688a2.178 2.178 0 0 1 1.56.676c.415.431.649 1.015.651 1.624v18.4a2.357 2.357 0 0 1-.65 1.624c-.414.43-.975.674-1.56.676H9.21a2.178 2.178 0 0 1-1.56-.676A2.357 2.357 0 0 1 7 30.2V11.8c.002-.61.236-1.193.65-1.624.414-.43.975-.673 1.56-.676Zm12.28 8.481h.25a3.29 3.29 0 0 1 1.934.63c.568.41 1.002.992 1.242 1.667s.275 1.41.1 2.106a3.538 3.538 0 0 1-1.075 1.788c-.289.26-.62.463-.976.604-.51.206-1.061.28-1.605.217a3.31 3.31 0 0 1-1.518-.581v.364H18.45v-10.13h1.381v3.939a3.36 3.36 0 0 1 1.659-.604Zm-6.323 5.349a1.99 1.99 0 0 0 .897-.97h1.53a3.542 3.542 0 0 1-1.367 2.07 3.298 3.298 0 0 1-2.341.603 3.36 3.36 0 0 1-2.138-1.164 3.62 3.62 0 0 1-.856-2.347c0-.864.305-1.7.856-2.346a3.36 3.36 0 0 1 2.138-1.165 3.299 3.299 0 0 1 2.341.604 3.542 3.542 0 0 1 1.367 2.069h-1.53a1.99 1.99 0 0 0-.897-.97 1.876 1.876 0 0 0-1.284-.168 1.934 1.934 0 0 0-1.1.707c-.28.36-.431.808-.431 1.27 0 .461.152.909.43 1.268.28.36.668.61 1.101.707.434.098.887.039 1.284-.168Z"/></g><defs><clipPath id="a"><path fill="#fff" transform="translate(34.636 9.5)" d="M0 0h124.364v18.208H0z"/></clipPath><clipPath id="b"><path fill="#fff" transform="translate(7 9.5)" d="M0 0h22.109v23H0z"/></clipPath></defs></svg>