<svg width="175" height="50" fill="none" xmlns="http://www.w3.org/2000/svg"><g clip-path="url(#a)" fill="#BAC7E1"><path d="M56.191 34.256a11.605 11.605 0 0 1-4.303-.71 5.638 5.638 0 0 1-2.703-2.123 6.233 6.233 0 0 1-.924-3.501v-.15h3.753v.484c-.024.471.094.94.338 1.344.307.392.748.659 1.238.75.853.188 1.727.27 2.601.24.771.02 1.542-.038 2.302-.173.42-.054.808-.248 1.102-.551.21-.278.316-.62.3-.967a1.394 1.394 0 0 0-.512-1.21 4.627 4.627 0 0 0-1.79-.618l-4.704-.75a7.8 7.8 0 0 1-2.563-.885 4.352 4.352 0 0 1-1.644-1.648 5.12 5.12 0 0 1-.575-2.51 5.19 5.19 0 0 1 .415-2.011 4.865 4.865 0 0 1 1.316-1.79 6.681 6.681 0 0 1 2.383-1.257 11.498 11.498 0 0 1 3.588-.483 9.912 9.912 0 0 1 4.246.793 5.463 5.463 0 0 1 2.485 2.224 6.533 6.533 0 0 1 .803 3.317v.16H59.57v-.378c.02-.486-.097-.969-.338-1.392a2.05 2.05 0 0 0-1.238-.793 10.038 10.038 0 0 0-2.577-.256 9.284 9.284 0 0 0-2.118.188 2.06 2.06 0 0 0-1.078.566c-.225.27-.34.616-.325.967-.01.293.059.584.199.841.143.235.356.42.609.527.362.15.74.257 1.127.32l4.704.807c1.056.144 2.073.5 2.989 1.044a4.4 4.4 0 0 1 1.615 1.76c.332.71.497 1.485.483 2.268a5.106 5.106 0 0 1-3.152 4.778 10.154 10.154 0 0 1-4.28.778ZM72.568 34.255a8.524 8.524 0 0 1-3.68-.755 5.405 5.405 0 0 1-2.48-2.306 7.954 7.954 0 0 1-.876-3.917 7.547 7.547 0 0 1 .876-3.718 6.083 6.083 0 0 1 2.417-2.418 7.423 7.423 0 0 1 3.641-.86 8.153 8.153 0 0 1 3.617.72 5.512 5.512 0 0 1 2.389 2.214c.6 1.099.893 2.338.85 3.588 0 .232 0 .445-.023.643-.025.199-.044.411-.078.643H67.96v-2.127h8.611l-.85 1.325V26.28c0-1.02-.262-1.75-.78-2.2-.517-.45-1.358-.662-2.528-.662-1.267 0-2.15.264-2.65.793-.483.527-.75 1.363-.75 2.51v1.02c0 1.145.247 1.982.75 2.509.503.527 1.393.793 2.679.793 1.098 0 1.876-.155 2.326-.484a1.49 1.49 0 0 0 .677-1.315v-.266h3.752v.295a4.25 4.25 0 0 1-.827 2.577 5.397 5.397 0 0 1-2.316 1.756 8.887 8.887 0 0 1-3.486.648ZM85.192 33.984H81.44V16.001h3.752v17.983ZM96.256 23.872h-9.41V20.52h9.41v3.35Zm-3.868 10.115h-3.753V21.454a5.318 5.318 0 0 1 .735-2.828 4.985 4.985 0 0 1 2.205-1.934 8.297 8.297 0 0 1 3.588-.702h1.102v2.926h-1.702c-.967 0-1.634.16-2.001.483-.368.324-.426.967-.174 1.973v12.615ZM112.623 34.253a9.514 9.514 0 0 1-4.767-1.14 7.732 7.732 0 0 1-3.105-3.221 10.445 10.445 0 0 1-1.088-4.898 10.432 10.432 0 0 1 1.088-4.899 7.733 7.733 0 0 1 3.105-3.22 9.514 9.514 0 0 1 4.767-1.141c1.56-.038 3.109.264 4.541.885a6.824 6.824 0 0 1 2.964 2.524 7.158 7.158 0 0 1 1.049 3.945v.402h-4.163v-.401c0-1.18-.339-2.06-1.011-2.63-.672-.572-1.775-.862-3.293-.862a6.973 6.973 0 0 0-2.949.523c-.733.34-1.31.944-1.615 1.692a8.245 8.245 0 0 0-.484 3.182 8.27 8.27 0 0 0 .484 3.167c.3.753.878 1.362 1.615 1.702.93.384 1.933.562 2.94.522 1.518 0 2.615-.285 3.292-.856a3.28 3.28 0 0 0 1.021-2.63v-.402h4.177v.402a7.163 7.163 0 0 1-1.049 3.93 6.824 6.824 0 0 1-2.964 2.54c-1.436.623-2.99.925-4.555.884ZM126.942 33.984h-3.753V16.001h3.753v17.983Zm10.309 0h-3.753v-7.03c0-1.129-.246-1.92-.739-2.375-.484-.459-1.33-.686-2.515-.686a4.349 4.349 0 0 0-1.977.377c-.466.234-.83.63-1.026 1.112a5.049 5.049 0 0 0-.299 1.866h-.552l.054-2.601h.725a6.385 6.385 0 0 1 .774-2.147 4.348 4.348 0 0 1 1.639-1.61 5.246 5.246 0 0 1 2.664-.619 5.084 5.084 0 0 1 2.805.725 4.444 4.444 0 0 1 1.653 1.94c.375.88.561 1.831.547 2.79v8.258ZM143.609 34.256a4.805 4.805 0 0 1-3.177-.967 3.592 3.592 0 0 1-.701-4.352c.324-.506.785-.91 1.329-1.166a7.027 7.027 0 0 1 2.254-.604l5.613-.643v2.306l-4.608.566c-.341.01-.673.107-.967.28a.836.836 0 0 0-.314.712.849.849 0 0 0 .401.778c.381.187.805.27 1.228.242.751.02 1.5-.07 2.225-.266a2.565 2.565 0 0 0 1.339-.875c.338-.471.508-1.041.484-1.62l.348-.03V30.9h-.348c-.26 1-.871 1.871-1.722 2.456a5.8 5.8 0 0 1-3.384.9Zm8.809-.271h-3.505v-3.191l-.198-.054v-4.7c0-.875-.203-1.45-.614-1.77-.411-.318-1.113-.454-2.114-.454a3.57 3.57 0 0 0-2.055.455 1.87 1.87 0 0 0-.623 1.61v.106h-3.777v-.077a5.287 5.287 0 0 1 .822-2.94 5.482 5.482 0 0 1 2.321-1.968 8.332 8.332 0 0 1 3.569-.71 7.32 7.32 0 0 1 3.462.725 4.672 4.672 0 0 1 2.031 2.026c.461.956.688 2.009.662 3.07l.019 7.872ZM158.163 19.169h-3.757V16h3.757v3.168Zm0 14.815h-3.757V20.518h3.757v13.466ZM163.917 33.989h-3.752V20.522h3.476v4.207l.276.145v9.115Zm10.11 0h-3.752v-7.03c0-1.093-.237-1.877-.701-2.35-.464-.475-1.276-.712-2.418-.712-1.141 0-2.04.266-2.514.794-.474.527-.725 1.363-.725 2.509h-.484l-.275-2.524h.701c.117-.75.371-1.473.749-2.132a4.45 4.45 0 0 1 1.639-1.64 5.272 5.272 0 0 1 2.718-.628 5.198 5.198 0 0 1 2.838.73 4.352 4.352 0 0 1 1.678 1.934c.378.852.566 1.776.551 2.708l-.005 8.34ZM21.72 43.497h-6.48a8.607 8.607 0 0 1-8.587-8.602h3.704a4.894 4.894 0 0 0 4.884 4.898h6.479a4.898 4.898 0 0 0 3.128-8.636L10.052 21.97a2.349 2.349 0 0 1-.179-.126 8.602 8.602 0 0 1 5.368-15.347h6.479a8.602 8.602 0 0 1 8.587 8.597h-3.713a4.893 4.893 0 0 0-4.874-4.893h-6.48a4.894 4.894 0 0 0-3.128 8.65l14.791 9.187.184.126a8.603 8.603 0 0 1-5.367 15.313v.02Z"/><path d="M28.368 36.834V33.13a4.898 4.898 0 0 0 4.889-4.874v-6.504a4.884 4.884 0 0 0-8.641-3.133l-9.192 14.81c-.039.063-.082.121-.126.18A8.592 8.592 0 0 1-.001 28.255v-6.504a8.607 8.607 0 0 1 8.592-8.597v3.704a4.894 4.894 0 0 0-4.888 4.893v6.504a4.884 4.884 0 0 0 8.636 3.138l9.187-14.81c.037-.063.08-.123.126-.18a8.587 8.587 0 0 1 15.299 5.368v6.484a8.602 8.602 0 0 1-8.583 8.578Z"/></g><defs><clipPath id="a"><path fill="#fff" transform="translate(0 6.5)" d="M0 0h174.033v37H0z"/></clipPath></defs></svg>