<svg width="177" height="50" fill="none" xmlns="http://www.w3.org/2000/svg"><g filter="url(#a)"><path d="M124.845 37.587h-5.83l-11.069-11.011v11.011h-4.393V12.712h4.393v11.237l10.887-11.237h5.485l-12.204 12.207 12.731 12.668ZM131.258 16.515v6.664h12.129v3.71h-12.129v7.118h12.963v3.58h-17.418V12.712h17.418v3.803h-12.963ZM76.1 32.281l-1.456-3.79-6.06-15.78h-5.212l-6.068 15.78-1.46 3.79-2.038 5.306h4.807l1.938-5.306h10.913l1.963 5.306h4.712L76.1 32.281Zm-14.162-3.79 4.037-11.041 4.084 11.04h-8.12Z" fill="#BAC7E1"/><path d="m52.29 12.712-3.834 5.013H35.551l-4.623 10.079-2.809-6.19 1.781-3.889 2.303-5.013H52.29ZM35.368 37.587H26.44l1.674-3.652 2.816-6.131 4.44 9.783Z" fill="#9BABCB"/><path d="m30.929 27.804-2.816 6.131-1.674 3.652h-5.65l4.515-9.841-4.547-10.02H8.037L4 12.711h20.08l2.273 5.013 1.766 3.89 2.81 6.189Z" fill="#BAC7E1"/><path d="M92.631 16.483h-.793M92.48 24.117h-.492" stroke="#B73030" stroke-width=".29" stroke-miterlimit="10"/><path d="M92.48 24.117a2.321 2.321 0 0 1-.246.011c-.084 0-.165-.003-.246-.011h.493ZM92.631 16.483h-.793a3.005 3.005 0 0 1 .793 0Z" fill="#BAC7E1" stroke="#000" stroke-width=".287" stroke-miterlimit="10"/><path d="M90.445 27.372h3.707c3.322-.677 5.824-3.672 5.824-7.26 0-3.965-3.05-7.2-6.88-7.4H80.342v24.875h4.344V26.752l.62.62L95.56 37.587h5.65L90.445 27.372Zm-5.757-3.255v-7.634h7.15a3.007 3.007 0 0 1 .794 0c1.714.217 3.05 1.839 3.05 3.808 0 1.97-1.414 3.687-3.2 3.826a2.322 2.322 0 0 1-.247.011c-.084 0-.165-.002-.246-.011h-7.302Z" fill="#BAC7E1"/><path d="M93.095 12.712h-.747a8.026 8.026 0 0 1 .747 0ZM92.48 24.117a2.321 2.321 0 0 1-.246.011c-.084 0-.165-.003-.246-.011h.493ZM92.631 16.483h-.793a3.005 3.005 0 0 1 .793 0Z" fill="#BAC7E1" stroke="#000" stroke-width=".576" stroke-miterlimit="10"/><path d="M152.703 16.515v6.664h12.269v3.71h-12.269v10.698h-4.318V12.712h17.267v3.803h-12.949ZM173 12.712h-4.318v24.875H173V12.712Z" fill="#BAC7E1"/></g><defs><filter id="a" x="0" y="12.413" width="177" height="33.174" filterUnits="userSpaceOnUse" color-interpolation-filters="sRGB"><feFlood flood-opacity="0" result="BackgroundImageFix"/><feColorMatrix in="SourceAlpha" values="0 0 0 0 0 0 0 0 0 0 0 0 0 0 0 0 0 0 127 0" result="hardAlpha"/><feOffset dy="4"/><feGaussianBlur stdDeviation="2"/><feComposite in2="hardAlpha" operator="out"/><feColorMatrix values="0 0 0 0 0 0 0 0 0 0 0 0 0 0 0 0 0 0 0.27 0"/><feBlend in2="BackgroundImageFix" result="effect1_dropShadow_3585_1310"/><feBlend in="SourceGraphic" in2="effect1_dropShadow_3585_1310" result="shape"/></filter></defs></svg>