<svg width="197" height="56" fill="none" xmlns="http://www.w3.org/2000/svg"><g filter="url(#a)" fill="#BAC7E1"><path d="M19.328 2.875c-1.153.096-2.808.445-3.946.823-2.784.932-5.52 2.922-7.29 5.309-.22.296-.889 1.282-.889 1.31a.598.598 0 0 1-.086.149c-.22.315-.655 1.167-.918 1.803a16.484 16.484 0 0 0-1.206 5.204c-.095 1.482.067 3.08.483 4.72.163.655.364 1.316.484 1.602.019.053.129.321.243.598.115.278.235.546.264.593.052.077.033.14-.125.43-.56 1.024-1.138 3.177-1.296 4.837-.09.942-.029 2.85.124 3.73.503 2.937 1.469 5.142 3.224 7.342a15.57 15.57 0 0 0 6.084 4.606c1.181.502 2.932.961 4.252 1.114.143.015.316.039.378.048.062.01.459.029.885.048 1.985.081 4.53-.378 6.438-1.162 4.027-1.655 7.255-5.065 8.719-9.222.42-1.19.78-2.946.827-4.041.01-.302.034-.627.043-.718.034-.253-.067-1.98-.143-2.439-.125-.76-.158-.933-.282-1.44-.225-.928-.57-2.004-.818-2.549-.034-.081-.12-.273-.192-.43l-.124-.278.134-.225c.545-.904 1.133-3.037 1.325-4.764.177-1.583.033-3.5-.383-5.237-.134-.55-.143-.579-.358-1.243-1.435-4.453-5.176-8.213-9.662-9.714-1.005-.335-2.621-.694-3.535-.78-.564-.053-2.157-.067-2.654-.024Zm2.367 2.22c2.445.171 5.128 1.262 7.175 2.912.507.407 1.688 1.602 2.061 2.085a14.354 14.354 0 0 1 2.038 3.635c.794 2.114 1.009 4.449.631 6.835-.139.895-.445 2.019-.526 1.933-.02-.024-.206-.254-.411-.517-.88-1.105-1.516-1.67-6.046-5.357-.904-.736-1.88-1.535-2.171-1.77-1.383-1.133-1.842-1.492-2.22-1.745-.923-.613-2.114-.91-3.28-.809-.647.053-1.589.283-2.062.498-.655.296-1.459.89-1.89 1.387-.717.832-1.123 1.65-1.33 2.702-.028.144-.066.316-.08.383a6.416 6.416 0 0 0-.03.717c0 1.253.426 2.506 1.182 3.463.455.584.421.55 3.54 3.143l3.993 3.31c1.297 1.07 1.937 1.63 2.114 1.846.225.267.536.894.637 1.272.1.387.105 1.334 0 1.722a5.231 5.231 0 0 1-.292.731c-.182.373-.287.517-.632.861-.454.455-.846.703-1.444.904-.301.106-.469.125-1.052.144-.598.019-.737.01-.99-.072-.479-.153-.852-.392-1.76-1.143-.474-.387-1.067-.87-1.316-1.076-.248-.201-.727-.588-1.057-.861-.335-.268-.88-.718-1.22-.99a107.64 107.64 0 0 1-2.439-2.014 75.222 75.222 0 0 0-.909-.765 12.605 12.605 0 0 1-3.018-3.611c-.282-.512-.731-1.43-.731-1.497 0-.02-.029-.091-.067-.158-.082-.163-.43-1.22-.531-1.617-.502-1.994-.502-4.64.005-6.51A13.814 13.814 0 0 1 9.14 11.38c.847-1.406 2.152-2.822 3.516-3.802 1.506-1.09 3.4-1.928 5.094-2.263 1.272-.253 2.51-.32 3.945-.22Zm-1.238 9.603c.526.182.765.354 2.554 1.832.406.335 1.932 1.583 3.946 3.22 1.3 1.056 2.975 2.515 3.31 2.878 1.07 1.177 1.726 2.167 2.381 3.607.842 1.846 1.186 3.582 1.134 5.71-.038 1.574-.187 2.507-.579 3.698-.808 2.449-2.047 4.338-3.95 6.022-1.66 1.473-3.904 2.582-6.123 3.027-1.1.225-2.85.297-4.09.177-2.802-.277-5.648-1.607-7.724-3.611-1.19-1.153-1.918-2.128-2.735-3.688-.555-1.057-1.086-2.74-1.234-3.898-.125-1-.134-1.234-.12-2.272.014-1.061.096-1.855.268-2.63.057-.258.33-1.22.363-1.277.01-.02.163.138.335.359.689.85 1.32 1.506 1.928 1.994.143.12.44.363.65.55.751.65 2.062 1.722 5.238 4.3.483.397 1.119.913 1.406 1.153.774.645 1.33 1.052 1.712 1.262 1.43.775 3.4.785 5.08.029.396-.182 1.095-.665 1.473-1.028.645-.613 1.291-1.646 1.487-2.373.225-.837.263-1.133.249-1.836-.029-1.359-.426-2.45-1.282-3.511-.335-.421-.799-.823-4.175-3.616a1398.137 1398.137 0 0 1-4.697-3.908c-.694-.578-1-1.014-1.253-1.774-.197-.57-.182-1.526.028-2.09.392-1.057 1.139-1.827 2.133-2.2.436-.163.713-.206 1.397-.206.478-.005.627.014.89.1ZM134.418 12.965c-.333.101-.7.419-.866.758l-.063.132a.705.705 0 0 0-.06.264l.014 10.997.022 10.692v.01c.003.226.071.448.191.64l.002.003.004.006c.346.452.606.582 1.183.61.538.03.826-.056 1.163-.368l.013-.016c.416-.668.406-.145.442-5.669l.037-5.064a.15.15 0 0 1 .01-.055l.177-.45c.499-1.286 1.373-2.182 2.579-2.644.383-.145.65-.195 1.279-.217.917-.043 1.466.072 2.167.433.571.296 1.524 1.25 1.828 1.828.484.932.476.773.498 6.205.014 2.612.027 4.834.056 5.062.025.19.082.289.201.44.153.194.341.323.611.436.13.05.44.094.7.094.398 0 .559-.087.809-.238a1.67 1.67 0 0 0 .492-.52c.151-.282.151-.376.151-5.382 0-5.367 0-5.367-.339-6.43-.686-2.145-2.536-3.994-4.681-4.68-.795-.253-1.3-.325-2.276-.325-.975 0-1.481.072-2.275.325-.477.151-1.365.578-1.784.86a.156.156 0 0 1-.239-.131v-6.417a.347.347 0 0 0-.013-.095l-.045-.17c-.018-.06-.078-.2-.109-.253-.151-.252-.342-.398-.62-.54-.4-.21-.84-.253-1.259-.13ZM172.285 12.995c-.448.116-.882.477-1.091.896-.224.455-.224 1.22-.007 1.64.411.787 1.321 1.155 2.217.888.398-.116 1.012-.73 1.12-1.112.282-1.026-.224-2.023-1.178-2.305-.426-.13-.614-.13-1.061-.007ZM61.84 19.546c-1.105.144-2.015.62-2.896 1.502-.491.499-.687.752-.918 1.236-.44.902-.549 1.386-.541 2.456.014 1.531.375 2.528 1.213 3.308.759.708 1.46 1.019 4.118 1.792 1.286.368 1.64.541 2.008.968.592.693.542 1.791-.123 2.578-.108.123-.358.29-.636.448l-.02.01a1.97 1.97 0 0 1-.893.214h-2.027c-1.524 0-2.607.03-2.774.08a1.49 1.49 0 0 0-.534.303 1.556 1.556 0 0 0 .072 2.391c.183.145.409.224.642.224h2.609c2.716 0 3.012-.014 3.373-.137 1.416-.477 2.47-1.387 3.114-2.68.354-.723.498-1.38.498-2.333 0-1.727-.585-2.948-1.755-3.677-.708-.441-1.207-.636-2.955-1.134-1.791-.513-2.095-.636-2.485-1.034-.953-.953-.657-2.622.585-3.294.275-.151.412-.159 2.384-.195 1.994-.036 2.11-.05 2.406-.202 1.062-.563 1.054-2.138-.007-2.709-.29-.152-.39-.159-2.146-.173-1.011 0-2.051.021-2.312.058ZM77.588 19.517c-2.247.21-4.031 1.055-5.584 2.637-1.22 1.25-2.008 2.723-2.34 4.37-.152.795-.174 2.637-.03 3.417.593 3.287 3.143 6.032 6.422 6.92.65.174 1.5.189 2.218.189.888 0 1.792-.022 2.89-.369 2.138-.686 4.247-2.579 5.194-4.66.895-1.971 1.025-4.507.325-6.595-.889-2.658-3.345-4.955-6.018-5.634-1.011-.253-2.189-.361-3.077-.275Zm2.297 3.273c1.907.534 3.49 2.16 4.031 4.125.18.642.18 2.232 0 2.875-.455 1.661-1.705 3.135-3.25 3.835-1.648.752-3.692.636-5.245-.289a6.038 6.038 0 0 1-2.688-3.525c-.209-.773-.209-2.13.008-2.918.563-2.131 2.427-3.858 4.565-4.24.607-.109 1.965-.037 2.58.137ZM96.912 19.54c-1.886.216-3.59 1.018-5.014 2.347-1.835 1.734-2.752 3.872-2.752 6.43 0 2.492.81 4.464 2.564 6.212 1.048 1.047 2.168 1.755 3.396 2.153 1.105.354 2.213.368 2.89.368.477 0 1.567-.014 2.239-.195.902-.246 2.138-.845 2.903-1.409l.586-.433.028.6c.022.541.169.841.334 1.038.309.283.468.406 1.082.428.672.022 1.439-.177 1.568-1.182v-4.243c0-4.912-.015-5.078-.448-6.285-.896-2.5-2.983-4.58-5.418-5.403-1.184-.398-2.723-.564-3.958-.426Zm2.817 3.28c.896.303 1.502.7 2.275 1.48.773.78 1.149 1.365 1.416 2.21.679 2.146.152 4.313-1.423 5.873-1.148 1.142-2.449 1.676-4.067 1.676-1.604 0-2.839-.505-3.98-1.625-.94-.917-1.43-1.827-1.669-3.048-.491-2.565.867-5.201 3.244-6.307.86-.404 1.408-.505 2.578-.484.91.022 1.127.05 1.626.224ZM115.072 19.54c-2.492.295-4.616 2.036-5.447 4.485-.317.918-.332 1.315-.31 6.892l.02 4.983c.001.189.059.373.168.528.332.463.635.622 1.206.65.563.03.932-.094 1.242-.433.38-.552.383-.296.383-5.75 0-3.092.029-5.201.073-5.432.216-1.163 1.134-2.262 2.224-2.68.333-.123.636-.167 1.532-.21 1.257-.058 1.409-.108 1.828-.57.288-.326.375-.622.325-1.2a1.42 1.42 0 0 0-1.12-1.271c-.325-.072-1.452-.072-2.124.007ZM126.999 19.51c-2.355.267-4.031 1.062-5.584 2.644-1.221 1.25-2.009 2.723-2.341 4.37-.152.795-.173 2.637-.029 3.417.593 3.287 3.143 6.025 6.422 6.92.65.174 1.532.206 2.218.196.741.01 1.582-.015 2.167-.174.845-.216 1.163-.397 1.394-.794.152-.26.188-.42.188-.802 0-.57-.145-.86-.592-1.206-.427-.326-.802-.369-1.561-.174-2.766.708-5.461-.498-6.725-3.02-.412-.823-.564-1.488-.556-2.535 0-1.055.144-1.72.556-2.535 1.25-2.493 4.038-3.764 6.66-3.027.838.23 1.236.173 1.741-.253.361-.303.477-.578.477-1.156 0-.845-.267-1.2-1.091-1.488-.809-.274-2.535-.477-3.344-.383ZM158.314 19.54c-1.885.216-3.59 1.018-5.013 2.347-1.835 1.734-2.753 3.872-2.753 6.43 0 2.492.809 4.464 2.565 6.212 1.047 1.047 2.167 1.755 3.395 2.153 1.105.354 2.309.368 2.889.368.523 0 1.568-.014 2.24-.195.903-.246 2.138-.845 2.904-1.409l.585-.433.029.6c.022.541.08.748.282.993.245.279.52.451 1.134.473.504.017.812-.065 1.085-.314.159-.145.418-.468.482-1.168v-3.943c0-4.912-.014-5.078-.448-6.285-.895-2.5-2.983-4.58-5.417-5.403-1.185-.398-2.724-.564-3.959-.426Zm2.817 3.28c.896.303 1.503.7 2.276 1.48.773.78 1.148 1.365 1.416 2.21.679 2.146.151 4.313-1.424 5.873-1.148 1.142-2.448 1.676-4.067 1.676-1.603 0-2.838-.505-3.98-1.625-.939-.917-1.43-1.827-1.669-3.048-.491-2.565.867-5.201 3.244-6.307.86-.404 1.409-.505 2.579-.484.91.022 1.127.05 1.625.224ZM172.343 19.56c-.383.123-.766.456-.925.803-.13.281-.137.628-.137 7.939 0 7.036-.029 7.644.222 8.089.148.26.382.466.661.575.398.156.892.187 1.262.047.275-.1.564-.275.752-.73.13-.26.137-.534.137-7.967 0-6.942-.015-7.722-.116-7.932-.103-.296-.448-.614-.686-.737-.275-.144-.86-.187-1.17-.086ZM183.785 19.547c-1.943.238-3.713 1.278-4.934 2.882-.477.621-1.033 1.77-1.235 2.528-.159.607-.159.665-.159 5.924v4.749c0 .19.014.595.166.799.332.462.636.621 1.207.65.549.029.838-.058 1.177-.376.405-.529.412-.13.448-5.678l.033-4.7c.002-.215.067-.556.147-.757l.044-.112c.498-1.286 1.372-2.182 2.579-2.644.383-.145.65-.195 1.278-.217.918-.043 1.467.073 2.167.434.571.296 1.525 1.25 1.828 1.827.484.932.477.773.499 6.205.012 2.243.007 4.047.046 4.7.024.42.125.65.242.807.366.49 1.02.526 1.28.526.287 0 .617-.056.923-.33.165-.149.272-.31.319-.417.278-.631.174-1.273.174-5.408 0-4.247-.021-5.266-.108-5.67-.592-2.789-2.824-5.035-5.598-5.62-.638-.131-1.873-.189-2.523-.102Z"/></g><defs><filter id="a" x=".967" y="2.85" width="195.067" height="52.301" filterUnits="userSpaceOnUse" color-interpolation-filters="sRGB"><feFlood flood-opacity="0" result="BackgroundImageFix"/><feColorMatrix in="SourceAlpha" values="0 0 0 0 0 0 0 0 0 0 0 0 0 0 0 0 0 0 127 0" result="hardAlpha"/><feOffset dy="4"/><feGaussianBlur stdDeviation="2"/><feComposite in2="hardAlpha" operator="out"/><feColorMatrix values="0 0 0 0 0 0 0 0 0 0 0 0 0 0 0 0 0 0 0.27 0"/><feBlend in2="BackgroundImageFix" result="effect1_dropShadow_3585_1274"/><feBlend in="SourceGraphic" in2="effect1_dropShadow_3585_1274" result="shape"/></filter></defs></svg>