<svg width="136" height="58" fill="none" xmlns="http://www.w3.org/2000/svg"><g filter="url(#a)" fill="#9BABCB"><path d="m39.012 20.95.011 11.732-10.072 5.916-.008 11.41L49.02 38.434l.046-23.225-10.054 5.74ZM26.879.007 6.619 11.692l10.105 5.78L26.9 11.696l10.098 5.776 10.043-5.826L26.879.007ZM14.736 32.682l.011-11.732-10.022-5.74.08 23.245 20.011 11.552-.009-11.409-10.071-5.916Z"/><path d="m34.977 21.033-8.081 4.668h-.001l.003 9.334 8.082-4.67-.003-9.332Z"/><path d="m26.898 35.035-.003-9.334-8.084-4.67.002 9.339 8.085 4.665Z"/><path d="m18.811 21.03 8.084 4.671 8.082-4.668-8.084-4.596-8.082 4.593Z"/></g><g filter="url(#b)" fill="#BAC7E1"><path d="M67.9 24.411c-.322.967-1.064 2.119-2.772 2.119-2.016 0-3.22-1.558-3.22-4.166 0-2.52 1.257-4.149 3.205-4.149 1.326 0 2.26.673 2.773 2l.058.148 1.51-.726-.048-.127c-.249-.66-1.293-2.818-4.278-2.818-3.034 0-4.996 2.233-4.996 5.689 0 3.508 1.903 5.688 4.964 5.688 3.19 0 4.18-2.38 4.408-3.11l.042-.137-1.599-.553-.047.142ZM75.182 24.602c0 .49-.124 2.087-1.71 2.087-1.1 0-1.49-.603-1.49-2.308v-4.288H70.38v4.808c0 2.133.873 3.17 2.667 3.17.922 0 1.67-.32 2.135-.91v.72h1.602v-7.788h-1.602v4.509Z"/><path fill-rule="evenodd" clip-rule="evenodd" d="M85.097 24.02c0 2.423-1.357 4.052-3.375 4.052-.904 0-1.675-.342-2.197-.967v.777h-1.602V16.885h1.602v3.99c.325-.377 1.011-.952 2.181-.952 2.06 0 3.39 1.608 3.39 4.098Zm-5.62-.016c0 1.672.745 2.67 1.993 2.67 1.249 0 1.993-1.003 1.993-2.686 0-1.68-.75-2.685-2.008-2.685-1.238 0-1.977 1.01-1.977 2.701ZM91.825 25.105l1.198.865-.064.114c-.534.958-1.73 1.981-3.482 1.981-2.324 0-3.768-1.577-3.768-4.115 0-2.376 1.524-4.035 3.706-4.035 2.211 0 3.531 1.526 3.531 4.082v.369h-5.595c.101 1.464.865 2.27 2.158 2.27 1.275 0 1.885-.794 2.234-1.39l.082-.141Zm-2.426-3.888c-1.145 0-1.898.694-2.027 1.862h3.89c-.05-.876-.563-1.862-1.863-1.862Z"/><path d="M100.012 22.73c-.29.86-.672 2.075-.875 2.75l-.148-.466a61.686 61.686 0 0 0-.838-2.523l-2.019-5.607h-2.14v10.998h1.65v-5.168c0-.753-.027-2.153-.058-3.177.317 1.082.79 2.595 1.061 3.352l1.782 4.994h1.375l1.859-5.464c.215-.578.635-1.97.948-3.047a106.544 106.544 0 0 0-.085 3.31v5.2h1.649V16.885h-2.159l-2.002 5.845Z"/><path fill-rule="evenodd" clip-rule="evenodd" d="m112.156 26.744.231-.033v1.148l-.109.03c-.17.047-.419.1-.842.1-.715 0-1.15-.28-1.295-.83-.611.612-1.389.91-2.372.91-1.703 0-2.761-.902-2.761-2.352 0-1.746 1.567-2.216 3.101-2.445l.958-.157c.756-.118.931-.24.931-.657 0-.61-.187-1.175-1.536-1.175-1.128 0-1.632.44-1.632 1.427v.16l-1.524-.118.001-.137c.016-1.695 1.166-2.666 3.155-2.666 2.016 0 3.017.778 3.059 2.38 0 .214.004.426.008.637.004.215.008.428.008.64v2.504c0 .61.159.655.403.655.078 0 .136-.009.216-.02Zm-4.041.053c.604 0 1.07-.172 1.422-.524.248-.248.477-.581.477-1.343v-.8a3.053 3.053 0 0 1-.434.125l-1.405.284c-1.097.242-1.486.542-1.486 1.145 0 1.004.997 1.113 1.426 1.113Z"/><path d="m115.204 17.05-1.602.366v2.677h-1.559v1.288h1.559v4.968c0 1.175.607 1.722 1.911 1.722.599 0 1.036-.059 1.373-.183l.097-.035v-1.39l-.191.06c-.243.074-.538.15-.886.15-.584 0-.702-.141-.702-.844v-4.448h1.779v-1.288h-1.779V17.05ZM122.665 25.37c-.395.874-.988 1.282-1.864 1.282-1.278 0-2.072-1.018-2.072-2.655 0-1.681.775-2.684 2.072-2.684.887 0 1.48.462 1.812 1.411l.058.165 1.368-.743-.046-.121c-.512-1.342-1.681-2.11-3.208-2.11-2.197 0-3.673 1.647-3.673 4.098 0 2.5 1.408 4.052 3.673 4.052 2.022 0 2.914-1.39 3.203-1.988l.061-.127-1.317-.727-.067.146ZM128.576 19.922c-1.226 0-1.889.552-2.198.925v-3.963h-1.602v10.998h1.602v-4.476c0-1.55.916-2.103 1.773-2.103 1.123 0 1.521.604 1.521 2.308v4.271h1.602v-4.79c0-2.104-.907-3.17-2.698-3.17Z"/></g><g filter="url(#c)" fill="#9BABCB"><path fill-rule="evenodd" clip-rule="evenodd" d="M62.773 36.306h-.737v-5.64h2.096c.564 0 .879.058 1.144.166.588.257.944.73.944 1.451 0 .622-.273 1.078-.729 1.343-.406.242-.82.275-1.45.275h-1.268v2.405Zm0-3.053h1.351c.407 0 .597-.033.796-.099.398-.158.555-.44.555-.87 0-.432-.157-.714-.555-.872-.2-.066-.39-.1-.796-.1h-1.35v1.941ZM68.167 32.28c1.152 0 1.872.822 1.872 2.082 0 1.253-.712 2.057-1.872 2.057-1.16 0-1.865-.804-1.865-2.057 0-1.26.712-2.081 1.865-2.081Zm0 3.584c.695 0 1.177-.556 1.177-1.51 0-.97-.457-1.527-1.177-1.527-.704 0-1.168.557-1.168 1.528 0 .961.472 1.51 1.168 1.51Z"/><path d="M73.74 34.536c.082.323.206.755.248.93h.008l.249-.913.587-2.19h.689l-1.194 3.948h-.654l-.564-1.965a55.938 55.938 0 0 1-.29-1.113h-.008c-.025.108-.182.763-.29 1.12l-.589 1.958h-.67l-1.194-3.948h.721l.621 2.223c.1.323.175.688.232.88h.008c.059-.192.142-.565.242-.889l.62-2.214h.622l.605 2.173Z"/><path fill-rule="evenodd" clip-rule="evenodd" d="M76.254 34.47c.033.896.49 1.353 1.219 1.353.729 0 1.069-.473 1.242-.772l.506.365a2 2 0 0 1-1.765 1.003c-1.119 0-1.906-.738-1.906-2.09 0-1.227.77-2.048 1.873-2.048 1.176 0 1.781.854 1.781 2.074v.115h-2.95Zm2.221-.522c0-.614-.373-1.136-1.06-1.136-.704 0-1.11.464-1.152 1.136h2.212Z"/><path d="M80.464 32.367v.747c.108-.398.53-.813 1.16-.813.075 0 .158.008.233.025v.647a1.503 1.503 0 0 0-.266-.025c-.737 0-1.127.506-1.127 1.336v2.031h-.687v-3.947h.687ZM82.906 31.545h-.688v-.88h.688v.88Zm0 4.76h-.688v-3.947h.688v3.948ZM86.942 36.32h-.689v-2.173c0-.995-.29-1.295-.877-1.295-.705 0-1.012.573-1.012 1.187v2.28h-.687v-3.947h.687v.589c.166-.374.572-.68 1.235-.68.961 0 1.343.621 1.343 1.592v2.447Z"/><path fill-rule="evenodd" clip-rule="evenodd" d="M88.286 36.52c.04.48.257.879 1.01.879.92 0 1.11-.523 1.11-1.32v-.414c-.19.34-.571.646-1.243.646-1.027 0-1.69-.738-1.69-1.981 0-1.261.671-2.05 1.69-2.05.597 0 1.02.29 1.244.647v-.555h.687v3.766c0 1.294-.572 1.824-1.806 1.824-1.16 0-1.649-.563-1.69-1.335l.688-.108Zm1.027-3.66c-.705 0-1.135.49-1.135 1.445 0 .937.398 1.434 1.127 1.434.695 0 1.126-.506 1.126-1.434 0-.938-.422-1.444-1.118-1.444Z"/><path d="M96.637 32.327c-.257-.663-.746-1.103-1.533-1.103-1.135 0-1.764.961-1.764 2.264 0 1.352.62 2.273 1.773 2.273.828 0 1.309-.498 1.532-1.17l.696.24c-.24.772-.927 1.585-2.245 1.585-1.632 0-2.535-1.186-2.535-2.92 0-1.717.952-2.92 2.552-2.92 1.217 0 1.914.73 2.18 1.436l-.656.315ZM101.034 36.306h-.687v-2.173c0-.995-.29-1.295-.879-1.295-.704 0-1.01.573-1.01 1.187v2.28h-.688v-5.64h.687v2.282c.167-.374.597-.68 1.236-.68.96 0 1.341.621 1.341 1.592v2.447Z"/><path fill-rule="evenodd" clip-rule="evenodd" d="M101.678 33.62c.009-.861.613-1.326 1.583-1.326.795 0 1.508.224 1.533 1.178 0 .224.008.448.008.672v1.319c0 .323.083.423.29.423.058 0 .099-.008.157-.017v.457a1.56 1.56 0 0 1-.422.049c-.365 0-.605-.14-.63-.53-.174.198-.522.571-1.301.571-.787 0-1.375-.398-1.375-1.16 0-.814.679-1.079 1.565-1.212l.506-.082c.373-.059.555-.125.555-.423 0-.424-.199-.698-.886-.698-.697 0-.937.333-.937.83l-.646-.05Zm2.204 1.983c.166-.165.273-.373.273-.763v-.555c-.033.025-.065.067-.322.124l-.738.15c-.564.124-.845.29-.845.68 0 .464.364.664.828.664.34 0 .605-.1.804-.3Z"/><path d="M108.882 36.32h-.687v-2.173c0-.995-.29-1.295-.879-1.295-.704 0-1.01.573-1.01 1.187v2.28h-.688v-3.947h.688v.589c.165-.374.571-.68 1.234-.68.962 0 1.342.621 1.342 1.592v2.447Z"/><path fill-rule="evenodd" clip-rule="evenodd" d="M110.226 36.52c.041.48.256.879 1.01.879.921 0 1.111-.523 1.111-1.32v-.414c-.19.34-.572.646-1.243.646-1.027 0-1.69-.738-1.69-1.981 0-1.261.671-2.05 1.69-2.05.597 0 1.019.29 1.243.647v-.555h.688v3.766c0 1.294-.572 1.824-1.807 1.824-1.159 0-1.648-.563-1.69-1.335l.688-.108Zm1.027-3.66c-.704 0-1.135.49-1.135 1.445 0 .937.398 1.434 1.127 1.434.696 0 1.127-.506 1.127-1.434 0-.938-.422-1.444-1.119-1.444ZM114.29 34.47c.034.896.49 1.353 1.219 1.353.729 0 1.069-.473 1.243-.772l.505.365a2 2 0 0 1-1.765 1.003c-1.118 0-1.906-.738-1.906-2.09 0-1.227.771-2.048 1.873-2.048 1.176 0 1.781.854 1.781 2.074v.115h-2.95Zm2.221-.522c0-.614-.373-1.136-1.06-1.136-.704 0-1.111.464-1.152 1.136h2.212Z"/></g><defs><filter id="a" x=".725" y=".007" width="52.341" height="58" filterUnits="userSpaceOnUse" color-interpolation-filters="sRGB"><feFlood flood-opacity="0" result="BackgroundImageFix"/><feColorMatrix in="SourceAlpha" values="0 0 0 0 0 0 0 0 0 0 0 0 0 0 0 0 0 0 127 0" result="hardAlpha"/><feOffset dy="4"/><feGaussianBlur stdDeviation="2"/><feComposite in2="hardAlpha" operator="out"/><feColorMatrix values="0 0 0 0 0 0 0 0 0 0 0 0 0 0 0 0 0 0 0.27 0"/><feBlend in2="BackgroundImageFix" result="effect1_dropShadow_3585_1698"/><feBlend in="SourceGraphic" in2="effect1_dropShadow_3585_1698" result="shape"/></filter><filter id="b" x="56.132" y="16.692" width="79.142" height="19.38" filterUnits="userSpaceOnUse" color-interpolation-filters="sRGB"><feFlood flood-opacity="0" result="BackgroundImageFix"/><feColorMatrix in="SourceAlpha" values="0 0 0 0 0 0 0 0 0 0 0 0 0 0 0 0 0 0 127 0" result="hardAlpha"/><feOffset dy="4"/><feGaussianBlur stdDeviation="2"/><feComposite in2="hardAlpha" operator="out"/><feColorMatrix values="0 0 0 0 0 0 0 0 0 0 0 0 0 0 0 0 0 0 0.27 0"/><feBlend in2="BackgroundImageFix" result="effect1_dropShadow_3585_1698"/><feBlend in="SourceGraphic" in2="effect1_dropShadow_3585_1698" result="shape"/></filter><filter id="c" x="58.036" y="30.576" width="63.221" height="15.386" filterUnits="userSpaceOnUse" color-interpolation-filters="sRGB"><feFlood flood-opacity="0" result="BackgroundImageFix"/><feColorMatrix in="SourceAlpha" values="0 0 0 0 0 0 0 0 0 0 0 0 0 0 0 0 0 0 127 0" result="hardAlpha"/><feOffset dy="4"/><feGaussianBlur stdDeviation="2"/><feComposite in2="hardAlpha" operator="out"/><feColorMatrix values="0 0 0 0 0 0 0 0 0 0 0 0 0 0 0 0 0 0 0.27 0"/><feBlend in2="BackgroundImageFix" result="effect1_dropShadow_3585_1698"/><feBlend in="SourceGraphic" in2="effect1_dropShadow_3585_1698" result="shape"/></filter></defs></svg>