<svg width="168" height="52" fill="none" xmlns="http://www.w3.org/2000/svg"><g filter="url(#a)"><path d="M5.165 25.678c0-1.474.27-2.822.812-4.047a9.145 9.145 0 0 1 2.273-3.147c.983-.883 2.157-1.566 3.523-2.049 1.374-.483 2.893-.724 4.559-.724 1.657 0 3.172.241 4.546.724 1.375.483 2.549 1.166 3.523 2.049a9.07 9.07 0 0 1 2.286 3.147c.541 1.225.812 2.573.812 4.047 0 1.483-.27 2.844-.812 4.085a9.29 9.29 0 0 1-2.286 3.185c-.974.891-2.148 1.587-3.523 2.086-1.373.492-2.89.737-4.546.737-1.666 0-3.185-.245-4.56-.737-1.365-.5-2.54-1.195-3.522-2.086a9.369 9.369 0 0 1-2.273-3.185c-.541-1.24-.812-2.602-.812-4.085Zm3.96 0c0 1.008.179 1.916.537 2.723.366.808.87 1.5 1.511 2.074a6.955 6.955 0 0 0 2.286 1.311c.883.309 1.84.463 2.873.463 1.032 0 1.986-.154 2.86-.463a6.789 6.789 0 0 0 2.286-1.311A6.175 6.175 0 0 0 22.99 28.4c.367-.807.55-1.715.55-2.723 0-1.007-.183-1.91-.55-2.71a5.822 5.822 0 0 0-1.51-2.023c-.642-.558-1.404-.983-2.287-1.275-.874-.29-1.828-.437-2.86-.437-1.033 0-1.99.146-2.873.437a6.733 6.733 0 0 0-2.286 1.275 5.82 5.82 0 0 0-1.511 2.023c-.358.8-.537 1.703-.537 2.71Z" fill="#BAC7E1"/><path fill-rule="evenodd" clip-rule="evenodd" d="M11.771 16.436c-1.365.483-2.54 1.166-3.522 2.049a9.146 9.146 0 0 0-2.273 3.147c-.542 1.224-.812 2.573-.812 4.047 0 1.483.27 2.844.812 4.085a9.368 9.368 0 0 0 2.273 3.185c.983.891 2.157 1.587 3.522 2.086 1.374.491 2.894.737 4.56.737 1.657 0 3.172-.246 4.546-.737 1.374-.5 2.548-1.195 3.523-2.086a9.288 9.288 0 0 0 2.285-3.185c.542-1.24.812-2.602.812-4.084 0-1.474-.27-2.823-.812-4.048a9.069 9.069 0 0 0-2.285-3.147c-.975-.883-2.149-1.566-3.523-2.049-1.374-.483-2.89-.724-4.546-.724-1.666 0-3.186.241-4.56.724Zm13.009 1.625c-1.036-.938-2.277-1.656-3.714-2.162-1.442-.507-3.023-.756-4.735-.756-1.721 0-3.306.25-4.748.756h-.001c-1.43.506-2.67 1.225-3.713 2.162m16.91 0a9.639 9.639 0 0 1 2.427 3.341c.576 1.304.86 2.732.86 4.277 0 1.554-.284 2.993-.859 4.313a9.862 9.862 0 0 1-2.425 3.378c-1.034.946-2.274 1.678-3.71 2.2h-.002l-.001.001c-1.444.516-3.025.77-4.738.77-1.722 0-3.308-.254-4.751-.77h-.002l-.002-.002c-1.428-.522-2.667-1.253-3.71-2.198v-.001l-.001-.001a9.94 9.94 0 0 1-2.41-3.376v-.002c-.576-1.319-.86-2.758-.86-4.311 0-1.546.284-2.974.86-4.278a9.716 9.716 0 0 1 2.414-3.34m13.608 2.883c-.641-.558-1.403-.982-2.286-1.274-.874-.291-1.828-.437-2.86-.437-1.033 0-1.99.146-2.873.437a6.731 6.731 0 0 0-2.286 1.274A5.82 5.82 0 0 0 9.66 22.97c-.358.8-.537 1.703-.537 2.71 0 1.008.18 1.916.537 2.723.367.808.87 1.5 1.512 2.074a6.951 6.951 0 0 0 2.286 1.311c.882.309 1.84.463 2.873.463 1.032 0 1.986-.154 2.86-.463a6.788 6.788 0 0 0 2.286-1.311 6.175 6.175 0 0 0 1.511-2.074c.367-.807.55-1.715.55-2.723 0-1.007-.183-1.91-.55-2.71a5.822 5.822 0 0 0-1.511-2.024Zm-.378 9.106a5.607 5.607 0 0 0 1.371-1.883c.329-.725.499-1.551.499-2.488 0-.938-.17-1.759-.498-2.474a5.25 5.25 0 0 0-1.364-1.828l-.002-.002-.002-.001c-.579-.504-1.273-.893-2.09-1.163h-.002c-.81-.27-1.702-.409-2.68-.409-.979 0-1.875.138-2.694.409-.81.27-1.505.659-2.094 1.165a5.25 5.25 0 0 0-1.364 1.827c-.32.715-.487 1.537-.487 2.476 0 .938.167 1.765.488 2.49.334.736.79 1.36 1.369 1.88.59.514 1.287.915 2.097 1.2.816.285 1.71.43 2.685.43.975 0 1.864-.145 2.67-.43h.002a6.224 6.224 0 0 0 2.096-1.2Z" fill="#BAC7E1"/><path d="M35.987 25.678c0-1.474.271-2.822.812-4.047a9.142 9.142 0 0 1 2.274-3.147c.982-.883 2.156-1.566 3.522-2.049 1.374-.483 2.894-.724 4.56-.724 1.656 0 3.172.241 4.546.724s2.548 1.166 3.522 2.049a9.07 9.07 0 0 1 2.286 3.147c.541 1.225.812 2.573.812 4.047 0 1.483-.27 2.844-.812 4.085a9.29 9.29 0 0 1-2.286 3.185c-.974.891-2.148 1.587-3.522 2.086-1.374.492-2.89.737-4.547.737-1.665 0-3.185-.245-4.559-.737-1.366-.5-2.54-1.195-3.522-2.086a9.367 9.367 0 0 1-2.274-3.185c-.541-1.24-.812-2.602-.812-4.085Zm3.96 0c0 1.008.18 1.916.537 2.723.366.808.87 1.5 1.511 2.074a6.953 6.953 0 0 0 2.286 1.311c.883.309 1.84.463 2.873.463 1.033 0 1.986-.154 2.86-.463a6.789 6.789 0 0 0 2.286-1.311 6.174 6.174 0 0 0 1.512-2.074c.366-.807.55-1.715.55-2.723 0-1.007-.184-1.91-.55-2.71a5.821 5.821 0 0 0-1.512-2.023c-.64-.558-1.403-.983-2.285-1.275-.875-.29-1.828-.437-2.86-.437-1.034 0-1.991.146-2.874.437a6.73 6.73 0 0 0-2.285 1.275 5.819 5.819 0 0 0-1.512 2.023c-.358.8-.537 1.703-.537 2.71Z" fill="#BAC7E1"/><path fill-rule="evenodd" clip-rule="evenodd" d="M42.596 16.436c-1.366.483-2.54 1.166-3.523 2.049a9.145 9.145 0 0 0-2.273 3.147c-.541 1.224-.812 2.573-.812 4.047 0 1.483.27 2.844.812 4.085a9.367 9.367 0 0 0 2.273 3.185c.983.891 2.157 1.587 3.523 2.086 1.374.491 2.893.737 4.559.737 1.657 0 3.172-.246 4.547-.737 1.373-.5 2.548-1.195 3.522-2.086a9.288 9.288 0 0 0 2.286-3.185c.541-1.24.812-2.602.812-4.084 0-1.474-.271-2.823-.812-4.048a9.07 9.07 0 0 0-2.286-3.147c-.974-.883-2.148-1.566-3.522-2.049-1.374-.483-2.89-.724-4.547-.724-1.666 0-3.185.241-4.56.724Zm13.008 1.625c-1.036-.938-2.277-1.656-3.714-2.162-1.442-.507-3.023-.756-4.735-.756-1.72 0-3.306.25-4.748.756h-.001c-1.43.506-2.67 1.225-3.713 2.162m16.91 0a9.638 9.638 0 0 1 2.427 3.341c.576 1.304.86 2.732.86 4.277 0 1.554-.283 2.993-.859 4.313a9.863 9.863 0 0 1-2.424 3.378c-1.035.946-2.275 1.678-3.711 2.2h-.002l-.001.001c-1.443.516-3.025.77-4.738.77-1.722 0-3.308-.254-4.75-.77h-.003l-.002-.002c-1.428-.522-2.667-1.253-3.709-2.198v-.001l-.002-.001a9.938 9.938 0 0 1-2.41-3.376v-.002c-.576-1.319-.86-2.758-.86-4.311 0-1.546.284-2.974.86-4.278a9.714 9.714 0 0 1 2.414-3.34M49.826 31.25h.002a6.223 6.223 0 0 0 2.095-1.2 5.607 5.607 0 0 0 1.371-1.883c.329-.725.499-1.551.499-2.488 0-.938-.17-1.759-.498-2.474a5.251 5.251 0 0 0-1.364-1.828l-.002-.002-.002-.001c-.579-.504-1.273-.893-2.09-1.163h-.002c-.81-.27-1.702-.409-2.68-.409-.979 0-1.875.138-2.694.409a6.16 6.16 0 0 0-2.094 1.165 5.25 5.25 0 0 0-1.364 1.827c-.32.715-.486 1.537-.486 2.476 0 .938.166 1.765.487 2.49.334.736.79 1.36 1.369 1.88.59.514 1.287.915 2.097 1.2.816.285 1.71.43 2.685.43.975 0 1.864-.145 2.671-.43Zm-5.544.536a6.952 6.952 0 0 1-2.286-1.311 6.172 6.172 0 0 1-1.511-2.074c-.358-.807-.537-1.715-.537-2.723 0-1.007.179-1.91.537-2.71a5.82 5.82 0 0 1 1.511-2.024 6.732 6.732 0 0 1 2.286-1.274 9.116 9.116 0 0 1 2.873-.437c1.032 0 1.986.146 2.86.437.883.292 1.645.716 2.286 1.274a5.821 5.821 0 0 1 1.511 2.024c.367.8.55 1.703.55 2.71 0 1.008-.183 1.916-.55 2.723a6.174 6.174 0 0 1-1.51 2.074 6.787 6.787 0 0 1-2.287 1.311c-.874.309-1.828.463-2.86.463-1.033 0-1.99-.154-2.873-.463Z" fill="#BAC7E1"/><path d="M68.029 18.146c0-1.177.954-2.131 2.132-2.131h7.761c1.494 0 2.788.157 3.883.472 1.095.307 2.004.756 2.726 1.345a5.391 5.391 0 0 1 1.605 2.152c.357.847.535 1.805.535 2.875 0 .722-.087 1.41-.261 2.066a6.034 6.034 0 0 1-.809 1.792 6.126 6.126 0 0 1-1.356 1.469 7.518 7.518 0 0 1-1.93 1.058l4.232 6.222h-3.111a3.197 3.197 0 0 1-2.666-1.432l-2.71-4.094h-.113l-5.973-.012v2.34a3.198 3.198 0 0 1-3.198 3.198h-.747v-17.32Zm9.993 8.372c.747 0 1.398-.087 1.954-.261.564-.175 1.033-.42 1.406-.735.382-.315.664-.696.846-1.144.191-.457.287-.963.287-1.519 0-1.087-.374-1.925-1.12-2.514-.747-.597-1.871-.896-3.373-.896h-6.048v7.07h6.048Z" fill="#BAC7E1"/><path fill-rule="evenodd" clip-rule="evenodd" d="m77.946 29.941-5.974-.012v2.34a3.198 3.198 0 0 1-3.197 3.198h-.748v-17.32c0-1.177.954-2.132 2.132-2.132h7.762c1.493 0 2.787.158 3.882.473 1.096.307 2.004.755 2.726 1.344a5.39 5.39 0 0 1 1.605 2.153c.357.847.535 1.805.535 2.875a8.01 8.01 0 0 1-.26 2.066 6.034 6.034 0 0 1-.81 1.792 6.125 6.125 0 0 1-1.356 1.468c-.411.318-.875.596-1.394.834a9 9 0 0 1-.535.224l4.231 6.223h-3.11a3.197 3.197 0 0 1-2.667-1.433l-2.71-4.093h-.112Zm-.194.569-5.21-.011v1.77a3.767 3.767 0 0 1-3.767 3.767h-1.317V18.147a2.7 2.7 0 0 1 2.7-2.7h7.763c1.53 0 2.88.16 4.038.494 1.153.323 2.136.803 2.93 1.45a5.962 5.962 0 0 1 1.77 2.375c.39.927.58 1.961.58 3.094a8.58 8.58 0 0 1-.28 2.212l-.001.002a6.604 6.604 0 0 1-.883 1.957 6.69 6.69 0 0 1-1.48 1.602l-.002.002-.002.002a7.661 7.661 0 0 1-1.417.86l4.446 6.539h-4.186a3.767 3.767 0 0 1-3.14-1.687l-2.542-3.84Zm2.053-4.796h.001c.506-.156.903-.369 1.207-.625l.003-.002.002-.003c.311-.256.536-.561.682-.92v-.003l.002-.002a3.33 3.33 0 0 0 .242-1.299c0-.94-.314-1.602-.903-2.067l-.002-.001-.002-.002c-.602-.482-1.575-.77-3.017-.77h-5.479v5.93h5.48c.704 0 1.295-.083 1.783-.235h.001Zm-7.833.805V19.45h6.048c1.502 0 2.626.299 3.373.896.747.59 1.12 1.427 1.12 2.514a3.9 3.9 0 0 1-.286 1.518c-.183.448-.465.83-.847 1.145-.373.315-.842.56-1.406.734-.556.175-1.207.262-1.954.262h-6.048Z" fill="#BAC7E1"/><path d="M101.885 19.422H97.77a3.198 3.198 0 0 1-3.198-3.198v-.288h15.445a3.198 3.198 0 0 1 3.198 3.198v.288h-7.313v12.915a3.197 3.197 0 0 1-3.198 3.198h-.819V19.422Z" fill="#BAC7E1"/><path fill-rule="evenodd" clip-rule="evenodd" d="M94.583 16.473a3.198 3.198 0 0 0 3.189 2.953h4.115V35.54h.819a3.198 3.198 0 0 0 3.198-3.198V19.426h7.312v-.288a3.197 3.197 0 0 0-3.197-3.198H94.574v.288c0 .083.003.164.01.245Zm11.854 3.486h7.312v-.821a3.73 3.73 0 0 0-3.73-3.73H94.041v.82a3.73 3.73 0 0 0 3.73 3.73h3.583v16.114h1.352a3.73 3.73 0 0 0 3.731-3.731V19.959Z" fill="#BAC7E1"/><path d="M139.589 11.47a14.29 14.29 0 1 0 12.731 11.036" stroke="#BAC7E1" stroke-width="6.297" stroke-linecap="round" stroke-linejoin="round"/><path d="M152.277 13.303a3.303 3.303 0 1 0-6.606 0 3.303 3.303 0 0 0 6.606 0ZM159.28 10.942h-1.079v2.784h-.729v-2.784h-1.065v-.53h2.873v.53Zm1.363-.53.906 2.393.902-2.394h.954v3.315h-.736v-.92l.081-1.57-.954 2.49h-.498l-.95-2.486.074 1.565v.921h-.726v-3.315h.947Z" fill="#BAC7E1"/></g><defs><filter id="a" x=".595" y="8.272" width="166.811" height="42.876" filterUnits="userSpaceOnUse" color-interpolation-filters="sRGB"><feFlood flood-opacity="0" result="BackgroundImageFix"/><feColorMatrix in="SourceAlpha" values="0 0 0 0 0 0 0 0 0 0 0 0 0 0 0 0 0 0 127 0" result="hardAlpha"/><feOffset dy="4"/><feGaussianBlur stdDeviation="2"/><feComposite in2="hardAlpha" operator="out"/><feColorMatrix values="0 0 0 0 0 0 0 0 0 0 0 0 0 0 0 0 0 0 0.27 0"/><feBlend in2="BackgroundImageFix" result="effect1_dropShadow_3601_246"/><feBlend in="SourceGraphic" in2="effect1_dropShadow_3601_246" result="shape"/></filter></defs></svg>