<svg width="191" height="50" fill="none" xmlns="http://www.w3.org/2000/svg"><g filter="url(#a)"><path d="M42.89 15.435c0-.083.066-.154.154-.154h7.37c1.7 0 3.05.208 4.046.62.996.413 1.709.992 2.146 1.734.433.742.65 1.608.65 2.6 0 .887-.196 1.687-.583 2.412-.35.65-.909 1.175-1.684 1.592a.154.154 0 0 0 .005.275c.987.467 1.696 1.067 2.125 1.796.47.792.708 1.687.708 2.683 0 1.68-.57 3.042-1.708 4.075-1.142 1.042-2.98 1.554-5.517 1.554h-7.563a.154.154 0 0 1-.154-.154V15.435h.004Zm7.304 7.625c1.104 0 1.895-.2 2.379-.596.483-.396.72-.992.72-1.787 0-.796-.245-1.367-.745-1.717-.5-.354-1.363-.53-2.592-.53h-3.025a.154.154 0 0 0-.154.155v4.33c0 .082.067.153.154.153h3.271-.004l-.004-.008Zm.079 8.425c1.375 0 2.312-.23 2.808-.692.5-.462.746-1.116.746-1.966 0-.921-.258-1.609-.788-2.059-.525-.45-1.404-.679-2.633-.679H46.92a.154.154 0 0 0-.154.154v5.088c0 .083.066.154.154.154h3.354ZM60.121 20.481h3.633c.084 0 .154.067.154.155v1.279c0 .141.18.208.271.096.996-1.18 2.246-1.771 3.75-1.771.25 0 .496.008.721.025.18.012.346.041.504.075a.157.157 0 0 1 .117.17l-.425 3.15a.155.155 0 0 1-.175.13c-.18-.025-.354-.05-.525-.071a6.176 6.176 0 0 0-.708-.042c-.434 0-.85.059-1.238.175a3.346 3.346 0 0 0-1.1.584c-.346.27-.612.604-.812 1-.2.395-.3.866-.3 1.408v7.625a.154.154 0 0 1-.154.154H60.12a.154.154 0 0 1-.154-.154V20.636c0-.084.066-.155.154-.155ZM82.373 34.626h-3.225a.154.154 0 0 1-.154-.155V33.33a.154.154 0 0 0-.263-.109 6.32 6.32 0 0 1-1.658 1.2c-.733.371-1.608.554-2.621.554-1.433 0-2.596-.366-3.492-1.095-.895-.734-1.341-1.784-1.341-3.155 0-.92.195-1.687.583-2.3a4.13 4.13 0 0 1 1.575-1.45c.662-.354 1.425-.608 2.292-.77a19.41 19.41 0 0 1 2.716-.3l1.946-.075c.084 0 .146-.071.146-.154v-.342c0-.904-.196-1.542-.583-1.921-.388-.38-1.009-.567-1.859-.567-.85 0-1.45.15-1.846.446-.366.275-.62.654-.754 1.138a.157.157 0 0 1-.158.116l-3.125-.275a.156.156 0 0 1-.138-.183c.275-1.358.905-2.363 1.896-3.017 1.034-.679 2.45-1.012 4.263-1.012 2.1 0 3.612.483 4.55 1.45.933.966 1.4 2.362 1.4 4.187v8.788a.154.154 0 0 1-.154.154l.004-.012Zm-8.217-5.638c-.525.346-.787.85-.787 1.517 0 .525.162.933.491 1.233.33.3.83.446 1.521.446 1.071 0 1.917-.271 2.554-.813.634-.541.95-1.308.95-2.3v-.654a.156.156 0 0 0-.162-.154l-1.767.1c-1.337.07-2.27.283-2.796.62M85.276 20.485h3.716c.084 0 .155.066.155.154v13.837a.154.154 0 0 1-.155.154h-3.716a.154.154 0 0 1-.154-.154V20.64c0-.084.066-.154.154-.154Zm.083-5.392h3.52c.084 0 .155.067.155.154v2.867a.154.154 0 0 1-.154.154h-3.52a.154.154 0 0 1-.155-.154v-2.867c0-.083.067-.154.154-.154ZM91.94 20.485h3.633c.083 0 .154.067.154.155v1.229c0 .137.17.208.267.1.62-.684 1.258-1.167 1.908-1.442a5.825 5.825 0 0 1 2.308-.475c1.555 0 2.738.438 3.53 1.313.795.875 1.191 2.137 1.191 3.775v9.329a.153.153 0 0 1-.154.154h-3.742a.154.154 0 0 1-.154-.154v-8.571c0-.904-.166-1.546-.504-1.933-.337-.388-.85-.584-1.533-.584-.396 0-.792.071-1.18.217-.387.146-.729.37-1.016.679a2.93 2.93 0 0 0-.62.867c-.147.308-.218.704-.218 1.191v8.138a.154.154 0 0 1-.154.154h-3.712a.154.154 0 0 1-.154-.154V20.64c0-.084.066-.155.154-.155M106.891 30.321h3.321c.071 0 .133.05.146.121.154.642.462 1.1.925 1.371.491.292 1.166.433 2.037.433s1.542-.137 1.913-.404c.371-.27.558-.658.558-1.162 0-.38-.129-.713-.379-1-.258-.292-.779-.5-1.579-.621l-1.629-.275c-1.759-.308-3.059-.784-3.9-1.438-.838-.654-1.263-1.633-1.263-2.954 0-1.32.55-2.416 1.658-3.183 1.105-.767 2.563-1.15 4.375-1.15 1.359 0 2.459.17 3.3.517.842.341 1.492.816 1.955 1.424.429.563.729 1.226.9 1.984.021.087-.046.175-.138.183l-3.212.35a.15.15 0 0 1-.159-.104c-.179-.52-.446-.92-.791-1.2-.371-.3-.984-.446-1.834-.446-.925 0-1.571.15-1.925.446-.362.3-.541.65-.541 1.046s.141.716.42.962c.28.246.838.438 1.671.584l1.796.325c1.233.216 2.208.512 2.933.883.725.37 1.246.85 1.559 1.438.312.587.479 1.333.479 2.233 0 1.337-.508 2.4-1.521 3.196-1.017.791-2.537 1.191-4.567 1.191-2.029 0-3.504-.37-4.695-1.108-1.192-.742-1.813-1.87-1.967-3.458a.154.154 0 0 1 .154-.167h.004l-.004-.017ZM126.735 29.742c0 .596.138 1.063.409 1.396.27.334.695.504 1.279.504.308 0 .591-.02.858-.066.204-.034.396-.08.588-.13.087-.02.175.03.191.121l.492 2.68a.156.156 0 0 1-.104.175 12.06 12.06 0 0 1-1.392.337c-.508.088-1.079.138-1.712.138-1.759 0-2.971-.45-3.642-1.355-.671-.904-1.004-2.22-1.004-3.954V23.78a.154.154 0 0 0-.154-.154h-1.95a.154.154 0 0 1-.155-.154v-2.838c0-.083.067-.154.155-.154h1.95a.154.154 0 0 0 .154-.154v-3.459c0-.083.066-.154.154-.154h3.742c.083 0 .154.067.154.154v3.459c0 .083.066.154.154.154h3.037c.084 0 .155.067.155.154v2.838a.154.154 0 0 1-.155.154h-3.037a.154.154 0 0 0-.154.154v5.97l-.009-.012-.004.005ZM138.149 35.059c-2.246 0-3.975-.642-5.175-1.933-1.2-1.292-1.808-3.105-1.808-5.43 0-1.625.287-3.004.87-4.141.58-1.138 1.388-2.005 2.43-2.6 1.041-.596 2.258-.896 3.654-.896 2.191 0 3.837.646 4.933 1.937 1.096 1.292 1.646 3 1.646 5.134v1.204a.154.154 0 0 1-.154.154h-9.513a.157.157 0 0 0-.154.167c.217 2.433 1.292 3.65 3.217 3.65.904 0 1.579-.175 2.012-.53.409-.329.684-.774.838-1.337a.147.147 0 0 1 .146-.112h3.258c.096 0 .171.087.15.187-.275 1.392-.921 2.496-1.933 3.296-1.063.842-2.534 1.262-4.417 1.262v-.012Zm-3.054-9.075h5.821c.087 0 .162-.08.154-.167-.084-.983-.329-1.733-.721-2.241-.417-.542-1.158-.813-2.229-.813-1.071 0-1.817.292-2.296.867-.45.541-.746 1.27-.883 2.183a.154.154 0 0 0 .154.175v-.004ZM147.008 20.485h3.633c.084 0 .154.067.154.155v1.224c0 .142.175.209.271.1 1.071-1.274 2.359-1.912 3.863-1.912 1.791 0 3.041.708 3.75 2.133.05.1.187.113.258.025 1.154-1.441 2.608-2.158 4.358-2.158 1.413 0 2.5.404 3.275 1.22.771.813 1.155 2.043 1.155 3.684v9.521a.154.154 0 0 1-.155.154h-3.741a.153.153 0 0 1-.154-.154V25.61c0-.845-.146-1.433-.434-1.745-.291-.317-.716-.475-1.279-.475-.346 0-.679.058-1.004.174-.329.121-.638.313-.925.584-.217.216-.392.47-.529.758a2.237 2.237 0 0 0-.204.975v8.6a.154.154 0 0 1-.155.154h-3.716a.153.153 0 0 1-.154-.154V25.64c0-.813-.15-1.392-.446-1.734-.3-.346-.729-.516-1.292-.516-.725 0-1.354.283-1.9.841-.179.2-.354.45-.517.758-.162.309-.241.696-.241 1.163v8.325a.154.154 0 0 1-.154.154h-3.713a.154.154 0 0 1-.154-.154V20.644c0-.084.067-.154.154-.154l-.004-.005Z" fill="#BAC7E1"/><path d="M184.455 21.099a2.107 2.107 0 0 0 2.108-2.105c0-1.162-.946-2.1-2.108-2.1a2.107 2.107 0 0 0-2.109 2.1 2.11 2.11 0 0 0 2.109 2.105Z" stroke="#BAC7E1" stroke-width=".739" stroke-miterlimit="10"/><path d="M183.729 17.997h.737c.192 0 .342.025.454.08a.496.496 0 0 1 .242.216c.05.088.071.192.071.304 0 .13-.025.238-.075.33a.576.576 0 0 1-.238.22l.417.846h-.442l-.354-.754h-.404v.75h-.412v-1.996l.004.004Zm.733.913c.142 0 .233-.025.288-.075a.308.308 0 0 0 .075-.221c0-.096-.025-.163-.08-.213-.054-.05-.154-.07-.3-.07h-.304v.583h.325l-.004-.004ZM168.947 30.321h3.32c.071 0 .134.05.146.121.154.642.463 1.1.925 1.371.492.292 1.167.433 2.038.433.871 0 1.541-.137 1.912-.404.371-.27.559-.658.559-1.162 0-.38-.13-.713-.38-1-.258-.292-.779-.5-1.579-.621l-1.629-.275c-1.758-.308-3.058-.784-3.896-1.438-.837-.654-1.262-1.633-1.262-2.954 0-1.32.55-2.416 1.658-3.183 1.104-.767 2.563-1.15 4.375-1.15 1.358 0 2.458.17 3.3.517.842.341 1.492.816 1.954 1.424.429.563.729 1.226.9 1.984.021.087-.046.175-.137.183l-3.213.35a.15.15 0 0 1-.158-.104c-.179-.52-.446-.92-.792-1.2-.371-.3-.983-.446-1.833-.446-.925 0-1.571.15-1.925.446-.363.3-.542.65-.542 1.046s.142.716.421.962.838.438 1.671.584l1.796.325c1.233.216 2.208.512 2.933.883.725.37 1.246.85 1.558 1.438.313.587.48 1.333.48 2.233 0 1.337-.509 2.4-1.521 3.196-1.017.791-2.538 1.191-4.567 1.191-2.029 0-3.504-.37-4.696-1.108-1.191-.742-1.812-1.87-1.966-3.458a.154.154 0 0 1 .154-.167h.004l-.008-.017ZM36.404 18.347a5.978 5.978 0 0 1-5.98 5.98H9.591c.054-1.759 1.2-3.488 1.654-4.109a2.578 2.578 0 1 0-4.488-1.733c0 .537.163 1.033.442 1.446.059.075.117.15.171.225 1.084 1.462 1.463 2.891 1.475 4.17H6.037a1.583 1.583 0 0 1-1.583-1.583v-8.612c0-.875.708-1.584 1.583-1.584H30.6c3.204 0 5.8 2.596 5.8 5.8M36.41 31.546a5.979 5.979 0 0 0-5.979-5.979H9.598c.054 1.759 1.2 3.488 1.654 4.108a2.579 2.579 0 1 1-4.487 1.733c0-.537.162-1.032.441-1.445a8.01 8.01 0 0 0 .171-.225c1.083-1.462 1.463-2.892 1.475-4.17H6.044c-.875 0-1.584.707-1.584 1.582v8.613c0 .875.709 1.583 1.584 1.583h24.562c3.204 0 5.8-2.595 5.8-5.8" fill="#BAC7E1"/></g><defs><filter id="a" x=".25" y="12.5" width="190.683" height="33" filterUnits="userSpaceOnUse" color-interpolation-filters="sRGB"><feFlood flood-opacity="0" result="BackgroundImageFix"/><feColorMatrix in="SourceAlpha" values="0 0 0 0 0 0 0 0 0 0 0 0 0 0 0 0 0 0 127 0" result="hardAlpha"/><feOffset dy="4"/><feGaussianBlur stdDeviation="2"/><feComposite in2="hardAlpha" operator="out"/><feColorMatrix values="0 0 0 0 0 0 0 0 0 0 0 0 0 0 0 0 0 0 0.27 0"/><feBlend in2="BackgroundImageFix" result="effect1_dropShadow_3585_1774"/><feBlend in="SourceGraphic" in2="effect1_dropShadow_3585_1774" result="shape"/></filter></defs></svg>