<svg width="148" height="58" fill="none" xmlns="http://www.w3.org/2000/svg"><g filter="url(#a)" fill="#BAC7E1"><path fill-rule="evenodd" clip-rule="evenodd" d="M27.724 49.57C40.58 49.57 51 39.147 51 26.292S40.579 3.017 27.724 3.017 4.448 13.438 4.448 26.293 14.87 49.57 27.724 49.57Zm-5.12-34.55-.017.034-3.156 6.456c-.35.715.17 1.55.968 1.55h4.956c.658 0 1.26-.375 1.549-.966l1.107-2.266 5.848 12.637-8.317-6.192a2.154 2.154 0 0 0-.958-.389.432.432 0 0 0-.138-.022H18.457c-.223 0-1.595 0-2.092 1.694l-3.429 7.269a1.724 1.724 0 0 0 1.56 2.46h3.964c.658 0 1.258-.375 1.548-.965l3.132-6.386 9.076 6.994c.265.203.582.325.913.351l-.017.006H40.762a1.94 1.94 0 0 0 1.738-2.801L32.925 15.16a3.233 3.233 0 0 0-2.522-1.776.578.578 0 0 0-.15-.022h-4.956c-.717 0-1.395.254-1.927.696-.612.479-.818 1.028-.818 1.028a2.17 2.17 0 0 1 .052-.066Z"/><path d="m60.997 35.632 7.74-21h2.67l7.71 21h-2.67l-1.92-5.4h-8.94l-1.95 5.4h-2.64Zm5.34-7.44h7.44l-3.72-10.38-3.72 10.38ZM86.913 35.979c-1.42 0-2.68-.32-3.78-.96a7.14 7.14 0 0 1-2.61-2.73c-.62-1.16-.93-2.53-.93-4.11 0-1.56.31-2.92.93-4.08.62-1.18 1.48-2.09 2.58-2.73 1.12-.66 2.41-.99 3.87-.99 1.44 0 2.68.33 3.72.99 1.06.64 1.87 1.49 2.43 2.55.56 1.06.84 2.2.84 3.42 0 .22-.01.44-.03.66v.75h-11.85c.06 1.14.32 2.09.78 2.85.48.74 1.07 1.3 1.77 1.68.72.38 1.48.57 2.28.57 1.04 0 1.91-.24 2.61-.72a4.12 4.12 0 0 0 1.53-1.95h2.49c-.4 1.38-1.17 2.53-2.31 3.45-1.12.9-2.56 1.35-4.32 1.35Zm0-13.47c-1.2 0-2.27.37-3.21 1.11-.92.72-1.45 1.78-1.59 3.18h9.36c-.06-1.34-.52-2.39-1.38-3.15-.86-.76-1.92-1.14-3.18-1.14ZM101.631 35.617c-1.36 0-2.43-.33-3.21-.99-.78-.66-1.17-1.85-1.17-3.57v-8.19h-2.58v-2.13h2.58l.33-3.57h2.19v3.57h4.38v2.13h-4.38v8.19c0 .94.19 1.58.57 1.92.38.32 1.05.48 2.01.48h1.56v2.16h-2.28ZM106.305 35.638v-21.6h2.52v9.27c.5-.92 1.21-1.63 2.13-2.13.92-.52 1.92-.78 3-.78 1.72 0 3.1.54 4.14 1.62 1.04 1.06 1.56 2.7 1.56 4.92v8.7h-2.49v-8.43c0-3.1-1.25-4.65-3.75-4.65-1.3 0-2.39.47-3.27 1.41-.88.92-1.32 2.24-1.32 3.96v7.71h-2.52ZM122.69 35.624v-14.88h2.52v14.88h-2.52ZM128.551 35.619v-14.88h2.28l.21 2.85c.46-.98 1.16-1.76 2.1-2.34.94-.58 2.1-.87 3.48-.87v2.64h-.69c-.88 0-1.69.16-2.43.48-.74.3-1.33.82-1.77 1.56-.44.74-.66 1.76-.66 3.06v7.5h-2.52ZM122.643 18.803c.34.32.76.48 1.26.48.48 0 .89-.16 1.23-.48.34-.34.51-.76.51-1.26 0-.48-.17-.88-.51-1.2a1.73 1.73 0 0 0-1.23-.48c-.5 0-.92.16-1.26.48-.32.32-.48.72-.48 1.2 0 .5.16.92.48 1.26Z"/></g><defs><filter id="a" x="-3" y="0" width="154.667" height="58" filterUnits="userSpaceOnUse" color-interpolation-filters="sRGB"><feFlood flood-opacity="0" result="BackgroundImageFix"/><feColorMatrix in="SourceAlpha" values="0 0 0 0 0 0 0 0 0 0 0 0 0 0 0 0 0 0 127 0" result="hardAlpha"/><feOffset dy="4"/><feGaussianBlur stdDeviation="2"/><feComposite in2="hardAlpha" operator="out"/><feColorMatrix values="0 0 0 0 0 0 0 0 0 0 0 0 0 0 0 0 0 0 0.27 0"/><feBlend in2="BackgroundImageFix" result="effect1_dropShadow_3601_230"/><feBlend in="SourceGraphic" in2="effect1_dropShadow_3601_230" result="shape"/></filter></defs></svg>