<svg width="194" height="50" fill="none" xmlns="http://www.w3.org/2000/svg"><g clip-path="url(#a)"><mask id="b" style="mask-type:luminance" maskUnits="userSpaceOnUse" x="-1" y="7" width="194" height="35"><path d="M192.328 8H-.002v34h192.33V8Z" fill="#fff"/></mask><g mask="url(#b)" fill="#BAC7E1"><path d="M46.859 36.863h4.237V25.246c0-1.108.542-2.156 1.447-2.797l1.613-1.138v-.837l-7.29 5.096v11.293h-.007ZM46.857 17.293v2.933a3.438 3.438 0 0 1-1.447 2.797l-1.614 1.138v.837l7.29-5.096v-3.287c0-1.832.74-2.307 2.345-2.307 1.025 0 1.892.324 2.503.739h.324l.543-1.636c-1.154-.58-2.435-.897-4.2-.897-3.723 0-5.744 1.666-5.744 4.78ZM65.818 20.439c-3.271 0-5.804.965-7.538 2.02l.738 1.666h.287c1.477-1.093 3.656-1.862 5.677-1.862 2.178 0 3.498.837 3.498 3.076v2.118c-1.184-.867-3.016-1.38-5.006-1.38-3.883 0-6.672 1.96-6.672 5.52 0 3.557 2.6 5.646 6.416 5.646 2.088 0 3.784-.58 5.262-2.05v1.665h4.267V26.176c0-4.2-2.662-5.745-6.929-5.745m2.662 12.861c-.898 1.222-2.503 2.089-4.2 2.089-1.862 0-3.203-1.184-3.203-3.34v-.8c0-2.344 1.477-3.4 3.656-3.4 1.507 0 2.947.581 3.754 1.252v4.2h-.007ZM82.336 23.68v-2.857l-4.267 2.955v13.088h4.267V25.7c.965-1.44 2.729-2.473 4.523-2.473.867 0 1.538.128 2.119.415l.286-.068v-3.016c-.354-.098-.709-.128-1.123-.128-2.631 0-4.78 1.764-5.805 3.242M113.964 20.439c-2.692 0-5.067 1.508-6.416 2.729-.611-1.794-2.179-2.73-4.524-2.73-2.661 0-4.877 1.509-6.159 2.692v-2.307l-4.267 2.955v13.088h4.267V25.06c1.312-1.312 3.212-2.345 4.621-2.345 1.41 0 2.051.837 2.051 2.405v11.738h4.267V24.992c1.349-1.282 3.241-2.277 4.621-2.277 1.38 0 2.088.837 2.088 2.405v11.738h4.237V25.052c0-2.985-1.734-4.62-4.78-4.62M126.761 24.136c0-1.153 1.22-1.892 3.369-1.892 1.991 0 3.657.61 4.78 1.508h.354l.739-1.569c-1.508-1.093-3.528-1.733-5.873-1.733-4.169 0-6.898 1.862-6.898 4.681 0 6.061 9.846 4.267 9.846 8.052 0 1.41-1.183 2.276-3.46 2.276-2.503 0-4.494-.867-5.903-2.02h-.354l-.868 1.538c1.765 1.38 4.17 2.276 7.156 2.276 4.04 0 7.44-1.635 7.44-5.231 0-6.001-10.328-4.524-10.328-7.893M148.54 20.44c-5.066 0-8.692 3.046-8.692 8.406 0 5.36 3.597 8.406 9.274 8.406 3.075 0 5.322-.897 7.282-2.661l-1.056-1.282h-.354c-1.252 1.35-3.468 2.149-5.578 2.149-3.332 0-5.134-1.508-5.134-4.622V29.33h12.634v-.581c0-5.262-3.468-8.308-8.376-8.308Zm4.2 7.124h-8.466v-.61c0-3.272 1.794-4.712 4.266-4.712 2.474 0 4.2 1.44 4.2 4.712v.61ZM171.601 20.44c-2.76 0-5.036 1.538-6.385 2.73v-2.345l-4.268 2.955v13.087h4.268V25.062c1.379-1.282 3.369-2.345 4.877-2.345 1.508 0 2.119.837 2.119 2.405V36.86h4.266V24.994c0-2.986-1.763-4.554-4.877-4.554ZM186.816 16.568v-2.006h-1.191c0 1.267-.595 2.45-1.613 3.204l-1.425 1.056v1.357a3.437 3.437 0 0 1-1.448 2.797l-1.613 1.138v.837l7.29-5.089v-3.294ZM191.747 34.748h-.316c-.611.415-1.508.709-2.473.709-1.569 0-2.307-.483-2.307-2.247v-7.946c0-1.108.543-2.156 1.447-2.797l1.613-1.138v-.837l-7.289 5.096v6.883c0 3.114 1.99 4.78 5.744 4.78 1.765 0 3.016-.317 4.169-.897l-.58-1.606h-.008ZM16.606 8.663C7.582 8.663.269 15.975.269 24.999c0 4.177 1.568 7.976 4.139 10.864l-4.41 3.12V42l6.257-4.365a16.255 16.255 0 0 0 10.35 3.702c9.025 0 16.337-7.313 16.337-16.337 0-4.176-1.568-7.976-4.139-10.863l4.41-3.114V8l-6.257 4.365a16.298 16.298 0 0 0-10.35-3.701Zm16.306 2.201-5.058 3.573a11.043 11.043 0 0 0-4.674 9.017v1.998l-13.163 9.197-9.725 6.785v-2.3l5.058-3.573a11.043 11.043 0 0 0 4.674-9.016v-1.998l13.156-9.19 9.732-6.792v2.3Z"/></g></g><defs><clipPath id="a"><path fill="#fff" transform="translate(0 8)" d="M0 0h193.032v34H0z"/></clipPath></defs></svg>