<svg width="217" height="47" viewBox="0 0 217 47" fill="none" xmlns="http://www.w3.org/2000/svg">
<g filter="url(#filter0_d_3671_2107)">
<g clip-path="url(#clip0_3671_2107)">
<path fill-rule="evenodd" clip-rule="evenodd" d="M60.6596 22.1828L60.7718 30.3965H64.5472C64.5974 28.3957 64.6598 26.395 64.7341 24.3942L65.8929 23.9835C66.5662 23.7308 67.9991 23.5306 70.1916 23.3833L73.3316 23.2253V20.0662L71.5379 19.9714C70.365 19.9378 69.1912 19.9853 68.0242 20.1135C66.6284 20.2505 65.6938 20.4032 65.2207 20.5716C65.1437 20.6256 65.0506 20.648 64.9589 20.6349C64.7594 20.6138 64.697 20.0136 64.7721 18.8342L64.8475 16.8755C68.5107 16.7702 72.174 16.6755 75.8374 16.5912V13.4005L68.3613 13.3373C65.4455 13.3162 63.4644 13.3215 62.4178 13.3531C61.371 13.3847 60.8228 13.4636 60.773 13.59C60.6732 13.8006 60.6359 16.6649 60.6608 22.1828H60.6596ZM80.2844 22.1828L80.3965 30.3965H84.172V13.4005L82.3403 13.3373C81.1191 13.2741 80.471 13.3583 80.3959 13.59C80.2961 13.8006 80.2593 16.6649 80.2844 22.1828ZM89.4048 14.5693L90.3393 15.675L90.3767 22.9094L90.4888 30.1438H94.2643L94.3396 24.7417C94.3641 23.794 94.3891 22.9041 94.415 22.0723C94.4408 21.2403 94.4781 20.5874 94.5271 20.1135C94.5767 19.6398 94.6266 19.4028 94.6766 19.4028C94.8262 19.4028 95.9101 20.4453 97.9287 22.5304C100.969 25.5631 102.788 27.3743 103.386 27.964L105.779 30.3017C107.074 30.2386 108.357 30.1859 109.629 30.1438V13.1477H105.89L105.778 18.8973C105.778 19.9293 105.759 20.8981 105.722 21.8037C105.684 22.7094 105.641 23.4149 105.591 23.9203C105.541 24.4257 105.503 24.6785 105.479 24.6785C105.329 24.6785 103.996 23.4359 101.479 20.9507C98.7129 18.2339 96.7318 16.2858 95.5357 15.1064L93.3302 13.0214H91.0886C89.543 13.0214 88.7206 13.0951 88.6214 13.2425C88.5467 13.3689 88.8083 13.8112 89.4065 14.5693H89.4048ZM122.897 13.8427C122.927 13.8699 122.953 13.9019 122.973 13.9375C123.222 14.2955 123.278 14.6483 123.141 14.9958C123.004 15.3433 122.375 16.37 121.253 18.076C121.194 18.1539 121.144 18.2387 121.104 18.3287C120.455 19.3185 119.315 21.1087 117.683 23.6992C116.052 26.2897 115.186 27.6481 115.085 27.7744C114.798 28.2157 114.536 28.6746 114.301 29.1487C114.101 29.5593 114.038 29.7858 114.114 29.8278C114.388 30.0595 115.104 30.1122 116.263 29.9859C117.346 29.8786 118.409 29.6128 119.422 29.1961C120.867 28.6274 122.087 28.2694 123.084 28.1219C123.333 28.0798 123.726 28.0061 124.262 27.9008C124.798 27.7955 125.191 27.7271 125.439 27.6955C125.688 27.6639 126.031 27.6165 126.467 27.5533C126.904 27.4901 127.334 27.4427 127.757 27.4111C128.18 27.3796 128.641 27.3638 129.14 27.3638C130.187 27.3638 130.891 27.4585 131.252 27.6481C131.613 27.8377 132.043 28.3325 132.542 29.1328C132.79 29.5541 133.027 29.8068 133.252 29.8911C133.477 29.9753 134.087 30.0174 135.083 30.0174C136.453 30.0174 137.139 29.9331 137.14 29.7647C137.14 29.6384 136.896 29.1856 136.411 28.4062C135.924 27.627 134.498 25.3524 132.13 21.5826C129.862 18.0233 128.392 15.6856 127.719 14.5693L126.523 12.6107L124.429 12.5475C123.059 12.4843 122.373 12.558 122.373 12.7686C122.373 12.9371 122.549 13.2952 122.897 13.8427ZM128.467 22.862C128.645 23.1793 128.807 23.5063 128.953 23.8413C129.052 24.0835 129.09 24.2152 129.065 24.2363C128.866 24.3415 128.043 24.4468 126.598 24.5521C125.053 24.6785 123.819 24.8785 122.897 25.1523C121.851 25.4051 121.29 25.4894 121.215 25.4051C121.116 25.3209 121.764 24.1204 123.16 21.8037C123.633 21.0666 124 20.4927 124.262 20.082C124.481 19.7318 124.719 19.3942 124.973 19.0711C125.184 18.8078 125.333 18.6604 125.421 18.6288C125.513 18.5975 125.613 18.6031 125.702 18.6446C125.95 18.8552 126.611 19.824 127.683 21.5509C127.981 22.0143 128.243 22.4513 128.467 22.862ZM145.755 14.6009C144.72 15.2538 143.929 15.9172 143.382 16.5912C142.808 17.2862 142.335 18.255 141.961 19.4975C141.775 20.0871 141.649 20.6962 141.588 21.314C141.581 21.8965 141.656 22.4767 141.812 23.0358C142.036 24.1099 142.329 24.9471 142.691 25.5473C143.052 26.1475 143.681 26.8583 144.578 27.6796C145.44 28.4359 146.403 29.0534 147.437 29.512C148.447 29.9542 149.699 30.2912 151.194 30.5229C153.151 30.8157 155.141 30.7677 157.082 30.3807C159.162 29.9911 160.651 29.3961 161.549 28.5958C161.709 28.4718 161.844 28.3158 161.947 28.1369C162.049 27.958 162.118 27.7597 162.147 27.5533C162.197 27.1531 162.209 26.058 162.184 24.2678L162.072 20.5716L158.521 20.5085C156.104 20.4663 154.82 20.5085 154.671 20.6349C154.47 20.8034 154.645 21.3193 155.194 22.1828C155.386 22.5759 155.639 22.9334 155.942 23.2411C156.189 23.452 156.485 23.5886 156.801 23.636C157.224 23.6992 157.48 23.8044 157.567 23.9519C157.655 24.0993 157.698 24.5205 157.698 25.2156V26.6688L156.128 27.0163C153.984 27.5006 151.803 27.3216 149.587 26.4792C148.639 26.1001 147.91 25.6631 147.399 25.1682C146.848 24.6051 146.443 23.9036 146.223 23.1306C146.022 22.5461 145.939 21.9249 145.978 21.3054C146.016 20.6859 146.176 20.0814 146.446 19.5292C146.994 18.3919 147.929 17.4967 149.25 16.8439C149.791 16.5661 150.362 16.3592 150.95 16.2279C151.437 16.1331 152.265 16.0857 153.437 16.0857C155.231 16.0647 156.664 16.2226 157.736 16.5596L159.418 17.0966L160.502 16.0541C161.199 15.4223 161.573 14.959 161.623 14.6641C161.623 14.4324 160.925 14.0323 159.53 13.4637C158.769 13.1467 157.98 12.9086 157.174 12.7529C156.576 12.6581 155.542 12.6002 154.072 12.5791C153.069 12.5312 152.065 12.5418 151.063 12.6107C150.357 12.6897 149.662 12.8486 148.989 13.0846C147.855 13.4484 146.769 13.9577 145.755 14.6009ZM166.67 21.8985L166.782 30.1438H183.416V26.953L170.856 26.7003L170.781 25.4367C170.723 25.0682 170.742 24.691 170.837 24.331C170.924 24.0782 171.174 23.8624 171.584 23.6834C172.101 23.48 172.642 23.3576 173.193 23.3201C173.852 23.2569 174.83 23.1937 176.126 23.1306L179.977 22.9726V19.7819L176.613 19.7187C174.344 19.6556 172.849 19.7608 172.127 20.0346C171.429 20.2663 171.011 20.2873 170.874 20.0978C170.737 19.9083 170.706 19.2659 170.781 18.1707L170.856 16.5912C174.843 16.5069 178.817 16.4226 182.78 16.3384V13.1477L174.856 13.0846C171.716 13.0424 169.598 13.0424 168.502 13.0846C167.405 13.1267 166.832 13.2109 166.782 13.3373C166.682 13.5268 166.645 16.3806 166.67 21.8985Z" fill="#BAC7E1"/>
<path fill-rule="evenodd" clip-rule="evenodd" d="M53.0248 12.3195C53.4237 13.0018 53.194 13.8782 52.5117 14.2771L42.1782 20.3191L42.1676 34.0359C42.167 34.8262 41.5258 35.4664 40.7355 35.4658C39.9452 35.4652 39.3051 34.8241 39.3057 34.0337L39.3168 19.4967C39.3172 18.9886 39.587 18.5189 40.0255 18.2625L51.0672 11.8065C51.7494 11.4076 52.6259 11.6373 53.0248 12.3195Z" fill="#BAC7E1"/>
<path fill-rule="evenodd" clip-rule="evenodd" d="M50.9745 7.02275C51.3689 7.70762 51.1334 8.58253 50.4486 8.97694L36.445 17.0414V30.3922C36.445 31.1825 35.8043 31.8232 35.014 31.8232C34.2237 31.8232 33.583 31.1825 33.583 30.3922V16.2142C33.583 15.7024 33.8563 15.2296 34.2999 14.9742L49.0204 6.49683C49.7052 6.10243 50.5801 6.33789 50.9745 7.02275Z" fill="#BAC7E1"/>
<path fill-rule="evenodd" clip-rule="evenodd" d="M55.1619 17.8158C55.5488 18.5049 55.3038 19.3771 54.6146 19.764L47.8697 23.5505V30.4001C47.8697 31.1904 47.2291 31.8311 46.4388 31.8311C45.6485 31.8311 45.0078 31.1904 45.0078 30.4001V22.7127C45.0078 22.1953 45.2871 21.7182 45.7383 21.4649L53.2137 17.2684C53.9028 16.8815 54.7751 17.1266 55.1619 17.8158Z" fill="#BAC7E1"/>
</g>
</g>
<defs>
<filter id="filter0_d_3671_2107" x="-3.8335" y="0" width="224.667" height="46.5769" filterUnits="userSpaceOnUse" color-interpolation-filters="sRGB">
<feFlood flood-opacity="0" result="BackgroundImageFix"/>
<feColorMatrix in="SourceAlpha" type="matrix" values="0 0 0 0 0 0 0 0 0 0 0 0 0 0 0 0 0 0 127 0" result="hardAlpha"/>
<feOffset dy="4"/>
<feGaussianBlur stdDeviation="2"/>
<feComposite in2="hardAlpha" operator="out"/>
<feColorMatrix type="matrix" values="0 0 0 0 0 0 0 0 0 0 0 0 0 0 0 0 0 0 0.27 0"/>
<feBlend mode="normal" in2="BackgroundImageFix" result="effect1_dropShadow_3671_2107"/>
<feBlend mode="normal" in="SourceGraphic" in2="effect1_dropShadow_3671_2107" result="shape"/>
</filter>
<clipPath id="clip0_3671_2107">
<rect width="149.833" height="34.577" fill="white" transform="translate(33.583 4)"/>
</clipPath>
</defs>
</svg>
