<svg width="306" height="50" viewBox="0 0 306 50" fill="none" xmlns="http://www.w3.org/2000/svg">
<g filter="url(#filter0_d_3673_2161)">
<g clip-path="url(#clip0_3673_2161)">
<path fill-rule="evenodd" clip-rule="evenodd" d="M221.939 9.18311H216.519V15.8171H213.885V20.1333H216.519V33.7936H221.939V20.1333H226.043V15.8171H221.939V9.18311ZM198.113 32.7569C199.563 33.5339 201.324 33.9223 203.396 33.9223C204.329 33.9223 205.312 33.767 206.348 33.4562C207.411 33.1454 208.395 32.731 209.301 32.213L206.892 28.1729C206.348 28.5097 205.792 28.7816 205.222 28.9888C204.678 29.196 204.109 29.2994 203.512 29.2994C202.684 29.2994 201.934 29.1182 201.26 28.7556C200.826 28.5224 200.452 28.2196 200.137 27.8471L212.564 23.8997C212.098 21.2322 211.075 19.1992 209.495 17.8007C207.942 16.3762 205.948 15.664 203.512 15.664C201.7 15.664 200.055 16.0784 198.579 16.9072C197.104 17.71 195.924 18.7977 195.044 20.1703C194.163 21.5429 193.724 23.0839 193.724 24.7932C193.724 26.5802 194.099 28.16 194.849 29.5326C195.601 30.9052 196.688 31.98 198.113 32.7569ZM199.092 24.8259C199.087 24.7134 199.084 24.599 199.084 24.4824C199.084 23.55 199.24 22.7472 199.551 22.0739C199.887 21.3746 200.354 20.8436 200.949 20.4811C201.571 20.0926 202.282 19.8984 203.085 19.8984C204.148 19.8984 204.937 20.1575 205.456 20.6753C205.968 21.1397 206.331 21.6849 206.545 22.3109L199.092 24.8259ZM178.494 16.5354L178.875 19.2828C179.47 18.2295 180.302 17.3795 181.371 16.7329C182.459 16.0483 183.794 15.7061 185.375 15.7061C186.982 15.7061 188.317 16.1931 189.379 17.1673C190.468 18.1151 191.025 19.3525 191.052 20.8795V33.7932H185.608V22.9331C185.583 22.1695 185.375 21.564 184.987 21.1164C184.623 20.6425 184.002 20.4056 183.121 20.4056C182.292 20.4056 181.565 20.682 180.944 21.235C180.322 21.7878 179.842 22.5381 179.506 23.4859C179.168 24.4337 179 25.5264 179 26.7637V33.7932H173.557V16.5354H178.494ZM155.393 41.4593C156.455 41.822 157.75 42.0032 159.278 42.0032C161.143 42.0032 162.839 41.6277 164.367 40.8766C165.921 40.1514 167.164 39.1415 168.096 37.8466C169.029 36.5775 169.495 35.1143 169.495 33.4568V16.4804H164.484L164.068 17.8097C163.524 17.2016 162.718 16.6938 161.648 16.2862C160.586 15.8459 159.317 15.6258 157.841 15.6258C156.364 15.6258 154.966 16.0272 153.645 16.83C152.324 17.6329 151.249 18.7336 150.421 20.1321C149.592 21.5047 149.178 23.0845 149.178 24.8715C149.178 26.6067 149.566 28.1606 150.343 29.5332C151.12 30.8799 152.156 31.9547 153.451 32.7575C154.772 33.5345 156.196 33.9229 157.724 33.9229C159.485 33.9229 160.91 33.5992 161.997 32.9518C162.932 32.3728 163.619 31.7174 164.056 30.9853V33.3791C164.056 34.2337 163.823 34.9459 163.357 35.5157C162.917 36.0854 162.321 36.5128 161.57 36.7976C160.845 37.1084 160.055 37.2639 159.2 37.2639C157.905 37.2639 156.856 37.0048 156.054 36.4868C155.277 35.9948 154.59 35.4769 153.995 34.933L150.809 38.6624C151.379 39.1285 152.026 39.6206 152.752 40.1386C153.477 40.6566 154.357 41.0968 155.393 41.4593ZM155.277 27.1635C154.862 26.4383 154.655 25.6226 154.655 24.7161C154.655 23.8097 154.862 23.0068 155.277 22.3076C155.691 21.6083 156.248 21.0644 156.947 20.6759C157.672 20.2615 158.475 20.0544 159.356 20.0544C160.107 20.0544 160.78 20.1709 161.376 20.404C161.997 20.6112 162.541 20.922 163.007 21.3364C163.473 21.7249 163.823 22.204 164.056 22.7737V26.9304C163.745 27.5002 163.357 27.9793 162.891 28.3678C162.451 28.7303 161.933 29.0153 161.337 29.2224C160.767 29.4036 160.107 29.4944 159.356 29.4944C158.475 29.4944 157.672 29.2872 156.947 28.8728C156.248 28.4584 155.691 27.8887 155.277 27.1635ZM135.34 33.9229C133.761 33.9229 132.323 33.6121 131.028 32.9907C129.759 32.3431 128.749 31.359 127.998 30.0382C127.247 28.7173 126.872 27.0339 126.872 24.988C126.872 23.0715 127.26 21.4141 128.037 20.0155C128.814 18.617 129.837 17.5422 131.106 16.7912C132.375 16.0142 133.722 15.6258 135.146 15.6258C136.83 15.6258 138.099 15.9107 138.953 16.4804C139.793 16.9991 140.491 17.5767 141.049 18.2132L141.401 16.4804H146.451V33.4568H141.012V31.3515L140.973 31.3978C140.714 31.6828 140.326 32.0323 139.808 32.4467C139.316 32.8352 138.694 33.1719 137.943 33.4568C137.218 33.7676 136.35 33.9229 135.34 33.9229ZM136.894 29.4944C137.542 29.4944 138.124 29.4036 138.642 29.2224C139.16 29.0153 139.614 28.7303 140.002 28.3678C140.391 27.9793 140.727 27.5002 141.012 26.9303V22.7737C140.805 22.204 140.494 21.7249 140.08 21.3364C139.665 20.922 139.173 20.6112 138.604 20.404C138.034 20.1709 137.399 20.0544 136.7 20.0544C135.923 20.0544 135.198 20.2615 134.525 20.6759C133.877 21.0644 133.359 21.6083 132.971 22.3076C132.582 23.0068 132.388 23.8097 132.388 24.7161C132.388 25.6226 132.595 26.4383 133.01 27.1635C133.424 27.8887 133.968 28.4584 134.641 28.8728C135.34 29.2872 136.091 29.4944 136.894 29.4944ZM101.478 19.3098L101.093 16.573H96.1699V33.7932H101.597V26.6608C101.597 25.6625 101.739 24.6906 102.023 23.7448C102.334 22.7991 102.773 22.0241 103.342 21.4199C103.936 20.7894 104.659 20.4742 105.512 20.4742C106.262 20.5267 106.753 20.8025 106.985 21.3016C107.244 21.7746 107.386 22.3919 107.412 23.1537V33.7932H112.839V26.7397C112.839 25.7151 112.981 24.7299 113.265 23.7842C113.575 22.8122 114.028 22.0241 114.622 21.4199C115.242 20.7894 115.992 20.4742 116.871 20.4742C117.62 20.5267 118.098 20.8025 118.305 21.3016C118.512 21.7746 118.628 22.3919 118.654 23.1537V33.7932H124.042V20.8682C124.016 19.3445 123.499 18.1098 122.491 17.1641C121.509 16.1921 120.178 15.7061 118.499 15.7061C117.387 15.7061 116.315 16.0344 115.281 16.6912C114.342 17.3029 113.527 18.097 112.835 19.0734C112.646 18.3413 112.324 17.7443 111.87 17.2823C111.379 16.7569 110.771 16.3628 110.048 16.1001C109.35 15.8374 108.536 15.7061 107.606 15.7061C106.184 15.7061 104.97 16.0344 103.962 16.6912C102.972 17.3106 102.144 18.1834 101.478 19.3098Z" fill="#BAC7E1"/>
<path fill-rule="evenodd" clip-rule="evenodd" d="M60.7378 8.52151C63.3193 9.10363 64.949 11.6371 64.3752 14.2607L59.8213 35.3677C59.2479 37.9521 56.7156 39.6086 54.1336 39.0657C51.5521 38.4836 49.9224 35.9502 50.4576 33.3262L55.0115 12.2191C55.624 9.59604 58.1563 7.9394 60.7378 8.52151Z" fill="#585A5E"/>
<path fill-rule="evenodd" clip-rule="evenodd" d="M78.185 8.49319C75.6035 9.07531 73.9738 11.6088 74.5476 14.2323L79.1015 35.3393C79.6749 37.9237 82.2072 39.5804 84.7892 39.0375C87.3708 38.4554 89.0004 35.9219 88.4651 33.2978L83.9114 12.1908C83.2988 9.56771 80.7664 7.91108 78.185 8.49319Z" fill="#585A5E"/>
<path d="M55.0016 11.9905C55.1566 11.127 55.6604 10.2635 56.2804 9.55702C58.0242 7.59454 61.2017 7.47679 63.1393 9.24302L87.0484 30.8695C88.9858 32.6358 89.1797 35.6579 87.397 37.6204C85.6533 39.5829 82.6308 39.7398 80.6933 37.9737L57.8692 17.3284C54.6529 14.424 53.5679 18.9377 53.5679 18.9377L55.0016 11.9905Z" fill="#949DA1"/>
<path d="M84.1122 12.3208C83.9573 11.468 83.4535 10.6152 82.8335 9.9174C81.0897 7.97915 77.9122 7.86286 75.9746 9.60728L52.0656 30.9668C50.128 32.7112 49.9343 35.696 51.7168 37.6344C53.4606 39.5726 56.4831 39.7277 58.4207 37.9832L81.2447 17.5929C84.461 14.7243 85.5461 19.1822 85.5461 19.1822L84.1122 12.3208Z" fill="#BAC7E1"/>
<path fill-rule="evenodd" clip-rule="evenodd" d="M255.806 15.8871H250.368V33.753H255.806V15.8871ZM251.182 8.77402C250.562 9.29199 250.251 9.9524 250.251 10.7553C250.251 11.5581 250.562 12.2185 251.182 12.7365C251.831 13.2285 252.517 13.4746 253.242 13.4746C253.967 13.4746 254.628 13.2285 255.223 12.7365C255.845 12.2185 256.156 11.5581 256.156 10.7553C256.156 9.9524 255.845 9.29199 255.223 8.77402C254.628 8.25605 253.967 7.99707 253.242 7.99707C252.517 7.99707 251.831 8.25605 251.182 8.77402ZM230.896 32.9913C232.19 33.6128 233.628 33.9236 235.207 33.9236C236.217 33.9236 237.085 33.7682 237.811 33.4574C238.561 33.1726 239.183 32.8359 239.675 32.4474C240.192 32.033 240.581 31.6834 240.84 31.3986C240.853 31.3827 240.867 31.3672 240.879 31.3522V33.754H246.318V16.4811H241.267L240.915 18.2139C240.359 17.5774 239.661 16.9998 238.82 16.4811C237.965 15.9113 236.697 15.6264 235.013 15.6264C233.589 15.6264 232.242 16.0149 230.973 16.7919C229.704 17.5429 228.681 18.6177 227.904 20.0162C227.127 21.4147 226.738 23.0722 226.738 24.9887C226.738 27.0347 227.115 28.7181 227.865 30.0388C228.616 31.3597 229.626 32.3438 230.896 32.9913ZM238.509 29.223C237.992 29.4044 237.409 29.495 236.762 29.495C235.959 29.495 235.207 29.2878 234.509 28.8734C233.835 28.459 233.29 27.8893 232.876 27.1641C232.462 26.4389 232.255 25.6232 232.255 24.7168C232.255 23.8103 232.449 23.0075 232.837 22.3082C233.226 21.6089 233.745 21.065 234.392 20.6766C235.065 20.2623 235.79 20.055 236.567 20.055C237.267 20.055 237.901 20.1715 238.47 20.4047C239.04 20.6119 239.533 20.9227 239.947 21.337C240.361 21.7255 240.672 22.2046 240.879 22.7743V26.9311C240.594 27.5008 240.258 27.9799 239.869 28.3684C239.481 28.7309 239.028 29.0159 238.509 29.223Z" fill="#585A5E"/>
</g>
</g>
<defs>
<filter id="filter0_d_3673_2161" x="-3.67871" y="7.99707" width="313.357" height="42.0059" filterUnits="userSpaceOnUse" color-interpolation-filters="sRGB">
<feFlood flood-opacity="0" result="BackgroundImageFix"/>
<feColorMatrix in="SourceAlpha" type="matrix" values="0 0 0 0 0 0 0 0 0 0 0 0 0 0 0 0 0 0 127 0" result="hardAlpha"/>
<feOffset dy="4"/>
<feGaussianBlur stdDeviation="2"/>
<feComposite in2="hardAlpha" operator="out"/>
<feColorMatrix type="matrix" values="0 0 0 0 0 0 0 0 0 0 0 0 0 0 0 0 0 0 0.27 0"/>
<feBlend mode="normal" in2="BackgroundImageFix" result="effect1_dropShadow_3673_2161"/>
<feBlend mode="normal" in="SourceGraphic" in2="effect1_dropShadow_3673_2161" result="shape"/>
</filter>
<clipPath id="clip0_3673_2161">
<rect width="207.679" height="34.0059" fill="white" transform="translate(49.1606 7.99707)"/>
</clipPath>
</defs>
</svg>
