<svg width="153" height="54" viewBox="0 0 153 54" fill="none" xmlns="http://www.w3.org/2000/svg">
<g filter="url(#filter0_d_3671_2117)">
<path d="M26.4809 7.62262C11.9812 7.62262 5.78543 17.3598 4.5 22.2284C7.39223 19.3361 15.0084 15.8655 21.998 15.8655C33.8079 15.8655 39.1103 23.2889 39.1103 23.2889C35.1576 19.9146 28.2163 19.2397 25.6133 19.2397C9.94703 19.2397 6.76558 26.0847 6.76558 30.423C6.76558 34.7614 8.64553 45.077 26.963 45.077C41.6169 45.077 47.3371 35.3077 48.3654 30.423C46.9515 32.5761 41.6458 36.8823 31.7351 36.8823C21.8244 36.8823 15.4262 31.837 13.4659 29.3143C19.636 33.4116 24.36 33.5081 27.3968 33.5081C43.9307 33.5081 46.0035 26.1329 46.0035 22.2284C46.0035 18.3239 44.6056 7.62262 26.4809 7.62262Z" fill="#BAC7E1"/>
<path d="M68.332 34.136C66.5264 34.136 64.9441 33.781 63.5849 33.0709C62.2459 32.3406 61.2012 31.3466 60.4506 30.0888C59.7202 28.831 59.3551 27.4008 59.3551 25.7981C59.3551 24.1752 59.7101 22.745 60.4201 21.5075C61.1505 20.2497 62.1445 19.2658 63.4023 18.5558C64.6803 17.8457 66.1309 17.4907 67.7538 17.4907C69.3362 17.4907 70.7461 17.8356 71.9836 18.5253C73.2211 19.2151 74.1948 20.1888 74.9049 21.4466C75.6149 22.7044 75.9699 24.1853 75.9699 25.8894C75.9699 26.0517 75.9598 26.2343 75.9395 26.4372C75.9395 26.64 75.9294 26.8328 75.9091 27.0153H62.3677V24.4896H73.9007L72.4096 25.2808C72.4299 24.3476 72.2372 23.526 71.8314 22.816C71.4257 22.1059 70.8678 21.5481 70.1578 21.1423C69.468 20.7366 68.6667 20.5337 67.7538 20.5337C66.8206 20.5337 65.999 20.7366 65.289 21.1423C64.5992 21.5481 64.0515 22.1161 63.6457 22.8464C63.2603 23.5564 63.0676 24.3983 63.0676 25.3721V25.9807C63.0676 26.9545 63.2907 27.8167 63.737 28.5673C64.1833 29.3179 64.8122 29.8961 65.6237 30.3018C66.4352 30.7075 67.3683 30.9104 68.4233 30.9104C69.3362 30.9104 70.1578 30.7684 70.8881 30.4844C71.6184 30.2004 72.2676 29.754 72.8356 29.1454L74.8744 31.4886C74.1441 32.3406 73.2211 32.9999 72.1053 33.4665C71.0098 33.9128 69.752 34.136 68.332 34.136ZM87.2616 34.136C85.4561 34.136 83.8738 33.781 82.5145 33.0709C81.1756 32.3406 80.1308 31.3466 79.3802 30.0888C78.6499 28.831 78.2848 27.4008 78.2848 25.7981C78.2848 24.1752 78.6398 22.745 79.3498 21.5075C80.0801 20.2497 81.0742 19.2658 82.332 18.5558C83.61 17.8457 85.0605 17.4907 86.6835 17.4907C88.2658 17.4907 89.6758 17.8356 90.9133 18.5253C92.1507 19.2151 93.1245 20.1888 93.8345 21.4466C94.5446 22.7044 94.8996 24.1853 94.8996 25.8894C94.8996 26.0517 94.8895 26.2343 94.8692 26.4372C94.8692 26.64 94.859 26.8328 94.8387 27.0153H81.2973V24.4896H92.8304L91.3393 25.2808C91.3596 24.3476 91.1668 23.526 90.7611 22.816C90.3554 22.1059 89.7975 21.5481 89.0874 21.1423C88.3977 20.7366 87.5964 20.5337 86.6835 20.5337C85.7503 20.5337 84.9287 20.7366 84.2186 21.1423C83.5289 21.5481 82.9811 22.1161 82.5754 22.8464C82.19 23.5564 81.9972 24.3983 81.9972 25.3721V25.9807C81.9972 26.9545 82.2204 27.8167 82.6667 28.5673C83.113 29.3179 83.7419 29.8961 84.5534 30.3018C85.3648 30.7075 86.298 30.9104 87.3529 30.9104C88.2658 30.9104 89.0874 30.7684 89.8178 30.4844C90.5481 30.2004 91.1973 29.754 91.7653 29.1454L93.8041 31.4886C93.0738 32.3406 92.1507 32.9999 91.035 33.4665C89.9395 33.9128 88.6817 34.136 87.2616 34.136ZM103.574 34.136C102.215 34.136 100.907 33.9635 99.6488 33.6187C98.4113 33.2535 97.4274 32.8173 96.6971 32.3102L98.1578 29.4193C98.8881 29.8859 99.7604 30.2714 100.775 30.5757C101.789 30.88 102.803 31.0321 103.818 31.0321C105.015 31.0321 105.877 30.8698 106.404 30.5452C106.952 30.2206 107.226 29.7845 107.226 29.2367C107.226 28.7904 107.043 28.4557 106.678 28.2325C106.313 27.9891 105.836 27.8065 105.248 27.6848C104.66 27.5631 104 27.4515 103.27 27.3501C102.56 27.2486 101.84 27.1168 101.109 26.9545C100.399 26.7719 99.7503 26.5183 99.162 26.1937C98.5736 25.8488 98.0969 25.3924 97.7317 24.8244C97.3666 24.2563 97.184 23.5057 97.184 22.5725C97.184 21.5379 97.4782 20.6453 98.0665 19.8947C98.6548 19.1238 99.4764 18.5355 100.531 18.1297C101.607 17.7037 102.874 17.4907 104.335 17.4907C105.431 17.4907 106.536 17.6124 107.652 17.8559C108.768 18.0993 109.691 18.4442 110.421 18.8905L108.96 21.7814C108.19 21.3148 107.409 21.0003 106.617 20.838C105.846 20.6554 105.076 20.5641 104.305 20.5641C103.148 20.5641 102.286 20.7366 101.718 21.0815C101.17 21.4263 100.896 21.8625 100.896 22.39C100.896 22.8768 101.079 23.242 101.444 23.4854C101.809 23.7289 102.286 23.9216 102.874 24.0636C103.463 24.2056 104.112 24.3273 104.822 24.4288C105.552 24.5099 106.272 24.6418 106.983 24.8244C107.693 25.0069 108.342 25.2605 108.93 25.5851C109.539 25.8894 110.026 26.3256 110.391 26.8936C110.756 27.4616 110.938 28.2021 110.938 29.115C110.938 30.1294 110.634 31.0118 110.026 31.7624C109.437 32.513 108.595 33.1014 107.5 33.5274C106.404 33.9331 105.096 34.136 103.574 34.136ZM121.852 34.136C120.047 34.136 118.464 33.781 117.105 33.0709C115.766 32.3406 114.721 31.3466 113.971 30.0888C113.24 28.831 112.875 27.4008 112.875 25.7981C112.875 24.1752 113.23 22.745 113.94 21.5075C114.671 20.2497 115.665 19.2658 116.922 18.5558C118.201 17.8457 119.651 17.4907 121.274 17.4907C122.856 17.4907 124.266 17.8356 125.504 18.5253C126.741 19.2151 127.715 20.1888 128.425 21.4466C129.135 22.7044 129.49 24.1853 129.49 25.8894C129.49 26.0517 129.48 26.2343 129.46 26.4372C129.46 26.64 129.45 26.8328 129.429 27.0153H115.888V24.4896H127.421L125.93 25.2808C125.95 24.3476 125.757 23.526 125.352 22.816C124.946 22.1059 124.388 21.5481 123.678 21.1423C122.988 20.7366 122.187 20.5337 121.274 20.5337C120.341 20.5337 119.519 20.7366 118.809 21.1423C118.119 21.5481 117.572 22.1161 117.166 22.8464C116.78 23.5564 116.588 24.3983 116.588 25.3721V25.9807C116.588 26.9545 116.811 27.8167 117.257 28.5673C117.703 29.3179 118.332 29.8961 119.144 30.3018C119.955 30.7075 120.889 30.9104 121.943 30.9104C122.856 30.9104 123.678 30.7684 124.408 30.4844C125.139 30.2004 125.788 29.754 126.356 29.1454L128.395 31.4886C127.664 32.3406 126.741 32.9999 125.625 33.4665C124.53 33.9128 123.272 34.136 121.852 34.136ZM140.782 34.136C138.976 34.136 137.394 33.781 136.035 33.0709C134.696 32.3406 133.651 31.3466 132.9 30.0888C132.17 28.831 131.805 27.4008 131.805 25.7981C131.805 24.1752 132.16 22.745 132.87 21.5075C133.6 20.2497 134.594 19.2658 135.852 18.5558C137.13 17.8457 138.581 17.4907 140.204 17.4907C141.786 17.4907 143.196 17.8356 144.433 18.5253C145.671 19.2151 146.645 20.1888 147.355 21.4466C148.065 22.7044 148.42 24.1853 148.42 25.8894C148.42 26.0517 148.41 26.2343 148.389 26.4372C148.389 26.64 148.379 26.8328 148.359 27.0153H134.818V24.4896H146.351L144.859 25.2808C144.88 24.3476 144.687 23.526 144.281 22.816C143.876 22.1059 143.318 21.5481 142.608 21.1423C141.918 20.7366 141.117 20.5337 140.204 20.5337C139.27 20.5337 138.449 20.7366 137.739 21.1423C137.049 21.5481 136.501 22.1161 136.096 22.8464C135.71 23.5564 135.517 24.3983 135.517 25.3721V25.9807C135.517 26.9545 135.741 27.8167 136.187 28.5673C136.633 29.3179 137.262 29.8961 138.074 30.3018C138.885 30.7075 139.818 30.9104 140.873 30.9104C141.786 30.9104 142.608 30.7684 143.338 30.4844C144.068 30.2004 144.717 29.754 145.285 29.1454L147.324 31.4886C146.594 32.3406 145.671 32.9999 144.555 33.4665C143.46 33.9128 142.202 34.136 140.782 34.136Z" fill="#BAC7E1"/>
</g>
<defs>
<filter id="filter0_d_3671_2117" x="0.5" y="0" width="151.92" height="58" filterUnits="userSpaceOnUse" color-interpolation-filters="sRGB">
<feFlood flood-opacity="0" result="BackgroundImageFix"/>
<feColorMatrix in="SourceAlpha" type="matrix" values="0 0 0 0 0 0 0 0 0 0 0 0 0 0 0 0 0 0 127 0" result="hardAlpha"/>
<feOffset dy="4"/>
<feGaussianBlur stdDeviation="2"/>
<feComposite in2="hardAlpha" operator="out"/>
<feColorMatrix type="matrix" values="0 0 0 0 0 0 0 0 0 0 0 0 0 0 0 0 0 0 0.27 0"/>
<feBlend mode="normal" in2="BackgroundImageFix" result="effect1_dropShadow_3671_2117"/>
<feBlend mode="normal" in="SourceGraphic" in2="effect1_dropShadow_3671_2117" result="shape"/>
</filter>
</defs>
</svg>
