<svg width="119" height="52" viewBox="0 0 119 52" fill="none" xmlns="http://www.w3.org/2000/svg">
<g filter="url(#filter0_d_3671_2093)">
<path d="M90.2183 34.0405H84.7974V17.5196C84.7974 16.2255 85.8299 15.9707 86.2171 15.9707H89.3148C91.8962 15.7081 103.9 19.1917 109.579 26.0382V15.9707H115V34.0405H109.45C102.867 25.6476 96.0265 22.2918 90.2183 21.6464V34.0405Z" fill="#BAC7E1"/>
<path fill-rule="evenodd" clip-rule="evenodd" d="M45.3027 34.0349V19.8372C45.3027 17.643 46.9806 15.9651 49.0458 15.9651H60.0167C65.3086 15.9651 71.7621 18.4174 71.7621 24.7418C71.7621 31.0663 66.4702 34.0349 60.9202 34.0349H45.3027ZM49.3039 20.8697V30.6791C52.4446 30.636 58.3388 30.6791 60.4039 30.6791C64.276 30.6791 67.1156 28.3558 67.1156 24.7418C67.1156 21.1279 63.3725 19.45 60.4039 19.45H50.5946C49.9493 19.45 49.3039 20.0953 49.3039 20.8697Z" fill="#BAC7E1"/>
<path d="M45.3027 34.0349C45.3027 30.0337 45.3027 21.5925 45.3027 19.8372M45.3027 34.0349C48.6586 34.0349 56.4802 34.0349 60.9202 34.0349M45.3027 34.0349V19.8372M45.3027 34.0349H60.9202M45.3027 19.8372C45.3027 17.643 46.9806 15.9651 49.0458 15.9651M49.0458 15.9651C51.1109 15.9651 54.7248 15.9651 60.0167 15.9651M49.0458 15.9651H60.0167M60.0167 15.9651C65.3086 15.9651 71.7621 18.4174 71.7621 24.7418C71.7621 31.0663 66.4702 34.0349 60.9202 34.0349M49.3039 30.6791C49.3039 27.8395 49.3039 21.9023 49.3039 20.8697M49.3039 30.6791C52.4446 30.636 58.3388 30.6791 60.4039 30.6791C64.276 30.6791 67.1156 28.3558 67.1156 24.7418C67.1156 21.1279 63.3725 19.45 60.4039 19.45M49.3039 30.6791V20.8697M49.3039 20.8697C49.3039 20.0953 49.9493 19.45 50.5946 19.45M50.5946 19.45C51.24 19.45 58.3388 19.45 60.4039 19.45M50.5946 19.45H60.4039" stroke="#BAC7E1" stroke-width="0.25814"/>
<path fill-rule="evenodd" clip-rule="evenodd" d="M22.0698 43.0698C32.0495 43.0698 40.1396 34.9797 40.1396 25C40.1396 15.0203 32.0495 6.93018 22.0698 6.93018C12.0901 6.93018 4 15.0203 4 25C4 34.9797 12.0901 43.0698 22.0698 43.0698ZM16.2615 15.061H28.136V17.2552C26.6302 17.9866 23.6185 20.5852 23.6185 25.1285C23.6185 29.6718 26.6302 32.0122 28.136 32.6146V35.0669H16.1325V32.6146C17.6383 31.8832 20.6499 29.362 20.6499 25.1285C20.6499 20.895 17.8104 18.2878 16.2615 17.5134V15.061Z" fill="#BAC7E1"/>
<path d="M81.9587 15.9651H72.1494V18.0535C73.4484 18.713 75.7634 21.7819 75.7634 25.3872C75.7634 28.6139 73.311 31.1953 72.1494 31.9465V34.0349H81.9587V31.9465C80.668 31.1953 78.3448 28.6139 78.3448 25.3872C78.3448 21.5181 80.6958 18.6764 81.9587 18.0535V15.9651Z" fill="#BAC7E1"/>
</g>
<defs>
<filter id="filter0_d_3671_2093" x="0" y="0" width="119" height="58" filterUnits="userSpaceOnUse" color-interpolation-filters="sRGB">
<feFlood flood-opacity="0" result="BackgroundImageFix"/>
<feColorMatrix in="SourceAlpha" type="matrix" values="0 0 0 0 0 0 0 0 0 0 0 0 0 0 0 0 0 0 127 0" result="hardAlpha"/>
<feOffset dy="4"/>
<feGaussianBlur stdDeviation="2"/>
<feComposite in2="hardAlpha" operator="out"/>
<feColorMatrix type="matrix" values="0 0 0 0 0 0 0 0 0 0 0 0 0 0 0 0 0 0 0.27 0"/>
<feBlend mode="normal" in2="BackgroundImageFix" result="effect1_dropShadow_3671_2093"/>
<feBlend mode="normal" in="SourceGraphic" in2="effect1_dropShadow_3671_2093" result="shape"/>
</filter>
</defs>
</svg>
