<svg width="158" height="58" viewBox="0 0 158 58" fill="none" xmlns="http://www.w3.org/2000/svg">
<g clip-path="url(#clip0_3671_1822)" filter="url(#filter0_d_3671_1822)">
<path d="M70.6563 37.3499C70.0966 36.3928 69.3293 35.6634 68.3546 35.1637C67.3797 34.6639 66.2822 34.4141 65.0618 34.4141C63.976 34.4141 62.9852 34.6552 62.0863 35.1389C61.3542 35.5319 60.7375 36.0464 60.2303 36.6762V35.3552C60.2303 35.1184 60.1631 34.9313 60.0272 34.7954C59.8912 34.6596 59.7042 34.5923 59.4675 34.5923C59.2468 34.5923 59.0641 34.6609 58.9208 34.7954C58.7762 34.9313 58.7046 35.1184 58.7046 35.3552V47.7388C58.7046 47.9594 58.7762 48.1421 58.9208 48.2853C59.0641 48.4301 59.2468 48.5016 59.4675 48.5016C59.7042 48.5016 59.8912 48.4301 60.0272 48.2853C60.1631 48.1421 60.2303 47.9594 60.2303 47.7388V39.9584C60.2303 39.1957 60.4422 38.5088 60.8661 37.8994C61.2898 37.2886 61.8657 36.8107 62.595 36.4629C63.3242 36.1151 64.1456 35.9412 65.0618 35.9412C65.9782 35.9412 66.8288 36.1238 67.5668 36.4877C68.3048 36.8531 68.8895 37.3996 69.3221 38.1273C69.7546 38.8566 69.971 39.7802 69.971 40.8996V47.7402C69.971 47.9609 70.0426 48.1436 70.1872 48.2868C70.3305 48.4314 70.5131 48.5031 70.7338 48.5031C70.9545 48.5031 71.1357 48.4314 71.2803 48.2868C71.4236 48.1436 71.4967 47.9609 71.4967 47.7402V40.8996C71.4967 39.4923 71.2176 38.3101 70.6578 37.3528L70.6563 37.3499Z" fill="#BAC7E1"/>
<path d="M85.9555 37.7148C85.412 36.6864 84.656 35.8791 83.6861 35.2931C82.7177 34.7071 81.6043 34.4141 80.3473 34.4141C79.0901 34.4141 77.9416 34.7202 76.957 35.3312C75.971 35.9436 75.1975 36.7801 74.6379 37.8423C74.0768 38.9044 73.7969 40.1322 73.7969 41.5256C73.7969 42.9188 74.0943 44.1259 74.6891 45.1969C75.2839 46.2679 76.1044 47.1046 77.149 47.7081C78.1936 48.3117 79.3876 48.6136 80.7311 48.6136C81.5295 48.6136 82.3661 48.4523 83.2421 48.1286C84.1169 47.8063 84.8259 47.3976 85.371 46.9053C85.5409 46.7529 85.6215 46.5829 85.6127 46.3954C85.6039 46.2093 85.5057 46.0379 85.3196 45.8856C85.1834 45.7669 85.0179 45.7112 84.823 45.7199C84.6281 45.7288 84.4611 45.8006 84.3264 45.9368C83.9351 46.3104 83.4048 46.6122 82.7324 46.8423C82.0614 47.0723 81.3948 47.1866 80.7311 47.1866C79.6776 47.1866 78.743 46.9448 77.9269 46.4598C77.1109 45.9749 76.4736 45.3083 76.015 44.4586C75.6209 43.7289 75.3968 42.9042 75.3411 41.9856H86.0331C86.2544 41.9856 86.4316 41.9211 86.5679 41.7951C86.7041 41.6676 86.7715 41.4933 86.7715 41.2721C86.7715 39.9301 86.499 38.7448 85.9555 37.7163V37.7148ZM75.9755 38.5689C76.4091 37.7192 77.0039 37.0527 77.7599 36.5677C78.5159 36.0828 79.3788 35.8411 80.3473 35.8411C81.3669 35.8411 82.2548 36.0828 83.0108 36.5677C83.7668 37.0527 84.3498 37.7192 84.7571 38.5689C85.0574 39.1961 85.2376 39.8934 85.2976 40.6597H75.3719C75.4568 39.8904 75.6561 39.1931 75.974 38.5689H75.9755Z" fill="#BAC7E1"/>
<path d="M115.691 34.9259C115.581 34.6898 115.375 34.5703 115.07 34.5703C114.732 34.5703 114.495 34.7219 114.36 35.0266L110.839 45.6388L107.511 35.1797C107.444 34.9946 107.346 34.8458 107.219 34.7364C107.093 34.6272 106.937 34.5717 106.75 34.5717C106.563 34.5717 106.403 34.6272 106.267 34.7364C106.132 34.8473 106.039 34.9946 105.989 35.1797L102.698 45.8269L99.1149 35.0281C99.0477 34.8764 98.9457 34.7612 98.8101 34.6854C98.6746 34.6096 98.539 34.5717 98.4049 34.5717C98.1511 34.5717 97.9734 34.6607 97.8727 34.8386C97.7706 35.0164 97.7546 35.2904 97.8216 35.6637L101.932 47.9672C101.983 48.1188 102.071 48.2383 102.198 48.3229C102.325 48.4074 102.472 48.4498 102.643 48.4498C102.795 48.4498 102.935 48.4118 103.061 48.3361C103.188 48.2602 103.286 48.1378 103.353 47.9687L106.692 37.2266L110.151 47.9687C110.185 48.1203 110.269 48.2398 110.405 48.3244C110.541 48.4089 110.692 48.4512 110.861 48.4512C111.048 48.4512 111.204 48.4089 111.331 48.3244C111.458 48.2398 111.547 48.1217 111.598 47.9687L115.681 35.6652C115.799 35.4114 115.804 35.1666 115.694 34.9289L115.691 34.9259Z" fill="#BAC7E1"/>
<path d="M123.61 48.6136C122.256 48.6136 121.041 48.3041 119.965 47.6864C118.889 47.0689 118.042 46.2221 117.425 45.1462C116.806 44.0702 116.498 42.8642 116.498 41.5269C116.498 40.1896 116.807 38.9574 117.425 37.8814C118.042 36.8069 118.889 35.9602 119.965 35.3412C121.039 34.7236 122.256 34.4141 123.61 34.4141C124.965 34.4141 126.176 34.7236 127.243 35.3412C128.31 35.9602 129.152 36.8069 129.77 37.8814C130.387 38.9574 130.697 40.1721 130.697 41.5269C130.697 42.8817 130.387 44.0716 129.77 45.1462C129.151 46.2221 128.308 47.0689 127.243 47.6864C126.176 48.3054 124.965 48.6136 123.61 48.6136ZM123.61 47.1916C124.678 47.1916 125.63 46.9419 126.469 46.4426C127.307 45.9433 127.968 45.2658 128.45 44.4103C128.933 43.5548 129.174 42.5854 129.174 41.5021C129.174 40.4188 128.933 39.4742 128.45 38.6187C127.967 37.7632 127.307 37.0858 126.469 36.5864C125.631 36.0872 124.678 35.8374 123.61 35.8374C122.543 35.8374 121.612 36.0872 120.765 36.5864C119.918 37.0858 119.25 37.7632 118.758 38.6187C118.266 39.4742 118.02 40.4437 118.02 41.5269C118.02 42.6102 118.266 43.5548 118.758 44.4103C119.248 45.2658 119.917 45.9433 120.765 46.4426C121.612 46.9419 122.559 47.1916 123.61 47.1916Z" fill="#BAC7E1"/>
<path d="M140.354 34.7992C139.999 34.6476 139.5 34.5703 138.856 34.5703C137.909 34.5703 137.047 34.8079 136.269 35.2803C135.556 35.7147 134.964 36.3037 134.492 37.0429V35.4829C134.492 35.2467 134.426 35.0602 134.29 34.9246C134.155 34.7889 133.969 34.7219 133.732 34.7219C133.512 34.7219 133.33 34.7904 133.186 34.9246C133.042 35.0602 132.971 35.2467 132.971 35.4829V47.8374C132.971 48.0576 133.042 48.2398 133.186 48.3827C133.33 48.5271 133.512 48.5984 133.732 48.5984C133.969 48.5984 134.155 48.5271 134.29 48.3827C134.426 48.2398 134.492 48.0576 134.492 47.8374V40.1249C134.492 39.3304 134.68 38.6248 135.051 38.0066C135.424 37.3899 135.939 36.9029 136.599 36.5487C137.257 36.1944 138.01 36.0166 138.856 36.0166C139.177 36.0166 139.469 36.0384 139.731 36.0807C139.994 36.1229 140.217 36.1186 140.404 36.0676C140.59 36.0166 140.709 35.8649 140.759 35.6112C140.844 35.2219 140.709 34.9522 140.354 34.7992Z" fill="#BAC7E1"/>
<path d="M153.488 47.2689L147.948 40.4895L153.337 35.5995C153.505 35.464 153.589 35.3124 153.589 35.1433C153.589 34.9741 153.514 34.805 153.36 34.6359C153.209 34.4668 153.052 34.3823 152.892 34.3823C152.732 34.3823 152.567 34.4493 152.397 34.5849L144.533 41.7404V29.3334C144.533 29.0971 144.467 28.9105 144.33 28.775C144.195 28.6394 144.008 28.5724 143.772 28.5724C143.552 28.5724 143.369 28.6394 143.227 28.775C143.083 28.9105 143.01 29.0971 143.01 29.3334V47.6231C143.01 47.8433 143.083 48.0255 143.227 48.1684C143.369 48.3128 143.552 48.3841 143.772 48.3841C144.008 48.3841 144.195 48.3128 144.33 48.1684C144.467 48.0255 144.533 47.8433 144.533 47.6231V43.5861L146.904 41.4343L152.397 48.1553C152.533 48.3244 152.689 48.4221 152.867 48.4469C153.044 48.4716 153.218 48.409 153.387 48.2559C153.574 48.1043 153.67 47.9424 153.679 47.7733C153.688 47.6041 153.623 47.435 153.489 47.2659L153.488 47.2689Z" fill="#BAC7E1"/>
<path d="M95.9498 35.2796C95.8229 35.1529 95.6579 35.0886 95.4552 35.0886H92.0905V31.0735C92.0905 30.8374 92.0233 30.6507 91.8877 30.5151C91.7519 30.3795 91.5652 30.3125 91.3288 30.3125C91.1084 30.3125 90.926 30.3795 90.783 30.5151C90.6387 30.6507 90.5672 30.8374 90.5672 31.0735V35.0886H88.5755C88.3727 35.0886 88.2078 35.1529 88.0808 35.2796C87.9539 35.4065 87.8896 35.5713 87.8896 35.7739C87.8896 35.9765 87.9539 36.1414 88.0808 36.2681C88.2078 36.395 88.3727 36.4591 88.5755 36.4591H90.5672V44.3364C90.5672 45.1659 90.7073 45.892 90.9859 46.5174C91.2647 47.1429 91.6542 47.6341 92.1532 47.9885C92.6522 48.3443 93.2228 48.5206 93.8662 48.5206H94.3739C94.6103 48.5206 94.7972 48.4491 94.9328 48.3049C95.0685 48.162 95.1357 47.9798 95.1357 47.7595C95.1357 47.5234 95.0758 47.3368 94.9577 47.2013C94.8394 47.0656 94.6862 46.9985 94.5009 46.9985H93.8662C93.3409 46.9985 92.9149 46.7493 92.5837 46.2506C92.2539 45.752 92.089 45.1134 92.089 44.3349V36.4576H95.4536C95.6565 36.4576 95.8214 36.3935 95.9483 36.2668C96.0753 36.1399 96.138 35.9751 96.138 35.7725C96.138 35.5698 96.0753 35.405 95.9483 35.2783L95.9498 35.2796Z" fill="#BAC7E1"/>
<path d="M26.8629 5.15254C26.8629 5.91143 26.2476 6.52663 25.4887 6.52663C24.7299 6.52663 24.1147 5.91143 24.1147 5.15254C24.1147 4.39364 24.7299 3.77844 25.4887 3.77844C26.2476 3.77844 26.8629 4.39364 26.8629 5.15254Z" fill="#BAC7E1"/>
<path d="M8.74672 36.6369C8.74672 37.3958 8.13152 38.0109 7.37262 38.0109C6.61374 38.0109 5.99854 37.3958 5.99854 36.6369C5.99854 35.8779 6.61374 35.2628 7.37262 35.2628C8.13152 35.2628 8.74672 35.8779 8.74672 36.6369Z" fill="#BAC7E1"/>
<path d="M43.7257 38.0109C44.4846 38.0109 45.0998 37.3958 45.0998 36.6369C45.0998 35.8779 44.4846 35.2628 43.7257 35.2628C42.9668 35.2628 42.3516 35.8779 42.3516 36.6369C42.3516 37.3958 42.9668 38.0109 43.7257 38.0109Z" fill="#BAC7E1"/>
<path d="M21.9862 7.90238C21.9862 8.79924 21.259 9.52631 20.3622 9.52631C19.4653 9.52631 18.7383 8.79924 18.7383 7.90238C18.7383 7.0055 19.4653 6.27844 20.3622 6.27844C21.259 6.27844 21.9862 7.0055 21.9862 7.90238Z" fill="#BAC7E1"/>
<path d="M25.1136 12.3991C26.0105 12.3991 26.7376 11.672 26.7376 10.7752C26.7376 9.8783 26.0105 9.15125 25.1136 9.15125C24.2167 9.15125 23.4897 9.8783 23.4897 10.7752C23.4897 11.672 24.2167 12.3991 25.1136 12.3991Z" fill="#BAC7E1"/>
<path d="M26.6096 18.0196C26.6096 18.9165 25.8826 19.6435 24.9857 19.6435C24.0888 19.6435 23.3618 18.9165 23.3618 18.0196C23.3618 17.1228 24.0888 16.3956 24.9857 16.3956C25.8826 16.3956 26.6096 17.1228 26.6096 18.0196Z" fill="#BAC7E1"/>
<path d="M25.5487 27.7684C26.4456 27.7684 27.1726 27.0414 27.1726 26.1445C27.1726 25.2476 26.4456 24.5206 25.5487 24.5206C24.6518 24.5206 23.9248 25.2476 23.9248 26.1445C23.9248 27.0414 24.6518 27.7684 25.5487 27.7684Z" fill="#BAC7E1"/>
<path d="M13.9925 34.3867C13.9925 35.2836 13.2654 36.0107 12.3686 36.0107C11.4717 36.0107 10.7446 35.2836 10.7446 34.3867C10.7446 33.4899 11.4717 32.7628 12.3686 32.7628C13.2654 32.7628 13.9925 33.4899 13.9925 34.3867Z" fill="#BAC7E1"/>
<path d="M7.24795 32.7578C8.14483 32.7578 8.87188 32.0308 8.87188 31.1339C8.87188 30.237 8.14483 29.5099 7.24795 29.5099C6.35108 29.5099 5.62402 30.237 5.62402 31.1339C5.62402 32.0308 6.35108 32.7578 7.24795 32.7578Z" fill="#BAC7E1"/>
<path d="M13.9925 39.7595C13.9925 40.6564 13.2654 41.3835 12.3686 41.3835C11.4717 41.3835 10.7446 40.6564 10.7446 39.7595C10.7446 38.8626 11.4717 38.1356 12.3686 38.1356C13.2654 38.1356 13.9925 38.8626 13.9925 39.7595Z" fill="#BAC7E1"/>
<path d="M39.1035 35.0163C40.0002 35.0163 40.7274 34.2893 40.7274 33.3924C40.7274 32.4956 40.0002 31.7684 39.1035 31.7684C38.2066 31.7684 37.4795 32.4956 37.4795 33.3924C37.4795 34.2893 38.2066 35.0163 39.1035 35.0163Z" fill="#BAC7E1"/>
<path d="M40.4769 39.2625C40.4769 40.1594 39.7499 40.8864 38.853 40.8864C37.9561 40.8864 37.229 40.1594 37.229 39.2625C37.229 38.3657 37.9561 37.6385 38.853 37.6385C39.7499 37.6385 40.4769 38.3657 40.4769 39.2625Z" fill="#BAC7E1"/>
<path d="M43.9756 32.3317C44.8724 32.3317 45.5994 31.6047 45.5994 30.7079C45.5994 29.811 44.8724 29.0839 43.9756 29.0839C43.0787 29.0839 42.3516 29.811 42.3516 30.7079C42.3516 31.6047 43.0787 32.3317 43.9756 32.3317Z" fill="#BAC7E1"/>
<path d="M34.4808 29.6424C34.4808 30.5392 33.7537 31.2663 32.8568 31.2663C31.9599 31.2663 31.2329 30.5392 31.2329 29.6424C31.2329 28.7456 31.9599 28.0184 32.8568 28.0184C33.7537 28.0184 34.4808 28.7456 34.4808 29.6424Z" fill="#BAC7E1"/>
<path d="M30.0465 17.2758C31.1849 17.2758 32.1076 16.3529 32.1076 15.2147C32.1076 14.0763 31.1849 13.1534 30.0465 13.1534C28.9082 13.1534 27.9854 14.0763 27.9854 15.2147C27.9854 16.3529 28.9082 17.2758 30.0465 17.2758Z" fill="#BAC7E1"/>
<path d="M22.113 15.2147C22.113 16.3529 21.1902 17.2758 20.0518 17.2758C18.9135 17.2758 17.9907 16.3529 17.9907 15.2147C17.9907 14.0763 18.9135 13.1534 20.0518 13.1534C21.1902 13.1534 22.113 14.0763 22.113 15.2147Z" fill="#BAC7E1"/>
<path d="M13.6194 13.903C14.9992 13.903 16.1178 12.7844 16.1178 11.4046C16.1178 10.0248 14.9992 8.90625 13.6194 8.90625C12.2396 8.90625 11.1211 10.0248 11.1211 11.4046C11.1211 12.7844 12.2396 13.903 13.6194 13.903Z" fill="#BAC7E1"/>
<path d="M9.74524 24.0218C9.74524 25.4017 8.62669 26.5202 7.24689 26.5202C5.86709 26.5202 4.74854 25.4017 4.74854 24.0218C4.74854 22.6421 5.86709 21.5234 7.24689 21.5234C8.62669 21.5234 9.74524 22.6421 9.74524 24.0218Z" fill="#BAC7E1"/>
<path d="M39.603 19.5243C39.603 19.3219 39.5767 19.1258 39.5305 18.9359L41.6941 17.4644C42.2087 18.039 42.9557 18.4 43.7877 18.4C45.3405 18.4 46.5983 17.142 46.5983 15.5894C46.5983 14.0366 45.3405 12.7786 43.7877 12.7786C43.0407 12.7786 42.3623 13.071 41.859 13.5456L38.8197 11.7919C38.8397 11.6657 38.8522 11.537 38.8522 11.4046C38.8522 10.0243 37.7342 8.90625 36.3538 8.90625C34.9735 8.90625 33.8555 10.0243 33.8555 11.4046C33.8555 12.7849 34.9735 13.903 36.3538 13.903C37.0483 13.903 37.6767 13.6194 38.129 13.1621L41.072 14.861C41.0095 15.0934 40.9758 15.3383 40.9758 15.5894C40.9758 15.7543 40.9908 15.9141 41.0182 16.0715L38.7285 17.6293C38.2913 17.2545 37.7242 17.0259 37.1033 17.0259C35.723 17.0259 34.605 18.1439 34.605 19.5243C34.605 20.9046 35.723 22.0226 37.1033 22.0226C38.4837 22.0226 39.603 20.9046 39.603 19.5243Z" fill="#BAC7E1"/>
<path d="M46.7232 23.1447C46.7232 24.5245 45.6047 25.6431 44.2248 25.6431C42.8451 25.6431 41.7266 24.5245 41.7266 23.1447C41.7266 21.7649 42.8451 20.6464 44.2248 20.6464C45.6047 20.6464 46.7232 21.7649 46.7232 23.1447Z" fill="#BAC7E1"/>
<path d="M33.5613 40.64V37.4734C34.302 37.1611 34.8229 36.4279 34.8229 35.5734C34.8229 34.4354 33.8998 33.5123 32.7618 33.5123C32.2547 33.5123 31.7899 33.6971 31.4302 34.0006L27.6052 32.5166C27.5739 31.4049 26.6658 30.513 25.5465 30.513C24.9169 30.513 24.3548 30.7953 23.9763 31.24L20.3075 30.2244C20.205 29.8359 19.9652 29.5036 19.6404 29.2863L20.1988 24.9954C21.2082 24.8618 21.9877 23.9998 21.9877 22.9543C21.9877 21.8163 21.0645 20.8931 19.9265 20.8931C19.4943 20.8931 19.0945 21.0268 18.7635 21.2529L16.3413 19.855C16.3563 19.7451 16.3663 19.6339 16.3663 19.519C16.3663 18.1386 15.2483 17.0206 13.868 17.0206C12.4876 17.0206 11.3696 18.1386 11.3696 19.519C11.3696 20.8994 12.4876 22.0174 13.868 22.0174C14.58 22.0174 15.2208 21.7175 15.6768 21.2391L17.9103 22.5283C17.8815 22.6656 17.8665 22.8081 17.8665 22.953C17.8665 23.6338 18.1977 24.2346 18.706 24.6106L18.1177 29.1364C17.5305 29.3813 17.1183 29.9596 17.1183 30.6354C17.1183 31.5324 17.8454 32.2594 18.7423 32.2594C19.2244 32.2594 19.6567 32.0483 19.9539 31.7135L23.4954 32.6928C23.559 33.7746 24.4535 34.6328 25.5503 34.6328C26.1574 34.6328 26.7008 34.3693 27.078 33.9508L30.7132 35.361C30.7069 35.4298 30.7032 35.4985 30.7032 35.5696C30.7032 36.4491 31.2553 37.1986 32.0323 37.4946V40.6139C31.0104 40.9274 30.2659 41.878 30.2659 43.0023C30.2659 44.3826 31.3839 45.5006 32.7643 45.5006C34.1447 45.5006 35.2627 44.3826 35.2627 43.0023C35.2627 41.903 34.5507 40.9711 33.5638 40.6363L33.5613 40.64Z" fill="#BAC7E1"/>
<path d="M28.0461 39.5118C28.0461 40.8917 26.9274 42.0102 25.5477 42.0102C24.1679 42.0102 23.0493 40.8917 23.0493 39.5118C23.0493 38.132 24.1679 37.0135 25.5477 37.0135C26.9274 37.0135 28.0461 38.132 28.0461 39.5118Z" fill="#BAC7E1"/>
<path d="M18.6141 46.3852C19.9939 46.3852 21.1124 45.2667 21.1124 43.8868C21.1124 42.507 19.9939 41.3885 18.6141 41.3885C17.2343 41.3885 16.1157 42.507 16.1157 43.8868C16.1157 45.2667 17.2343 46.3852 18.6141 46.3852Z" fill="#BAC7E1"/>
<path d="M28.3581 47.1962C28.3581 48.7485 27.0997 50.0069 25.5474 50.0069C23.9952 50.0069 22.7368 48.7485 22.7368 47.1962C22.7368 45.644 23.9952 44.3856 25.5474 44.3856C27.0997 44.3856 28.3581 45.644 28.3581 47.1962Z" fill="#BAC7E1"/>
<path d="M7.31065 18.3948C8.86293 18.3948 10.1213 17.1364 10.1213 15.5842C10.1213 14.0318 8.86293 12.7734 7.31065 12.7734C5.75838 12.7734 4.5 14.0318 4.5 15.5842C4.5 17.1364 5.75838 18.3948 7.31065 18.3948Z" fill="#BAC7E1"/>
<path d="M15.7424 27.8318C15.7424 28.9701 14.8196 29.8929 13.6813 29.8929C12.5429 29.8929 11.6201 28.9701 11.6201 27.8318C11.6201 26.6934 12.5429 25.7706 13.6813 25.7706C14.8196 25.7706 15.7424 26.6934 15.7424 27.8318Z" fill="#BAC7E1"/>
<path d="M18.6793 38.508C19.8177 38.508 20.7404 37.5851 20.7404 36.4469C20.7404 35.3085 19.8177 34.3856 18.6793 34.3856C17.541 34.3856 16.6182 35.3085 16.6182 36.4469C16.6182 37.5851 17.541 38.508 18.6793 38.508Z" fill="#BAC7E1"/>
<path d="M39.8528 26.9546C39.8528 28.0928 38.93 29.0157 37.7916 29.0157C36.6533 29.0157 35.7305 28.0928 35.7305 26.9546C35.7305 25.8162 36.6533 24.8934 37.7916 24.8934C38.93 24.8934 39.8528 25.8162 39.8528 26.9546Z" fill="#BAC7E1"/>
<path d="M31.0445 25.0207C32.1829 25.0207 33.1056 24.0978 33.1056 22.9596C33.1056 21.8212 32.1829 20.8984 31.0445 20.8984C29.9061 20.8984 28.9834 21.8212 28.9834 22.9596C28.9834 24.0978 29.9061 25.0207 31.0445 25.0207Z" fill="#BAC7E1"/>
<path d="M31.9808 7.90238C31.9808 8.79924 31.2538 9.52631 30.3569 9.52631C29.46 9.52631 28.7329 8.79924 28.7329 7.90238C28.7329 7.0055 29.46 6.27844 30.3569 6.27844C31.2538 6.27844 31.9808 7.0055 31.9808 7.90238Z" fill="#BAC7E1"/>
<path fill-rule="evenodd" clip-rule="evenodd" d="M79.1787 24.9101C77.8044 24.1137 76.7142 23.0064 75.9081 21.5996V21.5939C75.1193 20.1795 74.7219 18.5675 74.7066 16.7711C74.6912 14.9749 75.0329 13.3436 75.7488 11.9349C76.4819 10.511 77.4993 9.38252 78.7967 8.55731C80.1019 7.72632 81.6047 7.30987 83.286 7.29452C84.9444 7.27917 86.4127 7.65532 87.6737 8.44216C88.9463 9.20213 89.9347 10.273 90.6333 11.6432C91.3301 13.0135 91.6813 14.5661 91.6985 16.2914C91.7024 16.7442 91.5642 17.155 91.2552 17.4774L91.2456 17.487L91.2361 17.4966C90.9251 17.7882 90.5317 17.9187 90.1017 17.9226L78.0482 18.0359C78.1729 18.7286 78.3937 19.36 78.7104 19.9339C79.2402 20.8531 79.9446 21.569 80.8313 22.089C81.7103 22.6052 82.7276 22.8644 83.9022 22.8529C84.5951 22.8471 85.2899 22.7224 85.9885 22.4767C86.7159 22.208 87.2668 21.8895 87.6603 21.5344L87.6699 21.5247C87.9769 21.2619 88.3398 21.1237 88.7389 21.116C89.1324 21.0872 89.5028 21.189 89.8138 21.4385L89.8407 21.4615C90.1823 21.7762 90.4049 22.1696 90.4146 22.634C90.4472 23.1024 90.2552 23.5015 89.9078 23.8027C89.1747 24.4495 88.2534 24.983 87.1555 25.413L87.1478 25.4167C86.0462 25.8255 84.9732 26.0386 83.9311 26.0481C82.1729 26.0655 80.5876 25.6912 79.1864 24.914L79.1787 24.9101ZM86.0557 11.2153C85.3111 10.7297 84.4051 10.4822 83.3168 10.4918C82.2113 10.5014 81.265 10.7777 80.4608 11.3036C79.6508 11.8332 79.0194 12.5645 78.5664 13.5125C78.3514 13.9711 78.1902 14.4662 78.0847 14.9979L88.3839 14.9019C88.2783 14.3242 88.1076 13.7889 87.8676 13.2917C87.4396 12.3975 86.8369 11.7104 86.0595 11.2191L86.0538 11.2153H86.0557Z" fill="#BAC7E1"/>
<path d="M98.4903 8.2283H98.4942C99.5708 7.58395 100.759 7.26562 102.05 7.26562C103.042 7.26562 103.871 7.40752 104.493 7.73545C104.816 7.90612 105.086 8.14201 105.242 8.46419C105.401 8.79211 105.418 9.1488 105.336 9.50356L105.332 9.51507C105.228 9.91204 105.021 10.2706 104.651 10.4643C104.357 10.6273 104.019 10.6733 103.67 10.6484H103.666C103.399 10.6273 103.09 10.6062 102.737 10.5851H102.724C101.618 10.4835 100.655 10.6062 99.8222 10.9361H99.8165C99.0028 11.2467 98.3637 11.7223 97.8821 12.3628C97.4311 12.99 97.1988 13.7416 97.1988 14.6449V24.172C97.1988 24.6495 97.0646 25.0867 96.7441 25.4166C96.4217 25.7465 95.9918 25.8806 95.5236 25.8806C95.0553 25.8806 94.6273 25.7465 94.305 25.4166C93.9826 25.0867 93.8501 24.6495 93.8501 24.172V9.16221C93.8501 8.68471 93.9826 8.24747 94.305 7.91764C94.6273 7.58779 95.0572 7.45355 95.5236 7.45355C95.9898 7.45355 96.4197 7.58779 96.7441 7.91764C97.0665 8.24747 97.1988 8.68471 97.1988 9.16221V9.22358C97.5903 8.84388 98.0221 8.5102 98.4903 8.22638V8.2283Z" fill="#BAC7E1"/>
<path d="M108.17 25.4221L108.155 25.4048C107.848 25.0616 107.717 24.6243 107.717 24.1448V16.3897C107.717 15.9122 107.85 15.4749 108.172 15.1452C108.506 14.8038 108.94 14.6484 109.421 14.6484C109.903 14.6484 110.297 14.8038 110.609 15.1452C110.949 15.4692 111.097 15.9064 111.097 16.3897V24.1448C111.097 24.6377 110.945 25.0788 110.609 25.4202C110.293 25.7442 109.876 25.8842 109.421 25.8842C108.967 25.8842 108.525 25.7481 108.187 25.4354L108.17 25.4202V25.4221Z" fill="#BAC7E1"/>
<path fill-rule="evenodd" clip-rule="evenodd" d="M139.898 24.8256L139.891 24.8218C138.55 23.9915 137.481 22.8677 136.694 21.4562L136.69 21.4505C135.918 20.0313 135.535 18.4378 135.535 16.6831C135.535 14.9285 135.929 13.3003 136.725 11.8793L136.729 11.8735C137.541 10.4621 138.64 9.34792 140.026 8.54057C141.418 7.70638 142.981 7.29407 144.705 7.29407C146.428 7.29407 147.983 7.70638 149.353 8.54057C150.738 9.34792 151.828 10.4621 152.62 11.8754C153.436 13.2946 153.851 14.8996 153.871 16.6755V24.1698C153.871 24.6492 153.715 25.0787 153.384 25.4143L153.376 25.422L153.369 25.4297C153.038 25.7365 152.623 25.8785 152.166 25.8785C151.709 25.8785 151.295 25.7385 150.965 25.4297L150.956 25.422L150.948 25.4143C150.618 25.0787 150.46 24.6492 150.46 24.1698V23.5868C149.959 24.095 149.391 24.538 148.76 24.9177H148.756C147.489 25.6693 146.05 26.0376 144.453 26.0376C142.77 26.0376 141.249 25.6348 139.898 24.8218V24.8256ZM147.668 22.0258H147.671C148.553 21.4946 149.239 20.7736 149.739 19.8531V19.8492C150.259 18.9096 150.519 17.8586 150.519 16.6831C150.519 15.5076 150.256 14.4375 149.743 13.5208L149.739 13.5132C149.239 12.5927 148.553 11.8716 147.671 11.3442L147.66 11.3385C146.808 10.7977 145.828 10.5216 144.701 10.5216C143.574 10.5216 142.616 10.7977 141.74 11.3404L141.734 11.3442C140.851 11.8735 140.15 12.5965 139.629 13.5208C139.114 14.4356 138.851 15.4846 138.851 16.6831C138.851 17.8817 139.113 18.9076 139.63 19.8473C140.15 20.7716 140.851 21.4927 141.734 22.022C142.611 22.5473 143.595 22.814 144.701 22.814C145.806 22.814 146.814 22.5473 147.665 22.0238L147.668 22.0258Z" fill="#BAC7E1"/>
<path d="M63.6819 24.7681C63.8315 25.1017 64.035 25.3836 64.3056 25.5849C64.5839 25.7902 64.9024 25.8861 65.2477 25.8861C65.5932 25.8861 65.9367 25.7939 66.2265 25.5926C66.5125 25.3932 66.7255 25.1074 66.8771 24.7681L73.7109 9.73332C73.8951 9.3517 73.9085 8.94515 73.7607 8.54818C73.6111 8.1263 73.3232 7.80796 72.9279 7.6066L72.9144 7.60085L72.901 7.59508C72.498 7.41866 72.0759 7.40525 71.6594 7.54523C71.2276 7.67372 70.9129 7.97096 70.7325 8.39286L65.2536 20.6661L59.6882 8.37176L59.6806 8.35833C59.483 7.98438 59.1875 7.70825 58.8017 7.55675C58.3891 7.39566 57.9669 7.43593 57.5716 7.63728C57.1705 7.82906 56.8615 8.12821 56.7041 8.54435C56.5506 8.9509 56.5699 9.36512 56.7482 9.76017L63.68 24.7699L63.6819 24.7681Z" fill="#BAC7E1"/>
<path fill-rule="evenodd" clip-rule="evenodd" d="M115.587 21.4648C116.401 22.8761 117.5 23.9999 118.882 24.8284L118.888 24.8323C120.279 25.6434 121.841 26.0441 123.563 26.0441C125.284 26.0441 126.806 25.6434 128.176 24.8303C129.561 24.0229 130.651 22.9202 131.446 21.5261C132.26 20.1109 132.686 18.5287 132.73 16.7951V1.74126C132.73 1.25418 132.58 0.815016 132.235 0.489009C131.907 0.159166 131.49 0 131.024 0C130.557 0 130.141 0.157249 129.814 0.489009C129.468 0.815016 129.318 1.25418 129.318 1.74126V9.75146C128.744 9.17231 128.076 8.68139 127.316 8.27868C126.117 7.6209 124.777 7.29681 123.311 7.29681C121.626 7.29681 120.103 7.71104 118.752 8.54715C117.408 9.35642 116.339 10.4706 115.549 11.882L115.545 11.8878C114.771 13.3069 114.392 14.9005 114.392 16.6551C114.392 18.4099 114.785 20.038 115.579 21.459L115.583 21.4648H115.587ZM128.604 13.5255C129.122 14.4421 129.383 15.4815 129.383 16.6551C129.383 17.8287 129.12 18.9007 128.604 19.8174L128.6 19.8251C128.101 20.7475 127.412 21.4801 126.526 22.0305C125.674 22.552 124.691 22.8186 123.563 22.8186C122.434 22.8186 121.473 22.554 120.598 22.0285C119.711 21.4781 119.011 20.7436 118.491 19.8174C117.976 18.9026 117.713 17.8537 117.713 16.6551C117.713 15.4566 117.976 14.4421 118.491 13.5255L118.494 13.5216C119.015 12.5762 119.715 11.8437 120.594 11.3163C121.473 10.7908 122.457 10.5243 123.563 10.5243C124.668 10.5243 125.674 10.7909 126.528 11.3144H126.531C127.41 11.8437 128.097 12.5724 128.598 13.514L128.602 13.5255H128.604Z" fill="#BAC7E1"/>
<path d="M108.17 12.7275L108.155 12.7102C107.848 12.367 107.717 11.9298 107.717 11.4504V9.55377C107.717 9.07626 107.85 8.63904 108.172 8.30919C108.506 7.96784 108.94 7.8125 109.421 7.8125C109.903 7.8125 110.297 7.96784 110.609 8.30919C110.949 8.63327 111.097 9.07051 111.097 9.55377V11.4504C111.097 11.9432 110.945 12.3843 110.609 12.7256C110.293 13.0497 109.876 13.1897 109.421 13.1897C108.967 13.1897 108.525 13.0536 108.187 12.741L108.17 12.7256V12.7275Z" fill="#BAC7E1"/>
</g>
<defs>
<filter id="filter0_d_3671_1822" x="0.5" y="0" width="158" height="58" filterUnits="userSpaceOnUse" color-interpolation-filters="sRGB">
<feFlood flood-opacity="0" result="BackgroundImageFix"/>
<feColorMatrix in="SourceAlpha" type="matrix" values="0 0 0 0 0 0 0 0 0 0 0 0 0 0 0 0 0 0 127 0" result="hardAlpha"/>
<feOffset dy="4"/>
<feGaussianBlur stdDeviation="2"/>
<feComposite in2="hardAlpha" operator="out"/>
<feColorMatrix type="matrix" values="0 0 0 0 0 0 0 0 0 0 0 0 0 0 0 0 0 0 0.27 0"/>
<feBlend mode="normal" in2="BackgroundImageFix" result="effect1_dropShadow_3671_1822"/>
<feBlend mode="normal" in="SourceGraphic" in2="effect1_dropShadow_3671_1822" result="shape"/>
</filter>
<clipPath id="clip0_3671_1822">
<rect width="150" height="50" fill="white" transform="translate(4.5)"/>
</clipPath>
</defs>
</svg>
