<svg width="151" height="54" viewBox="0 0 151 54" fill="none" xmlns="http://www.w3.org/2000/svg">
<g filter="url(#filter0_d_3671_2042)">
<path d="M23.873 45.2787C24.0033 45.2813 24.1338 45.2826 24.2647 45.2826C35.3885 45.2826 44.406 36.2649 44.406 25.1413C44.406 14.0177 35.3885 5 24.2647 5C24.1338 5 24.0033 5.00131 23.873 5.00393V16.534C24.0029 16.5284 24.1333 16.5253 24.2647 16.5253C29.0231 16.5253 32.8807 20.3827 32.8807 25.1413C32.8807 29.8999 29.0231 33.7573 24.2647 33.7573C24.1333 33.7573 24.0029 33.7542 23.873 33.7486V45.2787Z" fill="#BAC7E1"/>
<path d="M146.875 22.1211L143.602 24.1352C143.155 23.4638 141.784 22.1211 139.882 22.1211C137.504 22.1211 135.741 24.1352 135.741 26.1214C135.741 28.1075 137.308 30.1776 139.882 30.1776C141.941 30.1776 143.22 28.7416 143.602 28.0236L146.875 30.1776C146.428 31.5297 144.402 34.2338 139.882 34.2338C134.231 34.2338 131.741 29.6741 131.741 26.1214C131.741 22.5687 134.567 17.8411 139.882 17.8411C144.134 17.8411 146.316 20.6944 146.875 22.1211Z" fill="#BAC7E1"/>
<path fill-rule="evenodd" clip-rule="evenodd" d="M118.482 27.8271H130.007C130.035 27.6033 130.007 26.9319 130.007 26.1206C130.007 25.112 129.504 18.176 122.482 18.176C115.461 18.176 114.538 24.4702 114.538 26.1486C114.538 27.8271 114.789 34.401 122.79 34.401C126.622 34.401 129.056 32.1351 129.504 31.0161L126.455 28.8901C125.867 29.5242 124.446 30.6245 122.79 30.6245C120.72 30.6245 118.818 29.5055 118.482 27.8271ZM126.371 24.8898H118.482C118.64 23.7988 119.651 21.6168 122.426 21.6168C125.201 21.6168 126.212 23.7988 126.371 24.8898Z" fill="#BAC7E1"/>
<path d="M111.823 17.0282L108.299 19.1822C107.702 18.2311 106.229 16.3289 104.131 16.3289C101.277 16.3289 99.5149 19.9935 104.606 20.9446C109.791 21.9132 112.075 24.5532 112.383 26.7911C112.49 27.5671 112.446 28.3105 112.383 28.8053C112.187 30.3438 110.844 33.8126 105.921 34.2043C104.945 34.2819 104.102 34.2348 103.403 34.2043C98.9274 34.0084 96.6802 30.7355 96.1021 28.9731L99.6827 26.8471C100.154 27.6405 101.77 29.6841 103.403 29.9242C104.354 30.0641 104.942 30.0641 105.725 29.9242C107.708 29.5702 110.094 26.3166 103.543 25.0288C98.9395 24.1238 97.1791 21.4761 97.0112 19.406C96.9343 18.458 96.979 18.2238 97.0112 17.6436C97.1231 15.6295 99.2072 12.1328 104.131 12.1328C108.562 12.1328 111.105 15.4523 111.823 17.0282Z" fill="#BAC7E1"/>
<path d="M21.6919 45.1192C21.9146 45.1476 22.1384 45.1725 22.3633 45.1935V33.5462C22.136 33.4951 21.912 33.4348 21.6919 33.3661V45.1192Z" fill="#BAC7E1"/>
<path d="M21.6919 16.9156C21.912 16.847 22.136 16.7867 22.3633 16.7356V5.08832C22.1384 5.1093 21.9146 5.13421 21.6919 5.16262V16.9156Z" fill="#BAC7E1"/>
<path d="M21.6919 33.3661C21.912 33.4348 22.136 33.4951 22.3633 33.5462L22.1675 32.1624V19.3782L22.3633 16.7356C22.136 16.7867 21.912 16.847 21.6919 16.9156L21.9157 19.3782V31.3236C21.9157 31.8816 21.8644 32.4384 21.7624 32.987L21.6919 33.3661Z" fill="#BAC7E1"/>
<path d="M19.1743 44.6329C19.3966 44.6908 19.6205 44.745 19.8457 44.7955V32.5381C19.6147 32.3998 19.3906 32.251 19.1743 32.0923V44.6329Z" fill="#BAC7E1"/>
<path d="M19.1743 18.1891C19.3906 18.0303 19.6147 17.8815 19.8457 17.7432V5.48584C19.6205 5.53627 19.3966 5.59048 19.1743 5.64838V18.1891Z" fill="#BAC7E1"/>
<path d="M19.1743 32.0923C19.3906 32.251 19.6147 32.3998 19.8457 32.5381L19.6499 30.6804V20.1342L19.8457 17.7432C19.6147 17.8815 19.3906 18.0303 19.1743 18.1891L19.3981 20.1342V29.7491C19.3981 30.369 19.3494 30.9879 19.2523 31.6002L19.1743 32.0923Z" fill="#BAC7E1"/>
<path d="M17.7753 44.1598C17.2238 43.9848 17.0742 43.9699 16.5444 43.7498V30.996C16.5444 30.6052 16.6354 30.2198 16.8102 29.8703C16.985 29.5207 17.0759 29.1353 17.0759 28.7445L17.0759 23.0031C17.0759 22.4376 16.9862 21.8756 16.8102 21.3382C16.6341 20.8008 16.5444 20.2388 16.5444 19.6733V6.53302C17.0742 6.31296 17.2238 6.18342 17.7753 6.00842V18.8717L17.3557 22.1494V28.9949C17.3557 29.4076 17.4266 29.8171 17.5655 30.2058C17.7043 30.5944 17.7753 31.004 17.7753 31.4166V44.1598Z" fill="#BAC7E1"/>
<path d="M14.1392 42.5544C14.5408 42.7885 14.9513 43.009 15.37 43.2155V28.7603C15.37 28.4975 15.3026 28.2391 15.1742 28.0099V28.0099C15.0458 27.7806 14.9784 27.5222 14.9784 27.2594V22.7312C14.9784 22.5168 15.047 22.308 15.1742 22.1353V22.1353C15.3014 21.9627 15.37 21.7539 15.37 21.5395V7.06476C14.9513 7.27121 14.5408 7.49179 14.1392 7.72587V21.531C14.1392 21.7503 14.2131 21.9632 14.349 22.1353V22.1353C14.4849 22.3075 14.5588 22.5204 14.5588 22.7397V27.2524C14.5588 27.5192 14.4863 27.7811 14.349 28.0099V28.0099C14.2117 28.2387 14.1392 28.5005 14.1392 28.7673V42.5544Z" fill="#BAC7E1"/>
<path d="M11.6484 40.8413C12.1427 41.239 12.6561 41.6137 13.187 41.9641V8.3161C12.6561 8.66641 12.1427 9.04119 11.6484 9.43881V40.8413Z" fill="#BAC7E1"/>
<path d="M9.10352 38.3976C9.58745 38.9506 10.1011 39.4768 10.6421 39.9738V10.3036C10.1011 10.8006 9.58745 11.3268 9.10352 11.8798V38.3976Z" fill="#BAC7E1"/>
<path d="M6.5293 34.6899C7.05945 35.6723 7.66885 36.6057 8.34892 37.4814V12.7952C7.66885 13.671 7.05945 14.6043 6.5293 15.5867V34.6899Z" fill="#BAC7E1"/>
<path d="M5.99839 16.645C4.79625 19.226 4.125 22.1041 4.125 25.139C4.125 28.1739 4.79625 31.0521 5.99839 33.6331V16.645Z" fill="#BAC7E1"/>
<path fill-rule="evenodd" clip-rule="evenodd" d="M64.1572 34.5429C70.3679 34.5429 75.4027 29.5081 75.4027 23.2973C75.4027 17.0866 70.3679 12.0518 64.1572 12.0518C57.9464 12.0518 52.9116 17.0866 52.9116 23.2973C52.9116 29.5081 57.9464 34.5429 64.1572 34.5429ZM64.1565 30.2911C68.0189 30.2911 71.15 27.16 71.15 23.2976C71.15 19.4352 68.0189 16.3041 64.1565 16.3041C60.2941 16.3041 57.163 19.4352 57.163 23.2976C57.163 27.16 60.2941 30.2911 64.1565 30.2911Z" fill="#BAC7E1"/>
<path fill-rule="evenodd" clip-rule="evenodd" d="M87.0385 34.3737C91.1172 34.3737 94.4236 30.7668 94.4236 26.3172C94.4236 21.8676 91.1172 18.2607 87.0385 18.2607C82.9597 18.2607 79.6533 21.8676 79.6533 26.3172C79.6533 30.7668 82.9597 34.3737 87.0385 34.3737ZM86.1713 30.5693C88.5659 30.5693 90.5073 28.6657 90.5073 26.3172C90.5073 23.9687 88.5659 22.0651 86.1713 22.0651C83.7767 22.0651 81.8353 23.9687 81.8353 26.3172C81.8353 28.6657 83.7767 30.5693 86.1713 30.5693Z" fill="#BAC7E1"/>
<path d="M77.9189 18.4845H82.2269V39.9685H77.9189V18.4845Z" fill="#BAC7E1"/>
</g>
<defs>
<filter id="filter0_d_3671_2042" x="0.125" y="0" width="150.75" height="54.2826" filterUnits="userSpaceOnUse" color-interpolation-filters="sRGB">
<feFlood flood-opacity="0" result="BackgroundImageFix"/>
<feColorMatrix in="SourceAlpha" type="matrix" values="0 0 0 0 0 0 0 0 0 0 0 0 0 0 0 0 0 0 127 0" result="hardAlpha"/>
<feOffset dy="4"/>
<feGaussianBlur stdDeviation="2"/>
<feComposite in2="hardAlpha" operator="out"/>
<feColorMatrix type="matrix" values="0 0 0 0 0 0 0 0 0 0 0 0 0 0 0 0 0 0 0.27 0"/>
<feBlend mode="normal" in2="BackgroundImageFix" result="effect1_dropShadow_3671_2042"/>
<feBlend mode="normal" in="SourceGraphic" in2="effect1_dropShadow_3671_2042" result="shape"/>
</filter>
</defs>
</svg>
