<svg width="162" height="58" viewBox="0 0 162 58" fill="none" xmlns="http://www.w3.org/2000/svg">
<g filter="url(#filter0_d_3671_1867)">
<path fill-rule="evenodd" clip-rule="evenodd" d="M11.1655 33.7917H11.2836C11.5983 33.7917 11.8933 33.6743 12.1097 33.4394L28.7897 16.8787C29.2421 16.4285 29.2421 15.6846 28.7897 15.2148C28.3373 14.7646 27.5898 14.7646 27.1178 15.2148L11.4999 30.7184C10.0837 28.1541 9.33624 25.2765 9.33624 22.3206C9.33624 12.7092 17.2042 4.87912 26.862 4.87912C30.3436 4.87912 33.6875 5.89703 36.5789 7.79583C37.051 8.10903 37.6608 8.05031 38.0738 7.6588L43.7584 2.00157C44.2108 1.55134 44.2108 0.807478 43.7584 0.337672C43.306 -0.112557 42.5586 -0.112557 42.0865 0.337672L37.0707 5.32935C34.0022 3.48928 30.4813 2.5301 26.8817 2.5301C15.906 2.5301 6.97586 11.4172 6.97586 22.3206C6.97586 26.2357 8.11671 30.0137 10.3001 33.2632C10.4968 33.5568 10.8115 33.7526 11.1655 33.7917ZM6.71882 38.961C7.69652 38.961 8.4891 38.1723 8.4891 37.1993C8.4891 36.2263 7.69652 35.4375 6.71882 35.4375C5.74112 35.4375 4.94853 36.2263 4.94853 37.1993C4.94853 38.1723 5.74112 38.961 6.71882 38.961ZM41.1417 10.2427C41.6728 9.85121 42.4006 9.94908 42.794 10.4776C45.3708 13.9033 46.7476 18.0141 46.7476 22.3206C46.7476 33.2436 37.8175 42.1112 26.8615 42.1112C23.2225 42.1112 19.7016 41.1324 16.6135 39.2728L6.16881 49.6476C5.95245 49.8825 5.63773 50 5.34268 50C5.04764 50 4.75259 49.8825 4.51655 49.6476C4.06414 49.1778 4.06414 48.434 4.51655 47.9837L15.63 36.9433L32.2903 20.3827C32.7624 19.9324 33.5099 19.9324 33.9623 20.3827C34.4147 20.8525 34.4147 21.5963 33.9623 22.0466L18.3444 37.5697C20.9408 38.9987 23.852 39.7621 26.8615 39.7621C36.5193 39.7621 44.3873 31.9321 44.3873 22.3206C44.3873 18.523 43.1874 14.9212 40.9057 11.887C40.5123 11.3585 40.6107 10.6342 41.1417 10.2427Z" fill="#BAC7E1"/>
<path fill-rule="evenodd" clip-rule="evenodd" d="M89.6674 27.4306L81.7404 6.50466C81.6814 6.34806 81.4651 6.34806 81.406 6.50466L73.4791 27.4306C73.3808 27.6655 73.5578 27.9395 73.8332 27.9395H75.9378C76.0952 27.9395 76.2329 27.8416 76.2919 27.7046L81.347 14.0411C81.4257 13.8258 81.7208 13.8258 81.7994 14.0411L86.8546 27.7046C86.9136 27.8416 87.0513 27.9395 87.2086 27.9395H89.3133C89.569 27.9395 89.746 27.6655 89.6674 27.4306ZM69.6632 17.8566H71.5712C71.7679 17.8566 71.9449 18.0327 71.9449 18.2285V25.3735C71.9449 25.4909 71.9055 25.5888 71.8072 25.6671C70.8827 26.4501 69.8009 27.0569 68.5813 27.4876C67.3028 27.9378 65.9653 28.1727 64.5884 28.1727C62.6214 28.1727 60.8708 27.7225 59.2972 26.8024C57.7236 25.902 56.4844 24.6492 55.5993 23.044C54.6945 21.4584 54.2617 19.6575 54.2617 17.6608C54.2617 15.6641 54.7141 13.8632 55.5993 12.2581C56.5041 10.6529 57.7433 9.40008 59.3169 8.49962C60.8904 7.59916 62.6804 7.14893 64.6474 7.14893C66.2013 7.14893 67.6175 7.42298 68.8764 7.95151C70.0369 8.44089 71.2761 9.34135 72.1416 10.281C72.2793 10.418 72.2793 10.6529 72.1416 10.7899L70.9221 12.0819C70.7844 12.2385 70.5483 12.2385 70.391 12.1015C68.8567 10.6725 66.8307 9.75243 64.7457 9.75243C63.2705 9.75243 61.9329 10.0852 60.7724 10.7703C59.5922 11.4359 58.6874 12.3755 58.0187 13.5892C57.3499 14.7833 57.0155 16.1535 57.0155 17.6608C57.0155 19.1485 57.3499 20.4992 58.0187 21.6933C58.6874 22.8874 59.6119 23.8466 60.7724 24.5317C61.9526 25.2169 63.2705 25.5496 64.7261 25.5496C66.398 25.5496 67.8536 25.1386 69.1124 24.336C69.2108 24.2772 69.2895 24.1402 69.2895 24.0228V18.2285C69.2895 18.0132 69.4665 17.8566 69.6632 17.8566ZM93.5613 25.3768H101.429C101.646 25.3768 101.803 25.553 101.803 25.7683V27.5693C101.803 27.765 101.646 27.9412 101.429 27.9412H92.3221L90.4141 22.9104V7.75914C90.4141 7.54381 90.5715 7.38721 90.7878 7.38721H92.8138C93.0302 7.38721 93.1875 7.56338 93.1875 7.75914V25.0049C93.1875 25.2007 93.3449 25.3768 93.5613 25.3768ZM110.282 7.38721H112.308C112.505 7.38721 112.682 7.56338 112.682 7.75914V25.0245C112.682 25.2202 112.859 25.3964 113.055 25.3964H120.923C121.12 25.3964 121.297 25.5726 121.297 25.7683V27.5888C121.297 27.7846 121.12 27.9608 120.923 27.9608H110.282C110.085 27.9608 109.908 27.7846 109.908 27.5888V7.75914C109.908 7.54381 110.066 7.38721 110.282 7.38721ZM106.76 7.38721H104.734C104.537 7.38721 104.36 7.54381 104.36 7.75914V27.5693C104.36 27.765 104.537 27.9412 104.734 27.9412H106.76C106.956 27.9412 107.134 27.765 107.134 27.5693V7.75914C107.134 7.56338 106.956 7.38721 106.76 7.38721ZM135.243 25.7488V27.5693C135.243 27.765 135.066 27.9412 134.869 27.9412H124.267C124.07 27.9412 123.893 27.765 123.893 27.5693V7.75914C123.893 7.56338 124.07 7.38721 124.267 7.38721H134.869C135.066 7.38721 135.243 7.56338 135.243 7.75914V9.57963C135.243 9.77538 135.066 9.95156 134.869 9.95156H127.041C126.844 9.95156 126.667 10.1277 126.667 10.3235V16.059C126.667 16.2548 126.844 16.431 127.041 16.431H133.001C133.197 16.431 133.374 16.6071 133.374 16.8029V18.5647C133.374 18.7604 133.197 18.9366 133.001 18.9366H127.041C126.844 18.9366 126.667 19.1128 126.667 19.3085V25.0441C126.667 25.2398 126.844 25.416 127.041 25.416H134.869C135.066 25.3768 135.243 25.553 135.243 25.7488ZM137.76 23.0245C138.704 24.6297 139.983 25.9021 141.615 26.8025C143.248 27.703 145.097 28.1728 147.123 28.1336C149.149 28.1336 150.978 27.6834 152.611 26.7634C154.243 25.8629 155.522 24.6101 156.446 23.0049C157.371 21.4193 157.823 19.6184 157.823 17.6218C157.823 15.6251 157.371 13.8437 156.446 12.2386C155.522 10.653 154.243 9.38059 152.611 8.48013C150.978 7.56009 149.149 7.10986 147.123 7.10986C145.097 7.10986 143.248 7.57967 141.615 8.48013C139.983 9.40016 138.685 10.653 137.76 12.2581C136.836 13.8829 136.364 15.6642 136.364 17.6413C136.364 19.638 136.836 21.4193 137.76 23.0245ZM153.929 21.6934C153.26 22.9071 152.316 23.8467 151.136 24.5318C149.936 25.2169 148.618 25.5497 147.143 25.5497C145.648 25.5497 144.31 25.2169 143.11 24.5318C141.91 23.8467 140.966 22.8875 140.278 21.6934C139.589 20.4993 139.255 19.1486 139.255 17.6609C139.255 16.1732 139.589 14.8225 140.278 13.6284C140.966 12.4147 141.91 11.4751 143.11 10.79C144.31 10.1244 145.667 9.77209 147.143 9.77209C148.618 9.77209 149.955 10.1049 151.136 10.79C152.316 11.4751 153.24 12.4343 153.929 13.6284C154.617 14.8225 154.952 16.1732 154.952 17.6609C154.952 19.1486 154.617 20.4993 153.929 21.6934ZM65.9449 41.9564V33.7544H67.7151C67.9512 33.7544 68.2266 33.7935 68.5216 33.8718C68.8166 33.9501 69.092 34.0676 69.3477 34.2438C69.6034 34.42 69.8198 34.6353 69.9968 34.9093C70.1739 35.1834 70.2525 35.5162 70.2525 35.8881C70.2525 36.4558 70.0952 36.9256 69.8001 37.2975C69.5051 37.6694 69.0527 37.9043 68.4823 38.0414L68.4826 38.0422L68.4827 38.0422L68.4827 38.0422L68.4827 38.0422L68.4827 38.0423L68.4827 38.0423L68.4827 38.0423L68.4827 38.0423C68.7973 38.7076 69.1118 39.3728 69.4264 40.0185C69.7411 40.6644 70.0559 41.33 70.3509 41.976H69.8198C69.7102 41.7442 69.603 41.5148 69.4965 41.287L69.4963 41.2865C69.2971 40.8602 69.1004 40.4393 68.8953 40.0185C68.738 39.6955 68.5855 39.3725 68.4331 39.0495C68.2806 38.7265 68.1282 38.4035 67.9708 38.0805C67.9315 38.0805 67.8971 38.0854 67.8627 38.0903C67.8282 38.0952 67.7938 38.1001 67.7545 38.1001H67.5578H66.4366V41.9564H65.9449ZM66.4366 37.6303H67.6561C68.0692 37.6303 68.4036 37.5716 68.679 37.4737C68.9543 37.3562 69.1707 37.2192 69.3281 37.043C69.4854 36.8669 69.6034 36.6907 69.6625 36.4949C69.7215 36.2992 69.7608 36.1034 69.7608 35.9077C69.7608 35.6923 69.7018 35.477 69.6034 35.2813C69.5051 35.0855 69.3477 34.8898 69.1707 34.7332C68.974 34.5766 68.7576 34.4591 68.5019 34.3612C68.2462 34.2633 67.9708 34.2242 67.6758 34.2242H66.4366V37.6303ZM78.2391 36.2211C78.0227 36.7496 77.9047 37.2782 77.9047 37.8654C77.9047 38.4527 78.0227 39.0008 78.2391 39.4902C78.4555 39.9991 78.7702 40.4493 79.1439 40.8213C79.5176 41.2128 79.97 41.5064 80.4815 41.7217C80.9929 41.9371 81.524 42.0545 82.1141 42.0545C82.7042 42.0545 83.2549 41.9371 83.7663 41.7217C84.2777 41.5064 84.7301 41.1932 85.1039 40.8213C85.4776 40.4493 85.7923 39.9991 86.0087 39.4902C86.225 38.9812 86.3431 38.4527 86.3431 37.8654C86.3431 37.2782 86.225 36.73 86.0087 36.2211C85.7923 35.7121 85.4776 35.2619 85.1039 34.89C84.7301 34.518 84.2777 34.2048 83.7663 33.9895C83.2352 33.7742 82.7042 33.6567 82.1141 33.6567C81.5436 33.6567 80.9929 33.7742 80.4815 33.9895C79.97 34.2048 79.5176 34.518 79.1439 34.89C78.7505 35.2619 78.4555 35.7121 78.2391 36.2211ZM78.6915 39.3336C78.4948 38.8833 78.3965 38.3939 78.3965 37.885C78.3965 37.3565 78.4948 36.8866 78.6718 36.4168C78.8489 35.9666 79.1242 35.5555 79.4586 35.2228C79.793 34.89 80.1864 34.6159 80.6388 34.4202C81.0912 34.2244 81.583 34.1265 82.0944 34.1265C82.6058 34.1265 83.0975 34.2244 83.5499 34.4202C84.022 34.6159 84.4154 34.89 84.7498 35.2228C85.0842 35.5555 85.3596 35.9666 85.5563 36.4168C85.753 36.8671 85.8513 37.3565 85.8513 37.8654C85.8513 38.3744 85.753 38.8637 85.5563 39.314C85.3596 39.7642 85.0842 40.1557 84.7498 40.4885C84.4154 40.8213 84.0024 41.0953 83.5499 41.2911C83.0975 41.4868 82.6058 41.5847 82.0944 41.5847C81.583 41.5847 81.1109 41.4868 80.6585 41.2911C80.2061 41.1149 79.8127 40.8408 79.4783 40.5081C79.1439 40.1753 78.8882 39.7838 78.6915 39.3336ZM99.7588 33.7544V34.2242H96.7297V41.976H96.2379V34.2242H93.2088V33.7544H99.7588ZM106.84 36.2211C106.623 36.7496 106.505 37.2782 106.505 37.8654C106.505 38.4527 106.623 39.0008 106.84 39.4902C107.056 39.9991 107.371 40.4493 107.744 40.8213C108.118 41.2128 108.57 41.5064 109.082 41.7217C109.593 41.9371 110.124 42.0545 110.715 42.0545C111.305 42.0545 111.855 41.9371 112.367 41.7217C112.878 41.5064 113.331 41.1932 113.704 40.8213C114.078 40.4493 114.393 39.9991 114.609 39.4902C114.825 38.9812 114.944 38.4527 114.944 37.8654C114.944 37.2782 114.825 36.73 114.609 36.2211C114.393 35.7121 114.078 35.2619 113.704 34.89C113.331 34.518 112.878 34.2048 112.367 33.9895C111.836 33.7742 111.305 33.6567 110.715 33.6567C110.144 33.6567 109.593 33.7742 109.082 33.9895C108.57 34.2048 108.118 34.518 107.744 34.89C107.351 35.2619 107.056 35.7121 106.84 36.2211ZM107.292 39.3336C107.095 38.8833 106.997 38.3939 106.997 37.885C106.997 37.3565 107.095 36.8866 107.272 36.4168C107.449 35.9666 107.725 35.5555 108.059 35.2228C108.393 34.89 108.787 34.6159 109.239 34.4202C109.692 34.2244 110.183 34.1265 110.695 34.1265C111.206 34.1265 111.698 34.2244 112.15 34.4202C112.622 34.6159 113.016 34.89 113.35 35.2228C113.685 35.5555 113.96 35.9666 114.157 36.4168C114.353 36.8671 114.452 37.3565 114.452 37.8654C114.452 38.3744 114.353 38.8637 114.157 39.314C113.96 39.7642 113.685 40.1557 113.35 40.4885C113.016 40.8213 112.603 41.0953 112.15 41.2911C111.698 41.4868 111.206 41.5847 110.695 41.5847C110.183 41.5847 109.711 41.4868 109.259 41.2911C108.807 41.1149 108.413 40.8408 108.079 40.5081C107.744 40.1753 107.489 39.7838 107.292 39.3336ZM128.81 41.4673C128.496 41.6434 128.161 41.7805 127.807 41.8979C127.453 41.9958 127.06 42.0545 126.666 42.0545C126.076 42.0545 125.545 41.9371 125.034 41.7217C124.522 41.5064 124.07 41.2128 123.696 40.8213C123.322 40.4493 123.008 39.9991 122.791 39.4902C122.575 38.9812 122.457 38.4331 122.457 37.8654C122.457 37.2782 122.575 36.7496 122.791 36.2211C123.008 35.7121 123.303 35.2619 123.696 34.89C124.07 34.518 124.522 34.2048 125.034 33.9895C125.545 33.7742 126.096 33.6567 126.666 33.6567C127.06 33.6567 127.453 33.7155 127.807 33.8133C128.161 33.9112 128.496 34.0678 128.83 34.244C128.81 34.2734 128.786 34.3076 128.761 34.3419L128.761 34.3419C128.736 34.3761 128.712 34.4104 128.692 34.4397C128.667 34.4899 128.634 34.5321 128.603 34.5714L128.603 34.5714C128.585 34.5934 128.569 34.6144 128.555 34.6355C128.279 34.4789 127.984 34.3419 127.669 34.2636C127.355 34.1853 127.02 34.1265 126.666 34.1265C126.155 34.1265 125.663 34.2244 125.211 34.4202C124.758 34.6159 124.365 34.89 124.03 35.2228C123.696 35.5555 123.421 35.9666 123.244 36.4168C123.047 36.8671 122.949 37.3565 122.949 37.8654C122.949 38.3744 123.047 38.8442 123.244 39.2944C123.44 39.7446 123.696 40.1361 124.03 40.4689C124.365 40.8017 124.758 41.0757 125.211 41.2715C125.663 41.4673 126.135 41.5651 126.647 41.5651C127.001 41.5651 127.335 41.526 127.65 41.4281C127.945 41.3694 128.24 41.2323 128.535 41.0757L128.81 41.4673ZM136.698 36.2211C136.482 36.7496 136.364 37.2782 136.364 37.8654C136.364 38.4527 136.462 39.0008 136.698 39.4902C136.914 39.9991 137.229 40.4493 137.603 40.8213C137.977 41.2128 138.429 41.5064 138.94 41.7217C139.452 41.9371 139.983 42.0545 140.573 42.0545C141.163 42.0545 141.714 41.9371 142.225 41.7217C142.737 41.5064 143.189 41.1932 143.563 40.8213C143.936 40.4493 144.251 39.9991 144.468 39.4902C144.684 38.9812 144.802 38.4527 144.802 37.8654C144.802 37.2782 144.684 36.73 144.468 36.2211C144.251 35.7121 143.936 35.2619 143.563 34.89C143.189 34.518 142.737 34.2048 142.225 33.9895C141.694 33.7742 141.163 33.6567 140.573 33.6567C140.003 33.6567 139.452 33.7742 138.94 33.9895C138.429 34.2048 137.977 34.518 137.603 34.89C137.209 35.2619 136.914 35.7121 136.698 36.2211ZM137.15 39.3336C136.954 38.8833 136.855 38.3939 136.855 37.885C136.855 37.3565 136.954 36.8866 137.131 36.4168C137.308 35.9666 137.583 35.5555 137.918 35.2228C138.252 34.89 138.645 34.6159 139.098 34.4202C139.55 34.2244 140.042 34.1265 140.553 34.1265C141.065 34.1265 141.556 34.2244 142.009 34.4202C142.481 34.6159 142.874 34.89 143.209 35.2228C143.543 35.5555 143.818 35.9666 144.015 36.4168C144.212 36.8671 144.31 37.3565 144.31 37.8654C144.31 38.3744 144.212 38.8637 144.015 39.314C143.818 39.7642 143.543 40.1557 143.209 40.4885C142.874 40.8213 142.461 41.0953 142.009 41.2911C141.556 41.4868 141.065 41.5847 140.553 41.5847C140.042 41.5847 139.57 41.4868 139.117 41.2911C138.665 41.1149 138.272 40.8408 137.937 40.5081C137.603 40.1753 137.347 39.7838 137.15 39.3336ZM152.631 41.976V33.7544H153.123V41.5062H157.706V41.976H152.631ZM54.458 33.7544V41.9564H54.9497V38.1001H56.2676C57.0741 38.1001 57.6838 37.8848 58.1166 37.4933C58.5493 37.1018 58.7657 36.5536 58.7657 35.8881C58.7657 35.5162 58.687 35.1834 58.51 34.9093C58.3329 34.6353 58.1166 34.42 57.8609 34.2438C57.6051 34.0676 57.3298 33.9501 57.0347 33.8718C56.7397 33.7935 56.4643 33.7544 56.2283 33.7544H54.458ZM56.1693 37.6303H54.9497V34.2242H56.1889C56.484 34.2242 56.7593 34.2633 57.015 34.3612C57.2708 34.4591 57.4871 34.5766 57.6838 34.7332C57.8609 34.8898 58.0182 35.0855 58.1166 35.2813C58.2149 35.477 58.2739 35.6923 58.2739 35.9077C58.2739 36.1034 58.2346 36.2992 58.1756 36.4949C58.1166 36.6907 57.9985 36.8669 57.8412 37.043C57.6838 37.2192 57.4675 37.3562 57.1921 37.4737C56.9167 37.5716 56.5823 37.6303 56.1693 37.6303Z" fill="#BAC7E1"/>
</g>
<defs>
<filter id="filter0_d_3671_1867" x="0.177246" y="0" width="161.646" height="58" filterUnits="userSpaceOnUse" color-interpolation-filters="sRGB">
<feFlood flood-opacity="0" result="BackgroundImageFix"/>
<feColorMatrix in="SourceAlpha" type="matrix" values="0 0 0 0 0 0 0 0 0 0 0 0 0 0 0 0 0 0 127 0" result="hardAlpha"/>
<feOffset dy="4"/>
<feGaussianBlur stdDeviation="2"/>
<feComposite in2="hardAlpha" operator="out"/>
<feColorMatrix type="matrix" values="0 0 0 0 0 0 0 0 0 0 0 0 0 0 0 0 0 0 0.27 0"/>
<feBlend mode="normal" in2="BackgroundImageFix" result="effect1_dropShadow_3671_1867"/>
<feBlend mode="normal" in="SourceGraphic" in2="effect1_dropShadow_3671_1867" result="shape"/>
</filter>
</defs>
</svg>
