<svg width="119" height="50" viewBox="0 0 119 50" fill="none" xmlns="http://www.w3.org/2000/svg">
<path d="M9.11096 20.574C7.4104 19.5625 6.07422 20.3736 6.07422 22.3093V38.3035C6.07422 38.5897 6.35221 38.7934 6.6251 38.7073L10.4565 37.4976C10.7211 37.4141 10.9008 37.1766 10.9004 36.8992C10.8972 34.4533 10.8824 23.0143 10.8824 22.2511C10.8824 22.2511 10.2504 21.4921 10.1202 21.362C9.65447 20.8539 9.11096 20.574 9.11096 20.574Z" fill="black"/>
<path d="M9.11096 20.574C7.4104 19.5625 6.07422 20.3736 6.07422 22.3093V38.3035C6.07422 38.5897 6.35221 38.7934 6.6251 38.7073L10.4565 37.4976C10.7211 37.4141 10.9008 37.1766 10.9004 36.8992C10.8972 34.4533 10.8824 23.0143 10.8824 22.2511C10.8824 22.2511 10.2504 21.4921 10.1202 21.362C9.65447 20.8539 9.11096 20.574 9.11096 20.574Z" fill="url(#paint0_linear_12067_46145)"/>
<path d="M9.11096 20.574C7.4104 19.5625 6.07422 20.3736 6.07422 22.3093V38.3035C6.07422 38.5897 6.35221 38.7934 6.6251 38.7073L10.4565 37.4976C10.7211 37.4141 10.9008 37.1766 10.9004 36.8992C10.8972 34.4533 10.8824 23.0143 10.8824 22.2511C10.8824 22.2511 10.2504 21.4921 10.1202 21.362C9.65447 20.8539 9.11096 20.574 9.11096 20.574Z" fill="url(#paint1_linear_12067_46145)"/>
<path d="M15.3081 4.44671C14.9418 4.23892 14.5118 4.19224 14.107 4.30809C12.4317 4.78744 9.88177 5.54026 9.88177 5.54026L4.84945 6.94726C3.82276 7.23565 2.03393 7.73955 0.939564 8.05693C0.581475 8.16078 0.52399 8.6429 0.846881 8.82933L12.1264 15.3444C14.5799 16.9216 17.9621 20.6815 18.1812 25.4035C18.1812 32.0801 18.1975 42.7435 18.2017 45.3283C18.2021 45.6149 18.4812 45.8171 18.7542 45.7297L22.5842 44.5034C22.8476 44.419 23.0262 44.1819 23.0256 43.9053C23.0211 41.5298 23.0004 30.4368 23.0004 23.7825C23.0004 19.4276 18.7858 14.8011 16.9457 13.9074C15.666 13.175 13.2153 11.7561 10.8498 10.3883C10.7849 10.3508 10.7157 10.3184 10.6592 10.278C9.83763 9.69147 9.90667 8.82468 10.8609 8.27377C11.8583 7.6979 13.4841 7.66714 14.4993 8.21107C14.5222 8.22333 14.5448 8.23588 14.567 8.24873C14.5887 8.26125 14.6099 8.27396 14.6307 8.28683C17.2475 9.79628 20.299 11.5579 21.9977 12.5437C24.4511 14.1209 27.8445 17.8784 28.0635 22.6005C28.0635 29.2897 28.0932 39.9333 28.1006 42.4803C28.1014 42.7616 28.3712 42.9634 28.6414 42.8854L32.4493 41.7857C32.7215 41.707 32.9087 41.4655 32.9082 41.1821C32.9035 38.767 32.8828 27.6235 32.8828 20.9794C32.8828 16.6669 28.6577 12.0684 26.8281 11.1043C24.3349 9.67742 17.4001 5.63347 15.3081 4.44671Z" fill="url(#paint2_linear_12067_46145)"/>
<path d="M45.2033 37H40.758V20.413H45.1701V21.3419C46.674 20.4572 48.0562 20.0149 49.3168 20.0149C51.5284 20.0149 53.0544 20.6673 53.8949 21.9722C54.7353 23.277 55.1555 25.2896 55.1555 28.0099V37H50.7102V28.1425C50.7102 26.7271 50.5443 25.6877 50.2125 25.0242C49.8808 24.3386 49.2173 23.9958 48.2221 23.9958C47.3153 23.9958 46.4418 24.1506 45.6014 24.4602L45.2033 24.5929V37ZM67.222 20.413H71.6673V37H67.2552V36.0711C65.6628 36.9558 64.2806 37.3981 63.1084 37.3981C60.8083 37.3981 59.2602 36.7678 58.464 35.5072C57.6679 34.2244 57.2698 32.0903 57.2698 29.1046V20.413H61.7151V29.1709C61.7151 30.8075 61.8478 31.9244 62.1132 32.5215C62.3786 33.1186 63.0199 33.4172 64.0373 33.4172C65.0104 33.4172 65.9282 33.2624 66.7907 32.9528L67.222 32.8201V20.413ZM78.5587 37H74.1134V13.7782H78.5587V26.9815L80.2505 26.6829L83.5348 20.413H88.5109L84.1982 28.2752L88.7431 37H83.7338L80.3832 30.5311L78.5587 30.8296V37ZM89.7266 37V13.7782H94.1719V37H89.7266ZM109.516 25.5882V32.4883C109.56 33.0191 109.649 33.3951 109.781 33.6163C109.914 33.8153 110.19 33.9591 110.611 34.0475L110.478 37.3981C109.35 37.3981 108.443 37.3207 107.758 37.1659C107.094 37.0111 106.42 36.7014 105.734 36.237C104.142 37.0111 102.516 37.3981 100.858 37.3981C97.4296 37.3981 95.7156 35.5846 95.7156 31.9576C95.7156 30.1883 96.1911 28.9387 97.1421 28.2089C98.093 27.457 99.5527 27.0146 101.521 26.8819L105.071 26.6165V25.5882C105.071 24.9026 104.916 24.4381 104.606 24.1948C104.297 23.9295 103.799 23.7968 103.113 23.7968L96.8767 24.0621L96.744 20.977C99.1104 20.3356 101.355 20.0149 103.478 20.0149C105.624 20.0149 107.161 20.4572 108.089 21.3419C109.04 22.2265 109.516 23.6419 109.516 25.5882ZM102.052 29.9671C100.813 30.0777 100.194 30.7412 100.194 31.9576C100.194 33.1739 100.736 33.7821 101.82 33.7821C102.66 33.7821 103.578 33.6494 104.573 33.384L105.071 33.2513V29.7017L102.052 29.9671ZM112.095 37V20.413H116.54V37H112.095ZM112.095 18.2899V13.7782H116.54V18.2899H112.095Z" fill="white"/>
<defs>
<linearGradient id="paint0_linear_12067_46145" x1="8.48762" y1="20.1367" x2="8.48762" y2="38.8812" gradientUnits="userSpaceOnUse">
<stop stop-color="#45EDBA"/>
<stop offset="1" stop-color="#11AF7F"/>
</linearGradient>
<linearGradient id="paint1_linear_12067_46145" x1="8.49214" y1="7.37158" x2="8.49214" y2="41.4392" gradientUnits="userSpaceOnUse">
<stop stop-color="#08F7DB"/>
<stop offset="1" stop-color="#0F81F0"/>
</linearGradient>
<linearGradient id="paint2_linear_12067_46145" x1="16.8017" y1="4.24807" x2="16.8017" y2="50.6425" gradientUnits="userSpaceOnUse">
<stop stop-color="#08F7DB"/>
<stop offset="1" stop-color="#0F81F0"/>
</linearGradient>
</defs>
</svg>
