<svg width="300" height="300" viewBox="0 0 300 300" fill="none" xmlns="http://www.w3.org/2000/svg">
<path fill-rule="evenodd" clip-rule="evenodd" d="M260.699 162.816C260.699 164.015 259.907 165.213 258.323 166.128L155.083 225.733C151.915 227.562 146.779 227.562 143.612 225.733L40.3719 166.128C38.8514 165.25 38.0608 164.11 38 162.96V185.036C38.0608 186.186 38.8514 187.326 40.3719 188.204L143.612 247.81C146.779 249.638 151.915 249.638 155.083 247.81L258.323 188.204C259.907 187.29 260.699 186.091 260.699 184.893V162.816Z" fill="#7D97C2"/>
<path fill-rule="evenodd" clip-rule="evenodd" d="M38.0038 162.964C37.9379 161.718 38.7286 160.459 40.3757 159.508L143.616 99.9029C146.783 98.074 151.919 98.074 155.087 99.9029L258.327 159.508C259.91 160.423 260.702 161.621 260.702 162.82V184.896C260.702 183.698 259.91 182.499 258.327 181.585L155.087 121.979C151.919 120.15 146.783 120.15 143.616 121.979L40.3757 181.585C38.7286 182.536 37.9379 183.794 38.0038 185.04V162.964Z" fill="#7D97C2"/>
<path d="M143.616 99.9029C146.783 98.074 151.919 98.074 155.087 99.9029L258.327 159.508C261.494 161.337 261.494 164.302 258.327 166.131L155.087 225.737C151.919 227.566 146.783 227.566 143.616 225.737L40.3757 166.131C37.208 164.302 37.2082 161.337 40.3757 159.508L143.616 99.9029Z" fill="#F0F0F0"/>
<path d="M144.757 113.925C147.232 112.499 151.245 112.499 153.721 113.925L234.395 160.389C236.87 161.814 236.87 164.126 234.395 165.552L153.721 212.016C151.246 213.441 147.232 213.441 144.757 212.016L64.083 165.552C61.6077 164.126 61.6078 161.814 64.083 160.389L144.757 113.925Z" fill="#031A30"/>
<path fill-rule="evenodd" clip-rule="evenodd" d="M145.948 60.3234C145.163 60.7233 144.672 61.6518 144.672 62.9959C144.672 65.5807 146.487 68.7237 148.725 70.0162L174.278 84.769V102.676L184.851 96.5712V78.6644L159.299 63.9115C157.06 62.6191 155.245 59.4761 155.245 56.8912C155.245 55.5471 155.736 54.6187 156.522 54.2188L145.948 60.3234Z" fill="#031A30"/>
<path fill-rule="evenodd" clip-rule="evenodd" d="M174.275 102.679L141.85 83.9582C137.645 81.5308 133.823 81.2131 130.984 82.6576L141.558 76.553C144.396 75.1085 148.219 75.4262 152.423 77.8536L184.849 96.5744L174.275 102.679Z" fill="#01211C"/>
<path fill-rule="evenodd" clip-rule="evenodd" d="M139.492 112.956C139.971 112.712 140.269 112.147 140.269 111.329V105.021C140.269 102.863 140.996 101.321 142.183 100.55L152.757 94.4453C151.57 95.2168 150.843 96.7586 150.843 98.9164V105.225C150.843 106.043 150.544 106.608 150.066 106.851L139.492 112.956Z" fill="#031A30"/>
<path fill-rule="evenodd" clip-rule="evenodd" d="M142.188 100.545C143.473 99.7091 145.298 99.7775 147.323 100.946L174.285 116.513V153.955L184.859 147.85V110.408L157.896 94.8417C155.872 93.6729 154.047 93.6045 152.761 94.4403L142.188 100.545Z" fill="#031A30"/>
<path fill-rule="evenodd" clip-rule="evenodd" d="M174.277 153.957C172.719 153.058 171.31 152.973 170.289 153.562L180.863 147.457C181.883 146.868 183.293 146.953 184.85 147.852L174.277 153.957Z" fill="#031A30"/>
<path fill-rule="evenodd" clip-rule="evenodd" d="M170.292 153.558C169.272 154.147 168.641 155.41 168.641 157.209V159.65L194.722 174.709L205.295 168.604L179.214 153.546V151.104C179.214 149.306 179.845 148.042 180.866 147.453L170.292 153.558Z" fill="#031A30"/>
<path fill-rule="evenodd" clip-rule="evenodd" d="M194.718 174.711V172.676C194.718 168.855 192.036 164.209 188.727 162.298V93.1124L199.3 87.0078V156.193C202.609 158.104 205.292 162.75 205.292 166.571V168.606L194.718 174.711Z" fill="#01211C"/>
<path fill-rule="evenodd" clip-rule="evenodd" d="M188.727 93.1124L191.37 94.6386C192.489 95.2847 193.502 95.3459 194.236 94.9225L204.809 88.8179C204.076 89.2413 203.063 89.1801 201.943 88.534L199.3 87.0078L188.727 93.1124Z" fill="#031A30"/>
<path fill-rule="evenodd" clip-rule="evenodd" d="M194.234 94.9244C194.968 94.5009 195.422 93.5928 195.422 92.3004C195.422 89.7156 193.607 86.5725 191.368 85.2801L148.722 60.6582C147.648 60.0378 146.671 59.9566 145.945 60.3258L156.519 54.2212C157.244 53.852 158.221 53.9332 159.295 54.5536L201.942 79.1755C204.18 80.4678 205.995 83.611 205.995 86.1958C205.995 87.4882 205.541 88.3963 204.808 88.8198L194.234 94.9244Z" fill="#028977"/>
<path fill-rule="evenodd" clip-rule="evenodd" d="M188.736 93.1113L174.286 84.7683V102.675L141.86 83.9544C133.101 78.8972 126 82.9969 126 93.1113V103.082C126 104.656 127.105 106.569 128.467 107.355L137.807 112.748C139.17 113.535 140.274 112.897 140.274 111.323V105.015C140.274 100.52 143.43 98.6979 147.323 100.946L174.286 116.512V153.954C171.171 152.156 168.646 153.613 168.646 157.21V159.652L194.728 174.71V172.675C194.728 168.854 192.045 164.207 188.736 162.297V93.1113Z" fill="#0E4071"/>
<path d="M191.379 85.2771L148.733 60.6551C146.495 59.3627 144.68 60.4104 144.68 62.9952C144.68 65.58 146.495 68.7231 148.733 70.0155L174.286 84.7683L188.736 93.1113L191.379 94.6375C193.618 95.9298 195.433 94.8822 195.433 92.2974C195.433 89.7126 193.618 86.5694 191.379 85.2771Z" fill="#08F7DB"/>
<path fill-rule="evenodd" clip-rule="evenodd" d="M102.948 82.3234C102.163 82.7233 101.672 83.6518 101.672 84.9959C101.672 87.5807 103.487 90.7237 105.725 92.0162L131.278 106.769V124.676L141.851 118.571V100.664L116.299 85.9115C114.06 84.6191 112.245 81.4761 112.245 78.8912C112.245 77.5471 112.736 76.6187 113.522 76.2188L102.948 82.3234Z" fill="#031A30"/>
<path fill-rule="evenodd" clip-rule="evenodd" d="M131.275 124.679L98.8496 105.958C94.6451 103.531 90.8228 103.213 87.9844 104.658L98.5579 98.553C101.396 97.1085 105.219 97.4262 109.423 99.8536L141.849 118.574L131.275 124.679Z" fill="#01211C"/>
<path fill-rule="evenodd" clip-rule="evenodd" d="M96.4922 134.956C96.9705 134.712 97.2692 134.147 97.2692 133.329V127.021C97.2692 124.863 97.9963 123.321 99.1831 122.55L109.757 116.445C108.57 117.217 107.843 118.759 107.843 120.916V127.225C107.843 128.043 107.544 128.608 107.066 128.851L96.4922 134.956Z" fill="#031A30"/>
<path fill-rule="evenodd" clip-rule="evenodd" d="M99.1875 122.545C100.473 121.709 102.298 121.777 104.323 122.946L131.285 138.513V175.955L141.859 169.85V132.408L114.896 116.842C112.872 115.673 111.047 115.605 109.761 116.44L99.1875 122.545Z" fill="#031A30"/>
<path fill-rule="evenodd" clip-rule="evenodd" d="M131.277 175.957C129.719 175.058 128.31 174.973 127.289 175.562L137.863 169.457C138.883 168.868 140.293 168.953 141.85 169.852L131.277 175.957Z" fill="#031A30"/>
<path fill-rule="evenodd" clip-rule="evenodd" d="M127.292 175.558C126.272 176.147 125.641 177.41 125.641 179.209V181.65L151.722 196.709L162.295 190.604L136.214 175.546V173.104C136.214 171.306 136.845 170.042 137.866 169.453L127.292 175.558Z" fill="#031A30"/>
<path fill-rule="evenodd" clip-rule="evenodd" d="M151.718 196.711V194.676C151.718 190.855 149.036 186.209 145.727 184.298V115.112L156.3 109.008V178.193C159.609 180.104 162.292 184.75 162.292 188.571V190.606L151.718 196.711Z" fill="#01211C"/>
<path fill-rule="evenodd" clip-rule="evenodd" d="M145.727 115.112L148.37 116.639C149.489 117.285 150.502 117.346 151.236 116.922L161.809 110.818C161.076 111.241 160.063 111.18 158.943 110.534L156.3 109.008L145.727 115.112Z" fill="#031A30"/>
<path fill-rule="evenodd" clip-rule="evenodd" d="M151.234 116.924C151.968 116.501 152.422 115.593 152.422 114.3C152.422 111.716 150.607 108.572 148.368 107.28L105.722 82.6582C104.648 82.0378 103.671 81.9566 102.945 82.3258L113.519 76.2212C114.244 75.852 115.221 75.9332 116.295 76.5536L158.942 101.176C161.18 102.468 162.995 105.611 162.995 108.196C162.995 109.488 162.541 110.396 161.808 110.82L151.234 116.924Z" fill="#028977"/>
<path fill-rule="evenodd" clip-rule="evenodd" d="M145.736 115.111L131.286 106.768V124.675L98.8602 105.954C90.1009 100.897 83 104.997 83 115.111V125.082C83 126.656 84.1046 128.569 85.4671 129.355L94.8071 134.748C96.1696 135.535 97.2742 134.897 97.2742 133.323V127.015C97.2742 122.52 100.43 120.698 104.323 122.946L131.286 138.512V175.954C128.171 174.156 125.646 175.613 125.646 179.21V181.652L151.728 196.71V194.675C151.728 190.854 149.045 186.207 145.736 184.297V115.111Z" fill="#0E4071"/>
<path d="M148.379 107.277L105.733 82.6551C103.495 81.3627 101.68 82.4104 101.68 84.9952C101.68 87.58 103.495 90.7231 105.733 92.0155L131.286 106.768L145.736 115.111L148.379 116.637C150.618 117.93 152.433 116.882 152.433 114.297C152.433 111.713 150.618 108.569 148.379 107.277Z" fill="#08F7DB"/>
<rect width="27.3083" height="26.8908" rx="5.74105" transform="matrix(0.866025 0.5 -0.866025 0.5 256.289 197.375)" fill="#7D97C2"/>
<mask id="path-26-outside-1_3064_17170" maskUnits="userSpaceOnUse" x="254.594" y="208.855" width="5" height="4" fill="black">
<rect fill="white" x="254.594" y="208.855" width="5" height="4"/>
<path d="M255.594 210.714C255.594 210.685 255.608 210.658 255.631 210.641C256.283 210.172 257.163 210.172 257.814 210.641C257.838 210.658 257.852 210.685 257.851 210.714L257.851 210.779C257.851 210.813 257.84 210.845 257.821 210.873C257.283 211.626 256.163 211.627 255.624 210.874C255.604 210.846 255.594 210.812 255.594 210.778L255.594 210.714Z"/>
</mask>
<path d="M255.594 210.714C255.594 210.685 255.608 210.658 255.631 210.641C256.283 210.172 257.163 210.172 257.814 210.641C257.838 210.658 257.852 210.685 257.851 210.714L257.851 210.779C257.851 210.813 257.84 210.845 257.821 210.873C257.283 211.626 256.163 211.627 255.624 210.874C255.604 210.846 255.594 210.812 255.594 210.778L255.594 210.714Z" fill="url(#paint0_linear_3064_17170)"/>
<path d="M257.851 210.779L257.039 210.775L257.851 210.779ZM257.851 210.714L258.664 210.718L257.851 210.714ZM257.039 210.711L257.039 210.775L258.664 210.782L258.664 210.718L257.039 210.711ZM256.407 210.781L256.407 210.717L254.782 210.71L254.781 210.774L256.407 210.781ZM256.106 211.301C256.475 211.036 256.972 211.036 257.34 211.301L258.289 209.982C257.354 209.308 256.092 209.309 255.157 209.982L256.106 211.301ZM257.16 210.401C256.945 210.701 256.499 210.7 256.286 210.401L254.963 211.346C255.826 212.554 257.62 212.552 258.482 211.345L257.16 210.401ZM254.781 210.774C254.78 210.979 254.844 211.179 254.963 211.346L256.286 210.401C256.365 210.512 256.407 210.645 256.407 210.781L254.781 210.774ZM257.039 210.775C257.039 210.641 257.081 210.51 257.16 210.401L258.482 211.345C258.599 211.181 258.663 210.984 258.664 210.782L257.039 210.775ZM258.664 210.718C258.665 210.426 258.526 210.152 258.289 209.982L257.34 211.301C257.15 211.164 257.038 210.944 257.039 210.711L258.664 210.718ZM256.407 210.717C256.406 210.949 256.294 211.166 256.106 211.301L255.157 209.982C254.922 210.151 254.783 210.421 254.782 210.71L256.407 210.717Z" fill="#031A30" mask="url(#path-26-outside-1_3064_17170)"/>
<path d="M255.594 192.32H257.851V210.83C257.298 211.604 256.147 211.604 255.594 210.83V192.32Z" fill="url(#paint1_linear_3064_17170)"/>
<path d="M255.594 192.32H257.851V210.83C257.298 211.604 256.147 211.604 255.594 210.83V192.32Z" fill="url(#paint2_linear_3064_17170)"/>
<circle cx="256.94" cy="193.675" r="7.67458" fill="url(#paint3_radial_3064_17170)"/>
<rect width="27.3083" height="26.8908" rx="5.74105" transform="matrix(0.866025 0.5 -0.866025 0.5 226.352 216.633)" fill="#7D97C2"/>
<mask id="path-31-outside-2_3064_17170" maskUnits="userSpaceOnUse" x="224.406" y="227.828" width="5" height="4" fill="black">
<rect fill="white" x="224.406" y="227.828" width="5" height="4"/>
<path d="M225.407 229.855C225.407 229.82 225.424 229.788 225.451 229.768C226.231 229.207 227.283 229.207 228.062 229.768C228.09 229.788 228.107 229.821 228.107 229.855L228.106 229.932C228.106 229.973 228.093 230.012 228.07 230.045C227.426 230.946 226.087 230.947 225.443 230.046C225.419 230.012 225.406 229.972 225.407 229.932L225.407 229.855Z"/>
</mask>
<path d="M225.407 229.855C225.407 229.82 225.424 229.788 225.451 229.768C226.231 229.207 227.283 229.207 228.062 229.768C228.09 229.788 228.107 229.821 228.107 229.855L228.106 229.932C228.106 229.973 228.093 230.012 228.07 230.045C227.426 230.946 226.087 230.947 225.443 230.046C225.419 230.012 225.406 229.972 225.407 229.932L225.407 229.855Z" fill="url(#paint4_linear_3064_17170)"/>
<path d="M225.407 229.932L224.594 229.928L225.407 229.932ZM228.106 229.932L228.919 229.936L228.106 229.932ZM228.107 229.855L227.294 229.852L228.107 229.855ZM227.294 229.852L227.294 229.929L228.919 229.936L228.919 229.859L227.294 229.852ZM226.219 229.935L226.219 229.858L224.594 229.851L224.594 229.928L226.219 229.935ZM225.926 230.428C226.422 230.07 227.092 230.07 227.587 230.427L228.537 229.108C227.474 228.343 226.04 228.343 224.977 229.109L225.926 230.428ZM227.409 229.573C227.089 230.021 226.423 230.02 226.104 229.574L224.782 230.518C225.75 231.874 227.764 231.872 228.731 230.517L227.409 229.573ZM224.594 229.928C224.593 230.14 224.659 230.346 224.782 230.518L226.104 229.574C226.179 229.679 226.22 229.805 226.219 229.935L224.594 229.928ZM227.294 229.929C227.294 229.801 227.335 229.677 227.409 229.573L228.731 230.517C228.852 230.348 228.918 230.145 228.919 229.936L227.294 229.929ZM228.919 229.859C228.921 229.561 228.778 229.282 228.537 229.108L227.587 230.427C227.402 230.294 227.293 230.08 227.294 229.852L228.919 229.859ZM226.219 229.858C226.218 230.084 226.109 230.296 225.926 230.428L224.977 229.109C224.738 229.281 224.596 229.557 224.594 229.851L226.219 229.858Z" fill="#031A30" mask="url(#path-31-outside-2_3064_17170)"/>
<path d="M225.406 207.855H228.106V229.994C227.444 230.92 226.068 230.92 225.406 229.994V207.855Z" fill="url(#paint5_linear_3064_17170)"/>
<path d="M225.406 207.855H228.106V229.994C227.444 230.92 226.068 230.92 225.406 229.994V207.855Z" fill="url(#paint6_linear_3064_17170)"/>
<path d="M239.222 214.823C239.222 219.893 232.088 223.031 227.019 223.031C221.949 223.031 214.438 218.921 214.438 213.852C214.438 208.782 221.949 176 227.019 176C232.088 176 239.222 209.754 239.222 214.823Z" fill="url(#paint7_radial_3064_17170)"/>
<rect width="32.4261" height="32.4261" transform="matrix(0.866025 0.5 -0.866025 0.5 70.3906 210)" fill="#BECFE9"/>
<rect width="32.4261" height="32.4261" transform="matrix(0.866025 0.5 -0.866025 0.5 70.3906 210)" fill="url(#paint8_linear_3064_17170)"/>
<path d="M98.4687 227.933L98.4688 226.211L70.3869 242.424L70.4477 244.146L98.4687 227.933Z" fill="#CBDBF5"/>
<path d="M42.3047 227.937L42.3047 226.215L70.385 242.428L70.4458 244.15L42.3047 227.937Z" fill="#E4F0FF"/>
<circle cx="0.863947" cy="0.863947" r="0.863947" transform="matrix(0.866025 0.5 -0.866025 0.5 70.3906 239.273)" fill="#0C0C0C"/>
<circle cx="0.863947" cy="0.863947" r="0.863947" transform="matrix(0.866025 0.5 -0.866025 0.5 70.3906 239.273)" fill="url(#paint9_linear_3064_17170)"/>
<circle cx="0.863947" cy="0.863947" r="0.863947" transform="matrix(0.866025 0.5 -0.866025 0.5 95.0859 225.266)" fill="#0C0C0C"/>
<circle cx="0.863947" cy="0.863947" r="0.863947" transform="matrix(0.866025 0.5 -0.866025 0.5 95.0859 225.266)" fill="url(#paint10_linear_3064_17170)"/>
<circle cx="0.863947" cy="0.863947" r="0.863947" transform="matrix(0.866025 0.5 -0.866025 0.5 45.7812 225.203)" fill="#0C0C0C"/>
<circle cx="0.863947" cy="0.863947" r="0.863947" transform="matrix(0.866025 0.5 -0.866025 0.5 45.7812 225.203)" fill="url(#paint11_linear_3064_17170)"/>
<path d="M68.6361 212.808H72.192L92.0473 224.271L92.0473 226.264L72.1812 237.734H68.6469L48.9675 226.372L48.9675 224.163L68.6361 212.808Z" fill="white"/>
<path d="M68.6361 212.808H72.192L92.0473 224.271L92.0473 226.264L72.1812 237.734H68.6469L48.9675 226.372L48.9675 224.163L68.6361 212.808Z" fill="url(#paint12_linear_3064_17170)"/>
<path d="M72.1719 238.704V237.738L92.0316 226.258V227.156L72.1719 238.704Z" fill="#7D97C2"/>
<path d="M72.1743 238.704V237.738L68.6406 237.734V238.632L72.1743 238.704Z" fill="#CBDBF5"/>
<path d="M48.9609 227.337V226.371L68.6403 237.732V238.63L48.9609 227.337Z" fill="#E4F0FF"/>
<circle cx="0.863947" cy="0.863947" r="0.863947" transform="matrix(0.866025 0.5 -0.866025 0.5 70.3906 210.91)" fill="#0C0C0C"/>
<circle cx="0.863947" cy="0.863947" r="0.863947" transform="matrix(0.866025 0.5 -0.866025 0.5 70.3906 210.91)" fill="url(#paint13_linear_3064_17170)"/>
<path d="M73.1875 241.297L74.3304 240.637L75.8101 241.491L74.6672 242.151L73.1875 241.297Z" fill="#657A94"/>
<path fill-rule="evenodd" clip-rule="evenodd" d="M75.8116 241.484L74.6687 242.144V243.852L75.0293 243.644L75.5306 243.355L75.8116 243.192V241.484Z" fill="#7D97C2"/>
<path d="M75.6349 243.891L76.1362 243.602L75.5306 243.355L75.0293 243.644L75.6349 243.891Z" fill="#031A30"/>
<path d="M75.2734 240.109L76.4163 239.449L77.896 240.304L76.7532 240.963L75.2734 240.109Z" fill="#657A94"/>
<path fill-rule="evenodd" clip-rule="evenodd" d="M77.8975 240.296L76.7547 240.956V242.665L77.1152 242.457L77.6165 242.167L77.8975 242.005V240.296Z" fill="#7D97C2"/>
<path d="M77.7209 242.704L78.2222 242.414L77.6165 242.167L77.1152 242.457L77.7209 242.704Z" fill="#031A30"/>
<path d="M77.4219 238.89L78.5647 238.23L80.0444 239.085L78.9016 239.745L77.4219 238.89Z" fill="#657A94"/>
<path fill-rule="evenodd" clip-rule="evenodd" d="M80.046 239.078L78.9031 239.737V241.446L79.2637 241.238L79.765 240.948L80.046 240.786V239.078Z" fill="#7D97C2"/>
<path d="M79.8693 241.485L80.3706 241.196L79.765 240.948L79.2637 241.238L79.8693 241.485Z" fill="#031A30"/>
<path d="M79.3828 237.754L80.5257 237.094L82.0054 237.948L80.8625 238.608L79.3828 237.754Z" fill="#657A94"/>
<path fill-rule="evenodd" clip-rule="evenodd" d="M82.0069 237.941L80.864 238.601V240.309L81.2246 240.101L81.7259 239.812L82.0069 239.649V237.941Z" fill="#7D97C2"/>
<path d="M81.8302 240.348L82.3316 240.059L81.7259 239.812L81.2246 240.101L81.8302 240.348Z" fill="#031A30"/>
<path d="M81.3359 236.617L82.4788 235.957L83.9585 236.811L82.8157 237.471L81.3359 236.617Z" fill="#657A94"/>
<path fill-rule="evenodd" clip-rule="evenodd" d="M83.96 236.804L82.8172 237.464V239.173L83.1777 238.964L83.679 238.675L83.96 238.513V236.804Z" fill="#7D97C2"/>
<path d="M83.7834 239.212L84.2847 238.922L83.679 238.675L83.1777 238.964L83.7834 239.212Z" fill="#031A30"/>
<path d="M83.2969 235.48L84.4397 234.82L85.9194 235.675L84.7766 236.334L83.2969 235.48Z" fill="#657A94"/>
<path fill-rule="evenodd" clip-rule="evenodd" d="M85.921 235.667L84.7781 236.327V238.036L85.1387 237.828L85.64 237.538L85.921 237.376V235.667Z" fill="#7D97C2"/>
<path d="M85.7443 238.075L86.2456 237.785L85.64 237.538L85.1387 237.828L85.7443 238.075Z" fill="#031A30"/>
<path d="M85.2578 234.34L86.4007 233.68L87.8804 234.534L86.7375 235.194L85.2578 234.34Z" fill="#657A94"/>
<path fill-rule="evenodd" clip-rule="evenodd" d="M87.8819 234.527L86.739 235.187V236.895L87.0996 236.687L87.6009 236.398L87.8819 236.235V234.527Z" fill="#7D97C2"/>
<path d="M87.7052 236.934L88.2066 236.645L87.6009 236.398L87.0996 236.687L87.7052 236.934Z" fill="#031A30"/>
<path d="M87.2031 233.199L88.346 232.539L89.8257 233.393L88.6828 234.053L87.2031 233.199Z" fill="#657A94"/>
<path fill-rule="evenodd" clip-rule="evenodd" d="M89.8272 233.386L88.6844 234.046V235.755L89.0449 235.546L89.5462 235.257L89.8272 235.095V233.386Z" fill="#7D97C2"/>
<path d="M89.6506 235.794L90.1519 235.504L89.5462 235.257L89.0449 235.546L89.6506 235.794Z" fill="#031A30"/>
<path d="M89.1719 232.062L90.3147 231.402L91.7944 232.257L90.6516 232.916L89.1719 232.062Z" fill="#657A94"/>
<path fill-rule="evenodd" clip-rule="evenodd" d="M91.796 232.249L90.6531 232.909V234.618L91.0137 234.41L91.515 234.12L91.796 233.958V232.249Z" fill="#7D97C2"/>
<path d="M91.6193 234.657L92.1206 234.367L91.515 234.12L91.0137 234.41L91.6193 234.657Z" fill="#031A30"/>
<path d="M91.1328 230.925L92.2757 230.266L93.7554 231.12L92.6125 231.78L91.1328 230.925Z" fill="#657A94"/>
<path fill-rule="evenodd" clip-rule="evenodd" d="M93.7569 231.113L92.614 231.773V233.481L92.9746 233.273L93.4759 232.984L93.7569 232.821V231.113Z" fill="#7D97C2"/>
<path d="M93.5802 233.52L94.0816 233.231L93.4759 232.984L92.9746 233.273L93.5802 233.52Z" fill="#031A30"/>
<path d="M93.0859 229.789L94.2288 229.129L95.7085 229.983L94.5657 230.643L93.0859 229.789Z" fill="#657A94"/>
<path fill-rule="evenodd" clip-rule="evenodd" d="M95.71 229.976L94.5672 230.636V232.344L94.9277 232.136L95.429 231.847L95.71 231.685V229.976Z" fill="#7D97C2"/>
<path d="M95.5334 232.383L96.0347 232.094L95.429 231.847L94.9277 232.136L95.5334 232.383Z" fill="#031A30"/>
<path d="M67.6172 241.297L66.4743 240.637L64.9946 241.491L66.1375 242.151L67.6172 241.297Z" fill="#657A94"/>
<path fill-rule="evenodd" clip-rule="evenodd" d="M64.9931 241.484L66.136 242.144V243.852L65.7754 243.644L65.2741 243.355L64.9931 243.192V241.484Z" fill="#7D97C2"/>
<path d="M65.1698 243.891L64.6684 243.602L65.2741 243.355L65.7754 243.644L65.1698 243.891Z" fill="#031A30"/>
<path d="M65.5312 240.109L64.3884 239.449L62.9087 240.304L64.0515 240.963L65.5312 240.109Z" fill="#657A94"/>
<path fill-rule="evenodd" clip-rule="evenodd" d="M62.9072 240.296L64.05 240.956V242.665L63.6895 242.457L63.1882 242.167L62.9072 242.005V240.296Z" fill="#7D97C2"/>
<path d="M63.0838 242.704L62.5825 242.414L63.1882 242.167L63.6895 242.457L63.0838 242.704Z" fill="#031A30"/>
<path d="M63.3828 238.89L62.24 238.23L60.7602 239.085L61.9031 239.745L63.3828 238.89Z" fill="#657A94"/>
<path fill-rule="evenodd" clip-rule="evenodd" d="M60.7587 239.078L61.9016 239.737V241.446L61.541 241.238L61.0397 240.948L60.7587 240.786V239.078Z" fill="#7D97C2"/>
<path d="M60.9354 241.485L60.4341 241.196L61.0397 240.948L61.541 241.238L60.9354 241.485Z" fill="#031A30"/>
<path d="M61.4219 237.754L60.279 237.094L58.7993 237.948L59.9422 238.608L61.4219 237.754Z" fill="#657A94"/>
<path fill-rule="evenodd" clip-rule="evenodd" d="M58.7978 237.941L59.9406 238.601V240.309L59.5801 240.101L59.0788 239.812L58.7978 239.649V237.941Z" fill="#7D97C2"/>
<path d="M58.9744 240.348L58.4731 240.059L59.0788 239.812L59.5801 240.101L58.9744 240.348Z" fill="#031A30"/>
<path d="M59.4688 236.617L58.3259 235.957L56.8462 236.811L57.989 237.471L59.4688 236.617Z" fill="#657A94"/>
<path fill-rule="evenodd" clip-rule="evenodd" d="M56.8447 236.804L57.9875 237.464V239.173L57.627 238.964L57.1257 238.675L56.8447 238.513V236.804Z" fill="#7D97C2"/>
<path d="M57.0213 239.212L56.52 238.922L57.1257 238.675L57.627 238.964L57.0213 239.212Z" fill="#031A30"/>
<path d="M57.5078 235.48L56.365 234.82L54.8852 235.675L56.0281 236.334L57.5078 235.48Z" fill="#657A94"/>
<path fill-rule="evenodd" clip-rule="evenodd" d="M54.8837 235.667L56.0266 236.327V238.036L55.666 237.828L55.1647 237.538L54.8837 237.376V235.667Z" fill="#7D97C2"/>
<path d="M55.0604 238.075L54.5591 237.785L55.1647 237.538L55.666 237.828L55.0604 238.075Z" fill="#031A30"/>
<path d="M55.5469 234.34L54.404 233.68L52.9243 234.534L54.0672 235.194L55.5469 234.34Z" fill="#657A94"/>
<path fill-rule="evenodd" clip-rule="evenodd" d="M52.9228 234.527L54.0656 235.187V236.895L53.7051 236.687L53.2038 236.398L52.9228 236.235V234.527Z" fill="#7D97C2"/>
<path d="M53.0994 236.934L52.5981 236.645L53.2038 236.398L53.7051 236.687L53.0994 236.934Z" fill="#031A30"/>
<path d="M53.6016 233.199L52.4587 232.539L50.979 233.393L52.1218 234.053L53.6016 233.199Z" fill="#657A94"/>
<path fill-rule="evenodd" clip-rule="evenodd" d="M50.9775 233.386L52.1203 234.046V235.755L51.7598 235.546L51.2585 235.257L50.9775 235.095V233.386Z" fill="#7D97C2"/>
<path d="M51.1541 235.794L50.6528 235.504L51.2585 235.257L51.7598 235.546L51.1541 235.794Z" fill="#031A30"/>
<path d="M51.6328 232.062L50.49 231.402L49.0102 232.257L50.1531 232.916L51.6328 232.062Z" fill="#657A94"/>
<path fill-rule="evenodd" clip-rule="evenodd" d="M49.0087 232.249L50.1516 232.909V234.618L49.791 234.41L49.2897 234.12L49.0087 233.958V232.249Z" fill="#7D97C2"/>
<path d="M49.1854 234.657L48.6841 234.367L49.2897 234.12L49.791 234.41L49.1854 234.657Z" fill="#031A30"/>
<path d="M49.6719 230.925L48.529 230.266L47.0493 231.12L48.1922 231.78L49.6719 230.925Z" fill="#657A94"/>
<path fill-rule="evenodd" clip-rule="evenodd" d="M47.0478 231.113L48.1906 231.773V233.481L47.8301 233.273L47.3288 232.984L47.0478 232.821V231.113Z" fill="#7D97C2"/>
<path d="M47.2244 233.52L46.7231 233.231L47.3288 232.984L47.8301 233.273L47.2244 233.52Z" fill="#031A30"/>
<path d="M47.7188 229.789L46.5759 229.129L45.0962 229.983L46.239 230.643L47.7188 229.789Z" fill="#657A94"/>
<path fill-rule="evenodd" clip-rule="evenodd" d="M45.0947 229.976L46.2375 230.636V232.344L45.877 232.136L45.3757 231.847L45.0947 231.685V229.976Z" fill="#7D97C2"/>
<path d="M45.2713 232.383L44.77 232.094L45.3757 231.847L45.877 232.136L45.2713 232.383Z" fill="#031A30"/>
<rect width="32.4261" height="32.4261" transform="matrix(0.866025 0.5 -0.866025 0.5 34.5781 188)" fill="#BECFE9"/>
<rect width="32.4261" height="32.4261" transform="matrix(0.866025 0.5 -0.866025 0.5 34.5781 188)" fill="url(#paint14_linear_3064_17170)"/>
<path d="M62.6562 205.933L62.6562 204.211L34.5744 220.424L34.6352 222.146L62.6562 205.933Z" fill="#CBDBF5"/>
<path d="M6.49219 205.937L6.49219 204.215L34.5725 220.428L34.6333 222.15L6.49219 205.937Z" fill="#E4F0FF"/>
<circle cx="0.863947" cy="0.863947" r="0.863947" transform="matrix(0.866025 0.5 -0.866025 0.5 34.5781 217.273)" fill="#0C0C0C"/>
<circle cx="0.863947" cy="0.863947" r="0.863947" transform="matrix(0.866025 0.5 -0.866025 0.5 34.5781 217.273)" fill="url(#paint15_linear_3064_17170)"/>
<circle cx="0.863947" cy="0.863947" r="0.863947" transform="matrix(0.866025 0.5 -0.866025 0.5 59.2734 203.266)" fill="#0C0C0C"/>
<circle cx="0.863947" cy="0.863947" r="0.863947" transform="matrix(0.866025 0.5 -0.866025 0.5 59.2734 203.266)" fill="url(#paint16_linear_3064_17170)"/>
<circle cx="0.863947" cy="0.863947" r="0.863947" transform="matrix(0.866025 0.5 -0.866025 0.5 9.96875 203.203)" fill="#0C0C0C"/>
<circle cx="0.863947" cy="0.863947" r="0.863947" transform="matrix(0.866025 0.5 -0.866025 0.5 9.96875 203.203)" fill="url(#paint17_linear_3064_17170)"/>
<path d="M32.8236 190.808H36.3795L56.2348 202.271L56.2348 204.264L36.3687 215.734H32.8344L13.155 204.372L13.155 202.163L32.8236 190.808Z" fill="white"/>
<path d="M32.8236 190.808H36.3795L56.2348 202.271L56.2348 204.264L36.3687 215.734H32.8344L13.155 204.372L13.155 202.163L32.8236 190.808Z" fill="url(#paint18_linear_3064_17170)"/>
<path d="M36.3594 216.704V215.738L56.2191 204.258V205.156L36.3594 216.704Z" fill="#7D97C2"/>
<path d="M36.3618 216.704V215.738L32.8281 215.734V216.632L36.3618 216.704Z" fill="#CBDBF5"/>
<path d="M13.1484 205.337V204.371L32.8278 215.732V216.63L13.1484 205.337Z" fill="#E4F0FF"/>
<circle cx="0.863947" cy="0.863947" r="0.863947" transform="matrix(0.866025 0.5 -0.866025 0.5 34.5781 188.91)" fill="#0C0C0C"/>
<circle cx="0.863947" cy="0.863947" r="0.863947" transform="matrix(0.866025 0.5 -0.866025 0.5 34.5781 188.91)" fill="url(#paint19_linear_3064_17170)"/>
<path d="M37.3672 219.297L38.51 218.637L39.9898 219.491L38.8469 220.151L37.3672 219.297Z" fill="#657A94"/>
<path fill-rule="evenodd" clip-rule="evenodd" d="M39.9913 219.484L38.8484 220.144V221.852L39.209 221.644L39.7103 221.355L39.9913 221.192V219.484Z" fill="#7D97C2"/>
<path d="M39.8146 221.891L40.3159 221.602L39.7103 221.355L39.209 221.644L39.8146 221.891Z" fill="#031A30"/>
<path d="M39.4531 218.109L40.596 217.449L42.0757 218.304L40.9328 218.963L39.4531 218.109Z" fill="#657A94"/>
<path fill-rule="evenodd" clip-rule="evenodd" d="M42.0772 218.296L40.9344 218.956V220.665L41.2949 220.457L41.7962 220.167L42.0772 220.005V218.296Z" fill="#7D97C2"/>
<path d="M41.9006 220.704L42.4019 220.414L41.7962 220.167L41.2949 220.457L41.9006 220.704Z" fill="#031A30"/>
<path d="M41.6016 216.89L42.7444 216.23L44.2241 217.085L43.0813 217.745L41.6016 216.89Z" fill="#657A94"/>
<path fill-rule="evenodd" clip-rule="evenodd" d="M44.2256 217.078L43.0828 217.737V219.446L43.4434 219.238L43.9447 218.948L44.2256 218.786V217.078Z" fill="#7D97C2"/>
<path d="M44.049 219.485L44.5503 219.196L43.9447 218.948L43.4434 219.238L44.049 219.485Z" fill="#031A30"/>
<path d="M43.5625 215.754L44.7054 215.094L46.1851 215.948L45.0422 216.608L43.5625 215.754Z" fill="#657A94"/>
<path fill-rule="evenodd" clip-rule="evenodd" d="M46.1866 215.941L45.0437 216.601V218.309L45.4043 218.101L45.9056 217.812L46.1866 217.649V215.941Z" fill="#7D97C2"/>
<path d="M46.0099 218.348L46.5112 218.059L45.9056 217.812L45.4043 218.101L46.0099 218.348Z" fill="#031A30"/>
<path d="M45.5156 214.617L46.6585 213.957L48.1382 214.811L46.9953 215.471L45.5156 214.617Z" fill="#657A94"/>
<path fill-rule="evenodd" clip-rule="evenodd" d="M48.1397 214.804L46.9969 215.464V217.173L47.3574 216.964L47.8587 216.675L48.1397 216.513V214.804Z" fill="#7D97C2"/>
<path d="M47.9631 217.212L48.4644 216.922L47.8587 216.675L47.3574 216.964L47.9631 217.212Z" fill="#031A30"/>
<path d="M47.4766 213.48L48.6194 212.82L50.0991 213.675L48.9563 214.334L47.4766 213.48Z" fill="#657A94"/>
<path fill-rule="evenodd" clip-rule="evenodd" d="M50.1006 213.667L48.9578 214.327V216.036L49.3184 215.828L49.8197 215.538L50.1006 215.376V213.667Z" fill="#7D97C2"/>
<path d="M49.924 216.075L50.4253 215.785L49.8197 215.538L49.3184 215.828L49.924 216.075Z" fill="#031A30"/>
<path d="M49.4375 212.34L50.5804 211.68L52.0601 212.534L50.9172 213.194L49.4375 212.34Z" fill="#657A94"/>
<path fill-rule="evenodd" clip-rule="evenodd" d="M52.0616 212.527L50.9187 213.187V214.895L51.2793 214.687L51.7806 214.398L52.0616 214.235V212.527Z" fill="#7D97C2"/>
<path d="M51.8849 214.934L52.3862 214.645L51.7806 214.398L51.2793 214.687L51.8849 214.934Z" fill="#031A30"/>
<path d="M51.3828 211.199L52.5257 210.539L54.0054 211.393L52.8625 212.053L51.3828 211.199Z" fill="#657A94"/>
<path fill-rule="evenodd" clip-rule="evenodd" d="M54.0069 211.386L52.864 212.046V213.755L53.2246 213.546L53.7259 213.257L54.0069 213.095V211.386Z" fill="#7D97C2"/>
<path d="M53.8302 213.794L54.3316 213.504L53.7259 213.257L53.2246 213.546L53.8302 213.794Z" fill="#031A30"/>
<path d="M53.3516 210.062L54.4944 209.402L55.9741 210.257L54.8313 210.916L53.3516 210.062Z" fill="#657A94"/>
<path fill-rule="evenodd" clip-rule="evenodd" d="M55.9756 210.249L54.8328 210.909V212.618L55.1934 212.41L55.6947 212.12L55.9756 211.958V210.249Z" fill="#7D97C2"/>
<path d="M55.799 212.657L56.3003 212.367L55.6947 212.12L55.1934 212.41L55.799 212.657Z" fill="#031A30"/>
<path d="M55.3125 208.925L56.4554 208.266L57.9351 209.12L56.7922 209.78L55.3125 208.925Z" fill="#657A94"/>
<path fill-rule="evenodd" clip-rule="evenodd" d="M57.9366 209.113L56.7937 209.773V211.481L57.1543 211.273L57.6556 210.984L57.9366 210.821V209.113Z" fill="#7D97C2"/>
<path d="M57.7599 211.52L58.2612 211.231L57.6556 210.984L57.1543 211.273L57.7599 211.52Z" fill="#031A30"/>
<path d="M57.2656 207.789L58.4085 207.129L59.8882 207.983L58.7453 208.643L57.2656 207.789Z" fill="#657A94"/>
<path fill-rule="evenodd" clip-rule="evenodd" d="M59.8897 207.976L58.7469 208.636V210.344L59.1074 210.136L59.6087 209.847L59.8897 209.685V207.976Z" fill="#7D97C2"/>
<path d="M59.7131 210.383L60.2144 210.094L59.6087 209.847L59.1074 210.136L59.7131 210.383Z" fill="#031A30"/>
<path d="M31.7969 219.297L30.654 218.637L29.1743 219.491L30.3172 220.151L31.7969 219.297Z" fill="#657A94"/>
<path fill-rule="evenodd" clip-rule="evenodd" d="M29.1728 219.484L30.3156 220.144V221.852L29.9551 221.644L29.4538 221.355L29.1728 221.192V219.484Z" fill="#7D97C2"/>
<path d="M29.3494 221.891L28.8481 221.602L29.4538 221.355L29.9551 221.644L29.3494 221.891Z" fill="#031A30"/>
<path d="M29.7109 218.109L28.5681 217.449L27.0884 218.304L28.2312 218.963L29.7109 218.109Z" fill="#657A94"/>
<path fill-rule="evenodd" clip-rule="evenodd" d="M27.0869 218.296L28.2297 218.956V220.665L27.8691 220.457L27.3678 220.167L27.0869 220.005V218.296Z" fill="#7D97C2"/>
<path d="M27.2635 220.704L26.7622 220.414L27.3678 220.167L27.8691 220.457L27.2635 220.704Z" fill="#031A30"/>
<path d="M27.5625 216.89L26.4196 216.23L24.9399 217.085L26.0828 217.745L27.5625 216.89Z" fill="#657A94"/>
<path fill-rule="evenodd" clip-rule="evenodd" d="M24.9384 217.078L26.0813 217.737V219.446L25.7207 219.238L25.2194 218.948L24.9384 218.786V217.078Z" fill="#7D97C2"/>
<path d="M25.1151 219.485L24.6138 219.196L25.2194 218.948L25.7207 219.238L25.1151 219.485Z" fill="#031A30"/>
<path d="M25.6016 215.754L24.4587 215.094L22.979 215.948L24.1218 216.608L25.6016 215.754Z" fill="#657A94"/>
<path fill-rule="evenodd" clip-rule="evenodd" d="M22.9775 215.941L24.1203 216.601V218.309L23.7598 218.101L23.2585 217.812L22.9775 217.649V215.941Z" fill="#7D97C2"/>
<path d="M23.1541 218.348L22.6528 218.059L23.2585 217.812L23.7598 218.101L23.1541 218.348Z" fill="#031A30"/>
<path d="M23.6484 214.617L22.5056 213.957L21.0259 214.811L22.1687 215.471L23.6484 214.617Z" fill="#657A94"/>
<path fill-rule="evenodd" clip-rule="evenodd" d="M21.0244 214.804L22.1672 215.464V217.173L21.8066 216.964L21.3053 216.675L21.0244 216.513V214.804Z" fill="#7D97C2"/>
<path d="M21.201 217.212L20.6997 216.922L21.3053 216.675L21.8066 216.964L21.201 217.212Z" fill="#031A30"/>
<path d="M21.6875 213.48L20.5446 212.82L19.0649 213.675L20.2078 214.334L21.6875 213.48Z" fill="#657A94"/>
<path fill-rule="evenodd" clip-rule="evenodd" d="M19.0634 213.667L20.2063 214.327V216.036L19.8457 215.828L19.3444 215.538L19.0634 215.376V213.667Z" fill="#7D97C2"/>
<path d="M19.2401 216.075L18.7388 215.785L19.3444 215.538L19.8457 215.828L19.2401 216.075Z" fill="#031A30"/>
<path d="M19.7266 212.34L18.5837 211.68L17.104 212.534L18.2468 213.194L19.7266 212.34Z" fill="#657A94"/>
<path fill-rule="evenodd" clip-rule="evenodd" d="M17.1025 212.527L18.2453 213.187V214.895L17.8848 214.687L17.3835 214.398L17.1025 214.235V212.527Z" fill="#7D97C2"/>
<path d="M17.2791 214.934L16.7778 214.645L17.3835 214.398L17.8848 214.687L17.2791 214.934Z" fill="#031A30"/>
<path d="M17.7812 211.199L16.6384 210.539L15.1587 211.393L16.3015 212.053L17.7812 211.199Z" fill="#657A94"/>
<path fill-rule="evenodd" clip-rule="evenodd" d="M15.1572 211.386L16.3 212.046V213.755L15.9395 213.546L15.4382 213.257L15.1572 213.095V211.386Z" fill="#7D97C2"/>
<path d="M15.3338 213.794L14.8325 213.504L15.4382 213.257L15.9395 213.546L15.3338 213.794Z" fill="#031A30"/>
<path d="M15.8125 210.062L14.6696 209.402L13.1899 210.257L14.3328 210.916L15.8125 210.062Z" fill="#657A94"/>
<path fill-rule="evenodd" clip-rule="evenodd" d="M13.1884 210.249L14.3313 210.909V212.618L13.9707 212.41L13.4694 212.12L13.1884 211.958V210.249Z" fill="#7D97C2"/>
<path d="M13.3651 212.657L12.8638 212.367L13.4694 212.12L13.9707 212.41L13.3651 212.657Z" fill="#031A30"/>
<path d="M13.8516 208.925L12.7087 208.266L11.229 209.12L12.3718 209.78L13.8516 208.925Z" fill="#657A94"/>
<path fill-rule="evenodd" clip-rule="evenodd" d="M11.2275 209.113L12.3703 209.773V211.481L12.0098 211.273L11.5085 210.984L11.2275 210.821V209.113Z" fill="#7D97C2"/>
<path d="M11.4041 211.52L10.9028 211.231L11.5085 210.984L12.0098 211.273L11.4041 211.52Z" fill="#031A30"/>
<path d="M11.8984 207.789L10.7556 207.129L9.27587 207.983L10.4187 208.643L11.8984 207.789Z" fill="#657A94"/>
<path fill-rule="evenodd" clip-rule="evenodd" d="M9.27436 207.976L10.4172 208.636V210.344L10.0566 210.136L9.55534 209.847L9.27436 209.685V207.976Z" fill="#7D97C2"/>
<path d="M9.451 210.383L8.9497 210.094L9.55534 209.847L10.0566 210.136L9.451 210.383Z" fill="#031A30"/>
<defs>
<linearGradient id="paint0_linear_3064_17170" x1="257.851" y1="190.922" x2="247.242" y2="206.948" gradientUnits="userSpaceOnUse">
<stop offset="0.155289" stop-color="#031A30"/>
<stop offset="0.514591" stop-color="#0F81F0"/>
<stop offset="1" stop-color="#031A30"/>
</linearGradient>
<linearGradient id="paint1_linear_3064_17170" x1="257.851" y1="190.74" x2="247.242" y2="206.767" gradientUnits="userSpaceOnUse">
<stop offset="0.155289" stop-color="#031A30"/>
<stop offset="0.514591" stop-color="#0F81F0"/>
<stop offset="1" stop-color="#031A30"/>
</linearGradient>
<linearGradient id="paint2_linear_3064_17170" x1="256.722" y1="192.32" x2="245.614" y2="225.412" gradientUnits="userSpaceOnUse">
<stop offset="0.0596716" stop-color="#6FB3F6"/>
<stop offset="0.138721" stop-color="white"/>
</linearGradient>
<radialGradient id="paint3_radial_3064_17170" cx="0" cy="0" r="1" gradientUnits="userSpaceOnUse" gradientTransform="translate(253.554 186.903) rotate(76.8094) scale(14.8377)">
<stop stop-color="#9FCDF9"/>
<stop offset="1" stop-color="#6FB3F6"/>
</radialGradient>
<linearGradient id="paint4_linear_3064_17170" x1="228.106" y1="206.182" x2="215.417" y2="225.351" gradientUnits="userSpaceOnUse">
<stop offset="0.155289" stop-color="#031A30"/>
<stop offset="0.514591" stop-color="#0F81F0"/>
<stop offset="1" stop-color="#031A30"/>
</linearGradient>
<linearGradient id="paint5_linear_3064_17170" x1="228.106" y1="205.966" x2="215.417" y2="225.134" gradientUnits="userSpaceOnUse">
<stop offset="0.155289" stop-color="#031A30"/>
<stop offset="0.514591" stop-color="#0F81F0"/>
<stop offset="1" stop-color="#031A30"/>
</linearGradient>
<linearGradient id="paint6_linear_3064_17170" x1="226.756" y1="207.855" x2="213.47" y2="247.435" gradientUnits="userSpaceOnUse">
<stop offset="0.0596716" stop-color="#6FB3F6"/>
<stop offset="0.138721" stop-color="white"/>
</linearGradient>
<radialGradient id="paint7_radial_3064_17170" cx="0" cy="0" r="1" gradientUnits="userSpaceOnUse" gradientTransform="translate(222.969 205.752) rotate(76.8094) scale(17.7471 17.7471)">
<stop stop-color="#9FCDF9"/>
<stop offset="1" stop-color="#6FB3F6"/>
</radialGradient>
<linearGradient id="paint8_linear_3064_17170" x1="-37.046" y1="7.61191" x2="48.4072" y2="-32.8331" gradientUnits="userSpaceOnUse">
<stop offset="0.0469908" stop-color="#0E4071"/>
<stop offset="0.140821" stop-color="#0E4071"/>
<stop offset="0.412734" stop-color="#031A30"/>
</linearGradient>
<linearGradient id="paint9_linear_3064_17170" x1="-0.000930614" y1="0.0810461" x2="-0.180826" y2="1.26391" gradientUnits="userSpaceOnUse">
<stop stop-color="#08F7DB"/>
<stop offset="0.887375" stop-color="#0F81F0"/>
</linearGradient>
<linearGradient id="paint10_linear_3064_17170" x1="-0.000930614" y1="0.0810461" x2="-0.180826" y2="1.26391" gradientUnits="userSpaceOnUse">
<stop stop-color="#08F7DB"/>
<stop offset="0.887375" stop-color="#0F81F0"/>
</linearGradient>
<linearGradient id="paint11_linear_3064_17170" x1="-0.000930614" y1="0.0810461" x2="-0.180826" y2="1.26391" gradientUnits="userSpaceOnUse">
<stop stop-color="#08F7DB"/>
<stop offset="0.887375" stop-color="#0F81F0"/>
</linearGradient>
<linearGradient id="paint12_linear_3064_17170" x1="82.2193" y1="213.306" x2="111.594" y2="256.813" gradientUnits="userSpaceOnUse">
<stop offset="0.178892" stop-color="#0E4071"/>
<stop offset="0.192141" stop-color="#0E4071"/>
<stop offset="0.412734" stop-color="#031A30"/>
</linearGradient>
<linearGradient id="paint13_linear_3064_17170" x1="-0.000930614" y1="0.0810461" x2="-0.180826" y2="1.26391" gradientUnits="userSpaceOnUse">
<stop stop-color="#08F7DB"/>
<stop offset="0.887375" stop-color="#0F81F0"/>
</linearGradient>
<linearGradient id="paint14_linear_3064_17170" x1="-37.046" y1="7.61191" x2="48.4072" y2="-32.8331" gradientUnits="userSpaceOnUse">
<stop offset="0.0469908" stop-color="#0E4071"/>
<stop offset="0.140821" stop-color="#0E4071"/>
<stop offset="0.412734" stop-color="#031A30"/>
</linearGradient>
<linearGradient id="paint15_linear_3064_17170" x1="-0.000930614" y1="0.0810461" x2="-0.180826" y2="1.26391" gradientUnits="userSpaceOnUse">
<stop stop-color="#08F7DB"/>
<stop offset="0.887375" stop-color="#0F81F0"/>
</linearGradient>
<linearGradient id="paint16_linear_3064_17170" x1="-0.000930614" y1="0.0810461" x2="-0.180826" y2="1.26391" gradientUnits="userSpaceOnUse">
<stop stop-color="#08F7DB"/>
<stop offset="0.887375" stop-color="#0F81F0"/>
</linearGradient>
<linearGradient id="paint17_linear_3064_17170" x1="-0.000930614" y1="0.0810461" x2="-0.180826" y2="1.26391" gradientUnits="userSpaceOnUse">
<stop stop-color="#08F7DB"/>
<stop offset="0.887375" stop-color="#0F81F0"/>
</linearGradient>
<linearGradient id="paint18_linear_3064_17170" x1="46.4068" y1="191.306" x2="75.7815" y2="234.813" gradientUnits="userSpaceOnUse">
<stop offset="0.178892" stop-color="#0E4071"/>
<stop offset="0.192141" stop-color="#0E4071"/>
<stop offset="0.412734" stop-color="#031A30"/>
</linearGradient>
<linearGradient id="paint19_linear_3064_17170" x1="-0.000930614" y1="0.0810461" x2="-0.180826" y2="1.26391" gradientUnits="userSpaceOnUse">
<stop stop-color="#08F7DB"/>
<stop offset="0.887375" stop-color="#0F81F0"/>
</linearGradient>
</defs>
</svg>
