<svg width="300" height="300" viewBox="0 0 300 300" fill="none" xmlns="http://www.w3.org/2000/svg">
<rect width="32.4261" height="32.4261" transform="matrix(0.866025 0.5 -0.866025 0.5 262.391 192)" fill="#BECFE9"/>
<rect width="32.4261" height="32.4261" transform="matrix(0.866025 0.5 -0.866025 0.5 262.391 192)" fill="url(#paint0_linear_3059_8088)"/>
<path d="M290.469 209.933L290.469 208.211L262.387 224.424L262.448 226.146L290.469 209.933Z" fill="#CBDBF5"/>
<path d="M234.305 209.937L234.305 208.215L262.385 224.428L262.446 226.15L234.305 209.937Z" fill="#E4F0FF"/>
<circle cx="0.863947" cy="0.863947" r="0.863947" transform="matrix(0.866025 0.5 -0.866025 0.5 262.391 221.273)" fill="#0C0C0C"/>
<circle cx="0.863947" cy="0.863947" r="0.863947" transform="matrix(0.866025 0.5 -0.866025 0.5 262.391 221.273)" fill="url(#paint1_linear_3059_8088)"/>
<circle cx="0.863947" cy="0.863947" r="0.863947" transform="matrix(0.866025 0.5 -0.866025 0.5 287.086 207.266)" fill="#0C0C0C"/>
<circle cx="0.863947" cy="0.863947" r="0.863947" transform="matrix(0.866025 0.5 -0.866025 0.5 287.086 207.266)" fill="url(#paint2_linear_3059_8088)"/>
<circle cx="0.863947" cy="0.863947" r="0.863947" transform="matrix(0.866025 0.5 -0.866025 0.5 237.781 207.203)" fill="#0C0C0C"/>
<circle cx="0.863947" cy="0.863947" r="0.863947" transform="matrix(0.866025 0.5 -0.866025 0.5 237.781 207.203)" fill="url(#paint3_linear_3059_8088)"/>
<path d="M260.636 194.808H264.192L284.047 206.271L284.047 208.264L264.181 219.734H260.647L240.968 208.372L240.968 206.163L260.636 194.808Z" fill="white"/>
<path d="M260.636 194.808H264.192L284.047 206.271L284.047 208.264L264.181 219.734H260.647L240.968 208.372L240.968 206.163L260.636 194.808Z" fill="url(#paint4_linear_3059_8088)"/>
<path d="M264.172 220.704V219.738L284.032 208.258V209.156L264.172 220.704Z" fill="#7D97C2"/>
<path d="M264.174 220.704V219.738L260.641 219.734V220.632L264.174 220.704Z" fill="#CBDBF5"/>
<path d="M240.961 209.337V208.371L260.64 219.732V220.63L240.961 209.337Z" fill="#E4F0FF"/>
<circle cx="0.863947" cy="0.863947" r="0.863947" transform="matrix(0.866025 0.5 -0.866025 0.5 262.391 192.91)" fill="#0C0C0C"/>
<circle cx="0.863947" cy="0.863947" r="0.863947" transform="matrix(0.866025 0.5 -0.866025 0.5 262.391 192.91)" fill="url(#paint5_linear_3059_8088)"/>
<path d="M265.188 223.297L266.33 222.637L267.81 223.491L266.667 224.151L265.188 223.297Z" fill="#657A94"/>
<path fill-rule="evenodd" clip-rule="evenodd" d="M267.812 223.484L266.669 224.144V225.852L267.029 225.644L267.531 225.355L267.812 225.192V223.484Z" fill="#7D97C2"/>
<path d="M267.635 225.891L268.136 225.602L267.531 225.355L267.029 225.644L267.635 225.891Z" fill="#031A30"/>
<path d="M267.273 222.109L268.416 221.449L269.896 222.304L268.753 222.963L267.273 222.109Z" fill="#657A94"/>
<path fill-rule="evenodd" clip-rule="evenodd" d="M269.898 222.296L268.755 222.956V224.665L269.115 224.457L269.617 224.167L269.898 224.005V222.296Z" fill="#7D97C2"/>
<path d="M269.721 224.704L270.222 224.414L269.617 224.167L269.115 224.457L269.721 224.704Z" fill="#031A30"/>
<path d="M269.422 220.89L270.565 220.23L272.044 221.085L270.902 221.745L269.422 220.89Z" fill="#657A94"/>
<path fill-rule="evenodd" clip-rule="evenodd" d="M272.046 221.078L270.903 221.737V223.446L271.264 223.238L271.765 222.948L272.046 222.786V221.078Z" fill="#7D97C2"/>
<path d="M271.869 223.485L272.371 223.196L271.765 222.948L271.264 223.238L271.869 223.485Z" fill="#031A30"/>
<path d="M271.383 219.754L272.526 219.094L274.005 219.948L272.863 220.608L271.383 219.754Z" fill="#657A94"/>
<path fill-rule="evenodd" clip-rule="evenodd" d="M274.007 219.941L272.864 220.601V222.309L273.225 222.101L273.726 221.812L274.007 221.649V219.941Z" fill="#7D97C2"/>
<path d="M273.83 222.348L274.332 222.059L273.726 221.812L273.225 222.101L273.83 222.348Z" fill="#031A30"/>
<path d="M273.336 218.617L274.479 217.957L275.959 218.811L274.816 219.471L273.336 218.617Z" fill="#657A94"/>
<path fill-rule="evenodd" clip-rule="evenodd" d="M275.96 218.804L274.817 219.464V221.173L275.178 220.964L275.679 220.675L275.96 220.513V218.804Z" fill="#7D97C2"/>
<path d="M275.783 221.212L276.285 220.922L275.679 220.675L275.178 220.964L275.783 221.212Z" fill="#031A30"/>
<path d="M275.297 217.48L276.44 216.82L277.919 217.675L276.777 218.334L275.297 217.48Z" fill="#657A94"/>
<path fill-rule="evenodd" clip-rule="evenodd" d="M277.921 217.667L276.778 218.327V220.036L277.139 219.828L277.64 219.538L277.921 219.376V217.667Z" fill="#7D97C2"/>
<path d="M277.744 220.075L278.246 219.785L277.64 219.538L277.139 219.828L277.744 220.075Z" fill="#031A30"/>
<path d="M277.258 216.34L278.401 215.68L279.88 216.534L278.738 217.194L277.258 216.34Z" fill="#657A94"/>
<path fill-rule="evenodd" clip-rule="evenodd" d="M279.882 216.527L278.739 217.187V218.895L279.1 218.687L279.601 218.398L279.882 218.235V216.527Z" fill="#7D97C2"/>
<path d="M279.705 218.934L280.207 218.645L279.601 218.398L279.1 218.687L279.705 218.934Z" fill="#031A30"/>
<path d="M279.203 215.199L280.346 214.539L281.826 215.393L280.683 216.053L279.203 215.199Z" fill="#657A94"/>
<path fill-rule="evenodd" clip-rule="evenodd" d="M281.827 215.386L280.684 216.046V217.755L281.045 217.546L281.546 217.257L281.827 217.095V215.386Z" fill="#7D97C2"/>
<path d="M281.651 217.794L282.152 217.504L281.546 217.257L281.045 217.546L281.651 217.794Z" fill="#031A30"/>
<path d="M281.172 214.062L282.315 213.402L283.794 214.257L282.652 214.916L281.172 214.062Z" fill="#657A94"/>
<path fill-rule="evenodd" clip-rule="evenodd" d="M283.796 214.249L282.653 214.909V216.618L283.014 216.41L283.515 216.12L283.796 215.958V214.249Z" fill="#7D97C2"/>
<path d="M283.619 216.657L284.121 216.367L283.515 216.12L283.014 216.41L283.619 216.657Z" fill="#031A30"/>
<path d="M283.133 212.925L284.276 212.266L285.755 213.12L284.613 213.78L283.133 212.925Z" fill="#657A94"/>
<path fill-rule="evenodd" clip-rule="evenodd" d="M285.757 213.113L284.614 213.773V215.481L284.975 215.273L285.476 214.984L285.757 214.821V213.113Z" fill="#7D97C2"/>
<path d="M285.58 215.52L286.082 215.231L285.476 214.984L284.975 215.273L285.58 215.52Z" fill="#031A30"/>
<path d="M285.086 211.789L286.229 211.129L287.709 211.983L286.566 212.643L285.086 211.789Z" fill="#657A94"/>
<path fill-rule="evenodd" clip-rule="evenodd" d="M287.71 211.976L286.567 212.636V214.344L286.928 214.136L287.429 213.847L287.71 213.685V211.976Z" fill="#7D97C2"/>
<path d="M287.533 214.383L288.035 214.094L287.429 213.847L286.928 214.136L287.533 214.383Z" fill="#031A30"/>
<path d="M259.617 223.297L258.474 222.637L256.995 223.491L258.137 224.151L259.617 223.297Z" fill="#657A94"/>
<path fill-rule="evenodd" clip-rule="evenodd" d="M256.993 223.484L258.136 224.144V225.852L257.775 225.644L257.274 225.355L256.993 225.192V223.484Z" fill="#7D97C2"/>
<path d="M257.17 225.891L256.668 225.602L257.274 225.355L257.775 225.644L257.17 225.891Z" fill="#031A30"/>
<path d="M257.531 222.109L256.388 221.449L254.909 222.304L256.052 222.963L257.531 222.109Z" fill="#657A94"/>
<path fill-rule="evenodd" clip-rule="evenodd" d="M254.907 222.296L256.05 222.956V224.665L255.689 224.457L255.188 224.167L254.907 224.005V222.296Z" fill="#7D97C2"/>
<path d="M255.084 224.704L254.583 224.414L255.188 224.167L255.689 224.457L255.084 224.704Z" fill="#031A30"/>
<path d="M255.383 220.89L254.24 220.23L252.76 221.085L253.903 221.745L255.383 220.89Z" fill="#657A94"/>
<path fill-rule="evenodd" clip-rule="evenodd" d="M252.759 221.078L253.902 221.737V223.446L253.541 223.238L253.04 222.948L252.759 222.786V221.078Z" fill="#7D97C2"/>
<path d="M252.935 223.485L252.434 223.196L253.04 222.948L253.541 223.238L252.935 223.485Z" fill="#031A30"/>
<path d="M253.422 219.754L252.279 219.094L250.799 219.948L251.942 220.608L253.422 219.754Z" fill="#657A94"/>
<path fill-rule="evenodd" clip-rule="evenodd" d="M250.798 219.941L251.941 220.601V222.309L251.58 222.101L251.079 221.812L250.798 221.649V219.941Z" fill="#7D97C2"/>
<path d="M250.974 222.348L250.473 222.059L251.079 221.812L251.58 222.101L250.974 222.348Z" fill="#031A30"/>
<path d="M251.469 218.617L250.326 217.957L248.846 218.811L249.989 219.471L251.469 218.617Z" fill="#657A94"/>
<path fill-rule="evenodd" clip-rule="evenodd" d="M248.845 218.804L249.988 219.464V221.173L249.627 220.964L249.126 220.675L248.845 220.513V218.804Z" fill="#7D97C2"/>
<path d="M249.021 221.212L248.52 220.922L249.126 220.675L249.627 220.964L249.021 221.212Z" fill="#031A30"/>
<path d="M249.508 217.48L248.365 216.82L246.885 217.675L248.028 218.334L249.508 217.48Z" fill="#657A94"/>
<path fill-rule="evenodd" clip-rule="evenodd" d="M246.884 217.667L248.027 218.327V220.036L247.666 219.828L247.165 219.538L246.884 219.376V217.667Z" fill="#7D97C2"/>
<path d="M247.06 220.075L246.559 219.785L247.165 219.538L247.666 219.828L247.06 220.075Z" fill="#031A30"/>
<path d="M247.547 216.34L246.404 215.68L244.924 216.534L246.067 217.194L247.547 216.34Z" fill="#657A94"/>
<path fill-rule="evenodd" clip-rule="evenodd" d="M244.923 216.527L246.066 217.187V218.895L245.705 218.687L245.204 218.398L244.923 218.235V216.527Z" fill="#7D97C2"/>
<path d="M245.099 218.934L244.598 218.645L245.204 218.398L245.705 218.687L245.099 218.934Z" fill="#031A30"/>
<path d="M245.602 215.199L244.459 214.539L242.979 215.393L244.122 216.053L245.602 215.199Z" fill="#657A94"/>
<path fill-rule="evenodd" clip-rule="evenodd" d="M242.977 215.386L244.12 216.046V217.755L243.76 217.546L243.258 217.257L242.977 217.095V215.386Z" fill="#7D97C2"/>
<path d="M243.154 217.794L242.653 217.504L243.258 217.257L243.76 217.546L243.154 217.794Z" fill="#031A30"/>
<path d="M243.633 214.062L242.49 213.402L241.01 214.257L242.153 214.916L243.633 214.062Z" fill="#657A94"/>
<path fill-rule="evenodd" clip-rule="evenodd" d="M241.009 214.249L242.152 214.909V216.618L241.791 216.41L241.29 216.12L241.009 215.958V214.249Z" fill="#7D97C2"/>
<path d="M241.185 216.657L240.684 216.367L241.29 216.12L241.791 216.41L241.185 216.657Z" fill="#031A30"/>
<path d="M241.672 212.925L240.529 212.266L239.049 213.12L240.192 213.78L241.672 212.925Z" fill="#657A94"/>
<path fill-rule="evenodd" clip-rule="evenodd" d="M239.048 213.113L240.191 213.773V215.481L239.83 215.273L239.329 214.984L239.048 214.821V213.113Z" fill="#7D97C2"/>
<path d="M239.224 215.52L238.723 215.231L239.329 214.984L239.83 215.273L239.224 215.52Z" fill="#031A30"/>
<path d="M239.719 211.789L238.576 211.129L237.096 211.983L238.239 212.643L239.719 211.789Z" fill="#657A94"/>
<path fill-rule="evenodd" clip-rule="evenodd" d="M237.095 211.976L238.238 212.636V214.344L237.877 214.136L237.376 213.847L237.095 213.685V211.976Z" fill="#7D97C2"/>
<path d="M237.271 214.383L236.77 214.094L237.376 213.847L237.877 214.136L237.271 214.383Z" fill="#031A30"/>
<rect width="32.4261" height="32.4261" transform="matrix(0.866025 0.5 -0.866025 0.5 226.578 214.387)" fill="#BECFE9"/>
<rect width="32.4261" height="32.4261" transform="matrix(0.866025 0.5 -0.866025 0.5 226.578 214.387)" fill="url(#paint6_linear_3059_8088)"/>
<path d="M254.656 232.32L254.656 230.598L226.574 246.811L226.635 248.533L254.656 232.32Z" fill="#CBDBF5"/>
<path d="M198.492 232.324L198.492 230.602L226.573 246.814L226.633 248.537L198.492 232.324Z" fill="#E4F0FF"/>
<circle cx="0.863947" cy="0.863947" r="0.863947" transform="matrix(0.866025 0.5 -0.866025 0.5 226.578 243.66)" fill="#0C0C0C"/>
<circle cx="0.863947" cy="0.863947" r="0.863947" transform="matrix(0.866025 0.5 -0.866025 0.5 226.578 243.66)" fill="url(#paint7_linear_3059_8088)"/>
<circle cx="0.863947" cy="0.863947" r="0.863947" transform="matrix(0.866025 0.5 -0.866025 0.5 251.273 229.652)" fill="#0C0C0C"/>
<circle cx="0.863947" cy="0.863947" r="0.863947" transform="matrix(0.866025 0.5 -0.866025 0.5 251.273 229.652)" fill="url(#paint8_linear_3059_8088)"/>
<circle cx="0.863947" cy="0.863947" r="0.863947" transform="matrix(0.866025 0.5 -0.866025 0.5 201.969 229.59)" fill="#0C0C0C"/>
<circle cx="0.863947" cy="0.863947" r="0.863947" transform="matrix(0.866025 0.5 -0.866025 0.5 201.969 229.59)" fill="url(#paint9_linear_3059_8088)"/>
<path d="M224.824 217.194H228.38L248.235 228.658L248.235 230.651L228.369 242.12H224.834L205.155 230.759L205.155 228.55L224.824 217.194Z" fill="white"/>
<path d="M224.824 217.194H228.38L248.235 228.658L248.235 230.651L228.369 242.12H224.834L205.155 230.759L205.155 228.55L224.824 217.194Z" fill="url(#paint10_linear_3059_8088)"/>
<path d="M228.359 243.091V242.125L248.219 230.645V231.542L228.359 243.091Z" fill="#7D97C2"/>
<path d="M228.362 243.091V242.125L224.828 242.121V243.019L228.362 243.091Z" fill="#CBDBF5"/>
<path d="M205.148 231.724V230.758L224.828 242.119V243.017L205.148 231.724Z" fill="#E4F0FF"/>
<circle cx="0.863947" cy="0.863947" r="0.863947" transform="matrix(0.866025 0.5 -0.866025 0.5 226.578 215.297)" fill="#0C0C0C"/>
<circle cx="0.863947" cy="0.863947" r="0.863947" transform="matrix(0.866025 0.5 -0.866025 0.5 226.578 215.297)" fill="url(#paint11_linear_3059_8088)"/>
<path d="M229.367 245.683L230.51 245.023L231.99 245.878L230.847 246.538L229.367 245.683Z" fill="#657A94"/>
<path fill-rule="evenodd" clip-rule="evenodd" d="M231.991 245.871L230.848 246.53V248.239L231.209 248.031L231.71 247.741L231.991 247.579V245.871Z" fill="#7D97C2"/>
<path d="M231.815 248.278L232.316 247.989L231.71 247.741L231.209 248.031L231.815 248.278Z" fill="#031A30"/>
<path d="M231.453 244.496L232.596 243.836L234.076 244.69L232.933 245.35L231.453 244.496Z" fill="#657A94"/>
<path fill-rule="evenodd" clip-rule="evenodd" d="M234.077 244.683L232.934 245.343V247.052L233.295 246.843L233.796 246.554L234.077 246.392V244.683Z" fill="#7D97C2"/>
<path d="M233.901 247.09L234.402 246.801L233.796 246.554L233.295 246.843L233.901 247.09Z" fill="#031A30"/>
<path d="M233.602 243.277L234.744 242.617L236.224 243.472L235.081 244.131L233.602 243.277Z" fill="#657A94"/>
<path fill-rule="evenodd" clip-rule="evenodd" d="M236.226 243.464L235.083 244.124V245.833L235.443 245.625L235.945 245.335L236.226 245.173V243.464Z" fill="#7D97C2"/>
<path d="M236.049 245.872L236.55 245.582L235.945 245.335L235.443 245.625L236.049 245.872Z" fill="#031A30"/>
<path d="M235.562 242.14L236.705 241.48L238.185 242.335L237.042 242.995L235.562 242.14Z" fill="#657A94"/>
<path fill-rule="evenodd" clip-rule="evenodd" d="M238.187 242.328L237.044 242.987V244.696L237.404 244.488L237.906 244.198L238.187 244.036V242.328Z" fill="#7D97C2"/>
<path d="M238.01 244.735L238.511 244.446L237.906 244.198L237.404 244.488L238.01 244.735Z" fill="#031A30"/>
<path d="M237.516 241.004L238.658 240.344L240.138 241.198L238.995 241.858L237.516 241.004Z" fill="#657A94"/>
<path fill-rule="evenodd" clip-rule="evenodd" d="M240.14 241.191L238.997 241.851V243.559L239.357 243.351L239.859 243.062L240.14 242.899V241.191Z" fill="#7D97C2"/>
<path d="M239.963 243.598L240.464 243.309L239.859 243.062L239.357 243.351L239.963 243.598Z" fill="#031A30"/>
<path d="M239.477 239.867L240.619 239.207L242.099 240.061L240.956 240.721L239.477 239.867Z" fill="#657A94"/>
<path fill-rule="evenodd" clip-rule="evenodd" d="M242.101 240.054L240.958 240.714V242.423L241.318 242.214L241.82 241.925L242.101 241.763V240.054Z" fill="#7D97C2"/>
<path d="M241.924 242.462L242.425 242.172L241.82 241.925L241.318 242.214L241.924 242.462Z" fill="#031A30"/>
<path d="M241.438 238.726L242.58 238.066L244.06 238.921L242.917 239.581L241.438 238.726Z" fill="#657A94"/>
<path fill-rule="evenodd" clip-rule="evenodd" d="M244.062 238.914L242.919 239.573V241.282L243.279 241.074L243.781 240.784L244.062 240.622V238.914Z" fill="#7D97C2"/>
<path d="M243.885 241.321L244.386 241.032L243.781 240.784L243.279 241.074L243.885 241.321Z" fill="#031A30"/>
<path d="M243.383 237.586L244.526 236.926L246.005 237.78L244.863 238.44L243.383 237.586Z" fill="#657A94"/>
<path fill-rule="evenodd" clip-rule="evenodd" d="M246.007 237.773L244.864 238.433V240.141L245.225 239.933L245.726 239.644L246.007 239.482V237.773Z" fill="#7D97C2"/>
<path d="M245.83 240.18L246.332 239.891L245.726 239.644L245.225 239.933L245.83 240.18Z" fill="#031A30"/>
<path d="M245.352 236.449L246.494 235.789L247.974 236.643L246.831 237.303L245.352 236.449Z" fill="#657A94"/>
<path fill-rule="evenodd" clip-rule="evenodd" d="M247.976 236.636L246.833 237.296V239.005L247.193 238.796L247.695 238.507L247.976 238.345V236.636Z" fill="#7D97C2"/>
<path d="M247.799 239.044L248.3 238.754L247.695 238.507L247.193 238.796L247.799 239.044Z" fill="#031A30"/>
<path d="M247.312 235.312L248.455 234.652L249.935 235.507L248.792 236.166L247.312 235.312Z" fill="#657A94"/>
<path fill-rule="evenodd" clip-rule="evenodd" d="M249.937 235.499L248.794 236.159V237.868L249.154 237.66L249.656 237.37L249.937 237.208V235.499Z" fill="#7D97C2"/>
<path d="M249.76 237.907L250.261 237.617L249.656 237.37L249.154 237.66L249.76 237.907Z" fill="#031A30"/>
<path d="M249.266 234.175L250.408 233.516L251.888 234.37L250.745 235.03L249.266 234.175Z" fill="#657A94"/>
<path fill-rule="evenodd" clip-rule="evenodd" d="M251.89 234.363L250.747 235.023V236.731L251.107 236.523L251.609 236.234L251.89 236.071V234.363Z" fill="#7D97C2"/>
<path d="M251.713 236.77L252.214 236.481L251.609 236.234L251.107 236.523L251.713 236.77Z" fill="#031A30"/>
<path d="M223.797 245.683L222.654 245.023L221.174 245.878L222.317 246.538L223.797 245.683Z" fill="#657A94"/>
<path fill-rule="evenodd" clip-rule="evenodd" d="M221.173 245.871L222.316 246.53V248.239L221.955 248.031L221.454 247.741L221.173 247.579V245.871Z" fill="#7D97C2"/>
<path d="M221.349 248.278L220.848 247.989L221.454 247.741L221.955 248.031L221.349 248.278Z" fill="#031A30"/>
<path d="M221.711 244.496L220.568 243.836L219.088 244.69L220.231 245.35L221.711 244.496Z" fill="#657A94"/>
<path fill-rule="evenodd" clip-rule="evenodd" d="M219.087 244.683L220.23 245.343V247.052L219.869 246.843L219.368 246.554L219.087 246.392V244.683Z" fill="#7D97C2"/>
<path d="M219.264 247.09L218.762 246.801L219.368 246.554L219.869 246.843L219.264 247.09Z" fill="#031A30"/>
<path d="M219.562 243.277L218.42 242.617L216.94 243.472L218.083 244.131L219.562 243.277Z" fill="#657A94"/>
<path fill-rule="evenodd" clip-rule="evenodd" d="M216.938 243.464L218.081 244.124V245.833L217.721 245.625L217.219 245.335L216.938 245.173V243.464Z" fill="#7D97C2"/>
<path d="M217.115 245.872L216.614 245.582L217.219 245.335L217.721 245.625L217.115 245.872Z" fill="#031A30"/>
<path d="M217.602 242.14L216.459 241.48L214.979 242.335L216.122 242.995L217.602 242.14Z" fill="#657A94"/>
<path fill-rule="evenodd" clip-rule="evenodd" d="M214.977 242.328L216.12 242.987V244.696L215.76 244.488L215.258 244.198L214.977 244.036V242.328Z" fill="#7D97C2"/>
<path d="M215.154 244.735L214.653 244.446L215.258 244.198L215.76 244.488L215.154 244.735Z" fill="#031A30"/>
<path d="M215.648 241.004L214.506 240.344L213.026 241.198L214.169 241.858L215.648 241.004Z" fill="#657A94"/>
<path fill-rule="evenodd" clip-rule="evenodd" d="M213.024 241.191L214.167 241.851V243.559L213.807 243.351L213.305 243.062L213.024 242.899V241.191Z" fill="#7D97C2"/>
<path d="M213.201 243.598L212.7 243.309L213.305 243.062L213.807 243.351L213.201 243.598Z" fill="#031A30"/>
<path d="M213.688 239.867L212.545 239.207L211.065 240.061L212.208 240.721L213.688 239.867Z" fill="#657A94"/>
<path fill-rule="evenodd" clip-rule="evenodd" d="M211.063 240.054L212.206 240.714V242.423L211.846 242.214L211.344 241.925L211.063 241.763V240.054Z" fill="#7D97C2"/>
<path d="M211.24 242.462L210.739 242.172L211.344 241.925L211.846 242.214L211.24 242.462Z" fill="#031A30"/>
<path d="M211.727 238.726L210.584 238.066L209.104 238.921L210.247 239.581L211.727 238.726Z" fill="#657A94"/>
<path fill-rule="evenodd" clip-rule="evenodd" d="M209.102 238.914L210.245 239.573V241.282L209.885 241.074L209.383 240.784L209.102 240.622V238.914Z" fill="#7D97C2"/>
<path d="M209.279 241.321L208.778 241.032L209.383 240.784L209.885 241.074L209.279 241.321Z" fill="#031A30"/>
<path d="M209.781 237.586L208.638 236.926L207.159 237.78L208.302 238.44L209.781 237.586Z" fill="#657A94"/>
<path fill-rule="evenodd" clip-rule="evenodd" d="M207.157 237.773L208.3 238.433V240.141L207.939 239.933L207.438 239.644L207.157 239.482V237.773Z" fill="#7D97C2"/>
<path d="M207.334 240.18L206.833 239.891L207.438 239.644L207.939 239.933L207.334 240.18Z" fill="#031A30"/>
<path d="M207.812 236.449L206.67 235.789L205.19 236.643L206.333 237.303L207.812 236.449Z" fill="#657A94"/>
<path fill-rule="evenodd" clip-rule="evenodd" d="M205.188 236.636L206.331 237.296V239.005L205.971 238.796L205.469 238.507L205.188 238.345V236.636Z" fill="#7D97C2"/>
<path d="M205.365 239.044L204.864 238.754L205.469 238.507L205.971 238.796L205.365 239.044Z" fill="#031A30"/>
<path d="M205.852 235.312L204.709 234.652L203.229 235.507L204.372 236.166L205.852 235.312Z" fill="#657A94"/>
<path fill-rule="evenodd" clip-rule="evenodd" d="M203.227 235.499L204.37 236.159V237.868L204.01 237.66L203.508 237.37L203.227 237.208V235.499Z" fill="#7D97C2"/>
<path d="M203.404 237.907L202.903 237.617L203.508 237.37L204.01 237.66L203.404 237.907Z" fill="#031A30"/>
<path d="M203.898 234.175L202.756 233.516L201.276 234.37L202.419 235.03L203.898 234.175Z" fill="#657A94"/>
<path fill-rule="evenodd" clip-rule="evenodd" d="M201.274 234.363L202.417 235.023V236.731L202.057 236.523L201.555 236.234L201.274 236.071V234.363Z" fill="#7D97C2"/>
<path d="M201.451 236.77L200.95 236.481L201.555 236.234L202.057 236.523L201.451 236.77Z" fill="#031A30"/>
<path fill-rule="evenodd" clip-rule="evenodd" d="M257.996 165.039C257.996 166.207 257.225 167.375 255.681 168.266L155.085 226.345C151.999 228.127 146.994 228.127 143.908 226.345L43.3112 168.266C41.8296 167.41 41.0592 166.3 41 165.179V186.69C41.0592 187.811 41.8296 188.921 43.3112 189.777L143.908 247.856C146.994 249.638 151.999 249.638 155.085 247.856L255.681 189.777C257.225 188.886 257.996 187.718 257.996 186.55V165.039Z" fill="#7D97C2"/>
<path fill-rule="evenodd" clip-rule="evenodd" d="M41.0037 165.181C40.9395 163.967 41.7099 162.741 43.3149 161.814L143.911 103.735C146.998 101.953 152.002 101.953 155.089 103.735L255.685 161.814C257.228 162.705 258 163.873 258 165.041V186.552C258 185.384 257.228 184.216 255.685 183.325L155.089 125.246C152.002 123.464 146.998 123.464 143.911 125.246L43.3149 183.325C41.7099 184.252 40.9395 185.478 41.0037 186.692V165.181Z" fill="#7D97C2"/>
<path d="M143.911 103.735C146.998 101.953 152.002 101.953 155.089 103.735L255.685 161.814C258.772 163.596 258.772 166.486 255.685 168.268L155.089 226.347C152.002 228.129 146.998 228.129 143.911 226.347L43.3149 168.268C40.2283 166.486 40.2284 163.596 43.3149 161.814L143.911 103.735Z" fill="#F0F0F0"/>
<path d="M145.027 117.393C147.439 116.004 151.349 116.004 153.761 117.393L232.369 162.668C234.781 164.057 234.781 166.309 232.369 167.698L153.761 212.973C151.349 214.362 147.438 214.362 145.027 212.973L66.4183 167.698C64.0064 166.309 64.0064 164.057 66.4183 162.668L145.027 117.393Z" fill="#031A30"/>
<path fill-rule="evenodd" clip-rule="evenodd" d="M125.039 80.467L161.473 101.502V180.768C161.473 181.344 161.28 181.716 160.982 181.894L166.933 178.458C167.231 178.281 167.424 177.908 167.424 177.333V98.0664L130.99 77.0312L125.039 80.467Z" fill="#6FB3F6"/>
<path fill-rule="evenodd" clip-rule="evenodd" d="M160.991 181.892C160.357 182.27 159.247 181.768 158.498 180.471L143.266 154.088L149.217 150.652L164.449 177.035C165.198 178.332 166.308 178.834 166.942 178.456L160.991 181.892Z" fill="#6FB3F6"/>
<path fill-rule="evenodd" clip-rule="evenodd" d="M143.255 154.088L128.023 162.882L133.974 159.447L149.206 150.652L143.255 154.088Z" fill="#6FB3F6"/>
<path fill-rule="evenodd" clip-rule="evenodd" d="M128.024 162.884C126.923 163.52 125.039 161.532 125.039 159.733V80.467L130.99 77.0312V156.297C130.99 158.096 132.873 160.085 133.975 159.449L128.024 162.884Z" fill="#6FB3F6"/>
<path d="M125.039 80.4688L161.473 101.504V180.77C161.473 182.569 159.59 182.382 158.488 180.475L143.256 154.092L128.024 162.886C126.923 163.522 125.039 161.534 125.039 159.735V80.4688Z" fill="#08F7DB"/>
<path d="M125.039 80.4688L161.473 101.504V180.77C161.473 182.569 159.59 182.382 158.488 180.475L143.256 154.092L128.024 162.886C126.923 163.522 125.039 161.534 125.039 159.735V80.4688Z" fill="white"/>
<path fill-rule="evenodd" clip-rule="evenodd" d="M138.969 65.3052C139.34 64.718 139.786 64.2702 140.289 63.9514L146.24 60.5156C145.737 60.8344 145.291 61.2822 144.92 61.8695L138.969 65.3052Z" fill="#0E4071"/>
<path fill-rule="evenodd" clip-rule="evenodd" d="M140.273 63.9459C143.963 61.6082 150.713 66.2107 153.436 73.6618C155.283 78.7157 159.312 82.9683 163.06 83.8209C169.339 85.2487 175.204 95.4073 173.301 101.559C172.165 105.231 173.834 110.846 177.287 114.973C182.263 120.918 182.959 128.834 179.377 131.083L185.328 127.647C188.91 125.399 188.214 117.483 183.238 111.537C179.785 107.411 178.116 101.796 179.252 98.1234C181.155 91.9716 175.29 81.813 169.011 80.3852C165.263 79.5325 161.234 75.28 159.387 70.226C156.664 62.775 149.914 58.1725 146.224 60.5102L140.273 63.9459Z" fill="#0E4071"/>
<path fill-rule="evenodd" clip-rule="evenodd" d="M179.387 131.088C178.803 131.454 178.107 131.67 177.297 131.702L183.248 128.267C184.058 128.234 184.754 128.018 185.337 127.652L179.387 131.088Z" fill="#0E4071"/>
<path fill-rule="evenodd" clip-rule="evenodd" d="M177.297 131.697L183.248 128.262L177.297 131.697Z" fill="#0E4071"/>
<path fill-rule="evenodd" clip-rule="evenodd" d="M177.287 131.697C176.597 131.725 175.977 131.895 175.438 132.189L181.388 128.753C181.928 128.459 182.547 128.29 183.238 128.262L177.287 131.697Z" fill="#0E4071"/>
<path fill-rule="evenodd" clip-rule="evenodd" d="M175.455 132.194C173.296 133.368 172.41 136.526 173.318 140.513C174.269 144.688 173.279 147.621 171.266 148.784L177.217 145.348C179.23 144.186 180.22 141.252 179.269 137.077C178.36 133.091 179.247 129.933 181.406 128.758L175.455 132.194Z" fill="#0E4071"/>
<path fill-rule="evenodd" clip-rule="evenodd" d="M171.259 148.782C169.246 149.944 166.21 149.335 163.07 146.424L169.021 142.988C172.161 145.9 175.197 146.509 177.21 145.346L171.259 148.782Z" fill="#0E4071"/>
<path fill-rule="evenodd" clip-rule="evenodd" d="M163.07 146.424L169.021 142.988L163.07 146.424Z" fill="#0E4071"/>
<path fill-rule="evenodd" clip-rule="evenodd" d="M163.059 146.416C160.136 143.705 157.042 142.866 154.945 144.014L160.896 140.579C162.993 139.43 166.087 140.269 169.01 142.98L163.059 146.416Z" fill="#0E4071"/>
<path fill-rule="evenodd" clip-rule="evenodd" d="M154.963 144.022C154.372 144.346 153.86 144.827 153.454 145.47C153.082 146.057 152.636 146.505 152.133 146.824L158.084 143.388C158.587 143.069 159.033 142.622 159.404 142.034C159.811 141.392 160.323 140.91 160.914 140.586L154.963 144.022Z" fill="#0E4071"/>
<path fill-rule="evenodd" clip-rule="evenodd" d="M152.131 146.823C148.442 149.161 141.692 144.559 138.969 137.108L144.92 133.672C147.643 141.123 154.393 145.725 158.082 143.388L152.131 146.823Z" fill="#0E4071"/>
<path fill-rule="evenodd" clip-rule="evenodd" d="M138.969 137.108L144.92 133.672L138.969 137.108Z" fill="#0E4071"/>
<path fill-rule="evenodd" clip-rule="evenodd" d="M138.959 137.107C137.112 132.053 133.084 127.8 129.336 126.947L135.287 123.512C139.035 124.365 143.063 128.617 144.91 133.671L138.959 137.107Z" fill="#0E4071"/>
<path fill-rule="evenodd" clip-rule="evenodd" d="M129.336 126.947L135.287 123.512L129.336 126.947Z" fill="#0E4071"/>
<path fill-rule="evenodd" clip-rule="evenodd" d="M129.34 126.951C123.061 125.523 117.196 115.365 119.099 109.213L125.05 105.777C123.147 111.929 129.012 122.088 135.291 123.515L129.34 126.951Z" fill="#0E4071"/>
<path fill-rule="evenodd" clip-rule="evenodd" d="M119.094 109.213L125.045 105.777L119.094 109.213Z" fill="#0E4071"/>
<path fill-rule="evenodd" clip-rule="evenodd" d="M119.103 109.213C120.239 105.541 118.57 99.9256 115.117 95.799L121.068 92.3633C124.521 96.4899 126.19 102.105 125.054 105.777L119.103 109.213Z" fill="#0E4071"/>
<path fill-rule="evenodd" clip-rule="evenodd" d="M115.117 95.799L121.068 92.3633L115.117 95.799Z" fill="#0E4071"/>
<path fill-rule="evenodd" clip-rule="evenodd" d="M115.113 95.7993C110.137 89.8537 109.44 81.9378 113.023 79.6897L118.974 76.2539C115.391 78.502 116.088 86.4179 121.063 92.3635L115.113 95.7993Z" fill="#0E4071"/>
<path fill-rule="evenodd" clip-rule="evenodd" d="M113.023 79.6899C113.607 79.3239 114.303 79.1081 115.113 79.0755C115.804 79.0477 116.423 78.8779 116.963 78.5842L122.914 75.1484C122.374 75.4422 121.755 75.6119 121.064 75.6397C120.254 75.6724 119.558 75.8881 118.974 76.2541L113.023 79.6899Z" fill="#0E4071"/>
<path fill-rule="evenodd" clip-rule="evenodd" d="M116.969 78.5794C119.128 77.4045 120.014 74.2467 119.105 70.26L125.056 66.8242C125.965 70.811 125.079 73.9688 122.92 75.1436L116.969 78.5794Z" fill="#0E4071"/>
<path fill-rule="evenodd" clip-rule="evenodd" d="M119.094 70.26L125.045 66.8242L119.094 70.26Z" fill="#0E4071"/>
<path fill-rule="evenodd" clip-rule="evenodd" d="M119.099 70.2612C118.147 66.0866 119.138 63.1528 121.151 61.9904L127.102 58.5547C125.089 59.7171 124.098 62.6509 125.05 66.8255L119.099 70.2612Z" fill="#0E4071"/>
<path fill-rule="evenodd" clip-rule="evenodd" d="M121.156 61.9903C123.17 60.8279 126.206 61.437 129.345 64.3483C132.269 67.059 135.363 67.8981 137.459 66.7499L143.41 63.3142C141.313 64.4624 138.219 63.6232 135.296 60.9125C132.156 58.0013 129.12 57.3922 127.107 58.5546L121.156 61.9903Z" fill="#0E4071"/>
<path fill-rule="evenodd" clip-rule="evenodd" d="M137.453 66.7553C138.044 66.4314 138.556 65.9495 138.963 65.3068L144.914 61.8711C144.507 62.5137 143.995 62.9957 143.404 63.3195L137.453 66.7553Z" fill="#0E4071"/>
<path fill-rule="evenodd" clip-rule="evenodd" d="M138.969 65.3068L144.92 61.8711L138.969 65.3068Z" fill="#0E4071"/>
<path d="M138.963 65.3032C142.058 60.4094 150.352 65.1981 153.447 73.6652C155.294 78.7192 159.322 82.9717 163.071 83.8243C169.349 85.2522 175.215 95.4108 173.311 101.563C172.176 105.235 173.845 110.85 177.298 114.976C183.083 121.89 183.083 131.467 177.298 131.7C173.845 131.839 172.176 135.528 173.311 140.511C175.215 148.86 169.349 152.246 163.071 146.424C159.322 142.949 155.294 142.55 153.447 145.471C150.352 150.365 142.058 145.576 138.963 137.109C137.116 132.055 133.088 127.802 129.34 126.949C123.061 125.522 117.196 115.363 119.099 109.211C120.234 105.539 118.566 99.9241 115.113 95.7975C109.327 88.8841 109.327 79.3066 115.113 79.0736C118.566 78.9345 120.234 75.2463 119.099 70.2628C117.196 61.9137 123.061 58.5275 129.34 64.35C133.088 67.8253 137.116 68.2243 138.963 65.3032Z" fill="#08F7DB"/>
<path d="M138.963 65.3032C142.058 60.4094 150.352 65.1981 153.447 73.6652C155.294 78.7192 159.322 82.9717 163.071 83.8243C169.349 85.2522 175.215 95.4108 173.311 101.563C172.176 105.235 173.845 110.85 177.298 114.976C183.083 121.89 183.083 131.467 177.298 131.7C173.845 131.839 172.176 135.528 173.311 140.511C175.215 148.86 169.349 152.246 163.071 146.424C159.322 142.949 155.294 142.55 153.447 145.471C150.352 150.365 142.058 145.576 138.963 137.109C137.116 132.055 133.088 127.802 129.34 126.949C123.061 125.522 117.196 115.363 119.099 109.211C120.234 105.539 118.566 99.9241 115.113 95.7975C109.327 88.8841 109.327 79.3066 115.113 79.0736C118.566 78.9345 120.234 75.2463 119.099 70.2628C117.196 61.9137 123.061 58.5275 129.34 64.35C133.088 67.8253 137.116 68.2243 138.963 65.3032Z" fill="url(#paint12_linear_3059_8088)"/>
<path fill-rule="evenodd" clip-rule="evenodd" d="M141.589 119.493C140.906 119.944 139.654 119.221 138.971 117.981L127.13 96.4836C126.446 95.2433 126.446 93.6927 127.13 93.2413L130.105 91.5234C129.422 91.9748 129.422 93.5255 130.105 94.7657L141.946 116.263C142.629 117.503 143.882 118.226 144.565 117.775L141.589 119.493Z" fill="#6FB3F6"/>
<path fill-rule="evenodd" clip-rule="evenodd" d="M127.125 93.2448L129.744 91.6554L132.719 89.9375L130.1 91.527L127.125 93.2448Z" fill="#6FB3F6"/>
<path fill-rule="evenodd" clip-rule="evenodd" d="M129.75 91.647C129.791 91.6115 129.834 91.5805 129.878 91.5538L132.853 89.8359C132.809 89.8626 132.766 89.8936 132.725 89.9292L129.75 91.647Z" fill="#6FB3F6"/>
<path fill-rule="evenodd" clip-rule="evenodd" d="M129.875 91.5576C130.565 91.14 131.61 91.7988 132.252 93.097L140.336 107.632L143.311 105.914L135.228 91.3792C134.585 90.0809 133.541 89.4221 132.85 89.8398L129.875 91.5576Z" fill="#6FB3F6"/>
<path fill-rule="evenodd" clip-rule="evenodd" d="M140.336 107.636L157.414 96.3507L160.39 94.6328L143.311 105.918L140.336 107.636Z" fill="#6FB3F6"/>
<path fill-rule="evenodd" clip-rule="evenodd" d="M157.43 96.3463C157.471 96.3107 157.513 96.2797 157.557 96.253L160.533 94.5352C160.489 94.5618 160.446 94.5929 160.405 94.6284L157.43 96.3463Z" fill="#6FB3F6"/>
<path fill-rule="evenodd" clip-rule="evenodd" d="M157.547 96.253C158.237 95.8353 159.282 96.494 159.924 97.7924L162.543 102.406C163.226 103.646 163.226 105.196 162.543 105.648L165.518 103.93C166.201 103.479 166.201 101.928 165.518 100.688L162.899 96.0745C162.257 94.7762 161.213 94.1175 160.522 94.5351L157.547 96.253Z" fill="#6FB3F6"/>
<path fill-rule="evenodd" clip-rule="evenodd" d="M162.551 105.651L141.602 119.494L144.577 117.777L165.527 103.934L162.551 105.651Z" fill="#6FB3F6"/>
<path d="M141.589 119.493C140.906 119.944 139.654 119.221 138.971 117.981L127.13 96.4835C126.446 95.2432 126.446 93.6926 127.13 93.2412L129.748 91.6517C130.431 91.0594 131.57 91.7168 132.253 93.0979L140.337 107.633L157.415 96.3479C158.098 95.7555 159.237 96.4128 159.92 97.794L162.539 102.407C163.222 103.647 163.222 105.198 162.539 105.65L141.589 119.493Z" fill="white"/>
<rect width="27.3083" height="26.8908" rx="5.74105" transform="matrix(0.866025 0.5 -0.866025 0.5 68.3516 214.633)" fill="#7D97C2"/>
<mask id="path-113-outside-1_3059_8088" maskUnits="userSpaceOnUse" x="66.4062" y="225.828" width="5" height="4" fill="black">
<rect fill="white" x="66.4062" y="225.828" width="5" height="4"/>
<path d="M67.4069 227.855C67.407 227.82 67.4235 227.788 67.4513 227.768C68.231 227.207 69.2826 227.207 70.0622 227.768C70.0903 227.788 70.1068 227.821 70.1067 227.855L70.1063 227.932C70.1062 227.973 70.0934 228.012 70.07 228.045C69.4263 228.946 68.0865 228.947 67.4429 228.046C67.4191 228.012 67.4063 227.972 67.4065 227.932L67.4069 227.855Z"/>
</mask>
<path d="M67.4069 227.855C67.407 227.82 67.4235 227.788 67.4513 227.768C68.231 227.207 69.2826 227.207 70.0622 227.768C70.0903 227.788 70.1068 227.821 70.1067 227.855L70.1063 227.932C70.1062 227.973 70.0934 228.012 70.07 228.045C69.4263 228.946 68.0865 228.947 67.4429 228.046C67.4191 228.012 67.4063 227.972 67.4065 227.932L67.4069 227.855Z" fill="url(#paint13_linear_3059_8088)"/>
<path d="M67.4065 227.932L66.5939 227.928L67.4065 227.932ZM70.1063 227.932L70.9189 227.936L70.1063 227.932ZM70.1067 227.855L69.2941 227.852L70.1067 227.855ZM69.2941 227.852L69.2937 227.929L70.9189 227.936L70.9193 227.859L69.2941 227.852ZM68.2191 227.935L68.2195 227.858L66.5943 227.851L66.5939 227.928L68.2191 227.935ZM67.9261 228.428C68.4223 228.07 69.0916 228.07 69.5874 228.427L70.5371 227.108C69.4736 226.343 68.0396 226.343 66.9765 227.109L67.9261 228.428ZM69.4087 227.573C69.0887 228.021 68.4233 228.02 68.1041 227.574L66.7816 228.518C67.7498 229.874 69.7639 229.872 70.7312 228.517L69.4087 227.573ZM66.5939 227.928C66.593 228.14 66.6587 228.346 66.7816 228.518L68.1041 227.574C68.1795 227.679 68.2197 227.805 68.2191 227.935L66.5939 227.928ZM69.2937 227.929C69.2943 227.801 69.3345 227.677 69.4087 227.573L70.7312 228.517C70.8524 228.348 70.918 228.145 70.9189 227.936L69.2937 227.929ZM70.9193 227.859C70.9206 227.561 70.7782 227.282 70.5371 227.108L69.5874 228.427C69.4024 228.294 69.2931 228.08 69.2941 227.852L70.9193 227.859ZM68.2195 227.858C68.2185 228.084 68.1093 228.296 67.9261 228.428L66.9765 227.109C66.7378 227.281 66.5955 227.557 66.5943 227.851L68.2195 227.858Z" fill="#031A30" mask="url(#path-113-outside-1_3059_8088)"/>
<path d="M67.4062 205.855H70.1061V227.994C69.4445 228.92 68.0679 228.92 67.4062 227.994V205.855Z" fill="url(#paint14_linear_3059_8088)"/>
<path d="M67.4062 205.855H70.1061V227.994C69.4445 228.92 68.0679 228.92 67.4062 227.994V205.855Z" fill="url(#paint15_linear_3059_8088)"/>
<path d="M81.2219 212.823C81.2219 217.893 74.0883 221.031 69.0187 221.031C63.949 221.031 56.4375 216.921 56.4375 211.852C56.4375 206.782 63.949 174 69.0187 174C74.0883 174 81.2219 207.754 81.2219 212.823Z" fill="url(#paint16_radial_3059_8088)"/>
<rect width="27.3083" height="26.8908" rx="5.74105" transform="matrix(0.866025 0.5 -0.866025 0.5 34.2891 195.375)" fill="#7D97C2"/>
<mask id="path-118-outside-2_3059_8088" maskUnits="userSpaceOnUse" x="32.5938" y="206.855" width="5" height="4" fill="black">
<rect fill="white" x="32.5938" y="206.855" width="5" height="4"/>
<path d="M33.5943 208.714C33.5944 208.685 33.6082 208.658 33.6314 208.641C34.2833 208.172 35.1625 208.172 35.8143 208.641C35.8378 208.658 35.8516 208.685 35.8515 208.714L35.8512 208.779C35.8511 208.813 35.8404 208.845 35.8208 208.873C35.2826 209.626 34.1625 209.627 33.6244 208.874C33.6045 208.846 33.5938 208.812 33.594 208.778L33.5943 208.714Z"/>
</mask>
<path d="M33.5943 208.714C33.5944 208.685 33.6082 208.658 33.6314 208.641C34.2833 208.172 35.1625 208.172 35.8143 208.641C35.8378 208.658 35.8516 208.685 35.8515 208.714L35.8512 208.779C35.8511 208.813 35.8404 208.845 35.8208 208.873C35.2826 209.626 34.1625 209.627 33.6244 208.874C33.6045 208.846 33.5938 208.812 33.594 208.778L33.5943 208.714Z" fill="url(#paint17_linear_3059_8088)"/>
<path d="M35.8512 208.779L35.0386 208.775L35.8512 208.779ZM35.8515 208.714L36.6641 208.718L35.8515 208.714ZM35.0389 208.711L35.0386 208.775L36.6638 208.782L36.6641 208.718L35.0389 208.711ZM34.4066 208.781L34.4069 208.717L32.7817 208.71L32.7814 208.774L34.4066 208.781ZM34.1062 209.301C34.4746 209.036 34.9715 209.036 35.3395 209.301L36.2891 207.982C35.3535 207.308 34.0919 207.309 33.1566 207.982L34.1062 209.301ZM35.1595 208.401C34.9451 208.701 34.4993 208.7 34.2856 208.401L32.9631 209.346C33.8257 210.554 35.6202 210.552 36.482 209.345L35.1595 208.401ZM32.7814 208.774C32.7805 208.979 32.8441 209.179 32.9631 209.346L34.2856 208.401C34.3648 208.512 34.4072 208.645 34.4066 208.781L32.7814 208.774ZM35.0386 208.775C35.0392 208.641 35.0815 208.51 35.1595 208.401L36.482 209.345C36.5993 209.181 36.6629 208.984 36.6638 208.782L35.0386 208.775ZM36.6641 208.718C36.6653 208.426 36.5257 208.152 36.2891 207.982L35.3395 209.301C35.1499 209.164 35.0379 208.944 35.0389 208.711L36.6641 208.718ZM34.4069 208.717C34.4058 208.949 34.294 209.166 34.1062 209.301L33.1566 207.982C32.9224 208.151 32.7829 208.421 32.7817 208.71L34.4069 208.717Z" fill="#031A30" mask="url(#path-118-outside-2_3059_8088)"/>
<path d="M33.5938 190.32H35.851V208.83C35.2978 209.604 34.1469 209.604 33.5938 208.83V190.32Z" fill="url(#paint18_linear_3059_8088)"/>
<path d="M33.5938 190.32H35.851V208.83C35.2978 209.604 34.1469 209.604 33.5938 208.83V190.32Z" fill="url(#paint19_linear_3059_8088)"/>
<circle cx="34.9402" cy="191.675" r="7.67458" fill="url(#paint20_radial_3059_8088)"/>
<defs>
<linearGradient id="paint0_linear_3059_8088" x1="-37.046" y1="7.61191" x2="48.4072" y2="-32.8331" gradientUnits="userSpaceOnUse">
<stop offset="0.0469908" stop-color="#0E4071"/>
<stop offset="0.140821" stop-color="#0E4071"/>
<stop offset="0.412734" stop-color="#031A30"/>
</linearGradient>
<linearGradient id="paint1_linear_3059_8088" x1="-0.000930614" y1="0.0810461" x2="-0.180826" y2="1.26391" gradientUnits="userSpaceOnUse">
<stop stop-color="#08F7DB"/>
<stop offset="0.887375" stop-color="#0F81F0"/>
</linearGradient>
<linearGradient id="paint2_linear_3059_8088" x1="-0.000930614" y1="0.0810461" x2="-0.180826" y2="1.26391" gradientUnits="userSpaceOnUse">
<stop stop-color="#08F7DB"/>
<stop offset="0.887375" stop-color="#0F81F0"/>
</linearGradient>
<linearGradient id="paint3_linear_3059_8088" x1="-0.000930614" y1="0.0810461" x2="-0.180826" y2="1.26391" gradientUnits="userSpaceOnUse">
<stop stop-color="#08F7DB"/>
<stop offset="0.887375" stop-color="#0F81F0"/>
</linearGradient>
<linearGradient id="paint4_linear_3059_8088" x1="274.219" y1="195.306" x2="303.594" y2="238.813" gradientUnits="userSpaceOnUse">
<stop offset="0.178892" stop-color="#0E4071"/>
<stop offset="0.192141" stop-color="#0E4071"/>
<stop offset="0.412734" stop-color="#031A30"/>
</linearGradient>
<linearGradient id="paint5_linear_3059_8088" x1="-0.000930614" y1="0.0810461" x2="-0.180826" y2="1.26391" gradientUnits="userSpaceOnUse">
<stop stop-color="#08F7DB"/>
<stop offset="0.887375" stop-color="#0F81F0"/>
</linearGradient>
<linearGradient id="paint6_linear_3059_8088" x1="-37.046" y1="7.61191" x2="48.4072" y2="-32.8331" gradientUnits="userSpaceOnUse">
<stop offset="0.0469908" stop-color="#0E4071"/>
<stop offset="0.140821" stop-color="#0E4071"/>
<stop offset="0.412734" stop-color="#031A30"/>
</linearGradient>
<linearGradient id="paint7_linear_3059_8088" x1="-0.000930614" y1="0.0810461" x2="-0.180826" y2="1.26391" gradientUnits="userSpaceOnUse">
<stop stop-color="#08F7DB"/>
<stop offset="0.887375" stop-color="#0F81F0"/>
</linearGradient>
<linearGradient id="paint8_linear_3059_8088" x1="-0.000930614" y1="0.0810461" x2="-0.180826" y2="1.26391" gradientUnits="userSpaceOnUse">
<stop stop-color="#08F7DB"/>
<stop offset="0.887375" stop-color="#0F81F0"/>
</linearGradient>
<linearGradient id="paint9_linear_3059_8088" x1="-0.000930614" y1="0.0810461" x2="-0.180826" y2="1.26391" gradientUnits="userSpaceOnUse">
<stop stop-color="#08F7DB"/>
<stop offset="0.887375" stop-color="#0F81F0"/>
</linearGradient>
<linearGradient id="paint10_linear_3059_8088" x1="238.407" y1="217.693" x2="267.781" y2="261.2" gradientUnits="userSpaceOnUse">
<stop offset="0.178892" stop-color="#0E4071"/>
<stop offset="0.192141" stop-color="#0E4071"/>
<stop offset="0.412734" stop-color="#031A30"/>
</linearGradient>
<linearGradient id="paint11_linear_3059_8088" x1="-0.000930614" y1="0.0810461" x2="-0.180826" y2="1.26391" gradientUnits="userSpaceOnUse">
<stop stop-color="#08F7DB"/>
<stop offset="0.887375" stop-color="#0F81F0"/>
</linearGradient>
<linearGradient id="paint12_linear_3059_8088" x1="123.835" y1="66.6081" x2="187.012" y2="126.23" gradientUnits="userSpaceOnUse">
<stop stop-color="#08F7DB"/>
<stop offset="1" stop-color="#0F81F0"/>
</linearGradient>
<linearGradient id="paint13_linear_3059_8088" x1="70.1061" y1="204.182" x2="57.4169" y2="223.351" gradientUnits="userSpaceOnUse">
<stop offset="0.155289" stop-color="#031A30"/>
<stop offset="0.514591" stop-color="#0F81F0"/>
<stop offset="1" stop-color="#031A30"/>
</linearGradient>
<linearGradient id="paint14_linear_3059_8088" x1="70.1061" y1="203.966" x2="57.4169" y2="223.134" gradientUnits="userSpaceOnUse">
<stop offset="0.155289" stop-color="#031A30"/>
<stop offset="0.514591" stop-color="#0F81F0"/>
<stop offset="1" stop-color="#031A30"/>
</linearGradient>
<linearGradient id="paint15_linear_3059_8088" x1="68.7562" y1="205.855" x2="55.4697" y2="245.435" gradientUnits="userSpaceOnUse">
<stop offset="0.0596716" stop-color="#6FB3F6"/>
<stop offset="0.138721" stop-color="white"/>
</linearGradient>
<radialGradient id="paint16_radial_3059_8088" cx="0" cy="0" r="1" gradientUnits="userSpaceOnUse" gradientTransform="translate(64.9689 203.752) rotate(76.8094) scale(17.7471 17.7471)">
<stop stop-color="#9FCDF9"/>
<stop offset="1" stop-color="#6FB3F6"/>
</radialGradient>
<linearGradient id="paint17_linear_3059_8088" x1="35.851" y1="188.922" x2="25.242" y2="204.948" gradientUnits="userSpaceOnUse">
<stop offset="0.155289" stop-color="#031A30"/>
<stop offset="0.514591" stop-color="#0F81F0"/>
<stop offset="1" stop-color="#031A30"/>
</linearGradient>
<linearGradient id="paint18_linear_3059_8088" x1="35.851" y1="188.74" x2="25.242" y2="204.767" gradientUnits="userSpaceOnUse">
<stop offset="0.155289" stop-color="#031A30"/>
<stop offset="0.514591" stop-color="#0F81F0"/>
<stop offset="1" stop-color="#031A30"/>
</linearGradient>
<linearGradient id="paint19_linear_3059_8088" x1="34.7224" y1="190.32" x2="23.614" y2="223.412" gradientUnits="userSpaceOnUse">
<stop offset="0.0596716" stop-color="#6FB3F6"/>
<stop offset="0.138721" stop-color="white"/>
</linearGradient>
<radialGradient id="paint20_radial_3059_8088" cx="0" cy="0" r="1" gradientUnits="userSpaceOnUse" gradientTransform="translate(31.5544 184.903) rotate(76.8094) scale(14.8377)">
<stop stop-color="#9FCDF9"/>
<stop offset="1" stop-color="#6FB3F6"/>
</radialGradient>
</defs>
</svg>
