<svg width="300" height="300" viewBox="0 0 300 300" fill="none" xmlns="http://www.w3.org/2000/svg">
<rect width="32.4261" height="32.4261" transform="matrix(0.866025 0.5 -0.866025 0.5 262.391 192)" fill="#BECFE9"/>
<rect width="32.4261" height="32.4261" transform="matrix(0.866025 0.5 -0.866025 0.5 262.391 192)" fill="url(#paint0_linear_3059_4817)"/>
<path d="M290.469 209.933L290.469 208.211L262.387 224.424L262.448 226.146L290.469 209.933Z" fill="#CBDBF5"/>
<path d="M234.305 209.937L234.305 208.215L262.385 224.428L262.446 226.15L234.305 209.937Z" fill="#E4F0FF"/>
<circle cx="0.863947" cy="0.863947" r="0.863947" transform="matrix(0.866025 0.5 -0.866025 0.5 262.391 221.273)" fill="#0C0C0C"/>
<circle cx="0.863947" cy="0.863947" r="0.863947" transform="matrix(0.866025 0.5 -0.866025 0.5 262.391 221.273)" fill="url(#paint1_linear_3059_4817)"/>
<circle cx="0.863947" cy="0.863947" r="0.863947" transform="matrix(0.866025 0.5 -0.866025 0.5 287.086 207.266)" fill="#0C0C0C"/>
<circle cx="0.863947" cy="0.863947" r="0.863947" transform="matrix(0.866025 0.5 -0.866025 0.5 287.086 207.266)" fill="url(#paint2_linear_3059_4817)"/>
<circle cx="0.863947" cy="0.863947" r="0.863947" transform="matrix(0.866025 0.5 -0.866025 0.5 237.781 207.203)" fill="#0C0C0C"/>
<circle cx="0.863947" cy="0.863947" r="0.863947" transform="matrix(0.866025 0.5 -0.866025 0.5 237.781 207.203)" fill="url(#paint3_linear_3059_4817)"/>
<path d="M260.636 194.808H264.192L284.047 206.271L284.047 208.264L264.181 219.734H260.647L240.968 208.372L240.968 206.163L260.636 194.808Z" fill="white"/>
<path d="M260.636 194.808H264.192L284.047 206.271L284.047 208.264L264.181 219.734H260.647L240.968 208.372L240.968 206.163L260.636 194.808Z" fill="url(#paint4_linear_3059_4817)"/>
<path d="M264.172 220.704V219.738L284.032 208.258V209.156L264.172 220.704Z" fill="#7D97C2"/>
<path d="M264.174 220.704V219.738L260.641 219.734V220.632L264.174 220.704Z" fill="#CBDBF5"/>
<path d="M240.961 209.337V208.371L260.64 219.732V220.63L240.961 209.337Z" fill="#E4F0FF"/>
<circle cx="0.863947" cy="0.863947" r="0.863947" transform="matrix(0.866025 0.5 -0.866025 0.5 262.391 192.91)" fill="#0C0C0C"/>
<circle cx="0.863947" cy="0.863947" r="0.863947" transform="matrix(0.866025 0.5 -0.866025 0.5 262.391 192.91)" fill="url(#paint5_linear_3059_4817)"/>
<path d="M265.188 223.297L266.33 222.637L267.81 223.491L266.667 224.151L265.188 223.297Z" fill="#657A94"/>
<path fill-rule="evenodd" clip-rule="evenodd" d="M267.812 223.484L266.669 224.144V225.852L267.029 225.644L267.531 225.355L267.812 225.192V223.484Z" fill="#7D97C2"/>
<path d="M267.635 225.891L268.136 225.602L267.531 225.355L267.029 225.644L267.635 225.891Z" fill="#031A30"/>
<path d="M267.273 222.109L268.416 221.449L269.896 222.304L268.753 222.963L267.273 222.109Z" fill="#657A94"/>
<path fill-rule="evenodd" clip-rule="evenodd" d="M269.898 222.296L268.755 222.956V224.665L269.115 224.457L269.617 224.167L269.898 224.005V222.296Z" fill="#7D97C2"/>
<path d="M269.721 224.704L270.222 224.414L269.617 224.167L269.115 224.457L269.721 224.704Z" fill="#031A30"/>
<path d="M269.422 220.89L270.565 220.23L272.044 221.085L270.902 221.745L269.422 220.89Z" fill="#657A94"/>
<path fill-rule="evenodd" clip-rule="evenodd" d="M272.046 221.078L270.903 221.737V223.446L271.264 223.238L271.765 222.948L272.046 222.786V221.078Z" fill="#7D97C2"/>
<path d="M271.869 223.485L272.371 223.196L271.765 222.948L271.264 223.238L271.869 223.485Z" fill="#031A30"/>
<path d="M271.383 219.754L272.526 219.094L274.005 219.948L272.863 220.608L271.383 219.754Z" fill="#657A94"/>
<path fill-rule="evenodd" clip-rule="evenodd" d="M274.007 219.941L272.864 220.601V222.309L273.225 222.101L273.726 221.812L274.007 221.649V219.941Z" fill="#7D97C2"/>
<path d="M273.83 222.348L274.332 222.059L273.726 221.812L273.225 222.101L273.83 222.348Z" fill="#031A30"/>
<path d="M273.336 218.617L274.479 217.957L275.959 218.811L274.816 219.471L273.336 218.617Z" fill="#657A94"/>
<path fill-rule="evenodd" clip-rule="evenodd" d="M275.96 218.804L274.817 219.464V221.173L275.178 220.964L275.679 220.675L275.96 220.513V218.804Z" fill="#7D97C2"/>
<path d="M275.783 221.212L276.285 220.922L275.679 220.675L275.178 220.964L275.783 221.212Z" fill="#031A30"/>
<path d="M275.297 217.48L276.44 216.82L277.919 217.675L276.777 218.334L275.297 217.48Z" fill="#657A94"/>
<path fill-rule="evenodd" clip-rule="evenodd" d="M277.921 217.667L276.778 218.327V220.036L277.139 219.828L277.64 219.538L277.921 219.376V217.667Z" fill="#7D97C2"/>
<path d="M277.744 220.075L278.246 219.785L277.64 219.538L277.139 219.828L277.744 220.075Z" fill="#031A30"/>
<path d="M277.258 216.34L278.401 215.68L279.88 216.534L278.738 217.194L277.258 216.34Z" fill="#657A94"/>
<path fill-rule="evenodd" clip-rule="evenodd" d="M279.882 216.527L278.739 217.187V218.895L279.1 218.687L279.601 218.398L279.882 218.235V216.527Z" fill="#7D97C2"/>
<path d="M279.705 218.934L280.207 218.645L279.601 218.398L279.1 218.687L279.705 218.934Z" fill="#031A30"/>
<path d="M279.203 215.199L280.346 214.539L281.826 215.393L280.683 216.053L279.203 215.199Z" fill="#657A94"/>
<path fill-rule="evenodd" clip-rule="evenodd" d="M281.827 215.386L280.684 216.046V217.755L281.045 217.546L281.546 217.257L281.827 217.095V215.386Z" fill="#7D97C2"/>
<path d="M281.651 217.794L282.152 217.504L281.546 217.257L281.045 217.546L281.651 217.794Z" fill="#031A30"/>
<path d="M281.172 214.062L282.315 213.402L283.794 214.257L282.652 214.916L281.172 214.062Z" fill="#657A94"/>
<path fill-rule="evenodd" clip-rule="evenodd" d="M283.796 214.249L282.653 214.909V216.618L283.014 216.41L283.515 216.12L283.796 215.958V214.249Z" fill="#7D97C2"/>
<path d="M283.619 216.657L284.121 216.367L283.515 216.12L283.014 216.41L283.619 216.657Z" fill="#031A30"/>
<path d="M283.133 212.925L284.276 212.266L285.755 213.12L284.613 213.78L283.133 212.925Z" fill="#657A94"/>
<path fill-rule="evenodd" clip-rule="evenodd" d="M285.757 213.113L284.614 213.773V215.481L284.975 215.273L285.476 214.984L285.757 214.821V213.113Z" fill="#7D97C2"/>
<path d="M285.58 215.52L286.082 215.231L285.476 214.984L284.975 215.273L285.58 215.52Z" fill="#031A30"/>
<path d="M285.086 211.789L286.229 211.129L287.709 211.983L286.566 212.643L285.086 211.789Z" fill="#657A94"/>
<path fill-rule="evenodd" clip-rule="evenodd" d="M287.71 211.976L286.567 212.636V214.344L286.928 214.136L287.429 213.847L287.71 213.685V211.976Z" fill="#7D97C2"/>
<path d="M287.533 214.383L288.035 214.094L287.429 213.847L286.928 214.136L287.533 214.383Z" fill="#031A30"/>
<path d="M259.617 223.297L258.474 222.637L256.995 223.491L258.137 224.151L259.617 223.297Z" fill="#657A94"/>
<path fill-rule="evenodd" clip-rule="evenodd" d="M256.993 223.484L258.136 224.144V225.852L257.775 225.644L257.274 225.355L256.993 225.192V223.484Z" fill="#7D97C2"/>
<path d="M257.17 225.891L256.668 225.602L257.274 225.355L257.775 225.644L257.17 225.891Z" fill="#031A30"/>
<path d="M257.531 222.109L256.388 221.449L254.909 222.304L256.052 222.963L257.531 222.109Z" fill="#657A94"/>
<path fill-rule="evenodd" clip-rule="evenodd" d="M254.907 222.296L256.05 222.956V224.665L255.689 224.457L255.188 224.167L254.907 224.005V222.296Z" fill="#7D97C2"/>
<path d="M255.084 224.704L254.583 224.414L255.188 224.167L255.689 224.457L255.084 224.704Z" fill="#031A30"/>
<path d="M255.383 220.89L254.24 220.23L252.76 221.085L253.903 221.745L255.383 220.89Z" fill="#657A94"/>
<path fill-rule="evenodd" clip-rule="evenodd" d="M252.759 221.078L253.902 221.737V223.446L253.541 223.238L253.04 222.948L252.759 222.786V221.078Z" fill="#7D97C2"/>
<path d="M252.935 223.485L252.434 223.196L253.04 222.948L253.541 223.238L252.935 223.485Z" fill="#031A30"/>
<path d="M253.422 219.754L252.279 219.094L250.799 219.948L251.942 220.608L253.422 219.754Z" fill="#657A94"/>
<path fill-rule="evenodd" clip-rule="evenodd" d="M250.798 219.941L251.941 220.601V222.309L251.58 222.101L251.079 221.812L250.798 221.649V219.941Z" fill="#7D97C2"/>
<path d="M250.974 222.348L250.473 222.059L251.079 221.812L251.58 222.101L250.974 222.348Z" fill="#031A30"/>
<path d="M251.469 218.617L250.326 217.957L248.846 218.811L249.989 219.471L251.469 218.617Z" fill="#657A94"/>
<path fill-rule="evenodd" clip-rule="evenodd" d="M248.845 218.804L249.988 219.464V221.173L249.627 220.964L249.126 220.675L248.845 220.513V218.804Z" fill="#7D97C2"/>
<path d="M249.021 221.212L248.52 220.922L249.126 220.675L249.627 220.964L249.021 221.212Z" fill="#031A30"/>
<path d="M249.508 217.48L248.365 216.82L246.885 217.675L248.028 218.334L249.508 217.48Z" fill="#657A94"/>
<path fill-rule="evenodd" clip-rule="evenodd" d="M246.884 217.667L248.027 218.327V220.036L247.666 219.828L247.165 219.538L246.884 219.376V217.667Z" fill="#7D97C2"/>
<path d="M247.06 220.075L246.559 219.785L247.165 219.538L247.666 219.828L247.06 220.075Z" fill="#031A30"/>
<path d="M247.547 216.34L246.404 215.68L244.924 216.534L246.067 217.194L247.547 216.34Z" fill="#657A94"/>
<path fill-rule="evenodd" clip-rule="evenodd" d="M244.923 216.527L246.066 217.187V218.895L245.705 218.687L245.204 218.398L244.923 218.235V216.527Z" fill="#7D97C2"/>
<path d="M245.099 218.934L244.598 218.645L245.204 218.398L245.705 218.687L245.099 218.934Z" fill="#031A30"/>
<path d="M245.602 215.199L244.459 214.539L242.979 215.393L244.122 216.053L245.602 215.199Z" fill="#657A94"/>
<path fill-rule="evenodd" clip-rule="evenodd" d="M242.977 215.386L244.12 216.046V217.755L243.76 217.546L243.258 217.257L242.977 217.095V215.386Z" fill="#7D97C2"/>
<path d="M243.154 217.794L242.653 217.504L243.258 217.257L243.76 217.546L243.154 217.794Z" fill="#031A30"/>
<path d="M243.633 214.062L242.49 213.402L241.01 214.257L242.153 214.916L243.633 214.062Z" fill="#657A94"/>
<path fill-rule="evenodd" clip-rule="evenodd" d="M241.009 214.249L242.152 214.909V216.618L241.791 216.41L241.29 216.12L241.009 215.958V214.249Z" fill="#7D97C2"/>
<path d="M241.185 216.657L240.684 216.367L241.29 216.12L241.791 216.41L241.185 216.657Z" fill="#031A30"/>
<path d="M241.672 212.925L240.529 212.266L239.049 213.12L240.192 213.78L241.672 212.925Z" fill="#657A94"/>
<path fill-rule="evenodd" clip-rule="evenodd" d="M239.048 213.113L240.191 213.773V215.481L239.83 215.273L239.329 214.984L239.048 214.821V213.113Z" fill="#7D97C2"/>
<path d="M239.224 215.52L238.723 215.231L239.329 214.984L239.83 215.273L239.224 215.52Z" fill="#031A30"/>
<path d="M239.719 211.789L238.576 211.129L237.096 211.983L238.239 212.643L239.719 211.789Z" fill="#657A94"/>
<path fill-rule="evenodd" clip-rule="evenodd" d="M237.095 211.976L238.238 212.636V214.344L237.877 214.136L237.376 213.847L237.095 213.685V211.976Z" fill="#7D97C2"/>
<path d="M237.271 214.383L236.77 214.094L237.376 213.847L237.877 214.136L237.271 214.383Z" fill="#031A30"/>
<rect width="32.4261" height="32.4261" transform="matrix(0.866025 0.5 -0.866025 0.5 226.578 214.387)" fill="#BECFE9"/>
<rect width="32.4261" height="32.4261" transform="matrix(0.866025 0.5 -0.866025 0.5 226.578 214.387)" fill="url(#paint6_linear_3059_4817)"/>
<path d="M254.656 232.32L254.656 230.598L226.574 246.811L226.635 248.533L254.656 232.32Z" fill="#CBDBF5"/>
<path d="M198.492 232.324L198.492 230.602L226.573 246.814L226.633 248.537L198.492 232.324Z" fill="#E4F0FF"/>
<circle cx="0.863947" cy="0.863947" r="0.863947" transform="matrix(0.866025 0.5 -0.866025 0.5 226.578 243.66)" fill="#0C0C0C"/>
<circle cx="0.863947" cy="0.863947" r="0.863947" transform="matrix(0.866025 0.5 -0.866025 0.5 226.578 243.66)" fill="url(#paint7_linear_3059_4817)"/>
<circle cx="0.863947" cy="0.863947" r="0.863947" transform="matrix(0.866025 0.5 -0.866025 0.5 251.273 229.652)" fill="#0C0C0C"/>
<circle cx="0.863947" cy="0.863947" r="0.863947" transform="matrix(0.866025 0.5 -0.866025 0.5 251.273 229.652)" fill="url(#paint8_linear_3059_4817)"/>
<circle cx="0.863947" cy="0.863947" r="0.863947" transform="matrix(0.866025 0.5 -0.866025 0.5 201.969 229.59)" fill="#0C0C0C"/>
<circle cx="0.863947" cy="0.863947" r="0.863947" transform="matrix(0.866025 0.5 -0.866025 0.5 201.969 229.59)" fill="url(#paint9_linear_3059_4817)"/>
<path d="M224.824 217.194H228.38L248.235 228.658L248.235 230.651L228.369 242.12H224.834L205.155 230.759L205.155 228.55L224.824 217.194Z" fill="white"/>
<path d="M224.824 217.194H228.38L248.235 228.658L248.235 230.651L228.369 242.12H224.834L205.155 230.759L205.155 228.55L224.824 217.194Z" fill="url(#paint10_linear_3059_4817)"/>
<path d="M228.359 243.091V242.125L248.219 230.645V231.542L228.359 243.091Z" fill="#7D97C2"/>
<path d="M228.362 243.091V242.125L224.828 242.121V243.019L228.362 243.091Z" fill="#CBDBF5"/>
<path d="M205.148 231.724V230.758L224.828 242.119V243.017L205.148 231.724Z" fill="#E4F0FF"/>
<circle cx="0.863947" cy="0.863947" r="0.863947" transform="matrix(0.866025 0.5 -0.866025 0.5 226.578 215.297)" fill="#0C0C0C"/>
<circle cx="0.863947" cy="0.863947" r="0.863947" transform="matrix(0.866025 0.5 -0.866025 0.5 226.578 215.297)" fill="url(#paint11_linear_3059_4817)"/>
<path d="M229.367 245.683L230.51 245.023L231.99 245.878L230.847 246.538L229.367 245.683Z" fill="#657A94"/>
<path fill-rule="evenodd" clip-rule="evenodd" d="M231.991 245.871L230.848 246.53V248.239L231.209 248.031L231.71 247.741L231.991 247.579V245.871Z" fill="#7D97C2"/>
<path d="M231.815 248.278L232.316 247.989L231.71 247.741L231.209 248.031L231.815 248.278Z" fill="#031A30"/>
<path d="M231.453 244.496L232.596 243.836L234.076 244.69L232.933 245.35L231.453 244.496Z" fill="#657A94"/>
<path fill-rule="evenodd" clip-rule="evenodd" d="M234.077 244.683L232.934 245.343V247.052L233.295 246.843L233.796 246.554L234.077 246.392V244.683Z" fill="#7D97C2"/>
<path d="M233.901 247.09L234.402 246.801L233.796 246.554L233.295 246.843L233.901 247.09Z" fill="#031A30"/>
<path d="M233.602 243.277L234.744 242.617L236.224 243.472L235.081 244.131L233.602 243.277Z" fill="#657A94"/>
<path fill-rule="evenodd" clip-rule="evenodd" d="M236.226 243.464L235.083 244.124V245.833L235.443 245.625L235.945 245.335L236.226 245.173V243.464Z" fill="#7D97C2"/>
<path d="M236.049 245.872L236.55 245.582L235.945 245.335L235.443 245.625L236.049 245.872Z" fill="#031A30"/>
<path d="M235.562 242.14L236.705 241.48L238.185 242.335L237.042 242.995L235.562 242.14Z" fill="#657A94"/>
<path fill-rule="evenodd" clip-rule="evenodd" d="M238.187 242.328L237.044 242.987V244.696L237.404 244.488L237.906 244.198L238.187 244.036V242.328Z" fill="#7D97C2"/>
<path d="M238.01 244.735L238.511 244.446L237.906 244.198L237.404 244.488L238.01 244.735Z" fill="#031A30"/>
<path d="M237.516 241.004L238.658 240.344L240.138 241.198L238.995 241.858L237.516 241.004Z" fill="#657A94"/>
<path fill-rule="evenodd" clip-rule="evenodd" d="M240.14 241.191L238.997 241.851V243.559L239.357 243.351L239.859 243.062L240.14 242.899V241.191Z" fill="#7D97C2"/>
<path d="M239.963 243.598L240.464 243.309L239.859 243.062L239.357 243.351L239.963 243.598Z" fill="#031A30"/>
<path d="M239.477 239.867L240.619 239.207L242.099 240.061L240.956 240.721L239.477 239.867Z" fill="#657A94"/>
<path fill-rule="evenodd" clip-rule="evenodd" d="M242.101 240.054L240.958 240.714V242.423L241.318 242.214L241.82 241.925L242.101 241.763V240.054Z" fill="#7D97C2"/>
<path d="M241.924 242.462L242.425 242.172L241.82 241.925L241.318 242.214L241.924 242.462Z" fill="#031A30"/>
<path d="M241.438 238.726L242.58 238.066L244.06 238.921L242.917 239.581L241.438 238.726Z" fill="#657A94"/>
<path fill-rule="evenodd" clip-rule="evenodd" d="M244.062 238.914L242.919 239.573V241.282L243.279 241.074L243.781 240.784L244.062 240.622V238.914Z" fill="#7D97C2"/>
<path d="M243.885 241.321L244.386 241.032L243.781 240.784L243.279 241.074L243.885 241.321Z" fill="#031A30"/>
<path d="M243.383 237.586L244.526 236.926L246.005 237.78L244.863 238.44L243.383 237.586Z" fill="#657A94"/>
<path fill-rule="evenodd" clip-rule="evenodd" d="M246.007 237.773L244.864 238.433V240.141L245.225 239.933L245.726 239.644L246.007 239.482V237.773Z" fill="#7D97C2"/>
<path d="M245.83 240.18L246.332 239.891L245.726 239.644L245.225 239.933L245.83 240.18Z" fill="#031A30"/>
<path d="M245.352 236.449L246.494 235.789L247.974 236.643L246.831 237.303L245.352 236.449Z" fill="#657A94"/>
<path fill-rule="evenodd" clip-rule="evenodd" d="M247.976 236.636L246.833 237.296V239.005L247.193 238.796L247.695 238.507L247.976 238.345V236.636Z" fill="#7D97C2"/>
<path d="M247.799 239.044L248.3 238.754L247.695 238.507L247.193 238.796L247.799 239.044Z" fill="#031A30"/>
<path d="M247.312 235.312L248.455 234.652L249.935 235.507L248.792 236.166L247.312 235.312Z" fill="#657A94"/>
<path fill-rule="evenodd" clip-rule="evenodd" d="M249.937 235.499L248.794 236.159V237.868L249.154 237.66L249.656 237.37L249.937 237.208V235.499Z" fill="#7D97C2"/>
<path d="M249.76 237.907L250.261 237.617L249.656 237.37L249.154 237.66L249.76 237.907Z" fill="#031A30"/>
<path d="M249.266 234.175L250.408 233.516L251.888 234.37L250.745 235.03L249.266 234.175Z" fill="#657A94"/>
<path fill-rule="evenodd" clip-rule="evenodd" d="M251.89 234.363L250.747 235.023V236.731L251.107 236.523L251.609 236.234L251.89 236.071V234.363Z" fill="#7D97C2"/>
<path d="M251.713 236.77L252.214 236.481L251.609 236.234L251.107 236.523L251.713 236.77Z" fill="#031A30"/>
<path d="M223.797 245.683L222.654 245.023L221.174 245.878L222.317 246.538L223.797 245.683Z" fill="#657A94"/>
<path fill-rule="evenodd" clip-rule="evenodd" d="M221.173 245.871L222.316 246.53V248.239L221.955 248.031L221.454 247.741L221.173 247.579V245.871Z" fill="#7D97C2"/>
<path d="M221.349 248.278L220.848 247.989L221.454 247.741L221.955 248.031L221.349 248.278Z" fill="#031A30"/>
<path d="M221.711 244.496L220.568 243.836L219.088 244.69L220.231 245.35L221.711 244.496Z" fill="#657A94"/>
<path fill-rule="evenodd" clip-rule="evenodd" d="M219.087 244.683L220.23 245.343V247.052L219.869 246.843L219.368 246.554L219.087 246.392V244.683Z" fill="#7D97C2"/>
<path d="M219.264 247.09L218.762 246.801L219.368 246.554L219.869 246.843L219.264 247.09Z" fill="#031A30"/>
<path d="M219.562 243.277L218.42 242.617L216.94 243.472L218.083 244.131L219.562 243.277Z" fill="#657A94"/>
<path fill-rule="evenodd" clip-rule="evenodd" d="M216.938 243.464L218.081 244.124V245.833L217.721 245.625L217.219 245.335L216.938 245.173V243.464Z" fill="#7D97C2"/>
<path d="M217.115 245.872L216.614 245.582L217.219 245.335L217.721 245.625L217.115 245.872Z" fill="#031A30"/>
<path d="M217.602 242.14L216.459 241.48L214.979 242.335L216.122 242.995L217.602 242.14Z" fill="#657A94"/>
<path fill-rule="evenodd" clip-rule="evenodd" d="M214.977 242.328L216.12 242.987V244.696L215.76 244.488L215.258 244.198L214.977 244.036V242.328Z" fill="#7D97C2"/>
<path d="M215.154 244.735L214.653 244.446L215.258 244.198L215.76 244.488L215.154 244.735Z" fill="#031A30"/>
<path d="M215.648 241.004L214.506 240.344L213.026 241.198L214.169 241.858L215.648 241.004Z" fill="#657A94"/>
<path fill-rule="evenodd" clip-rule="evenodd" d="M213.024 241.191L214.167 241.851V243.559L213.807 243.351L213.305 243.062L213.024 242.899V241.191Z" fill="#7D97C2"/>
<path d="M213.201 243.598L212.7 243.309L213.305 243.062L213.807 243.351L213.201 243.598Z" fill="#031A30"/>
<path d="M213.688 239.867L212.545 239.207L211.065 240.061L212.208 240.721L213.688 239.867Z" fill="#657A94"/>
<path fill-rule="evenodd" clip-rule="evenodd" d="M211.063 240.054L212.206 240.714V242.423L211.846 242.214L211.344 241.925L211.063 241.763V240.054Z" fill="#7D97C2"/>
<path d="M211.24 242.462L210.739 242.172L211.344 241.925L211.846 242.214L211.24 242.462Z" fill="#031A30"/>
<path d="M211.727 238.726L210.584 238.066L209.104 238.921L210.247 239.581L211.727 238.726Z" fill="#657A94"/>
<path fill-rule="evenodd" clip-rule="evenodd" d="M209.102 238.914L210.245 239.573V241.282L209.885 241.074L209.383 240.784L209.102 240.622V238.914Z" fill="#7D97C2"/>
<path d="M209.279 241.321L208.778 241.032L209.383 240.784L209.885 241.074L209.279 241.321Z" fill="#031A30"/>
<path d="M209.781 237.586L208.638 236.926L207.159 237.78L208.302 238.44L209.781 237.586Z" fill="#657A94"/>
<path fill-rule="evenodd" clip-rule="evenodd" d="M207.157 237.773L208.3 238.433V240.141L207.939 239.933L207.438 239.644L207.157 239.482V237.773Z" fill="#7D97C2"/>
<path d="M207.334 240.18L206.833 239.891L207.438 239.644L207.939 239.933L207.334 240.18Z" fill="#031A30"/>
<path d="M207.812 236.449L206.67 235.789L205.19 236.643L206.333 237.303L207.812 236.449Z" fill="#657A94"/>
<path fill-rule="evenodd" clip-rule="evenodd" d="M205.188 236.636L206.331 237.296V239.005L205.971 238.796L205.469 238.507L205.188 238.345V236.636Z" fill="#7D97C2"/>
<path d="M205.365 239.044L204.864 238.754L205.469 238.507L205.971 238.796L205.365 239.044Z" fill="#031A30"/>
<path d="M205.852 235.312L204.709 234.652L203.229 235.507L204.372 236.166L205.852 235.312Z" fill="#657A94"/>
<path fill-rule="evenodd" clip-rule="evenodd" d="M203.227 235.499L204.37 236.159V237.868L204.01 237.66L203.508 237.37L203.227 237.208V235.499Z" fill="#7D97C2"/>
<path d="M203.404 237.907L202.903 237.617L203.508 237.37L204.01 237.66L203.404 237.907Z" fill="#031A30"/>
<path d="M203.898 234.175L202.756 233.516L201.276 234.37L202.419 235.03L203.898 234.175Z" fill="#657A94"/>
<path fill-rule="evenodd" clip-rule="evenodd" d="M201.274 234.363L202.417 235.023V236.731L202.057 236.523L201.555 236.234L201.274 236.071V234.363Z" fill="#7D97C2"/>
<path d="M201.451 236.77L200.95 236.481L201.555 236.234L202.057 236.523L201.451 236.77Z" fill="#031A30"/>
<path fill-rule="evenodd" clip-rule="evenodd" d="M258.124 165.023C258.125 166.192 257.352 167.36 255.808 168.252L155.152 226.366C152.064 228.149 147.057 228.149 143.968 226.366L43.3125 168.252C41.8301 167.396 41.0593 166.285 41 165.164V186.687C41.0593 187.809 41.8301 188.92 43.3125 189.776L143.968 247.889C147.057 249.672 152.064 249.672 155.152 247.889L255.808 189.776C257.352 188.884 258.125 187.716 258.124 186.547V165.023Z" fill="#7D97C2"/>
<path fill-rule="evenodd" clip-rule="evenodd" d="M41.0037 165.163C40.9395 163.949 41.7103 162.722 43.3162 161.795L143.972 103.681C147.06 101.898 152.068 101.898 155.156 103.681L255.812 161.795C257.356 162.686 258.128 163.855 258.128 165.023V186.547C258.128 185.378 257.356 184.21 255.812 183.318L155.156 125.205C152.068 123.422 147.06 123.422 143.972 125.205L43.3162 183.318C41.7103 184.246 40.9395 185.472 41.0037 186.687V165.163Z" fill="#7D97C2"/>
<path d="M143.972 103.689C147.06 101.906 152.068 101.906 155.156 103.689L255.812 161.803C258.9 163.586 258.9 166.477 255.812 168.26L155.156 226.373C152.068 228.156 147.06 228.156 143.972 226.373L43.3162 168.26C40.2279 166.477 40.228 163.586 43.3162 161.803L143.972 103.689Z" fill="#F0F0F0"/>
<path d="M145.09 117.347C147.503 115.957 151.416 115.957 153.829 117.347L232.484 162.648C234.897 164.038 234.897 166.292 232.484 167.682L153.829 212.983C151.416 214.373 147.503 214.373 145.09 212.983L66.435 167.682C64.0216 166.292 64.0217 164.038 66.435 162.648L145.09 117.347Z" fill="#031A30"/>
<path fill-rule="evenodd" clip-rule="evenodd" d="M109.219 120.819C109.219 116.016 112.392 111.214 118.738 107.55C131.43 100.223 152.008 100.223 164.7 107.55C171.046 111.214 174.219 116.016 174.219 120.819V139.332C174.219 134.53 171.046 129.728 164.7 126.064C152.008 118.736 131.43 118.736 118.738 126.064C112.392 129.728 109.219 134.53 109.219 139.332V120.819Z" fill="#072543"/>
<path fill-rule="evenodd" clip-rule="evenodd" d="M174.219 120.812C174.219 125.615 171.046 130.417 164.7 134.081C152.008 141.408 131.43 141.408 118.738 134.081C112.392 130.417 109.219 125.615 109.219 120.812V139.326C109.219 144.128 112.392 148.93 118.738 152.594C131.43 159.922 152.008 159.922 164.7 152.594C171.046 148.93 174.219 144.128 174.219 139.326V120.812Z" fill="#F0F0F0"/>
<path d="M164.739 134.087C152.047 141.414 131.469 141.414 118.777 134.087C106.085 126.759 106.085 114.878 118.777 107.55C131.469 100.223 152.047 100.223 164.739 107.55C177.431 114.878 177.431 126.759 164.739 134.087Z" fill="#7D97C2"/>
<path d="M162.675 132.178C151.18 138.701 132.545 138.701 121.05 132.178C109.556 125.654 109.556 115.077 121.05 108.553C132.545 102.029 151.18 102.029 162.675 108.553C174.169 115.077 174.169 125.654 162.675 132.178Z" fill="#031A30"/>
<path fill-rule="evenodd" clip-rule="evenodd" d="M109.219 95.2795C109.219 90.4774 112.392 85.6753 118.738 82.0114C131.43 74.6837 152.008 74.6837 164.7 82.0114C171.046 85.6753 174.219 90.4774 174.219 95.2795V113.793C174.219 108.991 171.046 104.189 164.7 100.525C152.008 93.1973 131.43 93.1973 118.738 100.525C112.392 104.189 109.219 108.991 109.219 113.793V95.2795Z" fill="#072543"/>
<path fill-rule="evenodd" clip-rule="evenodd" d="M174.219 95.2734C174.219 100.076 171.046 104.878 164.7 108.542C152.008 115.869 131.43 115.869 118.738 108.542C112.392 104.878 109.219 100.076 109.219 95.2734V113.787C109.219 118.589 112.392 123.391 118.738 127.055C131.43 134.383 152.008 134.383 164.7 127.055C171.046 123.391 174.219 118.589 174.219 113.787V95.2734Z" fill="#F0F0F0"/>
<path d="M164.739 108.548C152.047 115.875 131.469 115.875 118.777 108.548C106.085 101.22 106.085 89.3392 118.777 82.0114C131.469 74.6837 152.047 74.6837 164.739 82.0114C177.431 89.3392 177.431 101.22 164.739 108.548Z" fill="#7D97C2"/>
<path d="M162.675 106.638C151.18 113.162 132.545 113.162 121.05 106.638C109.556 100.115 109.556 89.5376 121.05 83.0139C132.545 76.4902 151.18 76.4902 162.675 83.0139C174.169 89.5376 174.169 100.115 162.675 106.638Z" fill="#031A30"/>
<path fill-rule="evenodd" clip-rule="evenodd" d="M109.219 69.7639C109.219 64.9618 112.392 60.1597 118.738 56.4958C131.43 49.1681 152.008 49.1681 164.7 56.4958C171.046 60.1597 174.219 64.9618 174.219 69.7639V88.2775C174.219 83.4754 171.046 78.6733 164.7 75.0094C152.008 67.6817 131.43 67.6817 118.738 75.0094C112.392 78.6733 109.219 83.4754 109.219 88.2775V69.7639Z" fill="#072543"/>
<path fill-rule="evenodd" clip-rule="evenodd" d="M174.219 69.7578C174.219 74.5599 171.046 79.362 164.7 83.0259C152.008 90.3536 131.43 90.3536 118.738 83.0259C112.392 79.362 109.219 74.5599 109.219 69.7578V88.2714C109.219 93.0735 112.392 97.8756 118.738 101.539C131.43 108.867 152.008 108.867 164.7 101.539C171.046 97.8756 174.219 93.0735 174.219 88.2714V69.7578Z" fill="#F0F0F0"/>
<path d="M164.739 83.032C152.047 90.3597 131.469 90.3597 118.777 83.032C106.085 75.7042 106.085 63.8235 118.777 56.4958C131.469 49.1681 152.047 49.1681 164.739 56.4958C177.431 63.8235 177.431 75.7042 164.739 83.032Z" fill="#7D97C2"/>
<path d="M162.675 81.1228C151.18 87.6466 132.545 87.6466 121.05 81.1228C109.556 74.5991 109.556 64.022 121.05 57.4983C132.545 50.9745 151.18 50.9745 162.675 57.4983C174.169 64.022 174.169 74.5991 162.675 81.1228Z" fill="#0F81F0"/>
<path fill-rule="evenodd" clip-rule="evenodd" d="M172.672 151.37C172.672 147.848 174.999 144.327 179.653 141.64C188.961 136.266 204.052 136.266 213.359 141.64C218.013 144.327 220.34 147.848 220.34 151.37V164.947C220.34 161.426 218.013 157.904 213.359 155.217C204.052 149.843 188.961 149.843 179.653 155.217C174.999 157.904 172.672 161.426 172.672 164.947V151.37Z" fill="#072543"/>
<path fill-rule="evenodd" clip-rule="evenodd" d="M220.34 151.367C220.34 154.889 218.013 158.411 213.359 161.097C204.052 166.471 188.961 166.471 179.653 161.097C174.999 158.411 172.672 154.889 172.672 151.367V164.944C172.672 168.466 174.999 171.988 179.653 174.675C188.961 180.048 204.052 180.048 213.359 174.675C218.013 171.988 220.34 168.466 220.34 164.944V151.367Z" fill="#072543"/>
<path d="M213.383 161.1C204.075 166.474 188.984 166.474 179.676 161.1C170.368 155.726 170.368 147.014 179.676 141.64C188.984 136.266 204.075 136.266 213.383 141.64C222.691 147.014 222.691 155.726 213.383 161.1Z" fill="#7D97C2"/>
<path d="M211.871 159.703C203.442 164.487 189.775 164.487 181.345 159.703C172.916 154.918 172.916 147.161 181.345 142.377C189.775 137.593 203.442 137.593 211.871 142.377C220.3 147.161 220.3 154.918 211.871 159.703Z" fill="#031A30"/>
<path fill-rule="evenodd" clip-rule="evenodd" d="M172.672 132.643C172.672 129.122 174.999 125.6 179.653 122.913C188.961 117.539 204.052 117.539 213.359 122.913C218.013 125.6 220.34 129.122 220.34 132.643V146.221C220.34 142.699 218.013 139.177 213.359 136.49C204.052 131.116 188.961 131.116 179.653 136.49C174.999 139.177 172.672 142.699 172.672 146.221V132.643Z" fill="#072543"/>
<path fill-rule="evenodd" clip-rule="evenodd" d="M220.34 132.641C220.34 136.162 218.013 139.684 213.359 142.371C204.052 147.745 188.961 147.745 179.653 142.371C174.999 139.684 172.672 136.162 172.672 132.641V146.218C172.672 149.739 174.999 153.261 179.653 155.948C188.961 161.322 204.052 161.322 213.359 155.948C218.013 153.261 220.34 149.739 220.34 146.218V132.641Z" fill="#072543"/>
<path d="M213.383 142.374C204.075 147.748 188.984 147.748 179.676 142.374C170.368 137 170.368 128.287 179.676 122.913C188.984 117.539 204.075 117.539 213.383 122.913C222.691 128.287 222.691 137 213.383 142.374Z" fill="#7D97C2"/>
<path d="M211.871 140.976C203.442 145.76 189.775 145.76 181.345 140.976C172.916 136.192 172.916 128.435 181.345 123.651C189.775 118.866 203.442 118.866 211.871 123.651C220.3 128.435 220.3 136.192 211.871 140.976Z" fill="#031A30"/>
<path fill-rule="evenodd" clip-rule="evenodd" d="M172.672 113.933C172.672 110.411 174.999 106.889 179.653 104.202C188.961 98.8284 204.052 98.8284 213.359 104.202C218.013 106.889 220.34 110.411 220.34 113.933V127.51C220.34 123.988 218.013 120.466 213.359 117.779C204.052 112.406 188.961 112.406 179.653 117.779C174.999 120.466 172.672 123.988 172.672 127.51V113.933Z" fill="#072543"/>
<path fill-rule="evenodd" clip-rule="evenodd" d="M220.34 113.93C220.34 117.451 218.013 120.973 213.359 123.66C204.052 129.034 188.961 129.034 179.653 123.66C174.999 120.973 172.672 117.451 172.672 113.93V127.507C172.672 131.028 174.999 134.55 179.653 137.237C188.961 142.611 204.052 142.611 213.359 137.237C218.013 134.55 220.34 131.028 220.34 127.507V113.93Z" fill="#072543"/>
<path d="M213.383 123.663C204.075 129.037 188.984 129.037 179.676 123.663C170.368 118.289 170.368 109.576 179.676 104.202C188.984 98.8284 204.075 98.8284 213.383 104.202C222.691 109.576 222.691 118.289 213.383 123.663Z" fill="#7D97C2"/>
<path d="M211.871 122.265C203.442 127.049 189.775 127.049 181.345 122.265C172.916 117.481 172.916 109.724 181.345 104.94C189.775 100.156 203.442 100.156 211.871 104.94C220.3 109.724 220.3 117.481 211.871 122.265Z" fill="#D0DDEB"/>
<path fill-rule="evenodd" clip-rule="evenodd" d="M133.008 173.589C133.008 170.067 135.335 166.545 139.989 163.859C149.297 158.485 164.388 158.485 173.695 163.859C178.349 166.545 180.676 170.067 180.676 173.589V187.166C180.676 183.644 178.349 180.123 173.695 177.436C164.388 172.062 149.297 172.062 139.989 177.436C135.335 180.123 133.008 183.644 133.008 187.166V173.589Z" fill="#072543"/>
<path fill-rule="evenodd" clip-rule="evenodd" d="M180.676 173.586C180.676 177.108 178.349 180.629 173.695 183.316C164.388 188.69 149.297 188.69 139.989 183.316C135.335 180.629 133.008 177.108 133.008 173.586V187.163C133.008 190.685 135.335 194.206 139.989 196.893C149.297 202.267 164.388 202.267 173.695 196.893C178.349 194.206 180.676 190.685 180.676 187.163V173.586Z" fill="#072543"/>
<path d="M173.719 183.319C164.411 188.693 149.32 188.693 140.012 183.319C130.704 177.945 130.704 169.232 140.012 163.859C149.32 158.485 164.411 158.485 173.719 163.859C183.027 169.232 183.027 177.945 173.719 183.319Z" fill="#7D97C2"/>
<path d="M172.215 181.917C163.785 186.702 150.119 186.702 141.689 181.917C133.26 177.133 133.26 169.376 141.689 164.592C150.119 159.808 163.785 159.808 172.215 164.592C180.644 169.376 180.644 177.133 172.215 181.917Z" fill="#031A30"/>
<path fill-rule="evenodd" clip-rule="evenodd" d="M133.008 154.862C133.008 151.341 135.335 147.819 139.989 145.132C149.297 139.758 164.388 139.758 173.695 145.132C178.349 147.819 180.676 151.341 180.676 154.862V168.439C180.676 164.918 178.349 161.396 173.695 158.709C164.388 153.335 149.297 153.335 139.989 158.709C135.335 161.396 133.008 164.918 133.008 168.439V154.862Z" fill="#072543"/>
<path fill-rule="evenodd" clip-rule="evenodd" d="M180.676 154.859C180.676 158.381 178.349 161.903 173.695 164.59C164.388 169.964 149.297 169.964 139.989 164.59C135.335 161.903 133.008 158.381 133.008 154.859V168.437C133.008 171.958 135.335 175.48 139.989 178.167C149.297 183.541 164.388 183.541 173.695 178.167C178.349 175.48 180.676 171.958 180.676 168.437V154.859Z" fill="#072543"/>
<path d="M173.719 164.593C164.411 169.966 149.32 169.966 140.012 164.593C130.704 159.219 130.704 150.506 140.012 145.132C149.32 139.758 164.411 139.758 173.719 145.132C183.027 150.506 183.027 159.219 173.719 164.593Z" fill="#7D97C2"/>
<path d="M172.215 163.191C163.785 167.975 150.119 167.975 141.689 163.191C133.26 158.407 133.26 150.65 141.689 145.866C150.119 141.081 163.785 141.081 172.215 145.866C180.644 150.65 180.644 158.407 172.215 163.191Z" fill="#031A30"/>
<path fill-rule="evenodd" clip-rule="evenodd" d="M133.008 136.147C133.008 132.626 135.335 129.104 139.989 126.417C149.297 121.043 164.388 121.043 173.695 126.417C178.349 129.104 180.676 132.626 180.676 136.147V149.725C180.676 146.203 178.349 142.681 173.695 139.994C164.388 134.62 149.297 134.62 139.989 139.994C135.335 142.681 133.008 146.203 133.008 149.725V136.147Z" fill="#072543"/>
<path fill-rule="evenodd" clip-rule="evenodd" d="M180.676 136.145C180.676 139.666 178.349 143.188 173.695 145.875C164.388 151.249 149.297 151.249 139.989 145.875C135.335 143.188 133.008 139.666 133.008 136.145V149.722C133.008 153.243 135.335 156.765 139.989 159.452C149.297 164.826 164.388 164.826 173.695 159.452C178.349 156.765 180.676 153.243 180.676 149.722V136.145Z" fill="#072543"/>
<path d="M173.719 145.878C164.411 151.252 149.32 151.252 140.012 145.878C130.704 140.504 130.704 131.791 140.012 126.417C149.32 121.043 164.411 121.043 173.719 126.417C183.027 131.791 183.027 140.504 173.719 145.878Z" fill="#7D97C2"/>
<path d="M172.215 144.476C163.785 149.26 150.119 149.26 141.689 144.476C133.26 139.692 133.26 131.935 141.689 127.151C150.119 122.366 163.785 122.366 172.215 127.151C180.644 131.935 180.644 139.692 172.215 144.476Z" fill="#D0DDEB"/>
<path fill-rule="evenodd" clip-rule="evenodd" d="M101.282 165.125C101.08 165.242 100.8 165.225 100.491 165.047L98.9231 164.142C98.3047 163.785 97.8034 162.916 97.8034 162.202V142.725C97.8034 141.652 96.7356 140.429 95.9995 140.66L86.8429 143.536C86.1069 143.767 85.0391 142.544 85.0391 141.471L85.0391 140.295C85.0391 139.958 85.1527 139.702 85.3536 139.578L87.5929 138.285C87.3921 138.409 87.2784 138.665 87.2784 139.002V140.178C87.2784 141.251 88.3462 142.474 89.0823 142.243L98.2389 139.367C98.9749 139.136 100.043 140.359 100.043 141.432V160.91C100.043 161.623 100.544 162.492 101.162 162.849L102.73 163.754C103.039 163.932 103.319 163.949 103.522 163.832L101.282 165.125Z" fill="#072543"/>
<path fill-rule="evenodd" clip-rule="evenodd" d="M85.3594 139.577C85.3817 139.564 85.4051 139.551 85.4295 139.541L98.9776 133.749C99.399 133.569 100.026 133.931 100.448 134.598L113.996 156.034C114.24 156.42 114.38 156.857 114.38 157.231V158.407C114.38 158.772 114.257 159.012 114.065 159.126L116.304 157.834C116.496 157.719 116.62 157.479 116.62 157.114V155.938C116.62 155.564 116.48 155.127 116.235 154.741L102.687 133.305C102.266 132.638 101.638 132.276 101.217 132.456L87.6689 138.248C87.6444 138.259 87.621 138.271 87.5987 138.284L85.3594 139.577Z" fill="#072543"/>
<path fill-rule="evenodd" clip-rule="evenodd" d="M114.052 159.124C113.68 159.347 113.05 159.1 112.564 158.386L103.407 144.938C102.936 144.246 102.329 143.993 101.953 144.181L104.192 142.889C104.568 142.7 105.175 142.953 105.646 143.645L114.803 157.093C115.289 157.807 115.919 158.054 116.292 157.831L114.052 159.124Z" fill="#072543"/>
<path fill-rule="evenodd" clip-rule="evenodd" d="M101.967 144.187C101.755 144.294 101.617 144.54 101.617 144.926V164.403C101.617 164.76 101.492 165.011 101.289 165.128L103.528 163.835C103.731 163.718 103.856 163.467 103.856 163.11V143.633C103.856 143.247 103.995 143.001 104.206 142.895L101.967 144.187Z" fill="#072543"/>
<path fill-rule="evenodd" clip-rule="evenodd" d="M114.071 184.507C113.866 184.64 113.576 184.629 113.255 184.443L86.1587 168.799C85.5404 168.442 85.0391 167.574 85.0391 166.86L85.0391 150.311C85.0391 149.954 85.1644 149.703 85.367 149.586L87.6064 148.293C87.4037 148.41 87.2784 148.661 87.2784 149.018V165.567C87.2784 166.281 87.7797 167.149 88.3981 167.506L115.494 183.15C115.816 183.336 116.106 183.347 116.31 183.214L114.071 184.507Z" fill="#072543"/>
<path fill-rule="evenodd" clip-rule="evenodd" d="M85.3594 149.586C85.562 149.469 85.8419 149.486 86.1511 149.665L87.7187 150.57C88.337 150.927 88.8383 151.795 88.8383 152.509V164.662C88.8383 165.376 89.3396 166.244 89.958 166.601L109.44 177.85C109.75 178.028 110.029 178.045 110.232 177.928L112.471 176.635C112.269 176.752 111.989 176.735 111.68 176.557L92.1974 165.309C91.579 164.952 91.0777 164.083 91.0777 163.369V151.216C91.0777 150.502 90.5764 149.634 89.958 149.277L88.3905 148.372C88.0813 148.193 87.8014 148.176 87.5987 148.293L85.3594 149.586Z" fill="#072543"/>
<path fill-rule="evenodd" clip-rule="evenodd" d="M110.234 177.928C110.437 177.811 110.562 177.56 110.562 177.203V165.05C110.562 164.707 110.678 164.462 110.866 164.34L113.106 163.047C112.917 163.169 112.802 163.414 112.802 163.757V175.91C112.802 176.267 112.676 176.518 112.474 176.635L110.234 177.928Z" fill="#072543"/>
<path fill-rule="evenodd" clip-rule="evenodd" d="M110.867 164.335C111.071 164.202 111.361 164.213 111.683 164.399L113.25 165.304C113.869 165.661 114.37 166.529 114.37 167.243V183.792C114.37 184.135 114.255 184.38 114.066 184.502L116.305 183.21C116.494 183.087 116.609 182.842 116.609 182.499V165.95C116.609 165.236 116.108 164.368 115.49 164.011L113.922 163.106C113.601 162.92 113.311 162.91 113.107 163.042L110.867 164.335Z" fill="#072543"/>
<path d="M101.61 164.404C101.61 165.118 101.109 165.407 100.491 165.05L98.9231 164.145C98.3047 163.788 97.8034 162.92 97.8034 162.206V142.729C97.8034 141.655 96.7356 140.433 95.9995 140.664L86.8429 143.539C86.1069 143.77 85.0391 142.548 85.0391 141.474L85.0391 140.298C85.0391 139.924 85.1794 139.649 85.4237 139.545L98.9718 133.753C99.3932 133.573 100.02 133.935 100.442 134.602L113.99 156.038C114.234 156.424 114.375 156.861 114.375 157.235V158.411C114.375 159.484 113.307 159.474 112.571 158.393L103.414 144.944C102.678 143.863 101.61 143.853 101.61 144.926V164.404ZM111.687 164.404L113.255 165.309C113.873 165.666 114.375 166.534 114.375 167.248V183.797C114.375 184.511 113.873 184.8 113.255 184.443L86.1587 168.799C85.5404 168.442 85.0391 167.574 85.0391 166.86L85.0391 150.311C85.0391 149.597 85.5404 149.308 86.1587 149.665L87.7263 150.57C88.3447 150.927 88.846 151.795 88.846 152.509V164.662C88.846 165.376 89.3473 166.245 89.9656 166.602L109.448 177.85C110.066 178.207 110.568 177.917 110.568 177.203V165.05C110.568 164.336 111.069 164.047 111.687 164.404Z" fill="#0F81F0"/>
<path d="M101.61 164.404C101.61 165.118 101.109 165.407 100.491 165.05L98.9231 164.145C98.3047 163.788 97.8034 162.92 97.8034 162.206V142.729C97.8034 141.655 96.7356 140.433 95.9995 140.664L86.8429 143.539C86.1069 143.77 85.0391 142.548 85.0391 141.474L85.0391 140.298C85.0391 139.924 85.1794 139.649 85.4237 139.545L98.9718 133.753C99.3932 133.573 100.02 133.935 100.442 134.602L113.99 156.038C114.234 156.424 114.375 156.861 114.375 157.235V158.411C114.375 159.484 113.307 159.474 112.571 158.393L103.414 144.944C102.678 143.863 101.61 143.853 101.61 144.926V164.404ZM111.687 164.404L113.255 165.309C113.873 165.666 114.375 166.534 114.375 167.248V183.797C114.375 184.511 113.873 184.8 113.255 184.443L86.1587 168.799C85.5404 168.442 85.0391 167.574 85.0391 166.86L85.0391 150.311C85.0391 149.597 85.5404 149.308 86.1587 149.665L87.7263 150.57C88.3447 150.927 88.846 151.795 88.846 152.509V164.662C88.846 165.376 89.3473 166.245 89.9656 166.602L109.448 177.85C110.066 178.207 110.568 177.917 110.568 177.203V165.05C110.568 164.336 111.069 164.047 111.687 164.404Z" fill="url(#paint12_linear_3059_4817)"/>
<rect width="27.3083" height="26.8908" rx="5.74105" transform="matrix(0.866025 0.5 -0.866025 0.5 68.3516 214.633)" fill="#7D97C2"/>
<mask id="path-117-outside-1_3059_4817" maskUnits="userSpaceOnUse" x="66.4062" y="225.828" width="5" height="4" fill="black">
<rect fill="white" x="66.4062" y="225.828" width="5" height="4"/>
<path d="M67.4069 227.855C67.407 227.82 67.4235 227.788 67.4513 227.768C68.231 227.207 69.2826 227.207 70.0622 227.768C70.0903 227.788 70.1068 227.821 70.1067 227.855L70.1063 227.932C70.1062 227.973 70.0934 228.012 70.07 228.045C69.4263 228.946 68.0865 228.947 67.4429 228.046C67.4191 228.012 67.4063 227.972 67.4065 227.932L67.4069 227.855Z"/>
</mask>
<path d="M67.4069 227.855C67.407 227.82 67.4235 227.788 67.4513 227.768C68.231 227.207 69.2826 227.207 70.0622 227.768C70.0903 227.788 70.1068 227.821 70.1067 227.855L70.1063 227.932C70.1062 227.973 70.0934 228.012 70.07 228.045C69.4263 228.946 68.0865 228.947 67.4429 228.046C67.4191 228.012 67.4063 227.972 67.4065 227.932L67.4069 227.855Z" fill="url(#paint13_linear_3059_4817)"/>
<path d="M67.4065 227.932L66.5939 227.928L67.4065 227.932ZM70.1063 227.932L70.9189 227.936L70.1063 227.932ZM70.1067 227.855L69.2941 227.852L70.1067 227.855ZM69.2941 227.852L69.2937 227.929L70.9189 227.936L70.9193 227.859L69.2941 227.852ZM68.2191 227.935L68.2195 227.858L66.5943 227.851L66.5939 227.928L68.2191 227.935ZM67.9261 228.428C68.4223 228.07 69.0916 228.07 69.5874 228.427L70.5371 227.108C69.4736 226.343 68.0396 226.343 66.9765 227.109L67.9261 228.428ZM69.4087 227.573C69.0887 228.021 68.4233 228.02 68.1041 227.574L66.7816 228.518C67.7498 229.874 69.7639 229.872 70.7312 228.517L69.4087 227.573ZM66.5939 227.928C66.593 228.14 66.6587 228.346 66.7816 228.518L68.1041 227.574C68.1795 227.679 68.2197 227.805 68.2191 227.935L66.5939 227.928ZM69.2937 227.929C69.2943 227.801 69.3345 227.677 69.4087 227.573L70.7312 228.517C70.8524 228.348 70.918 228.145 70.9189 227.936L69.2937 227.929ZM70.9193 227.859C70.9206 227.561 70.7782 227.282 70.5371 227.108L69.5874 228.427C69.4024 228.294 69.2931 228.08 69.2941 227.852L70.9193 227.859ZM68.2195 227.858C68.2185 228.084 68.1093 228.296 67.9261 228.428L66.9765 227.109C66.7378 227.281 66.5955 227.557 66.5943 227.851L68.2195 227.858Z" fill="#031A30" mask="url(#path-117-outside-1_3059_4817)"/>
<path d="M67.4062 205.855H70.1061V227.994C69.4445 228.92 68.0679 228.92 67.4062 227.994V205.855Z" fill="url(#paint14_linear_3059_4817)"/>
<path d="M67.4062 205.855H70.1061V227.994C69.4445 228.92 68.0679 228.92 67.4062 227.994V205.855Z" fill="url(#paint15_linear_3059_4817)"/>
<path d="M81.2219 212.823C81.2219 217.893 74.0883 221.031 69.0187 221.031C63.949 221.031 56.4375 216.921 56.4375 211.852C56.4375 206.782 63.949 174 69.0187 174C74.0883 174 81.2219 207.754 81.2219 212.823Z" fill="url(#paint16_radial_3059_4817)"/>
<rect width="27.3083" height="26.8908" rx="5.74105" transform="matrix(0.866025 0.5 -0.866025 0.5 34.2891 195.375)" fill="#7D97C2"/>
<mask id="path-122-outside-2_3059_4817" maskUnits="userSpaceOnUse" x="32.5938" y="206.855" width="5" height="4" fill="black">
<rect fill="white" x="32.5938" y="206.855" width="5" height="4"/>
<path d="M33.5943 208.714C33.5944 208.685 33.6082 208.658 33.6314 208.641C34.2833 208.172 35.1625 208.172 35.8143 208.641C35.8378 208.658 35.8516 208.685 35.8515 208.714L35.8512 208.779C35.8511 208.813 35.8404 208.845 35.8208 208.873C35.2826 209.626 34.1625 209.627 33.6244 208.874C33.6045 208.846 33.5938 208.812 33.594 208.778L33.5943 208.714Z"/>
</mask>
<path d="M33.5943 208.714C33.5944 208.685 33.6082 208.658 33.6314 208.641C34.2833 208.172 35.1625 208.172 35.8143 208.641C35.8378 208.658 35.8516 208.685 35.8515 208.714L35.8512 208.779C35.8511 208.813 35.8404 208.845 35.8208 208.873C35.2826 209.626 34.1625 209.627 33.6244 208.874C33.6045 208.846 33.5938 208.812 33.594 208.778L33.5943 208.714Z" fill="url(#paint17_linear_3059_4817)"/>
<path d="M35.8512 208.779L35.0386 208.775L35.8512 208.779ZM35.8515 208.714L36.6641 208.718L35.8515 208.714ZM35.0389 208.711L35.0386 208.775L36.6638 208.782L36.6641 208.718L35.0389 208.711ZM34.4066 208.781L34.4069 208.717L32.7817 208.71L32.7814 208.774L34.4066 208.781ZM34.1062 209.301C34.4746 209.036 34.9715 209.036 35.3395 209.301L36.2891 207.982C35.3535 207.308 34.0919 207.309 33.1566 207.982L34.1062 209.301ZM35.1595 208.401C34.9451 208.701 34.4993 208.7 34.2856 208.401L32.9631 209.346C33.8257 210.554 35.6202 210.552 36.482 209.345L35.1595 208.401ZM32.7814 208.774C32.7805 208.979 32.8441 209.179 32.9631 209.346L34.2856 208.401C34.3648 208.512 34.4072 208.645 34.4066 208.781L32.7814 208.774ZM35.0386 208.775C35.0392 208.641 35.0815 208.51 35.1595 208.401L36.482 209.345C36.5993 209.181 36.6629 208.984 36.6638 208.782L35.0386 208.775ZM36.6641 208.718C36.6653 208.426 36.5257 208.152 36.2891 207.982L35.3395 209.301C35.1499 209.164 35.0379 208.944 35.0389 208.711L36.6641 208.718ZM34.4069 208.717C34.4058 208.949 34.294 209.166 34.1062 209.301L33.1566 207.982C32.9224 208.151 32.7829 208.421 32.7817 208.71L34.4069 208.717Z" fill="#031A30" mask="url(#path-122-outside-2_3059_4817)"/>
<path d="M33.5938 190.32H35.851V208.83C35.2978 209.604 34.1469 209.604 33.5938 208.83V190.32Z" fill="url(#paint18_linear_3059_4817)"/>
<path d="M33.5938 190.32H35.851V208.83C35.2978 209.604 34.1469 209.604 33.5938 208.83V190.32Z" fill="url(#paint19_linear_3059_4817)"/>
<circle cx="34.9402" cy="191.675" r="7.67458" fill="url(#paint20_radial_3059_4817)"/>
<defs>
<linearGradient id="paint0_linear_3059_4817" x1="-37.046" y1="7.61191" x2="48.4072" y2="-32.8331" gradientUnits="userSpaceOnUse">
<stop offset="0.0469908" stop-color="#0E4071"/>
<stop offset="0.140821" stop-color="#0E4071"/>
<stop offset="0.412734" stop-color="#031A30"/>
</linearGradient>
<linearGradient id="paint1_linear_3059_4817" x1="-0.000930614" y1="0.0810461" x2="-0.180826" y2="1.26391" gradientUnits="userSpaceOnUse">
<stop stop-color="#08F7DB"/>
<stop offset="0.887375" stop-color="#0F81F0"/>
</linearGradient>
<linearGradient id="paint2_linear_3059_4817" x1="-0.000930614" y1="0.0810461" x2="-0.180826" y2="1.26391" gradientUnits="userSpaceOnUse">
<stop stop-color="#08F7DB"/>
<stop offset="0.887375" stop-color="#0F81F0"/>
</linearGradient>
<linearGradient id="paint3_linear_3059_4817" x1="-0.000930614" y1="0.0810461" x2="-0.180826" y2="1.26391" gradientUnits="userSpaceOnUse">
<stop stop-color="#08F7DB"/>
<stop offset="0.887375" stop-color="#0F81F0"/>
</linearGradient>
<linearGradient id="paint4_linear_3059_4817" x1="274.219" y1="195.306" x2="303.594" y2="238.813" gradientUnits="userSpaceOnUse">
<stop offset="0.178892" stop-color="#0E4071"/>
<stop offset="0.192141" stop-color="#0E4071"/>
<stop offset="0.412734" stop-color="#031A30"/>
</linearGradient>
<linearGradient id="paint5_linear_3059_4817" x1="-0.000930614" y1="0.0810461" x2="-0.180826" y2="1.26391" gradientUnits="userSpaceOnUse">
<stop stop-color="#08F7DB"/>
<stop offset="0.887375" stop-color="#0F81F0"/>
</linearGradient>
<linearGradient id="paint6_linear_3059_4817" x1="-37.046" y1="7.61191" x2="48.4072" y2="-32.8331" gradientUnits="userSpaceOnUse">
<stop offset="0.0469908" stop-color="#0E4071"/>
<stop offset="0.140821" stop-color="#0E4071"/>
<stop offset="0.412734" stop-color="#031A30"/>
</linearGradient>
<linearGradient id="paint7_linear_3059_4817" x1="-0.000930614" y1="0.0810461" x2="-0.180826" y2="1.26391" gradientUnits="userSpaceOnUse">
<stop stop-color="#08F7DB"/>
<stop offset="0.887375" stop-color="#0F81F0"/>
</linearGradient>
<linearGradient id="paint8_linear_3059_4817" x1="-0.000930614" y1="0.0810461" x2="-0.180826" y2="1.26391" gradientUnits="userSpaceOnUse">
<stop stop-color="#08F7DB"/>
<stop offset="0.887375" stop-color="#0F81F0"/>
</linearGradient>
<linearGradient id="paint9_linear_3059_4817" x1="-0.000930614" y1="0.0810461" x2="-0.180826" y2="1.26391" gradientUnits="userSpaceOnUse">
<stop stop-color="#08F7DB"/>
<stop offset="0.887375" stop-color="#0F81F0"/>
</linearGradient>
<linearGradient id="paint10_linear_3059_4817" x1="238.407" y1="217.693" x2="267.781" y2="261.2" gradientUnits="userSpaceOnUse">
<stop offset="0.178892" stop-color="#0E4071"/>
<stop offset="0.192141" stop-color="#0E4071"/>
<stop offset="0.412734" stop-color="#031A30"/>
</linearGradient>
<linearGradient id="paint11_linear_3059_4817" x1="-0.000930614" y1="0.0810461" x2="-0.180826" y2="1.26391" gradientUnits="userSpaceOnUse">
<stop stop-color="#08F7DB"/>
<stop offset="0.887375" stop-color="#0F81F0"/>
</linearGradient>
<linearGradient id="paint12_linear_3059_4817" x1="92.6606" y1="142.097" x2="109.57" y2="177.64" gradientUnits="userSpaceOnUse">
<stop stop-color="#08F7DB"/>
<stop offset="1" stop-color="#0F81F0"/>
</linearGradient>
<linearGradient id="paint13_linear_3059_4817" x1="70.1061" y1="204.182" x2="57.4169" y2="223.351" gradientUnits="userSpaceOnUse">
<stop offset="0.155289" stop-color="#031A30"/>
<stop offset="0.514591" stop-color="#0F81F0"/>
<stop offset="1" stop-color="#031A30"/>
</linearGradient>
<linearGradient id="paint14_linear_3059_4817" x1="70.1061" y1="203.966" x2="57.4169" y2="223.134" gradientUnits="userSpaceOnUse">
<stop offset="0.155289" stop-color="#031A30"/>
<stop offset="0.514591" stop-color="#0F81F0"/>
<stop offset="1" stop-color="#031A30"/>
</linearGradient>
<linearGradient id="paint15_linear_3059_4817" x1="68.7562" y1="205.855" x2="55.4697" y2="245.435" gradientUnits="userSpaceOnUse">
<stop offset="0.0596716" stop-color="#6FB3F6"/>
<stop offset="0.138721" stop-color="white"/>
</linearGradient>
<radialGradient id="paint16_radial_3059_4817" cx="0" cy="0" r="1" gradientUnits="userSpaceOnUse" gradientTransform="translate(64.9689 203.752) rotate(76.8094) scale(17.7471 17.7471)">
<stop stop-color="#9FCDF9"/>
<stop offset="1" stop-color="#6FB3F6"/>
</radialGradient>
<linearGradient id="paint17_linear_3059_4817" x1="35.851" y1="188.922" x2="25.242" y2="204.948" gradientUnits="userSpaceOnUse">
<stop offset="0.155289" stop-color="#031A30"/>
<stop offset="0.514591" stop-color="#0F81F0"/>
<stop offset="1" stop-color="#031A30"/>
</linearGradient>
<linearGradient id="paint18_linear_3059_4817" x1="35.851" y1="188.74" x2="25.242" y2="204.767" gradientUnits="userSpaceOnUse">
<stop offset="0.155289" stop-color="#031A30"/>
<stop offset="0.514591" stop-color="#0F81F0"/>
<stop offset="1" stop-color="#031A30"/>
</linearGradient>
<linearGradient id="paint19_linear_3059_4817" x1="34.7224" y1="190.32" x2="23.614" y2="223.412" gradientUnits="userSpaceOnUse">
<stop offset="0.0596716" stop-color="#6FB3F6"/>
<stop offset="0.138721" stop-color="white"/>
</linearGradient>
<radialGradient id="paint20_radial_3059_4817" cx="0" cy="0" r="1" gradientUnits="userSpaceOnUse" gradientTransform="translate(31.5544 184.903) rotate(76.8094) scale(14.8377)">
<stop stop-color="#9FCDF9"/>
<stop offset="1" stop-color="#6FB3F6"/>
</radialGradient>
</defs>
</svg>
