<svg width="300" height="300" viewBox="0 0 300 300" fill="none" xmlns="http://www.w3.org/2000/svg">
<path fill-rule="evenodd" clip-rule="evenodd" d="M260.992 162.043C260.992 163.244 260.198 164.445 258.611 165.361L155.174 225.08C152 226.913 146.855 226.913 143.681 225.08L40.2436 165.361C38.7202 164.481 37.9281 163.339 37.8672 162.187V184.305C37.9281 185.458 38.7202 186.6 40.2436 187.479L143.681 247.199C146.855 249.031 152 249.031 155.174 247.199L258.611 187.479C260.198 186.563 260.992 185.362 260.992 184.161V162.043Z" fill="#7D97C2"/>
<path fill-rule="evenodd" clip-rule="evenodd" d="M37.871 162.188C37.805 160.94 38.5972 159.679 40.2474 158.727L143.685 99.0071C146.858 97.1747 152.004 97.1747 155.178 99.0071L258.615 158.727C260.202 159.643 260.995 160.844 260.995 162.044V184.163C260.995 182.962 260.202 181.761 258.615 180.845L155.178 121.125C152.004 119.293 146.858 119.293 143.685 121.125L40.2474 180.845C38.5972 181.798 37.805 183.058 37.871 184.307V162.188Z" fill="#7D97C2"/>
<path d="M143.685 99.0071C146.858 97.1747 152.004 97.1747 155.178 99.0071L258.615 158.727C261.789 160.559 261.789 163.53 258.615 165.362L155.178 225.082C152.004 226.914 146.858 226.914 143.685 225.082L40.2474 165.362C37.0737 163.53 37.0738 160.559 40.2474 158.727L143.685 99.0071Z" fill="#F0F0F0"/>
<path d="M145.009 113.353C147.489 111.924 151.509 111.924 153.989 113.353L234.818 159.906C237.298 161.334 237.298 163.65 234.818 165.078L153.989 211.631C151.51 213.059 147.489 213.059 145.009 211.631L64.1803 165.078C61.7003 163.65 61.7004 161.334 64.1803 159.906L145.009 113.353Z" fill="#031A30"/>
<path d="M220.409 99.9534V165.923C220.409 167.296 219.723 167.811 218.522 168.497C217.922 168.84 217.321 169.012 216.635 169.012C215.948 169.012 215.348 168.84 214.747 168.497L203.767 162.149L200.838 160.426V174.846C200.838 175.275 200.495 175.533 200.409 175.618C200.237 175.618 199.894 175.876 199.551 175.618L139.443 141.697C137.311 140.494 135.995 138.234 136 135.786L136.155 64.3395L136.155 64.3332C136.155 60.706 138.385 59.0343 140.787 57.8333C142.503 56.9754 144.574 56.3738 146.804 56.1164C151.008 55.6875 155.211 56.4595 158.3 58.1753L215.434 91.1173C218.522 92.9189 220.495 96.2646 220.495 99.8676L220.409 99.9534Z" fill="#0E4071"/>
<path fill-rule="evenodd" clip-rule="evenodd" d="M220.409 165.923V99.9534L220.495 99.8676C220.495 96.2646 218.522 92.9189 215.434 91.1173L158.3 58.1753C155.211 56.4595 151.008 55.6875 146.804 56.1164C144.574 56.3738 142.503 56.9754 140.787 57.8333C138.385 59.0343 136.155 60.706 136.155 64.3332L136.155 64.3395C136.15 66.4325 137.26 68.3701 139.067 69.4256L197.235 103.386C199.465 104.673 200.838 106.989 200.838 109.563V157.08V160.426L203.767 162.149L214.747 168.497C215.348 168.84 215.948 169.012 216.635 169.012C217.321 169.012 217.922 168.84 218.522 168.497C219.723 167.811 220.409 167.296 220.409 165.923Z" fill="url(#paint0_linear_3064_16790)"/>
<path fill-rule="evenodd" clip-rule="evenodd" d="M220.409 165.923V99.9534L220.495 99.8676C220.495 96.2646 218.522 92.9189 215.434 91.1173L158.3 58.1753C155.211 56.4595 151.008 55.6875 146.804 56.1164C144.574 56.3738 142.503 56.9754 140.787 57.8333C138.385 59.0343 136.155 60.706 136.155 64.3332L136.155 64.3395C136.15 66.4325 137.26 68.3701 139.067 69.4256L197.235 103.386C199.465 104.673 200.838 106.989 200.838 109.563V157.08V160.426L203.767 162.149L214.747 168.497C215.348 168.84 215.948 169.012 216.635 169.012C217.321 169.012 217.922 168.84 218.522 168.497C219.723 167.811 220.409 167.296 220.409 165.923Z" fill="#01211C"/>
<path fill-rule="evenodd" clip-rule="evenodd" d="M200.838 174.845V160.425V157.079V109.561C200.838 106.988 199.465 104.672 197.235 103.385L139.067 69.4244C137.26 68.3689 136.15 66.4313 136.155 64.3383L136 135.785C135.995 138.233 137.311 140.493 139.443 141.696L199.551 175.617C199.798 175.802 200.044 175.721 200.227 175.661C200.299 175.637 200.361 175.617 200.409 175.617C200.419 175.607 200.432 175.595 200.448 175.58C200.569 175.469 200.838 175.224 200.838 174.845Z" fill="#0E4071"/>
<path d="M211.415 134.739L220.391 129.755V121.533V119.115C220.391 119.115 224.884 120.808 224.884 124.242V144.347V144.948C224.626 146.406 223.511 147.779 221.795 148.808L211.501 154.727C209.614 155.843 207.212 156.357 204.81 156.357C202.408 156.357 199.92 155.843 198.033 154.727L170.752 138.943C168.865 137.827 167.664 135.768 167.664 133.538L167.674 120.146C167.674 119.036 168.871 118.338 169.837 118.884L197.947 134.739C201.721 136.884 207.641 136.884 211.415 134.739Z" fill="#08F7DB"/>
<path fill-rule="evenodd" clip-rule="evenodd" d="M220.391 129.755C223.699 127.918 224.764 125.315 224.884 124.242C224.884 120.808 220.391 119.115 220.391 119.115V121.533V129.755Z" fill="#0C0631"/>
<path d="M177.956 134.23C177.956 136.547 176.412 137.49 174.353 136.375C172.294 135.26 170.75 132.515 170.664 130.198C170.664 127.882 172.208 126.938 174.267 128.054C176.24 129.169 177.87 131.914 177.956 134.23Z" fill="#0C0631"/>
<path d="M172.409 118.953V184.923C172.409 186.296 171.723 186.811 170.522 187.497C169.922 187.84 169.321 188.012 168.635 188.012C167.948 188.012 167.348 187.84 166.747 187.497L155.767 181.149L152.838 179.426V193.846C152.838 194.275 152.495 194.533 152.409 194.618C152.237 194.618 151.894 194.876 151.551 194.618L91.4431 160.697C89.3113 159.494 87.9948 157.234 88 154.786L88.1545 83.3395L88.1545 83.3332C88.1545 79.706 90.385 78.0343 92.787 76.8333C94.5027 75.9754 96.5739 75.3738 98.8044 75.1164C103.008 74.6875 107.211 75.4595 110.3 77.1753L167.434 110.117C170.522 111.919 172.495 115.265 172.495 118.868L172.409 118.953Z" fill="#0E4071"/>
<path fill-rule="evenodd" clip-rule="evenodd" d="M172.409 184.923V118.953L172.495 118.868C172.495 115.265 170.522 111.919 167.434 110.117L110.3 77.1753C107.211 75.4595 103.008 74.6875 98.8044 75.1164C96.5739 75.3738 94.5027 75.9754 92.787 76.8333C90.385 78.0343 88.1545 79.706 88.1545 83.3332L88.1545 83.3395C88.1501 85.4325 89.2596 87.3701 91.0674 88.4256L149.235 122.386C151.465 123.673 152.838 125.989 152.838 128.563V176.08V179.426L155.767 181.149L166.747 187.497C167.348 187.84 167.948 188.012 168.635 188.012C169.321 188.012 169.922 187.84 170.522 187.497C171.723 186.811 172.409 186.296 172.409 184.923Z" fill="url(#paint1_linear_3064_16790)"/>
<path fill-rule="evenodd" clip-rule="evenodd" d="M172.409 184.923V118.953L172.495 118.868C172.495 115.265 170.522 111.919 167.434 110.117L110.3 77.1753C107.211 75.4595 103.008 74.6875 98.8044 75.1164C96.5739 75.3738 94.5027 75.9754 92.787 76.8333C90.385 78.0343 88.1545 79.706 88.1545 83.3332L88.1545 83.3395C88.1501 85.4325 89.2596 87.3701 91.0674 88.4256L149.235 122.386C151.465 123.673 152.838 125.989 152.838 128.563V176.08V179.426L155.767 181.149L166.747 187.497C167.348 187.84 167.948 188.012 168.635 188.012C169.321 188.012 169.922 187.84 170.522 187.497C171.723 186.811 172.409 186.296 172.409 184.923Z" fill="#01211C"/>
<path fill-rule="evenodd" clip-rule="evenodd" d="M152.838 193.845V179.425V176.079V128.561C152.838 125.988 151.465 123.672 149.235 122.385L91.0674 88.4244C89.2596 87.3689 88.1501 85.4313 88.1545 83.3383L88 154.785C87.9948 157.233 89.3113 159.493 91.4431 160.696L151.551 194.617C151.798 194.802 152.044 194.721 152.227 194.661C152.299 194.637 152.361 194.617 152.409 194.617C152.419 194.607 152.432 194.595 152.448 194.58C152.569 194.469 152.838 194.224 152.838 193.845Z" fill="#0E4071"/>
<path d="M163.415 153.739L172.391 148.755V140.533V138.115C172.391 138.115 176.884 139.808 176.884 143.242V163.347V163.948C176.626 165.406 175.511 166.779 173.795 167.808L163.501 173.727C161.614 174.843 159.212 175.357 156.81 175.357C154.408 175.357 151.92 174.843 150.033 173.727L122.752 157.943C120.865 156.827 119.664 154.768 119.664 152.538L119.674 139.146C119.674 138.036 120.871 137.338 121.837 137.884L149.947 153.739C153.721 155.884 159.641 155.884 163.415 153.739Z" fill="#08F7DB"/>
<path fill-rule="evenodd" clip-rule="evenodd" d="M172.391 148.755C175.699 146.918 176.764 144.315 176.884 143.242C176.884 139.808 172.391 138.115 172.391 138.115V140.533V148.755Z" fill="#0C0631"/>
<path d="M129.956 153.23C129.956 155.547 128.412 156.49 126.353 155.375C124.294 154.26 122.75 151.515 122.664 149.198C122.664 146.882 124.208 145.938 126.267 147.054C128.24 148.169 129.87 150.914 129.956 153.23Z" fill="#0C0631"/>
<rect width="32.4261" height="32.4261" transform="matrix(0.866025 0.5 -0.866025 0.5 68.5781 210)" fill="#BECFE9"/>
<rect width="32.4261" height="32.4261" transform="matrix(0.866025 0.5 -0.866025 0.5 68.5781 210)" fill="url(#paint2_linear_3064_16790)"/>
<path d="M96.6562 227.933L96.6562 226.211L68.5744 242.424L68.6352 244.146L96.6562 227.933Z" fill="#CBDBF5"/>
<path d="M40.4922 227.937L40.4922 226.215L68.5725 242.428L68.6333 244.15L40.4922 227.937Z" fill="#E4F0FF"/>
<circle cx="0.863947" cy="0.863947" r="0.863947" transform="matrix(0.866025 0.5 -0.866025 0.5 68.5781 239.273)" fill="#0C0C0C"/>
<circle cx="0.863947" cy="0.863947" r="0.863947" transform="matrix(0.866025 0.5 -0.866025 0.5 68.5781 239.273)" fill="url(#paint3_linear_3064_16790)"/>
<circle cx="0.863947" cy="0.863947" r="0.863947" transform="matrix(0.866025 0.5 -0.866025 0.5 93.2734 225.266)" fill="#0C0C0C"/>
<circle cx="0.863947" cy="0.863947" r="0.863947" transform="matrix(0.866025 0.5 -0.866025 0.5 93.2734 225.266)" fill="url(#paint4_linear_3064_16790)"/>
<circle cx="0.863947" cy="0.863947" r="0.863947" transform="matrix(0.866025 0.5 -0.866025 0.5 43.9688 225.203)" fill="#0C0C0C"/>
<circle cx="0.863947" cy="0.863947" r="0.863947" transform="matrix(0.866025 0.5 -0.866025 0.5 43.9688 225.203)" fill="url(#paint5_linear_3064_16790)"/>
<path d="M66.8236 212.808H70.3795L90.2348 224.271L90.2348 226.264L70.3687 237.734H66.8344L47.155 226.372L47.155 224.163L66.8236 212.808Z" fill="white"/>
<path d="M66.8236 212.808H70.3795L90.2348 224.271L90.2348 226.264L70.3687 237.734H66.8344L47.155 226.372L47.155 224.163L66.8236 212.808Z" fill="url(#paint6_linear_3064_16790)"/>
<path d="M70.3594 238.704V237.738L90.2191 226.258V227.156L70.3594 238.704Z" fill="#7D97C2"/>
<path d="M70.3618 238.704V237.738L66.8281 237.734V238.632L70.3618 238.704Z" fill="#CBDBF5"/>
<path d="M47.1484 227.337V226.371L66.8278 237.732V238.63L47.1484 227.337Z" fill="#E4F0FF"/>
<circle cx="0.863947" cy="0.863947" r="0.863947" transform="matrix(0.866025 0.5 -0.866025 0.5 68.5781 210.91)" fill="#0C0C0C"/>
<circle cx="0.863947" cy="0.863947" r="0.863947" transform="matrix(0.866025 0.5 -0.866025 0.5 68.5781 210.91)" fill="url(#paint7_linear_3064_16790)"/>
<path d="M71.3672 241.297L72.51 240.637L73.9898 241.491L72.8469 242.151L71.3672 241.297Z" fill="#657A94"/>
<path fill-rule="evenodd" clip-rule="evenodd" d="M73.9913 241.484L72.8484 242.144V243.852L73.209 243.644L73.7103 243.355L73.9913 243.192V241.484Z" fill="#7D97C2"/>
<path d="M73.8146 243.891L74.3159 243.602L73.7103 243.355L73.209 243.644L73.8146 243.891Z" fill="#031A30"/>
<path d="M73.4531 240.109L74.596 239.449L76.0757 240.304L74.9328 240.963L73.4531 240.109Z" fill="#657A94"/>
<path fill-rule="evenodd" clip-rule="evenodd" d="M76.0772 240.296L74.9344 240.956V242.665L75.2949 242.457L75.7962 242.167L76.0772 242.005V240.296Z" fill="#7D97C2"/>
<path d="M75.9006 242.704L76.4019 242.414L75.7962 242.167L75.2949 242.457L75.9006 242.704Z" fill="#031A30"/>
<path d="M75.6016 238.89L76.7444 238.23L78.2241 239.085L77.0813 239.745L75.6016 238.89Z" fill="#657A94"/>
<path fill-rule="evenodd" clip-rule="evenodd" d="M78.2256 239.078L77.0828 239.737V241.446L77.4434 241.238L77.9447 240.948L78.2256 240.786V239.078Z" fill="#7D97C2"/>
<path d="M78.049 241.485L78.5503 241.196L77.9447 240.948L77.4434 241.238L78.049 241.485Z" fill="#031A30"/>
<path d="M77.5625 237.754L78.7054 237.094L80.1851 237.948L79.0422 238.608L77.5625 237.754Z" fill="#657A94"/>
<path fill-rule="evenodd" clip-rule="evenodd" d="M80.1866 237.941L79.0437 238.601V240.309L79.4043 240.101L79.9056 239.812L80.1866 239.649V237.941Z" fill="#7D97C2"/>
<path d="M80.0099 240.348L80.5112 240.059L79.9056 239.812L79.4043 240.101L80.0099 240.348Z" fill="#031A30"/>
<path d="M79.5156 236.617L80.6585 235.957L82.1382 236.811L80.9953 237.471L79.5156 236.617Z" fill="#657A94"/>
<path fill-rule="evenodd" clip-rule="evenodd" d="M82.1397 236.804L80.9969 237.464V239.173L81.3574 238.964L81.8587 238.675L82.1397 238.513V236.804Z" fill="#7D97C2"/>
<path d="M81.9631 239.212L82.4644 238.922L81.8587 238.675L81.3574 238.964L81.9631 239.212Z" fill="#031A30"/>
<path d="M81.4766 235.48L82.6194 234.82L84.0991 235.675L82.9563 236.334L81.4766 235.48Z" fill="#657A94"/>
<path fill-rule="evenodd" clip-rule="evenodd" d="M84.1006 235.667L82.9578 236.327V238.036L83.3184 237.828L83.8197 237.538L84.1006 237.376V235.667Z" fill="#7D97C2"/>
<path d="M83.924 238.075L84.4253 237.785L83.8197 237.538L83.3184 237.828L83.924 238.075Z" fill="#031A30"/>
<path d="M83.4375 234.34L84.5804 233.68L86.0601 234.534L84.9172 235.194L83.4375 234.34Z" fill="#657A94"/>
<path fill-rule="evenodd" clip-rule="evenodd" d="M86.0616 234.527L84.9187 235.187V236.895L85.2793 236.687L85.7806 236.398L86.0616 236.235V234.527Z" fill="#7D97C2"/>
<path d="M85.8849 236.934L86.3862 236.645L85.7806 236.398L85.2793 236.687L85.8849 236.934Z" fill="#031A30"/>
<path d="M85.3828 233.199L86.5257 232.539L88.0054 233.393L86.8625 234.053L85.3828 233.199Z" fill="#657A94"/>
<path fill-rule="evenodd" clip-rule="evenodd" d="M88.0069 233.386L86.864 234.046V235.755L87.2246 235.546L87.7259 235.257L88.0069 235.095V233.386Z" fill="#7D97C2"/>
<path d="M87.8302 235.794L88.3316 235.504L87.7259 235.257L87.2246 235.546L87.8302 235.794Z" fill="#031A30"/>
<path d="M87.3516 232.062L88.4944 231.402L89.9741 232.257L88.8313 232.916L87.3516 232.062Z" fill="#657A94"/>
<path fill-rule="evenodd" clip-rule="evenodd" d="M89.9756 232.249L88.8328 232.909V234.618L89.1934 234.41L89.6947 234.12L89.9756 233.958V232.249Z" fill="#7D97C2"/>
<path d="M89.799 234.657L90.3003 234.367L89.6947 234.12L89.1934 234.41L89.799 234.657Z" fill="#031A30"/>
<path d="M89.3125 230.925L90.4554 230.266L91.9351 231.12L90.7922 231.78L89.3125 230.925Z" fill="#657A94"/>
<path fill-rule="evenodd" clip-rule="evenodd" d="M91.9366 231.113L90.7937 231.773V233.481L91.1543 233.273L91.6556 232.984L91.9366 232.821V231.113Z" fill="#7D97C2"/>
<path d="M91.7599 233.52L92.2612 233.231L91.6556 232.984L91.1543 233.273L91.7599 233.52Z" fill="#031A30"/>
<path d="M91.2656 229.789L92.4085 229.129L93.8882 229.983L92.7453 230.643L91.2656 229.789Z" fill="#657A94"/>
<path fill-rule="evenodd" clip-rule="evenodd" d="M93.8897 229.976L92.7469 230.636V232.344L93.1074 232.136L93.6087 231.847L93.8897 231.685V229.976Z" fill="#7D97C2"/>
<path d="M93.7131 232.383L94.2144 232.094L93.6087 231.847L93.1074 232.136L93.7131 232.383Z" fill="#031A30"/>
<path d="M65.7969 241.297L64.654 240.637L63.1743 241.491L64.3172 242.151L65.7969 241.297Z" fill="#657A94"/>
<path fill-rule="evenodd" clip-rule="evenodd" d="M63.1728 241.484L64.3156 242.144V243.852L63.9551 243.644L63.4538 243.355L63.1728 243.192V241.484Z" fill="#7D97C2"/>
<path d="M63.3494 243.891L62.8481 243.602L63.4538 243.355L63.9551 243.644L63.3494 243.891Z" fill="#031A30"/>
<path d="M63.7109 240.109L62.5681 239.449L61.0884 240.304L62.2312 240.963L63.7109 240.109Z" fill="#657A94"/>
<path fill-rule="evenodd" clip-rule="evenodd" d="M61.0869 240.296L62.2297 240.956V242.665L61.8691 242.457L61.3678 242.167L61.0869 242.005V240.296Z" fill="#7D97C2"/>
<path d="M61.2635 242.704L60.7622 242.414L61.3678 242.167L61.8691 242.457L61.2635 242.704Z" fill="#031A30"/>
<path d="M61.5625 238.89L60.4196 238.23L58.9399 239.085L60.0828 239.745L61.5625 238.89Z" fill="#657A94"/>
<path fill-rule="evenodd" clip-rule="evenodd" d="M58.9384 239.078L60.0813 239.737V241.446L59.7207 241.238L59.2194 240.948L58.9384 240.786V239.078Z" fill="#7D97C2"/>
<path d="M59.1151 241.485L58.6138 241.196L59.2194 240.948L59.7207 241.238L59.1151 241.485Z" fill="#031A30"/>
<path d="M59.6016 237.754L58.4587 237.094L56.979 237.948L58.1218 238.608L59.6016 237.754Z" fill="#657A94"/>
<path fill-rule="evenodd" clip-rule="evenodd" d="M56.9775 237.941L58.1203 238.601V240.309L57.7598 240.101L57.2585 239.812L56.9775 239.649V237.941Z" fill="#7D97C2"/>
<path d="M57.1541 240.348L56.6528 240.059L57.2585 239.812L57.7598 240.101L57.1541 240.348Z" fill="#031A30"/>
<path d="M57.6484 236.617L56.5056 235.957L55.0259 236.811L56.1687 237.471L57.6484 236.617Z" fill="#657A94"/>
<path fill-rule="evenodd" clip-rule="evenodd" d="M55.0244 236.804L56.1672 237.464V239.173L55.8066 238.964L55.3053 238.675L55.0244 238.513V236.804Z" fill="#7D97C2"/>
<path d="M55.201 239.212L54.6997 238.922L55.3053 238.675L55.8066 238.964L55.201 239.212Z" fill="#031A30"/>
<path d="M55.6875 235.48L54.5446 234.82L53.0649 235.675L54.2078 236.334L55.6875 235.48Z" fill="#657A94"/>
<path fill-rule="evenodd" clip-rule="evenodd" d="M53.0634 235.667L54.2063 236.327V238.036L53.8457 237.828L53.3444 237.538L53.0634 237.376V235.667Z" fill="#7D97C2"/>
<path d="M53.2401 238.075L52.7388 237.785L53.3444 237.538L53.8457 237.828L53.2401 238.075Z" fill="#031A30"/>
<path d="M53.7266 234.34L52.5837 233.68L51.104 234.534L52.2468 235.194L53.7266 234.34Z" fill="#657A94"/>
<path fill-rule="evenodd" clip-rule="evenodd" d="M51.1025 234.527L52.2453 235.187V236.895L51.8848 236.687L51.3835 236.398L51.1025 236.235V234.527Z" fill="#7D97C2"/>
<path d="M51.2791 236.934L50.7778 236.645L51.3835 236.398L51.8848 236.687L51.2791 236.934Z" fill="#031A30"/>
<path d="M51.7812 233.199L50.6384 232.539L49.1587 233.393L50.3015 234.053L51.7812 233.199Z" fill="#657A94"/>
<path fill-rule="evenodd" clip-rule="evenodd" d="M49.1572 233.386L50.3 234.046V235.755L49.9395 235.546L49.4382 235.257L49.1572 235.095V233.386Z" fill="#7D97C2"/>
<path d="M49.3338 235.794L48.8325 235.504L49.4382 235.257L49.9395 235.546L49.3338 235.794Z" fill="#031A30"/>
<path d="M49.8125 232.062L48.6696 231.402L47.1899 232.257L48.3328 232.916L49.8125 232.062Z" fill="#657A94"/>
<path fill-rule="evenodd" clip-rule="evenodd" d="M47.1884 232.249L48.3313 232.909V234.618L47.9707 234.41L47.4694 234.12L47.1884 233.958V232.249Z" fill="#7D97C2"/>
<path d="M47.3651 234.657L46.8638 234.367L47.4694 234.12L47.9707 234.41L47.3651 234.657Z" fill="#031A30"/>
<path d="M47.8516 230.925L46.7087 230.266L45.229 231.12L46.3718 231.78L47.8516 230.925Z" fill="#657A94"/>
<path fill-rule="evenodd" clip-rule="evenodd" d="M45.2275 231.113L46.3703 231.773V233.481L46.0098 233.273L45.5085 232.984L45.2275 232.821V231.113Z" fill="#7D97C2"/>
<path d="M45.4041 233.52L44.9028 233.231L45.5085 232.984L46.0098 233.273L45.4041 233.52Z" fill="#031A30"/>
<path d="M45.8984 229.789L44.7556 229.129L43.2759 229.983L44.4187 230.643L45.8984 229.789Z" fill="#657A94"/>
<path fill-rule="evenodd" clip-rule="evenodd" d="M43.2744 229.976L44.4172 230.636V232.344L44.0566 232.136L43.5553 231.847L43.2744 231.685V229.976Z" fill="#7D97C2"/>
<path d="M43.451 232.383L42.9497 232.094L43.5553 231.847L44.0566 232.136L43.451 232.383Z" fill="#031A30"/>
<rect width="27.3083" height="26.8908" rx="5.74105" transform="matrix(0.866025 0.5 -0.866025 0.5 34.2891 195.375)" fill="#7D97C2"/>
<mask id="path-51-outside-1_3064_16790" maskUnits="userSpaceOnUse" x="32.5938" y="206.855" width="5" height="4" fill="black">
<rect fill="white" x="32.5938" y="206.855" width="5" height="4"/>
<path d="M33.5943 208.714C33.5944 208.685 33.6082 208.658 33.6314 208.641C34.2833 208.172 35.1625 208.172 35.8143 208.641C35.8378 208.658 35.8516 208.685 35.8515 208.714L35.8512 208.779C35.8511 208.813 35.8404 208.845 35.8208 208.873C35.2826 209.626 34.1625 209.627 33.6244 208.874C33.6045 208.846 33.5938 208.812 33.594 208.778L33.5943 208.714Z"/>
</mask>
<path d="M33.5943 208.714C33.5944 208.685 33.6082 208.658 33.6314 208.641C34.2833 208.172 35.1625 208.172 35.8143 208.641C35.8378 208.658 35.8516 208.685 35.8515 208.714L35.8512 208.779C35.8511 208.813 35.8404 208.845 35.8208 208.873C35.2826 209.626 34.1625 209.627 33.6244 208.874C33.6045 208.846 33.5938 208.812 33.594 208.778L33.5943 208.714Z" fill="url(#paint8_linear_3064_16790)"/>
<path d="M35.8512 208.779L35.0386 208.775L35.8512 208.779ZM35.8515 208.714L36.6641 208.718L35.8515 208.714ZM35.0389 208.711L35.0386 208.775L36.6638 208.782L36.6641 208.718L35.0389 208.711ZM34.4066 208.781L34.4069 208.717L32.7817 208.71L32.7814 208.774L34.4066 208.781ZM34.1062 209.301C34.4746 209.036 34.9715 209.036 35.3395 209.301L36.2891 207.982C35.3535 207.308 34.0919 207.309 33.1566 207.982L34.1062 209.301ZM35.1595 208.401C34.9451 208.701 34.4993 208.7 34.2856 208.401L32.9631 209.346C33.8257 210.554 35.6202 210.552 36.482 209.345L35.1595 208.401ZM32.7814 208.774C32.7805 208.979 32.8441 209.179 32.9631 209.346L34.2856 208.401C34.3648 208.512 34.4072 208.645 34.4066 208.781L32.7814 208.774ZM35.0386 208.775C35.0392 208.641 35.0815 208.51 35.1595 208.401L36.482 209.345C36.5993 209.181 36.6629 208.984 36.6638 208.782L35.0386 208.775ZM36.6641 208.718C36.6653 208.426 36.5257 208.152 36.2891 207.982L35.3395 209.301C35.1499 209.164 35.0379 208.944 35.0389 208.711L36.6641 208.718ZM34.4069 208.717C34.4058 208.949 34.294 209.166 34.1062 209.301L33.1566 207.982C32.9224 208.151 32.7829 208.421 32.7817 208.71L34.4069 208.717Z" fill="#031A30" mask="url(#path-51-outside-1_3064_16790)"/>
<path d="M33.5938 190.32H35.851V208.83C35.2978 209.604 34.1469 209.604 33.5938 208.83V190.32Z" fill="url(#paint9_linear_3064_16790)"/>
<path d="M33.5938 190.32H35.851V208.83C35.2978 209.604 34.1469 209.604 33.5938 208.83V190.32Z" fill="url(#paint10_linear_3064_16790)"/>
<circle cx="34.9402" cy="191.675" r="7.67458" fill="url(#paint11_radial_3064_16790)"/>
<rect width="27.3083" height="26.8908" rx="5.74105" transform="matrix(0.866025 0.5 -0.866025 0.5 256.289 197.375)" fill="#7D97C2"/>
<mask id="path-56-outside-2_3064_16790" maskUnits="userSpaceOnUse" x="254.594" y="208.855" width="5" height="4" fill="black">
<rect fill="white" x="254.594" y="208.855" width="5" height="4"/>
<path d="M255.594 210.714C255.594 210.685 255.608 210.658 255.631 210.641C256.283 210.172 257.163 210.172 257.814 210.641C257.838 210.658 257.852 210.685 257.851 210.714L257.851 210.779C257.851 210.813 257.84 210.845 257.821 210.873C257.283 211.626 256.163 211.627 255.624 210.874C255.604 210.846 255.594 210.812 255.594 210.778L255.594 210.714Z"/>
</mask>
<path d="M255.594 210.714C255.594 210.685 255.608 210.658 255.631 210.641C256.283 210.172 257.163 210.172 257.814 210.641C257.838 210.658 257.852 210.685 257.851 210.714L257.851 210.779C257.851 210.813 257.84 210.845 257.821 210.873C257.283 211.626 256.163 211.627 255.624 210.874C255.604 210.846 255.594 210.812 255.594 210.778L255.594 210.714Z" fill="url(#paint12_linear_3064_16790)"/>
<path d="M257.851 210.779L257.039 210.775L257.851 210.779ZM257.851 210.714L258.664 210.718L257.851 210.714ZM257.039 210.711L257.039 210.775L258.664 210.782L258.664 210.718L257.039 210.711ZM256.407 210.781L256.407 210.717L254.782 210.71L254.781 210.774L256.407 210.781ZM256.106 211.301C256.475 211.036 256.972 211.036 257.34 211.301L258.289 209.982C257.354 209.308 256.092 209.309 255.157 209.982L256.106 211.301ZM257.16 210.401C256.945 210.701 256.499 210.7 256.286 210.401L254.963 211.346C255.826 212.554 257.62 212.552 258.482 211.345L257.16 210.401ZM254.781 210.774C254.78 210.979 254.844 211.179 254.963 211.346L256.286 210.401C256.365 210.512 256.407 210.645 256.407 210.781L254.781 210.774ZM257.039 210.775C257.039 210.641 257.081 210.51 257.16 210.401L258.482 211.345C258.599 211.181 258.663 210.984 258.664 210.782L257.039 210.775ZM258.664 210.718C258.665 210.426 258.526 210.152 258.289 209.982L257.34 211.301C257.15 211.164 257.038 210.944 257.039 210.711L258.664 210.718ZM256.407 210.717C256.406 210.949 256.294 211.166 256.106 211.301L255.157 209.982C254.922 210.151 254.783 210.421 254.782 210.71L256.407 210.717Z" fill="#031A30" mask="url(#path-56-outside-2_3064_16790)"/>
<path d="M255.594 192.32H257.851V210.83C257.298 211.604 256.147 211.604 255.594 210.83V192.32Z" fill="url(#paint13_linear_3064_16790)"/>
<path d="M255.594 192.32H257.851V210.83C257.298 211.604 256.147 211.604 255.594 210.83V192.32Z" fill="url(#paint14_linear_3064_16790)"/>
<circle cx="256.94" cy="193.675" r="7.67458" fill="url(#paint15_radial_3064_16790)"/>
<rect width="32.4261" height="32.4261" transform="matrix(0.866025 0.5 -0.866025 0.5 225.578 211)" fill="#BECFE9"/>
<rect width="32.4261" height="32.4261" transform="matrix(0.866025 0.5 -0.866025 0.5 225.578 211)" fill="url(#paint16_linear_3064_16790)"/>
<path d="M253.656 228.933L253.656 227.211L225.574 243.424L225.635 245.146L253.656 228.933Z" fill="#CBDBF5"/>
<path d="M197.492 228.937L197.492 227.215L225.573 243.428L225.633 245.15L197.492 228.937Z" fill="#E4F0FF"/>
<circle cx="0.863947" cy="0.863947" r="0.863947" transform="matrix(0.866025 0.5 -0.866025 0.5 225.578 240.273)" fill="#0C0C0C"/>
<circle cx="0.863947" cy="0.863947" r="0.863947" transform="matrix(0.866025 0.5 -0.866025 0.5 225.578 240.273)" fill="url(#paint17_linear_3064_16790)"/>
<circle cx="0.863947" cy="0.863947" r="0.863947" transform="matrix(0.866025 0.5 -0.866025 0.5 250.273 226.266)" fill="#0C0C0C"/>
<circle cx="0.863947" cy="0.863947" r="0.863947" transform="matrix(0.866025 0.5 -0.866025 0.5 250.273 226.266)" fill="url(#paint18_linear_3064_16790)"/>
<circle cx="0.863947" cy="0.863947" r="0.863947" transform="matrix(0.866025 0.5 -0.866025 0.5 200.969 226.203)" fill="#0C0C0C"/>
<circle cx="0.863947" cy="0.863947" r="0.863947" transform="matrix(0.866025 0.5 -0.866025 0.5 200.969 226.203)" fill="url(#paint19_linear_3064_16790)"/>
<path d="M223.824 213.808H227.38L247.235 225.271L247.235 227.264L227.369 238.734H223.834L204.155 227.372L204.155 225.163L223.824 213.808Z" fill="white"/>
<path d="M223.824 213.808H227.38L247.235 225.271L247.235 227.264L227.369 238.734H223.834L204.155 227.372L204.155 225.163L223.824 213.808Z" fill="url(#paint20_linear_3064_16790)"/>
<path d="M227.359 239.704V238.738L247.219 227.258V228.156L227.359 239.704Z" fill="#7D97C2"/>
<path d="M227.362 239.704V238.738L223.828 238.734V239.632L227.362 239.704Z" fill="#CBDBF5"/>
<path d="M204.148 228.337V227.371L223.828 238.732V239.63L204.148 228.337Z" fill="#E4F0FF"/>
<circle cx="0.863947" cy="0.863947" r="0.863947" transform="matrix(0.866025 0.5 -0.866025 0.5 225.578 211.91)" fill="#0C0C0C"/>
<circle cx="0.863947" cy="0.863947" r="0.863947" transform="matrix(0.866025 0.5 -0.866025 0.5 225.578 211.91)" fill="url(#paint21_linear_3064_16790)"/>
<path d="M228.367 242.297L229.51 241.637L230.99 242.491L229.847 243.151L228.367 242.297Z" fill="#657A94"/>
<path fill-rule="evenodd" clip-rule="evenodd" d="M230.991 242.484L229.848 243.144V244.852L230.209 244.644L230.71 244.355L230.991 244.192V242.484Z" fill="#7D97C2"/>
<path d="M230.815 244.891L231.316 244.602L230.71 244.355L230.209 244.644L230.815 244.891Z" fill="#031A30"/>
<path d="M230.453 241.109L231.596 240.449L233.076 241.304L231.933 241.963L230.453 241.109Z" fill="#657A94"/>
<path fill-rule="evenodd" clip-rule="evenodd" d="M233.077 241.296L231.934 241.956V243.665L232.295 243.457L232.796 243.167L233.077 243.005V241.296Z" fill="#7D97C2"/>
<path d="M232.901 243.704L233.402 243.414L232.796 243.167L232.295 243.457L232.901 243.704Z" fill="#031A30"/>
<path d="M232.602 239.89L233.744 239.23L235.224 240.085L234.081 240.745L232.602 239.89Z" fill="#657A94"/>
<path fill-rule="evenodd" clip-rule="evenodd" d="M235.226 240.078L234.083 240.737V242.446L234.443 242.238L234.945 241.948L235.226 241.786V240.078Z" fill="#7D97C2"/>
<path d="M235.049 242.485L235.55 242.196L234.945 241.948L234.443 242.238L235.049 242.485Z" fill="#031A30"/>
<path d="M234.562 238.754L235.705 238.094L237.185 238.948L236.042 239.608L234.562 238.754Z" fill="#657A94"/>
<path fill-rule="evenodd" clip-rule="evenodd" d="M237.187 238.941L236.044 239.601V241.309L236.404 241.101L236.906 240.812L237.187 240.649V238.941Z" fill="#7D97C2"/>
<path d="M237.01 241.348L237.511 241.059L236.906 240.812L236.404 241.101L237.01 241.348Z" fill="#031A30"/>
<path d="M236.516 237.617L237.658 236.957L239.138 237.811L237.995 238.471L236.516 237.617Z" fill="#657A94"/>
<path fill-rule="evenodd" clip-rule="evenodd" d="M239.14 237.804L237.997 238.464V240.173L238.357 239.964L238.859 239.675L239.14 239.513V237.804Z" fill="#7D97C2"/>
<path d="M238.963 240.212L239.464 239.922L238.859 239.675L238.357 239.964L238.963 240.212Z" fill="#031A30"/>
<path d="M238.477 236.48L239.619 235.82L241.099 236.675L239.956 237.334L238.477 236.48Z" fill="#657A94"/>
<path fill-rule="evenodd" clip-rule="evenodd" d="M241.101 236.667L239.958 237.327V239.036L240.318 238.828L240.82 238.538L241.101 238.376V236.667Z" fill="#7D97C2"/>
<path d="M240.924 239.075L241.425 238.785L240.82 238.538L240.318 238.828L240.924 239.075Z" fill="#031A30"/>
<path d="M240.438 235.34L241.58 234.68L243.06 235.534L241.917 236.194L240.438 235.34Z" fill="#657A94"/>
<path fill-rule="evenodd" clip-rule="evenodd" d="M243.062 235.527L241.919 236.187V237.895L242.279 237.687L242.781 237.398L243.062 237.235V235.527Z" fill="#7D97C2"/>
<path d="M242.885 237.934L243.386 237.645L242.781 237.398L242.279 237.687L242.885 237.934Z" fill="#031A30"/>
<path d="M242.383 234.199L243.526 233.539L245.005 234.393L243.863 235.053L242.383 234.199Z" fill="#657A94"/>
<path fill-rule="evenodd" clip-rule="evenodd" d="M245.007 234.386L243.864 235.046V236.755L244.225 236.546L244.726 236.257L245.007 236.095V234.386Z" fill="#7D97C2"/>
<path d="M244.83 236.794L245.332 236.504L244.726 236.257L244.225 236.546L244.83 236.794Z" fill="#031A30"/>
<path d="M244.352 233.062L245.494 232.402L246.974 233.257L245.831 233.916L244.352 233.062Z" fill="#657A94"/>
<path fill-rule="evenodd" clip-rule="evenodd" d="M246.976 233.249L245.833 233.909V235.618L246.193 235.41L246.695 235.12L246.976 234.958V233.249Z" fill="#7D97C2"/>
<path d="M246.799 235.657L247.3 235.367L246.695 235.12L246.193 235.41L246.799 235.657Z" fill="#031A30"/>
<path d="M246.312 231.925L247.455 231.266L248.935 232.12L247.792 232.78L246.312 231.925Z" fill="#657A94"/>
<path fill-rule="evenodd" clip-rule="evenodd" d="M248.937 232.113L247.794 232.773V234.481L248.154 234.273L248.656 233.984L248.937 233.821V232.113Z" fill="#7D97C2"/>
<path d="M248.76 234.52L249.261 234.231L248.656 233.984L248.154 234.273L248.76 234.52Z" fill="#031A30"/>
<path d="M248.266 230.789L249.408 230.129L250.888 230.983L249.745 231.643L248.266 230.789Z" fill="#657A94"/>
<path fill-rule="evenodd" clip-rule="evenodd" d="M250.89 230.976L249.747 231.636V233.344L250.107 233.136L250.609 232.847L250.89 232.685V230.976Z" fill="#7D97C2"/>
<path d="M250.713 233.383L251.214 233.094L250.609 232.847L250.107 233.136L250.713 233.383Z" fill="#031A30"/>
<path d="M222.797 242.297L221.654 241.637L220.174 242.491L221.317 243.151L222.797 242.297Z" fill="#657A94"/>
<path fill-rule="evenodd" clip-rule="evenodd" d="M220.173 242.484L221.316 243.144V244.852L220.955 244.644L220.454 244.355L220.173 244.192V242.484Z" fill="#7D97C2"/>
<path d="M220.349 244.891L219.848 244.602L220.454 244.355L220.955 244.644L220.349 244.891Z" fill="#031A30"/>
<path d="M220.711 241.109L219.568 240.449L218.088 241.304L219.231 241.963L220.711 241.109Z" fill="#657A94"/>
<path fill-rule="evenodd" clip-rule="evenodd" d="M218.087 241.296L219.23 241.956V243.665L218.869 243.457L218.368 243.167L218.087 243.005V241.296Z" fill="#7D97C2"/>
<path d="M218.264 243.704L217.762 243.414L218.368 243.167L218.869 243.457L218.264 243.704Z" fill="#031A30"/>
<path d="M218.562 239.89L217.42 239.23L215.94 240.085L217.083 240.745L218.562 239.89Z" fill="#657A94"/>
<path fill-rule="evenodd" clip-rule="evenodd" d="M215.938 240.078L217.081 240.737V242.446L216.721 242.238L216.219 241.948L215.938 241.786V240.078Z" fill="#7D97C2"/>
<path d="M216.115 242.485L215.614 242.196L216.219 241.948L216.721 242.238L216.115 242.485Z" fill="#031A30"/>
<path d="M216.602 238.754L215.459 238.094L213.979 238.948L215.122 239.608L216.602 238.754Z" fill="#657A94"/>
<path fill-rule="evenodd" clip-rule="evenodd" d="M213.977 238.941L215.12 239.601V241.309L214.76 241.101L214.258 240.812L213.977 240.649V238.941Z" fill="#7D97C2"/>
<path d="M214.154 241.348L213.653 241.059L214.258 240.812L214.76 241.101L214.154 241.348Z" fill="#031A30"/>
<path d="M214.648 237.617L213.506 236.957L212.026 237.811L213.169 238.471L214.648 237.617Z" fill="#657A94"/>
<path fill-rule="evenodd" clip-rule="evenodd" d="M212.024 237.804L213.167 238.464V240.173L212.807 239.964L212.305 239.675L212.024 239.513V237.804Z" fill="#7D97C2"/>
<path d="M212.201 240.212L211.7 239.922L212.305 239.675L212.807 239.964L212.201 240.212Z" fill="#031A30"/>
<path d="M212.688 236.48L211.545 235.82L210.065 236.675L211.208 237.334L212.688 236.48Z" fill="#657A94"/>
<path fill-rule="evenodd" clip-rule="evenodd" d="M210.063 236.667L211.206 237.327V239.036L210.846 238.828L210.344 238.538L210.063 238.376V236.667Z" fill="#7D97C2"/>
<path d="M210.24 239.075L209.739 238.785L210.344 238.538L210.846 238.828L210.24 239.075Z" fill="#031A30"/>
<path d="M210.727 235.34L209.584 234.68L208.104 235.534L209.247 236.194L210.727 235.34Z" fill="#657A94"/>
<path fill-rule="evenodd" clip-rule="evenodd" d="M208.102 235.527L209.245 236.187V237.895L208.885 237.687L208.383 237.398L208.102 237.235V235.527Z" fill="#7D97C2"/>
<path d="M208.279 237.934L207.778 237.645L208.383 237.398L208.885 237.687L208.279 237.934Z" fill="#031A30"/>
<path d="M208.781 234.199L207.638 233.539L206.159 234.393L207.302 235.053L208.781 234.199Z" fill="#657A94"/>
<path fill-rule="evenodd" clip-rule="evenodd" d="M206.157 234.386L207.3 235.046V236.755L206.939 236.546L206.438 236.257L206.157 236.095V234.386Z" fill="#7D97C2"/>
<path d="M206.334 236.794L205.833 236.504L206.438 236.257L206.939 236.546L206.334 236.794Z" fill="#031A30"/>
<path d="M206.812 233.062L205.67 232.402L204.19 233.257L205.333 233.916L206.812 233.062Z" fill="#657A94"/>
<path fill-rule="evenodd" clip-rule="evenodd" d="M204.188 233.249L205.331 233.909V235.618L204.971 235.41L204.469 235.12L204.188 234.958V233.249Z" fill="#7D97C2"/>
<path d="M204.365 235.657L203.864 235.367L204.469 235.12L204.971 235.41L204.365 235.657Z" fill="#031A30"/>
<path d="M204.852 231.925L203.709 231.266L202.229 232.12L203.372 232.78L204.852 231.925Z" fill="#657A94"/>
<path fill-rule="evenodd" clip-rule="evenodd" d="M202.227 232.113L203.37 232.773V234.481L203.01 234.273L202.508 233.984L202.227 233.821V232.113Z" fill="#7D97C2"/>
<path d="M202.404 234.52L201.903 234.231L202.508 233.984L203.01 234.273L202.404 234.52Z" fill="#031A30"/>
<path d="M202.898 230.789L201.756 230.129L200.276 230.983L201.419 231.643L202.898 230.789Z" fill="#657A94"/>
<path fill-rule="evenodd" clip-rule="evenodd" d="M200.274 230.976L201.417 231.636V233.344L201.057 233.136L200.555 232.847L200.274 232.685V230.976Z" fill="#7D97C2"/>
<path d="M200.451 233.383L199.95 233.094L200.555 232.847L201.057 233.136L200.451 233.383Z" fill="#031A30"/>
<defs>
<linearGradient id="paint0_linear_3064_16790" x1="178.327" y1="56.0057" x2="178.327" y2="189.846" gradientUnits="userSpaceOnUse">
<stop stop-color="#08F7DB"/>
<stop offset="1" stop-color="#0F81F0"/>
</linearGradient>
<linearGradient id="paint1_linear_3064_16790" x1="130.327" y1="75.0057" x2="130.327" y2="208.846" gradientUnits="userSpaceOnUse">
<stop stop-color="#08F7DB"/>
<stop offset="1" stop-color="#0F81F0"/>
</linearGradient>
<linearGradient id="paint2_linear_3064_16790" x1="-37.046" y1="7.61191" x2="48.4072" y2="-32.8331" gradientUnits="userSpaceOnUse">
<stop offset="0.0469908" stop-color="#0E4071"/>
<stop offset="0.140821" stop-color="#0E4071"/>
<stop offset="0.412734" stop-color="#031A30"/>
</linearGradient>
<linearGradient id="paint3_linear_3064_16790" x1="-0.000930614" y1="0.0810461" x2="-0.180826" y2="1.26391" gradientUnits="userSpaceOnUse">
<stop stop-color="#08F7DB"/>
<stop offset="0.887375" stop-color="#0F81F0"/>
</linearGradient>
<linearGradient id="paint4_linear_3064_16790" x1="-0.000930614" y1="0.0810461" x2="-0.180826" y2="1.26391" gradientUnits="userSpaceOnUse">
<stop stop-color="#08F7DB"/>
<stop offset="0.887375" stop-color="#0F81F0"/>
</linearGradient>
<linearGradient id="paint5_linear_3064_16790" x1="-0.000930614" y1="0.0810461" x2="-0.180826" y2="1.26391" gradientUnits="userSpaceOnUse">
<stop stop-color="#08F7DB"/>
<stop offset="0.887375" stop-color="#0F81F0"/>
</linearGradient>
<linearGradient id="paint6_linear_3064_16790" x1="80.4068" y1="213.306" x2="109.781" y2="256.813" gradientUnits="userSpaceOnUse">
<stop offset="0.178892" stop-color="#0E4071"/>
<stop offset="0.192141" stop-color="#0E4071"/>
<stop offset="0.412734" stop-color="#031A30"/>
</linearGradient>
<linearGradient id="paint7_linear_3064_16790" x1="-0.000930614" y1="0.0810461" x2="-0.180826" y2="1.26391" gradientUnits="userSpaceOnUse">
<stop stop-color="#08F7DB"/>
<stop offset="0.887375" stop-color="#0F81F0"/>
</linearGradient>
<linearGradient id="paint8_linear_3064_16790" x1="35.851" y1="188.922" x2="25.242" y2="204.948" gradientUnits="userSpaceOnUse">
<stop offset="0.155289" stop-color="#031A30"/>
<stop offset="0.514591" stop-color="#0F81F0"/>
<stop offset="1" stop-color="#031A30"/>
</linearGradient>
<linearGradient id="paint9_linear_3064_16790" x1="35.851" y1="188.74" x2="25.242" y2="204.767" gradientUnits="userSpaceOnUse">
<stop offset="0.155289" stop-color="#031A30"/>
<stop offset="0.514591" stop-color="#0F81F0"/>
<stop offset="1" stop-color="#031A30"/>
</linearGradient>
<linearGradient id="paint10_linear_3064_16790" x1="34.7224" y1="190.32" x2="23.614" y2="223.412" gradientUnits="userSpaceOnUse">
<stop offset="0.0596716" stop-color="#6FB3F6"/>
<stop offset="0.138721" stop-color="white"/>
</linearGradient>
<radialGradient id="paint11_radial_3064_16790" cx="0" cy="0" r="1" gradientUnits="userSpaceOnUse" gradientTransform="translate(31.5544 184.903) rotate(76.8094) scale(14.8377)">
<stop stop-color="#9FCDF9"/>
<stop offset="1" stop-color="#6FB3F6"/>
</radialGradient>
<linearGradient id="paint12_linear_3064_16790" x1="257.851" y1="190.922" x2="247.242" y2="206.948" gradientUnits="userSpaceOnUse">
<stop offset="0.155289" stop-color="#031A30"/>
<stop offset="0.514591" stop-color="#0F81F0"/>
<stop offset="1" stop-color="#031A30"/>
</linearGradient>
<linearGradient id="paint13_linear_3064_16790" x1="257.851" y1="190.74" x2="247.242" y2="206.767" gradientUnits="userSpaceOnUse">
<stop offset="0.155289" stop-color="#031A30"/>
<stop offset="0.514591" stop-color="#0F81F0"/>
<stop offset="1" stop-color="#031A30"/>
</linearGradient>
<linearGradient id="paint14_linear_3064_16790" x1="256.722" y1="192.32" x2="245.614" y2="225.412" gradientUnits="userSpaceOnUse">
<stop offset="0.0596716" stop-color="#6FB3F6"/>
<stop offset="0.138721" stop-color="white"/>
</linearGradient>
<radialGradient id="paint15_radial_3064_16790" cx="0" cy="0" r="1" gradientUnits="userSpaceOnUse" gradientTransform="translate(253.554 186.903) rotate(76.8094) scale(14.8377)">
<stop stop-color="#9FCDF9"/>
<stop offset="1" stop-color="#6FB3F6"/>
</radialGradient>
<linearGradient id="paint16_linear_3064_16790" x1="-37.046" y1="7.61191" x2="48.4072" y2="-32.8331" gradientUnits="userSpaceOnUse">
<stop offset="0.0469908" stop-color="#0E4071"/>
<stop offset="0.140821" stop-color="#0E4071"/>
<stop offset="0.412734" stop-color="#031A30"/>
</linearGradient>
<linearGradient id="paint17_linear_3064_16790" x1="-0.000930614" y1="0.0810461" x2="-0.180826" y2="1.26391" gradientUnits="userSpaceOnUse">
<stop stop-color="#08F7DB"/>
<stop offset="0.887375" stop-color="#0F81F0"/>
</linearGradient>
<linearGradient id="paint18_linear_3064_16790" x1="-0.000930614" y1="0.0810461" x2="-0.180826" y2="1.26391" gradientUnits="userSpaceOnUse">
<stop stop-color="#08F7DB"/>
<stop offset="0.887375" stop-color="#0F81F0"/>
</linearGradient>
<linearGradient id="paint19_linear_3064_16790" x1="-0.000930614" y1="0.0810461" x2="-0.180826" y2="1.26391" gradientUnits="userSpaceOnUse">
<stop stop-color="#08F7DB"/>
<stop offset="0.887375" stop-color="#0F81F0"/>
</linearGradient>
<linearGradient id="paint20_linear_3064_16790" x1="237.407" y1="214.306" x2="266.781" y2="257.813" gradientUnits="userSpaceOnUse">
<stop offset="0.178892" stop-color="#0E4071"/>
<stop offset="0.192141" stop-color="#0E4071"/>
<stop offset="0.412734" stop-color="#031A30"/>
</linearGradient>
<linearGradient id="paint21_linear_3064_16790" x1="-0.000930614" y1="0.0810461" x2="-0.180826" y2="1.26391" gradientUnits="userSpaceOnUse">
<stop stop-color="#08F7DB"/>
<stop offset="0.887375" stop-color="#0F81F0"/>
</linearGradient>
</defs>
</svg>
