<svg width="300" height="300" viewBox="0 0 300 300" fill="none" xmlns="http://www.w3.org/2000/svg">
<rect width="32.4261" height="32.4261" transform="matrix(0.866025 0.5 -0.866025 0.5 262.391 192)" fill="#BECFE9"/>
<rect width="32.4261" height="32.4261" transform="matrix(0.866025 0.5 -0.866025 0.5 262.391 192)" fill="url(#paint0_linear_3064_17391)"/>
<path d="M290.469 209.933L290.469 208.211L262.387 224.424L262.448 226.146L290.469 209.933Z" fill="#CBDBF5"/>
<path d="M234.305 209.937L234.305 208.215L262.385 224.428L262.446 226.15L234.305 209.937Z" fill="#E4F0FF"/>
<circle cx="0.863947" cy="0.863947" r="0.863947" transform="matrix(0.866025 0.5 -0.866025 0.5 262.391 221.273)" fill="#0C0C0C"/>
<circle cx="0.863947" cy="0.863947" r="0.863947" transform="matrix(0.866025 0.5 -0.866025 0.5 262.391 221.273)" fill="url(#paint1_linear_3064_17391)"/>
<circle cx="0.863947" cy="0.863947" r="0.863947" transform="matrix(0.866025 0.5 -0.866025 0.5 287.086 207.266)" fill="#0C0C0C"/>
<circle cx="0.863947" cy="0.863947" r="0.863947" transform="matrix(0.866025 0.5 -0.866025 0.5 287.086 207.266)" fill="url(#paint2_linear_3064_17391)"/>
<circle cx="0.863947" cy="0.863947" r="0.863947" transform="matrix(0.866025 0.5 -0.866025 0.5 237.781 207.203)" fill="#0C0C0C"/>
<circle cx="0.863947" cy="0.863947" r="0.863947" transform="matrix(0.866025 0.5 -0.866025 0.5 237.781 207.203)" fill="url(#paint3_linear_3064_17391)"/>
<path d="M260.636 194.808H264.192L284.047 206.271L284.047 208.264L264.181 219.734H260.647L240.968 208.372L240.968 206.163L260.636 194.808Z" fill="white"/>
<path d="M260.636 194.808H264.192L284.047 206.271L284.047 208.264L264.181 219.734H260.647L240.968 208.372L240.968 206.163L260.636 194.808Z" fill="url(#paint4_linear_3064_17391)"/>
<path d="M264.172 220.704V219.738L284.032 208.258V209.156L264.172 220.704Z" fill="#7D97C2"/>
<path d="M264.174 220.704V219.738L260.641 219.734V220.632L264.174 220.704Z" fill="#CBDBF5"/>
<path d="M240.961 209.337V208.371L260.64 219.732V220.63L240.961 209.337Z" fill="#E4F0FF"/>
<circle cx="0.863947" cy="0.863947" r="0.863947" transform="matrix(0.866025 0.5 -0.866025 0.5 262.391 192.91)" fill="#0C0C0C"/>
<circle cx="0.863947" cy="0.863947" r="0.863947" transform="matrix(0.866025 0.5 -0.866025 0.5 262.391 192.91)" fill="url(#paint5_linear_3064_17391)"/>
<path d="M265.188 223.297L266.33 222.637L267.81 223.491L266.667 224.151L265.188 223.297Z" fill="#657A94"/>
<path fill-rule="evenodd" clip-rule="evenodd" d="M267.812 223.484L266.669 224.144V225.852L267.029 225.644L267.531 225.355L267.812 225.192V223.484Z" fill="#7D97C2"/>
<path d="M267.635 225.891L268.136 225.602L267.531 225.355L267.029 225.644L267.635 225.891Z" fill="#031A30"/>
<path d="M267.273 222.109L268.416 221.449L269.896 222.304L268.753 222.963L267.273 222.109Z" fill="#657A94"/>
<path fill-rule="evenodd" clip-rule="evenodd" d="M269.898 222.296L268.755 222.956V224.665L269.115 224.457L269.617 224.167L269.898 224.005V222.296Z" fill="#7D97C2"/>
<path d="M269.721 224.704L270.222 224.414L269.617 224.167L269.115 224.457L269.721 224.704Z" fill="#031A30"/>
<path d="M269.422 220.89L270.565 220.23L272.044 221.085L270.902 221.745L269.422 220.89Z" fill="#657A94"/>
<path fill-rule="evenodd" clip-rule="evenodd" d="M272.046 221.078L270.903 221.737V223.446L271.264 223.238L271.765 222.948L272.046 222.786V221.078Z" fill="#7D97C2"/>
<path d="M271.869 223.485L272.371 223.196L271.765 222.948L271.264 223.238L271.869 223.485Z" fill="#031A30"/>
<path d="M271.383 219.754L272.526 219.094L274.005 219.948L272.863 220.608L271.383 219.754Z" fill="#657A94"/>
<path fill-rule="evenodd" clip-rule="evenodd" d="M274.007 219.941L272.864 220.601V222.309L273.225 222.101L273.726 221.812L274.007 221.649V219.941Z" fill="#7D97C2"/>
<path d="M273.83 222.348L274.332 222.059L273.726 221.812L273.225 222.101L273.83 222.348Z" fill="#031A30"/>
<path d="M273.336 218.617L274.479 217.957L275.959 218.811L274.816 219.471L273.336 218.617Z" fill="#657A94"/>
<path fill-rule="evenodd" clip-rule="evenodd" d="M275.96 218.804L274.817 219.464V221.173L275.178 220.964L275.679 220.675L275.96 220.513V218.804Z" fill="#7D97C2"/>
<path d="M275.783 221.212L276.285 220.922L275.679 220.675L275.178 220.964L275.783 221.212Z" fill="#031A30"/>
<path d="M275.297 217.48L276.44 216.82L277.919 217.675L276.777 218.334L275.297 217.48Z" fill="#657A94"/>
<path fill-rule="evenodd" clip-rule="evenodd" d="M277.921 217.667L276.778 218.327V220.036L277.139 219.828L277.64 219.538L277.921 219.376V217.667Z" fill="#7D97C2"/>
<path d="M277.744 220.075L278.246 219.785L277.64 219.538L277.139 219.828L277.744 220.075Z" fill="#031A30"/>
<path d="M277.258 216.34L278.401 215.68L279.88 216.534L278.738 217.194L277.258 216.34Z" fill="#657A94"/>
<path fill-rule="evenodd" clip-rule="evenodd" d="M279.882 216.527L278.739 217.187V218.895L279.1 218.687L279.601 218.398L279.882 218.235V216.527Z" fill="#7D97C2"/>
<path d="M279.705 218.934L280.207 218.645L279.601 218.398L279.1 218.687L279.705 218.934Z" fill="#031A30"/>
<path d="M279.203 215.199L280.346 214.539L281.826 215.393L280.683 216.053L279.203 215.199Z" fill="#657A94"/>
<path fill-rule="evenodd" clip-rule="evenodd" d="M281.827 215.386L280.684 216.046V217.755L281.045 217.546L281.546 217.257L281.827 217.095V215.386Z" fill="#7D97C2"/>
<path d="M281.651 217.794L282.152 217.504L281.546 217.257L281.045 217.546L281.651 217.794Z" fill="#031A30"/>
<path d="M281.172 214.062L282.315 213.402L283.794 214.257L282.652 214.916L281.172 214.062Z" fill="#657A94"/>
<path fill-rule="evenodd" clip-rule="evenodd" d="M283.796 214.249L282.653 214.909V216.618L283.014 216.41L283.515 216.12L283.796 215.958V214.249Z" fill="#7D97C2"/>
<path d="M283.619 216.657L284.121 216.367L283.515 216.12L283.014 216.41L283.619 216.657Z" fill="#031A30"/>
<path d="M283.133 212.925L284.276 212.266L285.755 213.12L284.613 213.78L283.133 212.925Z" fill="#657A94"/>
<path fill-rule="evenodd" clip-rule="evenodd" d="M285.757 213.113L284.614 213.773V215.481L284.975 215.273L285.476 214.984L285.757 214.821V213.113Z" fill="#7D97C2"/>
<path d="M285.58 215.52L286.082 215.231L285.476 214.984L284.975 215.273L285.58 215.52Z" fill="#031A30"/>
<path d="M285.086 211.789L286.229 211.129L287.709 211.983L286.566 212.643L285.086 211.789Z" fill="#657A94"/>
<path fill-rule="evenodd" clip-rule="evenodd" d="M287.71 211.976L286.567 212.636V214.344L286.928 214.136L287.429 213.847L287.71 213.685V211.976Z" fill="#7D97C2"/>
<path d="M287.533 214.383L288.035 214.094L287.429 213.847L286.928 214.136L287.533 214.383Z" fill="#031A30"/>
<path d="M259.617 223.297L258.474 222.637L256.995 223.491L258.137 224.151L259.617 223.297Z" fill="#657A94"/>
<path fill-rule="evenodd" clip-rule="evenodd" d="M256.993 223.484L258.136 224.144V225.852L257.775 225.644L257.274 225.355L256.993 225.192V223.484Z" fill="#7D97C2"/>
<path d="M257.17 225.891L256.668 225.602L257.274 225.355L257.775 225.644L257.17 225.891Z" fill="#031A30"/>
<path d="M257.531 222.109L256.388 221.449L254.909 222.304L256.052 222.963L257.531 222.109Z" fill="#657A94"/>
<path fill-rule="evenodd" clip-rule="evenodd" d="M254.907 222.296L256.05 222.956V224.665L255.689 224.457L255.188 224.167L254.907 224.005V222.296Z" fill="#7D97C2"/>
<path d="M255.084 224.704L254.583 224.414L255.188 224.167L255.689 224.457L255.084 224.704Z" fill="#031A30"/>
<path d="M255.383 220.89L254.24 220.23L252.76 221.085L253.903 221.745L255.383 220.89Z" fill="#657A94"/>
<path fill-rule="evenodd" clip-rule="evenodd" d="M252.759 221.078L253.902 221.737V223.446L253.541 223.238L253.04 222.948L252.759 222.786V221.078Z" fill="#7D97C2"/>
<path d="M252.935 223.485L252.434 223.196L253.04 222.948L253.541 223.238L252.935 223.485Z" fill="#031A30"/>
<path d="M253.422 219.754L252.279 219.094L250.799 219.948L251.942 220.608L253.422 219.754Z" fill="#657A94"/>
<path fill-rule="evenodd" clip-rule="evenodd" d="M250.798 219.941L251.941 220.601V222.309L251.58 222.101L251.079 221.812L250.798 221.649V219.941Z" fill="#7D97C2"/>
<path d="M250.974 222.348L250.473 222.059L251.079 221.812L251.58 222.101L250.974 222.348Z" fill="#031A30"/>
<path d="M251.469 218.617L250.326 217.957L248.846 218.811L249.989 219.471L251.469 218.617Z" fill="#657A94"/>
<path fill-rule="evenodd" clip-rule="evenodd" d="M248.845 218.804L249.988 219.464V221.173L249.627 220.964L249.126 220.675L248.845 220.513V218.804Z" fill="#7D97C2"/>
<path d="M249.021 221.212L248.52 220.922L249.126 220.675L249.627 220.964L249.021 221.212Z" fill="#031A30"/>
<path d="M249.508 217.48L248.365 216.82L246.885 217.675L248.028 218.334L249.508 217.48Z" fill="#657A94"/>
<path fill-rule="evenodd" clip-rule="evenodd" d="M246.884 217.667L248.027 218.327V220.036L247.666 219.828L247.165 219.538L246.884 219.376V217.667Z" fill="#7D97C2"/>
<path d="M247.06 220.075L246.559 219.785L247.165 219.538L247.666 219.828L247.06 220.075Z" fill="#031A30"/>
<path d="M247.547 216.34L246.404 215.68L244.924 216.534L246.067 217.194L247.547 216.34Z" fill="#657A94"/>
<path fill-rule="evenodd" clip-rule="evenodd" d="M244.923 216.527L246.066 217.187V218.895L245.705 218.687L245.204 218.398L244.923 218.235V216.527Z" fill="#7D97C2"/>
<path d="M245.099 218.934L244.598 218.645L245.204 218.398L245.705 218.687L245.099 218.934Z" fill="#031A30"/>
<path d="M245.602 215.199L244.459 214.539L242.979 215.393L244.122 216.053L245.602 215.199Z" fill="#657A94"/>
<path fill-rule="evenodd" clip-rule="evenodd" d="M242.977 215.386L244.12 216.046V217.755L243.76 217.546L243.258 217.257L242.977 217.095V215.386Z" fill="#7D97C2"/>
<path d="M243.154 217.794L242.653 217.504L243.258 217.257L243.76 217.546L243.154 217.794Z" fill="#031A30"/>
<path d="M243.633 214.062L242.49 213.402L241.01 214.257L242.153 214.916L243.633 214.062Z" fill="#657A94"/>
<path fill-rule="evenodd" clip-rule="evenodd" d="M241.009 214.249L242.152 214.909V216.618L241.791 216.41L241.29 216.12L241.009 215.958V214.249Z" fill="#7D97C2"/>
<path d="M241.185 216.657L240.684 216.367L241.29 216.12L241.791 216.41L241.185 216.657Z" fill="#031A30"/>
<path d="M241.672 212.925L240.529 212.266L239.049 213.12L240.192 213.78L241.672 212.925Z" fill="#657A94"/>
<path fill-rule="evenodd" clip-rule="evenodd" d="M239.048 213.113L240.191 213.773V215.481L239.83 215.273L239.329 214.984L239.048 214.821V213.113Z" fill="#7D97C2"/>
<path d="M239.224 215.52L238.723 215.231L239.329 214.984L239.83 215.273L239.224 215.52Z" fill="#031A30"/>
<path d="M239.719 211.789L238.576 211.129L237.096 211.983L238.239 212.643L239.719 211.789Z" fill="#657A94"/>
<path fill-rule="evenodd" clip-rule="evenodd" d="M237.095 211.976L238.238 212.636V214.344L237.877 214.136L237.376 213.847L237.095 213.685V211.976Z" fill="#7D97C2"/>
<path d="M237.271 214.383L236.77 214.094L237.376 213.847L237.877 214.136L237.271 214.383Z" fill="#031A30"/>
<path fill-rule="evenodd" clip-rule="evenodd" d="M257.992 164.613C257.992 165.781 257.22 166.949 255.677 167.84L155.083 225.918C151.996 227.7 146.992 227.7 143.905 225.918L43.3111 167.84C41.8296 166.985 41.0592 165.874 41 164.753V186.264C41.0592 187.384 41.8296 188.495 43.3111 189.35L143.905 247.428C146.992 249.21 151.996 249.21 155.083 247.428L255.677 189.35C257.22 188.459 257.992 187.291 257.992 186.124V164.613Z" fill="#7D97C2"/>
<path fill-rule="evenodd" clip-rule="evenodd" d="M41.0037 164.754C40.9395 163.54 41.7099 162.314 43.3148 161.387L143.909 103.309C146.996 101.527 152 101.527 155.086 103.309L255.681 161.387C257.224 162.278 257.995 163.446 257.995 164.614V186.124C257.995 184.956 257.224 183.789 255.681 182.898L155.086 124.82C152 123.038 146.996 123.038 143.909 124.82L43.3148 182.898C41.7099 183.824 40.9395 185.05 41.0037 186.264V164.754Z" fill="#7D97C2"/>
<path d="M143.909 103.309C146.996 101.527 152 101.527 155.086 103.309L255.681 161.387C258.767 163.169 258.767 166.058 255.681 167.84L155.086 225.919C152 227.7 146.995 227.7 143.909 225.919L43.3148 167.84C40.2283 166.058 40.2284 163.169 43.3148 161.387L143.909 103.309Z" fill="#F0F0F0"/>
<path d="M145.025 116.968C147.437 115.579 151.347 115.579 153.759 116.968L232.366 162.241C234.777 163.63 234.777 165.882 232.366 167.271L153.759 212.545C151.347 213.934 147.437 213.934 145.025 212.545L66.4182 167.271C64.0064 165.882 64.0065 163.63 66.4182 162.241L145.025 116.968Z" fill="#031A30"/>
<path fill-rule="evenodd" clip-rule="evenodd" d="M211 153.047C211 153.696 210.57 154.345 209.709 154.841L153.615 187.131C151.894 188.122 149.104 188.122 147.383 187.131L91.2887 154.841C90.4626 154.365 90.033 153.748 90 153.125V165.084C90.033 165.707 90.4626 166.325 91.2887 166.8L147.383 199.091C149.104 200.081 151.894 200.081 153.615 199.091L209.709 166.8C210.57 166.305 211 165.656 211 165.006V153.047Z" fill="#01211C"/>
<path d="M147.384 119.891C149.105 118.927 151.895 118.927 153.616 119.891L209.709 151.303C211.43 152.267 211.43 153.829 209.709 154.793L153.616 186.205C151.895 187.169 149.105 187.169 147.384 186.205L91.2908 154.793C89.5697 153.829 89.5698 152.267 91.2908 151.303L147.384 119.891Z" fill="#028977"/>
<path fill-rule="evenodd" clip-rule="evenodd" d="M193.249 143.109C193.249 143.568 192.945 144.027 192.337 144.377L152.697 167.196C151.481 167.896 149.509 167.896 148.293 167.196L108.653 144.377C108.069 144.041 107.766 143.605 107.742 143.164V151.616C107.766 152.056 108.069 152.492 108.653 152.828L148.293 175.647C149.509 176.347 151.481 176.347 152.697 175.647L192.337 152.828C192.945 152.478 193.249 152.019 193.249 151.561V143.109Z" fill="#0E4071"/>
<path d="M148.293 119.679C149.51 118.998 151.481 118.998 152.698 119.679L192.337 141.877C193.553 142.558 193.553 143.662 192.337 144.343L152.698 167.5C151.482 168.181 149.51 168.181 148.293 167.5L108.654 144.343C107.438 143.662 107.438 142.558 108.654 141.877L148.293 119.679Z" fill="#028977"/>
<path fill-rule="evenodd" clip-rule="evenodd" d="M127.102 83.174L130.733 85.2704C134.758 87.5946 137.56 88.3162 139.139 87.435L145.949 83.5032C144.371 84.3844 141.568 83.6628 137.543 81.3386L133.912 79.2422L127.102 83.174Z" fill="#028977"/>
<path fill-rule="evenodd" clip-rule="evenodd" d="M139.141 87.4338C140.746 86.5376 141.548 84.0386 141.548 79.937V77.9318L148.358 74V76.0052C148.358 80.1068 147.556 82.6058 145.951 83.502L139.141 87.4338Z" fill="#031A30"/>
<path fill-rule="evenodd" clip-rule="evenodd" d="M159.368 80.3575L152.558 84.2893V149.915L159.368 145.983V80.3575Z" fill="#01211C"/>
<path d="M141.547 77.9318L152.558 84.2893L159.368 80.3575L148.357 74L141.547 77.9318Z" fill="#028977"/>
<path d="M127.102 92.1029V83.1706L130.733 85.267C134.758 87.5912 137.56 88.3128 139.139 87.4316C140.744 86.5355 141.547 84.0365 141.547 79.9349V77.9297L152.558 84.2871V149.913L140.797 143.122V100.01L127.102 92.1029Z" fill="#08F7DB"/>
<rect width="27.3083" height="26.8908" rx="5.74105" transform="matrix(0.866025 0.5 -0.866025 0.5 68.3516 214.633)" fill="#7D97C2"/>
<mask id="path-47-outside-1_3064_17391" maskUnits="userSpaceOnUse" x="66.4062" y="225.828" width="5" height="4" fill="black">
<rect fill="white" x="66.4062" y="225.828" width="5" height="4"/>
<path d="M67.4069 227.855C67.407 227.82 67.4235 227.788 67.4513 227.768C68.231 227.207 69.2826 227.207 70.0622 227.768C70.0903 227.788 70.1068 227.821 70.1067 227.855L70.1063 227.932C70.1062 227.973 70.0934 228.012 70.07 228.045C69.4263 228.946 68.0865 228.947 67.4429 228.046C67.4191 228.012 67.4063 227.972 67.4065 227.932L67.4069 227.855Z"/>
</mask>
<path d="M67.4069 227.855C67.407 227.82 67.4235 227.788 67.4513 227.768C68.231 227.207 69.2826 227.207 70.0622 227.768C70.0903 227.788 70.1068 227.821 70.1067 227.855L70.1063 227.932C70.1062 227.973 70.0934 228.012 70.07 228.045C69.4263 228.946 68.0865 228.947 67.4429 228.046C67.4191 228.012 67.4063 227.972 67.4065 227.932L67.4069 227.855Z" fill="url(#paint6_linear_3064_17391)"/>
<path d="M67.4065 227.932L66.5939 227.928L67.4065 227.932ZM70.1063 227.932L70.9189 227.936L70.1063 227.932ZM70.1067 227.855L69.2941 227.852L70.1067 227.855ZM69.2941 227.852L69.2937 227.929L70.9189 227.936L70.9193 227.859L69.2941 227.852ZM68.2191 227.935L68.2195 227.858L66.5943 227.851L66.5939 227.928L68.2191 227.935ZM67.9261 228.428C68.4223 228.07 69.0916 228.07 69.5874 228.427L70.5371 227.108C69.4736 226.343 68.0396 226.343 66.9765 227.109L67.9261 228.428ZM69.4087 227.573C69.0887 228.021 68.4233 228.02 68.1041 227.574L66.7816 228.518C67.7498 229.874 69.7639 229.872 70.7312 228.517L69.4087 227.573ZM66.5939 227.928C66.593 228.14 66.6587 228.346 66.7816 228.518L68.1041 227.574C68.1795 227.679 68.2197 227.805 68.2191 227.935L66.5939 227.928ZM69.2937 227.929C69.2943 227.801 69.3345 227.677 69.4087 227.573L70.7312 228.517C70.8524 228.348 70.918 228.145 70.9189 227.936L69.2937 227.929ZM70.9193 227.859C70.9206 227.561 70.7782 227.282 70.5371 227.108L69.5874 228.427C69.4024 228.294 69.2931 228.08 69.2941 227.852L70.9193 227.859ZM68.2195 227.858C68.2185 228.084 68.1093 228.296 67.9261 228.428L66.9765 227.109C66.7378 227.281 66.5955 227.557 66.5943 227.851L68.2195 227.858Z" fill="#031A30" mask="url(#path-47-outside-1_3064_17391)"/>
<path d="M67.4062 205.855H70.1061V227.994C69.4445 228.92 68.0679 228.92 67.4062 227.994V205.855Z" fill="url(#paint7_linear_3064_17391)"/>
<path d="M67.4062 205.855H70.1061V227.994C69.4445 228.92 68.0679 228.92 67.4062 227.994V205.855Z" fill="url(#paint8_linear_3064_17391)"/>
<path d="M81.2219 212.823C81.2219 217.893 74.0883 221.031 69.0187 221.031C63.949 221.031 56.4375 216.921 56.4375 211.852C56.4375 206.782 63.949 174 69.0187 174C74.0883 174 81.2219 207.754 81.2219 212.823Z" fill="url(#paint9_radial_3064_17391)"/>
<rect width="27.3083" height="26.8908" rx="5.74105" transform="matrix(0.866025 0.5 -0.866025 0.5 34.2891 195.375)" fill="#7D97C2"/>
<mask id="path-52-outside-2_3064_17391" maskUnits="userSpaceOnUse" x="32.5938" y="206.855" width="5" height="4" fill="black">
<rect fill="white" x="32.5938" y="206.855" width="5" height="4"/>
<path d="M33.5943 208.714C33.5944 208.685 33.6082 208.658 33.6314 208.641C34.2833 208.172 35.1625 208.172 35.8143 208.641C35.8378 208.658 35.8516 208.685 35.8515 208.714L35.8512 208.779C35.8511 208.813 35.8404 208.845 35.8208 208.873C35.2826 209.626 34.1625 209.627 33.6244 208.874C33.6045 208.846 33.5938 208.812 33.594 208.778L33.5943 208.714Z"/>
</mask>
<path d="M33.5943 208.714C33.5944 208.685 33.6082 208.658 33.6314 208.641C34.2833 208.172 35.1625 208.172 35.8143 208.641C35.8378 208.658 35.8516 208.685 35.8515 208.714L35.8512 208.779C35.8511 208.813 35.8404 208.845 35.8208 208.873C35.2826 209.626 34.1625 209.627 33.6244 208.874C33.6045 208.846 33.5938 208.812 33.594 208.778L33.5943 208.714Z" fill="url(#paint10_linear_3064_17391)"/>
<path d="M35.8512 208.779L35.0386 208.775L35.8512 208.779ZM35.8515 208.714L36.6641 208.718L35.8515 208.714ZM35.0389 208.711L35.0386 208.775L36.6638 208.782L36.6641 208.718L35.0389 208.711ZM34.4066 208.781L34.4069 208.717L32.7817 208.71L32.7814 208.774L34.4066 208.781ZM34.1062 209.301C34.4746 209.036 34.9715 209.036 35.3395 209.301L36.2891 207.982C35.3535 207.308 34.0919 207.309 33.1566 207.982L34.1062 209.301ZM35.1595 208.401C34.9451 208.701 34.4993 208.7 34.2856 208.401L32.9631 209.346C33.8257 210.554 35.6202 210.552 36.482 209.345L35.1595 208.401ZM32.7814 208.774C32.7805 208.979 32.8441 209.179 32.9631 209.346L34.2856 208.401C34.3648 208.512 34.4072 208.645 34.4066 208.781L32.7814 208.774ZM35.0386 208.775C35.0392 208.641 35.0815 208.51 35.1595 208.401L36.482 209.345C36.5993 209.181 36.6629 208.984 36.6638 208.782L35.0386 208.775ZM36.6641 208.718C36.6653 208.426 36.5257 208.152 36.2891 207.982L35.3395 209.301C35.1499 209.164 35.0379 208.944 35.0389 208.711L36.6641 208.718ZM34.4069 208.717C34.4058 208.949 34.294 209.166 34.1062 209.301L33.1566 207.982C32.9224 208.151 32.7829 208.421 32.7817 208.71L34.4069 208.717Z" fill="#031A30" mask="url(#path-52-outside-2_3064_17391)"/>
<path d="M33.5938 190.32H35.851V208.83C35.2978 209.604 34.1469 209.604 33.5938 208.83V190.32Z" fill="url(#paint11_linear_3064_17391)"/>
<path d="M33.5938 190.32H35.851V208.83C35.2978 209.604 34.1469 209.604 33.5938 208.83V190.32Z" fill="url(#paint12_linear_3064_17391)"/>
<circle cx="34.9402" cy="191.675" r="7.67458" fill="url(#paint13_radial_3064_17391)"/>
<rect width="27.3083" height="26.8908" rx="5.74105" transform="matrix(0.866025 0.5 -0.866025 0.5 226.289 216.375)" fill="#7D97C2"/>
<mask id="path-57-outside-3_3064_17391" maskUnits="userSpaceOnUse" x="224.594" y="227.855" width="5" height="4" fill="black">
<rect fill="white" x="224.594" y="227.855" width="5" height="4"/>
<path d="M225.594 229.714C225.594 229.685 225.608 229.658 225.631 229.641C226.283 229.172 227.163 229.172 227.814 229.641C227.838 229.658 227.852 229.685 227.851 229.714L227.851 229.779C227.851 229.813 227.84 229.845 227.821 229.873C227.283 230.626 226.163 230.627 225.624 229.874C225.604 229.846 225.594 229.812 225.594 229.778L225.594 229.714Z"/>
</mask>
<path d="M225.594 229.714C225.594 229.685 225.608 229.658 225.631 229.641C226.283 229.172 227.163 229.172 227.814 229.641C227.838 229.658 227.852 229.685 227.851 229.714L227.851 229.779C227.851 229.813 227.84 229.845 227.821 229.873C227.283 230.626 226.163 230.627 225.624 229.874C225.604 229.846 225.594 229.812 225.594 229.778L225.594 229.714Z" fill="url(#paint14_linear_3064_17391)"/>
<path d="M227.851 229.779L227.039 229.775L227.851 229.779ZM227.851 229.714L228.664 229.718L227.851 229.714ZM227.039 229.711L227.039 229.775L228.664 229.782L228.664 229.718L227.039 229.711ZM226.407 229.781L226.407 229.717L224.782 229.71L224.781 229.774L226.407 229.781ZM226.106 230.301C226.475 230.036 226.972 230.036 227.34 230.301L228.289 228.982C227.354 228.308 226.092 228.309 225.157 228.982L226.106 230.301ZM227.16 229.401C226.945 229.701 226.499 229.7 226.286 229.401L224.963 230.346C225.826 231.554 227.62 231.552 228.482 230.345L227.16 229.401ZM224.781 229.774C224.78 229.979 224.844 230.179 224.963 230.346L226.286 229.401C226.365 229.512 226.407 229.645 226.407 229.781L224.781 229.774ZM227.039 229.775C227.039 229.641 227.081 229.51 227.16 229.401L228.482 230.345C228.599 230.181 228.663 229.984 228.664 229.782L227.039 229.775ZM228.664 229.718C228.665 229.426 228.526 229.152 228.289 228.982L227.34 230.301C227.15 230.164 227.038 229.944 227.039 229.711L228.664 229.718ZM226.407 229.717C226.406 229.949 226.294 230.166 226.106 230.301L225.157 228.982C224.922 229.151 224.783 229.421 224.782 229.71L226.407 229.717Z" fill="#031A30" mask="url(#path-57-outside-3_3064_17391)"/>
<path d="M225.594 211.32H227.851V229.83C227.298 230.604 226.147 230.604 225.594 229.83V211.32Z" fill="url(#paint15_linear_3064_17391)"/>
<path d="M225.594 211.32H227.851V229.83C227.298 230.604 226.147 230.604 225.594 229.83V211.32Z" fill="url(#paint16_linear_3064_17391)"/>
<circle cx="226.94" cy="212.675" r="7.67458" fill="url(#paint17_radial_3064_17391)"/>
<defs>
<linearGradient id="paint0_linear_3064_17391" x1="-37.046" y1="7.61191" x2="48.4072" y2="-32.8331" gradientUnits="userSpaceOnUse">
<stop offset="0.0469908" stop-color="#0E4071"/>
<stop offset="0.140821" stop-color="#0E4071"/>
<stop offset="0.412734" stop-color="#031A30"/>
</linearGradient>
<linearGradient id="paint1_linear_3064_17391" x1="-0.000930614" y1="0.0810461" x2="-0.180826" y2="1.26391" gradientUnits="userSpaceOnUse">
<stop stop-color="#08F7DB"/>
<stop offset="0.887375" stop-color="#0F81F0"/>
</linearGradient>
<linearGradient id="paint2_linear_3064_17391" x1="-0.000930614" y1="0.0810461" x2="-0.180826" y2="1.26391" gradientUnits="userSpaceOnUse">
<stop stop-color="#08F7DB"/>
<stop offset="0.887375" stop-color="#0F81F0"/>
</linearGradient>
<linearGradient id="paint3_linear_3064_17391" x1="-0.000930614" y1="0.0810461" x2="-0.180826" y2="1.26391" gradientUnits="userSpaceOnUse">
<stop stop-color="#08F7DB"/>
<stop offset="0.887375" stop-color="#0F81F0"/>
</linearGradient>
<linearGradient id="paint4_linear_3064_17391" x1="274.219" y1="195.306" x2="303.594" y2="238.813" gradientUnits="userSpaceOnUse">
<stop offset="0.178892" stop-color="#0E4071"/>
<stop offset="0.192141" stop-color="#0E4071"/>
<stop offset="0.412734" stop-color="#031A30"/>
</linearGradient>
<linearGradient id="paint5_linear_3064_17391" x1="-0.000930614" y1="0.0810461" x2="-0.180826" y2="1.26391" gradientUnits="userSpaceOnUse">
<stop stop-color="#08F7DB"/>
<stop offset="0.887375" stop-color="#0F81F0"/>
</linearGradient>
<linearGradient id="paint6_linear_3064_17391" x1="70.1061" y1="204.182" x2="57.4169" y2="223.351" gradientUnits="userSpaceOnUse">
<stop offset="0.155289" stop-color="#031A30"/>
<stop offset="0.514591" stop-color="#0F81F0"/>
<stop offset="1" stop-color="#031A30"/>
</linearGradient>
<linearGradient id="paint7_linear_3064_17391" x1="70.1061" y1="203.966" x2="57.4169" y2="223.134" gradientUnits="userSpaceOnUse">
<stop offset="0.155289" stop-color="#031A30"/>
<stop offset="0.514591" stop-color="#0F81F0"/>
<stop offset="1" stop-color="#031A30"/>
</linearGradient>
<linearGradient id="paint8_linear_3064_17391" x1="68.7562" y1="205.855" x2="55.4697" y2="245.435" gradientUnits="userSpaceOnUse">
<stop offset="0.0596716" stop-color="#6FB3F6"/>
<stop offset="0.138721" stop-color="white"/>
</linearGradient>
<radialGradient id="paint9_radial_3064_17391" cx="0" cy="0" r="1" gradientUnits="userSpaceOnUse" gradientTransform="translate(64.9689 203.752) rotate(76.8094) scale(17.7471 17.7471)">
<stop stop-color="#9FCDF9"/>
<stop offset="1" stop-color="#6FB3F6"/>
</radialGradient>
<linearGradient id="paint10_linear_3064_17391" x1="35.851" y1="188.922" x2="25.242" y2="204.948" gradientUnits="userSpaceOnUse">
<stop offset="0.155289" stop-color="#031A30"/>
<stop offset="0.514591" stop-color="#0F81F0"/>
<stop offset="1" stop-color="#031A30"/>
</linearGradient>
<linearGradient id="paint11_linear_3064_17391" x1="35.851" y1="188.74" x2="25.242" y2="204.767" gradientUnits="userSpaceOnUse">
<stop offset="0.155289" stop-color="#031A30"/>
<stop offset="0.514591" stop-color="#0F81F0"/>
<stop offset="1" stop-color="#031A30"/>
</linearGradient>
<linearGradient id="paint12_linear_3064_17391" x1="34.7224" y1="190.32" x2="23.614" y2="223.412" gradientUnits="userSpaceOnUse">
<stop offset="0.0596716" stop-color="#6FB3F6"/>
<stop offset="0.138721" stop-color="white"/>
</linearGradient>
<radialGradient id="paint13_radial_3064_17391" cx="0" cy="0" r="1" gradientUnits="userSpaceOnUse" gradientTransform="translate(31.5544 184.903) rotate(76.8094) scale(14.8377)">
<stop stop-color="#9FCDF9"/>
<stop offset="1" stop-color="#6FB3F6"/>
</radialGradient>
<linearGradient id="paint14_linear_3064_17391" x1="227.851" y1="209.922" x2="217.242" y2="225.948" gradientUnits="userSpaceOnUse">
<stop offset="0.155289" stop-color="#031A30"/>
<stop offset="0.514591" stop-color="#0F81F0"/>
<stop offset="1" stop-color="#031A30"/>
</linearGradient>
<linearGradient id="paint15_linear_3064_17391" x1="227.851" y1="209.74" x2="217.242" y2="225.767" gradientUnits="userSpaceOnUse">
<stop offset="0.155289" stop-color="#031A30"/>
<stop offset="0.514591" stop-color="#0F81F0"/>
<stop offset="1" stop-color="#031A30"/>
</linearGradient>
<linearGradient id="paint16_linear_3064_17391" x1="226.722" y1="211.32" x2="215.614" y2="244.412" gradientUnits="userSpaceOnUse">
<stop offset="0.0596716" stop-color="#6FB3F6"/>
<stop offset="0.138721" stop-color="white"/>
</linearGradient>
<radialGradient id="paint17_radial_3064_17391" cx="0" cy="0" r="1" gradientUnits="userSpaceOnUse" gradientTransform="translate(223.554 205.903) rotate(76.8094) scale(14.8377)">
<stop stop-color="#9FCDF9"/>
<stop offset="1" stop-color="#6FB3F6"/>
</radialGradient>
</defs>
</svg>
