<svg width="300" height="300" viewBox="0 0 300 300" fill="none" xmlns="http://www.w3.org/2000/svg">
<rect width="32.4261" height="32.4261" transform="matrix(0.866025 0.5 -0.866025 0.5 262.391 192)" fill="#BECFE9"/>
<rect width="32.4261" height="32.4261" transform="matrix(0.866025 0.5 -0.866025 0.5 262.391 192)" fill="url(#paint0_linear_3059_5181)"/>
<path d="M290.469 209.933L290.469 208.211L262.387 224.424L262.448 226.146L290.469 209.933Z" fill="#CBDBF5"/>
<path d="M234.305 209.937L234.305 208.215L262.385 224.428L262.446 226.15L234.305 209.937Z" fill="#E4F0FF"/>
<circle cx="0.863947" cy="0.863947" r="0.863947" transform="matrix(0.866025 0.5 -0.866025 0.5 262.391 221.273)" fill="#0C0C0C"/>
<circle cx="0.863947" cy="0.863947" r="0.863947" transform="matrix(0.866025 0.5 -0.866025 0.5 262.391 221.273)" fill="url(#paint1_linear_3059_5181)"/>
<circle cx="0.863947" cy="0.863947" r="0.863947" transform="matrix(0.866025 0.5 -0.866025 0.5 287.086 207.266)" fill="#0C0C0C"/>
<circle cx="0.863947" cy="0.863947" r="0.863947" transform="matrix(0.866025 0.5 -0.866025 0.5 287.086 207.266)" fill="url(#paint2_linear_3059_5181)"/>
<circle cx="0.863947" cy="0.863947" r="0.863947" transform="matrix(0.866025 0.5 -0.866025 0.5 237.781 207.203)" fill="#0C0C0C"/>
<circle cx="0.863947" cy="0.863947" r="0.863947" transform="matrix(0.866025 0.5 -0.866025 0.5 237.781 207.203)" fill="url(#paint3_linear_3059_5181)"/>
<path d="M260.636 194.808H264.192L284.047 206.271L284.047 208.264L264.181 219.734H260.647L240.968 208.372L240.968 206.163L260.636 194.808Z" fill="white"/>
<path d="M260.636 194.808H264.192L284.047 206.271L284.047 208.264L264.181 219.734H260.647L240.968 208.372L240.968 206.163L260.636 194.808Z" fill="url(#paint4_linear_3059_5181)"/>
<path d="M264.172 220.704V219.738L284.032 208.258V209.156L264.172 220.704Z" fill="#7D97C2"/>
<path d="M264.174 220.704V219.738L260.641 219.734V220.632L264.174 220.704Z" fill="#CBDBF5"/>
<path d="M240.961 209.337V208.371L260.64 219.732V220.63L240.961 209.337Z" fill="#E4F0FF"/>
<circle cx="0.863947" cy="0.863947" r="0.863947" transform="matrix(0.866025 0.5 -0.866025 0.5 262.391 192.91)" fill="#0C0C0C"/>
<circle cx="0.863947" cy="0.863947" r="0.863947" transform="matrix(0.866025 0.5 -0.866025 0.5 262.391 192.91)" fill="url(#paint5_linear_3059_5181)"/>
<path d="M265.188 223.297L266.33 222.637L267.81 223.491L266.667 224.151L265.188 223.297Z" fill="#657A94"/>
<path fill-rule="evenodd" clip-rule="evenodd" d="M267.812 223.484L266.669 224.144V225.852L267.029 225.644L267.531 225.355L267.812 225.192V223.484Z" fill="#7D97C2"/>
<path d="M267.635 225.891L268.136 225.602L267.531 225.355L267.029 225.644L267.635 225.891Z" fill="#031A30"/>
<path d="M267.273 222.109L268.416 221.449L269.896 222.304L268.753 222.963L267.273 222.109Z" fill="#657A94"/>
<path fill-rule="evenodd" clip-rule="evenodd" d="M269.898 222.296L268.755 222.956V224.665L269.115 224.457L269.617 224.167L269.898 224.005V222.296Z" fill="#7D97C2"/>
<path d="M269.721 224.704L270.222 224.414L269.617 224.167L269.115 224.457L269.721 224.704Z" fill="#031A30"/>
<path d="M269.422 220.89L270.565 220.23L272.044 221.085L270.902 221.745L269.422 220.89Z" fill="#657A94"/>
<path fill-rule="evenodd" clip-rule="evenodd" d="M272.046 221.078L270.903 221.737V223.446L271.264 223.238L271.765 222.948L272.046 222.786V221.078Z" fill="#7D97C2"/>
<path d="M271.869 223.485L272.371 223.196L271.765 222.948L271.264 223.238L271.869 223.485Z" fill="#031A30"/>
<path d="M271.383 219.754L272.526 219.094L274.005 219.948L272.863 220.608L271.383 219.754Z" fill="#657A94"/>
<path fill-rule="evenodd" clip-rule="evenodd" d="M274.007 219.941L272.864 220.601V222.309L273.225 222.101L273.726 221.812L274.007 221.649V219.941Z" fill="#7D97C2"/>
<path d="M273.83 222.348L274.332 222.059L273.726 221.812L273.225 222.101L273.83 222.348Z" fill="#031A30"/>
<path d="M273.336 218.617L274.479 217.957L275.959 218.811L274.816 219.471L273.336 218.617Z" fill="#657A94"/>
<path fill-rule="evenodd" clip-rule="evenodd" d="M275.96 218.804L274.817 219.464V221.173L275.178 220.964L275.679 220.675L275.96 220.513V218.804Z" fill="#7D97C2"/>
<path d="M275.783 221.212L276.285 220.922L275.679 220.675L275.178 220.964L275.783 221.212Z" fill="#031A30"/>
<path d="M275.297 217.48L276.44 216.82L277.919 217.675L276.777 218.334L275.297 217.48Z" fill="#657A94"/>
<path fill-rule="evenodd" clip-rule="evenodd" d="M277.921 217.667L276.778 218.327V220.036L277.139 219.828L277.64 219.538L277.921 219.376V217.667Z" fill="#7D97C2"/>
<path d="M277.744 220.075L278.246 219.785L277.64 219.538L277.139 219.828L277.744 220.075Z" fill="#031A30"/>
<path d="M277.258 216.34L278.401 215.68L279.88 216.534L278.738 217.194L277.258 216.34Z" fill="#657A94"/>
<path fill-rule="evenodd" clip-rule="evenodd" d="M279.882 216.527L278.739 217.187V218.895L279.1 218.687L279.601 218.398L279.882 218.235V216.527Z" fill="#7D97C2"/>
<path d="M279.705 218.934L280.207 218.645L279.601 218.398L279.1 218.687L279.705 218.934Z" fill="#031A30"/>
<path d="M279.203 215.199L280.346 214.539L281.826 215.393L280.683 216.053L279.203 215.199Z" fill="#657A94"/>
<path fill-rule="evenodd" clip-rule="evenodd" d="M281.827 215.386L280.684 216.046V217.755L281.045 217.546L281.546 217.257L281.827 217.095V215.386Z" fill="#7D97C2"/>
<path d="M281.651 217.794L282.152 217.504L281.546 217.257L281.045 217.546L281.651 217.794Z" fill="#031A30"/>
<path d="M281.172 214.062L282.315 213.402L283.794 214.257L282.652 214.916L281.172 214.062Z" fill="#657A94"/>
<path fill-rule="evenodd" clip-rule="evenodd" d="M283.796 214.249L282.653 214.909V216.618L283.014 216.41L283.515 216.12L283.796 215.958V214.249Z" fill="#7D97C2"/>
<path d="M283.619 216.657L284.121 216.367L283.515 216.12L283.014 216.41L283.619 216.657Z" fill="#031A30"/>
<path d="M283.133 212.925L284.276 212.266L285.755 213.12L284.613 213.78L283.133 212.925Z" fill="#657A94"/>
<path fill-rule="evenodd" clip-rule="evenodd" d="M285.757 213.113L284.614 213.773V215.481L284.975 215.273L285.476 214.984L285.757 214.821V213.113Z" fill="#7D97C2"/>
<path d="M285.58 215.52L286.082 215.231L285.476 214.984L284.975 215.273L285.58 215.52Z" fill="#031A30"/>
<path d="M285.086 211.789L286.229 211.129L287.709 211.983L286.566 212.643L285.086 211.789Z" fill="#657A94"/>
<path fill-rule="evenodd" clip-rule="evenodd" d="M287.71 211.976L286.567 212.636V214.344L286.928 214.136L287.429 213.847L287.71 213.685V211.976Z" fill="#7D97C2"/>
<path d="M287.533 214.383L288.035 214.094L287.429 213.847L286.928 214.136L287.533 214.383Z" fill="#031A30"/>
<path d="M259.617 223.297L258.474 222.637L256.995 223.491L258.137 224.151L259.617 223.297Z" fill="#657A94"/>
<path fill-rule="evenodd" clip-rule="evenodd" d="M256.993 223.484L258.136 224.144V225.852L257.775 225.644L257.274 225.355L256.993 225.192V223.484Z" fill="#7D97C2"/>
<path d="M257.17 225.891L256.668 225.602L257.274 225.355L257.775 225.644L257.17 225.891Z" fill="#031A30"/>
<path d="M257.531 222.109L256.388 221.449L254.909 222.304L256.052 222.963L257.531 222.109Z" fill="#657A94"/>
<path fill-rule="evenodd" clip-rule="evenodd" d="M254.907 222.296L256.05 222.956V224.665L255.689 224.457L255.188 224.167L254.907 224.005V222.296Z" fill="#7D97C2"/>
<path d="M255.084 224.704L254.583 224.414L255.188 224.167L255.689 224.457L255.084 224.704Z" fill="#031A30"/>
<path d="M255.383 220.89L254.24 220.23L252.76 221.085L253.903 221.745L255.383 220.89Z" fill="#657A94"/>
<path fill-rule="evenodd" clip-rule="evenodd" d="M252.759 221.078L253.902 221.737V223.446L253.541 223.238L253.04 222.948L252.759 222.786V221.078Z" fill="#7D97C2"/>
<path d="M252.935 223.485L252.434 223.196L253.04 222.948L253.541 223.238L252.935 223.485Z" fill="#031A30"/>
<path d="M253.422 219.754L252.279 219.094L250.799 219.948L251.942 220.608L253.422 219.754Z" fill="#657A94"/>
<path fill-rule="evenodd" clip-rule="evenodd" d="M250.798 219.941L251.941 220.601V222.309L251.58 222.101L251.079 221.812L250.798 221.649V219.941Z" fill="#7D97C2"/>
<path d="M250.974 222.348L250.473 222.059L251.079 221.812L251.58 222.101L250.974 222.348Z" fill="#031A30"/>
<path d="M251.469 218.617L250.326 217.957L248.846 218.811L249.989 219.471L251.469 218.617Z" fill="#657A94"/>
<path fill-rule="evenodd" clip-rule="evenodd" d="M248.845 218.804L249.988 219.464V221.173L249.627 220.964L249.126 220.675L248.845 220.513V218.804Z" fill="#7D97C2"/>
<path d="M249.021 221.212L248.52 220.922L249.126 220.675L249.627 220.964L249.021 221.212Z" fill="#031A30"/>
<path d="M249.508 217.48L248.365 216.82L246.885 217.675L248.028 218.334L249.508 217.48Z" fill="#657A94"/>
<path fill-rule="evenodd" clip-rule="evenodd" d="M246.884 217.667L248.027 218.327V220.036L247.666 219.828L247.165 219.538L246.884 219.376V217.667Z" fill="#7D97C2"/>
<path d="M247.06 220.075L246.559 219.785L247.165 219.538L247.666 219.828L247.06 220.075Z" fill="#031A30"/>
<path d="M247.547 216.34L246.404 215.68L244.924 216.534L246.067 217.194L247.547 216.34Z" fill="#657A94"/>
<path fill-rule="evenodd" clip-rule="evenodd" d="M244.923 216.527L246.066 217.187V218.895L245.705 218.687L245.204 218.398L244.923 218.235V216.527Z" fill="#7D97C2"/>
<path d="M245.099 218.934L244.598 218.645L245.204 218.398L245.705 218.687L245.099 218.934Z" fill="#031A30"/>
<path d="M245.602 215.199L244.459 214.539L242.979 215.393L244.122 216.053L245.602 215.199Z" fill="#657A94"/>
<path fill-rule="evenodd" clip-rule="evenodd" d="M242.977 215.386L244.12 216.046V217.755L243.76 217.546L243.258 217.257L242.977 217.095V215.386Z" fill="#7D97C2"/>
<path d="M243.154 217.794L242.653 217.504L243.258 217.257L243.76 217.546L243.154 217.794Z" fill="#031A30"/>
<path d="M243.633 214.062L242.49 213.402L241.01 214.257L242.153 214.916L243.633 214.062Z" fill="#657A94"/>
<path fill-rule="evenodd" clip-rule="evenodd" d="M241.009 214.249L242.152 214.909V216.618L241.791 216.41L241.29 216.12L241.009 215.958V214.249Z" fill="#7D97C2"/>
<path d="M241.185 216.657L240.684 216.367L241.29 216.12L241.791 216.41L241.185 216.657Z" fill="#031A30"/>
<path d="M241.672 212.925L240.529 212.266L239.049 213.12L240.192 213.78L241.672 212.925Z" fill="#657A94"/>
<path fill-rule="evenodd" clip-rule="evenodd" d="M239.048 213.113L240.191 213.773V215.481L239.83 215.273L239.329 214.984L239.048 214.821V213.113Z" fill="#7D97C2"/>
<path d="M239.224 215.52L238.723 215.231L239.329 214.984L239.83 215.273L239.224 215.52Z" fill="#031A30"/>
<path d="M239.719 211.789L238.576 211.129L237.096 211.983L238.239 212.643L239.719 211.789Z" fill="#657A94"/>
<path fill-rule="evenodd" clip-rule="evenodd" d="M237.095 211.976L238.238 212.636V214.344L237.877 214.136L237.376 213.847L237.095 213.685V211.976Z" fill="#7D97C2"/>
<path d="M237.271 214.383L236.77 214.094L237.376 213.847L237.877 214.136L237.271 214.383Z" fill="#031A30"/>
<path fill-rule="evenodd" clip-rule="evenodd" d="M257.787 164.387C257.787 165.556 257.015 166.724 255.47 167.616L154.79 225.744C151.701 227.527 146.692 227.527 143.603 225.744L42.9225 167.616C41.4397 166.76 40.6687 165.649 40.6094 164.527V186.056C40.6687 187.177 41.4397 188.289 42.9225 189.145L143.603 247.273C146.692 249.056 151.701 249.056 154.79 247.273L255.47 189.145C257.015 188.253 257.787 187.084 257.787 185.916V164.387Z" fill="#7D97C2"/>
<path fill-rule="evenodd" clip-rule="evenodd" d="M40.6131 164.526C40.5488 163.311 41.3199 162.084 42.9262 161.157L143.607 103.029C146.696 101.246 151.704 101.246 154.793 103.029L255.474 161.157C257.018 162.049 257.79 163.217 257.79 164.386V185.915C257.79 184.746 257.018 183.577 255.474 182.686L154.793 124.558C151.704 122.774 146.696 122.774 143.607 124.558L42.9262 182.686C41.3199 183.613 40.5488 184.84 40.6131 186.055V164.526Z" fill="#7D97C2"/>
<path d="M143.607 103.017C146.696 101.234 151.704 101.234 154.793 103.017L255.474 161.145C258.563 162.929 258.563 165.82 255.474 167.604L154.793 225.732C151.704 227.515 146.696 227.515 143.607 225.732L42.9262 167.604C39.8371 165.82 39.8372 162.929 42.9262 161.145L143.607 103.017Z" fill="#F0F0F0"/>
<path d="M144.727 116.695C147.14 115.305 151.054 115.305 153.468 116.695L232.142 162.007C234.556 163.398 234.556 165.652 232.142 167.042L153.468 212.354C151.054 213.744 147.14 213.744 144.727 212.354L66.0526 167.042C63.6387 165.652 63.6388 163.398 66.0526 162.007L144.727 116.695Z" fill="#031A30"/>
<path d="M204.373 126.211C204.373 126.211 207.919 126.816 207.919 131.574V142.213H203.508L204.459 126.211H204.373Z" fill="#263320"/>
<path d="M206.626 129.152C206.28 128.719 205.761 128.373 205.155 128.027L189.672 119.118L190.796 117.215L206.28 126.124C207.145 126.643 207.75 127.162 208.269 127.768L206.539 129.238L206.626 129.152Z" fill="#F0F0F0"/>
<path d="M205.146 106.318V172.836C205.146 174.22 204.454 174.739 203.243 175.431C202.638 175.777 202.032 175.95 201.34 175.95C200.648 175.95 200.043 175.777 199.437 175.431L188.365 169.03L185.424 167.3L141.05 141.696C138.455 140.226 134.909 139.62 131.276 139.966C129.459 140.139 127.729 140.658 126.259 141.35L124.962 138.669C126.691 137.804 128.767 137.285 130.93 137.025C135.168 136.593 143.732 139.88 146.846 141.61L154.112 145.848L185.424 163.927L187.241 164.965L188.365 165.657L200.908 172.922C201.34 173.182 201.6 172.922 201.773 172.922C201.946 172.922 202.205 172.576 202.205 172.144V106.318C202.205 103.723 200.821 101.388 198.572 100.09L140.964 66.8748C138.369 65.4043 134.822 64.7988 131.189 65.1448C129.286 65.3178 127.556 65.8368 126.172 66.5288L124.875 63.8473C126.605 62.9824 128.681 62.3769 130.93 62.1174C135.168 61.6849 139.407 62.4634 142.521 64.1933L200.129 97.4089C203.243 99.2254 205.232 102.599 205.232 106.232L205.146 106.318Z" fill="#F0F0F0"/>
<path d="M198.583 100.001L140.975 66.7858C138.467 65.3153 134.834 64.7098 131.201 65.0558C129.298 65.2288 127.568 65.7478 126.184 66.4398C124.54 67.3048 123.416 68.3428 122.983 69.4673C122.464 71.0243 123.502 72.6677 125.665 73.8787L183.273 107.094C186.387 108.911 188.377 112.284 188.377 115.917V162.973L186.647 161.848L185.349 167.211L199.362 175.255L199.708 175.428C200.832 176.034 202.13 175.255 202.13 174.044V106.143C202.13 103.548 200.746 101.212 198.497 99.9149L198.583 100.001Z" fill="#263320"/>
<path d="M126.611 137.455C127.389 137.023 128.341 136.677 129.292 136.504C129.638 136.936 129.898 137.455 130.157 137.974C129.552 138.147 128.946 138.32 128.427 138.58C127.389 139.185 126.957 139.964 127.043 140.742C127.13 141.348 127.649 141.953 128.341 142.386L188.544 177.158L186.641 178.196L126.438 143.424C125.227 142.732 124.535 141.867 124.362 140.915C124.189 139.618 124.881 138.407 126.524 137.542L126.611 137.455Z" fill="#7B9A5B"/>
<path d="M183.271 107.184L125.662 73.9681C123.499 72.7571 122.548 71.1136 122.98 69.5566C123.326 68.4321 124.451 67.3076 126.181 66.5291L124.883 63.8477C122.461 65.0587 120.818 66.7021 120.212 68.6916C119.607 70.5946 120.039 72.5841 121.423 74.2276C122.115 75.0926 123.067 75.8711 124.191 76.5631L181.8 109.779C184.049 111.076 185.433 113.412 185.433 116.007V181.833C185.433 182.266 185.087 182.525 185.001 182.612C184.828 182.612 184.482 182.871 184.136 182.612L155.245 165.917C155.158 166.955 154.985 168.08 154.899 169.118L182.665 185.207C183.271 185.553 183.963 185.726 184.568 185.726C185.174 185.726 185.866 185.553 186.471 185.207C187.682 184.515 188.374 184.428 188.374 181.833V116.007C188.374 112.374 186.471 109 183.271 107.184Z" fill="#F0F0F0"/>
<path d="M181.808 109.777L124.199 76.5616C123.68 76.3021 123.248 75.9561 122.815 75.6101C122.642 75.4371 122.383 75.2641 122.21 75.0911C122.21 75.0911 122.123 75.0046 122.037 74.9181C121.777 74.6586 121.604 74.4856 121.431 74.2261C120.566 73.1017 120.047 71.8907 119.961 70.6797V145.501C120.047 147.75 121.604 149.913 124.199 151.47L182.586 185.204C184.576 186.242 185.354 184.858 185.354 183.474V116.005C185.354 113.41 183.97 111.075 181.721 109.777H181.808Z" fill="#E8FBDE"/>
<g style="mix-blend-mode:multiply">
<path d="M202.217 138.496L195.816 142.215C192.01 144.378 187.685 145.935 183.792 143.772L156.632 128.116L155.075 127.165C154.556 126.819 153.864 126.732 153.518 127.424C153.518 127.424 153.518 127.511 153.518 127.597C153.518 127.597 153.518 127.77 153.345 127.943C153.345 128.203 153.172 128.549 153.172 128.808V142.561C153.172 143.772 153.518 144.897 154.123 145.848C154.642 146.713 155.421 147.492 156.286 148.011L183.792 163.927C185.349 164.792 185.868 165.311 187.252 165.051C187.598 165.051 187.944 164.878 188.377 164.792C190.799 164.013 199.103 156.747 201.352 158.218C201.611 158.391 201.871 158.477 202.217 158.477C203.255 158.477 204.379 157.785 205.158 157.266V136.939L202.217 138.669V138.496Z" fill="#263320"/>
</g>
<path d="M207.243 130.881V134.687C206.983 134.86 206.637 135.119 206.378 135.292L195.998 141.261C192.192 143.423 186.223 143.423 182.417 141.261L155.257 125.604L153.7 124.653C153.181 124.307 152.489 124.22 152.143 124.912C152.143 124.912 152.143 124.999 152.143 125.085C152.143 125.172 152.143 125.258 152.056 125.431C151.97 125.691 151.883 126.037 151.883 126.296V126.815V140.05C151.883 142.299 153.094 144.375 154.997 145.499L182.504 161.415C184.407 162.539 186.915 163.058 189.337 163.058C191.759 163.058 194.181 162.539 196.084 161.415L206.464 155.446C208.194 154.408 209.319 153.025 209.578 151.554C209.578 151.381 209.578 151.122 209.578 150.949V131.054H207.329L207.243 130.881ZM151.883 125.345C151.883 125.431 151.883 125.518 151.883 125.691C151.883 125.604 151.883 125.431 151.883 125.345Z" fill="#E8FBDE"/>
<path d="M209.489 130.878C209.489 131.051 209.489 131.224 209.489 131.397C209.316 132.608 208.537 133.733 207.326 134.598C207.067 134.771 206.721 135.03 206.461 135.203L196.081 141.172C192.276 143.334 186.282 143.576 182.476 141.413L155.341 125.515L153.784 124.564C153.265 124.218 152.573 124.131 152.227 124.823C152.486 124.304 152.919 123.872 153.438 123.526C154.389 123.007 155.514 123.007 156.552 123.526L183.712 139.182C186.826 140.999 192.016 140.999 195.044 139.182L205.423 133.214C206.548 132.522 207.24 131.743 207.413 130.965C207.499 130.359 207.24 129.721 206.721 129.116L208.451 127.732C209.229 128.683 209.748 129.84 209.662 130.878H209.489Z" fill="#F0F0F0"/>
<path d="M163.64 140.056C163.64 137.548 161.824 134.607 159.748 133.396C158.71 132.79 157.758 132.79 157.066 133.136L155.855 133.828C155.423 134.434 155.25 135.126 155.25 136.077C155.25 138.586 157.066 141.527 159.142 142.738C159.921 143.17 160.699 143.343 161.305 143.17L162.343 142.651C162.343 142.651 162.516 142.565 162.602 142.478C163.208 142.046 163.64 141.181 163.554 140.056H163.64Z" fill="#F0F0F0"/>
<path d="M162.527 140.666C162.527 143.174 160.883 144.212 158.721 143.001C156.558 141.79 154.828 138.849 154.828 136.341C154.828 133.832 156.472 132.794 158.634 134.005C160.797 135.216 162.527 138.157 162.527 140.666Z" fill="#9FCDF9"/>
<path d="M162.282 140.75C162.282 143.086 160.725 144.037 158.649 142.913C156.573 141.788 155.016 139.02 154.93 136.685C154.93 134.349 156.487 133.398 158.563 134.522C160.552 135.647 162.196 138.415 162.282 140.75Z" fill="#263320"/>
<path d="M149.352 83.3867C149.525 83.3867 149.698 83.5597 150.044 83.8192L149.352 83.4732V83.3867Z" fill="#3C6D19"/>
<path fill-rule="evenodd" clip-rule="evenodd" d="M93.6719 122.894C94.1329 122.594 94.7873 122.619 95.5133 123.038L113.707 133.542C117.532 135.75 120.632 141.12 120.632 145.536C120.632 147.744 119.857 149.295 118.604 150.019L122.049 148.03C123.302 147.306 124.077 145.755 124.077 143.547C124.077 139.131 120.977 133.761 117.153 131.553L98.9588 121.048C98.2329 120.629 97.5784 120.605 97.1174 120.904L93.6719 122.894Z" fill="#263320"/>
<path fill-rule="evenodd" clip-rule="evenodd" d="M118.584 150.017C117.331 150.741 115.6 150.636 113.688 149.532L117.133 147.543C119.045 148.647 120.776 148.752 122.03 148.028L118.584 150.017Z" fill="#263320"/>
<path fill-rule="evenodd" clip-rule="evenodd" d="M113.688 149.532C117.512 151.74 120.612 157.11 120.612 161.526C120.612 163.646 119.898 165.161 118.732 165.919L122.178 163.929C123.343 163.171 124.058 161.657 124.058 159.537C124.058 155.121 120.958 149.751 117.133 147.543L113.688 149.532Z" fill="#263320"/>
<path fill-rule="evenodd" clip-rule="evenodd" d="M118.743 165.926C117.48 166.747 115.687 166.68 113.698 165.532L95.5042 155.027C94.1082 154.221 92.9766 152.261 92.9766 150.649V124.503C92.9766 123.729 93.2373 123.176 93.6629 122.899L97.1084 120.91C96.6828 121.187 96.4221 121.74 96.4221 122.513V148.66C96.4221 150.272 97.5538 152.232 98.9498 153.038L117.144 163.542C119.132 164.691 120.925 164.758 122.188 163.937L118.743 165.926Z" fill="#263320"/>
<path fill-rule="evenodd" clip-rule="evenodd" d="M123.25 139.972C123.711 139.672 124.365 139.697 125.091 140.116L143.338 150.651C147.163 152.859 150.263 158.229 150.263 162.645C150.263 164.764 149.549 166.279 148.383 167.037L151.829 165.048C152.994 164.29 153.709 162.775 153.709 160.655C153.709 156.239 150.608 150.869 146.784 148.661L128.537 138.126C127.811 137.707 127.157 137.683 126.696 137.983L123.25 139.972Z" fill="#263320"/>
<path fill-rule="evenodd" clip-rule="evenodd" d="M148.404 167.04C147.141 167.861 145.348 167.794 143.359 166.646L146.805 164.656C148.794 165.804 150.587 165.872 151.85 165.051L148.404 167.04Z" fill="#263320"/>
<path fill-rule="evenodd" clip-rule="evenodd" d="M143.359 166.646C147.184 168.854 150.284 174.224 150.284 178.64C150.284 180.759 149.57 182.274 148.404 183.032L151.85 181.043C153.015 180.285 153.73 178.77 153.73 176.65C153.73 172.234 150.629 166.864 146.805 164.656L143.359 166.646Z" fill="#263320"/>
<path fill-rule="evenodd" clip-rule="evenodd" d="M148.399 183.038C147.136 183.859 145.343 183.792 143.355 182.644C139.53 180.435 136.43 175.066 136.43 170.649L139.875 168.66C139.875 173.076 142.976 178.446 146.8 180.654C148.789 181.802 150.582 181.87 151.845 181.049L148.399 183.038Z" fill="#263320"/>
<path fill-rule="evenodd" clip-rule="evenodd" d="M136.427 170.649C136.427 172.769 135.713 174.284 134.547 175.042L137.992 173.052C139.158 172.294 139.873 170.78 139.873 168.66L136.427 170.649Z" fill="#263320"/>
<path fill-rule="evenodd" clip-rule="evenodd" d="M134.548 175.042C133.285 175.863 131.492 175.796 129.503 174.648C125.678 172.44 122.578 167.07 122.578 162.654V141.585C122.578 140.811 122.839 140.258 123.264 139.981L126.71 137.992C126.284 138.269 126.024 138.822 126.024 139.595V160.665C126.024 165.081 129.124 170.451 132.949 172.659C134.937 173.807 136.73 173.874 137.993 173.053L134.548 175.042Z" fill="#263320"/>
<path fill-rule="evenodd" clip-rule="evenodd" d="M100.812 172.564C100.572 172.707 100.264 172.741 99.8865 172.666C99.4581 172.581 98.9854 172.389 98.4683 172.09L94.6016 169.858V160.774L98.0471 158.785V167.869L101.914 170.101C102.431 170.4 102.904 170.591 103.332 170.677C103.709 170.752 104.017 170.718 104.257 170.575L100.812 172.564Z" fill="#263320"/>
<path fill-rule="evenodd" clip-rule="evenodd" d="M94.6016 160.774L99.1663 163.41C99.5356 163.623 99.8533 163.922 100.119 164.305C100.393 164.685 100.599 165.094 100.74 165.534C100.887 165.977 100.961 166.391 100.961 166.774C100.961 167.193 100.865 167.542 100.673 167.824C100.596 167.944 100.501 168.037 100.39 168.103L103.835 166.113C103.947 166.047 104.041 165.954 104.119 165.834C104.311 165.553 104.407 165.203 104.407 164.785C104.407 164.402 104.333 163.988 104.185 163.544C104.045 163.105 103.838 162.696 103.565 162.316C103.299 161.932 102.981 161.634 102.612 161.421L98.0471 158.785L94.6016 160.774Z" fill="#263320"/>
<path fill-rule="evenodd" clip-rule="evenodd" d="M100.394 168.099C100.241 168.19 100.054 168.229 99.8359 168.216L103.281 166.227C103.5 166.239 103.686 166.2 103.84 166.109L100.394 168.099Z" fill="#263320"/>
<path fill-rule="evenodd" clip-rule="evenodd" d="M99.8359 168.216C100.287 168.63 100.641 169.103 100.9 169.636C101.165 170.173 101.298 170.757 101.298 171.389C101.298 171.935 101.169 172.303 100.911 172.495C100.881 172.519 100.849 172.54 100.816 172.56L104.262 170.571C104.295 170.551 104.326 170.53 104.356 170.506C104.615 170.314 104.744 169.945 104.744 169.4C104.744 168.768 104.611 168.184 104.345 167.647C104.087 167.114 103.732 166.64 103.281 166.227L99.8359 168.216Z" fill="#263320"/>
<path fill-rule="evenodd" clip-rule="evenodd" d="M96.7656 167.481V169.004L98.4719 169.989C98.5901 170.057 98.6971 170.089 98.7932 170.085C98.8412 170.083 98.8837 170.071 98.9206 170.05L102.366 168.06C102.329 168.082 102.287 168.093 102.239 168.095C102.143 168.1 102.036 168.068 101.917 168L100.211 167.014V165.492L96.7656 167.481Z" fill="#263320"/>
<path fill-rule="evenodd" clip-rule="evenodd" d="M98.9206 170.05C98.9575 170.028 98.9889 169.997 99.0148 169.957C99.0738 169.88 99.1034 169.765 99.1034 169.611C99.1034 169.458 99.0776 169.311 99.0259 169.17C98.9816 169.025 98.9187 168.895 98.8375 168.78C98.7563 168.665 98.6602 168.575 98.5495 168.511L96.7656 167.481L100.211 165.492L101.995 166.522C102.106 166.586 102.202 166.676 102.283 166.791C102.364 166.906 102.427 167.036 102.471 167.181C102.523 167.322 102.549 167.469 102.549 167.622C102.549 167.776 102.519 167.891 102.46 167.968C102.434 168.008 102.403 168.039 102.366 168.06L98.9206 170.05Z" fill="#263320"/>
<path fill-rule="evenodd" clip-rule="evenodd" d="M96.7656 164.138V165.532L98.2392 166.383C98.3353 166.438 98.4276 166.475 98.5162 166.492C98.5712 166.497 98.6205 166.488 98.664 166.463L102.11 164.474C102.066 164.498 102.017 164.508 101.962 164.502C101.873 164.485 101.781 164.449 101.685 164.394L100.211 163.543V162.148L96.7656 164.138Z" fill="#263320"/>
<path fill-rule="evenodd" clip-rule="evenodd" d="M98.664 166.463C98.6908 166.449 98.7153 166.428 98.7378 166.402C98.7968 166.334 98.8264 166.206 98.8264 166.018C98.8264 165.848 98.8006 165.701 98.7489 165.577C98.7046 165.449 98.6417 165.34 98.5605 165.251C98.4866 165.157 98.4017 165.082 98.3057 165.027L96.7656 164.138L100.211 162.148L101.751 163.038C101.847 163.093 101.932 163.168 102.006 163.262C102.087 163.351 102.15 163.46 102.194 163.588C102.246 163.711 102.272 163.859 102.272 164.029C102.272 164.217 102.242 164.344 102.183 164.413C102.161 164.439 102.136 164.459 102.11 164.474L98.664 166.463Z" fill="#263320"/>
<path fill-rule="evenodd" clip-rule="evenodd" d="M102.539 165.353L106.151 167.438C106.535 167.66 106.89 167.954 107.215 168.321C107.54 168.687 107.82 169.093 108.057 169.536C108.293 169.971 108.474 170.412 108.6 170.86C108.733 171.312 108.799 171.73 108.799 172.114C108.799 172.464 108.755 172.775 108.666 173.048C108.577 173.321 108.448 173.545 108.278 173.72C108.2 173.796 108.115 173.861 108.023 173.915L111.468 171.926C111.561 171.872 111.646 171.807 111.724 171.73C111.894 171.556 112.023 171.331 112.112 171.059C112.2 170.786 112.245 170.474 112.245 170.124C112.245 169.741 112.178 169.323 112.045 168.871C111.92 168.423 111.739 167.982 111.502 167.547C111.266 167.103 110.985 166.698 110.66 166.331C110.335 165.965 109.981 165.67 109.597 165.449L105.985 163.363L102.539 165.353Z" fill="#263320"/>
<path fill-rule="evenodd" clip-rule="evenodd" d="M108.018 173.911C107.91 173.974 107.792 174.022 107.664 174.054L111.11 172.065C111.237 172.033 111.355 171.985 111.463 171.922L108.018 173.911Z" fill="#263320"/>
<path fill-rule="evenodd" clip-rule="evenodd" d="M107.664 174.048L109.326 178.347L112.772 176.357L111.11 172.059L107.664 174.048Z" fill="#263320"/>
<path fill-rule="evenodd" clip-rule="evenodd" d="M109.327 178.354L106.956 176.986L105.571 173.397L104.695 172.892L108.141 170.902L109.016 171.408L110.401 174.996L112.772 176.365L109.327 178.354Z" fill="#263320"/>
<path fill-rule="evenodd" clip-rule="evenodd" d="M104.695 172.892V175.681L108.141 173.691V170.902L104.695 172.892Z" fill="#263320"/>
<path fill-rule="evenodd" clip-rule="evenodd" d="M104.7 175.683L102.539 174.436V165.353L105.985 163.363V172.447L108.145 173.694L104.7 175.683Z" fill="#263320"/>
<path fill-rule="evenodd" clip-rule="evenodd" d="M106.351 171.516C106.415 171.48 106.469 171.413 106.512 171.316C106.571 171.206 106.601 171.048 106.601 170.843C106.601 170.629 106.568 170.436 106.501 170.261C106.442 170.082 106.365 169.926 106.269 169.794C106.18 169.666 106.091 169.577 106.003 169.525L104.695 168.771L108.141 166.781L109.448 167.536C109.537 167.587 109.626 167.677 109.714 167.805C109.81 167.937 109.888 168.093 109.947 168.272C110.013 168.446 110.047 168.64 110.047 168.853C110.047 169.058 110.017 169.216 109.958 169.327C109.914 169.424 109.861 169.49 109.796 169.527L106.351 171.516Z" fill="#263320"/>
<path fill-rule="evenodd" clip-rule="evenodd" d="M104.695 168.771V170.715L106.058 171.502C106.147 171.553 106.232 171.564 106.313 171.534C106.326 171.529 106.339 171.523 106.351 171.516L109.796 169.527C109.784 169.534 109.771 169.54 109.758 169.545C109.677 169.574 109.592 169.564 109.504 169.512L108.141 168.726V166.781L104.695 168.771Z" fill="#263320"/>
<path fill-rule="evenodd" clip-rule="evenodd" d="M110.281 169.833L112.442 171.08V180.164L115.887 178.175V169.091L113.727 167.844L110.281 169.833Z" fill="#263320"/>
<path fill-rule="evenodd" clip-rule="evenodd" d="M112.442 180.164L110.281 178.916V169.833L113.727 167.844V176.927L115.887 178.175L112.442 180.164Z" fill="#263320"/>
<path fill-rule="evenodd" clip-rule="evenodd" d="M114.078 172.021L116.239 173.268V180.176L119.806 182.236V184.411L123.252 182.422V180.247L119.684 178.187V171.279L117.524 170.031L114.078 172.021Z" fill="#263320"/>
<path fill-rule="evenodd" clip-rule="evenodd" d="M119.806 184.411L114.078 181.104V172.021L117.524 170.031V179.115L123.252 182.422L119.806 184.411Z" fill="#263320"/>
<path fill-rule="evenodd" clip-rule="evenodd" d="M120.836 175.915L122.996 177.162V184.071L126.564 186.131V188.306L130.01 186.316V184.141L126.442 182.082V175.173L124.281 173.926L120.836 175.915Z" fill="#263320"/>
<path fill-rule="evenodd" clip-rule="evenodd" d="M126.564 188.306L120.836 184.999V175.915L124.281 173.926V183.009L130.01 186.316L126.564 188.306Z" fill="#263320"/>
<path fill-rule="evenodd" clip-rule="evenodd" d="M127.594 179.817L129.754 181.065V190.148L133.2 188.159V179.076L131.039 177.828L127.594 179.817Z" fill="#263320"/>
<path fill-rule="evenodd" clip-rule="evenodd" d="M129.754 190.148L127.594 188.901V179.817L131.039 177.828V186.912L133.2 188.159L129.754 190.148Z" fill="#263320"/>
<path fill-rule="evenodd" clip-rule="evenodd" d="M132.078 183.754C132.093 183.745 132.107 183.736 132.122 183.728L135.567 181.738C135.553 181.747 135.538 181.756 135.524 181.765L132.078 183.754Z" fill="#263320"/>
<path fill-rule="evenodd" clip-rule="evenodd" d="M132.141 183.73C132.493 183.523 132.903 183.436 133.371 183.469C133.866 183.507 134.405 183.695 134.989 184.032C135.587 184.377 136.13 184.823 136.617 185.369C137.105 185.906 137.522 186.496 137.869 187.14C138.217 187.784 138.483 188.437 138.667 189.098C138.859 189.754 138.955 190.373 138.955 190.953C138.955 191.55 138.855 192.064 138.656 192.494C138.464 192.93 138.187 193.26 137.825 193.486L141.271 191.497C141.632 191.271 141.909 190.94 142.101 190.505C142.301 190.075 142.4 189.561 142.4 188.964C142.4 188.383 142.305 187.765 142.112 187.108C141.928 186.448 141.662 185.795 141.315 185.151C140.968 184.507 140.55 183.916 140.063 183.379C139.575 182.833 139.032 182.388 138.434 182.042C137.851 181.705 137.311 181.518 136.817 181.479C136.349 181.447 135.938 181.534 135.586 181.741L132.141 183.73Z" fill="#263320"/>
<path fill-rule="evenodd" clip-rule="evenodd" d="M137.808 193.485C137.794 193.494 137.78 193.503 137.766 193.511L141.211 191.522C141.226 191.514 141.24 191.505 141.254 191.496L137.808 193.485Z" fill="#263320"/>
<path fill-rule="evenodd" clip-rule="evenodd" d="M137.761 193.507C137.415 193.71 137.009 193.799 136.541 193.775C136.053 193.741 135.514 193.553 134.923 193.212C134.324 192.866 133.782 192.425 133.294 191.888C132.807 191.342 132.386 190.749 132.031 190.109C131.684 189.466 131.414 188.815 131.222 188.158C131.038 187.497 130.945 186.873 130.945 186.284C130.945 185.678 131.045 185.16 131.244 184.73C131.444 184.299 131.721 183.973 132.075 183.751L135.521 181.762C135.166 181.983 134.889 182.31 134.69 182.74C134.49 183.171 134.391 183.689 134.391 184.295C134.391 184.884 134.483 185.508 134.668 186.169C134.86 186.826 135.13 187.476 135.477 188.12C135.831 188.76 136.252 189.353 136.74 189.898C137.227 190.436 137.77 190.877 138.368 191.223C138.959 191.564 139.499 191.751 139.986 191.785C140.454 191.81 140.861 191.721 141.206 191.517L137.761 193.507Z" fill="#263320"/>
<path fill-rule="evenodd" clip-rule="evenodd" d="M136.154 191.177C136.216 191.142 136.272 191.097 136.323 191.044C136.471 190.89 136.578 190.692 136.644 190.449C136.718 190.201 136.755 189.929 136.755 189.63C136.755 189.323 136.718 189.007 136.644 188.683C136.571 188.359 136.46 188.044 136.312 187.736C136.164 187.421 135.976 187.133 135.747 186.873C135.518 186.613 135.252 186.395 134.949 186.22C134.639 186.041 134.369 185.954 134.14 185.958C133.994 185.964 133.864 185.999 133.75 186.064L137.196 184.075C137.31 184.01 137.44 183.975 137.586 183.969C137.815 183.965 138.085 184.052 138.395 184.231C138.698 184.406 138.964 184.623 139.192 184.884C139.421 185.144 139.61 185.432 139.757 185.747C139.905 186.054 140.016 186.37 140.09 186.694C140.164 187.018 140.201 187.334 140.201 187.641C140.201 187.939 140.164 188.212 140.09 188.459C140.023 188.703 139.916 188.901 139.768 189.054C139.718 189.108 139.662 189.152 139.6 189.187L136.154 191.177Z" fill="#263320"/>
<path fill-rule="evenodd" clip-rule="evenodd" d="M133.752 186.071C133.693 186.105 133.639 186.146 133.588 186.196C133.441 186.332 133.33 186.524 133.256 186.771C133.189 187.014 133.156 187.285 133.156 187.584C133.156 187.89 133.193 188.211 133.267 188.543C133.341 188.867 133.452 189.187 133.599 189.503C133.747 189.81 133.932 190.095 134.153 190.36C134.382 190.62 134.652 190.84 134.962 191.019C135.273 191.198 135.542 191.285 135.771 191.281C135.917 191.278 136.046 191.246 136.156 191.184L139.602 189.194C139.491 189.256 139.363 189.289 139.217 189.292C138.987 189.296 138.718 189.209 138.408 189.029C138.098 188.85 137.828 188.63 137.599 188.371C137.377 188.106 137.193 187.82 137.045 187.513C136.897 187.198 136.786 186.878 136.712 186.554C136.639 186.221 136.602 185.901 136.602 185.594C136.602 185.296 136.635 185.025 136.701 184.782C136.775 184.535 136.886 184.343 137.034 184.206C137.084 184.157 137.139 184.116 137.197 184.082L133.752 186.071Z" fill="#263320"/>
<path fill-rule="evenodd" clip-rule="evenodd" d="M142.305 192.927V197.392L145.75 195.403V190.938L142.305 192.927Z" fill="#263320"/>
<path fill-rule="evenodd" clip-rule="evenodd" d="M142.294 197.387L140.133 196.139V187.056L143.578 185.066V194.15L145.739 195.397L142.294 197.387Z" fill="#263320"/>
<path fill-rule="evenodd" clip-rule="evenodd" d="M140.133 187.056L141.817 188.028L144.974 194.469L148.42 192.48L145.263 186.039L143.578 185.066L140.133 187.056Z" fill="#263320"/>
<path fill-rule="evenodd" clip-rule="evenodd" d="M144.984 194.475V189.856L148.43 187.867V192.485L144.984 194.475Z" fill="#263320"/>
<path fill-rule="evenodd" clip-rule="evenodd" d="M144.984 189.856L147.145 191.104V200.187L150.591 198.198V189.115L148.43 187.867L144.984 189.856Z" fill="#263320"/>
<path fill-rule="evenodd" clip-rule="evenodd" d="M147.146 200.187L145.429 199.196L142.305 192.927L145.75 190.938L148.875 197.207L150.592 198.198L147.146 200.187Z" fill="#263320"/>
<path fill-rule="evenodd" clip-rule="evenodd" d="M95.5042 155.025C94.1082 154.219 92.9766 152.258 92.9766 150.646V124.5C92.9766 122.888 94.1082 122.235 95.5042 123.041L113.698 133.545C117.523 135.753 120.623 141.123 120.623 145.539C120.623 149.955 117.523 151.745 113.698 149.537C117.523 151.745 120.623 157.115 120.623 161.531C120.623 165.947 117.523 167.737 113.698 165.529L95.5042 155.025ZM122.572 141.587C122.572 139.975 123.703 139.321 125.099 140.127L143.346 150.662C147.171 152.87 150.271 158.24 150.271 162.656C150.271 167.072 147.171 168.862 143.346 166.654C147.171 168.862 150.271 174.232 150.271 178.648C150.271 183.064 147.171 184.854 143.346 182.646C139.522 180.438 136.421 175.068 136.421 170.652C136.421 175.068 133.321 176.858 129.497 174.65C125.672 172.442 122.572 167.072 122.572 162.656V141.587ZM101.294 171.394C101.294 171.939 101.165 172.308 100.907 172.5C100.656 172.696 100.316 172.752 99.8874 172.666C99.459 172.581 98.9863 172.389 98.4692 172.091L94.6024 169.858V160.775L99.1672 163.41C99.5365 163.623 99.8542 163.922 100.12 164.306C100.393 164.685 100.6 165.095 100.741 165.534C100.888 165.977 100.962 166.391 100.962 166.775C100.962 167.193 100.866 167.542 100.674 167.824C100.489 168.11 100.209 168.242 99.832 168.221C100.283 168.634 100.637 169.108 100.896 169.641C101.162 170.178 101.294 170.762 101.294 171.394ZM99.1008 169.615C99.1008 169.461 99.0749 169.314 99.0232 169.174C98.9789 169.029 98.916 168.898 98.8348 168.784C98.7536 168.669 98.6575 168.579 98.5468 168.515L96.7629 167.485V169.007L98.4692 169.992C98.5874 170.061 98.6945 170.093 98.7905 170.088C98.8866 170.084 98.9604 170.042 99.0121 169.96C99.0712 169.884 99.1008 169.769 99.1008 169.615ZM96.7629 164.146V165.54L98.2365 166.391C98.3326 166.447 98.4249 166.483 98.5135 166.5C98.6022 166.508 98.6761 166.479 98.7351 166.41C98.7942 166.342 98.8238 166.214 98.8238 166.026C98.8238 165.856 98.798 165.709 98.7462 165.585C98.7019 165.457 98.639 165.348 98.5578 165.259C98.4839 165.165 98.3991 165.09 98.303 165.035L96.7629 164.146ZM102.529 174.435V165.351L106.141 167.437C106.525 167.658 106.88 167.953 107.205 168.319C107.53 168.686 107.81 169.091 108.047 169.535C108.283 169.97 108.464 170.411 108.59 170.859C108.723 171.311 108.789 171.729 108.789 172.112C108.789 172.462 108.745 172.774 108.656 173.047C108.567 173.319 108.438 173.543 108.268 173.718C108.098 173.884 107.895 173.997 107.659 174.057L109.321 178.356L106.95 176.987L105.565 173.398L104.69 172.893V175.682L102.529 174.435ZM104.69 170.718L106.052 171.505C106.141 171.556 106.226 171.567 106.307 171.537C106.388 171.507 106.455 171.434 106.507 171.319C106.566 171.209 106.595 171.051 106.595 170.846C106.595 170.633 106.562 170.439 106.496 170.264C106.437 170.085 106.359 169.929 106.263 169.797C106.174 169.669 106.086 169.58 105.997 169.528L104.69 168.774V170.718ZM110.283 178.911V169.828L112.443 171.075V180.159L110.283 178.911ZM114.076 181.101V172.018L116.237 173.265V180.174L119.804 182.233V184.409L114.076 181.101ZM120.834 185.003V175.92L122.995 177.167V184.075L126.562 186.135V188.31L120.834 185.003ZM127.592 188.905V179.821L129.753 181.069V190.152L127.592 188.905ZM134.931 193.219C134.333 192.873 133.79 192.432 133.303 191.895C132.815 191.349 132.394 190.756 132.039 190.116C131.692 189.473 131.423 188.822 131.231 188.165C131.046 187.504 130.954 186.88 130.954 186.291C130.954 185.685 131.053 185.167 131.253 184.737C131.452 184.306 131.729 183.98 132.084 183.758C132.446 183.532 132.871 183.436 133.358 183.47C133.853 183.509 134.392 183.696 134.976 184.033C135.574 184.378 136.117 184.824 136.604 185.37C137.092 185.907 137.509 186.498 137.856 187.142C138.204 187.786 138.47 188.438 138.654 189.099C138.846 189.756 138.942 190.374 138.942 190.954C138.942 191.551 138.842 192.065 138.643 192.496C138.451 192.931 138.174 193.262 137.812 193.488C137.458 193.709 137.037 193.807 136.549 193.782C136.061 193.748 135.522 193.56 134.931 193.219ZM133.148 187.583C133.148 187.89 133.184 188.21 133.258 188.543C133.332 188.867 133.443 189.187 133.591 189.502C133.738 189.809 133.923 190.095 134.145 190.36C134.373 190.619 134.643 190.839 134.953 191.018C135.264 191.198 135.533 191.285 135.762 191.28C135.991 191.276 136.176 191.2 136.316 191.05C136.464 190.897 136.571 190.699 136.638 190.455C136.711 190.208 136.748 189.935 136.748 189.637C136.748 189.33 136.711 189.014 136.638 188.69C136.564 188.366 136.453 188.05 136.305 187.743C136.158 187.428 135.969 187.14 135.74 186.88C135.511 186.619 135.245 186.402 134.942 186.227C134.632 186.048 134.362 185.961 134.134 185.965C133.912 185.973 133.727 186.05 133.58 186.195C133.432 186.332 133.321 186.524 133.247 186.771C133.181 187.014 133.148 187.285 133.148 187.583ZM142.295 192.929V197.394L140.135 196.146V187.063L141.819 188.035L144.976 194.476V189.858L147.137 191.106V200.189L145.42 199.198L142.295 192.929Z" fill="#E8FBDE"/>
<rect width="27.3083" height="26.8908" rx="5.74105" transform="matrix(0.866025 0.5 -0.866025 0.5 68.3516 214.633)" fill="#7D97C2"/>
<mask id="path-100-outside-1_3059_5181" maskUnits="userSpaceOnUse" x="66.4062" y="225.828" width="5" height="4" fill="black">
<rect fill="white" x="66.4062" y="225.828" width="5" height="4"/>
<path d="M67.4069 227.855C67.407 227.82 67.4235 227.788 67.4513 227.768C68.231 227.207 69.2826 227.207 70.0622 227.768C70.0903 227.788 70.1068 227.821 70.1067 227.855L70.1063 227.932C70.1062 227.973 70.0934 228.012 70.07 228.045C69.4263 228.946 68.0865 228.947 67.4429 228.046C67.4191 228.012 67.4063 227.972 67.4065 227.932L67.4069 227.855Z"/>
</mask>
<path d="M67.4069 227.855C67.407 227.82 67.4235 227.788 67.4513 227.768C68.231 227.207 69.2826 227.207 70.0622 227.768C70.0903 227.788 70.1068 227.821 70.1067 227.855L70.1063 227.932C70.1062 227.973 70.0934 228.012 70.07 228.045C69.4263 228.946 68.0865 228.947 67.4429 228.046C67.4191 228.012 67.4063 227.972 67.4065 227.932L67.4069 227.855Z" fill="url(#paint6_linear_3059_5181)"/>
<path d="M67.4065 227.932L66.5939 227.928L67.4065 227.932ZM70.1063 227.932L70.9189 227.936L70.1063 227.932ZM70.1067 227.855L69.2941 227.852L70.1067 227.855ZM69.2941 227.852L69.2937 227.929L70.9189 227.936L70.9193 227.859L69.2941 227.852ZM68.2191 227.935L68.2195 227.858L66.5943 227.851L66.5939 227.928L68.2191 227.935ZM67.9261 228.428C68.4223 228.07 69.0916 228.07 69.5874 228.427L70.5371 227.108C69.4736 226.343 68.0396 226.343 66.9765 227.109L67.9261 228.428ZM69.4087 227.573C69.0887 228.021 68.4233 228.02 68.1041 227.574L66.7816 228.518C67.7498 229.874 69.7639 229.872 70.7312 228.517L69.4087 227.573ZM66.5939 227.928C66.593 228.14 66.6587 228.346 66.7816 228.518L68.1041 227.574C68.1795 227.679 68.2197 227.805 68.2191 227.935L66.5939 227.928ZM69.2937 227.929C69.2943 227.801 69.3345 227.677 69.4087 227.573L70.7312 228.517C70.8524 228.348 70.918 228.145 70.9189 227.936L69.2937 227.929ZM70.9193 227.859C70.9206 227.561 70.7782 227.282 70.5371 227.108L69.5874 228.427C69.4024 228.294 69.2931 228.08 69.2941 227.852L70.9193 227.859ZM68.2195 227.858C68.2185 228.084 68.1093 228.296 67.9261 228.428L66.9765 227.109C66.7378 227.281 66.5955 227.557 66.5943 227.851L68.2195 227.858Z" fill="#031A30" mask="url(#path-100-outside-1_3059_5181)"/>
<path d="M67.4062 205.855H70.1061V227.994C69.4445 228.92 68.0679 228.92 67.4062 227.994V205.855Z" fill="url(#paint7_linear_3059_5181)"/>
<path d="M67.4062 205.855H70.1061V227.994C69.4445 228.92 68.0679 228.92 67.4062 227.994V205.855Z" fill="url(#paint8_linear_3059_5181)"/>
<path d="M81.2219 212.823C81.2219 217.893 74.0883 221.031 69.0187 221.031C63.949 221.031 56.4375 216.921 56.4375 211.852C56.4375 206.782 63.949 174 69.0187 174C74.0883 174 81.2219 207.754 81.2219 212.823Z" fill="url(#paint9_radial_3059_5181)"/>
<rect width="27.3083" height="26.8908" rx="5.74105" transform="matrix(0.866025 0.5 -0.866025 0.5 34.2891 195.375)" fill="#7D97C2"/>
<mask id="path-105-outside-2_3059_5181" maskUnits="userSpaceOnUse" x="32.5938" y="206.855" width="5" height="4" fill="black">
<rect fill="white" x="32.5938" y="206.855" width="5" height="4"/>
<path d="M33.5943 208.714C33.5944 208.685 33.6082 208.658 33.6314 208.641C34.2833 208.172 35.1625 208.172 35.8143 208.641C35.8378 208.658 35.8516 208.685 35.8515 208.714L35.8512 208.779C35.8511 208.813 35.8404 208.845 35.8208 208.873C35.2826 209.626 34.1625 209.627 33.6244 208.874C33.6045 208.846 33.5938 208.812 33.594 208.778L33.5943 208.714Z"/>
</mask>
<path d="M33.5943 208.714C33.5944 208.685 33.6082 208.658 33.6314 208.641C34.2833 208.172 35.1625 208.172 35.8143 208.641C35.8378 208.658 35.8516 208.685 35.8515 208.714L35.8512 208.779C35.8511 208.813 35.8404 208.845 35.8208 208.873C35.2826 209.626 34.1625 209.627 33.6244 208.874C33.6045 208.846 33.5938 208.812 33.594 208.778L33.5943 208.714Z" fill="url(#paint10_linear_3059_5181)"/>
<path d="M35.8512 208.779L35.0386 208.775L35.8512 208.779ZM35.8515 208.714L36.6641 208.718L35.8515 208.714ZM35.0389 208.711L35.0386 208.775L36.6638 208.782L36.6641 208.718L35.0389 208.711ZM34.4066 208.781L34.4069 208.717L32.7817 208.71L32.7814 208.774L34.4066 208.781ZM34.1062 209.301C34.4746 209.036 34.9715 209.036 35.3395 209.301L36.2891 207.982C35.3535 207.308 34.0919 207.309 33.1566 207.982L34.1062 209.301ZM35.1595 208.401C34.9451 208.701 34.4993 208.7 34.2856 208.401L32.9631 209.346C33.8257 210.554 35.6202 210.552 36.482 209.345L35.1595 208.401ZM32.7814 208.774C32.7805 208.979 32.8441 209.179 32.9631 209.346L34.2856 208.401C34.3648 208.512 34.4072 208.645 34.4066 208.781L32.7814 208.774ZM35.0386 208.775C35.0392 208.641 35.0815 208.51 35.1595 208.401L36.482 209.345C36.5993 209.181 36.6629 208.984 36.6638 208.782L35.0386 208.775ZM36.6641 208.718C36.6653 208.426 36.5257 208.152 36.2891 207.982L35.3395 209.301C35.1499 209.164 35.0379 208.944 35.0389 208.711L36.6641 208.718ZM34.4069 208.717C34.4058 208.949 34.294 209.166 34.1062 209.301L33.1566 207.982C32.9224 208.151 32.7829 208.421 32.7817 208.71L34.4069 208.717Z" fill="#031A30" mask="url(#path-105-outside-2_3059_5181)"/>
<path d="M33.5938 190.32H35.851V208.83C35.2978 209.604 34.1469 209.604 33.5938 208.83V190.32Z" fill="url(#paint11_linear_3059_5181)"/>
<path d="M33.5938 190.32H35.851V208.83C35.2978 209.604 34.1469 209.604 33.5938 208.83V190.32Z" fill="url(#paint12_linear_3059_5181)"/>
<circle cx="34.9402" cy="191.675" r="7.67458" fill="url(#paint13_radial_3059_5181)"/>
<rect width="27.3083" height="26.8908" rx="5.74105" transform="matrix(0.866025 0.5 -0.866025 0.5 226.289 216.375)" fill="#7D97C2"/>
<mask id="path-110-outside-3_3059_5181" maskUnits="userSpaceOnUse" x="224.594" y="227.855" width="5" height="4" fill="black">
<rect fill="white" x="224.594" y="227.855" width="5" height="4"/>
<path d="M225.594 229.714C225.594 229.685 225.608 229.658 225.631 229.641C226.283 229.172 227.163 229.172 227.814 229.641C227.838 229.658 227.852 229.685 227.851 229.714L227.851 229.779C227.851 229.813 227.84 229.845 227.821 229.873C227.283 230.626 226.163 230.627 225.624 229.874C225.604 229.846 225.594 229.812 225.594 229.778L225.594 229.714Z"/>
</mask>
<path d="M225.594 229.714C225.594 229.685 225.608 229.658 225.631 229.641C226.283 229.172 227.163 229.172 227.814 229.641C227.838 229.658 227.852 229.685 227.851 229.714L227.851 229.779C227.851 229.813 227.84 229.845 227.821 229.873C227.283 230.626 226.163 230.627 225.624 229.874C225.604 229.846 225.594 229.812 225.594 229.778L225.594 229.714Z" fill="url(#paint14_linear_3059_5181)"/>
<path d="M227.851 229.779L227.039 229.775L227.851 229.779ZM227.851 229.714L228.664 229.718L227.851 229.714ZM227.039 229.711L227.039 229.775L228.664 229.782L228.664 229.718L227.039 229.711ZM226.407 229.781L226.407 229.717L224.782 229.71L224.781 229.774L226.407 229.781ZM226.106 230.301C226.475 230.036 226.972 230.036 227.34 230.301L228.289 228.982C227.354 228.308 226.092 228.309 225.157 228.982L226.106 230.301ZM227.16 229.401C226.945 229.701 226.499 229.7 226.286 229.401L224.963 230.346C225.826 231.554 227.62 231.552 228.482 230.345L227.16 229.401ZM224.781 229.774C224.78 229.979 224.844 230.179 224.963 230.346L226.286 229.401C226.365 229.512 226.407 229.645 226.407 229.781L224.781 229.774ZM227.039 229.775C227.039 229.641 227.081 229.51 227.16 229.401L228.482 230.345C228.599 230.181 228.663 229.984 228.664 229.782L227.039 229.775ZM228.664 229.718C228.665 229.426 228.526 229.152 228.289 228.982L227.34 230.301C227.15 230.164 227.038 229.944 227.039 229.711L228.664 229.718ZM226.407 229.717C226.406 229.949 226.294 230.166 226.106 230.301L225.157 228.982C224.922 229.151 224.783 229.421 224.782 229.71L226.407 229.717Z" fill="#031A30" mask="url(#path-110-outside-3_3059_5181)"/>
<path d="M225.594 211.32H227.851V229.83C227.298 230.604 226.147 230.604 225.594 229.83V211.32Z" fill="url(#paint15_linear_3059_5181)"/>
<path d="M225.594 211.32H227.851V229.83C227.298 230.604 226.147 230.604 225.594 229.83V211.32Z" fill="url(#paint16_linear_3059_5181)"/>
<circle cx="226.94" cy="212.675" r="7.67458" fill="url(#paint17_radial_3059_5181)"/>
<defs>
<linearGradient id="paint0_linear_3059_5181" x1="-37.046" y1="7.61191" x2="48.4072" y2="-32.8331" gradientUnits="userSpaceOnUse">
<stop offset="0.0469908" stop-color="#0E4071"/>
<stop offset="0.140821" stop-color="#0E4071"/>
<stop offset="0.412734" stop-color="#031A30"/>
</linearGradient>
<linearGradient id="paint1_linear_3059_5181" x1="-0.000930614" y1="0.0810461" x2="-0.180826" y2="1.26391" gradientUnits="userSpaceOnUse">
<stop stop-color="#08F7DB"/>
<stop offset="0.887375" stop-color="#0F81F0"/>
</linearGradient>
<linearGradient id="paint2_linear_3059_5181" x1="-0.000930614" y1="0.0810461" x2="-0.180826" y2="1.26391" gradientUnits="userSpaceOnUse">
<stop stop-color="#08F7DB"/>
<stop offset="0.887375" stop-color="#0F81F0"/>
</linearGradient>
<linearGradient id="paint3_linear_3059_5181" x1="-0.000930614" y1="0.0810461" x2="-0.180826" y2="1.26391" gradientUnits="userSpaceOnUse">
<stop stop-color="#08F7DB"/>
<stop offset="0.887375" stop-color="#0F81F0"/>
</linearGradient>
<linearGradient id="paint4_linear_3059_5181" x1="274.219" y1="195.306" x2="303.594" y2="238.813" gradientUnits="userSpaceOnUse">
<stop offset="0.178892" stop-color="#0E4071"/>
<stop offset="0.192141" stop-color="#0E4071"/>
<stop offset="0.412734" stop-color="#031A30"/>
</linearGradient>
<linearGradient id="paint5_linear_3059_5181" x1="-0.000930614" y1="0.0810461" x2="-0.180826" y2="1.26391" gradientUnits="userSpaceOnUse">
<stop stop-color="#08F7DB"/>
<stop offset="0.887375" stop-color="#0F81F0"/>
</linearGradient>
<linearGradient id="paint6_linear_3059_5181" x1="70.1061" y1="204.182" x2="57.4169" y2="223.351" gradientUnits="userSpaceOnUse">
<stop offset="0.155289" stop-color="#031A30"/>
<stop offset="0.514591" stop-color="#0F81F0"/>
<stop offset="1" stop-color="#031A30"/>
</linearGradient>
<linearGradient id="paint7_linear_3059_5181" x1="70.1061" y1="203.966" x2="57.4169" y2="223.134" gradientUnits="userSpaceOnUse">
<stop offset="0.155289" stop-color="#031A30"/>
<stop offset="0.514591" stop-color="#0F81F0"/>
<stop offset="1" stop-color="#031A30"/>
</linearGradient>
<linearGradient id="paint8_linear_3059_5181" x1="68.7562" y1="205.855" x2="55.4697" y2="245.435" gradientUnits="userSpaceOnUse">
<stop offset="0.0596716" stop-color="#6FB3F6"/>
<stop offset="0.138721" stop-color="white"/>
</linearGradient>
<radialGradient id="paint9_radial_3059_5181" cx="0" cy="0" r="1" gradientUnits="userSpaceOnUse" gradientTransform="translate(64.9689 203.752) rotate(76.8094) scale(17.7471 17.7471)">
<stop stop-color="#9FCDF9"/>
<stop offset="1" stop-color="#6FB3F6"/>
</radialGradient>
<linearGradient id="paint10_linear_3059_5181" x1="35.851" y1="188.922" x2="25.242" y2="204.948" gradientUnits="userSpaceOnUse">
<stop offset="0.155289" stop-color="#031A30"/>
<stop offset="0.514591" stop-color="#0F81F0"/>
<stop offset="1" stop-color="#031A30"/>
</linearGradient>
<linearGradient id="paint11_linear_3059_5181" x1="35.851" y1="188.74" x2="25.242" y2="204.767" gradientUnits="userSpaceOnUse">
<stop offset="0.155289" stop-color="#031A30"/>
<stop offset="0.514591" stop-color="#0F81F0"/>
<stop offset="1" stop-color="#031A30"/>
</linearGradient>
<linearGradient id="paint12_linear_3059_5181" x1="34.7224" y1="190.32" x2="23.614" y2="223.412" gradientUnits="userSpaceOnUse">
<stop offset="0.0596716" stop-color="#6FB3F6"/>
<stop offset="0.138721" stop-color="white"/>
</linearGradient>
<radialGradient id="paint13_radial_3059_5181" cx="0" cy="0" r="1" gradientUnits="userSpaceOnUse" gradientTransform="translate(31.5544 184.903) rotate(76.8094) scale(14.8377)">
<stop stop-color="#9FCDF9"/>
<stop offset="1" stop-color="#6FB3F6"/>
</radialGradient>
<linearGradient id="paint14_linear_3059_5181" x1="227.851" y1="209.922" x2="217.242" y2="225.948" gradientUnits="userSpaceOnUse">
<stop offset="0.155289" stop-color="#031A30"/>
<stop offset="0.514591" stop-color="#0F81F0"/>
<stop offset="1" stop-color="#031A30"/>
</linearGradient>
<linearGradient id="paint15_linear_3059_5181" x1="227.851" y1="209.74" x2="217.242" y2="225.767" gradientUnits="userSpaceOnUse">
<stop offset="0.155289" stop-color="#031A30"/>
<stop offset="0.514591" stop-color="#0F81F0"/>
<stop offset="1" stop-color="#031A30"/>
</linearGradient>
<linearGradient id="paint16_linear_3059_5181" x1="226.722" y1="211.32" x2="215.614" y2="244.412" gradientUnits="userSpaceOnUse">
<stop offset="0.0596716" stop-color="#6FB3F6"/>
<stop offset="0.138721" stop-color="white"/>
</linearGradient>
<radialGradient id="paint17_radial_3059_5181" cx="0" cy="0" r="1" gradientUnits="userSpaceOnUse" gradientTransform="translate(223.554 205.903) rotate(76.8094) scale(14.8377)">
<stop stop-color="#9FCDF9"/>
<stop offset="1" stop-color="#6FB3F6"/>
</radialGradient>
</defs>
</svg>
