<svg width="300" height="300" viewBox="0 0 300 300" fill="none" xmlns="http://www.w3.org/2000/svg">
<path fill-rule="evenodd" clip-rule="evenodd" d="M261.963 162.535C261.963 163.735 261.171 164.935 259.585 165.851L156.222 225.527C153.051 227.358 147.909 227.358 144.737 225.527L41.3747 165.851C39.8524 164.972 39.0609 163.831 39 162.679V184.782C39.0609 185.933 39.8524 187.074 41.3747 187.953L144.737 247.629C147.909 249.46 153.051 249.46 156.222 247.629L259.585 187.953C261.171 187.037 261.963 185.837 261.963 184.638V162.535Z" fill="#7D97C2"/>
<path fill-rule="evenodd" clip-rule="evenodd" d="M39.0038 162.681C38.9379 161.433 39.7294 160.174 41.3785 159.222L144.741 99.5451C147.913 97.7141 153.055 97.7141 156.226 99.5451L259.589 159.222C261.174 160.137 261.967 161.337 261.967 162.537V184.639C261.967 183.439 261.174 182.24 259.589 181.324L156.226 121.648C153.055 119.817 147.913 119.817 144.741 121.648L41.3785 181.324C39.7294 182.276 38.9379 183.536 39.0038 184.783V162.681Z" fill="#7D97C2"/>
<path d="M144.741 99.5451C147.913 97.7141 153.055 97.7141 156.226 99.5451L259.589 159.222C262.76 161.053 262.76 164.021 259.589 165.852L156.226 225.529C153.055 227.36 147.913 227.36 144.741 225.529L41.3785 165.852C38.2071 164.021 38.2072 161.053 41.3785 159.222L144.741 99.5451Z" fill="#F0F0F0"/>
<path d="M145.886 113.578C148.365 112.151 152.383 112.151 154.861 113.578L235.631 160.098C238.109 161.525 238.109 163.839 235.631 165.267L154.861 211.786C152.383 213.213 148.365 213.213 145.886 211.786L65.1164 165.267C62.6382 163.839 62.6383 161.525 65.1164 160.098L145.886 113.578Z" fill="#031A30"/>
<path fill-rule="evenodd" clip-rule="evenodd" d="M100.148 63.6008C100.87 63.1314 101.895 63.1698 103.032 63.8262L192.102 115.251C194.288 116.513 196.06 119.583 196.06 122.107V181.531C196.06 182.793 195.617 183.68 194.901 184.094L198.86 181.808C199.576 181.394 200.019 180.508 200.019 179.245V119.822C200.019 117.297 198.247 114.227 196.06 112.965L106.991 61.5407C105.854 60.8843 104.829 60.8459 104.107 61.3153L100.148 63.6008Z" fill="#0F81F0"/>
<path fill-rule="evenodd" clip-rule="evenodd" d="M194.89 184.091C194.174 184.504 193.184 184.445 192.091 183.813L103.021 132.389C100.835 131.127 99.0625 128.057 99.0625 125.533V66.1089C99.0625 64.8972 99.4708 64.0313 100.137 63.598L104.096 61.3125C103.429 61.7458 103.021 62.6116 103.021 63.8234V123.247C103.021 125.772 104.793 128.841 106.98 130.104L196.049 181.528C197.143 182.159 198.132 182.219 198.849 181.805L194.89 184.091Z" fill="#0F81F0"/>
<path d="M99.0625 66.1192C99.0625 63.5946 100.835 62.5714 103.021 63.8336L192.091 115.258C194.277 116.52 196.049 119.59 196.049 122.115V181.538C196.049 184.063 194.277 185.086 192.091 183.824L103.021 132.399C100.835 131.137 99.0625 128.067 99.0625 125.543V66.1192Z" fill="#031A30"/>
<path fill-rule="evenodd" clip-rule="evenodd" d="M101.461 108.954C101.461 107.564 102.379 106.175 104.216 105.114C107.89 102.993 113.845 102.993 117.519 105.114C119.356 106.175 120.274 107.564 120.274 108.954V114.313C120.274 112.923 119.356 111.533 117.519 110.473C113.845 108.352 107.89 108.352 104.216 110.473C102.379 111.533 101.461 112.923 101.461 114.313V108.954Z" fill="#072543"/>
<path fill-rule="evenodd" clip-rule="evenodd" d="M120.274 108.941C120.274 110.331 119.356 111.721 117.519 112.782C113.845 114.902 107.89 114.902 104.216 112.782C102.379 111.721 101.461 110.331 101.461 108.941V114.3C101.461 115.69 102.379 117.08 104.216 118.14C107.89 120.261 113.845 120.261 117.519 118.14C119.356 117.08 120.274 115.69 120.274 114.3V108.941Z" fill="#E5F1FE"/>
<path d="M117.519 112.795C113.845 114.915 107.89 114.915 104.216 112.795C100.543 110.674 100.543 107.235 104.216 105.114C107.89 102.993 113.845 102.993 117.519 105.114C121.192 107.235 121.192 110.674 117.519 112.795Z" fill="#657A94"/>
<path d="M116.957 112.242C113.63 114.13 108.236 114.13 104.909 112.242C101.582 110.354 101.582 107.293 104.909 105.404C108.236 103.516 113.63 103.516 116.957 105.404C120.283 107.293 120.283 110.354 116.957 112.242Z" fill="#031A30"/>
<path fill-rule="evenodd" clip-rule="evenodd" d="M101.461 101.525C101.461 100.135 102.379 98.7449 104.216 97.6844C107.89 95.5635 113.845 95.5635 117.519 97.6844C119.356 98.7449 120.274 100.135 120.274 101.525V106.883C120.274 105.493 119.356 104.103 117.519 103.043C113.845 100.922 107.89 100.922 104.216 103.043C102.379 104.103 101.461 105.493 101.461 106.883V101.525Z" fill="#072543"/>
<path fill-rule="evenodd" clip-rule="evenodd" d="M120.274 101.512C120.274 102.902 119.356 104.291 117.519 105.352C113.845 107.473 107.89 107.473 104.216 105.352C102.379 104.291 101.461 102.902 101.461 101.512V106.87C101.461 108.26 102.379 109.65 104.216 110.71C107.89 112.831 113.845 112.831 117.519 110.71C119.356 109.65 120.274 108.26 120.274 106.87V101.512Z" fill="#E5F1FE"/>
<path d="M117.519 105.365C113.845 107.486 107.89 107.486 104.216 105.365C100.543 103.244 100.543 99.8053 104.216 97.6844C107.89 95.5635 113.845 95.5635 117.519 97.6844C121.192 99.8053 121.192 103.244 117.519 105.365Z" fill="#657A94"/>
<path d="M116.957 104.824C113.63 106.712 108.236 106.712 104.909 104.824C101.582 102.936 101.582 99.8746 104.909 97.9864C108.236 96.0983 113.63 96.0983 116.957 97.9864C120.283 99.8746 120.283 102.936 116.957 104.824Z" fill="#031A30"/>
<path fill-rule="evenodd" clip-rule="evenodd" d="M101.461 94.1535C101.461 92.7636 102.379 91.3738 104.216 90.3133C107.89 88.1924 113.845 88.1924 117.519 90.3133C119.356 91.3738 120.274 92.7636 120.274 94.1535V99.5119C120.274 98.1221 119.356 96.7322 117.519 95.6717C113.845 93.5509 107.89 93.5509 104.216 95.6717C102.379 96.7322 101.461 98.1221 101.461 99.5119V94.1535Z" fill="#072543"/>
<path fill-rule="evenodd" clip-rule="evenodd" d="M120.274 94.1406C120.274 95.5305 119.356 96.9204 117.519 97.9808C113.845 100.102 107.89 100.102 104.216 97.9808C102.379 96.9204 101.461 95.5305 101.461 94.1406V99.4991C101.461 100.889 102.379 102.279 104.216 103.339C107.89 105.46 113.845 105.46 117.519 103.339C119.356 102.279 120.274 100.889 120.274 99.4991V94.1406Z" fill="#E5F1FE"/>
<path d="M117.519 97.9937C113.845 100.115 107.89 100.115 104.216 97.9937C100.543 95.8728 100.543 92.4342 104.216 90.3133C107.89 88.1924 113.845 88.1924 117.519 90.3133C121.192 92.4342 121.192 95.8728 117.519 97.9937Z" fill="#657A94"/>
<path d="M116.957 97.4531C113.63 99.3412 108.236 99.3412 104.909 97.4531C101.582 95.5649 101.582 92.5035 104.909 90.6154C108.236 88.7272 113.63 88.7272 116.957 90.6154C120.283 92.5035 120.283 95.5649 116.957 97.4531Z" fill="#657A94"/>
<path fill-rule="evenodd" clip-rule="evenodd" d="M144.339 152.039L145.853 147.708C148.075 141.35 149.14 135.09 148.947 129.519L149.901 128.969L130.116 117.547L129.163 118.097C129.356 123.668 128.291 129.928 126.069 136.285L124.555 140.617L144.339 152.039Z" fill="#F0F0F0"/>
<path fill-rule="evenodd" clip-rule="evenodd" d="M144.339 152.039L145.853 147.708C148.075 141.35 149.14 135.09 148.947 129.519L149.901 128.969L130.116 117.547L129.163 118.097C129.356 123.668 128.291 129.928 126.069 136.285L124.555 140.617L144.339 152.039Z" fill="url(#paint0_linear_3109_5439)"/>
<path fill-rule="evenodd" clip-rule="evenodd" d="M129.163 118.097L148.947 129.519L149.901 128.969L130.116 117.547L129.163 118.097Z" fill="#0E74D8"/>
<path d="M148.952 129.518L149.906 128.969C150.1 134.733 148.996 141.206 146.698 147.781L145.299 151.783L144.344 152.039L145.858 147.707C148.08 141.35 149.145 135.089 148.952 129.518Z" fill="#0E74D8"/>
<path fill-rule="evenodd" clip-rule="evenodd" d="M146.784 141.492L148.298 137.161C150.52 130.803 151.585 124.543 151.393 118.972L152.346 118.422L132.562 107L131.608 107.55C131.801 113.121 130.736 119.381 128.514 125.739L127 130.07L146.784 141.492Z" fill="#F0F0F0"/>
<path fill-rule="evenodd" clip-rule="evenodd" d="M131.608 107.55L151.393 118.972L152.346 118.422L132.562 107L131.608 107.55Z" fill="#0E74D8"/>
<path d="M151.398 118.972L152.351 118.422C152.545 124.186 151.441 130.66 149.143 137.234L147.745 141.236L146.789 141.492L148.303 137.16C150.525 130.803 151.59 124.543 151.398 118.972Z" fill="#0E74D8"/>
<path fill-rule="evenodd" clip-rule="evenodd" d="M146.565 124.324L148.079 119.993C150.301 113.635 151.366 107.375 151.174 101.804L152.127 101.254L132.343 89.832L131.39 90.3817C131.582 95.9527 130.517 102.213 128.295 108.571L126.781 112.902L146.565 124.324Z" fill="#F0F0F0"/>
<path fill-rule="evenodd" clip-rule="evenodd" d="M146.565 124.324L148.079 119.993C150.301 113.635 151.366 107.375 151.174 101.804L152.127 101.254L132.343 89.832L131.39 90.3817C131.582 95.9527 130.517 102.213 128.295 108.571L126.781 112.902L146.565 124.324Z" fill="url(#paint1_linear_3109_5439)"/>
<path fill-rule="evenodd" clip-rule="evenodd" d="M131.39 90.3817L151.174 101.804L152.127 101.254L132.343 89.832L131.39 90.3817Z" fill="#0E74D8"/>
<path d="M151.171 101.8L152.124 101.25C152.318 107.014 151.215 113.488 148.917 120.062L147.518 124.064L146.562 124.32L148.076 119.989C150.299 113.631 151.364 107.371 151.171 101.8Z" fill="#0E74D8"/>
<path fill-rule="evenodd" clip-rule="evenodd" d="M172.784 167.492L174.298 163.161C176.52 156.803 177.585 150.543 177.393 144.972L178.346 144.422L158.562 133L157.608 133.55C157.801 139.121 156.736 145.381 154.514 151.739L153 156.07L172.784 167.492Z" fill="#F0F0F0"/>
<path fill-rule="evenodd" clip-rule="evenodd" d="M172.784 167.492L174.298 163.161C176.52 156.803 177.585 150.543 177.393 144.972L178.346 144.422L158.562 133L157.608 133.55C157.801 139.121 156.736 145.381 154.514 151.739L153 156.07L172.784 167.492Z" fill="url(#paint2_linear_3109_5439)"/>
<path fill-rule="evenodd" clip-rule="evenodd" d="M157.608 133.55L177.393 144.972L178.346 144.422L158.562 133L157.608 133.55Z" fill="#0E74D8"/>
<path d="M177.39 144.972L178.343 144.422C178.537 150.186 177.433 156.66 175.135 163.234L173.737 167.236L172.781 167.492L174.295 163.16C176.517 156.803 177.582 150.543 177.39 144.972Z" fill="#0E74D8"/>
<path fill-rule="evenodd" clip-rule="evenodd" d="M172.065 155.363L173.579 151.032C175.801 144.674 176.866 138.414 176.674 132.843L177.627 132.293L157.843 120.871L156.89 121.421C157.082 126.992 156.017 133.252 153.795 139.61L152.281 143.941L172.065 155.363Z" fill="#F0F0F0"/>
<path fill-rule="evenodd" clip-rule="evenodd" d="M156.89 121.421L176.674 132.843L177.627 132.293L157.843 120.871L156.89 121.421Z" fill="#0E74D8"/>
<path d="M176.671 132.843L177.624 132.293C177.818 138.057 176.715 144.531 174.417 151.105L173.018 155.107L172.062 155.363L173.576 151.031C175.799 144.674 176.864 138.414 176.671 132.843Z" fill="#0E74D8"/>
<path fill-rule="evenodd" clip-rule="evenodd" d="M176.784 139.492L178.298 135.161C180.52 128.803 181.585 122.543 181.393 116.972L182.346 116.422L162.562 105L161.608 105.55C161.801 111.121 160.736 117.381 158.514 123.739L157 128.07L176.784 139.492Z" fill="#F0F0F0"/>
<path fill-rule="evenodd" clip-rule="evenodd" d="M176.784 139.492L178.298 135.161C180.52 128.803 181.585 122.543 181.393 116.972L182.346 116.422L162.562 105L161.608 105.55C161.801 111.121 160.736 117.381 158.514 123.739L157 128.07L176.784 139.492Z" fill="url(#paint3_linear_3109_5439)"/>
<path fill-rule="evenodd" clip-rule="evenodd" d="M161.608 105.55L181.393 116.972L182.346 116.422L162.562 105L161.608 105.55Z" fill="#0E74D8"/>
<path d="M181.39 116.972L182.343 116.422C182.537 122.186 181.433 128.66 179.135 135.234L177.737 139.236L176.781 139.492L178.295 135.16C180.517 128.803 181.582 122.543 181.39 116.972Z" fill="#0E74D8"/>
<rect width="27.3083" height="26.8908" rx="5.74105" transform="matrix(0.866025 0.5 -0.866025 0.5 72.3516 214.633)" fill="#7D97C2"/>
<mask id="path-39-outside-1_3109_5439" maskUnits="userSpaceOnUse" x="70.4062" y="225.828" width="5" height="4" fill="black">
<rect fill="white" x="70.4062" y="225.828" width="5" height="4"/>
<path d="M71.4069 227.855C71.407 227.82 71.4235 227.788 71.4513 227.768C72.231 227.207 73.2826 227.207 74.0622 227.768C74.0903 227.788 74.1068 227.821 74.1067 227.855L74.1063 227.932C74.1062 227.973 74.0934 228.012 74.07 228.045C73.4263 228.946 72.0865 228.947 71.4429 228.046C71.4191 228.012 71.4063 227.972 71.4065 227.932L71.4069 227.855Z"/>
</mask>
<path d="M71.4069 227.855C71.407 227.82 71.4235 227.788 71.4513 227.768C72.231 227.207 73.2826 227.207 74.0622 227.768C74.0903 227.788 74.1068 227.821 74.1067 227.855L74.1063 227.932C74.1062 227.973 74.0934 228.012 74.07 228.045C73.4263 228.946 72.0865 228.947 71.4429 228.046C71.4191 228.012 71.4063 227.972 71.4065 227.932L71.4069 227.855Z" fill="url(#paint4_linear_3109_5439)"/>
<path d="M71.4065 227.932L70.5939 227.928L71.4065 227.932ZM74.1063 227.932L74.9189 227.936L74.1063 227.932ZM74.1067 227.855L73.2941 227.852L74.1067 227.855ZM73.2941 227.852L73.2937 227.929L74.9189 227.936L74.9193 227.859L73.2941 227.852ZM72.2191 227.935L72.2195 227.858L70.5943 227.851L70.5939 227.928L72.2191 227.935ZM71.9261 228.428C72.4223 228.07 73.0916 228.07 73.5874 228.427L74.5371 227.108C73.4736 226.343 72.0396 226.343 70.9765 227.109L71.9261 228.428ZM73.4087 227.573C73.0887 228.021 72.4233 228.02 72.1041 227.574L70.7816 228.518C71.7498 229.874 73.7639 229.872 74.7312 228.517L73.4087 227.573ZM70.5939 227.928C70.593 228.14 70.6587 228.346 70.7816 228.518L72.1041 227.574C72.1795 227.679 72.2197 227.805 72.2191 227.935L70.5939 227.928ZM73.2937 227.929C73.2943 227.801 73.3345 227.677 73.4087 227.573L74.7312 228.517C74.8524 228.348 74.918 228.145 74.9189 227.936L73.2937 227.929ZM74.9193 227.859C74.9206 227.561 74.7782 227.282 74.5371 227.108L73.5874 228.427C73.4024 228.294 73.2931 228.08 73.2941 227.852L74.9193 227.859ZM72.2195 227.858C72.2185 228.084 72.1093 228.296 71.9261 228.428L70.9765 227.109C70.7378 227.281 70.5955 227.557 70.5943 227.851L72.2195 227.858Z" fill="#031A30" mask="url(#path-39-outside-1_3109_5439)"/>
<path d="M71.4062 205.855H74.1061V227.994C73.4445 228.92 72.0679 228.92 71.4062 227.994V205.855Z" fill="url(#paint5_linear_3109_5439)"/>
<path d="M71.4062 205.855H74.1061V227.994C73.4445 228.92 72.0679 228.92 71.4062 227.994V205.855Z" fill="url(#paint6_linear_3109_5439)"/>
<path d="M85.2219 212.823C85.2219 217.893 78.0883 221.031 73.0187 221.031C67.949 221.031 60.4375 216.921 60.4375 211.852C60.4375 206.782 67.949 174 73.0187 174C78.0883 174 85.2219 207.754 85.2219 212.823Z" fill="url(#paint7_radial_3109_5439)"/>
<rect width="27.3083" height="26.8908" rx="5.74105" transform="matrix(0.866025 0.5 -0.866025 0.5 38.2891 195.375)" fill="#7D97C2"/>
<mask id="path-44-outside-2_3109_5439" maskUnits="userSpaceOnUse" x="36.5938" y="206.855" width="5" height="4" fill="black">
<rect fill="white" x="36.5938" y="206.855" width="5" height="4"/>
<path d="M37.5943 208.714C37.5944 208.685 37.6082 208.658 37.6314 208.641C38.2833 208.172 39.1625 208.172 39.8143 208.641C39.8378 208.658 39.8516 208.685 39.8515 208.714L39.8512 208.779C39.8511 208.813 39.8404 208.845 39.8208 208.873C39.2826 209.626 38.1625 209.627 37.6244 208.874C37.6045 208.846 37.5938 208.812 37.594 208.778L37.5943 208.714Z"/>
</mask>
<path d="M37.5943 208.714C37.5944 208.685 37.6082 208.658 37.6314 208.641C38.2833 208.172 39.1625 208.172 39.8143 208.641C39.8378 208.658 39.8516 208.685 39.8515 208.714L39.8512 208.779C39.8511 208.813 39.8404 208.845 39.8208 208.873C39.2826 209.626 38.1625 209.627 37.6244 208.874C37.6045 208.846 37.5938 208.812 37.594 208.778L37.5943 208.714Z" fill="url(#paint8_linear_3109_5439)"/>
<path d="M39.8512 208.779L39.0386 208.775L39.8512 208.779ZM39.8515 208.714L40.6641 208.718L39.8515 208.714ZM39.0389 208.711L39.0386 208.775L40.6638 208.782L40.6641 208.718L39.0389 208.711ZM38.4066 208.781L38.4069 208.717L36.7817 208.71L36.7814 208.774L38.4066 208.781ZM38.1062 209.301C38.4746 209.036 38.9715 209.036 39.3395 209.301L40.2891 207.982C39.3535 207.308 38.0919 207.309 37.1566 207.982L38.1062 209.301ZM39.1595 208.401C38.9451 208.701 38.4993 208.7 38.2856 208.401L36.9631 209.346C37.8257 210.554 39.6202 210.552 40.482 209.345L39.1595 208.401ZM36.7814 208.774C36.7805 208.979 36.8441 209.179 36.9631 209.346L38.2856 208.401C38.3648 208.512 38.4072 208.645 38.4066 208.781L36.7814 208.774ZM39.0386 208.775C39.0392 208.641 39.0815 208.51 39.1595 208.401L40.482 209.345C40.5993 209.181 40.6629 208.984 40.6638 208.782L39.0386 208.775ZM40.6641 208.718C40.6653 208.426 40.5257 208.152 40.2891 207.982L39.3395 209.301C39.1499 209.164 39.0379 208.944 39.0389 208.711L40.6641 208.718ZM38.4069 208.717C38.4058 208.949 38.294 209.166 38.1062 209.301L37.1566 207.982C36.9224 208.151 36.7829 208.421 36.7817 208.71L38.4069 208.717Z" fill="#031A30" mask="url(#path-44-outside-2_3109_5439)"/>
<path d="M37.5938 190.32H39.851V208.83C39.2978 209.604 38.1469 209.604 37.5938 208.83V190.32Z" fill="url(#paint9_linear_3109_5439)"/>
<path d="M37.5938 190.32H39.851V208.83C39.2978 209.604 38.1469 209.604 37.5938 208.83V190.32Z" fill="url(#paint10_linear_3109_5439)"/>
<circle cx="38.9402" cy="191.675" r="7.67458" fill="url(#paint11_radial_3109_5439)"/>
<rect width="27.3083" height="26.8908" rx="5.74105" transform="matrix(0.866025 0.5 -0.866025 0.5 256.289 197.375)" fill="#7D97C2"/>
<mask id="path-49-outside-3_3109_5439" maskUnits="userSpaceOnUse" x="254.594" y="208.855" width="5" height="4" fill="black">
<rect fill="white" x="254.594" y="208.855" width="5" height="4"/>
<path d="M255.594 210.714C255.594 210.685 255.608 210.658 255.631 210.641C256.283 210.172 257.163 210.172 257.814 210.641C257.838 210.658 257.852 210.685 257.851 210.714L257.851 210.779C257.851 210.813 257.84 210.845 257.821 210.873C257.283 211.626 256.163 211.627 255.624 210.874C255.604 210.846 255.594 210.812 255.594 210.778L255.594 210.714Z"/>
</mask>
<path d="M255.594 210.714C255.594 210.685 255.608 210.658 255.631 210.641C256.283 210.172 257.163 210.172 257.814 210.641C257.838 210.658 257.852 210.685 257.851 210.714L257.851 210.779C257.851 210.813 257.84 210.845 257.821 210.873C257.283 211.626 256.163 211.627 255.624 210.874C255.604 210.846 255.594 210.812 255.594 210.778L255.594 210.714Z" fill="url(#paint12_linear_3109_5439)"/>
<path d="M257.851 210.779L257.039 210.775L257.851 210.779ZM257.851 210.714L258.664 210.718L257.851 210.714ZM257.039 210.711L257.039 210.775L258.664 210.782L258.664 210.718L257.039 210.711ZM256.407 210.781L256.407 210.717L254.782 210.71L254.781 210.774L256.407 210.781ZM256.106 211.301C256.475 211.036 256.972 211.036 257.34 211.301L258.289 209.982C257.354 209.308 256.092 209.309 255.157 209.982L256.106 211.301ZM257.16 210.401C256.945 210.701 256.499 210.7 256.286 210.401L254.963 211.346C255.826 212.554 257.62 212.552 258.482 211.345L257.16 210.401ZM254.781 210.774C254.78 210.979 254.844 211.179 254.963 211.346L256.286 210.401C256.365 210.512 256.407 210.645 256.407 210.781L254.781 210.774ZM257.039 210.775C257.039 210.641 257.081 210.51 257.16 210.401L258.482 211.345C258.599 211.181 258.663 210.984 258.664 210.782L257.039 210.775ZM258.664 210.718C258.665 210.426 258.526 210.152 258.289 209.982L257.34 211.301C257.15 211.164 257.038 210.944 257.039 210.711L258.664 210.718ZM256.407 210.717C256.406 210.949 256.294 211.166 256.106 211.301L255.157 209.982C254.922 210.151 254.783 210.421 254.782 210.71L256.407 210.717Z" fill="#031A30" mask="url(#path-49-outside-3_3109_5439)"/>
<path d="M255.594 192.32H257.851V210.83C257.298 211.604 256.147 211.604 255.594 210.83V192.32Z" fill="url(#paint13_linear_3109_5439)"/>
<path d="M255.594 192.32H257.851V210.83C257.298 211.604 256.147 211.604 255.594 210.83V192.32Z" fill="url(#paint14_linear_3109_5439)"/>
<circle cx="256.94" cy="193.675" r="7.67458" fill="url(#paint15_radial_3109_5439)"/>
<rect width="27.3083" height="26.8908" rx="5.74105" transform="matrix(0.866025 0.5 -0.866025 0.5 226.352 216.633)" fill="#7D97C2"/>
<mask id="path-54-outside-4_3109_5439" maskUnits="userSpaceOnUse" x="224.406" y="227.828" width="5" height="4" fill="black">
<rect fill="white" x="224.406" y="227.828" width="5" height="4"/>
<path d="M225.407 229.855C225.407 229.82 225.424 229.788 225.451 229.768C226.231 229.207 227.283 229.207 228.062 229.768C228.09 229.788 228.107 229.821 228.107 229.855L228.106 229.932C228.106 229.973 228.093 230.012 228.07 230.045C227.426 230.946 226.087 230.947 225.443 230.046C225.419 230.012 225.406 229.972 225.407 229.932L225.407 229.855Z"/>
</mask>
<path d="M225.407 229.855C225.407 229.82 225.424 229.788 225.451 229.768C226.231 229.207 227.283 229.207 228.062 229.768C228.09 229.788 228.107 229.821 228.107 229.855L228.106 229.932C228.106 229.973 228.093 230.012 228.07 230.045C227.426 230.946 226.087 230.947 225.443 230.046C225.419 230.012 225.406 229.972 225.407 229.932L225.407 229.855Z" fill="url(#paint16_linear_3109_5439)"/>
<path d="M225.407 229.932L224.594 229.928L225.407 229.932ZM228.106 229.932L228.919 229.936L228.106 229.932ZM228.107 229.855L227.294 229.852L228.107 229.855ZM227.294 229.852L227.294 229.929L228.919 229.936L228.919 229.859L227.294 229.852ZM226.219 229.935L226.219 229.858L224.594 229.851L224.594 229.928L226.219 229.935ZM225.926 230.428C226.422 230.07 227.092 230.07 227.587 230.427L228.537 229.108C227.474 228.343 226.04 228.343 224.977 229.109L225.926 230.428ZM227.409 229.573C227.089 230.021 226.423 230.02 226.104 229.574L224.782 230.518C225.75 231.874 227.764 231.872 228.731 230.517L227.409 229.573ZM224.594 229.928C224.593 230.14 224.659 230.346 224.782 230.518L226.104 229.574C226.179 229.679 226.22 229.805 226.219 229.935L224.594 229.928ZM227.294 229.929C227.294 229.801 227.335 229.677 227.409 229.573L228.731 230.517C228.852 230.348 228.918 230.145 228.919 229.936L227.294 229.929ZM228.919 229.859C228.921 229.561 228.778 229.282 228.537 229.108L227.587 230.427C227.402 230.294 227.293 230.08 227.294 229.852L228.919 229.859ZM226.219 229.858C226.218 230.084 226.109 230.296 225.926 230.428L224.977 229.109C224.738 229.281 224.596 229.557 224.594 229.851L226.219 229.858Z" fill="#031A30" mask="url(#path-54-outside-4_3109_5439)"/>
<path d="M225.406 207.855H228.106V229.994C227.444 230.92 226.068 230.92 225.406 229.994V207.855Z" fill="url(#paint17_linear_3109_5439)"/>
<path d="M225.406 207.855H228.106V229.994C227.444 230.92 226.068 230.92 225.406 229.994V207.855Z" fill="url(#paint18_linear_3109_5439)"/>
<path d="M239.222 214.823C239.222 219.893 232.088 223.031 227.019 223.031C221.949 223.031 214.438 218.921 214.438 213.852C214.438 208.782 221.949 176 227.019 176C232.088 176 239.222 209.754 239.222 214.823Z" fill="url(#paint19_radial_3109_5439)"/>
<g filter="url(#filter0_d_3109_5439)">
<path d="M212.679 93.2749C212.736 92.9084 213.264 92.9084 213.321 93.2749L213.719 95.8414C213.914 97.099 214.901 98.0856 216.159 98.2808L218.725 98.6792C219.092 98.736 219.092 99.264 218.725 99.3208L216.159 99.7192C214.901 99.9143 213.914 100.901 213.719 102.159L213.321 104.725C213.264 105.092 212.736 105.092 212.679 104.725L212.281 102.159C212.086 100.901 211.099 99.9143 209.841 99.7192L207.275 99.3208C206.908 99.264 206.908 98.736 207.275 98.6792L209.841 98.2808C211.099 98.0856 212.086 97.099 212.281 95.8414L212.679 93.2749Z" fill="url(#paint20_linear_3109_5439)"/>
</g>
<path d="M224.067 57.442L236.702 28.4807C236.883 28.0667 236.688 27.5851 236.271 27.413C235.854 27.2412 235.377 27.4443 235.213 27.8639L223.672 57.2785C223.63 57.387 223.682 57.5097 223.79 57.5541C223.897 57.5984 224.02 57.5486 224.067 57.442Z" fill="url(#paint21_linear_3109_5439)"/>
<circle cx="2.69902" cy="2.69902" r="2.69902" transform="matrix(-0.924516 -0.381142 -0.381142 0.924516 239.766 26.0586)" fill="url(#paint22_radial_3109_5439)"/>
<path d="M222.608 68.7865L221.924 100.377C221.914 100.828 222.277 101.2 222.729 101.2C223.18 101.201 223.543 100.832 223.536 100.381L223.036 68.7877C223.034 68.6711 222.939 68.5776 222.822 68.5774C222.706 68.5773 222.611 68.6702 222.608 68.7865Z" fill="url(#paint23_linear_3109_5439)"/>
<circle cx="2.69902" cy="2.69902" r="2.69902" transform="matrix(0.999999 0.00130398 0.00130398 -0.999999 220.016 103.777)" fill="url(#paint24_radial_3109_5439)"/>
<path d="M222.17 63.8479L225.591 48.5316C225.64 48.3127 225.499 48.0963 225.279 48.0519C225.06 48.0075 224.847 48.1517 224.806 48.3718L221.962 63.8055C221.951 63.8624 221.988 63.9173 222.045 63.9288C222.102 63.9402 222.157 63.9043 222.17 63.8479Z" fill="url(#paint25_linear_3109_5439)"/>
<circle cx="1.34053" cy="1.34053" r="1.34053" transform="matrix(-0.980188 -0.198071 -0.198071 0.980188 226.844 47.0625)" fill="url(#paint26_radial_3109_5439)"/>
<path d="M221.917 62.1532L224.571 77.6207C224.609 77.8418 224.822 77.9886 225.042 77.9461C225.262 77.9038 225.404 77.6895 225.358 77.4705L222.125 62.1134C222.113 62.0568 222.058 62.0201 222.001 62.0311C221.944 62.042 221.907 62.0963 221.917 62.1532Z" fill="url(#paint27_linear_3109_5439)"/>
<circle cx="1.34053" cy="1.34053" r="1.34053" transform="matrix(0.98194 -0.189191 -0.189191 -0.98194 223.977 79.4531)" fill="url(#paint28_radial_3109_5439)"/>
<path d="M221.895 66.0772L222.363 43.1136C222.37 42.7853 222.105 42.5156 221.777 42.5156C221.449 42.5156 221.185 42.7842 221.191 43.1117L221.585 66.0767C221.586 66.1614 221.655 66.2293 221.74 66.2293C221.825 66.2293 221.894 66.1617 221.895 66.0772Z" fill="url(#paint29_linear_3109_5439)"/>
<circle cx="1.96193" cy="1.96193" r="1.96193" transform="matrix(-1 0 0 1 223.758 40.6445)" fill="url(#paint30_radial_3109_5439)"/>
<path d="M222.667 64.9155L199.974 61.3697C199.649 61.319 199.347 61.5447 199.303 61.87C199.259 62.1946 199.489 62.4922 199.815 62.5306L222.625 65.2232C222.709 65.2332 222.785 65.1738 222.797 65.0898C222.808 65.006 222.75 64.9285 222.667 64.9155Z" fill="url(#paint31_linear_3109_5439)"/>
<circle cx="1.96193" cy="1.96193" r="1.96193" transform="matrix(-0.134236 0.990949 0.990949 0.134236 197.719 59.6719)" fill="url(#paint32_radial_3109_5439)"/>
<path d="M220.588 57.0196L215.096 34.7174C215.018 34.3986 214.693 34.2065 214.375 34.2915C214.059 34.3763 213.874 34.704 213.964 35.0189L220.288 57.0995C220.311 57.181 220.395 57.2287 220.477 57.2067C220.559 57.1849 220.608 57.1017 220.588 57.0196Z" fill="url(#paint33_linear_3109_5439)"/>
<circle cx="1.96193" cy="1.96193" r="1.96193" transform="matrix(-0.965926 0.258819 0.258819 0.965926 215.773 31.9688)" fill="url(#paint34_radial_3109_5439)"/>
<path d="M213.518 65.0699L190.681 67.5183C190.354 67.5533 190.12 67.8496 190.162 68.1753C190.203 68.5002 190.503 68.728 190.827 68.6809L213.557 65.3781C213.641 65.3659 213.699 65.2887 213.689 65.2046C213.678 65.1208 213.602 65.0609 213.518 65.0699Z" fill="url(#paint35_linear_3109_5439)"/>
<circle cx="1.96193" cy="1.96193" r="1.96193" transform="matrix(0.126815 0.991926 0.991926 -0.126815 188.039 66.4648)" fill="url(#paint36_radial_3109_5439)"/>
<path d="M217.848 53.4498L208.562 29.9098C208.429 29.5733 208.046 29.4115 207.712 29.5511C207.379 29.6904 207.225 30.0755 207.37 30.406L217.532 53.5813C217.57 53.6669 217.669 53.7065 217.755 53.6705C217.841 53.6346 217.883 53.5365 217.848 53.4498Z" fill="url(#paint37_linear_3109_5439)"/>
<circle cx="2.16156" cy="2.16156" r="2.16156" transform="matrix(-0.922572 0.385824 0.385824 0.922572 208.914 26.8125)" fill="url(#paint38_radial_3109_5439)"/>
<path d="M209.604 67.2457L185.03 73.288C184.679 73.3743 184.467 73.7324 184.561 74.0818C184.654 74.4305 185.015 74.635 185.362 74.5357L209.692 67.5764C209.782 67.5508 209.834 67.4579 209.81 67.3676C209.786 67.2777 209.694 67.2234 209.604 67.2457Z" fill="url(#paint39_linear_3109_5439)"/>
<circle cx="2.16156" cy="2.16156" r="2.16156" transform="matrix(0.25849 0.966014 0.966014 -0.25849 182 72.5352)" fill="url(#paint40_radial_3109_5439)"/>
<path d="M222.521 65.0378L214.597 50.0161C214.484 49.8014 214.216 49.7216 214.004 49.8393C213.792 49.9566 213.717 50.2249 213.838 50.4347L222.32 65.1488C222.352 65.2031 222.421 65.2223 222.475 65.1919C222.53 65.1616 222.551 65.0931 222.521 65.0378Z" fill="url(#paint41_linear_3109_5439)"/>
<circle cx="1.45073" cy="1.45073" r="1.45073" transform="matrix(-0.874793 0.484497 0.484497 0.874793 214.609 47.9258)" fill="url(#paint42_radial_3109_5439)"/>
<path d="M221.724 64.1875L205.775 70.0238C205.547 70.1072 205.432 70.3617 205.52 70.5879C205.608 70.8136 205.863 70.9235 206.088 70.8318L221.807 64.4017C221.865 64.378 221.893 64.3121 221.871 64.2537C221.848 64.1955 221.783 64.166 221.724 64.1875Z" fill="url(#paint43_linear_3109_5439)"/>
<circle cx="1.45073" cy="1.45073" r="1.45073" transform="matrix(0.362683 0.931913 0.931913 -0.362683 203.695 69.7344)" fill="url(#paint44_radial_3109_5439)"/>
<path d="M221.314 61.4397L208.429 48.8855C208.245 48.706 207.949 48.7129 207.774 48.9007C207.598 49.0881 207.611 49.3827 207.801 49.5548L221.148 61.6171C221.197 61.6616 221.273 61.6584 221.318 61.6099C221.364 61.5616 221.362 61.4859 221.314 61.4397Z" fill="url(#paint45_linear_3109_5439)"/>
<circle cx="1.53666" cy="1.53666" r="1.53666" transform="matrix(-0.683128 0.730299 0.730299 0.683128 207.75 46.7656)" fill="url(#paint46_radial_3109_5439)"/>
<path d="M217.914 64.9329L203.744 76.0161C203.541 76.1745 203.509 76.4684 203.671 76.6677C203.833 76.8666 204.127 76.8939 204.323 76.7283L218.068 65.1217C218.118 65.0788 218.125 65.0032 218.083 64.9518C218.042 64.9005 217.966 64.8921 217.914 64.9329Z" fill="url(#paint47_linear_3109_5439)"/>
<circle cx="1.53666" cy="1.53666" r="1.53666" transform="matrix(0.631989 0.774977 0.774977 -0.631989 201.586 76.3984)" fill="url(#paint48_radial_3109_5439)"/>
<path d="M215.783 58.2113L197.393 47.6043C197.13 47.4527 196.794 47.5466 196.648 47.8125C196.502 48.0778 196.602 48.4112 196.869 48.5526L215.644 58.4627C215.714 58.4993 215.8 58.4735 215.837 58.4049C215.875 58.3364 215.851 58.2504 215.783 58.2113Z" fill="url(#paint49_linear_3109_5439)"/>
<circle cx="1.81343" cy="1.81343" r="1.81343" transform="matrix(-0.48189 0.876232 0.876232 0.48189 196.031 45.3945)" fill="url(#paint50_radial_3109_5439)"/>
<path d="M211.255 58.4869L191.902 49.7585C191.626 49.6338 191.301 49.7606 191.181 50.0397C191.063 50.3182 191.195 50.64 191.476 50.7541L211.142 58.7508C211.215 58.7803 211.297 58.7462 211.328 58.6741C211.359 58.6023 211.326 58.519 211.255 58.4869Z" fill="url(#paint51_linear_3109_5439)"/>
<circle cx="1.81343" cy="1.81343" r="1.81343" transform="matrix(-0.392495 0.919754 0.919754 0.392495 190.297 47.6914)" fill="url(#paint52_radial_3109_5439)"/>
<path d="M219.517 61.6037L207.592 58.16C207.421 58.1108 207.244 58.2112 207.198 58.3826C207.152 58.5536 207.256 58.7289 207.428 58.7716L219.474 61.7659C219.518 61.7769 219.563 61.7503 219.575 61.706C219.587 61.6619 219.561 61.6164 219.517 61.6037Z" fill="url(#paint53_linear_3109_5439)"/>
<circle cx="1.06027" cy="1.06027" r="1.06027" transform="matrix(-0.257828 0.966191 0.966191 0.257828 206.461 57.0938)" fill="url(#paint54_radial_3109_5439)"/>
<path d="M224.224 64.3515L235.907 77.0749C236.074 77.2568 236.358 77.266 236.536 77.0954C236.714 76.9251 236.718 76.6419 236.545 76.4668L224.393 64.1903C224.348 64.145 224.275 64.144 224.229 64.1881C224.183 64.2321 224.181 64.3047 224.224 64.3515Z" fill="url(#paint55_linear_3109_5439)"/>
<circle cx="1.47547" cy="1.47547" r="1.47547" transform="matrix(0.722669 -0.691194 -0.691194 -0.722669 236.43 79.1367)" fill="url(#paint56_radial_3109_5439)"/>
<path d="M226.852 54.6725L237.176 37.1097C237.324 36.8586 237.237 36.5353 236.983 36.3929C236.729 36.2507 236.408 36.344 236.271 36.5998L226.612 54.5373C226.576 54.6035 226.6 54.6861 226.665 54.7228C226.731 54.7595 226.814 54.7371 226.852 54.6725Z" fill="url(#paint57_linear_3109_5439)"/>
<circle cx="1.74023" cy="1.74023" r="1.74023" transform="matrix(-0.872204 -0.489142 -0.489142 0.872204 239.297 35.7891)" fill="url(#paint58_radial_3109_5439)"/>
<path d="M221.117 72.4039L218.239 92.5725C218.198 92.8608 218.402 93.1266 218.691 93.1619C218.979 93.1971 219.24 92.989 219.271 92.7L221.39 72.4377C221.398 72.3629 221.345 72.2957 221.27 72.2866C221.196 72.2775 221.127 72.3296 221.117 72.4039Z" fill="url(#paint59_linear_3109_5439)"/>
<circle cx="1.74023" cy="1.74023" r="1.74023" transform="matrix(0.992643 0.121081 0.121081 -0.992643 216.75 94.6055)" fill="url(#paint60_radial_3109_5439)"/>
<path d="M221.933 62.8363L236.64 48.7382C236.851 48.5367 236.854 48.2018 236.649 47.9957C236.443 47.7901 236.109 47.7927 235.907 48.0015L221.739 62.641C221.687 62.695 221.687 62.781 221.741 62.8342C221.794 62.8873 221.879 62.8882 221.933 62.8363Z" fill="url(#paint61_linear_3109_5439)"/>
<circle cx="1.74023" cy="1.74023" r="1.74023" transform="matrix(-0.706553 -0.70766 -0.70766 0.706553 239.07 48.0391)" fill="url(#paint62_radial_3109_5439)"/>
<path d="M222.502 62.9956L214.254 81.6243C214.136 81.8906 214.26 82.2018 214.528 82.3142C214.796 82.4264 215.104 82.2971 215.212 82.0272L222.756 63.1024C222.784 63.0326 222.75 62.9533 222.681 62.9243C222.612 62.8953 222.532 62.927 222.502 62.9956Z" fill="url(#paint63_linear_3109_5439)"/>
<circle cx="1.74023" cy="1.74023" r="1.74023" transform="matrix(0.922436 0.38615 0.38615 -0.922436 212.281 83.1797)" fill="url(#paint64_radial_3109_5439)"/>
<path d="M225.162 60.4838L234.431 55.3866C234.563 55.3138 234.61 55.1463 234.534 55.0153C234.459 54.8846 234.291 54.8411 234.162 54.9187L225.091 60.3597C225.057 60.3798 225.046 60.423 225.066 60.4568C225.085 60.4905 225.128 60.5025 225.162 60.4838Z" fill="url(#paint65_linear_3109_5439)"/>
<circle cx="0.903512" cy="0.903512" r="0.903512" transform="matrix(-0.499621 -0.866244 -0.866244 0.499621 235.742 55.3633)" fill="url(#paint66_radial_3109_5439)"/>
<path d="M229.398 59.9606L251.982 50.348C252.305 50.2106 252.452 49.8348 252.308 49.5148C252.164 49.1956 251.787 49.0561 251.47 49.2051L229.263 59.6576C229.181 59.6962 229.145 59.7933 229.182 59.8759C229.219 59.9583 229.315 59.996 229.398 59.9606Z" fill="url(#paint67_linear_3109_5439)"/>
<circle cx="2.09656" cy="2.09656" r="2.09656" transform="matrix(-0.410286 -0.911957 -0.911957 0.410286 255.023 50.6016)" fill="url(#paint68_radial_3109_5439)"/>
<path d="M229.664 60.4931L249.56 55.8323C249.844 55.7657 250.019 55.4784 249.946 55.1955C249.874 54.9131 249.584 54.7448 249.303 54.8219L229.596 60.2252C229.524 60.2452 229.48 60.3197 229.499 60.3928C229.518 60.4656 229.591 60.5102 229.664 60.4931Z" fill="url(#paint69_linear_3109_5439)"/>
<circle cx="1.74547" cy="1.74547" r="1.74547" transform="matrix(-0.247856 -0.968797 -0.968797 0.247856 252 56.4805)" fill="url(#paint70_radial_3109_5439)"/>
<path d="M222.151 63L241.831 63.0495C242.113 63.0502 242.34 62.8197 242.335 62.5384C242.33 62.2578 242.096 62.0357 241.815 62.0455L222.147 62.7339C222.074 62.7364 222.017 62.7967 222.018 62.8693C222.019 62.9417 222.078 62.9998 222.151 63Z" fill="url(#paint71_linear_3109_5439)"/>
<circle cx="1.68108" cy="1.68108" r="1.68108" transform="matrix(-0.0178398 -0.999841 -0.999841 0.0178398 243.977 64.1992)" fill="url(#paint72_radial_3109_5439)"/>
<path d="M223.274 63.4817L251.4 75.5072C251.802 75.6791 252.267 75.4872 252.431 75.0817C252.594 74.6772 252.394 74.2173 251.987 74.0609L223.429 63.0984C223.324 63.0579 223.206 63.1094 223.164 63.2141C223.121 63.3185 223.17 63.4375 223.274 63.4817Z" fill="url(#paint73_linear_3109_5439)"/>
<circle cx="2.6129" cy="2.6129" r="2.6129" transform="matrix(0.374329 -0.927296 -0.927296 -0.374329 253.766 78.4453)" fill="url(#paint74_radial_3109_5439)"/>
<path d="M227.136 65.2339L245.971 77.0707C246.24 77.2399 246.595 77.1549 246.759 76.8823C246.922 76.6103 246.831 76.2572 246.556 76.0986L227.291 64.9762C227.22 64.9352 227.129 64.9587 227.087 65.0291C227.045 65.0993 227.067 65.1903 227.136 65.2339Z" fill="url(#paint75_linear_3109_5439)"/>
<circle cx="1.90016" cy="1.90016" r="1.90016" transform="matrix(0.514763 -0.857333 -0.857333 -0.514763 247.344 79.4531)" fill="url(#paint76_radial_3109_5439)"/>
<path d="M225.845 63.6222L235.575 66.347C235.714 66.386 235.858 66.3031 235.894 66.1632C235.93 66.0237 235.845 65.8817 235.704 65.8481L225.879 63.4899C225.843 63.4812 225.806 63.5032 225.797 63.5393C225.788 63.5753 225.809 63.6121 225.845 63.6222Z" fill="url(#paint77_linear_3109_5439)"/>
<circle cx="0.863101" cy="0.863101" r="0.863101" transform="matrix(0.250015 -0.968242 -0.968242 -0.250015 236.492 67.2031)" fill="url(#paint78_radial_3109_5439)"/>
<path d="M59.6966 115.807L68.3147 96.0534C68.4378 95.7711 68.3051 95.4426 68.0202 95.3252C67.7361 95.208 67.4111 95.3466 67.2988 95.6327L59.4273 115.695C59.3983 115.769 59.4339 115.853 59.5075 115.883C59.5808 115.914 59.6649 115.88 59.6966 115.807Z" fill="url(#paint79_linear_3109_5439)"/>
<circle cx="1.8409" cy="1.8409" r="1.8409" transform="matrix(-0.924516 -0.381142 -0.381142 0.924516 70.4062 94.4023)" fill="url(#paint80_radial_3109_5439)"/>
<path d="M58.6977 123.545L58.2309 145.091C58.2242 145.399 58.4719 145.653 58.7799 145.653C59.0873 145.653 59.3353 145.402 59.3304 145.094L58.9891 123.546C58.9879 123.466 58.9231 123.402 58.8436 123.402C58.7642 123.402 58.6994 123.465 58.6977 123.545Z" fill="url(#paint81_linear_3109_5439)"/>
<circle cx="1.8409" cy="1.8409" r="1.8409" transform="matrix(0.999999 0.00130398 0.00130398 -0.999999 56.9297 147.41)" fill="url(#paint82_radial_3109_5439)"/>
<path d="M58.395 120.176L60.7283 109.729C60.7617 109.58 60.6658 109.432 60.5159 109.402C60.3662 109.372 60.2209 109.47 60.1932 109.62L58.2532 120.147C58.246 120.186 58.2713 120.223 58.31 120.231C58.3487 120.239 58.3864 120.214 58.395 120.176Z" fill="url(#paint83_linear_3109_5439)"/>
<circle cx="0.914325" cy="0.914325" r="0.914325" transform="matrix(-0.980188 -0.198071 -0.198071 0.980188 61.5859 108.727)" fill="url(#paint84_radial_3109_5439)"/>
<path d="M58.228 119.019L60.0388 129.569C60.0647 129.72 60.2094 129.82 60.3596 129.791C60.5095 129.762 60.6066 129.616 60.5752 129.467L58.3702 118.992C58.3621 118.953 58.3245 118.928 58.2857 118.936C58.247 118.943 58.2214 118.98 58.228 119.019Z" fill="url(#paint85_linear_3109_5439)"/>
<circle cx="0.914325" cy="0.914325" r="0.914325" transform="matrix(0.98194 -0.189191 -0.189191 -0.98194 59.6328 130.82)" fill="url(#paint86_radial_3109_5439)"/>
<path d="M58.2119 121.699L58.5308 106.037C58.5353 105.813 58.3551 105.629 58.1311 105.629C57.9077 105.629 57.7277 105.812 57.7315 106.035L58 121.699C58.001 121.757 58.0482 121.803 58.106 121.803C58.1636 121.803 58.2107 121.757 58.2119 121.699Z" fill="url(#paint87_linear_3109_5439)"/>
<circle cx="1.33816" cy="1.33816" r="1.33816" transform="matrix(-1 0 0 1 59.4844 104.352)" fill="url(#paint88_radial_3109_5439)"/>
<path d="M58.7405 120.907L43.2624 118.489C43.0412 118.454 42.8347 118.608 42.8046 118.83C42.7746 119.051 42.932 119.254 43.1538 119.281L58.7117 121.117C58.7691 121.124 58.8213 121.083 58.8291 121.026C58.8368 120.969 58.7974 120.916 58.7405 120.907Z" fill="url(#paint89_linear_3109_5439)"/>
<circle cx="1.33816" cy="1.33816" r="1.33816" transform="matrix(-0.134236 0.990949 0.990949 0.134236 41.7266 117.332)" fill="url(#paint90_radial_3109_5439)"/>
<path d="M57.3121 115.522L53.5663 100.31C53.5127 100.093 53.291 99.9617 53.0747 100.02C52.8589 100.077 52.7324 100.301 52.7939 100.516L57.1073 115.576C57.1233 115.632 57.1808 115.664 57.2366 115.649C57.2923 115.634 57.3259 115.578 57.3121 115.522Z" fill="url(#paint91_linear_3109_5439)"/>
<circle cx="1.33816" cy="1.33816" r="1.33816" transform="matrix(-0.965926 0.258819 0.258819 0.965926 54.0312 98.4336)" fill="url(#paint92_radial_3109_5439)"/>
<path d="M52.5056 121.009L36.929 122.679C36.7064 122.703 36.5468 122.905 36.5752 123.127C36.6035 123.349 36.808 123.504 37.0291 123.472L52.5322 121.219C52.5894 121.211 52.6294 121.158 52.622 121.101C52.6147 121.044 52.563 121.003 52.5056 121.009Z" fill="url(#paint93_linear_3109_5439)"/>
<circle cx="1.33816" cy="1.33816" r="1.33816" transform="matrix(0.126815 0.991926 0.991926 -0.126815 35.125 121.961)" fill="url(#paint94_radial_3109_5439)"/>
<path d="M55.4519 113.087L49.118 97.0314C49.0275 96.8018 48.7661 96.6915 48.5385 96.7867C48.3114 96.8817 48.2062 97.1444 48.3051 97.3698L55.2364 113.177C55.2619 113.235 55.3295 113.262 55.3883 113.238C55.4469 113.213 55.4752 113.146 55.4519 113.087Z" fill="url(#paint95_linear_3109_5439)"/>
<circle cx="1.47432" cy="1.47432" r="1.47432" transform="matrix(-0.922572 0.385824 0.385824 0.922572 49.3594 94.918)" fill="url(#paint96_radial_3109_5439)"/>
<path d="M49.8299 122.498L33.0692 126.619C32.8297 126.678 32.6852 126.922 32.749 127.161C32.8126 127.399 33.0588 127.538 33.2955 127.47L49.8899 122.724C49.9511 122.706 49.987 122.643 49.9705 122.581C49.9541 122.52 49.8916 122.483 49.8299 122.498Z" fill="url(#paint97_linear_3109_5439)"/>
<circle cx="1.47432" cy="1.47432" r="1.47432" transform="matrix(0.25849 0.966014 0.966014 -0.25849 31 126.105)" fill="url(#paint98_radial_3109_5439)"/>
<path d="M58.6395 120.993L53.2345 110.747C53.1572 110.601 52.9747 110.546 52.8299 110.627C52.6854 110.707 52.6345 110.89 52.717 111.033L58.5023 121.069C58.5237 121.106 58.5707 121.119 58.6081 121.098C58.6454 121.077 58.6594 121.031 58.6395 120.993Z" fill="url(#paint99_linear_3109_5439)"/>
<circle cx="0.98949" cy="0.98949" r="0.98949" transform="matrix(-0.874793 0.484497 0.484497 0.874793 53.2422 109.32)" fill="url(#paint100_radial_3109_5439)"/>
<path d="M58.0993 120.412L47.2208 124.392C47.0653 124.449 46.9868 124.623 47.0469 124.777C47.1068 124.931 47.2813 125.006 47.4342 124.944L58.1559 120.558C58.1955 120.542 58.2147 120.497 58.1992 120.457C58.1838 120.417 58.1394 120.397 58.0993 120.412Z" fill="url(#paint101_linear_3109_5439)"/>
<circle cx="0.98949" cy="0.98949" r="0.98949" transform="matrix(0.362683 0.931913 0.931913 -0.362683 45.8047 124.195)" fill="url(#paint102_radial_3109_5439)"/>
<path d="M57.822 118.532L49.0335 109.969C48.9079 109.847 48.7062 109.851 48.5864 109.979C48.4669 110.107 48.4753 110.308 48.6051 110.426L57.7084 118.653C57.742 118.683 57.7937 118.681 57.8247 118.648C57.8555 118.615 57.8543 118.563 57.822 118.532Z" fill="url(#paint103_linear_3109_5439)"/>
<circle cx="1.0481" cy="1.0481" r="1.0481" transform="matrix(-0.683128 0.730299 0.730299 0.683128 48.5703 108.523)" fill="url(#paint104_radial_3109_5439)"/>
<path d="M55.4948 120.919L45.8298 128.479C45.6916 128.587 45.6692 128.787 45.78 128.923C45.8906 129.059 46.0909 129.078 46.2246 128.965L55.5994 121.048C55.634 121.019 55.6388 120.967 55.6102 120.932C55.5817 120.897 55.5303 120.892 55.4948 120.919Z" fill="url(#paint105_linear_3109_5439)"/>
<circle cx="1.0481" cy="1.0481" r="1.0481" transform="matrix(0.631989 0.774977 0.774977 -0.631989 44.3594 128.738)" fill="url(#paint106_radial_3109_5439)"/>
<path d="M54.0418 116.337L41.4985 109.102C41.3192 108.999 41.0899 109.063 40.9902 109.244C40.8907 109.425 40.9588 109.653 41.1414 109.749L53.9472 116.509C53.9944 116.533 54.0529 116.516 54.0787 116.469C54.1044 116.422 54.088 116.364 54.0418 116.337Z" fill="url(#paint107_linear_3109_5439)"/>
<circle cx="1.23688" cy="1.23688" r="1.23688" transform="matrix(-0.48189 0.876232 0.876232 0.48189 40.5703 107.594)" fill="url(#paint108_radial_3109_5439)"/>
<path d="M50.9575 116.518L37.7578 110.565C37.5691 110.48 37.3473 110.567 37.2661 110.757C37.185 110.947 37.2754 111.166 37.4667 111.244L50.8804 116.698C50.9299 116.719 50.9864 116.695 51.0073 116.646C51.0283 116.597 51.0061 116.54 50.9575 116.518Z" fill="url(#paint109_linear_3109_5439)"/>
<circle cx="1.23688" cy="1.23688" r="1.23688" transform="matrix(-0.392495 0.919754 0.919754 0.392495 36.6641 109.156)" fill="url(#paint110_radial_3109_5439)"/>
<path d="M56.5878 118.648L48.454 116.299C48.3377 116.266 48.2166 116.334 48.1853 116.451C48.1542 116.568 48.2248 116.687 48.3419 116.717L56.5581 118.759C56.5884 118.766 56.6192 118.748 56.6272 118.718C56.6353 118.688 56.6177 118.657 56.5878 118.648Z" fill="url(#paint111_linear_3109_5439)"/>
<circle cx="0.723169" cy="0.723169" r="0.723169" transform="matrix(-0.257828 0.966191 0.966191 0.257828 47.6797 115.57)" fill="url(#paint112_radial_3109_5439)"/>
<path d="M59.8007 120.522L67.7691 129.2C67.883 129.324 68.0766 129.33 68.1983 129.214C68.3197 129.098 68.3223 128.904 68.2041 128.785L59.916 120.412C59.8854 120.381 59.8357 120.38 59.8043 120.41C59.773 120.44 59.7714 120.49 59.8007 120.522Z" fill="url(#paint113_linear_3109_5439)"/>
<circle cx="1.00637" cy="1.00637" r="1.00637" transform="matrix(0.722669 -0.691194 -0.691194 -0.722669 68.125 130.605)" fill="url(#paint114_radial_3109_5439)"/>
<path d="M61.5947 113.92L68.6369 101.941C68.7376 101.77 68.678 101.549 68.5047 101.452C68.3319 101.355 68.1131 101.419 68.0192 101.593L61.431 113.828C61.4067 113.873 61.423 113.929 61.4678 113.954C61.5124 113.979 61.5688 113.964 61.5947 113.92Z" fill="url(#paint115_linear_3109_5439)"/>
<circle cx="1.18694" cy="1.18694" r="1.18694" transform="matrix(-0.872204 -0.489142 -0.489142 0.872204 70.0859 101.039)" fill="url(#paint116_radial_3109_5439)"/>
<path d="M57.6781 126.014L55.7152 139.771C55.6871 139.967 55.8261 140.149 56.0232 140.173C56.2199 140.197 56.3981 140.055 56.4188 139.858L57.8646 126.037C57.8699 125.986 57.8334 125.941 57.7825 125.934C57.7317 125.928 57.6853 125.964 57.6781 126.014Z" fill="url(#paint117_linear_3109_5439)"/>
<circle cx="1.18694" cy="1.18694" r="1.18694" transform="matrix(0.992643 0.121081 0.121081 -0.992643 54.7031 141.156)" fill="url(#paint118_radial_3109_5439)"/>
<path d="M58.2311 119.487L68.2622 109.871C68.4056 109.734 68.4081 109.506 68.2678 109.365C68.1278 109.225 67.9 109.227 67.7621 109.369L58.0985 119.354C58.0628 119.391 58.0633 119.45 58.0995 119.486C58.1357 119.522 58.1941 119.523 58.2311 119.487Z" fill="url(#paint119_linear_3109_5439)"/>
<circle cx="1.18694" cy="1.18694" r="1.18694" transform="matrix(-0.706553 -0.70766 -0.70766 0.706553 69.9219 109.395)" fill="url(#paint120_radial_3109_5439)"/>
<path d="M58.6236 119.596L52.998 132.302C52.9176 132.484 53.0021 132.696 53.1853 132.773C53.3681 132.849 53.5782 132.761 53.6516 132.577L58.7968 119.669C58.8158 119.621 58.7931 119.567 58.7458 119.547C58.6986 119.528 58.6443 119.549 58.6236 119.596Z" fill="url(#paint121_linear_3109_5439)"/>
<circle cx="1.18694" cy="1.18694" r="1.18694" transform="matrix(0.922436 0.38615 0.38615 -0.922436 51.6562 133.363)" fill="url(#paint122_radial_3109_5439)"/>
<path d="M60.4435 117.883L66.7651 114.407C66.8554 114.357 66.8874 114.243 66.8358 114.154C66.7844 114.065 66.6699 114.035 66.5817 114.088L60.3949 117.799C60.3721 117.813 60.3644 117.842 60.3777 117.865C60.391 117.888 60.4202 117.896 60.4435 117.883Z" fill="url(#paint123_linear_3109_5439)"/>
<circle cx="0.616252" cy="0.616252" r="0.616252" transform="matrix(-0.499621 -0.866244 -0.866244 0.499621 67.6562 114.391)" fill="url(#paint124_radial_3109_5439)"/>
<path d="M63.3359 117.524L78.7395 110.968C78.9597 110.874 79.06 110.618 78.9618 110.399C78.8638 110.182 78.6064 110.086 78.3904 110.188L63.2433 117.317C63.1874 117.344 63.1629 117.41 63.1883 117.466C63.2136 117.522 63.2792 117.548 63.3359 117.524Z" fill="url(#paint125_linear_3109_5439)"/>
<circle cx="1.42999" cy="1.42999" r="1.42999" transform="matrix(-0.410286 -0.911957 -0.911957 0.410286 80.8125 111.141)" fill="url(#paint126_radial_3109_5439)"/>
<path d="M63.5141 117.891L77.0842 114.712C77.2781 114.666 77.3969 114.47 77.3475 114.277C77.2983 114.085 77.1007 113.97 76.909 114.023L63.4676 117.708C63.418 117.722 63.3885 117.772 63.4012 117.822C63.414 117.872 63.4641 117.902 63.5141 117.891Z" fill="url(#paint127_linear_3109_5439)"/>
<circle cx="1.19052" cy="1.19052" r="1.19052" transform="matrix(-0.247856 -0.968797 -0.968797 0.247856 78.75 115.152)" fill="url(#paint128_radial_3109_5439)"/>
<path d="M58.3835 119.598L71.8067 119.632C71.9986 119.632 72.1534 119.475 72.15 119.283C72.1466 119.092 71.9869 118.94 71.7956 118.947L58.3805 119.417C58.331 119.418 58.2921 119.459 58.2929 119.509C58.2938 119.558 58.3341 119.598 58.3835 119.598Z" fill="url(#paint129_linear_3109_5439)"/>
<circle cx="1.1466" cy="1.1466" r="1.1466" transform="matrix(-0.0178398 -0.999841 -0.999841 0.0178398 73.2734 120.418)" fill="url(#paint130_radial_3109_5439)"/>
<path d="M59.1524 119.932L78.3364 128.134C78.6106 128.251 78.9277 128.12 79.0393 127.844C79.1507 127.568 79.0143 127.254 78.7365 127.148L59.2585 119.67C59.1866 119.643 59.1059 119.678 59.077 119.749C59.0483 119.821 59.0818 119.902 59.1524 119.932Z" fill="url(#paint131_linear_3109_5439)"/>
<circle cx="1.78216" cy="1.78216" r="1.78216" transform="matrix(0.374329 -0.927296 -0.927296 -0.374329 79.9531 130.137)" fill="url(#paint132_radial_3109_5439)"/>
<path d="M61.7879 121.123L74.6342 129.196C74.8179 129.311 75.0605 129.253 75.1721 129.068C75.2835 128.882 75.2212 128.641 75.0338 128.533L61.8938 120.947C61.8453 120.919 61.7834 120.935 61.7546 120.983C61.7258 121.031 61.7406 121.093 61.7879 121.123Z" fill="url(#paint133_linear_3109_5439)"/>
<circle cx="1.29603" cy="1.29603" r="1.29603" transform="matrix(0.514763 -0.857333 -0.857333 -0.514763 75.5703 130.82)" fill="url(#paint134_radial_3109_5439)"/>
<path d="M60.9095 120.027L67.5459 121.885C67.6408 121.912 67.739 121.855 67.7636 121.76C67.7882 121.665 67.73 121.568 67.6344 121.545L60.9329 119.936C60.9082 119.931 60.8833 119.946 60.8769 119.97C60.8706 119.995 60.885 120.02 60.9095 120.027Z" fill="url(#paint135_linear_3109_5439)"/>
<circle cx="0.588689" cy="0.588689" r="0.588689" transform="matrix(0.250015 -0.968242 -0.968242 -0.250015 68.1719 122.469)" fill="url(#paint136_radial_3109_5439)"/>
<g filter="url(#filter1_d_3109_5439)">
<path d="M178.519 158.412C178.604 157.863 179.396 157.863 179.481 158.412L180.079 162.262C180.372 164.149 181.851 165.628 183.738 165.921L187.588 166.519C188.137 166.604 188.137 167.396 187.588 167.481L183.738 168.079C181.851 168.372 180.372 169.851 180.079 171.738L179.481 175.588C179.396 176.137 178.604 176.137 178.519 175.588L177.921 171.738C177.628 169.851 176.149 168.372 174.262 168.079L170.412 167.481C169.863 167.396 169.863 166.604 170.412 166.519L174.262 165.921C176.149 165.628 177.628 164.149 177.921 162.262L178.519 158.412Z" fill="url(#paint137_linear_3109_5439)"/>
</g>
<g filter="url(#filter2_d_3109_5439)">
<path d="M83.6257 57.3207C83.6921 56.8931 84.308 56.8931 84.3743 57.3207L84.839 60.315C85.0667 61.7822 86.2178 62.9333 87.685 63.161L90.6793 63.6257C91.1069 63.692 91.1069 64.308 90.6793 64.3743L87.685 64.839C86.2178 65.0667 85.0667 66.2178 84.839 67.685L84.3743 70.6793C84.308 71.1069 83.6921 71.1069 83.6257 70.6793L83.161 67.685C82.9333 66.2178 81.7822 65.0667 80.315 64.839L77.3207 64.3743C76.8931 64.308 76.8931 63.6921 77.3207 63.6257L80.315 63.161C81.7822 62.9333 82.9333 61.7822 83.161 60.315L83.6257 57.3207Z" fill="url(#paint138_linear_3109_5439)"/>
</g>
<defs>
<filter id="filter0_d_3109_5439" x="187" y="73" width="52" height="52" filterUnits="userSpaceOnUse" color-interpolation-filters="sRGB">
<feFlood flood-opacity="0" result="BackgroundImageFix"/>
<feColorMatrix in="SourceAlpha" type="matrix" values="0 0 0 0 0 0 0 0 0 0 0 0 0 0 0 0 0 0 127 0" result="hardAlpha"/>
<feOffset/>
<feGaussianBlur stdDeviation="10"/>
<feComposite in2="hardAlpha" operator="out"/>
<feColorMatrix type="matrix" values="0 0 0 0 1 0 0 0 0 1 0 0 0 0 1 0 0 0 1 0"/>
<feBlend mode="normal" in2="BackgroundImageFix" result="effect1_dropShadow_3109_5439"/>
<feBlend mode="normal" in="SourceGraphic" in2="effect1_dropShadow_3109_5439" result="shape"/>
</filter>
<filter id="filter1_d_3109_5439" x="150" y="138" width="58" height="58" filterUnits="userSpaceOnUse" color-interpolation-filters="sRGB">
<feFlood flood-opacity="0" result="BackgroundImageFix"/>
<feColorMatrix in="SourceAlpha" type="matrix" values="0 0 0 0 0 0 0 0 0 0 0 0 0 0 0 0 0 0 127 0" result="hardAlpha"/>
<feOffset/>
<feGaussianBlur stdDeviation="10"/>
<feComposite in2="hardAlpha" operator="out"/>
<feColorMatrix type="matrix" values="0 0 0 0 1 0 0 0 0 1 0 0 0 0 1 0 0 0 1 0"/>
<feBlend mode="normal" in2="BackgroundImageFix" result="effect1_dropShadow_3109_5439"/>
<feBlend mode="normal" in="SourceGraphic" in2="effect1_dropShadow_3109_5439" result="shape"/>
</filter>
<filter id="filter2_d_3109_5439" x="57" y="37" width="54" height="54" filterUnits="userSpaceOnUse" color-interpolation-filters="sRGB">
<feFlood flood-opacity="0" result="BackgroundImageFix"/>
<feColorMatrix in="SourceAlpha" type="matrix" values="0 0 0 0 0 0 0 0 0 0 0 0 0 0 0 0 0 0 127 0" result="hardAlpha"/>
<feOffset/>
<feGaussianBlur stdDeviation="10"/>
<feComposite in2="hardAlpha" operator="out"/>
<feColorMatrix type="matrix" values="0 0 0 0 1 0 0 0 0 1 0 0 0 0 1 0 0 0 1 0"/>
<feBlend mode="normal" in2="BackgroundImageFix" result="effect1_dropShadow_3109_5439"/>
<feBlend mode="normal" in="SourceGraphic" in2="effect1_dropShadow_3109_5439" result="shape"/>
</filter>
<linearGradient id="paint0_linear_3109_5439" x1="137.251" y1="117.549" x2="137.251" y2="156.105" gradientUnits="userSpaceOnUse">
<stop stop-color="#08F7DB"/>
<stop offset="1" stop-color="#0F81F0"/>
</linearGradient>
<linearGradient id="paint1_linear_3109_5439" x1="139.478" y1="89.8337" x2="139.478" y2="128.39" gradientUnits="userSpaceOnUse">
<stop stop-color="#08F7DB"/>
<stop offset="1" stop-color="#0F81F0"/>
</linearGradient>
<linearGradient id="paint2_linear_3109_5439" x1="165.697" y1="133.002" x2="165.697" y2="171.558" gradientUnits="userSpaceOnUse">
<stop stop-color="#08F7DB"/>
<stop offset="1" stop-color="#0F81F0"/>
</linearGradient>
<linearGradient id="paint3_linear_3109_5439" x1="169.697" y1="105.002" x2="169.697" y2="143.558" gradientUnits="userSpaceOnUse">
<stop stop-color="#08F7DB"/>
<stop offset="1" stop-color="#0F81F0"/>
</linearGradient>
<linearGradient id="paint4_linear_3109_5439" x1="74.1061" y1="204.182" x2="61.4169" y2="223.351" gradientUnits="userSpaceOnUse">
<stop offset="0.155289" stop-color="#031A30"/>
<stop offset="0.514591" stop-color="#0F81F0"/>
<stop offset="1" stop-color="#031A30"/>
</linearGradient>
<linearGradient id="paint5_linear_3109_5439" x1="74.1061" y1="203.966" x2="61.4169" y2="223.134" gradientUnits="userSpaceOnUse">
<stop offset="0.155289" stop-color="#031A30"/>
<stop offset="0.514591" stop-color="#0F81F0"/>
<stop offset="1" stop-color="#031A30"/>
</linearGradient>
<linearGradient id="paint6_linear_3109_5439" x1="72.7562" y1="205.855" x2="59.4697" y2="245.435" gradientUnits="userSpaceOnUse">
<stop offset="0.0596716" stop-color="#6FB3F6"/>
<stop offset="0.138721" stop-color="white"/>
</linearGradient>
<radialGradient id="paint7_radial_3109_5439" cx="0" cy="0" r="1" gradientUnits="userSpaceOnUse" gradientTransform="translate(68.9689 203.752) rotate(76.8094) scale(17.7471 17.7471)">
<stop stop-color="#9FCDF9"/>
<stop offset="1" stop-color="#6FB3F6"/>
</radialGradient>
<linearGradient id="paint8_linear_3109_5439" x1="39.851" y1="188.922" x2="29.242" y2="204.948" gradientUnits="userSpaceOnUse">
<stop offset="0.155289" stop-color="#031A30"/>
<stop offset="0.514591" stop-color="#0F81F0"/>
<stop offset="1" stop-color="#031A30"/>
</linearGradient>
<linearGradient id="paint9_linear_3109_5439" x1="39.851" y1="188.74" x2="29.242" y2="204.767" gradientUnits="userSpaceOnUse">
<stop offset="0.155289" stop-color="#031A30"/>
<stop offset="0.514591" stop-color="#0F81F0"/>
<stop offset="1" stop-color="#031A30"/>
</linearGradient>
<linearGradient id="paint10_linear_3109_5439" x1="38.7224" y1="190.32" x2="27.614" y2="223.412" gradientUnits="userSpaceOnUse">
<stop offset="0.0596716" stop-color="#6FB3F6"/>
<stop offset="0.138721" stop-color="white"/>
</linearGradient>
<radialGradient id="paint11_radial_3109_5439" cx="0" cy="0" r="1" gradientUnits="userSpaceOnUse" gradientTransform="translate(35.5544 184.903) rotate(76.8094) scale(14.8377)">
<stop stop-color="#9FCDF9"/>
<stop offset="1" stop-color="#6FB3F6"/>
</radialGradient>
<linearGradient id="paint12_linear_3109_5439" x1="257.851" y1="190.922" x2="247.242" y2="206.948" gradientUnits="userSpaceOnUse">
<stop offset="0.155289" stop-color="#031A30"/>
<stop offset="0.514591" stop-color="#0F81F0"/>
<stop offset="1" stop-color="#031A30"/>
</linearGradient>
<linearGradient id="paint13_linear_3109_5439" x1="257.851" y1="190.74" x2="247.242" y2="206.767" gradientUnits="userSpaceOnUse">
<stop offset="0.155289" stop-color="#031A30"/>
<stop offset="0.514591" stop-color="#0F81F0"/>
<stop offset="1" stop-color="#031A30"/>
</linearGradient>
<linearGradient id="paint14_linear_3109_5439" x1="256.722" y1="192.32" x2="245.614" y2="225.412" gradientUnits="userSpaceOnUse">
<stop offset="0.0596716" stop-color="#6FB3F6"/>
<stop offset="0.138721" stop-color="white"/>
</linearGradient>
<radialGradient id="paint15_radial_3109_5439" cx="0" cy="0" r="1" gradientUnits="userSpaceOnUse" gradientTransform="translate(253.554 186.903) rotate(76.8094) scale(14.8377)">
<stop stop-color="#9FCDF9"/>
<stop offset="1" stop-color="#6FB3F6"/>
</radialGradient>
<linearGradient id="paint16_linear_3109_5439" x1="228.106" y1="206.182" x2="215.417" y2="225.351" gradientUnits="userSpaceOnUse">
<stop offset="0.155289" stop-color="#031A30"/>
<stop offset="0.514591" stop-color="#0F81F0"/>
<stop offset="1" stop-color="#031A30"/>
</linearGradient>
<linearGradient id="paint17_linear_3109_5439" x1="228.106" y1="205.966" x2="215.417" y2="225.134" gradientUnits="userSpaceOnUse">
<stop offset="0.155289" stop-color="#031A30"/>
<stop offset="0.514591" stop-color="#0F81F0"/>
<stop offset="1" stop-color="#031A30"/>
</linearGradient>
<linearGradient id="paint18_linear_3109_5439" x1="226.756" y1="207.855" x2="213.47" y2="247.435" gradientUnits="userSpaceOnUse">
<stop offset="0.0596716" stop-color="#6FB3F6"/>
<stop offset="0.138721" stop-color="white"/>
</linearGradient>
<radialGradient id="paint19_radial_3109_5439" cx="0" cy="0" r="1" gradientUnits="userSpaceOnUse" gradientTransform="translate(222.969 205.752) rotate(76.8094) scale(17.7471 17.7471)">
<stop stop-color="#9FCDF9"/>
<stop offset="1" stop-color="#6FB3F6"/>
</radialGradient>
<linearGradient id="paint20_linear_3109_5439" x1="212.999" y1="93.3171" x2="212.999" y2="106.791" gradientUnits="userSpaceOnUse">
<stop stop-color="white"/>
<stop offset="0.869293" stop-color="white"/>
</linearGradient>
<linearGradient id="paint21_linear_3109_5439" x1="236.272" y1="27.4135" x2="224.065" y2="57.5395" gradientUnits="userSpaceOnUse">
<stop offset="0.0504271" stop-color="#0F81F0"/>
<stop offset="0.448862" stop-color="#0F81F0"/>
<stop offset="1" stop-color="#0F81F0" stop-opacity="0"/>
</linearGradient>
<radialGradient id="paint22_radial_3109_5439" cx="0" cy="0" r="1" gradientUnits="userSpaceOnUse" gradientTransform="translate(2.69902 2.69902) rotate(90) scale(2.69902)">
<stop offset="0.389396" stop-color="#0F81F0"/>
<stop offset="1" stop-color="white" stop-opacity="0"/>
</radialGradient>
<linearGradient id="paint23_linear_3109_5439" x1="222.728" y1="101.2" x2="222.573" y2="68.6955" gradientUnits="userSpaceOnUse">
<stop offset="0.0504271" stop-color="#0F81F0"/>
<stop offset="0.448862" stop-color="#0F81F0"/>
<stop offset="1" stop-color="#0F81F0" stop-opacity="0"/>
</linearGradient>
<radialGradient id="paint24_radial_3109_5439" cx="0" cy="0" r="1" gradientUnits="userSpaceOnUse" gradientTransform="translate(2.69902 2.69902) rotate(90) scale(2.69902)">
<stop offset="0.389396" stop-color="#0F81F0"/>
<stop offset="1" stop-color="white" stop-opacity="0"/>
</radialGradient>
<linearGradient id="paint25_linear_3109_5439" x1="225.28" y1="48.052" x2="222.178" y2="63.8956" gradientUnits="userSpaceOnUse">
<stop offset="0.0504271" stop-color="#0F81F0"/>
<stop offset="0.448862" stop-color="#0F81F0"/>
<stop offset="1" stop-color="#0F81F0" stop-opacity="0"/>
</linearGradient>
<radialGradient id="paint26_radial_3109_5439" cx="0" cy="0" r="1" gradientUnits="userSpaceOnUse" gradientTransform="translate(1.34053 1.34053) rotate(90) scale(1.34053)">
<stop offset="0.389396" stop-color="#0F81F0"/>
<stop offset="1" stop-color="white" stop-opacity="0"/>
</radialGradient>
<linearGradient id="paint27_linear_3109_5439" x1="225.041" y1="77.9463" x2="221.891" y2="62.1122" gradientUnits="userSpaceOnUse">
<stop offset="0.0504271" stop-color="#0F81F0"/>
<stop offset="0.448862" stop-color="#0F81F0"/>
<stop offset="1" stop-color="#0F81F0" stop-opacity="0"/>
</linearGradient>
<radialGradient id="paint28_radial_3109_5439" cx="0" cy="0" r="1" gradientUnits="userSpaceOnUse" gradientTransform="translate(1.34053 1.34053) rotate(90) scale(1.34053)">
<stop offset="0.389396" stop-color="#0F81F0"/>
<stop offset="1" stop-color="white" stop-opacity="0"/>
</radialGradient>
<linearGradient id="paint29_linear_3109_5439" x1="221.778" y1="42.5156" x2="221.921" y2="66.1432" gradientUnits="userSpaceOnUse">
<stop offset="0.0504271" stop-color="#0F81F0"/>
<stop offset="0.448862" stop-color="#0F81F0"/>
<stop offset="1" stop-color="#0F81F0" stop-opacity="0"/>
</linearGradient>
<radialGradient id="paint30_radial_3109_5439" cx="0" cy="0" r="1" gradientUnits="userSpaceOnUse" gradientTransform="translate(1.96193 1.96193) rotate(90) scale(1.96193)">
<stop offset="0.389396" stop-color="#0F81F0"/>
<stop offset="1" stop-color="white" stop-opacity="0"/>
</radialGradient>
<linearGradient id="paint31_linear_3109_5439" x1="199.303" y1="61.869" x2="222.736" y2="64.8988" gradientUnits="userSpaceOnUse">
<stop offset="0.0504271" stop-color="#0F81F0"/>
<stop offset="0.448862" stop-color="#0F81F0"/>
<stop offset="1" stop-color="#0F81F0" stop-opacity="0"/>
</linearGradient>
<radialGradient id="paint32_radial_3109_5439" cx="0" cy="0" r="1" gradientUnits="userSpaceOnUse" gradientTransform="translate(1.96193 1.96193) rotate(90) scale(1.96193)">
<stop offset="0.389396" stop-color="#0F81F0"/>
<stop offset="1" stop-color="white" stop-opacity="0"/>
</radialGradient>
<linearGradient id="paint33_linear_3109_5439" x1="214.376" y1="34.2913" x2="220.63" y2="57.0767" gradientUnits="userSpaceOnUse">
<stop offset="0.0504271" stop-color="#0F81F0"/>
<stop offset="0.448862" stop-color="#0F81F0"/>
<stop offset="1" stop-color="#0F81F0" stop-opacity="0"/>
</linearGradient>
<radialGradient id="paint34_radial_3109_5439" cx="0" cy="0" r="1" gradientUnits="userSpaceOnUse" gradientTransform="translate(1.96193 1.96193) rotate(90) scale(1.96193)">
<stop offset="0.389396" stop-color="#0F81F0"/>
<stop offset="1" stop-color="white" stop-opacity="0"/>
</radialGradient>
<linearGradient id="paint35_linear_3109_5439" x1="190.162" y1="68.1743" x2="213.58" y2="65.036" gradientUnits="userSpaceOnUse">
<stop offset="0.0504271" stop-color="#0F81F0"/>
<stop offset="0.448862" stop-color="#0F81F0"/>
<stop offset="1" stop-color="#0F81F0" stop-opacity="0"/>
</linearGradient>
<radialGradient id="paint36_radial_3109_5439" cx="0" cy="0" r="1" gradientUnits="userSpaceOnUse" gradientTransform="translate(1.96193 1.96193) rotate(90) scale(1.96193)">
<stop offset="0.389396" stop-color="#0F81F0"/>
<stop offset="1" stop-color="white" stop-opacity="0"/>
</radialGradient>
<linearGradient id="paint37_linear_3109_5439" x1="207.713" y1="29.5507" x2="217.903" y2="53.506" gradientUnits="userSpaceOnUse">
<stop offset="0.0504271" stop-color="#0F81F0"/>
<stop offset="0.448862" stop-color="#0F81F0"/>
<stop offset="1" stop-color="#0F81F0" stop-opacity="0"/>
</linearGradient>
<radialGradient id="paint38_radial_3109_5439" cx="0" cy="0" r="1" gradientUnits="userSpaceOnUse" gradientTransform="translate(2.16156 2.16156) rotate(90) scale(2.16156)">
<stop offset="0.389396" stop-color="#0F81F0"/>
<stop offset="1" stop-color="white" stop-opacity="0"/>
</radialGradient>
<linearGradient id="paint39_linear_3109_5439" x1="184.561" y1="74.0808" x2="209.667" y2="67.1995" gradientUnits="userSpaceOnUse">
<stop offset="0.0504271" stop-color="#0F81F0"/>
<stop offset="0.448862" stop-color="#0F81F0"/>
<stop offset="1" stop-color="#0F81F0" stop-opacity="0"/>
</linearGradient>
<radialGradient id="paint40_radial_3109_5439" cx="0" cy="0" r="1" gradientUnits="userSpaceOnUse" gradientTransform="translate(2.16156 2.16156) rotate(90) scale(2.16156)">
<stop offset="0.389396" stop-color="#0F81F0"/>
<stop offset="1" stop-color="white" stop-opacity="0"/>
</radialGradient>
<linearGradient id="paint41_linear_3109_5439" x1="214.004" y1="49.8389" x2="222.562" y2="65.0714" gradientUnits="userSpaceOnUse">
<stop offset="0.0504271" stop-color="#0F81F0"/>
<stop offset="0.448862" stop-color="#0F81F0"/>
<stop offset="1" stop-color="#0F81F0" stop-opacity="0"/>
</linearGradient>
<radialGradient id="paint42_radial_3109_5439" cx="0" cy="0" r="1" gradientUnits="userSpaceOnUse" gradientTransform="translate(1.45073 1.45073) rotate(90) scale(1.45073)">
<stop offset="0.389396" stop-color="#0F81F0"/>
<stop offset="1" stop-color="white" stop-opacity="0"/>
</radialGradient>
<linearGradient id="paint43_linear_3109_5439" x1="205.52" y1="70.5872" x2="221.763" y2="64.1521" gradientUnits="userSpaceOnUse">
<stop offset="0.0504271" stop-color="#0F81F0"/>
<stop offset="0.448862" stop-color="#0F81F0"/>
<stop offset="1" stop-color="#0F81F0" stop-opacity="0"/>
</linearGradient>
<radialGradient id="paint44_radial_3109_5439" cx="0" cy="0" r="1" gradientUnits="userSpaceOnUse" gradientTransform="translate(1.45073 1.45073) rotate(90) scale(1.45073)">
<stop offset="0.389396" stop-color="#0F81F0"/>
<stop offset="1" stop-color="white" stop-opacity="0"/>
</radialGradient>
<linearGradient id="paint45_linear_3109_5439" x1="207.774" y1="48.9001" x2="221.366" y2="61.4603" gradientUnits="userSpaceOnUse">
<stop offset="0.0504271" stop-color="#0F81F0"/>
<stop offset="0.448862" stop-color="#0F81F0"/>
<stop offset="1" stop-color="#0F81F0" stop-opacity="0"/>
</linearGradient>
<radialGradient id="paint46_radial_3109_5439" cx="0" cy="0" r="1" gradientUnits="userSpaceOnUse" gradientTransform="translate(1.53666 1.53666) rotate(90) scale(1.53666)">
<stop offset="0.389396" stop-color="#0F81F0"/>
<stop offset="1" stop-color="white" stop-opacity="0"/>
</radialGradient>
<linearGradient id="paint47_linear_3109_5439" x1="203.671" y1="76.6671" x2="217.942" y2="64.8845" gradientUnits="userSpaceOnUse">
<stop offset="0.0504271" stop-color="#0F81F0"/>
<stop offset="0.448862" stop-color="#0F81F0"/>
<stop offset="1" stop-color="#0F81F0" stop-opacity="0"/>
</linearGradient>
<radialGradient id="paint48_radial_3109_5439" cx="0" cy="0" r="1" gradientUnits="userSpaceOnUse" gradientTransform="translate(1.53666 1.53666) rotate(90) scale(1.53666)">
<stop offset="0.389396" stop-color="#0F81F0"/>
<stop offset="1" stop-color="white" stop-opacity="0"/>
</radialGradient>
<linearGradient id="paint49_linear_3109_5439" x1="196.648" y1="47.8117" x2="215.848" y2="58.2199" gradientUnits="userSpaceOnUse">
<stop offset="0.0504271" stop-color="#0F81F0"/>
<stop offset="0.448862" stop-color="#0F81F0"/>
<stop offset="1" stop-color="#0F81F0" stop-opacity="0"/>
</linearGradient>
<radialGradient id="paint50_radial_3109_5439" cx="0" cy="0" r="1" gradientUnits="userSpaceOnUse" gradientTransform="translate(1.81343 1.81343) rotate(90) scale(1.81343)">
<stop offset="0.389396" stop-color="#0F81F0"/>
<stop offset="1" stop-color="white" stop-opacity="0"/>
</radialGradient>
<linearGradient id="paint51_linear_3109_5439" x1="191.182" y1="50.0389" x2="211.321" y2="58.489" gradientUnits="userSpaceOnUse">
<stop offset="0.0504271" stop-color="#0F81F0"/>
<stop offset="0.448862" stop-color="#0F81F0"/>
<stop offset="1" stop-color="#0F81F0" stop-opacity="0"/>
</linearGradient>
<radialGradient id="paint52_radial_3109_5439" cx="0" cy="0" r="1" gradientUnits="userSpaceOnUse" gradientTransform="translate(1.81343 1.81343) rotate(90) scale(1.81343)">
<stop offset="0.389396" stop-color="#0F81F0"/>
<stop offset="1" stop-color="white" stop-opacity="0"/>
</radialGradient>
<linearGradient id="paint53_linear_3109_5439" x1="207.198" y1="58.3821" x2="219.555" y2="61.5995" gradientUnits="userSpaceOnUse">
<stop offset="0.0504271" stop-color="#0F81F0"/>
<stop offset="0.448862" stop-color="#0F81F0"/>
<stop offset="1" stop-color="#0F81F0" stop-opacity="0"/>
</linearGradient>
<radialGradient id="paint54_radial_3109_5439" cx="0" cy="0" r="1" gradientUnits="userSpaceOnUse" gradientTransform="translate(1.06027 1.06027) rotate(90) scale(1.06027)">
<stop offset="0.389396" stop-color="#0F81F0"/>
<stop offset="1" stop-color="white" stop-opacity="0"/>
</radialGradient>
<linearGradient id="paint55_linear_3109_5439" x1="236.535" y1="77.0959" x2="224.176" y2="64.329" gradientUnits="userSpaceOnUse">
<stop offset="0.0504271" stop-color="#0F81F0"/>
<stop offset="0.448862" stop-color="#0F81F0"/>
<stop offset="1" stop-color="#0F81F0" stop-opacity="0"/>
</linearGradient>
<radialGradient id="paint56_radial_3109_5439" cx="0" cy="0" r="1" gradientUnits="userSpaceOnUse" gradientTransform="translate(1.47547 1.47547) rotate(90) scale(1.47547)">
<stop offset="0.389396" stop-color="#0F81F0"/>
<stop offset="1" stop-color="white" stop-opacity="0"/>
</radialGradient>
<linearGradient id="paint57_linear_3109_5439" x1="236.983" y1="36.3933" x2="226.843" y2="54.7348" gradientUnits="userSpaceOnUse">
<stop offset="0.0504271" stop-color="#0F81F0"/>
<stop offset="0.448862" stop-color="#0F81F0"/>
<stop offset="1" stop-color="#0F81F0" stop-opacity="0"/>
</linearGradient>
<radialGradient id="paint58_radial_3109_5439" cx="0" cy="0" r="1" gradientUnits="userSpaceOnUse" gradientTransform="translate(1.74023 1.74023) rotate(90) scale(1.74023)">
<stop offset="0.389396" stop-color="#0F81F0"/>
<stop offset="1" stop-color="white" stop-opacity="0"/>
</radialGradient>
<linearGradient id="paint59_linear_3109_5439" x1="218.69" y1="93.1618" x2="221.101" y2="72.3429" gradientUnits="userSpaceOnUse">
<stop offset="0.0504271" stop-color="#0F81F0"/>
<stop offset="0.448862" stop-color="#0F81F0"/>
<stop offset="1" stop-color="#0F81F0" stop-opacity="0"/>
</linearGradient>
<radialGradient id="paint60_radial_3109_5439" cx="0" cy="0" r="1" gradientUnits="userSpaceOnUse" gradientTransform="translate(1.74023 1.74023) rotate(90) scale(1.74023)">
<stop offset="0.389396" stop-color="#0F81F0"/>
<stop offset="1" stop-color="white" stop-opacity="0"/>
</radialGradient>
<linearGradient id="paint61_linear_3109_5439" x1="236.649" y1="47.9963" x2="221.908" y2="62.8939" gradientUnits="userSpaceOnUse">
<stop offset="0.0504271" stop-color="#0F81F0"/>
<stop offset="0.448862" stop-color="#0F81F0"/>
<stop offset="1" stop-color="#0F81F0" stop-opacity="0"/>
</linearGradient>
<radialGradient id="paint62_radial_3109_5439" cx="0" cy="0" r="1" gradientUnits="userSpaceOnUse" gradientTransform="translate(1.74023 1.74023) rotate(90) scale(1.74023)">
<stop offset="0.389396" stop-color="#0F81F0"/>
<stop offset="1" stop-color="white" stop-opacity="0"/>
</radialGradient>
<linearGradient id="paint63_linear_3109_5439" x1="214.528" y1="82.3139" x2="222.503" y2="62.9327" gradientUnits="userSpaceOnUse">
<stop offset="0.0504271" stop-color="#0F81F0"/>
<stop offset="0.448862" stop-color="#0F81F0"/>
<stop offset="1" stop-color="#0F81F0" stop-opacity="0"/>
</linearGradient>
<radialGradient id="paint64_radial_3109_5439" cx="0" cy="0" r="1" gradientUnits="userSpaceOnUse" gradientTransform="translate(1.74023 1.74023) rotate(90) scale(1.74023)">
<stop offset="0.389396" stop-color="#0F81F0"/>
<stop offset="1" stop-color="white" stop-opacity="0"/>
</radialGradient>
<linearGradient id="paint65_linear_3109_5439" x1="234.534" y1="55.0157" x2="225.142" y2="60.5092" gradientUnits="userSpaceOnUse">
<stop offset="0.0504271" stop-color="#0F81F0"/>
<stop offset="0.448862" stop-color="#0F81F0"/>
<stop offset="1" stop-color="#0F81F0" stop-opacity="0"/>
</linearGradient>
<radialGradient id="paint66_radial_3109_5439" cx="0" cy="0" r="1" gradientUnits="userSpaceOnUse" gradientTransform="translate(0.903512 0.903512) rotate(90) scale(0.903512)">
<stop offset="0.389396" stop-color="#0F81F0"/>
<stop offset="1" stop-color="white" stop-opacity="0"/>
</radialGradient>
<linearGradient id="paint67_linear_3109_5439" x1="252.309" y1="49.5158" x2="229.345" y2="60.0146" gradientUnits="userSpaceOnUse">
<stop offset="0.0504271" stop-color="#0F81F0"/>
<stop offset="0.448862" stop-color="#0F81F0"/>
<stop offset="1" stop-color="#0F81F0" stop-opacity="0"/>
</linearGradient>
<radialGradient id="paint68_radial_3109_5439" cx="0" cy="0" r="1" gradientUnits="userSpaceOnUse" gradientTransform="translate(2.09656 2.09656) rotate(90) scale(2.09656)">
<stop offset="0.389396" stop-color="#0F81F0"/>
<stop offset="1" stop-color="white" stop-opacity="0"/>
</radialGradient>
<linearGradient id="paint69_linear_3109_5439" x1="249.946" y1="55.1963" x2="229.613" y2="60.5298" gradientUnits="userSpaceOnUse">
<stop offset="0.0504271" stop-color="#0F81F0"/>
<stop offset="0.448862" stop-color="#0F81F0"/>
<stop offset="1" stop-color="#0F81F0" stop-opacity="0"/>
</linearGradient>
<radialGradient id="paint70_radial_3109_5439" cx="0" cy="0" r="1" gradientUnits="userSpaceOnUse" gradientTransform="translate(1.74547 1.74547) rotate(90) scale(1.74547)">
<stop offset="0.389396" stop-color="#0F81F0"/>
<stop offset="1" stop-color="white" stop-opacity="0"/>
</radialGradient>
<linearGradient id="paint71_linear_3109_5439" x1="242.335" y1="62.5392" x2="222.095" y2="63.0231" gradientUnits="userSpaceOnUse">
<stop offset="0.0504271" stop-color="#0F81F0"/>
<stop offset="0.448862" stop-color="#0F81F0"/>
<stop offset="1" stop-color="#0F81F0" stop-opacity="0"/>
</linearGradient>
<radialGradient id="paint72_radial_3109_5439" cx="0" cy="0" r="1" gradientUnits="userSpaceOnUse" gradientTransform="translate(1.68108 1.68108) rotate(90) scale(1.68108)">
<stop offset="0.389396" stop-color="#0F81F0"/>
<stop offset="1" stop-color="white" stop-opacity="0"/>
</radialGradient>
<linearGradient id="paint73_linear_3109_5439" x1="252.43" y1="75.0829" x2="223.18" y2="63.4806" gradientUnits="userSpaceOnUse">
<stop offset="0.0504271" stop-color="#0F81F0"/>
<stop offset="0.448862" stop-color="#0F81F0"/>
<stop offset="1" stop-color="#0F81F0" stop-opacity="0"/>
</linearGradient>
<radialGradient id="paint74_radial_3109_5439" cx="0" cy="0" r="1" gradientUnits="userSpaceOnUse" gradientTransform="translate(2.6129 2.6129) rotate(90) scale(2.6129)">
<stop offset="0.389396" stop-color="#0F81F0"/>
<stop offset="1" stop-color="white" stop-opacity="0"/>
</radialGradient>
<linearGradient id="paint75_linear_3109_5439" x1="246.759" y1="76.8831" x2="227.068" y2="65.2223" gradientUnits="userSpaceOnUse">
<stop offset="0.0504271" stop-color="#0F81F0"/>
<stop offset="0.448862" stop-color="#0F81F0"/>
<stop offset="1" stop-color="#0F81F0" stop-opacity="0"/>
</linearGradient>
<radialGradient id="paint76_radial_3109_5439" cx="0" cy="0" r="1" gradientUnits="userSpaceOnUse" gradientTransform="translate(1.90016 1.90016) rotate(90) scale(1.90016)">
<stop offset="0.389396" stop-color="#0F81F0"/>
<stop offset="1" stop-color="white" stop-opacity="0"/>
</radialGradient>
<linearGradient id="paint77_linear_3109_5439" x1="235.894" y1="66.1636" x2="225.814" y2="63.6259" gradientUnits="userSpaceOnUse">
<stop offset="0.0504271" stop-color="#0F81F0"/>
<stop offset="0.448862" stop-color="#0F81F0"/>
<stop offset="1" stop-color="#0F81F0" stop-opacity="0"/>
</linearGradient>
<radialGradient id="paint78_radial_3109_5439" cx="0" cy="0" r="1" gradientUnits="userSpaceOnUse" gradientTransform="translate(0.863101 0.863101) rotate(90) scale(0.863101)">
<stop offset="0.389396" stop-color="#0F81F0"/>
<stop offset="1" stop-color="white" stop-opacity="0"/>
</radialGradient>
<linearGradient id="paint79_linear_3109_5439" x1="68.0211" y1="95.3255" x2="59.6953" y2="115.873" gradientUnits="userSpaceOnUse">
<stop offset="0.0504271" stop-color="#0F81F0"/>
<stop offset="0.448862" stop-color="#0F81F0"/>
<stop offset="1" stop-color="#0F81F0" stop-opacity="0"/>
</linearGradient>
<radialGradient id="paint80_radial_3109_5439" cx="0" cy="0" r="1" gradientUnits="userSpaceOnUse" gradientTransform="translate(1.8409 1.8409) rotate(90) scale(1.8409)">
<stop offset="0.389396" stop-color="#0F81F0"/>
<stop offset="1" stop-color="white" stop-opacity="0"/>
</radialGradient>
<linearGradient id="paint81_linear_3109_5439" x1="58.779" y1="145.653" x2="58.6736" y2="123.483" gradientUnits="userSpaceOnUse">
<stop offset="0.0504271" stop-color="#0F81F0"/>
<stop offset="0.448862" stop-color="#0F81F0"/>
<stop offset="1" stop-color="#0F81F0" stop-opacity="0"/>
</linearGradient>
<radialGradient id="paint82_radial_3109_5439" cx="0" cy="0" r="1" gradientUnits="userSpaceOnUse" gradientTransform="translate(1.8409 1.8409) rotate(90) scale(1.8409)">
<stop offset="0.389396" stop-color="#0F81F0"/>
<stop offset="1" stop-color="white" stop-opacity="0"/>
</radialGradient>
<linearGradient id="paint83_linear_3109_5439" x1="60.5163" y1="109.402" x2="58.4007" y2="120.208" gradientUnits="userSpaceOnUse">
<stop offset="0.0504271" stop-color="#0F81F0"/>
<stop offset="0.448862" stop-color="#0F81F0"/>
<stop offset="1" stop-color="#0F81F0" stop-opacity="0"/>
</linearGradient>
<radialGradient id="paint84_radial_3109_5439" cx="0" cy="0" r="1" gradientUnits="userSpaceOnUse" gradientTransform="translate(0.914325 0.914325) rotate(90) scale(0.914325)">
<stop offset="0.389396" stop-color="#0F81F0"/>
<stop offset="1" stop-color="white" stop-opacity="0"/>
</radialGradient>
<linearGradient id="paint85_linear_3109_5439" x1="60.3592" y1="129.791" x2="58.2104" y2="118.991" gradientUnits="userSpaceOnUse">
<stop offset="0.0504271" stop-color="#0F81F0"/>
<stop offset="0.448862" stop-color="#0F81F0"/>
<stop offset="1" stop-color="#0F81F0" stop-opacity="0"/>
</linearGradient>
<radialGradient id="paint86_radial_3109_5439" cx="0" cy="0" r="1" gradientUnits="userSpaceOnUse" gradientTransform="translate(0.914325 0.914325) rotate(90) scale(0.914325)">
<stop offset="0.389396" stop-color="#0F81F0"/>
<stop offset="1" stop-color="white" stop-opacity="0"/>
</radialGradient>
<linearGradient id="paint87_linear_3109_5439" x1="58.1318" y1="105.629" x2="58.2295" y2="121.744" gradientUnits="userSpaceOnUse">
<stop offset="0.0504271" stop-color="#0F81F0"/>
<stop offset="0.448862" stop-color="#0F81F0"/>
<stop offset="1" stop-color="#0F81F0" stop-opacity="0"/>
</linearGradient>
<radialGradient id="paint88_radial_3109_5439" cx="0" cy="0" r="1" gradientUnits="userSpaceOnUse" gradientTransform="translate(1.33816 1.33816) rotate(90) scale(1.33816)">
<stop offset="0.389396" stop-color="#0F81F0"/>
<stop offset="1" stop-color="white" stop-opacity="0"/>
</radialGradient>
<linearGradient id="paint89_linear_3109_5439" x1="42.8047" y1="118.829" x2="58.7875" y2="120.896" gradientUnits="userSpaceOnUse">
<stop offset="0.0504271" stop-color="#0F81F0"/>
<stop offset="0.448862" stop-color="#0F81F0"/>
<stop offset="1" stop-color="#0F81F0" stop-opacity="0"/>
</linearGradient>
<radialGradient id="paint90_radial_3109_5439" cx="0" cy="0" r="1" gradientUnits="userSpaceOnUse" gradientTransform="translate(1.33816 1.33816) rotate(90) scale(1.33816)">
<stop offset="0.389396" stop-color="#0F81F0"/>
<stop offset="1" stop-color="white" stop-opacity="0"/>
</radialGradient>
<linearGradient id="paint91_linear_3109_5439" x1="53.0754" y1="100.019" x2="57.3407" y2="115.561" gradientUnits="userSpaceOnUse">
<stop offset="0.0504271" stop-color="#0F81F0"/>
<stop offset="0.448862" stop-color="#0F81F0"/>
<stop offset="1" stop-color="#0F81F0" stop-opacity="0"/>
</linearGradient>
<radialGradient id="paint92_radial_3109_5439" cx="0" cy="0" r="1" gradientUnits="userSpaceOnUse" gradientTransform="translate(1.33816 1.33816) rotate(90) scale(1.33816)">
<stop offset="0.389396" stop-color="#0F81F0"/>
<stop offset="1" stop-color="white" stop-opacity="0"/>
</radialGradient>
<linearGradient id="paint93_linear_3109_5439" x1="36.5751" y1="123.127" x2="52.5481" y2="120.986" gradientUnits="userSpaceOnUse">
<stop offset="0.0504271" stop-color="#0F81F0"/>
<stop offset="0.448862" stop-color="#0F81F0"/>
<stop offset="1" stop-color="#0F81F0" stop-opacity="0"/>
</linearGradient>
<radialGradient id="paint94_radial_3109_5439" cx="0" cy="0" r="1" gradientUnits="userSpaceOnUse" gradientTransform="translate(1.33816 1.33816) rotate(90) scale(1.33816)">
<stop offset="0.389396" stop-color="#0F81F0"/>
<stop offset="1" stop-color="white" stop-opacity="0"/>
</radialGradient>
<linearGradient id="paint95_linear_3109_5439" x1="48.5392" y1="96.7864" x2="55.4889" y2="113.125" gradientUnits="userSpaceOnUse">
<stop offset="0.0504271" stop-color="#0F81F0"/>
<stop offset="0.448862" stop-color="#0F81F0"/>
<stop offset="1" stop-color="#0F81F0" stop-opacity="0"/>
</linearGradient>
<radialGradient id="paint96_radial_3109_5439" cx="0" cy="0" r="1" gradientUnits="userSpaceOnUse" gradientTransform="translate(1.47432 1.47432) rotate(90) scale(1.47432)">
<stop offset="0.389396" stop-color="#0F81F0"/>
<stop offset="1" stop-color="white" stop-opacity="0"/>
</radialGradient>
<linearGradient id="paint97_linear_3109_5439" x1="32.7488" y1="127.16" x2="49.8729" y2="122.467" gradientUnits="userSpaceOnUse">
<stop offset="0.0504271" stop-color="#0F81F0"/>
<stop offset="0.448862" stop-color="#0F81F0"/>
<stop offset="1" stop-color="#0F81F0" stop-opacity="0"/>
</linearGradient>
<radialGradient id="paint98_radial_3109_5439" cx="0" cy="0" r="1" gradientUnits="userSpaceOnUse" gradientTransform="translate(1.47432 1.47432) rotate(90) scale(1.47432)">
<stop offset="0.389396" stop-color="#0F81F0"/>
<stop offset="1" stop-color="white" stop-opacity="0"/>
</radialGradient>
<linearGradient id="paint99_linear_3109_5439" x1="52.8303" y1="110.626" x2="58.667" y2="121.016" gradientUnits="userSpaceOnUse">
<stop offset="0.0504271" stop-color="#0F81F0"/>
<stop offset="0.448862" stop-color="#0F81F0"/>
<stop offset="1" stop-color="#0F81F0" stop-opacity="0"/>
</linearGradient>
<radialGradient id="paint100_radial_3109_5439" cx="0" cy="0" r="1" gradientUnits="userSpaceOnUse" gradientTransform="translate(0.98949 0.98949) rotate(90) scale(0.98949)">
<stop offset="0.389396" stop-color="#0F81F0"/>
<stop offset="1" stop-color="white" stop-opacity="0"/>
</radialGradient>
<linearGradient id="paint101_linear_3109_5439" x1="47.0467" y1="124.777" x2="58.1257" y2="120.388" gradientUnits="userSpaceOnUse">
<stop offset="0.0504271" stop-color="#0F81F0"/>
<stop offset="0.448862" stop-color="#0F81F0"/>
<stop offset="1" stop-color="#0F81F0" stop-opacity="0"/>
</linearGradient>
<radialGradient id="paint102_radial_3109_5439" cx="0" cy="0" r="1" gradientUnits="userSpaceOnUse" gradientTransform="translate(0.98949 0.98949) rotate(90) scale(0.98949)">
<stop offset="0.389396" stop-color="#0F81F0"/>
<stop offset="1" stop-color="white" stop-opacity="0"/>
</radialGradient>
<linearGradient id="paint103_linear_3109_5439" x1="48.5868" y1="109.979" x2="57.8571" y2="118.546" gradientUnits="userSpaceOnUse">
<stop offset="0.0504271" stop-color="#0F81F0"/>
<stop offset="0.448862" stop-color="#0F81F0"/>
<stop offset="1" stop-color="#0F81F0" stop-opacity="0"/>
</linearGradient>
<radialGradient id="paint104_radial_3109_5439" cx="0" cy="0" r="1" gradientUnits="userSpaceOnUse" gradientTransform="translate(1.0481 1.0481) rotate(90) scale(1.0481)">
<stop offset="0.389396" stop-color="#0F81F0"/>
<stop offset="1" stop-color="white" stop-opacity="0"/>
</radialGradient>
<linearGradient id="paint105_linear_3109_5439" x1="45.7797" y1="128.923" x2="55.5134" y2="120.887" gradientUnits="userSpaceOnUse">
<stop offset="0.0504271" stop-color="#0F81F0"/>
<stop offset="0.448862" stop-color="#0F81F0"/>
<stop offset="1" stop-color="#0F81F0" stop-opacity="0"/>
</linearGradient>
<radialGradient id="paint106_radial_3109_5439" cx="0" cy="0" r="1" gradientUnits="userSpaceOnUse" gradientTransform="translate(1.0481 1.0481) rotate(90) scale(1.0481)">
<stop offset="0.389396" stop-color="#0F81F0"/>
<stop offset="1" stop-color="white" stop-opacity="0"/>
</radialGradient>
<linearGradient id="paint107_linear_3109_5439" x1="40.9905" y1="109.244" x2="54.0861" y2="116.343" gradientUnits="userSpaceOnUse">
<stop offset="0.0504271" stop-color="#0F81F0"/>
<stop offset="0.448862" stop-color="#0F81F0"/>
<stop offset="1" stop-color="#0F81F0" stop-opacity="0"/>
</linearGradient>
<radialGradient id="paint108_radial_3109_5439" cx="0" cy="0" r="1" gradientUnits="userSpaceOnUse" gradientTransform="translate(1.23688 1.23688) rotate(90) scale(1.23688)">
<stop offset="0.389396" stop-color="#0F81F0"/>
<stop offset="1" stop-color="white" stop-opacity="0"/>
</radialGradient>
<linearGradient id="paint109_linear_3109_5439" x1="37.2663" y1="110.756" x2="51.0022" y2="116.52" gradientUnits="userSpaceOnUse">
<stop offset="0.0504271" stop-color="#0F81F0"/>
<stop offset="0.448862" stop-color="#0F81F0"/>
<stop offset="1" stop-color="#0F81F0" stop-opacity="0"/>
</linearGradient>
<radialGradient id="paint110_radial_3109_5439" cx="0" cy="0" r="1" gradientUnits="userSpaceOnUse" gradientTransform="translate(1.23688 1.23688) rotate(90) scale(1.23688)">
<stop offset="0.389396" stop-color="#0F81F0"/>
<stop offset="1" stop-color="white" stop-opacity="0"/>
</radialGradient>
<linearGradient id="paint111_linear_3109_5439" x1="48.1854" y1="116.451" x2="56.6138" y2="118.645" gradientUnits="userSpaceOnUse">
<stop offset="0.0504271" stop-color="#0F81F0"/>
<stop offset="0.448862" stop-color="#0F81F0"/>
<stop offset="1" stop-color="#0F81F0" stop-opacity="0"/>
</linearGradient>
<radialGradient id="paint112_radial_3109_5439" cx="0" cy="0" r="1" gradientUnits="userSpaceOnUse" gradientTransform="translate(0.723169 0.723169) rotate(90) scale(0.723169)">
<stop offset="0.389396" stop-color="#0F81F0"/>
<stop offset="1" stop-color="white" stop-opacity="0"/>
</radialGradient>
<linearGradient id="paint113_linear_3109_5439" x1="68.1979" y1="129.214" x2="59.7677" y2="120.506" gradientUnits="userSpaceOnUse">
<stop offset="0.0504271" stop-color="#0F81F0"/>
<stop offset="0.448862" stop-color="#0F81F0"/>
<stop offset="1" stop-color="#0F81F0" stop-opacity="0"/>
</linearGradient>
<radialGradient id="paint114_radial_3109_5439" cx="0" cy="0" r="1" gradientUnits="userSpaceOnUse" gradientTransform="translate(1.00637 1.00637) rotate(90) scale(1.00637)">
<stop offset="0.389396" stop-color="#0F81F0"/>
<stop offset="1" stop-color="white" stop-opacity="0"/>
</radialGradient>
<linearGradient id="paint115_linear_3109_5439" x1="68.5052" y1="101.452" x2="61.5888" y2="113.962" gradientUnits="userSpaceOnUse">
<stop offset="0.0504271" stop-color="#0F81F0"/>
<stop offset="0.448862" stop-color="#0F81F0"/>
<stop offset="1" stop-color="#0F81F0" stop-opacity="0"/>
</linearGradient>
<radialGradient id="paint116_radial_3109_5439" cx="0" cy="0" r="1" gradientUnits="userSpaceOnUse" gradientTransform="translate(1.18694 1.18694) rotate(90) scale(1.18694)">
<stop offset="0.389396" stop-color="#0F81F0"/>
<stop offset="1" stop-color="white" stop-opacity="0"/>
</radialGradient>
<linearGradient id="paint117_linear_3109_5439" x1="56.0226" y1="140.173" x2="57.6674" y2="125.973" gradientUnits="userSpaceOnUse">
<stop offset="0.0504271" stop-color="#0F81F0"/>
<stop offset="0.448862" stop-color="#0F81F0"/>
<stop offset="1" stop-color="#0F81F0" stop-opacity="0"/>
</linearGradient>
<radialGradient id="paint118_radial_3109_5439" cx="0" cy="0" r="1" gradientUnits="userSpaceOnUse" gradientTransform="translate(1.18694 1.18694) rotate(90) scale(1.18694)">
<stop offset="0.389396" stop-color="#0F81F0"/>
<stop offset="1" stop-color="white" stop-opacity="0"/>
</radialGradient>
<linearGradient id="paint119_linear_3109_5439" x1="68.2682" y1="109.365" x2="58.2138" y2="119.527" gradientUnits="userSpaceOnUse">
<stop offset="0.0504271" stop-color="#0F81F0"/>
<stop offset="0.448862" stop-color="#0F81F0"/>
<stop offset="1" stop-color="#0F81F0" stop-opacity="0"/>
</linearGradient>
<radialGradient id="paint120_radial_3109_5439" cx="0" cy="0" r="1" gradientUnits="userSpaceOnUse" gradientTransform="translate(1.18694 1.18694) rotate(90) scale(1.18694)">
<stop offset="0.389396" stop-color="#0F81F0"/>
<stop offset="1" stop-color="white" stop-opacity="0"/>
</radialGradient>
<linearGradient id="paint121_linear_3109_5439" x1="53.1848" y1="132.772" x2="58.6247" y2="119.553" gradientUnits="userSpaceOnUse">
<stop offset="0.0504271" stop-color="#0F81F0"/>
<stop offset="0.448862" stop-color="#0F81F0"/>
<stop offset="1" stop-color="#0F81F0" stop-opacity="0"/>
</linearGradient>
<radialGradient id="paint122_radial_3109_5439" cx="0" cy="0" r="1" gradientUnits="userSpaceOnUse" gradientTransform="translate(1.18694 1.18694) rotate(90) scale(1.18694)">
<stop offset="0.389396" stop-color="#0F81F0"/>
<stop offset="1" stop-color="white" stop-opacity="0"/>
</radialGradient>
<linearGradient id="paint123_linear_3109_5439" x1="66.836" y1="114.154" x2="60.4296" y2="117.901" gradientUnits="userSpaceOnUse">
<stop offset="0.0504271" stop-color="#0F81F0"/>
<stop offset="0.448862" stop-color="#0F81F0"/>
<stop offset="1" stop-color="#0F81F0" stop-opacity="0"/>
</linearGradient>
<radialGradient id="paint124_radial_3109_5439" cx="0" cy="0" r="1" gradientUnits="userSpaceOnUse" gradientTransform="translate(0.616252 0.616252) rotate(90) scale(0.616252)">
<stop offset="0.389396" stop-color="#0F81F0"/>
<stop offset="1" stop-color="white" stop-opacity="0"/>
</radialGradient>
<linearGradient id="paint125_linear_3109_5439" x1="78.9621" y1="110.4" x2="63.2997" y2="117.561" gradientUnits="userSpaceOnUse">
<stop offset="0.0504271" stop-color="#0F81F0"/>
<stop offset="0.448862" stop-color="#0F81F0"/>
<stop offset="1" stop-color="#0F81F0" stop-opacity="0"/>
</linearGradient>
<radialGradient id="paint126_radial_3109_5439" cx="0" cy="0" r="1" gradientUnits="userSpaceOnUse" gradientTransform="translate(1.42999 1.42999) rotate(90) scale(1.42999)">
<stop offset="0.389396" stop-color="#0F81F0"/>
<stop offset="1" stop-color="white" stop-opacity="0"/>
</radialGradient>
<linearGradient id="paint127_linear_3109_5439" x1="77.3477" y1="114.278" x2="63.4791" y2="117.916" gradientUnits="userSpaceOnUse">
<stop offset="0.0504271" stop-color="#0F81F0"/>
<stop offset="0.448862" stop-color="#0F81F0"/>
<stop offset="1" stop-color="#0F81F0" stop-opacity="0"/>
</linearGradient>
<radialGradient id="paint128_radial_3109_5439" cx="0" cy="0" r="1" gradientUnits="userSpaceOnUse" gradientTransform="translate(1.19052 1.19052) rotate(90) scale(1.19052)">
<stop offset="0.389396" stop-color="#0F81F0"/>
<stop offset="1" stop-color="white" stop-opacity="0"/>
</radialGradient>
<linearGradient id="paint129_linear_3109_5439" x1="72.15" y1="119.284" x2="58.3451" y2="119.614" gradientUnits="userSpaceOnUse">
<stop offset="0.0504271" stop-color="#0F81F0"/>
<stop offset="0.448862" stop-color="#0F81F0"/>
<stop offset="1" stop-color="#0F81F0" stop-opacity="0"/>
</linearGradient>
<radialGradient id="paint130_radial_3109_5439" cx="0" cy="0" r="1" gradientUnits="userSpaceOnUse" gradientTransform="translate(1.1466 1.1466) rotate(90) scale(1.1466)">
<stop offset="0.389396" stop-color="#0F81F0"/>
<stop offset="1" stop-color="white" stop-opacity="0"/>
</radialGradient>
<linearGradient id="paint131_linear_3109_5439" x1="79.039" y1="127.845" x2="59.088" y2="119.931" gradientUnits="userSpaceOnUse">
<stop offset="0.0504271" stop-color="#0F81F0"/>
<stop offset="0.448862" stop-color="#0F81F0"/>
<stop offset="1" stop-color="#0F81F0" stop-opacity="0"/>
</linearGradient>
<radialGradient id="paint132_radial_3109_5439" cx="0" cy="0" r="1" gradientUnits="userSpaceOnUse" gradientTransform="translate(1.78216 1.78216) rotate(90) scale(1.78216)">
<stop offset="0.389396" stop-color="#0F81F0"/>
<stop offset="1" stop-color="white" stop-opacity="0"/>
</radialGradient>
<linearGradient id="paint133_linear_3109_5439" x1="75.1718" y1="129.068" x2="61.7417" y2="121.115" gradientUnits="userSpaceOnUse">
<stop offset="0.0504271" stop-color="#0F81F0"/>
<stop offset="0.448862" stop-color="#0F81F0"/>
<stop offset="1" stop-color="#0F81F0" stop-opacity="0"/>
</linearGradient>
<radialGradient id="paint134_radial_3109_5439" cx="0" cy="0" r="1" gradientUnits="userSpaceOnUse" gradientTransform="translate(1.29603 1.29603) rotate(90) scale(1.29603)">
<stop offset="0.389396" stop-color="#0F81F0"/>
<stop offset="1" stop-color="white" stop-opacity="0"/>
</radialGradient>
<linearGradient id="paint135_linear_3109_5439" x1="67.7635" y1="121.76" x2="60.8883" y2="120.029" gradientUnits="userSpaceOnUse">
<stop offset="0.0504271" stop-color="#0F81F0"/>
<stop offset="0.448862" stop-color="#0F81F0"/>
<stop offset="1" stop-color="#0F81F0" stop-opacity="0"/>
</linearGradient>
<radialGradient id="paint136_radial_3109_5439" cx="0" cy="0" r="1" gradientUnits="userSpaceOnUse" gradientTransform="translate(0.588689 0.588689) rotate(90) scale(0.588689)">
<stop offset="0.389396" stop-color="#0F81F0"/>
<stop offset="1" stop-color="white" stop-opacity="0"/>
</radialGradient>
<linearGradient id="paint137_linear_3109_5439" x1="178.999" y1="158.476" x2="178.999" y2="178.687" gradientUnits="userSpaceOnUse">
<stop stop-color="white"/>
<stop offset="0.869293" stop-color="white"/>
</linearGradient>
<linearGradient id="paint138_linear_3109_5439" x1="83.9988" y1="57.3699" x2="83.9988" y2="73.0899" gradientUnits="userSpaceOnUse">
<stop stop-color="white"/>
<stop offset="0.869293" stop-color="white"/>
</linearGradient>
</defs>
</svg>
