<svg width="300" height="300" viewBox="0 0 300 300" fill="none" xmlns="http://www.w3.org/2000/svg">
<path fill-rule="evenodd" clip-rule="evenodd" d="M261.963 162.535C261.963 163.735 261.171 164.935 259.585 165.851L156.222 225.527C153.051 227.358 147.909 227.358 144.737 225.527L41.3747 165.851C39.8524 164.972 39.0609 163.831 39 162.679V184.782C39.0609 185.933 39.8524 187.074 41.3747 187.953L144.737 247.629C147.909 249.46 153.051 249.46 156.222 247.629L259.585 187.953C261.171 187.037 261.963 185.837 261.963 184.638V162.535Z" fill="#7D97C2"/>
<path fill-rule="evenodd" clip-rule="evenodd" d="M39.0038 162.681C38.9379 161.433 39.7294 160.174 41.3785 159.222L144.741 99.5451C147.913 97.7141 153.055 97.7141 156.226 99.5451L259.589 159.222C261.174 160.137 261.967 161.337 261.967 162.537V184.639C261.967 183.439 261.174 182.24 259.589 181.324L156.226 121.648C153.055 119.817 147.913 119.817 144.741 121.648L41.3785 181.324C39.7294 182.276 38.9379 183.536 39.0038 184.783V162.681Z" fill="#7D97C2"/>
<path d="M144.741 99.5451C147.913 97.7141 153.055 97.7141 156.226 99.5451L259.589 159.222C262.76 161.053 262.76 164.021 259.589 165.852L156.226 225.529C153.055 227.36 147.913 227.36 144.741 225.529L41.3785 165.852C38.2071 164.021 38.2072 161.053 41.3785 159.222L144.741 99.5451Z" fill="#F0F0F0"/>
<path d="M145.886 113.578C148.365 112.151 152.383 112.151 154.861 113.578L235.631 160.098C238.109 161.525 238.109 163.839 235.631 165.267L154.861 211.786C152.383 213.213 148.365 213.213 145.886 211.786L65.1164 165.267C62.6382 163.839 62.6383 161.525 65.1164 160.098L145.886 113.578Z" fill="#031A30"/>
<path fill-rule="evenodd" clip-rule="evenodd" d="M209.709 145.398C209.709 146.037 209.287 146.676 208.443 147.164L153.411 178.936C151.722 179.911 148.985 179.911 147.296 178.936L92.2643 147.164C91.4539 146.696 91.0324 146.088 91 145.475V157.243C91.0324 157.856 91.4539 158.463 92.2643 158.931L147.296 190.704C148.985 191.679 151.722 191.679 153.411 190.704L208.443 158.931C209.287 158.444 209.709 157.805 209.709 157.166V145.398Z" fill="#7D97C2"/>
<path fill-rule="evenodd" clip-rule="evenodd" d="M91.002 145.478C90.9669 144.814 91.3884 144.144 92.2664 143.637L147.298 111.864C148.987 110.889 151.724 110.889 153.413 111.864L208.445 143.637C209.289 144.124 209.711 144.763 209.711 145.402V157.169C209.711 156.531 209.289 155.892 208.445 155.404L153.413 123.632C151.724 122.657 148.987 122.657 147.298 123.632L92.2664 155.404C91.3884 155.911 90.9669 156.582 91.002 157.246V145.478Z" fill="#7D97C2"/>
<path d="M147.446 111.86C149.13 110.869 151.861 110.869 153.545 111.86L208.439 144.151C210.123 145.141 210.124 146.748 208.439 147.739L153.545 180.029C151.861 181.02 149.13 181.02 147.446 180.029L92.5523 147.739C90.868 146.748 90.868 145.141 92.5523 144.151L147.446 111.86Z" fill="#F0F0F0"/>
<path fill-rule="evenodd" clip-rule="evenodd" d="M173.375 160.453L159.299 152.327V123.884C159.299 118.434 155.473 111.808 150.754 109.083C148.394 107.72 146.257 107.591 144.711 108.484L158.786 100.358C160.333 99.4648 162.469 99.5938 164.829 100.956C169.549 103.681 173.375 110.308 173.375 115.758V144.2L187.45 152.327L173.375 160.453Z" fill="#F0F0F0"/>
<path fill-rule="evenodd" clip-rule="evenodd" d="M173.375 160.453L159.299 152.327V123.884C159.299 118.434 155.473 111.808 150.754 109.083C148.394 107.72 146.257 107.591 144.711 108.484L158.786 100.358C160.333 99.4648 162.469 99.5938 164.829 100.956C169.549 103.681 173.375 110.308 173.375 115.758V144.2L187.45 152.327L173.375 160.453Z" fill="url(#paint0_linear_3108_451)"/>
<path fill-rule="evenodd" clip-rule="evenodd" d="M144.722 108.486C143.175 109.379 142.219 111.293 142.219 114.018V142.461L156.294 134.334V105.892C156.294 103.167 157.251 101.252 158.797 100.359L144.722 108.486Z" fill="#F0F0F0"/>
<path d="M128.133 134.336L130.5 78.5L159.3 97.7676C167.073 102.256 173.375 113.171 173.375 122.147V160.457L159.3 152.331V123.888C159.3 118.438 155.474 111.811 150.754 109.087C146.034 106.362 142.208 108.571 142.208 114.02V142.463L128.133 134.336Z" fill="#0C0631"/>
<path fill-rule="evenodd" clip-rule="evenodd" d="M150.156 174.383L136.081 166.256V137.814C136.081 132.364 132.255 125.737 127.535 123.012C125.175 121.65 123.039 121.521 121.492 122.414L135.568 114.287C137.114 113.394 139.25 113.523 141.61 114.886C146.33 117.611 150.156 124.238 150.156 129.688V158.13L164.231 166.256L150.156 174.383Z" fill="#F0F0F0"/>
<path fill-rule="evenodd" clip-rule="evenodd" d="M150.156 174.383L136.081 166.256V137.814C136.081 132.364 132.255 125.737 127.535 123.012C125.175 121.65 123.039 121.521 121.492 122.414L135.568 114.287C137.114 113.394 139.25 113.523 141.61 114.886C146.33 117.611 150.156 124.238 150.156 129.688V158.13L164.231 166.256L150.156 174.383Z" fill="url(#paint1_linear_3108_451)"/>
<path fill-rule="evenodd" clip-rule="evenodd" d="M118.989 156.394L104.914 148.268V93.7045L118.989 85.5781V140.141L133.065 148.268L118.989 156.394Z" fill="#F0F0F0"/>
<path fill-rule="evenodd" clip-rule="evenodd" d="M118.989 156.394L104.914 148.268V93.7045L118.989 85.5781V140.141L133.065 148.268L118.989 156.394Z" fill="url(#paint2_linear_3108_451)"/>
<path fill-rule="evenodd" clip-rule="evenodd" d="M121.495 122.419C119.949 123.312 118.992 125.227 118.992 127.952V156.394L133.068 148.268V119.825C133.068 117.101 134.024 115.186 135.571 114.293L121.495 122.419Z" fill="#F0F0F0"/>
<path fill-rule="evenodd" clip-rule="evenodd" d="M121.495 122.419C119.949 123.312 118.992 125.227 118.992 127.952V156.394L133.068 148.268V119.825C133.068 117.101 134.024 115.186 135.571 114.293L121.495 122.419Z" fill="url(#paint3_linear_3108_451)"/>
<path d="M104.914 148.266V93.7031L136.081 111.697C143.855 116.185 150.156 127.1 150.156 136.077V174.387L136.081 166.26V137.818C136.081 132.368 132.255 125.741 127.535 123.016C122.815 120.291 118.989 122.5 118.989 127.95V156.393L104.914 148.266Z" fill="#0C0631"/>
<path d="M159.29 97.7614C167.063 102.25 173.365 113.164 173.365 122.141V160.451L187.441 152.324V114.014C187.441 105.038 181.139 94.1231 173.365 89.635L143.359 72.3111C142.641 71.8963 141.756 71.8963 141.037 72.3111L108.387 91.6874C106.84 92.5811 106.84 94.8153 108.387 95.709L136.072 111.692C143.845 116.18 150.147 127.095 150.147 136.072V174.382L164.222 166.255V127.945C164.222 118.969 157.921 108.054 150.147 103.566L137.41 96.0255C134.353 94.3023 134.395 90.4885 137.266 88.4686C141.282 85.6418 146.5 89.792 150.668 92.3895L159.29 97.7614Z" fill="#D9D9D9"/>
<path d="M159.29 97.7614C167.063 102.25 173.365 113.164 173.365 122.141V160.451L187.441 152.324V114.014C187.441 105.038 181.139 94.1231 173.365 89.635L143.359 72.3111C142.641 71.8963 141.756 71.8963 141.037 72.3111L108.387 91.6874C106.84 92.5811 106.84 94.8153 108.387 95.709L136.072 111.692C143.845 116.18 150.147 127.095 150.147 136.072V174.382L164.222 166.255V127.945C164.222 118.969 157.921 108.054 150.147 103.566L137.41 96.0255C134.353 94.3023 134.395 90.4885 137.266 88.4686C141.282 85.6418 146.5 89.792 150.668 92.3895L159.29 97.7614Z" fill="url(#paint4_linear_3108_451)"/>
<path fill-rule="evenodd" clip-rule="evenodd" d="M87.0547 134.323C87.7077 133.946 88.6097 134.001 89.6061 134.576L148.782 168.741C150.774 169.892 152.39 172.69 152.39 174.991V196.656C152.39 197.761 152.018 198.55 151.41 198.945L155.019 196.862C155.626 196.467 155.998 195.678 155.998 194.573V172.908C155.998 170.606 154.383 167.808 152.39 166.658L93.2144 132.493C92.218 131.918 91.3159 131.863 90.663 132.24L87.0547 134.323Z" fill="#031A30"/>
<path fill-rule="evenodd" clip-rule="evenodd" d="M151.412 198.943C150.754 199.371 149.82 199.336 148.784 198.738L89.6083 164.573C87.6155 163.422 86 160.624 86 158.323V136.657C86 135.507 86.4039 134.699 87.0568 134.322L90.6651 132.238C90.0121 132.615 89.6083 133.424 89.6083 134.574V156.24C89.6083 158.541 91.2237 161.339 93.2165 162.49L152.392 196.655C153.428 197.253 154.363 197.288 155.021 196.86L151.412 198.943Z" fill="#031A30"/>
<path d="M86 136.662C86 134.361 87.6155 133.428 89.6083 134.579L148.784 168.744C150.777 169.894 152.392 172.692 152.392 174.993V196.659C152.392 198.96 150.777 199.893 148.784 198.742L89.6083 164.577C87.6155 163.427 86 160.629 86 158.328V136.662Z" fill="#C71B28"/>
<path fill-rule="evenodd" clip-rule="evenodd" d="M93.8594 143.982L101.176 148.206C102.112 148.746 102.938 149.381 103.656 150.111C104.373 150.841 104.933 151.637 105.336 152.501C105.746 153.369 105.951 154.276 105.951 155.222C105.951 155.925 105.859 156.455 105.674 156.814C105.518 157.133 105.325 157.361 105.094 157.497L106.538 156.664C106.768 156.528 106.961 156.3 107.118 155.981C107.302 155.622 107.394 155.091 107.394 154.389C107.394 153.443 107.189 152.535 106.779 151.668C106.376 150.804 105.816 150.007 105.099 149.278C104.382 148.548 103.555 147.913 102.619 147.373L95.3027 143.148L93.8594 143.982Z" fill="#031A30"/>
<path fill-rule="evenodd" clip-rule="evenodd" d="M105.096 157.497C105.065 157.516 105.033 157.533 105 157.548L106.443 156.715C106.476 156.699 106.508 156.683 106.54 156.664L105.096 157.497Z" fill="#031A30"/>
<path fill-rule="evenodd" clip-rule="evenodd" d="M104.996 157.548C104.729 157.67 104.456 157.722 104.176 157.702C103.903 157.686 103.667 157.653 103.469 157.601L104.912 156.768C105.11 156.819 105.346 156.853 105.619 156.869C105.899 156.888 106.172 156.837 106.439 156.715L104.996 157.548Z" fill="#031A30"/>
<path fill-rule="evenodd" clip-rule="evenodd" d="M103.469 157.603V157.839C103.701 158.029 103.978 158.295 104.299 158.638C104.627 158.977 104.948 159.392 105.262 159.881C105.583 160.366 105.849 160.914 106.061 161.525C106.273 162.137 106.379 162.801 106.379 163.519C106.379 164.811 106.054 165.659 105.403 166.064L106.846 165.23C107.497 164.826 107.822 163.978 107.822 162.686C107.822 161.968 107.716 161.303 107.505 160.692C107.293 160.081 107.026 159.532 106.705 159.047C106.391 158.558 106.07 158.144 105.742 157.805C105.421 157.462 105.144 157.196 104.912 157.006V156.77L103.469 157.603Z" fill="#031A30"/>
<path fill-rule="evenodd" clip-rule="evenodd" d="M105.405 166.062C105.281 166.139 105.146 166.199 104.998 166.244C104.076 166.516 102.87 166.223 101.381 165.363L93.8594 161.02V143.982L95.3027 143.148V160.187L102.824 164.529C104.313 165.389 105.519 165.683 106.441 165.411C106.589 165.366 106.725 165.305 106.849 165.228L105.405 166.062Z" fill="#031A30"/>
<path fill-rule="evenodd" clip-rule="evenodd" d="M97.625 149.236V153.022L100.351 154.596C100.938 154.935 101.406 155.051 101.755 154.945C101.789 154.933 101.823 154.919 101.854 154.903L103.297 154.069C103.266 154.086 103.233 154.1 103.198 154.111C102.849 154.218 102.382 154.102 101.794 153.762L99.0683 152.189V148.402L97.625 149.236Z" fill="#031A30"/>
<path fill-rule="evenodd" clip-rule="evenodd" d="M101.854 154.903C102.136 154.752 102.277 154.39 102.277 153.815C102.277 153.176 102.103 152.602 101.755 152.093C101.406 151.577 100.938 151.149 100.351 150.809L97.625 149.236L99.0683 148.402L101.794 149.976C102.382 150.315 102.849 150.743 103.198 151.26C103.546 151.769 103.72 152.343 103.72 152.981C103.72 153.557 103.579 153.919 103.297 154.069L101.854 154.903Z" fill="#031A30"/>
<path fill-rule="evenodd" clip-rule="evenodd" d="M97.625 156.099V160.122L100.597 161.838C101.191 162.181 101.686 162.309 102.082 162.222C102.147 162.209 102.206 162.188 102.26 162.159L103.704 161.326C103.65 161.355 103.59 161.376 103.526 161.389C103.13 161.476 102.634 161.347 102.04 161.004L99.0683 159.289V155.266L97.625 156.099Z" fill="#031A30"/>
<path fill-rule="evenodd" clip-rule="evenodd" d="M102.26 162.159C102.545 162.007 102.687 161.64 102.687 161.057C102.687 160.355 102.486 159.726 102.082 159.169C101.686 158.609 101.191 158.158 100.597 157.815L97.625 156.099L99.0683 155.266L102.04 156.981C102.634 157.324 103.13 157.776 103.526 158.336C103.929 158.892 104.13 159.521 104.13 160.223C104.13 160.807 103.988 161.174 103.704 161.326L102.26 162.159Z" fill="#031A30"/>
<path fill-rule="evenodd" clip-rule="evenodd" d="M107.906 152.095L118.809 158.39V161.514L120.253 160.68V157.557L109.35 151.262L107.906 152.095Z" fill="#031A30"/>
<path fill-rule="evenodd" clip-rule="evenodd" d="M118.812 161.513L111.68 157.396L113.123 156.562L120.255 160.68L118.812 161.513Z" fill="#031A30"/>
<path fill-rule="evenodd" clip-rule="evenodd" d="M111.68 157.396V161.017L117.787 164.543V167.666L119.23 166.833V163.709L113.123 160.183V156.562L111.68 157.396Z" fill="#031A30"/>
<path fill-rule="evenodd" clip-rule="evenodd" d="M117.787 167.668L111.68 164.142L113.123 163.309L119.23 166.835L117.787 167.668Z" fill="#031A30"/>
<path fill-rule="evenodd" clip-rule="evenodd" d="M111.68 164.142V168.189L119.017 172.425V175.548L120.46 174.715V171.591L113.123 167.355V163.309L111.68 164.142Z" fill="#031A30"/>
<path fill-rule="evenodd" clip-rule="evenodd" d="M119.014 175.547L107.906 169.134V152.095L109.35 151.262V168.3L120.457 174.713L119.014 175.547Z" fill="#031A30"/>
<path fill-rule="evenodd" clip-rule="evenodd" d="M120 159.072L133.362 166.786V169.957L134.806 169.124V165.953L121.443 158.238L120 159.072Z" fill="#031A30"/>
<path fill-rule="evenodd" clip-rule="evenodd" d="M133.35 169.958L128.555 167.189L129.998 166.355L134.794 169.124L133.35 169.958Z" fill="#031A30"/>
<path fill-rule="evenodd" clip-rule="evenodd" d="M128.555 167.189V181.056L129.998 180.223V166.355L128.555 167.189Z" fill="#031A30"/>
<path fill-rule="evenodd" clip-rule="evenodd" d="M128.567 181.056L124.796 178.879V165.011L120 162.243V159.072L121.443 158.238V161.409L126.239 164.178V178.046L130.01 180.223L128.567 181.056Z" fill="#031A30"/>
<path fill-rule="evenodd" clip-rule="evenodd" d="M137.328 169.083L141.468 171.473L146.632 191.139V191.494L148.076 190.66V190.305L142.911 170.64L138.771 168.25L137.328 169.083Z" fill="#031A30"/>
<path fill-rule="evenodd" clip-rule="evenodd" d="M146.634 191.49L142.863 189.313L141.961 185.479L136.797 182.497L138.24 181.664L143.405 184.646L144.306 188.48L148.077 190.657L146.634 191.49Z" fill="#031A30"/>
<path fill-rule="evenodd" clip-rule="evenodd" d="M136.8 182.497L135.898 185.29L137.342 184.457L138.243 181.664L136.8 182.497Z" fill="#031A30"/>
<path fill-rule="evenodd" clip-rule="evenodd" d="M135.894 185.294L132.164 183.14V182.785L137.329 169.083L138.772 168.25L133.607 181.952V182.307L137.337 184.46L135.894 185.294Z" fill="#031A30"/>
<path fill-rule="evenodd" clip-rule="evenodd" d="M141.118 181.871L139.478 174.854L139.273 174.736L140.717 173.902L140.922 174.021L142.561 181.037L141.118 181.871Z" fill="#031A30"/>
<path fill-rule="evenodd" clip-rule="evenodd" d="M139.272 174.736L137.633 179.859L141.117 181.871L142.56 181.037L139.076 179.026L140.716 173.902L139.272 174.736Z" fill="#031A30"/>
<path d="M93.8594 143.98L101.176 148.205C102.112 148.745 102.938 149.38 103.656 150.11C104.373 150.839 104.933 151.636 105.336 152.5C105.746 153.367 105.951 154.275 105.951 155.221C105.951 155.923 105.859 156.454 105.674 156.813C105.497 157.175 105.271 157.42 104.998 157.546C104.732 157.669 104.458 157.72 104.178 157.7C103.905 157.684 103.669 157.651 103.471 157.599V157.836C103.703 158.025 103.98 158.292 104.301 158.635C104.629 158.974 104.95 159.388 105.264 159.877C105.585 160.362 105.852 160.911 106.064 161.522C106.275 162.133 106.381 162.798 106.381 163.516C106.381 165.054 105.92 165.963 104.998 166.243C104.076 166.515 102.87 166.221 101.381 165.361L93.8594 161.019V143.98ZM97.6303 149.234V153.02L100.356 154.594C100.944 154.933 101.411 155.05 101.76 154.943C102.108 154.829 102.282 154.452 102.282 153.813C102.282 153.174 102.108 152.6 101.76 152.092C101.411 151.575 100.944 151.147 100.356 150.808L97.6303 149.234ZM97.6303 156.097V160.12L100.602 161.835C101.196 162.179 101.692 162.307 102.088 162.22C102.491 162.137 102.692 161.749 102.692 161.054C102.692 160.352 102.491 159.723 102.088 159.167C101.692 158.607 101.196 158.156 100.602 157.812L97.6303 156.097ZM107.909 152.092L118.812 158.387V161.511L111.68 157.393V161.014L117.787 164.54V167.663L111.68 164.137V168.184L119.017 172.42V175.544L107.909 169.131V152.092ZM119.997 159.071L133.36 166.786V169.957L128.564 167.188V181.056L124.793 178.879V165.011L119.997 162.242V159.071ZM132.165 183.135V182.78L137.329 169.078L141.469 171.468L146.634 191.133V191.488L142.863 189.311L141.961 185.477L136.796 182.496L135.895 185.288L132.165 183.135ZM137.637 179.857L141.121 181.869L139.481 174.852L139.276 174.734L137.637 179.857Z" fill="#F0F0F0"/>
<rect width="27.3083" height="26.8908" rx="5.74105" transform="matrix(0.866025 0.5 -0.866025 0.5 72.3516 214.633)" fill="#7D97C2"/>
<mask id="path-46-outside-1_3108_451" maskUnits="userSpaceOnUse" x="70.4062" y="225.828" width="5" height="4" fill="black">
<rect fill="white" x="70.4062" y="225.828" width="5" height="4"/>
<path d="M71.4069 227.855C71.407 227.82 71.4235 227.788 71.4513 227.768C72.231 227.207 73.2826 227.207 74.0622 227.768C74.0903 227.788 74.1068 227.821 74.1067 227.855L74.1063 227.932C74.1062 227.973 74.0934 228.012 74.07 228.045C73.4263 228.946 72.0865 228.947 71.4429 228.046C71.4191 228.012 71.4063 227.972 71.4065 227.932L71.4069 227.855Z"/>
</mask>
<path d="M71.4069 227.855C71.407 227.82 71.4235 227.788 71.4513 227.768C72.231 227.207 73.2826 227.207 74.0622 227.768C74.0903 227.788 74.1068 227.821 74.1067 227.855L74.1063 227.932C74.1062 227.973 74.0934 228.012 74.07 228.045C73.4263 228.946 72.0865 228.947 71.4429 228.046C71.4191 228.012 71.4063 227.972 71.4065 227.932L71.4069 227.855Z" fill="url(#paint5_linear_3108_451)"/>
<path d="M71.4065 227.932L70.5939 227.928L71.4065 227.932ZM74.1063 227.932L74.9189 227.936L74.1063 227.932ZM74.1067 227.855L73.2941 227.852L74.1067 227.855ZM73.2941 227.852L73.2937 227.929L74.9189 227.936L74.9193 227.859L73.2941 227.852ZM72.2191 227.935L72.2195 227.858L70.5943 227.851L70.5939 227.928L72.2191 227.935ZM71.9261 228.428C72.4223 228.07 73.0916 228.07 73.5874 228.427L74.5371 227.108C73.4736 226.343 72.0396 226.343 70.9765 227.109L71.9261 228.428ZM73.4087 227.573C73.0887 228.021 72.4233 228.02 72.1041 227.574L70.7816 228.518C71.7498 229.874 73.7639 229.872 74.7312 228.517L73.4087 227.573ZM70.5939 227.928C70.593 228.14 70.6587 228.346 70.7816 228.518L72.1041 227.574C72.1795 227.679 72.2197 227.805 72.2191 227.935L70.5939 227.928ZM73.2937 227.929C73.2943 227.801 73.3345 227.677 73.4087 227.573L74.7312 228.517C74.8524 228.348 74.918 228.145 74.9189 227.936L73.2937 227.929ZM74.9193 227.859C74.9206 227.561 74.7782 227.282 74.5371 227.108L73.5874 228.427C73.4024 228.294 73.2931 228.08 73.2941 227.852L74.9193 227.859ZM72.2195 227.858C72.2185 228.084 72.1093 228.296 71.9261 228.428L70.9765 227.109C70.7378 227.281 70.5955 227.557 70.5943 227.851L72.2195 227.858Z" fill="#031A30" mask="url(#path-46-outside-1_3108_451)"/>
<path d="M71.4062 205.855H74.1061V227.994C73.4445 228.92 72.0679 228.92 71.4062 227.994V205.855Z" fill="url(#paint6_linear_3108_451)"/>
<path d="M71.4062 205.855H74.1061V227.994C73.4445 228.92 72.0679 228.92 71.4062 227.994V205.855Z" fill="url(#paint7_linear_3108_451)"/>
<path d="M85.2219 212.823C85.2219 217.893 78.0883 221.031 73.0187 221.031C67.949 221.031 60.4375 216.921 60.4375 211.852C60.4375 206.782 67.949 174 73.0187 174C78.0883 174 85.2219 207.754 85.2219 212.823Z" fill="url(#paint8_radial_3108_451)"/>
<rect width="27.3083" height="26.8908" rx="5.74105" transform="matrix(0.866025 0.5 -0.866025 0.5 38.2891 195.375)" fill="#7D97C2"/>
<mask id="path-51-outside-2_3108_451" maskUnits="userSpaceOnUse" x="36.5938" y="206.855" width="5" height="4" fill="black">
<rect fill="white" x="36.5938" y="206.855" width="5" height="4"/>
<path d="M37.5943 208.714C37.5944 208.685 37.6082 208.658 37.6314 208.641C38.2833 208.172 39.1625 208.172 39.8143 208.641C39.8378 208.658 39.8516 208.685 39.8515 208.714L39.8512 208.779C39.8511 208.813 39.8404 208.845 39.8208 208.873C39.2826 209.626 38.1625 209.627 37.6244 208.874C37.6045 208.846 37.5938 208.812 37.594 208.778L37.5943 208.714Z"/>
</mask>
<path d="M37.5943 208.714C37.5944 208.685 37.6082 208.658 37.6314 208.641C38.2833 208.172 39.1625 208.172 39.8143 208.641C39.8378 208.658 39.8516 208.685 39.8515 208.714L39.8512 208.779C39.8511 208.813 39.8404 208.845 39.8208 208.873C39.2826 209.626 38.1625 209.627 37.6244 208.874C37.6045 208.846 37.5938 208.812 37.594 208.778L37.5943 208.714Z" fill="url(#paint9_linear_3108_451)"/>
<path d="M39.8512 208.779L39.0386 208.775L39.8512 208.779ZM39.8515 208.714L40.6641 208.718L39.8515 208.714ZM39.0389 208.711L39.0386 208.775L40.6638 208.782L40.6641 208.718L39.0389 208.711ZM38.4066 208.781L38.4069 208.717L36.7817 208.71L36.7814 208.774L38.4066 208.781ZM38.1062 209.301C38.4746 209.036 38.9715 209.036 39.3395 209.301L40.2891 207.982C39.3535 207.308 38.0919 207.309 37.1566 207.982L38.1062 209.301ZM39.1595 208.401C38.9451 208.701 38.4993 208.7 38.2856 208.401L36.9631 209.346C37.8257 210.554 39.6202 210.552 40.482 209.345L39.1595 208.401ZM36.7814 208.774C36.7805 208.979 36.8441 209.179 36.9631 209.346L38.2856 208.401C38.3648 208.512 38.4072 208.645 38.4066 208.781L36.7814 208.774ZM39.0386 208.775C39.0392 208.641 39.0815 208.51 39.1595 208.401L40.482 209.345C40.5993 209.181 40.6629 208.984 40.6638 208.782L39.0386 208.775ZM40.6641 208.718C40.6653 208.426 40.5257 208.152 40.2891 207.982L39.3395 209.301C39.1499 209.164 39.0379 208.944 39.0389 208.711L40.6641 208.718ZM38.4069 208.717C38.4058 208.949 38.294 209.166 38.1062 209.301L37.1566 207.982C36.9224 208.151 36.7829 208.421 36.7817 208.71L38.4069 208.717Z" fill="#031A30" mask="url(#path-51-outside-2_3108_451)"/>
<path d="M37.5938 190.32H39.851V208.83C39.2978 209.604 38.1469 209.604 37.5938 208.83V190.32Z" fill="url(#paint10_linear_3108_451)"/>
<path d="M37.5938 190.32H39.851V208.83C39.2978 209.604 38.1469 209.604 37.5938 208.83V190.32Z" fill="url(#paint11_linear_3108_451)"/>
<circle cx="38.9402" cy="191.675" r="7.67458" fill="url(#paint12_radial_3108_451)"/>
<rect width="27.3083" height="26.8908" rx="5.74105" transform="matrix(0.866025 0.5 -0.866025 0.5 256.289 197.375)" fill="#7D97C2"/>
<mask id="path-56-outside-3_3108_451" maskUnits="userSpaceOnUse" x="254.594" y="208.855" width="5" height="4" fill="black">
<rect fill="white" x="254.594" y="208.855" width="5" height="4"/>
<path d="M255.594 210.714C255.594 210.685 255.608 210.658 255.631 210.641C256.283 210.172 257.163 210.172 257.814 210.641C257.838 210.658 257.852 210.685 257.851 210.714L257.851 210.779C257.851 210.813 257.84 210.845 257.821 210.873C257.283 211.626 256.163 211.627 255.624 210.874C255.604 210.846 255.594 210.812 255.594 210.778L255.594 210.714Z"/>
</mask>
<path d="M255.594 210.714C255.594 210.685 255.608 210.658 255.631 210.641C256.283 210.172 257.163 210.172 257.814 210.641C257.838 210.658 257.852 210.685 257.851 210.714L257.851 210.779C257.851 210.813 257.84 210.845 257.821 210.873C257.283 211.626 256.163 211.627 255.624 210.874C255.604 210.846 255.594 210.812 255.594 210.778L255.594 210.714Z" fill="url(#paint13_linear_3108_451)"/>
<path d="M257.851 210.779L257.039 210.775L257.851 210.779ZM257.851 210.714L258.664 210.718L257.851 210.714ZM257.039 210.711L257.039 210.775L258.664 210.782L258.664 210.718L257.039 210.711ZM256.407 210.781L256.407 210.717L254.782 210.71L254.781 210.774L256.407 210.781ZM256.106 211.301C256.475 211.036 256.972 211.036 257.34 211.301L258.289 209.982C257.354 209.308 256.092 209.309 255.157 209.982L256.106 211.301ZM257.16 210.401C256.945 210.701 256.499 210.7 256.286 210.401L254.963 211.346C255.826 212.554 257.62 212.552 258.482 211.345L257.16 210.401ZM254.781 210.774C254.78 210.979 254.844 211.179 254.963 211.346L256.286 210.401C256.365 210.512 256.407 210.645 256.407 210.781L254.781 210.774ZM257.039 210.775C257.039 210.641 257.081 210.51 257.16 210.401L258.482 211.345C258.599 211.181 258.663 210.984 258.664 210.782L257.039 210.775ZM258.664 210.718C258.665 210.426 258.526 210.152 258.289 209.982L257.34 211.301C257.15 211.164 257.038 210.944 257.039 210.711L258.664 210.718ZM256.407 210.717C256.406 210.949 256.294 211.166 256.106 211.301L255.157 209.982C254.922 210.151 254.783 210.421 254.782 210.71L256.407 210.717Z" fill="#031A30" mask="url(#path-56-outside-3_3108_451)"/>
<path d="M255.594 192.32H257.851V210.83C257.298 211.604 256.147 211.604 255.594 210.83V192.32Z" fill="url(#paint14_linear_3108_451)"/>
<path d="M255.594 192.32H257.851V210.83C257.298 211.604 256.147 211.604 255.594 210.83V192.32Z" fill="url(#paint15_linear_3108_451)"/>
<circle cx="256.94" cy="193.675" r="7.67458" fill="url(#paint16_radial_3108_451)"/>
<rect width="27.3083" height="26.8908" rx="5.74105" transform="matrix(0.866025 0.5 -0.866025 0.5 226.352 216.633)" fill="#7D97C2"/>
<mask id="path-61-outside-4_3108_451" maskUnits="userSpaceOnUse" x="224.406" y="227.828" width="5" height="4" fill="black">
<rect fill="white" x="224.406" y="227.828" width="5" height="4"/>
<path d="M225.407 229.855C225.407 229.82 225.424 229.788 225.451 229.768C226.231 229.207 227.283 229.207 228.062 229.768C228.09 229.788 228.107 229.821 228.107 229.855L228.106 229.932C228.106 229.973 228.093 230.012 228.07 230.045C227.426 230.946 226.087 230.947 225.443 230.046C225.419 230.012 225.406 229.972 225.407 229.932L225.407 229.855Z"/>
</mask>
<path d="M225.407 229.855C225.407 229.82 225.424 229.788 225.451 229.768C226.231 229.207 227.283 229.207 228.062 229.768C228.09 229.788 228.107 229.821 228.107 229.855L228.106 229.932C228.106 229.973 228.093 230.012 228.07 230.045C227.426 230.946 226.087 230.947 225.443 230.046C225.419 230.012 225.406 229.972 225.407 229.932L225.407 229.855Z" fill="url(#paint17_linear_3108_451)"/>
<path d="M225.407 229.932L224.594 229.928L225.407 229.932ZM228.106 229.932L228.919 229.936L228.106 229.932ZM228.107 229.855L227.294 229.852L228.107 229.855ZM227.294 229.852L227.294 229.929L228.919 229.936L228.919 229.859L227.294 229.852ZM226.219 229.935L226.219 229.858L224.594 229.851L224.594 229.928L226.219 229.935ZM225.926 230.428C226.422 230.07 227.092 230.07 227.587 230.427L228.537 229.108C227.474 228.343 226.04 228.343 224.977 229.109L225.926 230.428ZM227.409 229.573C227.089 230.021 226.423 230.02 226.104 229.574L224.782 230.518C225.75 231.874 227.764 231.872 228.731 230.517L227.409 229.573ZM224.594 229.928C224.593 230.14 224.659 230.346 224.782 230.518L226.104 229.574C226.179 229.679 226.22 229.805 226.219 229.935L224.594 229.928ZM227.294 229.929C227.294 229.801 227.335 229.677 227.409 229.573L228.731 230.517C228.852 230.348 228.918 230.145 228.919 229.936L227.294 229.929ZM228.919 229.859C228.921 229.561 228.778 229.282 228.537 229.108L227.587 230.427C227.402 230.294 227.293 230.08 227.294 229.852L228.919 229.859ZM226.219 229.858C226.218 230.084 226.109 230.296 225.926 230.428L224.977 229.109C224.738 229.281 224.596 229.557 224.594 229.851L226.219 229.858Z" fill="#031A30" mask="url(#path-61-outside-4_3108_451)"/>
<path d="M225.406 207.855H228.106V229.994C227.444 230.92 226.068 230.92 225.406 229.994V207.855Z" fill="url(#paint18_linear_3108_451)"/>
<path d="M225.406 207.855H228.106V229.994C227.444 230.92 226.068 230.92 225.406 229.994V207.855Z" fill="url(#paint19_linear_3108_451)"/>
<path d="M239.222 214.823C239.222 219.893 232.088 223.031 227.019 223.031C221.949 223.031 214.438 218.921 214.438 213.852C214.438 208.782 221.949 176 227.019 176C232.088 176 239.222 209.754 239.222 214.823Z" fill="url(#paint20_radial_3108_451)"/>
<g filter="url(#filter0_d_3108_451)">
<path d="M214.679 83.2749C214.736 82.9084 215.264 82.9084 215.321 83.2749L215.719 85.8414C215.914 87.099 216.901 88.0856 218.159 88.2808L220.725 88.6792C221.092 88.736 221.092 89.264 220.725 89.3208L218.159 89.7192C216.901 89.9143 215.914 90.901 215.719 92.1586L215.321 94.7251C215.264 95.0916 214.736 95.0916 214.679 94.7251L214.281 92.1586C214.086 90.901 213.099 89.9143 211.841 89.7192L209.275 89.3208C208.908 89.264 208.908 88.736 209.275 88.6792L211.841 88.2808C213.099 88.0856 214.086 87.099 214.281 85.8414L214.679 83.2749Z" fill="url(#paint21_linear_3108_451)"/>
</g>
<path d="M226.067 47.442L238.702 18.4807C238.883 18.0667 238.688 17.5851 238.271 17.413C237.854 17.2412 237.377 17.4443 237.213 17.8639L225.672 47.2785C225.63 47.387 225.682 47.5097 225.79 47.5541C225.897 47.5984 226.02 47.5486 226.067 47.442Z" fill="url(#paint22_linear_3108_451)"/>
<circle cx="2.69902" cy="2.69902" r="2.69902" transform="matrix(-0.924516 -0.381142 -0.381142 0.924516 241.766 16.0586)" fill="url(#paint23_radial_3108_451)"/>
<path d="M224.608 58.7865L223.924 90.3766C223.914 90.8282 224.277 91.1997 224.729 91.2003C225.18 91.2009 225.543 90.8319 225.536 90.3813L225.036 58.7877C225.034 58.6711 224.939 58.5776 224.822 58.5774C224.706 58.5773 224.611 58.6702 224.608 58.7865Z" fill="url(#paint24_linear_3108_451)"/>
<circle cx="2.69902" cy="2.69902" r="2.69902" transform="matrix(0.999999 0.00130398 0.00130398 -0.999999 222.016 93.7773)" fill="url(#paint25_radial_3108_451)"/>
<path d="M224.17 53.8479L227.591 38.5316C227.64 38.3127 227.499 38.0963 227.279 38.0519C227.06 38.0075 226.847 38.1517 226.806 38.3718L223.962 53.8055C223.951 53.8624 223.988 53.9173 224.045 53.9288C224.102 53.9402 224.157 53.9043 224.17 53.8479Z" fill="url(#paint26_linear_3108_451)"/>
<circle cx="1.34053" cy="1.34053" r="1.34053" transform="matrix(-0.980188 -0.198071 -0.198071 0.980188 228.844 37.0625)" fill="url(#paint27_radial_3108_451)"/>
<path d="M223.917 52.1532L226.571 67.6207C226.609 67.8418 226.822 67.9886 227.042 67.9461C227.262 67.9038 227.404 67.6895 227.358 67.4705L224.125 52.1134C224.113 52.0568 224.058 52.0201 224.001 52.0311C223.944 52.042 223.907 52.0963 223.917 52.1532Z" fill="url(#paint28_linear_3108_451)"/>
<circle cx="1.34053" cy="1.34053" r="1.34053" transform="matrix(0.98194 -0.189191 -0.189191 -0.98194 225.977 69.4531)" fill="url(#paint29_radial_3108_451)"/>
<path d="M223.895 56.0772L224.363 33.1136C224.37 32.7853 224.105 32.5156 223.777 32.5156C223.449 32.5156 223.185 32.7842 223.191 33.1117L223.585 56.0767C223.586 56.1614 223.655 56.2293 223.74 56.2293C223.825 56.2293 223.894 56.1617 223.895 56.0772Z" fill="url(#paint30_linear_3108_451)"/>
<circle cx="1.96193" cy="1.96193" r="1.96193" transform="matrix(-1 0 0 1 225.758 30.6445)" fill="url(#paint31_radial_3108_451)"/>
<path d="M224.667 54.9155L201.974 51.3697C201.649 51.319 201.347 51.5447 201.303 51.87C201.259 52.1946 201.489 52.4922 201.815 52.5306L224.625 55.2232C224.709 55.2332 224.785 55.1738 224.797 55.0898C224.808 55.006 224.75 54.9285 224.667 54.9155Z" fill="url(#paint32_linear_3108_451)"/>
<circle cx="1.96193" cy="1.96193" r="1.96193" transform="matrix(-0.134236 0.990949 0.990949 0.134236 199.719 49.6719)" fill="url(#paint33_radial_3108_451)"/>
<path d="M222.588 47.0196L217.096 24.7174C217.018 24.3986 216.693 24.2065 216.375 24.2915C216.059 24.3763 215.874 24.704 215.964 25.0189L222.288 47.0995C222.311 47.181 222.395 47.2287 222.477 47.2067C222.559 47.1849 222.608 47.1017 222.588 47.0196Z" fill="url(#paint34_linear_3108_451)"/>
<circle cx="1.96193" cy="1.96193" r="1.96193" transform="matrix(-0.965926 0.258819 0.258819 0.965926 217.773 21.9688)" fill="url(#paint35_radial_3108_451)"/>
<path d="M215.518 55.0699L192.681 57.5183C192.354 57.5533 192.12 57.8496 192.162 58.1753C192.203 58.5002 192.503 58.728 192.827 58.6809L215.557 55.3781C215.641 55.3659 215.699 55.2887 215.689 55.2046C215.678 55.1208 215.602 55.0609 215.518 55.0699Z" fill="url(#paint36_linear_3108_451)"/>
<circle cx="1.96193" cy="1.96193" r="1.96193" transform="matrix(0.126815 0.991926 0.991926 -0.126815 190.039 56.4648)" fill="url(#paint37_radial_3108_451)"/>
<path d="M219.848 43.4498L210.562 19.9098C210.429 19.5733 210.046 19.4115 209.712 19.5511C209.379 19.6904 209.225 20.0755 209.37 20.406L219.532 43.5813C219.57 43.6669 219.669 43.7065 219.755 43.6705C219.841 43.6346 219.883 43.5365 219.848 43.4498Z" fill="url(#paint38_linear_3108_451)"/>
<circle cx="2.16156" cy="2.16156" r="2.16156" transform="matrix(-0.922572 0.385824 0.385824 0.922572 210.914 16.8125)" fill="url(#paint39_radial_3108_451)"/>
<path d="M211.604 57.2457L187.03 63.288C186.679 63.3743 186.467 63.7324 186.561 64.0818C186.654 64.4305 187.015 64.635 187.362 64.5357L211.692 57.5764C211.782 57.5508 211.834 57.4579 211.81 57.3676C211.786 57.2777 211.694 57.2234 211.604 57.2457Z" fill="url(#paint40_linear_3108_451)"/>
<circle cx="2.16156" cy="2.16156" r="2.16156" transform="matrix(0.25849 0.966014 0.966014 -0.25849 184 62.5352)" fill="url(#paint41_radial_3108_451)"/>
<path d="M224.521 55.0378L216.597 40.0161C216.484 39.8014 216.216 39.7216 216.004 39.8393C215.792 39.9566 215.717 40.2249 215.838 40.4347L224.32 55.1488C224.352 55.2031 224.421 55.2223 224.475 55.1919C224.53 55.1616 224.551 55.0931 224.521 55.0378Z" fill="url(#paint42_linear_3108_451)"/>
<circle cx="1.45073" cy="1.45073" r="1.45073" transform="matrix(-0.874793 0.484497 0.484497 0.874793 216.609 37.9258)" fill="url(#paint43_radial_3108_451)"/>
<path d="M223.724 54.1875L207.775 60.0238C207.547 60.1072 207.432 60.3617 207.52 60.5879C207.608 60.8136 207.863 60.9235 208.088 60.8318L223.807 54.4017C223.865 54.378 223.893 54.3121 223.871 54.2537C223.848 54.1955 223.783 54.166 223.724 54.1875Z" fill="url(#paint44_linear_3108_451)"/>
<circle cx="1.45073" cy="1.45073" r="1.45073" transform="matrix(0.362683 0.931913 0.931913 -0.362683 205.695 59.7344)" fill="url(#paint45_radial_3108_451)"/>
<path d="M223.314 51.4397L210.429 38.8855C210.245 38.706 209.949 38.7129 209.774 38.9007C209.598 39.0881 209.611 39.3827 209.801 39.5548L223.148 51.6171C223.197 51.6616 223.273 51.6584 223.318 51.6099C223.364 51.5616 223.362 51.4859 223.314 51.4397Z" fill="url(#paint46_linear_3108_451)"/>
<circle cx="1.53666" cy="1.53666" r="1.53666" transform="matrix(-0.683128 0.730299 0.730299 0.683128 209.75 36.7656)" fill="url(#paint47_radial_3108_451)"/>
<path d="M219.914 54.9329L205.744 66.0161C205.541 66.1745 205.509 66.4684 205.671 66.6677C205.833 66.8666 206.127 66.8939 206.323 66.7283L220.068 55.1217C220.118 55.0788 220.125 55.0032 220.083 54.9518C220.042 54.9005 219.966 54.8921 219.914 54.9329Z" fill="url(#paint48_linear_3108_451)"/>
<circle cx="1.53666" cy="1.53666" r="1.53666" transform="matrix(0.631989 0.774977 0.774977 -0.631989 203.586 66.3984)" fill="url(#paint49_radial_3108_451)"/>
<path d="M217.783 48.2113L199.393 37.6043C199.13 37.4527 198.794 37.5466 198.648 37.8125C198.502 38.0778 198.602 38.4112 198.869 38.5526L217.644 48.4627C217.714 48.4993 217.8 48.4735 217.837 48.4049C217.875 48.3364 217.851 48.2504 217.783 48.2113Z" fill="url(#paint50_linear_3108_451)"/>
<circle cx="1.81343" cy="1.81343" r="1.81343" transform="matrix(-0.48189 0.876232 0.876232 0.48189 198.031 35.3945)" fill="url(#paint51_radial_3108_451)"/>
<path d="M213.255 48.4869L193.902 39.7585C193.626 39.6338 193.301 39.7606 193.181 40.0397C193.063 40.3182 193.195 40.64 193.476 40.7541L213.142 48.7508C213.215 48.7803 213.297 48.7462 213.328 48.6741C213.359 48.6023 213.326 48.519 213.255 48.4869Z" fill="url(#paint52_linear_3108_451)"/>
<circle cx="1.81343" cy="1.81343" r="1.81343" transform="matrix(-0.392495 0.919754 0.919754 0.392495 192.297 37.6914)" fill="url(#paint53_radial_3108_451)"/>
<path d="M221.517 51.6037L209.592 48.16C209.421 48.1108 209.244 48.2112 209.198 48.3826C209.152 48.5536 209.256 48.7289 209.428 48.7716L221.474 51.7659C221.518 51.7769 221.563 51.7503 221.575 51.706C221.587 51.6619 221.561 51.6164 221.517 51.6037Z" fill="url(#paint54_linear_3108_451)"/>
<circle cx="1.06027" cy="1.06027" r="1.06027" transform="matrix(-0.257828 0.966191 0.966191 0.257828 208.461 47.0938)" fill="url(#paint55_radial_3108_451)"/>
<path d="M226.224 54.3515L237.907 67.0749C238.074 67.2568 238.358 67.266 238.536 67.0954C238.714 66.9251 238.718 66.6419 238.545 66.4668L226.393 54.1903C226.348 54.145 226.275 54.144 226.229 54.1881C226.183 54.2321 226.181 54.3047 226.224 54.3515Z" fill="url(#paint56_linear_3108_451)"/>
<circle cx="1.47547" cy="1.47547" r="1.47547" transform="matrix(0.722669 -0.691194 -0.691194 -0.722669 238.43 69.1367)" fill="url(#paint57_radial_3108_451)"/>
<path d="M228.852 44.6725L239.176 27.1097C239.324 26.8586 239.237 26.5353 238.983 26.3929C238.729 26.2507 238.408 26.344 238.271 26.5998L228.612 44.5373C228.576 44.6035 228.6 44.6861 228.665 44.7228C228.731 44.7595 228.814 44.7371 228.852 44.6725Z" fill="url(#paint58_linear_3108_451)"/>
<circle cx="1.74023" cy="1.74023" r="1.74023" transform="matrix(-0.872204 -0.489142 -0.489142 0.872204 241.297 25.7891)" fill="url(#paint59_radial_3108_451)"/>
<path d="M223.117 62.4039L220.239 82.5725C220.198 82.8608 220.402 83.1266 220.691 83.1619C220.979 83.1971 221.24 82.989 221.271 82.7L223.39 62.4377C223.398 62.3629 223.345 62.2957 223.27 62.2866C223.196 62.2775 223.127 62.3296 223.117 62.4039Z" fill="url(#paint60_linear_3108_451)"/>
<circle cx="1.74023" cy="1.74023" r="1.74023" transform="matrix(0.992643 0.121081 0.121081 -0.992643 218.75 84.6055)" fill="url(#paint61_radial_3108_451)"/>
<path d="M223.933 52.8363L238.64 38.7382C238.851 38.5367 238.854 38.2018 238.649 37.9957C238.443 37.7901 238.109 37.7927 237.907 38.0015L223.739 52.641C223.687 52.695 223.687 52.781 223.741 52.8342C223.794 52.8873 223.879 52.8882 223.933 52.8363Z" fill="url(#paint62_linear_3108_451)"/>
<circle cx="1.74023" cy="1.74023" r="1.74023" transform="matrix(-0.706553 -0.70766 -0.70766 0.706553 241.07 38.0391)" fill="url(#paint63_radial_3108_451)"/>
<path d="M224.502 52.9956L216.254 71.6243C216.136 71.8906 216.26 72.2018 216.528 72.3142C216.796 72.4264 217.104 72.2971 217.212 72.0272L224.756 53.1024C224.784 53.0326 224.75 52.9533 224.681 52.9243C224.612 52.8953 224.532 52.927 224.502 52.9956Z" fill="url(#paint64_linear_3108_451)"/>
<circle cx="1.74023" cy="1.74023" r="1.74023" transform="matrix(0.922436 0.38615 0.38615 -0.922436 214.281 73.1797)" fill="url(#paint65_radial_3108_451)"/>
<path d="M227.162 50.4838L236.431 45.3866C236.563 45.3138 236.61 45.1463 236.534 45.0153C236.459 44.8846 236.291 44.8411 236.162 44.9187L227.091 50.3597C227.057 50.3798 227.046 50.423 227.066 50.4568C227.085 50.4905 227.128 50.5025 227.162 50.4838Z" fill="url(#paint66_linear_3108_451)"/>
<circle cx="0.903512" cy="0.903512" r="0.903512" transform="matrix(-0.499621 -0.866244 -0.866244 0.499621 237.742 45.3633)" fill="url(#paint67_radial_3108_451)"/>
<path d="M231.398 49.9606L253.982 40.348C254.305 40.2106 254.452 39.8348 254.308 39.5148C254.164 39.1956 253.787 39.0561 253.47 39.2051L231.263 49.6576C231.181 49.6962 231.145 49.7933 231.182 49.8759C231.219 49.9583 231.315 49.996 231.398 49.9606Z" fill="url(#paint68_linear_3108_451)"/>
<circle cx="2.09656" cy="2.09656" r="2.09656" transform="matrix(-0.410286 -0.911957 -0.911957 0.410286 257.023 40.6016)" fill="url(#paint69_radial_3108_451)"/>
<path d="M231.664 50.4931L251.56 45.8323C251.844 45.7657 252.019 45.4784 251.946 45.1955C251.874 44.9131 251.584 44.7448 251.303 44.8219L231.596 50.2252C231.524 50.2452 231.48 50.3197 231.499 50.3928C231.518 50.4656 231.591 50.5102 231.664 50.4931Z" fill="url(#paint70_linear_3108_451)"/>
<circle cx="1.74547" cy="1.74547" r="1.74547" transform="matrix(-0.247856 -0.968797 -0.968797 0.247856 254 46.4805)" fill="url(#paint71_radial_3108_451)"/>
<path d="M224.151 53L243.831 53.0495C244.113 53.0502 244.34 52.8197 244.335 52.5384C244.33 52.2578 244.096 52.0357 243.815 52.0455L224.147 52.7339C224.074 52.7364 224.017 52.7967 224.018 52.8693C224.019 52.9417 224.078 52.9998 224.151 53Z" fill="url(#paint72_linear_3108_451)"/>
<circle cx="1.68108" cy="1.68108" r="1.68108" transform="matrix(-0.0178398 -0.999841 -0.999841 0.0178398 245.977 54.1992)" fill="url(#paint73_radial_3108_451)"/>
<path d="M225.274 53.4817L253.4 65.5072C253.802 65.6791 254.267 65.4872 254.431 65.0817C254.594 64.6772 254.394 64.2173 253.987 64.0609L225.429 53.0984C225.324 53.0579 225.206 53.1094 225.164 53.2141C225.121 53.3185 225.17 53.4375 225.274 53.4817Z" fill="url(#paint74_linear_3108_451)"/>
<circle cx="2.6129" cy="2.6129" r="2.6129" transform="matrix(0.374329 -0.927296 -0.927296 -0.374329 255.766 68.4453)" fill="url(#paint75_radial_3108_451)"/>
<path d="M229.136 55.2339L247.971 67.0707C248.24 67.2399 248.595 67.1549 248.759 66.8823C248.922 66.6103 248.831 66.2572 248.556 66.0986L229.291 54.9762C229.22 54.9352 229.129 54.9587 229.087 55.0291C229.045 55.0993 229.067 55.1903 229.136 55.2339Z" fill="url(#paint76_linear_3108_451)"/>
<circle cx="1.90016" cy="1.90016" r="1.90016" transform="matrix(0.514763 -0.857333 -0.857333 -0.514763 249.344 69.4531)" fill="url(#paint77_radial_3108_451)"/>
<path d="M227.845 53.6222L237.575 56.347C237.714 56.386 237.858 56.3031 237.894 56.1632C237.93 56.0237 237.845 55.8817 237.704 55.8481L227.879 53.4899C227.843 53.4812 227.806 53.5032 227.797 53.5393C227.788 53.5753 227.809 53.6121 227.845 53.6222Z" fill="url(#paint78_linear_3108_451)"/>
<circle cx="0.863101" cy="0.863101" r="0.863101" transform="matrix(0.250015 -0.968242 -0.968242 -0.250015 238.492 57.2031)" fill="url(#paint79_radial_3108_451)"/>
<path d="M61.6966 105.807L70.3147 86.0534C70.4378 85.7711 70.3051 85.4426 70.0202 85.3252C69.7361 85.208 69.4111 85.3466 69.2988 85.6327L61.4273 105.695C61.3983 105.769 61.4339 105.853 61.5075 105.883C61.5808 105.914 61.6649 105.88 61.6966 105.807Z" fill="url(#paint80_linear_3108_451)"/>
<circle cx="1.8409" cy="1.8409" r="1.8409" transform="matrix(-0.924516 -0.381142 -0.381142 0.924516 72.4062 84.4023)" fill="url(#paint81_radial_3108_451)"/>
<path d="M60.6977 113.545L60.2309 135.091C60.2242 135.399 60.4719 135.653 60.7799 135.653C61.0873 135.653 61.3353 135.402 61.3304 135.094L60.9891 113.546C60.9879 113.466 60.9231 113.402 60.8436 113.402C60.7642 113.402 60.6994 113.465 60.6977 113.545Z" fill="url(#paint82_linear_3108_451)"/>
<circle cx="1.8409" cy="1.8409" r="1.8409" transform="matrix(0.999999 0.00130398 0.00130398 -0.999999 58.9297 137.41)" fill="url(#paint83_radial_3108_451)"/>
<path d="M60.395 110.176L62.7283 99.729C62.7617 99.5797 62.6658 99.4321 62.5159 99.4018C62.3662 99.3716 62.2209 99.4699 62.1932 99.62L60.2532 110.147C60.246 110.186 60.2713 110.223 60.31 110.231C60.3487 110.239 60.3864 110.214 60.395 110.176Z" fill="url(#paint84_linear_3108_451)"/>
<circle cx="0.914325" cy="0.914325" r="0.914325" transform="matrix(-0.980188 -0.198071 -0.198071 0.980188 63.5859 98.7266)" fill="url(#paint85_radial_3108_451)"/>
<path d="M60.228 109.019L62.0388 119.569C62.0647 119.72 62.2094 119.82 62.3596 119.791C62.5095 119.762 62.6066 119.616 62.5752 119.467L60.3702 108.992C60.3621 108.953 60.3245 108.928 60.2857 108.936C60.247 108.943 60.2214 108.98 60.228 109.019Z" fill="url(#paint86_linear_3108_451)"/>
<circle cx="0.914325" cy="0.914325" r="0.914325" transform="matrix(0.98194 -0.189191 -0.189191 -0.98194 61.6328 120.82)" fill="url(#paint87_radial_3108_451)"/>
<path d="M60.2119 111.699L60.5308 96.0367C60.5353 95.8129 60.3551 95.6289 60.1311 95.6289C59.9077 95.6289 59.7277 95.8121 59.7315 96.0355L60 111.699C60.001 111.757 60.0482 111.803 60.106 111.803C60.1636 111.803 60.2107 111.757 60.2119 111.699Z" fill="url(#paint88_linear_3108_451)"/>
<circle cx="1.33816" cy="1.33816" r="1.33816" transform="matrix(-1 0 0 1 61.4844 94.3516)" fill="url(#paint89_radial_3108_451)"/>
<path d="M60.7405 110.907L45.2624 108.489C45.0412 108.454 44.8347 108.608 44.8046 108.83C44.7746 109.051 44.932 109.254 45.1538 109.281L60.7117 111.117C60.7691 111.124 60.8213 111.083 60.8291 111.026C60.8368 110.969 60.7974 110.916 60.7405 110.907Z" fill="url(#paint90_linear_3108_451)"/>
<circle cx="1.33816" cy="1.33816" r="1.33816" transform="matrix(-0.134236 0.990949 0.990949 0.134236 43.7266 107.332)" fill="url(#paint91_radial_3108_451)"/>
<path d="M59.3121 105.522L55.5663 90.3102C55.5127 90.0927 55.291 89.9617 55.0747 90.0196C54.8589 90.0775 54.7324 90.301 54.7939 90.5158L59.1073 105.576C59.1233 105.632 59.1808 105.664 59.2366 105.649C59.2923 105.634 59.3259 105.578 59.3121 105.522Z" fill="url(#paint92_linear_3108_451)"/>
<circle cx="1.33816" cy="1.33816" r="1.33816" transform="matrix(-0.965926 0.258819 0.258819 0.965926 56.0312 88.4336)" fill="url(#paint93_radial_3108_451)"/>
<path d="M54.5056 111.009L38.929 112.679C38.7064 112.703 38.5468 112.905 38.5752 113.127C38.6035 113.349 38.808 113.504 39.0291 113.472L54.5322 111.219C54.5894 111.211 54.6294 111.158 54.622 111.101C54.6147 111.044 54.563 111.003 54.5056 111.009Z" fill="url(#paint94_linear_3108_451)"/>
<circle cx="1.33816" cy="1.33816" r="1.33816" transform="matrix(0.126815 0.991926 0.991926 -0.126815 37.125 111.961)" fill="url(#paint95_radial_3108_451)"/>
<path d="M57.4519 103.087L51.118 87.0314C51.0275 86.8018 50.7661 86.6915 50.5385 86.7867C50.3114 86.8817 50.2062 87.1444 50.3051 87.3698L57.2364 103.177C57.2619 103.235 57.3295 103.262 57.3883 103.238C57.4469 103.213 57.4752 103.146 57.4519 103.087Z" fill="url(#paint96_linear_3108_451)"/>
<circle cx="1.47432" cy="1.47432" r="1.47432" transform="matrix(-0.922572 0.385824 0.385824 0.922572 51.3594 84.918)" fill="url(#paint97_radial_3108_451)"/>
<path d="M51.8299 112.498L35.0692 116.619C34.8297 116.678 34.6852 116.922 34.749 117.161C34.8126 117.399 35.0588 117.538 35.2955 117.47L51.8899 112.724C51.9511 112.706 51.987 112.643 51.9705 112.581C51.9541 112.52 51.8916 112.483 51.8299 112.498Z" fill="url(#paint98_linear_3108_451)"/>
<circle cx="1.47432" cy="1.47432" r="1.47432" transform="matrix(0.25849 0.966014 0.966014 -0.25849 33 116.105)" fill="url(#paint99_radial_3108_451)"/>
<path d="M60.6395 110.993L55.2345 100.747C55.1572 100.601 54.9747 100.546 54.8299 100.627C54.6854 100.707 54.6345 100.89 54.717 101.033L60.5023 111.069C60.5237 111.106 60.5707 111.119 60.6081 111.098C60.6454 111.077 60.6594 111.031 60.6395 110.993Z" fill="url(#paint100_linear_3108_451)"/>
<circle cx="0.98949" cy="0.98949" r="0.98949" transform="matrix(-0.874793 0.484497 0.484497 0.874793 55.2422 99.3203)" fill="url(#paint101_radial_3108_451)"/>
<path d="M60.0993 110.412L49.2208 114.392C49.0653 114.449 48.9868 114.623 49.0469 114.777C49.1068 114.931 49.2813 115.006 49.4342 114.944L60.1559 110.558C60.1955 110.542 60.2147 110.497 60.1992 110.457C60.1838 110.417 60.1394 110.397 60.0993 110.412Z" fill="url(#paint102_linear_3108_451)"/>
<circle cx="0.98949" cy="0.98949" r="0.98949" transform="matrix(0.362683 0.931913 0.931913 -0.362683 47.8047 114.195)" fill="url(#paint103_radial_3108_451)"/>
<path d="M59.822 108.532L51.0335 99.9691C50.9079 99.8467 50.7062 99.8513 50.5864 99.9794C50.4669 100.107 50.4753 100.308 50.6051 100.426L59.7084 108.653C59.742 108.683 59.7937 108.681 59.8247 108.648C59.8555 108.615 59.8543 108.563 59.822 108.532Z" fill="url(#paint104_linear_3108_451)"/>
<circle cx="1.0481" cy="1.0481" r="1.0481" transform="matrix(-0.683128 0.730299 0.730299 0.683128 50.5703 98.5234)" fill="url(#paint105_radial_3108_451)"/>
<path d="M57.4948 110.919L47.8298 118.479C47.6916 118.587 47.6692 118.787 47.78 118.923C47.8906 119.059 48.0909 119.078 48.2246 118.965L57.5994 111.048C57.634 111.019 57.6388 110.967 57.6102 110.932C57.5817 110.897 57.5303 110.892 57.4948 110.919Z" fill="url(#paint106_linear_3108_451)"/>
<circle cx="1.0481" cy="1.0481" r="1.0481" transform="matrix(0.631989 0.774977 0.774977 -0.631989 46.3594 118.738)" fill="url(#paint107_radial_3108_451)"/>
<path d="M56.0418 106.337L43.4985 99.1024C43.3192 98.999 43.0899 99.0631 42.9902 99.2444C42.8907 99.4254 42.9588 99.6528 43.1414 99.7492L55.9472 106.509C55.9944 106.533 56.0529 106.516 56.0787 106.469C56.1044 106.422 56.088 106.364 56.0418 106.337Z" fill="url(#paint108_linear_3108_451)"/>
<circle cx="1.23688" cy="1.23688" r="1.23688" transform="matrix(-0.48189 0.876232 0.876232 0.48189 42.5703 97.5938)" fill="url(#paint109_radial_3108_451)"/>
<path d="M52.9575 106.518L39.7578 100.565C39.5691 100.48 39.3473 100.567 39.2661 100.757C39.185 100.947 39.2754 101.166 39.4667 101.244L52.8804 106.698C52.9299 106.719 52.9864 106.695 53.0073 106.646C53.0283 106.597 53.0061 106.54 52.9575 106.518Z" fill="url(#paint110_linear_3108_451)"/>
<circle cx="1.23688" cy="1.23688" r="1.23688" transform="matrix(-0.392495 0.919754 0.919754 0.392495 38.6641 99.1562)" fill="url(#paint111_radial_3108_451)"/>
<path d="M58.5878 108.648L50.454 106.299C50.3377 106.266 50.2166 106.334 50.1853 106.451C50.1542 106.568 50.2248 106.687 50.3419 106.717L58.5581 108.759C58.5884 108.766 58.6192 108.748 58.6272 108.718C58.6353 108.688 58.6177 108.657 58.5878 108.648Z" fill="url(#paint112_linear_3108_451)"/>
<circle cx="0.723169" cy="0.723169" r="0.723169" transform="matrix(-0.257828 0.966191 0.966191 0.257828 49.6797 105.57)" fill="url(#paint113_radial_3108_451)"/>
<path d="M61.8007 110.522L69.7691 119.2C69.883 119.324 70.0766 119.33 70.1983 119.214C70.3197 119.098 70.3223 118.904 70.2041 118.785L61.916 110.412C61.8854 110.381 61.8357 110.38 61.8043 110.41C61.773 110.44 61.7714 110.49 61.8007 110.522Z" fill="url(#paint114_linear_3108_451)"/>
<circle cx="1.00637" cy="1.00637" r="1.00637" transform="matrix(0.722669 -0.691194 -0.691194 -0.722669 70.125 120.605)" fill="url(#paint115_radial_3108_451)"/>
<path d="M63.5947 103.92L70.6369 91.9408C70.7376 91.7696 70.678 91.5491 70.5047 91.4519C70.3319 91.355 70.1131 91.4186 70.0192 91.5931L63.431 103.828C63.4067 103.873 63.423 103.929 63.4678 103.954C63.5124 103.979 63.5688 103.964 63.5947 103.92Z" fill="url(#paint116_linear_3108_451)"/>
<circle cx="1.18694" cy="1.18694" r="1.18694" transform="matrix(-0.872204 -0.489142 -0.489142 0.872204 72.0859 91.0391)" fill="url(#paint117_radial_3108_451)"/>
<path d="M59.6781 116.014L57.7152 129.771C57.6871 129.967 57.8261 130.149 58.0232 130.173C58.2199 130.197 58.3981 130.055 58.4188 129.858L59.8646 116.037C59.8699 115.986 59.8334 115.941 59.7825 115.934C59.7317 115.928 59.6853 115.964 59.6781 116.014Z" fill="url(#paint118_linear_3108_451)"/>
<circle cx="1.18694" cy="1.18694" r="1.18694" transform="matrix(0.992643 0.121081 0.121081 -0.992643 56.7031 131.156)" fill="url(#paint119_radial_3108_451)"/>
<path d="M60.2311 109.487L70.2622 99.8715C70.4056 99.734 70.4081 99.5056 70.2678 99.365C70.1278 99.2248 69.9 99.2266 69.7621 99.369L60.0985 109.354C60.0628 109.391 60.0633 109.45 60.0995 109.486C60.1357 109.522 60.1941 109.523 60.2311 109.487Z" fill="url(#paint120_linear_3108_451)"/>
<circle cx="1.18694" cy="1.18694" r="1.18694" transform="matrix(-0.706553 -0.70766 -0.70766 0.706553 71.9219 99.3945)" fill="url(#paint121_radial_3108_451)"/>
<path d="M60.6236 109.596L54.998 122.302C54.9176 122.484 55.0021 122.696 55.1853 122.773C55.3681 122.849 55.5782 122.761 55.6516 122.577L60.7968 109.669C60.8158 109.621 60.7931 109.567 60.7458 109.547C60.6986 109.528 60.6443 109.549 60.6236 109.596Z" fill="url(#paint122_linear_3108_451)"/>
<circle cx="1.18694" cy="1.18694" r="1.18694" transform="matrix(0.922436 0.38615 0.38615 -0.922436 53.6562 123.363)" fill="url(#paint123_radial_3108_451)"/>
<path d="M62.4435 107.883L68.7651 104.407C68.8554 104.357 68.8874 104.243 68.8358 104.154C68.7844 104.065 68.6699 104.035 68.5817 104.088L62.3949 107.799C62.3721 107.813 62.3644 107.842 62.3777 107.865C62.391 107.888 62.4202 107.896 62.4435 107.883Z" fill="url(#paint124_linear_3108_451)"/>
<circle cx="0.616252" cy="0.616252" r="0.616252" transform="matrix(-0.499621 -0.866244 -0.866244 0.499621 69.6562 104.391)" fill="url(#paint125_radial_3108_451)"/>
<path d="M65.3359 107.524L80.7395 100.968C80.9597 100.874 81.06 100.618 80.9618 100.399C80.8638 100.182 80.6064 100.086 80.3904 100.188L65.2433 107.317C65.1874 107.344 65.1629 107.41 65.1883 107.466C65.2136 107.522 65.2792 107.548 65.3359 107.524Z" fill="url(#paint126_linear_3108_451)"/>
<circle cx="1.42999" cy="1.42999" r="1.42999" transform="matrix(-0.410286 -0.911957 -0.911957 0.410286 82.8125 101.141)" fill="url(#paint127_radial_3108_451)"/>
<path d="M65.5141 107.891L79.0842 104.712C79.2781 104.666 79.3969 104.47 79.3475 104.277C79.2983 104.085 79.1007 103.97 78.909 104.023L65.4676 107.708C65.418 107.722 65.3885 107.772 65.4012 107.822C65.414 107.872 65.4641 107.902 65.5141 107.891Z" fill="url(#paint128_linear_3108_451)"/>
<circle cx="1.19052" cy="1.19052" r="1.19052" transform="matrix(-0.247856 -0.968797 -0.968797 0.247856 80.75 105.152)" fill="url(#paint129_radial_3108_451)"/>
<path d="M60.3835 109.598L73.8067 109.632C73.9986 109.632 74.1534 109.475 74.15 109.283C74.1466 109.092 73.9869 108.94 73.7956 108.947L60.3805 109.417C60.331 109.418 60.2921 109.459 60.2929 109.509C60.2938 109.558 60.3341 109.598 60.3835 109.598Z" fill="url(#paint130_linear_3108_451)"/>
<circle cx="1.1466" cy="1.1466" r="1.1466" transform="matrix(-0.0178398 -0.999841 -0.999841 0.0178398 75.2734 110.418)" fill="url(#paint131_radial_3108_451)"/>
<path d="M61.1524 109.932L80.3364 118.134C80.6106 118.251 80.9277 118.12 81.0393 117.844C81.1507 117.568 81.0143 117.254 80.7365 117.148L61.2585 109.67C61.1866 109.643 61.1059 109.678 61.077 109.749C61.0483 109.821 61.0818 109.902 61.1524 109.932Z" fill="url(#paint132_linear_3108_451)"/>
<circle cx="1.78216" cy="1.78216" r="1.78216" transform="matrix(0.374329 -0.927296 -0.927296 -0.374329 81.9531 120.137)" fill="url(#paint133_radial_3108_451)"/>
<path d="M63.7879 111.123L76.6342 119.196C76.8179 119.311 77.0605 119.253 77.1721 119.068C77.2835 118.882 77.2212 118.641 77.0338 118.533L63.8938 110.947C63.8453 110.919 63.7834 110.935 63.7546 110.983C63.7258 111.031 63.7406 111.093 63.7879 111.123Z" fill="url(#paint134_linear_3108_451)"/>
<circle cx="1.29603" cy="1.29603" r="1.29603" transform="matrix(0.514763 -0.857333 -0.857333 -0.514763 77.5703 120.82)" fill="url(#paint135_radial_3108_451)"/>
<path d="M62.9095 110.027L69.5459 111.885C69.6408 111.912 69.739 111.855 69.7636 111.76C69.7882 111.665 69.73 111.568 69.6344 111.545L62.9329 109.936C62.9082 109.931 62.8833 109.946 62.8769 109.97C62.8706 109.995 62.885 110.02 62.9095 110.027Z" fill="url(#paint136_linear_3108_451)"/>
<circle cx="0.588689" cy="0.588689" r="0.588689" transform="matrix(0.250015 -0.968242 -0.968242 -0.250015 70.1719 112.469)" fill="url(#paint137_radial_3108_451)"/>
<g filter="url(#filter1_d_3108_451)">
<path d="M172.519 174.412C172.604 173.863 173.396 173.863 173.481 174.412L174.079 178.262C174.372 180.149 175.851 181.628 177.738 181.921L181.588 182.519C182.137 182.604 182.137 183.396 181.588 183.481L177.738 184.079C175.851 184.372 174.372 185.851 174.079 187.738L173.481 191.588C173.396 192.137 172.604 192.137 172.519 191.588L171.921 187.738C171.628 185.851 170.149 184.372 168.262 184.079L164.412 183.481C163.863 183.396 163.863 182.604 164.412 182.519L168.262 181.921C170.149 181.628 171.628 180.149 171.921 178.262L172.519 174.412Z" fill="url(#paint138_linear_3108_451)"/>
</g>
<g filter="url(#filter2_d_3108_451)">
<path d="M85.6257 47.3207C85.6921 46.8931 86.308 46.8931 86.3743 47.3207L86.839 50.315C87.0667 51.7822 88.2178 52.9333 89.685 53.161L92.6793 53.6257C93.1069 53.692 93.1069 54.308 92.6793 54.3743L89.685 54.839C88.2178 55.0667 87.0667 56.2178 86.839 57.685L86.3743 60.6793C86.308 61.1069 85.6921 61.1069 85.6257 60.6793L85.161 57.685C84.9333 56.2178 83.7822 55.0667 82.315 54.839L79.3207 54.3743C78.8931 54.308 78.8931 53.6921 79.3207 53.6257L82.315 53.161C83.7822 52.9333 84.9333 51.7822 85.161 50.315L85.6257 47.3207Z" fill="url(#paint139_linear_3108_451)"/>
</g>
<defs>
<filter id="filter0_d_3108_451" x="189" y="63" width="52" height="52" filterUnits="userSpaceOnUse" color-interpolation-filters="sRGB">
<feFlood flood-opacity="0" result="BackgroundImageFix"/>
<feColorMatrix in="SourceAlpha" type="matrix" values="0 0 0 0 0 0 0 0 0 0 0 0 0 0 0 0 0 0 127 0" result="hardAlpha"/>
<feOffset/>
<feGaussianBlur stdDeviation="10"/>
<feComposite in2="hardAlpha" operator="out"/>
<feColorMatrix type="matrix" values="0 0 0 0 1 0 0 0 0 1 0 0 0 0 1 0 0 0 1 0"/>
<feBlend mode="normal" in2="BackgroundImageFix" result="effect1_dropShadow_3108_451"/>
<feBlend mode="normal" in="SourceGraphic" in2="effect1_dropShadow_3108_451" result="shape"/>
</filter>
<filter id="filter1_d_3108_451" x="144" y="154" width="58" height="58" filterUnits="userSpaceOnUse" color-interpolation-filters="sRGB">
<feFlood flood-opacity="0" result="BackgroundImageFix"/>
<feColorMatrix in="SourceAlpha" type="matrix" values="0 0 0 0 0 0 0 0 0 0 0 0 0 0 0 0 0 0 127 0" result="hardAlpha"/>
<feOffset/>
<feGaussianBlur stdDeviation="10"/>
<feComposite in2="hardAlpha" operator="out"/>
<feColorMatrix type="matrix" values="0 0 0 0 1 0 0 0 0 1 0 0 0 0 1 0 0 0 1 0"/>
<feBlend mode="normal" in2="BackgroundImageFix" result="effect1_dropShadow_3108_451"/>
<feBlend mode="normal" in="SourceGraphic" in2="effect1_dropShadow_3108_451" result="shape"/>
</filter>
<filter id="filter2_d_3108_451" x="59" y="27" width="54" height="54" filterUnits="userSpaceOnUse" color-interpolation-filters="sRGB">
<feFlood flood-opacity="0" result="BackgroundImageFix"/>
<feColorMatrix in="SourceAlpha" type="matrix" values="0 0 0 0 0 0 0 0 0 0 0 0 0 0 0 0 0 0 127 0" result="hardAlpha"/>
<feOffset/>
<feGaussianBlur stdDeviation="10"/>
<feComposite in2="hardAlpha" operator="out"/>
<feColorMatrix type="matrix" values="0 0 0 0 1 0 0 0 0 1 0 0 0 0 1 0 0 0 1 0"/>
<feBlend mode="normal" in2="BackgroundImageFix" result="effect1_dropShadow_3108_451"/>
<feBlend mode="normal" in="SourceGraphic" in2="effect1_dropShadow_3108_451" result="shape"/>
</filter>
<linearGradient id="paint0_linear_3108_451" x1="166.121" y1="99.792" x2="166.121" y2="167.604" gradientUnits="userSpaceOnUse">
<stop stop-color="#08F7DB"/>
<stop offset="1" stop-color="#0F81F0"/>
</linearGradient>
<linearGradient id="paint1_linear_3108_451" x1="142.902" y1="113.722" x2="142.902" y2="181.534" gradientUnits="userSpaceOnUse">
<stop stop-color="#08F7DB"/>
<stop offset="1" stop-color="#0F81F0"/>
</linearGradient>
<linearGradient id="paint2_linear_3108_451" x1="119.016" y1="85.5815" x2="119.016" y2="164.741" gradientUnits="userSpaceOnUse">
<stop stop-color="#08F7DB"/>
<stop offset="1" stop-color="#0F81F0"/>
</linearGradient>
<linearGradient id="paint3_linear_3108_451" x1="127.297" y1="114.295" x2="127.297" y2="161.357" gradientUnits="userSpaceOnUse">
<stop stop-color="#08F7DB"/>
<stop offset="1" stop-color="#0F81F0"/>
</linearGradient>
<linearGradient id="paint4_linear_3108_451" x1="147.409" y1="72.0049" x2="147.409" y2="186.45" gradientUnits="userSpaceOnUse">
<stop stop-color="#08F7DB"/>
<stop offset="1" stop-color="#0F81F0"/>
</linearGradient>
<linearGradient id="paint5_linear_3108_451" x1="74.1061" y1="204.182" x2="61.4169" y2="223.351" gradientUnits="userSpaceOnUse">
<stop offset="0.155289" stop-color="#031A30"/>
<stop offset="0.514591" stop-color="#0F81F0"/>
<stop offset="1" stop-color="#031A30"/>
</linearGradient>
<linearGradient id="paint6_linear_3108_451" x1="74.1061" y1="203.966" x2="61.4169" y2="223.134" gradientUnits="userSpaceOnUse">
<stop offset="0.155289" stop-color="#031A30"/>
<stop offset="0.514591" stop-color="#0F81F0"/>
<stop offset="1" stop-color="#031A30"/>
</linearGradient>
<linearGradient id="paint7_linear_3108_451" x1="72.7562" y1="205.855" x2="59.4697" y2="245.435" gradientUnits="userSpaceOnUse">
<stop offset="0.0596716" stop-color="#6FB3F6"/>
<stop offset="0.138721" stop-color="white"/>
</linearGradient>
<radialGradient id="paint8_radial_3108_451" cx="0" cy="0" r="1" gradientUnits="userSpaceOnUse" gradientTransform="translate(68.9689 203.752) rotate(76.8094) scale(17.7471 17.7471)">
<stop stop-color="#9FCDF9"/>
<stop offset="1" stop-color="#6FB3F6"/>
</radialGradient>
<linearGradient id="paint9_linear_3108_451" x1="39.851" y1="188.922" x2="29.242" y2="204.948" gradientUnits="userSpaceOnUse">
<stop offset="0.155289" stop-color="#031A30"/>
<stop offset="0.514591" stop-color="#0F81F0"/>
<stop offset="1" stop-color="#031A30"/>
</linearGradient>
<linearGradient id="paint10_linear_3108_451" x1="39.851" y1="188.74" x2="29.242" y2="204.767" gradientUnits="userSpaceOnUse">
<stop offset="0.155289" stop-color="#031A30"/>
<stop offset="0.514591" stop-color="#0F81F0"/>
<stop offset="1" stop-color="#031A30"/>
</linearGradient>
<linearGradient id="paint11_linear_3108_451" x1="38.7224" y1="190.32" x2="27.614" y2="223.412" gradientUnits="userSpaceOnUse">
<stop offset="0.0596716" stop-color="#6FB3F6"/>
<stop offset="0.138721" stop-color="white"/>
</linearGradient>
<radialGradient id="paint12_radial_3108_451" cx="0" cy="0" r="1" gradientUnits="userSpaceOnUse" gradientTransform="translate(35.5544 184.903) rotate(76.8094) scale(14.8377)">
<stop stop-color="#9FCDF9"/>
<stop offset="1" stop-color="#6FB3F6"/>
</radialGradient>
<linearGradient id="paint13_linear_3108_451" x1="257.851" y1="190.922" x2="247.242" y2="206.948" gradientUnits="userSpaceOnUse">
<stop offset="0.155289" stop-color="#031A30"/>
<stop offset="0.514591" stop-color="#0F81F0"/>
<stop offset="1" stop-color="#031A30"/>
</linearGradient>
<linearGradient id="paint14_linear_3108_451" x1="257.851" y1="190.74" x2="247.242" y2="206.767" gradientUnits="userSpaceOnUse">
<stop offset="0.155289" stop-color="#031A30"/>
<stop offset="0.514591" stop-color="#0F81F0"/>
<stop offset="1" stop-color="#031A30"/>
</linearGradient>
<linearGradient id="paint15_linear_3108_451" x1="256.722" y1="192.32" x2="245.614" y2="225.412" gradientUnits="userSpaceOnUse">
<stop offset="0.0596716" stop-color="#6FB3F6"/>
<stop offset="0.138721" stop-color="white"/>
</linearGradient>
<radialGradient id="paint16_radial_3108_451" cx="0" cy="0" r="1" gradientUnits="userSpaceOnUse" gradientTransform="translate(253.554 186.903) rotate(76.8094) scale(14.8377)">
<stop stop-color="#9FCDF9"/>
<stop offset="1" stop-color="#6FB3F6"/>
</radialGradient>
<linearGradient id="paint17_linear_3108_451" x1="228.106" y1="206.182" x2="215.417" y2="225.351" gradientUnits="userSpaceOnUse">
<stop offset="0.155289" stop-color="#031A30"/>
<stop offset="0.514591" stop-color="#0F81F0"/>
<stop offset="1" stop-color="#031A30"/>
</linearGradient>
<linearGradient id="paint18_linear_3108_451" x1="228.106" y1="205.966" x2="215.417" y2="225.134" gradientUnits="userSpaceOnUse">
<stop offset="0.155289" stop-color="#031A30"/>
<stop offset="0.514591" stop-color="#0F81F0"/>
<stop offset="1" stop-color="#031A30"/>
</linearGradient>
<linearGradient id="paint19_linear_3108_451" x1="226.756" y1="207.855" x2="213.47" y2="247.435" gradientUnits="userSpaceOnUse">
<stop offset="0.0596716" stop-color="#6FB3F6"/>
<stop offset="0.138721" stop-color="white"/>
</linearGradient>
<radialGradient id="paint20_radial_3108_451" cx="0" cy="0" r="1" gradientUnits="userSpaceOnUse" gradientTransform="translate(222.969 205.752) rotate(76.8094) scale(17.7471 17.7471)">
<stop stop-color="#9FCDF9"/>
<stop offset="1" stop-color="#6FB3F6"/>
</radialGradient>
<linearGradient id="paint21_linear_3108_451" x1="214.999" y1="83.3171" x2="214.999" y2="96.7914" gradientUnits="userSpaceOnUse">
<stop stop-color="white"/>
<stop offset="0.869293" stop-color="white"/>
</linearGradient>
<linearGradient id="paint22_linear_3108_451" x1="238.272" y1="17.4135" x2="226.065" y2="47.5395" gradientUnits="userSpaceOnUse">
<stop offset="0.0504271" stop-color="#0F81F0"/>
<stop offset="0.448862" stop-color="#0F81F0"/>
<stop offset="1" stop-color="#0F81F0" stop-opacity="0"/>
</linearGradient>
<radialGradient id="paint23_radial_3108_451" cx="0" cy="0" r="1" gradientUnits="userSpaceOnUse" gradientTransform="translate(2.69902 2.69902) rotate(90) scale(2.69902)">
<stop offset="0.389396" stop-color="#0F81F0"/>
<stop offset="1" stop-color="white" stop-opacity="0"/>
</radialGradient>
<linearGradient id="paint24_linear_3108_451" x1="224.728" y1="91.2003" x2="224.573" y2="58.6955" gradientUnits="userSpaceOnUse">
<stop offset="0.0504271" stop-color="#0F81F0"/>
<stop offset="0.448862" stop-color="#0F81F0"/>
<stop offset="1" stop-color="#0F81F0" stop-opacity="0"/>
</linearGradient>
<radialGradient id="paint25_radial_3108_451" cx="0" cy="0" r="1" gradientUnits="userSpaceOnUse" gradientTransform="translate(2.69902 2.69902) rotate(90) scale(2.69902)">
<stop offset="0.389396" stop-color="#0F81F0"/>
<stop offset="1" stop-color="white" stop-opacity="0"/>
</radialGradient>
<linearGradient id="paint26_linear_3108_451" x1="227.28" y1="38.052" x2="224.178" y2="53.8956" gradientUnits="userSpaceOnUse">
<stop offset="0.0504271" stop-color="#0F81F0"/>
<stop offset="0.448862" stop-color="#0F81F0"/>
<stop offset="1" stop-color="#0F81F0" stop-opacity="0"/>
</linearGradient>
<radialGradient id="paint27_radial_3108_451" cx="0" cy="0" r="1" gradientUnits="userSpaceOnUse" gradientTransform="translate(1.34053 1.34053) rotate(90) scale(1.34053)">
<stop offset="0.389396" stop-color="#0F81F0"/>
<stop offset="1" stop-color="white" stop-opacity="0"/>
</radialGradient>
<linearGradient id="paint28_linear_3108_451" x1="227.041" y1="67.9463" x2="223.891" y2="52.1122" gradientUnits="userSpaceOnUse">
<stop offset="0.0504271" stop-color="#0F81F0"/>
<stop offset="0.448862" stop-color="#0F81F0"/>
<stop offset="1" stop-color="#0F81F0" stop-opacity="0"/>
</linearGradient>
<radialGradient id="paint29_radial_3108_451" cx="0" cy="0" r="1" gradientUnits="userSpaceOnUse" gradientTransform="translate(1.34053 1.34053) rotate(90) scale(1.34053)">
<stop offset="0.389396" stop-color="#0F81F0"/>
<stop offset="1" stop-color="white" stop-opacity="0"/>
</radialGradient>
<linearGradient id="paint30_linear_3108_451" x1="223.778" y1="32.5156" x2="223.921" y2="56.1432" gradientUnits="userSpaceOnUse">
<stop offset="0.0504271" stop-color="#0F81F0"/>
<stop offset="0.448862" stop-color="#0F81F0"/>
<stop offset="1" stop-color="#0F81F0" stop-opacity="0"/>
</linearGradient>
<radialGradient id="paint31_radial_3108_451" cx="0" cy="0" r="1" gradientUnits="userSpaceOnUse" gradientTransform="translate(1.96193 1.96193) rotate(90) scale(1.96193)">
<stop offset="0.389396" stop-color="#0F81F0"/>
<stop offset="1" stop-color="white" stop-opacity="0"/>
</radialGradient>
<linearGradient id="paint32_linear_3108_451" x1="201.303" y1="51.869" x2="224.736" y2="54.8988" gradientUnits="userSpaceOnUse">
<stop offset="0.0504271" stop-color="#0F81F0"/>
<stop offset="0.448862" stop-color="#0F81F0"/>
<stop offset="1" stop-color="#0F81F0" stop-opacity="0"/>
</linearGradient>
<radialGradient id="paint33_radial_3108_451" cx="0" cy="0" r="1" gradientUnits="userSpaceOnUse" gradientTransform="translate(1.96193 1.96193) rotate(90) scale(1.96193)">
<stop offset="0.389396" stop-color="#0F81F0"/>
<stop offset="1" stop-color="white" stop-opacity="0"/>
</radialGradient>
<linearGradient id="paint34_linear_3108_451" x1="216.376" y1="24.2913" x2="222.63" y2="47.0767" gradientUnits="userSpaceOnUse">
<stop offset="0.0504271" stop-color="#0F81F0"/>
<stop offset="0.448862" stop-color="#0F81F0"/>
<stop offset="1" stop-color="#0F81F0" stop-opacity="0"/>
</linearGradient>
<radialGradient id="paint35_radial_3108_451" cx="0" cy="0" r="1" gradientUnits="userSpaceOnUse" gradientTransform="translate(1.96193 1.96193) rotate(90) scale(1.96193)">
<stop offset="0.389396" stop-color="#0F81F0"/>
<stop offset="1" stop-color="white" stop-opacity="0"/>
</radialGradient>
<linearGradient id="paint36_linear_3108_451" x1="192.162" y1="58.1743" x2="215.58" y2="55.036" gradientUnits="userSpaceOnUse">
<stop offset="0.0504271" stop-color="#0F81F0"/>
<stop offset="0.448862" stop-color="#0F81F0"/>
<stop offset="1" stop-color="#0F81F0" stop-opacity="0"/>
</linearGradient>
<radialGradient id="paint37_radial_3108_451" cx="0" cy="0" r="1" gradientUnits="userSpaceOnUse" gradientTransform="translate(1.96193 1.96193) rotate(90) scale(1.96193)">
<stop offset="0.389396" stop-color="#0F81F0"/>
<stop offset="1" stop-color="white" stop-opacity="0"/>
</radialGradient>
<linearGradient id="paint38_linear_3108_451" x1="209.713" y1="19.5507" x2="219.903" y2="43.506" gradientUnits="userSpaceOnUse">
<stop offset="0.0504271" stop-color="#0F81F0"/>
<stop offset="0.448862" stop-color="#0F81F0"/>
<stop offset="1" stop-color="#0F81F0" stop-opacity="0"/>
</linearGradient>
<radialGradient id="paint39_radial_3108_451" cx="0" cy="0" r="1" gradientUnits="userSpaceOnUse" gradientTransform="translate(2.16156 2.16156) rotate(90) scale(2.16156)">
<stop offset="0.389396" stop-color="#0F81F0"/>
<stop offset="1" stop-color="white" stop-opacity="0"/>
</radialGradient>
<linearGradient id="paint40_linear_3108_451" x1="186.561" y1="64.0808" x2="211.667" y2="57.1995" gradientUnits="userSpaceOnUse">
<stop offset="0.0504271" stop-color="#0F81F0"/>
<stop offset="0.448862" stop-color="#0F81F0"/>
<stop offset="1" stop-color="#0F81F0" stop-opacity="0"/>
</linearGradient>
<radialGradient id="paint41_radial_3108_451" cx="0" cy="0" r="1" gradientUnits="userSpaceOnUse" gradientTransform="translate(2.16156 2.16156) rotate(90) scale(2.16156)">
<stop offset="0.389396" stop-color="#0F81F0"/>
<stop offset="1" stop-color="white" stop-opacity="0"/>
</radialGradient>
<linearGradient id="paint42_linear_3108_451" x1="216.004" y1="39.8389" x2="224.562" y2="55.0714" gradientUnits="userSpaceOnUse">
<stop offset="0.0504271" stop-color="#0F81F0"/>
<stop offset="0.448862" stop-color="#0F81F0"/>
<stop offset="1" stop-color="#0F81F0" stop-opacity="0"/>
</linearGradient>
<radialGradient id="paint43_radial_3108_451" cx="0" cy="0" r="1" gradientUnits="userSpaceOnUse" gradientTransform="translate(1.45073 1.45073) rotate(90) scale(1.45073)">
<stop offset="0.389396" stop-color="#0F81F0"/>
<stop offset="1" stop-color="white" stop-opacity="0"/>
</radialGradient>
<linearGradient id="paint44_linear_3108_451" x1="207.52" y1="60.5872" x2="223.763" y2="54.1521" gradientUnits="userSpaceOnUse">
<stop offset="0.0504271" stop-color="#0F81F0"/>
<stop offset="0.448862" stop-color="#0F81F0"/>
<stop offset="1" stop-color="#0F81F0" stop-opacity="0"/>
</linearGradient>
<radialGradient id="paint45_radial_3108_451" cx="0" cy="0" r="1" gradientUnits="userSpaceOnUse" gradientTransform="translate(1.45073 1.45073) rotate(90) scale(1.45073)">
<stop offset="0.389396" stop-color="#0F81F0"/>
<stop offset="1" stop-color="white" stop-opacity="0"/>
</radialGradient>
<linearGradient id="paint46_linear_3108_451" x1="209.774" y1="38.9001" x2="223.366" y2="51.4603" gradientUnits="userSpaceOnUse">
<stop offset="0.0504271" stop-color="#0F81F0"/>
<stop offset="0.448862" stop-color="#0F81F0"/>
<stop offset="1" stop-color="#0F81F0" stop-opacity="0"/>
</linearGradient>
<radialGradient id="paint47_radial_3108_451" cx="0" cy="0" r="1" gradientUnits="userSpaceOnUse" gradientTransform="translate(1.53666 1.53666) rotate(90) scale(1.53666)">
<stop offset="0.389396" stop-color="#0F81F0"/>
<stop offset="1" stop-color="white" stop-opacity="0"/>
</radialGradient>
<linearGradient id="paint48_linear_3108_451" x1="205.671" y1="66.6671" x2="219.942" y2="54.8845" gradientUnits="userSpaceOnUse">
<stop offset="0.0504271" stop-color="#0F81F0"/>
<stop offset="0.448862" stop-color="#0F81F0"/>
<stop offset="1" stop-color="#0F81F0" stop-opacity="0"/>
</linearGradient>
<radialGradient id="paint49_radial_3108_451" cx="0" cy="0" r="1" gradientUnits="userSpaceOnUse" gradientTransform="translate(1.53666 1.53666) rotate(90) scale(1.53666)">
<stop offset="0.389396" stop-color="#0F81F0"/>
<stop offset="1" stop-color="white" stop-opacity="0"/>
</radialGradient>
<linearGradient id="paint50_linear_3108_451" x1="198.648" y1="37.8117" x2="217.848" y2="48.2199" gradientUnits="userSpaceOnUse">
<stop offset="0.0504271" stop-color="#0F81F0"/>
<stop offset="0.448862" stop-color="#0F81F0"/>
<stop offset="1" stop-color="#0F81F0" stop-opacity="0"/>
</linearGradient>
<radialGradient id="paint51_radial_3108_451" cx="0" cy="0" r="1" gradientUnits="userSpaceOnUse" gradientTransform="translate(1.81343 1.81343) rotate(90) scale(1.81343)">
<stop offset="0.389396" stop-color="#0F81F0"/>
<stop offset="1" stop-color="white" stop-opacity="0"/>
</radialGradient>
<linearGradient id="paint52_linear_3108_451" x1="193.182" y1="40.0389" x2="213.321" y2="48.489" gradientUnits="userSpaceOnUse">
<stop offset="0.0504271" stop-color="#0F81F0"/>
<stop offset="0.448862" stop-color="#0F81F0"/>
<stop offset="1" stop-color="#0F81F0" stop-opacity="0"/>
</linearGradient>
<radialGradient id="paint53_radial_3108_451" cx="0" cy="0" r="1" gradientUnits="userSpaceOnUse" gradientTransform="translate(1.81343 1.81343) rotate(90) scale(1.81343)">
<stop offset="0.389396" stop-color="#0F81F0"/>
<stop offset="1" stop-color="white" stop-opacity="0"/>
</radialGradient>
<linearGradient id="paint54_linear_3108_451" x1="209.198" y1="48.3821" x2="221.555" y2="51.5995" gradientUnits="userSpaceOnUse">
<stop offset="0.0504271" stop-color="#0F81F0"/>
<stop offset="0.448862" stop-color="#0F81F0"/>
<stop offset="1" stop-color="#0F81F0" stop-opacity="0"/>
</linearGradient>
<radialGradient id="paint55_radial_3108_451" cx="0" cy="0" r="1" gradientUnits="userSpaceOnUse" gradientTransform="translate(1.06027 1.06027) rotate(90) scale(1.06027)">
<stop offset="0.389396" stop-color="#0F81F0"/>
<stop offset="1" stop-color="white" stop-opacity="0"/>
</radialGradient>
<linearGradient id="paint56_linear_3108_451" x1="238.535" y1="67.0959" x2="226.176" y2="54.329" gradientUnits="userSpaceOnUse">
<stop offset="0.0504271" stop-color="#0F81F0"/>
<stop offset="0.448862" stop-color="#0F81F0"/>
<stop offset="1" stop-color="#0F81F0" stop-opacity="0"/>
</linearGradient>
<radialGradient id="paint57_radial_3108_451" cx="0" cy="0" r="1" gradientUnits="userSpaceOnUse" gradientTransform="translate(1.47547 1.47547) rotate(90) scale(1.47547)">
<stop offset="0.389396" stop-color="#0F81F0"/>
<stop offset="1" stop-color="white" stop-opacity="0"/>
</radialGradient>
<linearGradient id="paint58_linear_3108_451" x1="238.983" y1="26.3933" x2="228.843" y2="44.7348" gradientUnits="userSpaceOnUse">
<stop offset="0.0504271" stop-color="#0F81F0"/>
<stop offset="0.448862" stop-color="#0F81F0"/>
<stop offset="1" stop-color="#0F81F0" stop-opacity="0"/>
</linearGradient>
<radialGradient id="paint59_radial_3108_451" cx="0" cy="0" r="1" gradientUnits="userSpaceOnUse" gradientTransform="translate(1.74023 1.74023) rotate(90) scale(1.74023)">
<stop offset="0.389396" stop-color="#0F81F0"/>
<stop offset="1" stop-color="white" stop-opacity="0"/>
</radialGradient>
<linearGradient id="paint60_linear_3108_451" x1="220.69" y1="83.1618" x2="223.101" y2="62.3429" gradientUnits="userSpaceOnUse">
<stop offset="0.0504271" stop-color="#0F81F0"/>
<stop offset="0.448862" stop-color="#0F81F0"/>
<stop offset="1" stop-color="#0F81F0" stop-opacity="0"/>
</linearGradient>
<radialGradient id="paint61_radial_3108_451" cx="0" cy="0" r="1" gradientUnits="userSpaceOnUse" gradientTransform="translate(1.74023 1.74023) rotate(90) scale(1.74023)">
<stop offset="0.389396" stop-color="#0F81F0"/>
<stop offset="1" stop-color="white" stop-opacity="0"/>
</radialGradient>
<linearGradient id="paint62_linear_3108_451" x1="238.649" y1="37.9963" x2="223.908" y2="52.8939" gradientUnits="userSpaceOnUse">
<stop offset="0.0504271" stop-color="#0F81F0"/>
<stop offset="0.448862" stop-color="#0F81F0"/>
<stop offset="1" stop-color="#0F81F0" stop-opacity="0"/>
</linearGradient>
<radialGradient id="paint63_radial_3108_451" cx="0" cy="0" r="1" gradientUnits="userSpaceOnUse" gradientTransform="translate(1.74023 1.74023) rotate(90) scale(1.74023)">
<stop offset="0.389396" stop-color="#0F81F0"/>
<stop offset="1" stop-color="white" stop-opacity="0"/>
</radialGradient>
<linearGradient id="paint64_linear_3108_451" x1="216.528" y1="72.3139" x2="224.503" y2="52.9327" gradientUnits="userSpaceOnUse">
<stop offset="0.0504271" stop-color="#0F81F0"/>
<stop offset="0.448862" stop-color="#0F81F0"/>
<stop offset="1" stop-color="#0F81F0" stop-opacity="0"/>
</linearGradient>
<radialGradient id="paint65_radial_3108_451" cx="0" cy="0" r="1" gradientUnits="userSpaceOnUse" gradientTransform="translate(1.74023 1.74023) rotate(90) scale(1.74023)">
<stop offset="0.389396" stop-color="#0F81F0"/>
<stop offset="1" stop-color="white" stop-opacity="0"/>
</radialGradient>
<linearGradient id="paint66_linear_3108_451" x1="236.534" y1="45.0157" x2="227.142" y2="50.5092" gradientUnits="userSpaceOnUse">
<stop offset="0.0504271" stop-color="#0F81F0"/>
<stop offset="0.448862" stop-color="#0F81F0"/>
<stop offset="1" stop-color="#0F81F0" stop-opacity="0"/>
</linearGradient>
<radialGradient id="paint67_radial_3108_451" cx="0" cy="0" r="1" gradientUnits="userSpaceOnUse" gradientTransform="translate(0.903512 0.903512) rotate(90) scale(0.903512)">
<stop offset="0.389396" stop-color="#0F81F0"/>
<stop offset="1" stop-color="white" stop-opacity="0"/>
</radialGradient>
<linearGradient id="paint68_linear_3108_451" x1="254.309" y1="39.5158" x2="231.345" y2="50.0146" gradientUnits="userSpaceOnUse">
<stop offset="0.0504271" stop-color="#0F81F0"/>
<stop offset="0.448862" stop-color="#0F81F0"/>
<stop offset="1" stop-color="#0F81F0" stop-opacity="0"/>
</linearGradient>
<radialGradient id="paint69_radial_3108_451" cx="0" cy="0" r="1" gradientUnits="userSpaceOnUse" gradientTransform="translate(2.09656 2.09656) rotate(90) scale(2.09656)">
<stop offset="0.389396" stop-color="#0F81F0"/>
<stop offset="1" stop-color="white" stop-opacity="0"/>
</radialGradient>
<linearGradient id="paint70_linear_3108_451" x1="251.946" y1="45.1963" x2="231.613" y2="50.5298" gradientUnits="userSpaceOnUse">
<stop offset="0.0504271" stop-color="#0F81F0"/>
<stop offset="0.448862" stop-color="#0F81F0"/>
<stop offset="1" stop-color="#0F81F0" stop-opacity="0"/>
</linearGradient>
<radialGradient id="paint71_radial_3108_451" cx="0" cy="0" r="1" gradientUnits="userSpaceOnUse" gradientTransform="translate(1.74547 1.74547) rotate(90) scale(1.74547)">
<stop offset="0.389396" stop-color="#0F81F0"/>
<stop offset="1" stop-color="white" stop-opacity="0"/>
</radialGradient>
<linearGradient id="paint72_linear_3108_451" x1="244.335" y1="52.5392" x2="224.095" y2="53.0231" gradientUnits="userSpaceOnUse">
<stop offset="0.0504271" stop-color="#0F81F0"/>
<stop offset="0.448862" stop-color="#0F81F0"/>
<stop offset="1" stop-color="#0F81F0" stop-opacity="0"/>
</linearGradient>
<radialGradient id="paint73_radial_3108_451" cx="0" cy="0" r="1" gradientUnits="userSpaceOnUse" gradientTransform="translate(1.68108 1.68108) rotate(90) scale(1.68108)">
<stop offset="0.389396" stop-color="#0F81F0"/>
<stop offset="1" stop-color="white" stop-opacity="0"/>
</radialGradient>
<linearGradient id="paint74_linear_3108_451" x1="254.43" y1="65.0829" x2="225.18" y2="53.4806" gradientUnits="userSpaceOnUse">
<stop offset="0.0504271" stop-color="#0F81F0"/>
<stop offset="0.448862" stop-color="#0F81F0"/>
<stop offset="1" stop-color="#0F81F0" stop-opacity="0"/>
</linearGradient>
<radialGradient id="paint75_radial_3108_451" cx="0" cy="0" r="1" gradientUnits="userSpaceOnUse" gradientTransform="translate(2.6129 2.6129) rotate(90) scale(2.6129)">
<stop offset="0.389396" stop-color="#0F81F0"/>
<stop offset="1" stop-color="white" stop-opacity="0"/>
</radialGradient>
<linearGradient id="paint76_linear_3108_451" x1="248.759" y1="66.8831" x2="229.068" y2="55.2223" gradientUnits="userSpaceOnUse">
<stop offset="0.0504271" stop-color="#0F81F0"/>
<stop offset="0.448862" stop-color="#0F81F0"/>
<stop offset="1" stop-color="#0F81F0" stop-opacity="0"/>
</linearGradient>
<radialGradient id="paint77_radial_3108_451" cx="0" cy="0" r="1" gradientUnits="userSpaceOnUse" gradientTransform="translate(1.90016 1.90016) rotate(90) scale(1.90016)">
<stop offset="0.389396" stop-color="#0F81F0"/>
<stop offset="1" stop-color="white" stop-opacity="0"/>
</radialGradient>
<linearGradient id="paint78_linear_3108_451" x1="237.894" y1="56.1636" x2="227.814" y2="53.6259" gradientUnits="userSpaceOnUse">
<stop offset="0.0504271" stop-color="#0F81F0"/>
<stop offset="0.448862" stop-color="#0F81F0"/>
<stop offset="1" stop-color="#0F81F0" stop-opacity="0"/>
</linearGradient>
<radialGradient id="paint79_radial_3108_451" cx="0" cy="0" r="1" gradientUnits="userSpaceOnUse" gradientTransform="translate(0.863101 0.863101) rotate(90) scale(0.863101)">
<stop offset="0.389396" stop-color="#0F81F0"/>
<stop offset="1" stop-color="white" stop-opacity="0"/>
</radialGradient>
<linearGradient id="paint80_linear_3108_451" x1="70.0211" y1="85.3255" x2="61.6953" y2="105.873" gradientUnits="userSpaceOnUse">
<stop offset="0.0504271" stop-color="#0F81F0"/>
<stop offset="0.448862" stop-color="#0F81F0"/>
<stop offset="1" stop-color="#0F81F0" stop-opacity="0"/>
</linearGradient>
<radialGradient id="paint81_radial_3108_451" cx="0" cy="0" r="1" gradientUnits="userSpaceOnUse" gradientTransform="translate(1.8409 1.8409) rotate(90) scale(1.8409)">
<stop offset="0.389396" stop-color="#0F81F0"/>
<stop offset="1" stop-color="white" stop-opacity="0"/>
</radialGradient>
<linearGradient id="paint82_linear_3108_451" x1="60.779" y1="135.653" x2="60.6736" y2="113.483" gradientUnits="userSpaceOnUse">
<stop offset="0.0504271" stop-color="#0F81F0"/>
<stop offset="0.448862" stop-color="#0F81F0"/>
<stop offset="1" stop-color="#0F81F0" stop-opacity="0"/>
</linearGradient>
<radialGradient id="paint83_radial_3108_451" cx="0" cy="0" r="1" gradientUnits="userSpaceOnUse" gradientTransform="translate(1.8409 1.8409) rotate(90) scale(1.8409)">
<stop offset="0.389396" stop-color="#0F81F0"/>
<stop offset="1" stop-color="white" stop-opacity="0"/>
</radialGradient>
<linearGradient id="paint84_linear_3108_451" x1="62.5163" y1="99.4019" x2="60.4007" y2="110.208" gradientUnits="userSpaceOnUse">
<stop offset="0.0504271" stop-color="#0F81F0"/>
<stop offset="0.448862" stop-color="#0F81F0"/>
<stop offset="1" stop-color="#0F81F0" stop-opacity="0"/>
</linearGradient>
<radialGradient id="paint85_radial_3108_451" cx="0" cy="0" r="1" gradientUnits="userSpaceOnUse" gradientTransform="translate(0.914325 0.914325) rotate(90) scale(0.914325)">
<stop offset="0.389396" stop-color="#0F81F0"/>
<stop offset="1" stop-color="white" stop-opacity="0"/>
</radialGradient>
<linearGradient id="paint86_linear_3108_451" x1="62.3592" y1="119.791" x2="60.2104" y2="108.991" gradientUnits="userSpaceOnUse">
<stop offset="0.0504271" stop-color="#0F81F0"/>
<stop offset="0.448862" stop-color="#0F81F0"/>
<stop offset="1" stop-color="#0F81F0" stop-opacity="0"/>
</linearGradient>
<radialGradient id="paint87_radial_3108_451" cx="0" cy="0" r="1" gradientUnits="userSpaceOnUse" gradientTransform="translate(0.914325 0.914325) rotate(90) scale(0.914325)">
<stop offset="0.389396" stop-color="#0F81F0"/>
<stop offset="1" stop-color="white" stop-opacity="0"/>
</radialGradient>
<linearGradient id="paint88_linear_3108_451" x1="60.1318" y1="95.6289" x2="60.2295" y2="111.744" gradientUnits="userSpaceOnUse">
<stop offset="0.0504271" stop-color="#0F81F0"/>
<stop offset="0.448862" stop-color="#0F81F0"/>
<stop offset="1" stop-color="#0F81F0" stop-opacity="0"/>
</linearGradient>
<radialGradient id="paint89_radial_3108_451" cx="0" cy="0" r="1" gradientUnits="userSpaceOnUse" gradientTransform="translate(1.33816 1.33816) rotate(90) scale(1.33816)">
<stop offset="0.389396" stop-color="#0F81F0"/>
<stop offset="1" stop-color="white" stop-opacity="0"/>
</radialGradient>
<linearGradient id="paint90_linear_3108_451" x1="44.8047" y1="108.829" x2="60.7875" y2="110.896" gradientUnits="userSpaceOnUse">
<stop offset="0.0504271" stop-color="#0F81F0"/>
<stop offset="0.448862" stop-color="#0F81F0"/>
<stop offset="1" stop-color="#0F81F0" stop-opacity="0"/>
</linearGradient>
<radialGradient id="paint91_radial_3108_451" cx="0" cy="0" r="1" gradientUnits="userSpaceOnUse" gradientTransform="translate(1.33816 1.33816) rotate(90) scale(1.33816)">
<stop offset="0.389396" stop-color="#0F81F0"/>
<stop offset="1" stop-color="white" stop-opacity="0"/>
</radialGradient>
<linearGradient id="paint92_linear_3108_451" x1="55.0754" y1="90.0195" x2="59.3407" y2="105.561" gradientUnits="userSpaceOnUse">
<stop offset="0.0504271" stop-color="#0F81F0"/>
<stop offset="0.448862" stop-color="#0F81F0"/>
<stop offset="1" stop-color="#0F81F0" stop-opacity="0"/>
</linearGradient>
<radialGradient id="paint93_radial_3108_451" cx="0" cy="0" r="1" gradientUnits="userSpaceOnUse" gradientTransform="translate(1.33816 1.33816) rotate(90) scale(1.33816)">
<stop offset="0.389396" stop-color="#0F81F0"/>
<stop offset="1" stop-color="white" stop-opacity="0"/>
</radialGradient>
<linearGradient id="paint94_linear_3108_451" x1="38.5751" y1="113.127" x2="54.5481" y2="110.986" gradientUnits="userSpaceOnUse">
<stop offset="0.0504271" stop-color="#0F81F0"/>
<stop offset="0.448862" stop-color="#0F81F0"/>
<stop offset="1" stop-color="#0F81F0" stop-opacity="0"/>
</linearGradient>
<radialGradient id="paint95_radial_3108_451" cx="0" cy="0" r="1" gradientUnits="userSpaceOnUse" gradientTransform="translate(1.33816 1.33816) rotate(90) scale(1.33816)">
<stop offset="0.389396" stop-color="#0F81F0"/>
<stop offset="1" stop-color="white" stop-opacity="0"/>
</radialGradient>
<linearGradient id="paint96_linear_3108_451" x1="50.5392" y1="86.7864" x2="57.4889" y2="103.125" gradientUnits="userSpaceOnUse">
<stop offset="0.0504271" stop-color="#0F81F0"/>
<stop offset="0.448862" stop-color="#0F81F0"/>
<stop offset="1" stop-color="#0F81F0" stop-opacity="0"/>
</linearGradient>
<radialGradient id="paint97_radial_3108_451" cx="0" cy="0" r="1" gradientUnits="userSpaceOnUse" gradientTransform="translate(1.47432 1.47432) rotate(90) scale(1.47432)">
<stop offset="0.389396" stop-color="#0F81F0"/>
<stop offset="1" stop-color="white" stop-opacity="0"/>
</radialGradient>
<linearGradient id="paint98_linear_3108_451" x1="34.7488" y1="117.16" x2="51.8729" y2="112.467" gradientUnits="userSpaceOnUse">
<stop offset="0.0504271" stop-color="#0F81F0"/>
<stop offset="0.448862" stop-color="#0F81F0"/>
<stop offset="1" stop-color="#0F81F0" stop-opacity="0"/>
</linearGradient>
<radialGradient id="paint99_radial_3108_451" cx="0" cy="0" r="1" gradientUnits="userSpaceOnUse" gradientTransform="translate(1.47432 1.47432) rotate(90) scale(1.47432)">
<stop offset="0.389396" stop-color="#0F81F0"/>
<stop offset="1" stop-color="white" stop-opacity="0"/>
</radialGradient>
<linearGradient id="paint100_linear_3108_451" x1="54.8303" y1="100.626" x2="60.667" y2="111.016" gradientUnits="userSpaceOnUse">
<stop offset="0.0504271" stop-color="#0F81F0"/>
<stop offset="0.448862" stop-color="#0F81F0"/>
<stop offset="1" stop-color="#0F81F0" stop-opacity="0"/>
</linearGradient>
<radialGradient id="paint101_radial_3108_451" cx="0" cy="0" r="1" gradientUnits="userSpaceOnUse" gradientTransform="translate(0.98949 0.98949) rotate(90) scale(0.98949)">
<stop offset="0.389396" stop-color="#0F81F0"/>
<stop offset="1" stop-color="white" stop-opacity="0"/>
</radialGradient>
<linearGradient id="paint102_linear_3108_451" x1="49.0467" y1="114.777" x2="60.1257" y2="110.388" gradientUnits="userSpaceOnUse">
<stop offset="0.0504271" stop-color="#0F81F0"/>
<stop offset="0.448862" stop-color="#0F81F0"/>
<stop offset="1" stop-color="#0F81F0" stop-opacity="0"/>
</linearGradient>
<radialGradient id="paint103_radial_3108_451" cx="0" cy="0" r="1" gradientUnits="userSpaceOnUse" gradientTransform="translate(0.98949 0.98949) rotate(90) scale(0.98949)">
<stop offset="0.389396" stop-color="#0F81F0"/>
<stop offset="1" stop-color="white" stop-opacity="0"/>
</radialGradient>
<linearGradient id="paint104_linear_3108_451" x1="50.5868" y1="99.9791" x2="59.8571" y2="108.546" gradientUnits="userSpaceOnUse">
<stop offset="0.0504271" stop-color="#0F81F0"/>
<stop offset="0.448862" stop-color="#0F81F0"/>
<stop offset="1" stop-color="#0F81F0" stop-opacity="0"/>
</linearGradient>
<radialGradient id="paint105_radial_3108_451" cx="0" cy="0" r="1" gradientUnits="userSpaceOnUse" gradientTransform="translate(1.0481 1.0481) rotate(90) scale(1.0481)">
<stop offset="0.389396" stop-color="#0F81F0"/>
<stop offset="1" stop-color="white" stop-opacity="0"/>
</radialGradient>
<linearGradient id="paint106_linear_3108_451" x1="47.7797" y1="118.923" x2="57.5134" y2="110.887" gradientUnits="userSpaceOnUse">
<stop offset="0.0504271" stop-color="#0F81F0"/>
<stop offset="0.448862" stop-color="#0F81F0"/>
<stop offset="1" stop-color="#0F81F0" stop-opacity="0"/>
</linearGradient>
<radialGradient id="paint107_radial_3108_451" cx="0" cy="0" r="1" gradientUnits="userSpaceOnUse" gradientTransform="translate(1.0481 1.0481) rotate(90) scale(1.0481)">
<stop offset="0.389396" stop-color="#0F81F0"/>
<stop offset="1" stop-color="white" stop-opacity="0"/>
</radialGradient>
<linearGradient id="paint108_linear_3108_451" x1="42.9905" y1="99.2439" x2="56.0861" y2="106.343" gradientUnits="userSpaceOnUse">
<stop offset="0.0504271" stop-color="#0F81F0"/>
<stop offset="0.448862" stop-color="#0F81F0"/>
<stop offset="1" stop-color="#0F81F0" stop-opacity="0"/>
</linearGradient>
<radialGradient id="paint109_radial_3108_451" cx="0" cy="0" r="1" gradientUnits="userSpaceOnUse" gradientTransform="translate(1.23688 1.23688) rotate(90) scale(1.23688)">
<stop offset="0.389396" stop-color="#0F81F0"/>
<stop offset="1" stop-color="white" stop-opacity="0"/>
</radialGradient>
<linearGradient id="paint110_linear_3108_451" x1="39.2663" y1="100.756" x2="53.0022" y2="106.52" gradientUnits="userSpaceOnUse">
<stop offset="0.0504271" stop-color="#0F81F0"/>
<stop offset="0.448862" stop-color="#0F81F0"/>
<stop offset="1" stop-color="#0F81F0" stop-opacity="0"/>
</linearGradient>
<radialGradient id="paint111_radial_3108_451" cx="0" cy="0" r="1" gradientUnits="userSpaceOnUse" gradientTransform="translate(1.23688 1.23688) rotate(90) scale(1.23688)">
<stop offset="0.389396" stop-color="#0F81F0"/>
<stop offset="1" stop-color="white" stop-opacity="0"/>
</radialGradient>
<linearGradient id="paint112_linear_3108_451" x1="50.1854" y1="106.451" x2="58.6138" y2="108.645" gradientUnits="userSpaceOnUse">
<stop offset="0.0504271" stop-color="#0F81F0"/>
<stop offset="0.448862" stop-color="#0F81F0"/>
<stop offset="1" stop-color="#0F81F0" stop-opacity="0"/>
</linearGradient>
<radialGradient id="paint113_radial_3108_451" cx="0" cy="0" r="1" gradientUnits="userSpaceOnUse" gradientTransform="translate(0.723169 0.723169) rotate(90) scale(0.723169)">
<stop offset="0.389396" stop-color="#0F81F0"/>
<stop offset="1" stop-color="white" stop-opacity="0"/>
</radialGradient>
<linearGradient id="paint114_linear_3108_451" x1="70.1979" y1="119.214" x2="61.7677" y2="110.506" gradientUnits="userSpaceOnUse">
<stop offset="0.0504271" stop-color="#0F81F0"/>
<stop offset="0.448862" stop-color="#0F81F0"/>
<stop offset="1" stop-color="#0F81F0" stop-opacity="0"/>
</linearGradient>
<radialGradient id="paint115_radial_3108_451" cx="0" cy="0" r="1" gradientUnits="userSpaceOnUse" gradientTransform="translate(1.00637 1.00637) rotate(90) scale(1.00637)">
<stop offset="0.389396" stop-color="#0F81F0"/>
<stop offset="1" stop-color="white" stop-opacity="0"/>
</radialGradient>
<linearGradient id="paint116_linear_3108_451" x1="70.5052" y1="91.4522" x2="63.5888" y2="103.962" gradientUnits="userSpaceOnUse">
<stop offset="0.0504271" stop-color="#0F81F0"/>
<stop offset="0.448862" stop-color="#0F81F0"/>
<stop offset="1" stop-color="#0F81F0" stop-opacity="0"/>
</linearGradient>
<radialGradient id="paint117_radial_3108_451" cx="0" cy="0" r="1" gradientUnits="userSpaceOnUse" gradientTransform="translate(1.18694 1.18694) rotate(90) scale(1.18694)">
<stop offset="0.389396" stop-color="#0F81F0"/>
<stop offset="1" stop-color="white" stop-opacity="0"/>
</radialGradient>
<linearGradient id="paint118_linear_3108_451" x1="58.0226" y1="130.173" x2="59.6674" y2="115.973" gradientUnits="userSpaceOnUse">
<stop offset="0.0504271" stop-color="#0F81F0"/>
<stop offset="0.448862" stop-color="#0F81F0"/>
<stop offset="1" stop-color="#0F81F0" stop-opacity="0"/>
</linearGradient>
<radialGradient id="paint119_radial_3108_451" cx="0" cy="0" r="1" gradientUnits="userSpaceOnUse" gradientTransform="translate(1.18694 1.18694) rotate(90) scale(1.18694)">
<stop offset="0.389396" stop-color="#0F81F0"/>
<stop offset="1" stop-color="white" stop-opacity="0"/>
</radialGradient>
<linearGradient id="paint120_linear_3108_451" x1="70.2682" y1="99.3655" x2="60.2138" y2="109.527" gradientUnits="userSpaceOnUse">
<stop offset="0.0504271" stop-color="#0F81F0"/>
<stop offset="0.448862" stop-color="#0F81F0"/>
<stop offset="1" stop-color="#0F81F0" stop-opacity="0"/>
</linearGradient>
<radialGradient id="paint121_radial_3108_451" cx="0" cy="0" r="1" gradientUnits="userSpaceOnUse" gradientTransform="translate(1.18694 1.18694) rotate(90) scale(1.18694)">
<stop offset="0.389396" stop-color="#0F81F0"/>
<stop offset="1" stop-color="white" stop-opacity="0"/>
</radialGradient>
<linearGradient id="paint122_linear_3108_451" x1="55.1848" y1="122.772" x2="60.6247" y2="109.553" gradientUnits="userSpaceOnUse">
<stop offset="0.0504271" stop-color="#0F81F0"/>
<stop offset="0.448862" stop-color="#0F81F0"/>
<stop offset="1" stop-color="#0F81F0" stop-opacity="0"/>
</linearGradient>
<radialGradient id="paint123_radial_3108_451" cx="0" cy="0" r="1" gradientUnits="userSpaceOnUse" gradientTransform="translate(1.18694 1.18694) rotate(90) scale(1.18694)">
<stop offset="0.389396" stop-color="#0F81F0"/>
<stop offset="1" stop-color="white" stop-opacity="0"/>
</radialGradient>
<linearGradient id="paint124_linear_3108_451" x1="68.836" y1="104.154" x2="62.4296" y2="107.901" gradientUnits="userSpaceOnUse">
<stop offset="0.0504271" stop-color="#0F81F0"/>
<stop offset="0.448862" stop-color="#0F81F0"/>
<stop offset="1" stop-color="#0F81F0" stop-opacity="0"/>
</linearGradient>
<radialGradient id="paint125_radial_3108_451" cx="0" cy="0" r="1" gradientUnits="userSpaceOnUse" gradientTransform="translate(0.616252 0.616252) rotate(90) scale(0.616252)">
<stop offset="0.389396" stop-color="#0F81F0"/>
<stop offset="1" stop-color="white" stop-opacity="0"/>
</radialGradient>
<linearGradient id="paint126_linear_3108_451" x1="80.9621" y1="100.4" x2="65.2997" y2="107.561" gradientUnits="userSpaceOnUse">
<stop offset="0.0504271" stop-color="#0F81F0"/>
<stop offset="0.448862" stop-color="#0F81F0"/>
<stop offset="1" stop-color="#0F81F0" stop-opacity="0"/>
</linearGradient>
<radialGradient id="paint127_radial_3108_451" cx="0" cy="0" r="1" gradientUnits="userSpaceOnUse" gradientTransform="translate(1.42999 1.42999) rotate(90) scale(1.42999)">
<stop offset="0.389396" stop-color="#0F81F0"/>
<stop offset="1" stop-color="white" stop-opacity="0"/>
</radialGradient>
<linearGradient id="paint128_linear_3108_451" x1="79.3477" y1="104.278" x2="65.4791" y2="107.916" gradientUnits="userSpaceOnUse">
<stop offset="0.0504271" stop-color="#0F81F0"/>
<stop offset="0.448862" stop-color="#0F81F0"/>
<stop offset="1" stop-color="#0F81F0" stop-opacity="0"/>
</linearGradient>
<radialGradient id="paint129_radial_3108_451" cx="0" cy="0" r="1" gradientUnits="userSpaceOnUse" gradientTransform="translate(1.19052 1.19052) rotate(90) scale(1.19052)">
<stop offset="0.389396" stop-color="#0F81F0"/>
<stop offset="1" stop-color="white" stop-opacity="0"/>
</radialGradient>
<linearGradient id="paint130_linear_3108_451" x1="74.15" y1="109.284" x2="60.3451" y2="109.614" gradientUnits="userSpaceOnUse">
<stop offset="0.0504271" stop-color="#0F81F0"/>
<stop offset="0.448862" stop-color="#0F81F0"/>
<stop offset="1" stop-color="#0F81F0" stop-opacity="0"/>
</linearGradient>
<radialGradient id="paint131_radial_3108_451" cx="0" cy="0" r="1" gradientUnits="userSpaceOnUse" gradientTransform="translate(1.1466 1.1466) rotate(90) scale(1.1466)">
<stop offset="0.389396" stop-color="#0F81F0"/>
<stop offset="1" stop-color="white" stop-opacity="0"/>
</radialGradient>
<linearGradient id="paint132_linear_3108_451" x1="81.039" y1="117.845" x2="61.088" y2="109.931" gradientUnits="userSpaceOnUse">
<stop offset="0.0504271" stop-color="#0F81F0"/>
<stop offset="0.448862" stop-color="#0F81F0"/>
<stop offset="1" stop-color="#0F81F0" stop-opacity="0"/>
</linearGradient>
<radialGradient id="paint133_radial_3108_451" cx="0" cy="0" r="1" gradientUnits="userSpaceOnUse" gradientTransform="translate(1.78216 1.78216) rotate(90) scale(1.78216)">
<stop offset="0.389396" stop-color="#0F81F0"/>
<stop offset="1" stop-color="white" stop-opacity="0"/>
</radialGradient>
<linearGradient id="paint134_linear_3108_451" x1="77.1718" y1="119.068" x2="63.7417" y2="111.115" gradientUnits="userSpaceOnUse">
<stop offset="0.0504271" stop-color="#0F81F0"/>
<stop offset="0.448862" stop-color="#0F81F0"/>
<stop offset="1" stop-color="#0F81F0" stop-opacity="0"/>
</linearGradient>
<radialGradient id="paint135_radial_3108_451" cx="0" cy="0" r="1" gradientUnits="userSpaceOnUse" gradientTransform="translate(1.29603 1.29603) rotate(90) scale(1.29603)">
<stop offset="0.389396" stop-color="#0F81F0"/>
<stop offset="1" stop-color="white" stop-opacity="0"/>
</radialGradient>
<linearGradient id="paint136_linear_3108_451" x1="69.7635" y1="111.76" x2="62.8883" y2="110.029" gradientUnits="userSpaceOnUse">
<stop offset="0.0504271" stop-color="#0F81F0"/>
<stop offset="0.448862" stop-color="#0F81F0"/>
<stop offset="1" stop-color="#0F81F0" stop-opacity="0"/>
</linearGradient>
<radialGradient id="paint137_radial_3108_451" cx="0" cy="0" r="1" gradientUnits="userSpaceOnUse" gradientTransform="translate(0.588689 0.588689) rotate(90) scale(0.588689)">
<stop offset="0.389396" stop-color="#0F81F0"/>
<stop offset="1" stop-color="white" stop-opacity="0"/>
</radialGradient>
<linearGradient id="paint138_linear_3108_451" x1="172.999" y1="174.476" x2="172.999" y2="194.687" gradientUnits="userSpaceOnUse">
<stop stop-color="white"/>
<stop offset="0.869293" stop-color="white"/>
</linearGradient>
<linearGradient id="paint139_linear_3108_451" x1="85.9988" y1="47.3699" x2="85.9988" y2="63.0899" gradientUnits="userSpaceOnUse">
<stop stop-color="white"/>
<stop offset="0.869293" stop-color="white"/>
</linearGradient>
</defs>
</svg>
