<svg width="300" height="300" viewBox="0 0 300 300" fill="none" xmlns="http://www.w3.org/2000/svg">
<path fill-rule="evenodd" clip-rule="evenodd" d="M261.963 162.535C261.963 163.735 261.171 164.935 259.585 165.851L156.222 225.527C153.051 227.358 147.909 227.358 144.737 225.527L41.3747 165.851C39.8524 164.972 39.0609 163.831 39 162.679V184.782C39.0609 185.933 39.8524 187.074 41.3747 187.953L144.737 247.629C147.909 249.46 153.051 249.46 156.222 247.629L259.585 187.953C261.171 187.037 261.963 185.837 261.963 184.638V162.535Z" fill="#7D97C2"/>
<path fill-rule="evenodd" clip-rule="evenodd" d="M39.0038 162.681C38.9379 161.433 39.7294 160.174 41.3785 159.222L144.741 99.5451C147.913 97.7141 153.055 97.7141 156.226 99.5451L259.589 159.222C261.174 160.137 261.967 161.337 261.967 162.537V184.639C261.967 183.439 261.174 182.24 259.589 181.324L156.226 121.648C153.055 119.817 147.913 119.817 144.741 121.648L41.3785 181.324C39.7294 182.276 38.9379 183.536 39.0038 184.783V162.681Z" fill="#7D97C2"/>
<path d="M144.741 99.5451C147.913 97.7141 153.055 97.7141 156.226 99.5451L259.589 159.222C262.76 161.053 262.76 164.021 259.589 165.852L156.226 225.529C153.055 227.36 147.913 227.36 144.741 225.529L41.3785 165.852C38.2071 164.021 38.2072 161.053 41.3785 159.222L144.741 99.5451Z" fill="#F0F0F0"/>
<path d="M145.886 113.578C148.365 112.151 152.383 112.151 154.861 113.578L235.631 160.098C238.109 161.525 238.109 163.839 235.631 165.267L154.861 211.786C152.383 213.213 148.365 213.213 145.886 211.786L65.1164 165.267C62.6382 163.839 62.6383 161.525 65.1164 160.098L145.886 113.578Z" fill="#031A30"/>
<g filter="url(#filter0_d_3124_4442)">
<path d="M218.679 99.2749C218.736 98.9084 219.264 98.9084 219.321 99.2749L219.719 101.841C219.914 103.099 220.901 104.086 222.159 104.281L224.725 104.679C225.092 104.736 225.092 105.264 224.725 105.321L222.159 105.719C220.901 105.914 219.914 106.901 219.719 108.159L219.321 110.725C219.264 111.092 218.736 111.092 218.679 110.725L218.281 108.159C218.086 106.901 217.099 105.914 215.841 105.719L213.275 105.321C212.908 105.264 212.908 104.736 213.275 104.679L215.841 104.281C217.099 104.086 218.086 103.099 218.281 101.841L218.679 99.2749Z" fill="url(#paint0_linear_3124_4442)"/>
</g>
<path fill-rule="evenodd" clip-rule="evenodd" d="M199.962 188.383C202.852 186.714 204.64 183.136 204.64 178.044C204.64 167.859 197.489 155.475 188.669 150.382L188.589 150.336L188.53 150.303L188.479 150.274C187.837 136.924 178.519 121.247 167.117 114.665C165.024 113.456 163.001 112.635 161.089 112.178C156.991 101.114 149.007 90.6015 139.828 85.3023C133.416 81.6003 127.587 81.1157 123.258 83.3188L137.112 75.3199C141.441 73.1169 147.27 73.6015 153.682 77.3035C162.861 82.6027 170.845 93.1157 174.943 104.179C176.855 104.636 178.878 105.457 180.972 106.666C192.373 113.248 201.691 128.925 202.333 142.275L202.385 142.304L202.443 142.337L202.523 142.384C211.344 147.476 218.494 159.86 218.494 170.045C218.494 175.137 216.706 178.716 213.816 180.384L199.962 188.383Z" fill="#041B31"/>
<path fill-rule="evenodd" clip-rule="evenodd" d="M123.258 83.3191C118.569 85.7057 115.641 91.2465 115.641 99.2676C115.641 99.3426 115.641 99.4178 115.641 99.493L129.496 91.4942C129.495 91.419 129.495 91.3438 129.495 91.2688C129.495 83.2477 132.423 77.7069 137.113 75.3203L123.258 83.3191Z" fill="#041B31"/>
<path fill-rule="evenodd" clip-rule="evenodd" d="M115.638 99.4953C114.726 98.8205 113.794 98.2056 112.846 97.6586C107.585 94.621 102.802 94.2235 99.25 96.0311L113.104 88.0323C116.656 86.2246 121.439 86.6222 126.7 89.6598C127.648 90.2068 128.58 90.8217 129.492 91.4965L115.638 99.4953Z" fill="#041B31"/>
<path fill-rule="evenodd" clip-rule="evenodd" d="M99.2504 96.0262C95.4027 97.9844 93 102.531 93 109.112C93 121.769 101.886 137.159 112.847 143.487L188.666 187.262C193.077 189.808 197.069 190.049 199.959 188.381L213.814 180.382C210.924 182.05 206.931 181.809 202.521 179.263L126.701 135.488C115.74 129.16 106.854 113.77 106.854 101.113C106.854 94.5319 109.257 89.9856 113.105 88.0273L99.2504 96.0262Z" fill="#041B31"/>
<path d="M93 109.116C93 121.772 101.886 137.162 112.847 143.491L188.666 187.265C197.487 192.358 204.637 188.23 204.637 178.045C204.637 167.86 197.487 155.476 188.666 150.384L188.586 150.337L188.528 150.304L188.476 150.275C187.834 136.925 178.516 121.248 167.115 114.666C165.021 113.457 162.998 112.636 161.086 112.179C156.988 101.116 149.004 90.6027 139.825 85.3035C126.467 77.5909 115.637 83.8432 115.637 99.2684C115.637 99.3435 115.638 99.4186 115.638 99.4938C114.726 98.819 113.794 98.2042 112.847 97.6571C101.886 91.3288 93 96.4589 93 109.116Z" fill="#1081F0"/>
<path fill-rule="evenodd" clip-rule="evenodd" d="M155.875 117.371C157.656 116.343 160.072 116.582 162.59 118.036C165.109 119.49 167.525 122.04 169.306 125.125C171.087 128.21 172.087 131.577 172.087 134.485C172.087 137.393 171.087 139.605 169.306 140.633L176.233 136.634C178.014 135.606 179.014 133.394 179.014 130.486C179.014 127.577 178.014 124.21 176.233 121.125C174.452 118.041 172.036 115.491 169.518 114.037C166.999 112.582 164.583 112.343 162.802 113.371L155.875 117.371Z" fill="#041B31"/>
<path fill-rule="evenodd" clip-rule="evenodd" d="M169.306 140.633C167.525 141.661 165.109 141.422 162.591 139.968C160.072 138.514 157.656 135.964 155.875 132.879C154.094 129.794 153.094 126.427 153.094 123.519C153.094 120.61 154.094 118.399 155.875 117.37L162.802 113.371C161.021 114.399 160.021 116.611 160.021 119.519C160.021 122.428 161.021 125.795 162.802 128.879C164.584 131.964 166.999 134.514 169.518 135.968C172.037 137.423 174.452 137.662 176.233 136.634L169.306 140.633Z" fill="#041B31"/>
<path fill-rule="evenodd" clip-rule="evenodd" d="M182.75 137.506L188.475 135.705C188.506 135.694 188.536 135.682 188.564 135.667L195.491 131.668C195.463 131.682 195.433 131.695 195.402 131.705L189.677 133.507L182.75 137.506Z" fill="#041B31"/>
<path fill-rule="evenodd" clip-rule="evenodd" d="M188.564 135.669C189.006 135.441 189.107 134.713 188.801 133.889L183.374 119.915C183.049 119.038 182.316 118.333 181.719 118.27L174.963 117.502C173.552 115.466 172.087 113.555 170.377 111.784L169.373 102.902C169.318 102.501 169.152 102.07 168.903 101.686C168.655 101.302 168.341 100.989 168.017 100.803L157.163 94.5363C156.783 94.317 156.437 94.2941 156.188 94.4376L163.115 90.4382C163.365 90.2947 163.71 90.3175 164.09 90.5369L174.944 96.8032C175.268 96.9894 175.582 97.3024 175.831 97.6866C176.079 98.0708 176.245 98.5015 176.3 98.9024L177.304 107.785C179.014 109.555 180.479 111.466 181.89 113.503L188.646 114.27C189.243 114.333 189.976 115.038 190.302 115.915L195.728 129.889C196.034 130.714 195.933 131.442 195.491 131.669L188.564 135.669Z" fill="#041B31"/>
<path fill-rule="evenodd" clip-rule="evenodd" d="M156.182 94.4369C155.986 94.5496 155.849 94.7649 155.801 95.0682L154.797 102.791L161.724 98.7921L162.728 91.0688C162.776 90.7655 162.913 90.5502 163.109 90.4375L156.182 94.4369Z" fill="#041B31"/>
<path fill-rule="evenodd" clip-rule="evenodd" d="M154.796 102.79C153.087 102.586 151.622 102.805 150.211 103.213L143.454 96.1786C142.977 95.6773 142.412 95.4868 142.039 95.6873L148.966 91.6879C149.34 91.4874 149.904 91.6779 150.382 92.1792L157.138 99.2132C158.549 98.8058 160.014 98.5865 161.724 98.7902L154.796 102.79Z" fill="#041B31"/>
<path fill-rule="evenodd" clip-rule="evenodd" d="M142.042 95.6908C141.949 95.7409 141.868 95.8155 141.802 95.9158L136.376 103.623C136.023 104.109 136.186 105.049 136.701 105.817L142.426 114.229C142.318 115.232 142.237 116.219 142.237 117.253C142.237 118.287 142.318 119.336 142.426 120.401L149.354 116.402C149.245 115.337 149.164 114.287 149.164 113.253C149.164 112.219 149.245 111.232 149.354 110.23L143.628 101.817C143.113 101.05 142.95 100.11 143.303 99.6239L148.73 91.9164C148.795 91.8161 148.876 91.7415 148.969 91.6914L142.042 95.6908Z" fill="#041B31"/>
<path fill-rule="evenodd" clip-rule="evenodd" d="M142.428 120.398L136.703 122.293C136.662 122.307 136.623 122.325 136.586 122.346L143.513 118.346C143.55 118.325 143.589 118.308 143.63 118.294L149.355 116.398L142.428 120.398Z" fill="#041B31"/>
<path fill-rule="evenodd" clip-rule="evenodd" d="M136.584 122.351C136.163 122.592 136.051 123.294 136.376 124.116L141.802 138.09C142.128 138.967 142.861 139.641 143.458 139.735L150.214 140.471C151.625 142.539 153.09 144.45 154.8 146.22L155.804 155.103C155.912 155.917 156.482 156.81 157.16 157.202L168.014 163.468C168.394 163.688 168.74 163.711 168.989 163.567L175.917 159.568C175.667 159.711 175.321 159.688 174.941 159.469L164.087 153.203C163.409 152.811 162.839 151.918 162.731 151.103L161.727 142.221C160.017 140.451 158.552 138.54 157.141 136.472L150.385 135.735C149.788 135.641 149.055 134.968 148.73 134.09L143.303 120.117C142.978 119.295 143.09 118.593 143.512 118.352L136.584 122.351Z" fill="#041B31"/>
<path fill-rule="evenodd" clip-rule="evenodd" d="M168.992 163.565C169.189 163.452 169.326 163.237 169.373 162.934L170.377 155.21L177.304 151.211L176.3 158.934C176.253 159.237 176.116 159.453 175.919 159.566L168.992 163.565Z" fill="#041B31"/>
<path fill-rule="evenodd" clip-rule="evenodd" d="M170.375 155.208C172.084 155.38 173.55 155.192 174.961 154.753L181.717 161.819C182.195 162.295 182.759 162.5 183.132 162.307L190.059 158.307C189.686 158.501 189.122 158.295 188.644 157.819L181.888 150.754C180.477 151.193 179.012 151.381 177.302 151.208L170.375 155.208Z" fill="#041B31"/>
<path fill-rule="evenodd" clip-rule="evenodd" d="M183.134 162.309C183.228 162.26 183.309 162.187 183.374 162.087L188.801 154.379C189.126 153.878 188.991 152.954 188.475 152.186L182.75 143.679C182.859 142.74 182.94 141.784 182.94 140.75C182.94 139.716 182.859 138.635 182.75 137.507L189.677 133.508C189.786 134.636 189.867 135.717 189.867 136.751C189.867 137.785 189.786 138.74 189.677 139.68L195.402 148.187C195.918 148.954 196.054 149.878 195.728 150.38L190.301 158.087C190.236 158.188 190.155 158.261 190.061 158.309L183.134 162.309Z" fill="#041B31"/>
<path d="M162.587 139.968C160.068 138.513 157.653 135.963 155.872 132.879C154.091 129.794 153.09 126.427 153.09 123.519C153.09 120.61 154.091 118.399 155.872 117.37C157.653 116.342 160.068 116.581 162.587 118.036C165.106 119.49 167.521 122.04 169.302 125.124C171.083 128.209 172.084 131.576 172.084 134.485C172.084 137.393 171.083 139.605 169.302 140.633C167.521 141.661 165.106 141.422 162.587 139.968ZM182.748 143.68C182.856 142.741 182.937 141.785 182.937 140.751C182.937 139.717 182.856 138.636 182.748 137.508L188.473 135.707C188.988 135.534 189.124 134.767 188.798 133.889L183.372 119.915C183.046 119.038 182.313 118.333 181.716 118.27L174.96 117.503C173.549 115.466 172.084 113.555 170.374 111.785L169.37 102.902C169.315 102.502 169.149 102.071 168.901 101.687C168.652 101.302 168.338 100.989 168.014 100.803L157.16 94.5369C156.482 94.1452 155.912 94.3802 155.804 95.0695L154.8 102.793C153.09 102.589 151.625 102.808 150.214 103.216L143.458 96.1817C142.861 95.5551 142.128 95.4141 141.802 95.9155L136.376 103.623C136.023 104.109 136.186 105.049 136.701 105.816L142.426 114.229C142.318 115.231 142.237 116.218 142.237 117.252C142.237 118.286 142.318 119.336 142.426 120.401L136.701 122.297C136.186 122.469 136.023 123.221 136.376 124.114L141.802 138.088C142.128 138.965 142.861 139.639 143.458 139.733L150.214 140.469C151.625 142.537 153.09 144.448 154.8 146.218L155.804 155.101C155.912 155.915 156.482 156.808 157.16 157.2L168.014 163.466C168.692 163.858 169.262 163.623 169.37 162.934L170.374 155.21C172.084 155.383 173.549 155.195 174.96 154.756L181.716 161.821C182.313 162.417 183.046 162.589 183.372 162.088L188.798 154.38C189.124 153.879 188.988 152.955 188.473 152.187L182.748 143.68Z" fill="#E5F1FE"/>
<path d="M230.067 63.442L242.702 34.4807C242.883 34.0667 242.688 33.5851 242.271 33.413C241.854 33.2412 241.377 33.4443 241.213 33.8639L229.672 63.2785C229.63 63.387 229.682 63.5097 229.79 63.5541C229.897 63.5984 230.02 63.5486 230.067 63.442Z" fill="url(#paint1_linear_3124_4442)"/>
<circle cx="2.69902" cy="2.69902" r="2.69902" transform="matrix(-0.924516 -0.381142 -0.381142 0.924516 245.766 32.0586)" fill="url(#paint2_radial_3124_4442)"/>
<path d="M228.608 74.7865L227.924 106.377C227.914 106.828 228.277 107.2 228.729 107.2C229.18 107.201 229.543 106.832 229.536 106.381L229.036 74.7877C229.034 74.6711 228.939 74.5776 228.822 74.5774C228.706 74.5773 228.611 74.6702 228.608 74.7865Z" fill="url(#paint3_linear_3124_4442)"/>
<circle cx="2.69902" cy="2.69902" r="2.69902" transform="matrix(0.999999 0.00130398 0.00130398 -0.999999 226.016 109.777)" fill="url(#paint4_radial_3124_4442)"/>
<path d="M228.17 69.8479L231.591 54.5316C231.64 54.3127 231.499 54.0963 231.279 54.0519C231.06 54.0075 230.847 54.1517 230.806 54.3718L227.962 69.8055C227.951 69.8624 227.988 69.9173 228.045 69.9288C228.102 69.9402 228.157 69.9043 228.17 69.8479Z" fill="url(#paint5_linear_3124_4442)"/>
<circle cx="1.34053" cy="1.34053" r="1.34053" transform="matrix(-0.980188 -0.198071 -0.198071 0.980188 232.844 53.0625)" fill="url(#paint6_radial_3124_4442)"/>
<path d="M227.917 68.1532L230.571 83.6207C230.609 83.8418 230.822 83.9886 231.042 83.9461C231.262 83.9038 231.404 83.6895 231.358 83.4705L228.125 68.1134C228.113 68.0568 228.058 68.0201 228.001 68.0311C227.944 68.042 227.907 68.0963 227.917 68.1532Z" fill="url(#paint7_linear_3124_4442)"/>
<circle cx="1.34053" cy="1.34053" r="1.34053" transform="matrix(0.98194 -0.189191 -0.189191 -0.98194 229.977 85.4531)" fill="url(#paint8_radial_3124_4442)"/>
<path d="M227.895 72.0772L228.363 49.1136C228.37 48.7853 228.105 48.5156 227.777 48.5156C227.449 48.5156 227.185 48.7842 227.191 49.1117L227.585 72.0767C227.586 72.1614 227.655 72.2293 227.74 72.2293C227.825 72.2293 227.894 72.1617 227.895 72.0772Z" fill="url(#paint9_linear_3124_4442)"/>
<circle cx="1.96193" cy="1.96193" r="1.96193" transform="matrix(-1 0 0 1 229.758 46.6445)" fill="url(#paint10_radial_3124_4442)"/>
<path d="M228.667 70.9155L205.974 67.3697C205.649 67.319 205.347 67.5447 205.303 67.87C205.259 68.1946 205.489 68.4922 205.815 68.5306L228.625 71.2232C228.709 71.2332 228.785 71.1738 228.797 71.0898C228.808 71.006 228.75 70.9285 228.667 70.9155Z" fill="url(#paint11_linear_3124_4442)"/>
<circle cx="1.96193" cy="1.96193" r="1.96193" transform="matrix(-0.134236 0.990949 0.990949 0.134236 203.719 65.6719)" fill="url(#paint12_radial_3124_4442)"/>
<path d="M226.588 63.0196L221.096 40.7174C221.018 40.3986 220.693 40.2065 220.375 40.2915C220.059 40.3763 219.874 40.704 219.964 41.0189L226.288 63.0995C226.311 63.181 226.395 63.2287 226.477 63.2067C226.559 63.1849 226.608 63.1017 226.588 63.0196Z" fill="url(#paint13_linear_3124_4442)"/>
<circle cx="1.96193" cy="1.96193" r="1.96193" transform="matrix(-0.965926 0.258819 0.258819 0.965926 221.773 37.9688)" fill="url(#paint14_radial_3124_4442)"/>
<path d="M219.518 71.0699L196.681 73.5183C196.354 73.5533 196.12 73.8496 196.162 74.1753C196.203 74.5002 196.503 74.728 196.827 74.6809L219.557 71.3781C219.641 71.3659 219.699 71.2887 219.689 71.2046C219.678 71.1208 219.602 71.0609 219.518 71.0699Z" fill="url(#paint15_linear_3124_4442)"/>
<circle cx="1.96193" cy="1.96193" r="1.96193" transform="matrix(0.126815 0.991926 0.991926 -0.126815 194.039 72.4648)" fill="url(#paint16_radial_3124_4442)"/>
<path d="M223.848 59.4498L214.562 35.9098C214.429 35.5733 214.046 35.4115 213.712 35.5511C213.379 35.6904 213.225 36.0755 213.37 36.406L223.532 59.5813C223.57 59.6669 223.669 59.7065 223.755 59.6705C223.841 59.6346 223.883 59.5365 223.848 59.4498Z" fill="url(#paint17_linear_3124_4442)"/>
<circle cx="2.16156" cy="2.16156" r="2.16156" transform="matrix(-0.922572 0.385824 0.385824 0.922572 214.914 32.8125)" fill="url(#paint18_radial_3124_4442)"/>
<path d="M215.604 73.2457L191.03 79.288C190.679 79.3743 190.467 79.7324 190.561 80.0818C190.654 80.4305 191.015 80.635 191.362 80.5357L215.692 73.5764C215.782 73.5508 215.834 73.4579 215.81 73.3676C215.786 73.2777 215.694 73.2234 215.604 73.2457Z" fill="url(#paint19_linear_3124_4442)"/>
<circle cx="2.16156" cy="2.16156" r="2.16156" transform="matrix(0.25849 0.966014 0.966014 -0.25849 188 78.5352)" fill="url(#paint20_radial_3124_4442)"/>
<path d="M228.521 71.0378L220.597 56.0161C220.484 55.8014 220.216 55.7216 220.004 55.8393C219.792 55.9566 219.717 56.2249 219.838 56.4347L228.32 71.1488C228.352 71.2031 228.421 71.2223 228.475 71.1919C228.53 71.1616 228.551 71.0931 228.521 71.0378Z" fill="url(#paint21_linear_3124_4442)"/>
<circle cx="1.45073" cy="1.45073" r="1.45073" transform="matrix(-0.874793 0.484497 0.484497 0.874793 220.609 53.9258)" fill="url(#paint22_radial_3124_4442)"/>
<path d="M227.724 70.1875L211.775 76.0238C211.547 76.1072 211.432 76.3617 211.52 76.5879C211.608 76.8136 211.863 76.9235 212.088 76.8318L227.807 70.4017C227.865 70.378 227.893 70.3121 227.871 70.2537C227.848 70.1955 227.783 70.166 227.724 70.1875Z" fill="url(#paint23_linear_3124_4442)"/>
<circle cx="1.45073" cy="1.45073" r="1.45073" transform="matrix(0.362683 0.931913 0.931913 -0.362683 209.695 75.7344)" fill="url(#paint24_radial_3124_4442)"/>
<path d="M227.314 67.4397L214.429 54.8855C214.245 54.706 213.949 54.7129 213.774 54.9007C213.598 55.0881 213.611 55.3827 213.801 55.5548L227.148 67.6171C227.197 67.6616 227.273 67.6584 227.318 67.6099C227.364 67.5616 227.362 67.4859 227.314 67.4397Z" fill="url(#paint25_linear_3124_4442)"/>
<circle cx="1.53666" cy="1.53666" r="1.53666" transform="matrix(-0.683128 0.730299 0.730299 0.683128 213.75 52.7656)" fill="url(#paint26_radial_3124_4442)"/>
<path d="M223.914 70.9329L209.744 82.0161C209.541 82.1745 209.509 82.4684 209.671 82.6677C209.833 82.8666 210.127 82.8939 210.323 82.7283L224.068 71.1217C224.118 71.0788 224.125 71.0032 224.083 70.9518C224.042 70.9005 223.966 70.8921 223.914 70.9329Z" fill="url(#paint27_linear_3124_4442)"/>
<circle cx="1.53666" cy="1.53666" r="1.53666" transform="matrix(0.631989 0.774977 0.774977 -0.631989 207.586 82.3984)" fill="url(#paint28_radial_3124_4442)"/>
<path d="M221.783 64.2113L203.393 53.6043C203.13 53.4527 202.794 53.5466 202.648 53.8125C202.502 54.0778 202.602 54.4112 202.869 54.5526L221.644 64.4627C221.714 64.4993 221.8 64.4735 221.837 64.4049C221.875 64.3364 221.851 64.2504 221.783 64.2113Z" fill="url(#paint29_linear_3124_4442)"/>
<circle cx="1.81343" cy="1.81343" r="1.81343" transform="matrix(-0.48189 0.876232 0.876232 0.48189 202.031 51.3945)" fill="url(#paint30_radial_3124_4442)"/>
<path d="M217.255 64.4869L197.902 55.7585C197.626 55.6338 197.301 55.7606 197.181 56.0397C197.063 56.3182 197.195 56.64 197.476 56.7541L217.142 64.7508C217.215 64.7803 217.297 64.7462 217.328 64.6741C217.359 64.6023 217.326 64.519 217.255 64.4869Z" fill="url(#paint31_linear_3124_4442)"/>
<circle cx="1.81343" cy="1.81343" r="1.81343" transform="matrix(-0.392495 0.919754 0.919754 0.392495 196.297 53.6914)" fill="url(#paint32_radial_3124_4442)"/>
<path d="M225.517 67.6037L213.592 64.16C213.421 64.1108 213.244 64.2112 213.198 64.3826C213.152 64.5536 213.256 64.7289 213.428 64.7716L225.474 67.7659C225.518 67.7769 225.563 67.7503 225.575 67.706C225.587 67.6619 225.561 67.6164 225.517 67.6037Z" fill="url(#paint33_linear_3124_4442)"/>
<circle cx="1.06027" cy="1.06027" r="1.06027" transform="matrix(-0.257828 0.966191 0.966191 0.257828 212.461 63.0938)" fill="url(#paint34_radial_3124_4442)"/>
<path d="M230.224 70.3515L241.907 83.0749C242.074 83.2568 242.358 83.266 242.536 83.0954C242.714 82.9251 242.718 82.6419 242.545 82.4668L230.393 70.1903C230.348 70.145 230.275 70.144 230.229 70.1881C230.183 70.2321 230.181 70.3047 230.224 70.3515Z" fill="url(#paint35_linear_3124_4442)"/>
<circle cx="1.47547" cy="1.47547" r="1.47547" transform="matrix(0.722669 -0.691194 -0.691194 -0.722669 242.43 85.1367)" fill="url(#paint36_radial_3124_4442)"/>
<path d="M232.852 60.6725L243.176 43.1097C243.324 42.8586 243.237 42.5353 242.983 42.3929C242.729 42.2507 242.408 42.344 242.271 42.5998L232.612 60.5373C232.576 60.6035 232.6 60.6861 232.665 60.7228C232.731 60.7595 232.814 60.7371 232.852 60.6725Z" fill="url(#paint37_linear_3124_4442)"/>
<circle cx="1.74023" cy="1.74023" r="1.74023" transform="matrix(-0.872204 -0.489142 -0.489142 0.872204 245.297 41.7891)" fill="url(#paint38_radial_3124_4442)"/>
<path d="M227.117 78.4039L224.239 98.5725C224.198 98.8608 224.402 99.1266 224.691 99.1619C224.979 99.1971 225.24 98.989 225.271 98.7L227.39 78.4377C227.398 78.3629 227.345 78.2957 227.27 78.2866C227.196 78.2775 227.127 78.3296 227.117 78.4039Z" fill="url(#paint39_linear_3124_4442)"/>
<circle cx="1.74023" cy="1.74023" r="1.74023" transform="matrix(0.992643 0.121081 0.121081 -0.992643 222.75 100.605)" fill="url(#paint40_radial_3124_4442)"/>
<path d="M227.933 68.8363L242.64 54.7382C242.851 54.5367 242.854 54.2018 242.649 53.9957C242.443 53.7901 242.109 53.7927 241.907 54.0015L227.739 68.641C227.687 68.695 227.687 68.781 227.741 68.8342C227.794 68.8873 227.879 68.8882 227.933 68.8363Z" fill="url(#paint41_linear_3124_4442)"/>
<circle cx="1.74023" cy="1.74023" r="1.74023" transform="matrix(-0.706553 -0.70766 -0.70766 0.706553 245.07 54.0391)" fill="url(#paint42_radial_3124_4442)"/>
<path d="M228.502 68.9956L220.254 87.6243C220.136 87.8906 220.26 88.2018 220.528 88.3142C220.796 88.4264 221.104 88.2971 221.212 88.0272L228.756 69.1024C228.784 69.0326 228.75 68.9533 228.681 68.9243C228.612 68.8953 228.532 68.927 228.502 68.9956Z" fill="url(#paint43_linear_3124_4442)"/>
<circle cx="1.74023" cy="1.74023" r="1.74023" transform="matrix(0.922436 0.38615 0.38615 -0.922436 218.281 89.1797)" fill="url(#paint44_radial_3124_4442)"/>
<path d="M231.162 66.4838L240.431 61.3866C240.563 61.3138 240.61 61.1463 240.534 61.0153C240.459 60.8846 240.291 60.8411 240.162 60.9187L231.091 66.3597C231.057 66.3798 231.046 66.423 231.066 66.4568C231.085 66.4905 231.128 66.5025 231.162 66.4838Z" fill="url(#paint45_linear_3124_4442)"/>
<circle cx="0.903512" cy="0.903512" r="0.903512" transform="matrix(-0.499621 -0.866244 -0.866244 0.499621 241.742 61.3633)" fill="url(#paint46_radial_3124_4442)"/>
<path d="M235.398 65.9606L257.982 56.348C258.305 56.2106 258.452 55.8348 258.308 55.5148C258.164 55.1956 257.787 55.0561 257.47 55.2051L235.263 65.6576C235.181 65.6962 235.145 65.7933 235.182 65.8759C235.219 65.9583 235.315 65.996 235.398 65.9606Z" fill="url(#paint47_linear_3124_4442)"/>
<circle cx="2.09656" cy="2.09656" r="2.09656" transform="matrix(-0.410286 -0.911957 -0.911957 0.410286 261.023 56.6016)" fill="url(#paint48_radial_3124_4442)"/>
<path d="M235.664 66.4931L255.56 61.8323C255.844 61.7657 256.019 61.4784 255.946 61.1955C255.874 60.9131 255.584 60.7448 255.303 60.8219L235.596 66.2252C235.524 66.2452 235.48 66.3197 235.499 66.3928C235.518 66.4656 235.591 66.5102 235.664 66.4931Z" fill="url(#paint49_linear_3124_4442)"/>
<circle cx="1.74547" cy="1.74547" r="1.74547" transform="matrix(-0.247856 -0.968797 -0.968797 0.247856 258 62.4805)" fill="url(#paint50_radial_3124_4442)"/>
<path d="M228.151 69L247.831 69.0495C248.113 69.0502 248.34 68.8197 248.335 68.5384C248.33 68.2578 248.096 68.0357 247.815 68.0455L228.147 68.7339C228.074 68.7364 228.017 68.7967 228.018 68.8693C228.019 68.9417 228.078 68.9998 228.151 69Z" fill="url(#paint51_linear_3124_4442)"/>
<circle cx="1.68108" cy="1.68108" r="1.68108" transform="matrix(-0.0178398 -0.999841 -0.999841 0.0178398 249.977 70.1992)" fill="url(#paint52_radial_3124_4442)"/>
<path d="M229.274 69.4817L257.4 81.5072C257.802 81.6791 258.267 81.4872 258.431 81.0817C258.594 80.6772 258.394 80.2173 257.987 80.0609L229.429 69.0984C229.324 69.0579 229.206 69.1094 229.164 69.2141C229.121 69.3185 229.17 69.4375 229.274 69.4817Z" fill="url(#paint53_linear_3124_4442)"/>
<circle cx="2.6129" cy="2.6129" r="2.6129" transform="matrix(0.374329 -0.927296 -0.927296 -0.374329 259.766 84.4453)" fill="url(#paint54_radial_3124_4442)"/>
<path d="M233.136 71.2339L251.971 83.0707C252.24 83.2399 252.595 83.1549 252.759 82.8823C252.922 82.6103 252.831 82.2572 252.556 82.0986L233.291 70.9762C233.22 70.9352 233.129 70.9587 233.087 71.0291C233.045 71.0993 233.067 71.1903 233.136 71.2339Z" fill="url(#paint55_linear_3124_4442)"/>
<circle cx="1.90016" cy="1.90016" r="1.90016" transform="matrix(0.514763 -0.857333 -0.857333 -0.514763 253.344 85.4531)" fill="url(#paint56_radial_3124_4442)"/>
<path d="M231.845 69.6222L241.575 72.347C241.714 72.386 241.858 72.3031 241.894 72.1632C241.93 72.0237 241.845 71.8817 241.704 71.8481L231.879 69.4899C231.843 69.4812 231.806 69.5032 231.797 69.5393C231.788 69.5753 231.809 69.6121 231.845 69.6222Z" fill="url(#paint57_linear_3124_4442)"/>
<circle cx="0.863101" cy="0.863101" r="0.863101" transform="matrix(0.250015 -0.968242 -0.968242 -0.250015 242.492 73.2031)" fill="url(#paint58_radial_3124_4442)"/>
<path d="M65.6966 121.807L74.3147 102.053C74.4378 101.771 74.3051 101.443 74.0202 101.325C73.7361 101.208 73.4111 101.347 73.2988 101.633L65.4273 121.695C65.3983 121.769 65.4339 121.853 65.5075 121.883C65.5808 121.914 65.6649 121.88 65.6966 121.807Z" fill="url(#paint59_linear_3124_4442)"/>
<circle cx="1.8409" cy="1.8409" r="1.8409" transform="matrix(-0.924516 -0.381142 -0.381142 0.924516 76.4062 100.402)" fill="url(#paint60_radial_3124_4442)"/>
<path d="M64.6977 129.545L64.2309 151.091C64.2242 151.399 64.4719 151.653 64.7799 151.653C65.0873 151.653 65.3353 151.402 65.3304 151.094L64.9891 129.546C64.9879 129.466 64.9231 129.402 64.8436 129.402C64.7642 129.402 64.6994 129.465 64.6977 129.545Z" fill="url(#paint61_linear_3124_4442)"/>
<circle cx="1.8409" cy="1.8409" r="1.8409" transform="matrix(0.999999 0.00130398 0.00130398 -0.999999 62.9297 153.41)" fill="url(#paint62_radial_3124_4442)"/>
<path d="M64.395 126.176L66.7283 115.729C66.7617 115.58 66.6658 115.432 66.5159 115.402C66.3662 115.372 66.2209 115.47 66.1932 115.62L64.2532 126.147C64.246 126.186 64.2713 126.223 64.31 126.231C64.3487 126.239 64.3864 126.214 64.395 126.176Z" fill="url(#paint63_linear_3124_4442)"/>
<circle cx="0.914325" cy="0.914325" r="0.914325" transform="matrix(-0.980188 -0.198071 -0.198071 0.980188 67.5859 114.727)" fill="url(#paint64_radial_3124_4442)"/>
<path d="M64.228 125.019L66.0388 135.569C66.0647 135.72 66.2094 135.82 66.3596 135.791C66.5095 135.762 66.6066 135.616 66.5752 135.467L64.3702 124.992C64.3621 124.953 64.3245 124.928 64.2857 124.936C64.247 124.943 64.2214 124.98 64.228 125.019Z" fill="url(#paint65_linear_3124_4442)"/>
<circle cx="0.914325" cy="0.914325" r="0.914325" transform="matrix(0.98194 -0.189191 -0.189191 -0.98194 65.6328 136.82)" fill="url(#paint66_radial_3124_4442)"/>
<path d="M64.2119 127.699L64.5308 112.037C64.5353 111.813 64.3551 111.629 64.1311 111.629C63.9077 111.629 63.7277 111.812 63.7315 112.035L64 127.699C64.001 127.757 64.0482 127.803 64.106 127.803C64.1636 127.803 64.2107 127.757 64.2119 127.699Z" fill="url(#paint67_linear_3124_4442)"/>
<circle cx="1.33816" cy="1.33816" r="1.33816" transform="matrix(-1 0 0 1 65.4844 110.352)" fill="url(#paint68_radial_3124_4442)"/>
<path d="M64.7405 126.907L49.2624 124.489C49.0412 124.454 48.8347 124.608 48.8046 124.83C48.7746 125.051 48.932 125.254 49.1538 125.281L64.7117 127.117C64.7691 127.124 64.8213 127.083 64.8291 127.026C64.8368 126.969 64.7974 126.916 64.7405 126.907Z" fill="url(#paint69_linear_3124_4442)"/>
<circle cx="1.33816" cy="1.33816" r="1.33816" transform="matrix(-0.134236 0.990949 0.990949 0.134236 47.7266 123.332)" fill="url(#paint70_radial_3124_4442)"/>
<path d="M63.3121 121.522L59.5663 106.31C59.5127 106.093 59.291 105.962 59.0747 106.02C58.8589 106.077 58.7324 106.301 58.7939 106.516L63.1073 121.576C63.1233 121.632 63.1808 121.664 63.2366 121.649C63.2923 121.634 63.3259 121.578 63.3121 121.522Z" fill="url(#paint71_linear_3124_4442)"/>
<circle cx="1.33816" cy="1.33816" r="1.33816" transform="matrix(-0.965926 0.258819 0.258819 0.965926 60.0312 104.434)" fill="url(#paint72_radial_3124_4442)"/>
<path d="M58.5056 127.009L42.929 128.679C42.7064 128.703 42.5468 128.905 42.5752 129.127C42.6035 129.349 42.808 129.504 43.0291 129.472L58.5322 127.219C58.5894 127.211 58.6294 127.158 58.622 127.101C58.6147 127.044 58.563 127.003 58.5056 127.009Z" fill="url(#paint73_linear_3124_4442)"/>
<circle cx="1.33816" cy="1.33816" r="1.33816" transform="matrix(0.126815 0.991926 0.991926 -0.126815 41.125 127.961)" fill="url(#paint74_radial_3124_4442)"/>
<path d="M61.4519 119.087L55.118 103.031C55.0275 102.802 54.7661 102.691 54.5385 102.787C54.3114 102.882 54.2062 103.144 54.3051 103.37L61.2364 119.177C61.2619 119.235 61.3295 119.262 61.3883 119.238C61.4469 119.213 61.4752 119.146 61.4519 119.087Z" fill="url(#paint75_linear_3124_4442)"/>
<circle cx="1.47432" cy="1.47432" r="1.47432" transform="matrix(-0.922572 0.385824 0.385824 0.922572 55.3594 100.918)" fill="url(#paint76_radial_3124_4442)"/>
<path d="M55.8299 128.498L39.0692 132.619C38.8297 132.678 38.6852 132.922 38.749 133.161C38.8126 133.399 39.0588 133.538 39.2955 133.47L55.8899 128.724C55.9511 128.706 55.987 128.643 55.9705 128.581C55.9541 128.52 55.8916 128.483 55.8299 128.498Z" fill="url(#paint77_linear_3124_4442)"/>
<circle cx="1.47432" cy="1.47432" r="1.47432" transform="matrix(0.25849 0.966014 0.966014 -0.25849 37 132.105)" fill="url(#paint78_radial_3124_4442)"/>
<path d="M64.6395 126.993L59.2345 116.747C59.1572 116.601 58.9747 116.546 58.8299 116.627C58.6854 116.707 58.6345 116.89 58.717 117.033L64.5023 127.069C64.5237 127.106 64.5707 127.119 64.6081 127.098C64.6454 127.077 64.6594 127.031 64.6395 126.993Z" fill="url(#paint79_linear_3124_4442)"/>
<circle cx="0.98949" cy="0.98949" r="0.98949" transform="matrix(-0.874793 0.484497 0.484497 0.874793 59.2422 115.32)" fill="url(#paint80_radial_3124_4442)"/>
<path d="M64.0993 126.412L53.2208 130.392C53.0653 130.449 52.9868 130.623 53.0469 130.777C53.1068 130.931 53.2813 131.006 53.4342 130.944L64.1559 126.558C64.1955 126.542 64.2147 126.497 64.1992 126.457C64.1838 126.417 64.1394 126.397 64.0993 126.412Z" fill="url(#paint81_linear_3124_4442)"/>
<circle cx="0.98949" cy="0.98949" r="0.98949" transform="matrix(0.362683 0.931913 0.931913 -0.362683 51.8047 130.195)" fill="url(#paint82_radial_3124_4442)"/>
<path d="M63.822 124.532L55.0335 115.969C54.9079 115.847 54.7062 115.851 54.5864 115.979C54.4669 116.107 54.4753 116.308 54.6051 116.426L63.7084 124.653C63.742 124.683 63.7937 124.681 63.8247 124.648C63.8555 124.615 63.8543 124.563 63.822 124.532Z" fill="url(#paint83_linear_3124_4442)"/>
<circle cx="1.0481" cy="1.0481" r="1.0481" transform="matrix(-0.683128 0.730299 0.730299 0.683128 54.5703 114.523)" fill="url(#paint84_radial_3124_4442)"/>
<path d="M61.4948 126.919L51.8298 134.479C51.6916 134.587 51.6692 134.787 51.78 134.923C51.8906 135.059 52.0909 135.078 52.2246 134.965L61.5994 127.048C61.634 127.019 61.6388 126.967 61.6102 126.932C61.5817 126.897 61.5303 126.892 61.4948 126.919Z" fill="url(#paint85_linear_3124_4442)"/>
<circle cx="1.0481" cy="1.0481" r="1.0481" transform="matrix(0.631989 0.774977 0.774977 -0.631989 50.3594 134.738)" fill="url(#paint86_radial_3124_4442)"/>
<path d="M60.0418 122.337L47.4985 115.102C47.3192 114.999 47.0899 115.063 46.9902 115.244C46.8907 115.425 46.9588 115.653 47.1414 115.749L59.9472 122.509C59.9944 122.533 60.0529 122.516 60.0787 122.469C60.1044 122.422 60.088 122.364 60.0418 122.337Z" fill="url(#paint87_linear_3124_4442)"/>
<circle cx="1.23688" cy="1.23688" r="1.23688" transform="matrix(-0.48189 0.876232 0.876232 0.48189 46.5703 113.594)" fill="url(#paint88_radial_3124_4442)"/>
<path d="M56.9575 122.518L43.7578 116.565C43.5691 116.48 43.3473 116.567 43.2661 116.757C43.185 116.947 43.2754 117.166 43.4667 117.244L56.8804 122.698C56.9299 122.719 56.9864 122.695 57.0073 122.646C57.0283 122.597 57.0061 122.54 56.9575 122.518Z" fill="url(#paint89_linear_3124_4442)"/>
<circle cx="1.23688" cy="1.23688" r="1.23688" transform="matrix(-0.392495 0.919754 0.919754 0.392495 42.6641 115.156)" fill="url(#paint90_radial_3124_4442)"/>
<path d="M62.5878 124.648L54.454 122.299C54.3377 122.266 54.2166 122.334 54.1853 122.451C54.1542 122.568 54.2248 122.687 54.3419 122.717L62.5581 124.759C62.5884 124.766 62.6192 124.748 62.6272 124.718C62.6353 124.688 62.6177 124.657 62.5878 124.648Z" fill="url(#paint91_linear_3124_4442)"/>
<circle cx="0.723169" cy="0.723169" r="0.723169" transform="matrix(-0.257828 0.966191 0.966191 0.257828 53.6797 121.57)" fill="url(#paint92_radial_3124_4442)"/>
<path d="M65.8007 126.522L73.7691 135.2C73.883 135.324 74.0766 135.33 74.1983 135.214C74.3197 135.098 74.3223 134.904 74.2041 134.785L65.916 126.412C65.8854 126.381 65.8357 126.38 65.8043 126.41C65.773 126.44 65.7714 126.49 65.8007 126.522Z" fill="url(#paint93_linear_3124_4442)"/>
<circle cx="1.00637" cy="1.00637" r="1.00637" transform="matrix(0.722669 -0.691194 -0.691194 -0.722669 74.125 136.605)" fill="url(#paint94_radial_3124_4442)"/>
<path d="M67.5947 119.92L74.6369 107.941C74.7376 107.77 74.678 107.549 74.5047 107.452C74.3319 107.355 74.1131 107.419 74.0192 107.593L67.431 119.828C67.4067 119.873 67.423 119.929 67.4678 119.954C67.5124 119.979 67.5688 119.964 67.5947 119.92Z" fill="url(#paint95_linear_3124_4442)"/>
<circle cx="1.18694" cy="1.18694" r="1.18694" transform="matrix(-0.872204 -0.489142 -0.489142 0.872204 76.0859 107.039)" fill="url(#paint96_radial_3124_4442)"/>
<path d="M63.6781 132.014L61.7152 145.771C61.6871 145.967 61.8261 146.149 62.0232 146.173C62.2199 146.197 62.3981 146.055 62.4188 145.858L63.8646 132.037C63.8699 131.986 63.8334 131.941 63.7825 131.934C63.7317 131.928 63.6853 131.964 63.6781 132.014Z" fill="url(#paint97_linear_3124_4442)"/>
<circle cx="1.18694" cy="1.18694" r="1.18694" transform="matrix(0.992643 0.121081 0.121081 -0.992643 60.7031 147.156)" fill="url(#paint98_radial_3124_4442)"/>
<path d="M64.2311 125.487L74.2622 115.871C74.4056 115.734 74.4081 115.506 74.2678 115.365C74.1278 115.225 73.9 115.227 73.7621 115.369L64.0985 125.354C64.0628 125.391 64.0633 125.45 64.0995 125.486C64.1357 125.522 64.1941 125.523 64.2311 125.487Z" fill="url(#paint99_linear_3124_4442)"/>
<circle cx="1.18694" cy="1.18694" r="1.18694" transform="matrix(-0.706553 -0.70766 -0.70766 0.706553 75.9219 115.395)" fill="url(#paint100_radial_3124_4442)"/>
<path d="M64.6236 125.596L58.998 138.302C58.9176 138.484 59.0021 138.696 59.1853 138.773C59.3681 138.849 59.5782 138.761 59.6516 138.577L64.7968 125.669C64.8158 125.621 64.7931 125.567 64.7458 125.547C64.6986 125.528 64.6443 125.549 64.6236 125.596Z" fill="url(#paint101_linear_3124_4442)"/>
<circle cx="1.18694" cy="1.18694" r="1.18694" transform="matrix(0.922436 0.38615 0.38615 -0.922436 57.6562 139.363)" fill="url(#paint102_radial_3124_4442)"/>
<path d="M66.4435 123.883L72.7651 120.407C72.8554 120.357 72.8874 120.243 72.8358 120.154C72.7844 120.065 72.6699 120.035 72.5817 120.088L66.3949 123.799C66.3721 123.813 66.3644 123.842 66.3777 123.865C66.391 123.888 66.4202 123.896 66.4435 123.883Z" fill="url(#paint103_linear_3124_4442)"/>
<circle cx="0.616252" cy="0.616252" r="0.616252" transform="matrix(-0.499621 -0.866244 -0.866244 0.499621 73.6562 120.391)" fill="url(#paint104_radial_3124_4442)"/>
<path d="M69.3359 123.524L84.7395 116.968C84.9597 116.874 85.06 116.618 84.9618 116.399C84.8638 116.182 84.6064 116.086 84.3904 116.188L69.2433 123.317C69.1874 123.344 69.1629 123.41 69.1883 123.466C69.2136 123.522 69.2792 123.548 69.3359 123.524Z" fill="url(#paint105_linear_3124_4442)"/>
<circle cx="1.42999" cy="1.42999" r="1.42999" transform="matrix(-0.410286 -0.911957 -0.911957 0.410286 86.8125 117.141)" fill="url(#paint106_radial_3124_4442)"/>
<path d="M69.5141 123.891L83.0842 120.712C83.2781 120.666 83.3969 120.47 83.3475 120.277C83.2983 120.085 83.1007 119.97 82.909 120.023L69.4676 123.708C69.418 123.722 69.3885 123.772 69.4012 123.822C69.414 123.872 69.4641 123.902 69.5141 123.891Z" fill="url(#paint107_linear_3124_4442)"/>
<circle cx="1.19052" cy="1.19052" r="1.19052" transform="matrix(-0.247856 -0.968797 -0.968797 0.247856 84.75 121.152)" fill="url(#paint108_radial_3124_4442)"/>
<path d="M64.3835 125.598L77.8067 125.632C77.9986 125.632 78.1534 125.475 78.15 125.283C78.1466 125.092 77.9869 124.94 77.7956 124.947L64.3805 125.417C64.331 125.418 64.2921 125.459 64.2929 125.509C64.2938 125.558 64.3341 125.598 64.3835 125.598Z" fill="url(#paint109_linear_3124_4442)"/>
<circle cx="1.1466" cy="1.1466" r="1.1466" transform="matrix(-0.0178398 -0.999841 -0.999841 0.0178398 79.2734 126.418)" fill="url(#paint110_radial_3124_4442)"/>
<path d="M65.1524 125.932L84.3364 134.134C84.6106 134.251 84.9277 134.12 85.0393 133.844C85.1507 133.568 85.0143 133.254 84.7365 133.148L65.2585 125.67C65.1866 125.643 65.1059 125.678 65.077 125.749C65.0483 125.821 65.0818 125.902 65.1524 125.932Z" fill="url(#paint111_linear_3124_4442)"/>
<circle cx="1.78216" cy="1.78216" r="1.78216" transform="matrix(0.374329 -0.927296 -0.927296 -0.374329 85.9531 136.137)" fill="url(#paint112_radial_3124_4442)"/>
<path d="M67.7879 127.123L80.6342 135.196C80.8179 135.311 81.0605 135.253 81.1721 135.068C81.2835 134.882 81.2212 134.641 81.0338 134.533L67.8938 126.947C67.8453 126.919 67.7834 126.935 67.7546 126.983C67.7258 127.031 67.7406 127.093 67.7879 127.123Z" fill="url(#paint113_linear_3124_4442)"/>
<circle cx="1.29603" cy="1.29603" r="1.29603" transform="matrix(0.514763 -0.857333 -0.857333 -0.514763 81.5703 136.82)" fill="url(#paint114_radial_3124_4442)"/>
<path d="M66.9095 126.027L73.5459 127.885C73.6408 127.912 73.739 127.855 73.7636 127.76C73.7882 127.665 73.73 127.568 73.6344 127.545L66.9329 125.936C66.9082 125.931 66.8833 125.946 66.8769 125.97C66.8706 125.995 66.885 126.02 66.9095 126.027Z" fill="url(#paint115_linear_3124_4442)"/>
<circle cx="0.588689" cy="0.588689" r="0.588689" transform="matrix(0.250015 -0.968242 -0.968242 -0.250015 74.1719 128.469)" fill="url(#paint116_radial_3124_4442)"/>
<g filter="url(#filter1_d_3124_4442)">
<path d="M184.519 164.412C184.604 163.863 185.396 163.863 185.481 164.412L186.079 168.262C186.372 170.149 187.851 171.628 189.738 171.921L193.588 172.519C194.137 172.604 194.137 173.396 193.588 173.481L189.738 174.079C187.851 174.372 186.372 175.851 186.079 177.738L185.481 181.588C185.396 182.137 184.604 182.137 184.519 181.588L183.921 177.738C183.628 175.851 182.149 174.372 180.262 174.079L176.412 173.481C175.863 173.396 175.863 172.604 176.412 172.519L180.262 171.921C182.149 171.628 183.628 170.149 183.921 168.262L184.519 164.412Z" fill="url(#paint117_linear_3124_4442)"/>
</g>
<g filter="url(#filter2_d_3124_4442)">
<path d="M89.6257 63.3207C89.6921 62.8931 90.308 62.8931 90.3743 63.3207L90.839 66.315C91.0667 67.7822 92.2178 68.9333 93.685 69.161L96.6793 69.6257C97.1069 69.692 97.1069 70.308 96.6793 70.3743L93.685 70.839C92.2178 71.0667 91.0667 72.2178 90.839 73.685L90.3743 76.6793C90.308 77.1069 89.6921 77.1069 89.6257 76.6793L89.161 73.685C88.9333 72.2178 87.7822 71.0667 86.315 70.839L83.3207 70.3743C82.8931 70.308 82.8931 69.6921 83.3207 69.6257L86.315 69.161C87.7822 68.9333 88.9333 67.7822 89.161 66.315L89.6257 63.3207Z" fill="url(#paint118_linear_3124_4442)"/>
</g>
<rect width="27.3083" height="26.8908" rx="5.74105" transform="matrix(0.866025 0.5 -0.866025 0.5 72.3516 214.633)" fill="#7D97C2"/>
<mask id="path-143-outside-1_3124_4442" maskUnits="userSpaceOnUse" x="70.4062" y="225.828" width="5" height="4" fill="black">
<rect fill="white" x="70.4062" y="225.828" width="5" height="4"/>
<path d="M71.4069 227.855C71.407 227.82 71.4235 227.788 71.4513 227.768C72.231 227.207 73.2826 227.207 74.0622 227.768C74.0903 227.788 74.1068 227.821 74.1067 227.855L74.1063 227.932C74.1062 227.973 74.0934 228.012 74.07 228.045C73.4263 228.946 72.0865 228.947 71.4429 228.046C71.4191 228.012 71.4063 227.972 71.4065 227.932L71.4069 227.855Z"/>
</mask>
<path d="M71.4069 227.855C71.407 227.82 71.4235 227.788 71.4513 227.768C72.231 227.207 73.2826 227.207 74.0622 227.768C74.0903 227.788 74.1068 227.821 74.1067 227.855L74.1063 227.932C74.1062 227.973 74.0934 228.012 74.07 228.045C73.4263 228.946 72.0865 228.947 71.4429 228.046C71.4191 228.012 71.4063 227.972 71.4065 227.932L71.4069 227.855Z" fill="url(#paint119_linear_3124_4442)"/>
<path d="M71.4065 227.932L70.5939 227.928L71.4065 227.932ZM74.1063 227.932L74.9189 227.936L74.1063 227.932ZM74.1067 227.855L73.2941 227.852L74.1067 227.855ZM73.2941 227.852L73.2937 227.929L74.9189 227.936L74.9193 227.859L73.2941 227.852ZM72.2191 227.935L72.2195 227.858L70.5943 227.851L70.5939 227.928L72.2191 227.935ZM71.9261 228.428C72.4223 228.07 73.0916 228.07 73.5874 228.427L74.5371 227.108C73.4736 226.343 72.0396 226.343 70.9765 227.109L71.9261 228.428ZM73.4087 227.573C73.0887 228.021 72.4233 228.02 72.1041 227.574L70.7816 228.518C71.7498 229.874 73.7639 229.872 74.7312 228.517L73.4087 227.573ZM70.5939 227.928C70.593 228.14 70.6587 228.346 70.7816 228.518L72.1041 227.574C72.1795 227.679 72.2197 227.805 72.2191 227.935L70.5939 227.928ZM73.2937 227.929C73.2943 227.801 73.3345 227.677 73.4087 227.573L74.7312 228.517C74.8524 228.348 74.918 228.145 74.9189 227.936L73.2937 227.929ZM74.9193 227.859C74.9206 227.561 74.7782 227.282 74.5371 227.108L73.5874 228.427C73.4024 228.294 73.2931 228.08 73.2941 227.852L74.9193 227.859ZM72.2195 227.858C72.2185 228.084 72.1093 228.296 71.9261 228.428L70.9765 227.109C70.7378 227.281 70.5955 227.557 70.5943 227.851L72.2195 227.858Z" fill="#031A30" mask="url(#path-143-outside-1_3124_4442)"/>
<path d="M71.4062 205.855H74.1061V227.994C73.4445 228.92 72.0679 228.92 71.4062 227.994V205.855Z" fill="url(#paint120_linear_3124_4442)"/>
<path d="M71.4062 205.855H74.1061V227.994C73.4445 228.92 72.0679 228.92 71.4062 227.994V205.855Z" fill="url(#paint121_linear_3124_4442)"/>
<path d="M85.2219 212.823C85.2219 217.893 78.0883 221.031 73.0187 221.031C67.949 221.031 60.4375 216.921 60.4375 211.852C60.4375 206.782 67.949 174 73.0187 174C78.0883 174 85.2219 207.754 85.2219 212.823Z" fill="url(#paint122_radial_3124_4442)"/>
<rect width="27.3083" height="26.8908" rx="5.74105" transform="matrix(0.866025 0.5 -0.866025 0.5 38.2891 195.375)" fill="#7D97C2"/>
<mask id="path-148-outside-2_3124_4442" maskUnits="userSpaceOnUse" x="36.5938" y="206.855" width="5" height="4" fill="black">
<rect fill="white" x="36.5938" y="206.855" width="5" height="4"/>
<path d="M37.5943 208.714C37.5944 208.685 37.6082 208.658 37.6314 208.641C38.2833 208.172 39.1625 208.172 39.8143 208.641C39.8378 208.658 39.8516 208.685 39.8515 208.714L39.8512 208.779C39.8511 208.813 39.8404 208.845 39.8208 208.873C39.2826 209.626 38.1625 209.627 37.6244 208.874C37.6045 208.846 37.5938 208.812 37.594 208.778L37.5943 208.714Z"/>
</mask>
<path d="M37.5943 208.714C37.5944 208.685 37.6082 208.658 37.6314 208.641C38.2833 208.172 39.1625 208.172 39.8143 208.641C39.8378 208.658 39.8516 208.685 39.8515 208.714L39.8512 208.779C39.8511 208.813 39.8404 208.845 39.8208 208.873C39.2826 209.626 38.1625 209.627 37.6244 208.874C37.6045 208.846 37.5938 208.812 37.594 208.778L37.5943 208.714Z" fill="url(#paint123_linear_3124_4442)"/>
<path d="M39.8512 208.779L39.0386 208.775L39.8512 208.779ZM39.8515 208.714L40.6641 208.718L39.8515 208.714ZM39.0389 208.711L39.0386 208.775L40.6638 208.782L40.6641 208.718L39.0389 208.711ZM38.4066 208.781L38.4069 208.717L36.7817 208.71L36.7814 208.774L38.4066 208.781ZM38.1062 209.301C38.4746 209.036 38.9715 209.036 39.3395 209.301L40.2891 207.982C39.3535 207.308 38.0919 207.309 37.1566 207.982L38.1062 209.301ZM39.1595 208.401C38.9451 208.701 38.4993 208.7 38.2856 208.401L36.9631 209.346C37.8257 210.554 39.6202 210.552 40.482 209.345L39.1595 208.401ZM36.7814 208.774C36.7805 208.979 36.8441 209.179 36.9631 209.346L38.2856 208.401C38.3648 208.512 38.4072 208.645 38.4066 208.781L36.7814 208.774ZM39.0386 208.775C39.0392 208.641 39.0815 208.51 39.1595 208.401L40.482 209.345C40.5993 209.181 40.6629 208.984 40.6638 208.782L39.0386 208.775ZM40.6641 208.718C40.6653 208.426 40.5257 208.152 40.2891 207.982L39.3395 209.301C39.1499 209.164 39.0379 208.944 39.0389 208.711L40.6641 208.718ZM38.4069 208.717C38.4058 208.949 38.294 209.166 38.1062 209.301L37.1566 207.982C36.9224 208.151 36.7829 208.421 36.7817 208.71L38.4069 208.717Z" fill="#031A30" mask="url(#path-148-outside-2_3124_4442)"/>
<path d="M37.5938 190.32H39.851V208.83C39.2978 209.604 38.1469 209.604 37.5938 208.83V190.32Z" fill="url(#paint124_linear_3124_4442)"/>
<path d="M37.5938 190.32H39.851V208.83C39.2978 209.604 38.1469 209.604 37.5938 208.83V190.32Z" fill="url(#paint125_linear_3124_4442)"/>
<circle cx="38.9402" cy="191.675" r="7.67458" fill="url(#paint126_radial_3124_4442)"/>
<rect width="27.3083" height="26.8908" rx="5.74105" transform="matrix(0.866025 0.5 -0.866025 0.5 256.289 197.375)" fill="#7D97C2"/>
<mask id="path-153-outside-3_3124_4442" maskUnits="userSpaceOnUse" x="254.594" y="208.855" width="5" height="4" fill="black">
<rect fill="white" x="254.594" y="208.855" width="5" height="4"/>
<path d="M255.594 210.714C255.594 210.685 255.608 210.658 255.631 210.641C256.283 210.172 257.163 210.172 257.814 210.641C257.838 210.658 257.852 210.685 257.851 210.714L257.851 210.779C257.851 210.813 257.84 210.845 257.821 210.873C257.283 211.626 256.163 211.627 255.624 210.874C255.604 210.846 255.594 210.812 255.594 210.778L255.594 210.714Z"/>
</mask>
<path d="M255.594 210.714C255.594 210.685 255.608 210.658 255.631 210.641C256.283 210.172 257.163 210.172 257.814 210.641C257.838 210.658 257.852 210.685 257.851 210.714L257.851 210.779C257.851 210.813 257.84 210.845 257.821 210.873C257.283 211.626 256.163 211.627 255.624 210.874C255.604 210.846 255.594 210.812 255.594 210.778L255.594 210.714Z" fill="url(#paint127_linear_3124_4442)"/>
<path d="M257.851 210.779L257.039 210.775L257.851 210.779ZM257.851 210.714L258.664 210.718L257.851 210.714ZM257.039 210.711L257.039 210.775L258.664 210.782L258.664 210.718L257.039 210.711ZM256.407 210.781L256.407 210.717L254.782 210.71L254.781 210.774L256.407 210.781ZM256.106 211.301C256.475 211.036 256.972 211.036 257.34 211.301L258.289 209.982C257.354 209.308 256.092 209.309 255.157 209.982L256.106 211.301ZM257.16 210.401C256.945 210.701 256.499 210.7 256.286 210.401L254.963 211.346C255.826 212.554 257.62 212.552 258.482 211.345L257.16 210.401ZM254.781 210.774C254.78 210.979 254.844 211.179 254.963 211.346L256.286 210.401C256.365 210.512 256.407 210.645 256.407 210.781L254.781 210.774ZM257.039 210.775C257.039 210.641 257.081 210.51 257.16 210.401L258.482 211.345C258.599 211.181 258.663 210.984 258.664 210.782L257.039 210.775ZM258.664 210.718C258.665 210.426 258.526 210.152 258.289 209.982L257.34 211.301C257.15 211.164 257.038 210.944 257.039 210.711L258.664 210.718ZM256.407 210.717C256.406 210.949 256.294 211.166 256.106 211.301L255.157 209.982C254.922 210.151 254.783 210.421 254.782 210.71L256.407 210.717Z" fill="#031A30" mask="url(#path-153-outside-3_3124_4442)"/>
<path d="M255.594 192.32H257.851V210.83C257.298 211.604 256.147 211.604 255.594 210.83V192.32Z" fill="url(#paint128_linear_3124_4442)"/>
<path d="M255.594 192.32H257.851V210.83C257.298 211.604 256.147 211.604 255.594 210.83V192.32Z" fill="url(#paint129_linear_3124_4442)"/>
<circle cx="256.94" cy="193.675" r="7.67458" fill="url(#paint130_radial_3124_4442)"/>
<rect width="27.3083" height="26.8908" rx="5.74105" transform="matrix(0.866025 0.5 -0.866025 0.5 226.352 216.633)" fill="#7D97C2"/>
<mask id="path-158-outside-4_3124_4442" maskUnits="userSpaceOnUse" x="224.406" y="227.828" width="5" height="4" fill="black">
<rect fill="white" x="224.406" y="227.828" width="5" height="4"/>
<path d="M225.407 229.855C225.407 229.82 225.424 229.788 225.451 229.768C226.231 229.207 227.283 229.207 228.062 229.768C228.09 229.788 228.107 229.821 228.107 229.855L228.106 229.932C228.106 229.973 228.093 230.012 228.07 230.045C227.426 230.946 226.087 230.947 225.443 230.046C225.419 230.012 225.406 229.972 225.407 229.932L225.407 229.855Z"/>
</mask>
<path d="M225.407 229.855C225.407 229.82 225.424 229.788 225.451 229.768C226.231 229.207 227.283 229.207 228.062 229.768C228.09 229.788 228.107 229.821 228.107 229.855L228.106 229.932C228.106 229.973 228.093 230.012 228.07 230.045C227.426 230.946 226.087 230.947 225.443 230.046C225.419 230.012 225.406 229.972 225.407 229.932L225.407 229.855Z" fill="url(#paint131_linear_3124_4442)"/>
<path d="M225.407 229.932L224.594 229.928L225.407 229.932ZM228.106 229.932L228.919 229.936L228.106 229.932ZM228.107 229.855L227.294 229.852L228.107 229.855ZM227.294 229.852L227.294 229.929L228.919 229.936L228.919 229.859L227.294 229.852ZM226.219 229.935L226.219 229.858L224.594 229.851L224.594 229.928L226.219 229.935ZM225.926 230.428C226.422 230.07 227.092 230.07 227.587 230.427L228.537 229.108C227.474 228.343 226.04 228.343 224.977 229.109L225.926 230.428ZM227.409 229.573C227.089 230.021 226.423 230.02 226.104 229.574L224.782 230.518C225.75 231.874 227.764 231.872 228.731 230.517L227.409 229.573ZM224.594 229.928C224.593 230.14 224.659 230.346 224.782 230.518L226.104 229.574C226.179 229.679 226.22 229.805 226.219 229.935L224.594 229.928ZM227.294 229.929C227.294 229.801 227.335 229.677 227.409 229.573L228.731 230.517C228.852 230.348 228.918 230.145 228.919 229.936L227.294 229.929ZM228.919 229.859C228.921 229.561 228.778 229.282 228.537 229.108L227.587 230.427C227.402 230.294 227.293 230.08 227.294 229.852L228.919 229.859ZM226.219 229.858C226.218 230.084 226.109 230.296 225.926 230.428L224.977 229.109C224.738 229.281 224.596 229.557 224.594 229.851L226.219 229.858Z" fill="#031A30" mask="url(#path-158-outside-4_3124_4442)"/>
<path d="M225.406 207.855H228.106V229.994C227.444 230.92 226.068 230.92 225.406 229.994V207.855Z" fill="url(#paint132_linear_3124_4442)"/>
<path d="M225.406 207.855H228.106V229.994C227.444 230.92 226.068 230.92 225.406 229.994V207.855Z" fill="url(#paint133_linear_3124_4442)"/>
<path d="M239.222 214.823C239.222 219.893 232.088 223.031 227.019 223.031C221.949 223.031 214.438 218.921 214.438 213.852C214.438 208.782 221.949 176 227.019 176C232.088 176 239.222 209.754 239.222 214.823Z" fill="url(#paint134_radial_3124_4442)"/>
<defs>
<filter id="filter0_d_3124_4442" x="193" y="79" width="52" height="52" filterUnits="userSpaceOnUse" color-interpolation-filters="sRGB">
<feFlood flood-opacity="0" result="BackgroundImageFix"/>
<feColorMatrix in="SourceAlpha" type="matrix" values="0 0 0 0 0 0 0 0 0 0 0 0 0 0 0 0 0 0 127 0" result="hardAlpha"/>
<feOffset/>
<feGaussianBlur stdDeviation="10"/>
<feComposite in2="hardAlpha" operator="out"/>
<feColorMatrix type="matrix" values="0 0 0 0 1 0 0 0 0 1 0 0 0 0 1 0 0 0 1 0"/>
<feBlend mode="normal" in2="BackgroundImageFix" result="effect1_dropShadow_3124_4442"/>
<feBlend mode="normal" in="SourceGraphic" in2="effect1_dropShadow_3124_4442" result="shape"/>
</filter>
<filter id="filter1_d_3124_4442" x="156" y="144" width="58" height="58" filterUnits="userSpaceOnUse" color-interpolation-filters="sRGB">
<feFlood flood-opacity="0" result="BackgroundImageFix"/>
<feColorMatrix in="SourceAlpha" type="matrix" values="0 0 0 0 0 0 0 0 0 0 0 0 0 0 0 0 0 0 127 0" result="hardAlpha"/>
<feOffset/>
<feGaussianBlur stdDeviation="10"/>
<feComposite in2="hardAlpha" operator="out"/>
<feColorMatrix type="matrix" values="0 0 0 0 1 0 0 0 0 1 0 0 0 0 1 0 0 0 1 0"/>
<feBlend mode="normal" in2="BackgroundImageFix" result="effect1_dropShadow_3124_4442"/>
<feBlend mode="normal" in="SourceGraphic" in2="effect1_dropShadow_3124_4442" result="shape"/>
</filter>
<filter id="filter2_d_3124_4442" x="63" y="43" width="54" height="54" filterUnits="userSpaceOnUse" color-interpolation-filters="sRGB">
<feFlood flood-opacity="0" result="BackgroundImageFix"/>
<feColorMatrix in="SourceAlpha" type="matrix" values="0 0 0 0 0 0 0 0 0 0 0 0 0 0 0 0 0 0 127 0" result="hardAlpha"/>
<feOffset/>
<feGaussianBlur stdDeviation="10"/>
<feComposite in2="hardAlpha" operator="out"/>
<feColorMatrix type="matrix" values="0 0 0 0 1 0 0 0 0 1 0 0 0 0 1 0 0 0 1 0"/>
<feBlend mode="normal" in2="BackgroundImageFix" result="effect1_dropShadow_3124_4442"/>
<feBlend mode="normal" in="SourceGraphic" in2="effect1_dropShadow_3124_4442" result="shape"/>
</filter>
<linearGradient id="paint0_linear_3124_4442" x1="218.999" y1="99.3171" x2="218.999" y2="112.791" gradientUnits="userSpaceOnUse">
<stop stop-color="white"/>
<stop offset="0.869293" stop-color="white"/>
</linearGradient>
<linearGradient id="paint1_linear_3124_4442" x1="242.272" y1="33.4135" x2="230.065" y2="63.5395" gradientUnits="userSpaceOnUse">
<stop offset="0.0504271" stop-color="#0F81F0"/>
<stop offset="0.448862" stop-color="#0F81F0"/>
<stop offset="1" stop-color="#0F81F0" stop-opacity="0"/>
</linearGradient>
<radialGradient id="paint2_radial_3124_4442" cx="0" cy="0" r="1" gradientUnits="userSpaceOnUse" gradientTransform="translate(2.69902 2.69902) rotate(90) scale(2.69902)">
<stop offset="0.389396" stop-color="#0F81F0"/>
<stop offset="1" stop-color="white" stop-opacity="0"/>
</radialGradient>
<linearGradient id="paint3_linear_3124_4442" x1="228.728" y1="107.2" x2="228.573" y2="74.6955" gradientUnits="userSpaceOnUse">
<stop offset="0.0504271" stop-color="#0F81F0"/>
<stop offset="0.448862" stop-color="#0F81F0"/>
<stop offset="1" stop-color="#0F81F0" stop-opacity="0"/>
</linearGradient>
<radialGradient id="paint4_radial_3124_4442" cx="0" cy="0" r="1" gradientUnits="userSpaceOnUse" gradientTransform="translate(2.69902 2.69902) rotate(90) scale(2.69902)">
<stop offset="0.389396" stop-color="#0F81F0"/>
<stop offset="1" stop-color="white" stop-opacity="0"/>
</radialGradient>
<linearGradient id="paint5_linear_3124_4442" x1="231.28" y1="54.052" x2="228.178" y2="69.8956" gradientUnits="userSpaceOnUse">
<stop offset="0.0504271" stop-color="#0F81F0"/>
<stop offset="0.448862" stop-color="#0F81F0"/>
<stop offset="1" stop-color="#0F81F0" stop-opacity="0"/>
</linearGradient>
<radialGradient id="paint6_radial_3124_4442" cx="0" cy="0" r="1" gradientUnits="userSpaceOnUse" gradientTransform="translate(1.34053 1.34053) rotate(90) scale(1.34053)">
<stop offset="0.389396" stop-color="#0F81F0"/>
<stop offset="1" stop-color="white" stop-opacity="0"/>
</radialGradient>
<linearGradient id="paint7_linear_3124_4442" x1="231.041" y1="83.9463" x2="227.891" y2="68.1122" gradientUnits="userSpaceOnUse">
<stop offset="0.0504271" stop-color="#0F81F0"/>
<stop offset="0.448862" stop-color="#0F81F0"/>
<stop offset="1" stop-color="#0F81F0" stop-opacity="0"/>
</linearGradient>
<radialGradient id="paint8_radial_3124_4442" cx="0" cy="0" r="1" gradientUnits="userSpaceOnUse" gradientTransform="translate(1.34053 1.34053) rotate(90) scale(1.34053)">
<stop offset="0.389396" stop-color="#0F81F0"/>
<stop offset="1" stop-color="white" stop-opacity="0"/>
</radialGradient>
<linearGradient id="paint9_linear_3124_4442" x1="227.778" y1="48.5156" x2="227.921" y2="72.1432" gradientUnits="userSpaceOnUse">
<stop offset="0.0504271" stop-color="#0F81F0"/>
<stop offset="0.448862" stop-color="#0F81F0"/>
<stop offset="1" stop-color="#0F81F0" stop-opacity="0"/>
</linearGradient>
<radialGradient id="paint10_radial_3124_4442" cx="0" cy="0" r="1" gradientUnits="userSpaceOnUse" gradientTransform="translate(1.96193 1.96193) rotate(90) scale(1.96193)">
<stop offset="0.389396" stop-color="#0F81F0"/>
<stop offset="1" stop-color="white" stop-opacity="0"/>
</radialGradient>
<linearGradient id="paint11_linear_3124_4442" x1="205.303" y1="67.869" x2="228.736" y2="70.8988" gradientUnits="userSpaceOnUse">
<stop offset="0.0504271" stop-color="#0F81F0"/>
<stop offset="0.448862" stop-color="#0F81F0"/>
<stop offset="1" stop-color="#0F81F0" stop-opacity="0"/>
</linearGradient>
<radialGradient id="paint12_radial_3124_4442" cx="0" cy="0" r="1" gradientUnits="userSpaceOnUse" gradientTransform="translate(1.96193 1.96193) rotate(90) scale(1.96193)">
<stop offset="0.389396" stop-color="#0F81F0"/>
<stop offset="1" stop-color="white" stop-opacity="0"/>
</radialGradient>
<linearGradient id="paint13_linear_3124_4442" x1="220.376" y1="40.2913" x2="226.63" y2="63.0767" gradientUnits="userSpaceOnUse">
<stop offset="0.0504271" stop-color="#0F81F0"/>
<stop offset="0.448862" stop-color="#0F81F0"/>
<stop offset="1" stop-color="#0F81F0" stop-opacity="0"/>
</linearGradient>
<radialGradient id="paint14_radial_3124_4442" cx="0" cy="0" r="1" gradientUnits="userSpaceOnUse" gradientTransform="translate(1.96193 1.96193) rotate(90) scale(1.96193)">
<stop offset="0.389396" stop-color="#0F81F0"/>
<stop offset="1" stop-color="white" stop-opacity="0"/>
</radialGradient>
<linearGradient id="paint15_linear_3124_4442" x1="196.162" y1="74.1743" x2="219.58" y2="71.036" gradientUnits="userSpaceOnUse">
<stop offset="0.0504271" stop-color="#0F81F0"/>
<stop offset="0.448862" stop-color="#0F81F0"/>
<stop offset="1" stop-color="#0F81F0" stop-opacity="0"/>
</linearGradient>
<radialGradient id="paint16_radial_3124_4442" cx="0" cy="0" r="1" gradientUnits="userSpaceOnUse" gradientTransform="translate(1.96193 1.96193) rotate(90) scale(1.96193)">
<stop offset="0.389396" stop-color="#0F81F0"/>
<stop offset="1" stop-color="white" stop-opacity="0"/>
</radialGradient>
<linearGradient id="paint17_linear_3124_4442" x1="213.713" y1="35.5507" x2="223.903" y2="59.506" gradientUnits="userSpaceOnUse">
<stop offset="0.0504271" stop-color="#0F81F0"/>
<stop offset="0.448862" stop-color="#0F81F0"/>
<stop offset="1" stop-color="#0F81F0" stop-opacity="0"/>
</linearGradient>
<radialGradient id="paint18_radial_3124_4442" cx="0" cy="0" r="1" gradientUnits="userSpaceOnUse" gradientTransform="translate(2.16156 2.16156) rotate(90) scale(2.16156)">
<stop offset="0.389396" stop-color="#0F81F0"/>
<stop offset="1" stop-color="white" stop-opacity="0"/>
</radialGradient>
<linearGradient id="paint19_linear_3124_4442" x1="190.561" y1="80.0808" x2="215.667" y2="73.1995" gradientUnits="userSpaceOnUse">
<stop offset="0.0504271" stop-color="#0F81F0"/>
<stop offset="0.448862" stop-color="#0F81F0"/>
<stop offset="1" stop-color="#0F81F0" stop-opacity="0"/>
</linearGradient>
<radialGradient id="paint20_radial_3124_4442" cx="0" cy="0" r="1" gradientUnits="userSpaceOnUse" gradientTransform="translate(2.16156 2.16156) rotate(90) scale(2.16156)">
<stop offset="0.389396" stop-color="#0F81F0"/>
<stop offset="1" stop-color="white" stop-opacity="0"/>
</radialGradient>
<linearGradient id="paint21_linear_3124_4442" x1="220.004" y1="55.8389" x2="228.562" y2="71.0714" gradientUnits="userSpaceOnUse">
<stop offset="0.0504271" stop-color="#0F81F0"/>
<stop offset="0.448862" stop-color="#0F81F0"/>
<stop offset="1" stop-color="#0F81F0" stop-opacity="0"/>
</linearGradient>
<radialGradient id="paint22_radial_3124_4442" cx="0" cy="0" r="1" gradientUnits="userSpaceOnUse" gradientTransform="translate(1.45073 1.45073) rotate(90) scale(1.45073)">
<stop offset="0.389396" stop-color="#0F81F0"/>
<stop offset="1" stop-color="white" stop-opacity="0"/>
</radialGradient>
<linearGradient id="paint23_linear_3124_4442" x1="211.52" y1="76.5872" x2="227.763" y2="70.1521" gradientUnits="userSpaceOnUse">
<stop offset="0.0504271" stop-color="#0F81F0"/>
<stop offset="0.448862" stop-color="#0F81F0"/>
<stop offset="1" stop-color="#0F81F0" stop-opacity="0"/>
</linearGradient>
<radialGradient id="paint24_radial_3124_4442" cx="0" cy="0" r="1" gradientUnits="userSpaceOnUse" gradientTransform="translate(1.45073 1.45073) rotate(90) scale(1.45073)">
<stop offset="0.389396" stop-color="#0F81F0"/>
<stop offset="1" stop-color="white" stop-opacity="0"/>
</radialGradient>
<linearGradient id="paint25_linear_3124_4442" x1="213.774" y1="54.9001" x2="227.366" y2="67.4603" gradientUnits="userSpaceOnUse">
<stop offset="0.0504271" stop-color="#0F81F0"/>
<stop offset="0.448862" stop-color="#0F81F0"/>
<stop offset="1" stop-color="#0F81F0" stop-opacity="0"/>
</linearGradient>
<radialGradient id="paint26_radial_3124_4442" cx="0" cy="0" r="1" gradientUnits="userSpaceOnUse" gradientTransform="translate(1.53666 1.53666) rotate(90) scale(1.53666)">
<stop offset="0.389396" stop-color="#0F81F0"/>
<stop offset="1" stop-color="white" stop-opacity="0"/>
</radialGradient>
<linearGradient id="paint27_linear_3124_4442" x1="209.671" y1="82.6671" x2="223.942" y2="70.8845" gradientUnits="userSpaceOnUse">
<stop offset="0.0504271" stop-color="#0F81F0"/>
<stop offset="0.448862" stop-color="#0F81F0"/>
<stop offset="1" stop-color="#0F81F0" stop-opacity="0"/>
</linearGradient>
<radialGradient id="paint28_radial_3124_4442" cx="0" cy="0" r="1" gradientUnits="userSpaceOnUse" gradientTransform="translate(1.53666 1.53666) rotate(90) scale(1.53666)">
<stop offset="0.389396" stop-color="#0F81F0"/>
<stop offset="1" stop-color="white" stop-opacity="0"/>
</radialGradient>
<linearGradient id="paint29_linear_3124_4442" x1="202.648" y1="53.8117" x2="221.848" y2="64.2199" gradientUnits="userSpaceOnUse">
<stop offset="0.0504271" stop-color="#0F81F0"/>
<stop offset="0.448862" stop-color="#0F81F0"/>
<stop offset="1" stop-color="#0F81F0" stop-opacity="0"/>
</linearGradient>
<radialGradient id="paint30_radial_3124_4442" cx="0" cy="0" r="1" gradientUnits="userSpaceOnUse" gradientTransform="translate(1.81343 1.81343) rotate(90) scale(1.81343)">
<stop offset="0.389396" stop-color="#0F81F0"/>
<stop offset="1" stop-color="white" stop-opacity="0"/>
</radialGradient>
<linearGradient id="paint31_linear_3124_4442" x1="197.182" y1="56.0389" x2="217.321" y2="64.489" gradientUnits="userSpaceOnUse">
<stop offset="0.0504271" stop-color="#0F81F0"/>
<stop offset="0.448862" stop-color="#0F81F0"/>
<stop offset="1" stop-color="#0F81F0" stop-opacity="0"/>
</linearGradient>
<radialGradient id="paint32_radial_3124_4442" cx="0" cy="0" r="1" gradientUnits="userSpaceOnUse" gradientTransform="translate(1.81343 1.81343) rotate(90) scale(1.81343)">
<stop offset="0.389396" stop-color="#0F81F0"/>
<stop offset="1" stop-color="white" stop-opacity="0"/>
</radialGradient>
<linearGradient id="paint33_linear_3124_4442" x1="213.198" y1="64.3821" x2="225.555" y2="67.5995" gradientUnits="userSpaceOnUse">
<stop offset="0.0504271" stop-color="#0F81F0"/>
<stop offset="0.448862" stop-color="#0F81F0"/>
<stop offset="1" stop-color="#0F81F0" stop-opacity="0"/>
</linearGradient>
<radialGradient id="paint34_radial_3124_4442" cx="0" cy="0" r="1" gradientUnits="userSpaceOnUse" gradientTransform="translate(1.06027 1.06027) rotate(90) scale(1.06027)">
<stop offset="0.389396" stop-color="#0F81F0"/>
<stop offset="1" stop-color="white" stop-opacity="0"/>
</radialGradient>
<linearGradient id="paint35_linear_3124_4442" x1="242.535" y1="83.0959" x2="230.176" y2="70.329" gradientUnits="userSpaceOnUse">
<stop offset="0.0504271" stop-color="#0F81F0"/>
<stop offset="0.448862" stop-color="#0F81F0"/>
<stop offset="1" stop-color="#0F81F0" stop-opacity="0"/>
</linearGradient>
<radialGradient id="paint36_radial_3124_4442" cx="0" cy="0" r="1" gradientUnits="userSpaceOnUse" gradientTransform="translate(1.47547 1.47547) rotate(90) scale(1.47547)">
<stop offset="0.389396" stop-color="#0F81F0"/>
<stop offset="1" stop-color="white" stop-opacity="0"/>
</radialGradient>
<linearGradient id="paint37_linear_3124_4442" x1="242.983" y1="42.3933" x2="232.843" y2="60.7348" gradientUnits="userSpaceOnUse">
<stop offset="0.0504271" stop-color="#0F81F0"/>
<stop offset="0.448862" stop-color="#0F81F0"/>
<stop offset="1" stop-color="#0F81F0" stop-opacity="0"/>
</linearGradient>
<radialGradient id="paint38_radial_3124_4442" cx="0" cy="0" r="1" gradientUnits="userSpaceOnUse" gradientTransform="translate(1.74023 1.74023) rotate(90) scale(1.74023)">
<stop offset="0.389396" stop-color="#0F81F0"/>
<stop offset="1" stop-color="white" stop-opacity="0"/>
</radialGradient>
<linearGradient id="paint39_linear_3124_4442" x1="224.69" y1="99.1618" x2="227.101" y2="78.3429" gradientUnits="userSpaceOnUse">
<stop offset="0.0504271" stop-color="#0F81F0"/>
<stop offset="0.448862" stop-color="#0F81F0"/>
<stop offset="1" stop-color="#0F81F0" stop-opacity="0"/>
</linearGradient>
<radialGradient id="paint40_radial_3124_4442" cx="0" cy="0" r="1" gradientUnits="userSpaceOnUse" gradientTransform="translate(1.74023 1.74023) rotate(90) scale(1.74023)">
<stop offset="0.389396" stop-color="#0F81F0"/>
<stop offset="1" stop-color="white" stop-opacity="0"/>
</radialGradient>
<linearGradient id="paint41_linear_3124_4442" x1="242.649" y1="53.9963" x2="227.908" y2="68.8939" gradientUnits="userSpaceOnUse">
<stop offset="0.0504271" stop-color="#0F81F0"/>
<stop offset="0.448862" stop-color="#0F81F0"/>
<stop offset="1" stop-color="#0F81F0" stop-opacity="0"/>
</linearGradient>
<radialGradient id="paint42_radial_3124_4442" cx="0" cy="0" r="1" gradientUnits="userSpaceOnUse" gradientTransform="translate(1.74023 1.74023) rotate(90) scale(1.74023)">
<stop offset="0.389396" stop-color="#0F81F0"/>
<stop offset="1" stop-color="white" stop-opacity="0"/>
</radialGradient>
<linearGradient id="paint43_linear_3124_4442" x1="220.528" y1="88.3139" x2="228.503" y2="68.9327" gradientUnits="userSpaceOnUse">
<stop offset="0.0504271" stop-color="#0F81F0"/>
<stop offset="0.448862" stop-color="#0F81F0"/>
<stop offset="1" stop-color="#0F81F0" stop-opacity="0"/>
</linearGradient>
<radialGradient id="paint44_radial_3124_4442" cx="0" cy="0" r="1" gradientUnits="userSpaceOnUse" gradientTransform="translate(1.74023 1.74023) rotate(90) scale(1.74023)">
<stop offset="0.389396" stop-color="#0F81F0"/>
<stop offset="1" stop-color="white" stop-opacity="0"/>
</radialGradient>
<linearGradient id="paint45_linear_3124_4442" x1="240.534" y1="61.0157" x2="231.142" y2="66.5092" gradientUnits="userSpaceOnUse">
<stop offset="0.0504271" stop-color="#0F81F0"/>
<stop offset="0.448862" stop-color="#0F81F0"/>
<stop offset="1" stop-color="#0F81F0" stop-opacity="0"/>
</linearGradient>
<radialGradient id="paint46_radial_3124_4442" cx="0" cy="0" r="1" gradientUnits="userSpaceOnUse" gradientTransform="translate(0.903512 0.903512) rotate(90) scale(0.903512)">
<stop offset="0.389396" stop-color="#0F81F0"/>
<stop offset="1" stop-color="white" stop-opacity="0"/>
</radialGradient>
<linearGradient id="paint47_linear_3124_4442" x1="258.309" y1="55.5158" x2="235.345" y2="66.0146" gradientUnits="userSpaceOnUse">
<stop offset="0.0504271" stop-color="#0F81F0"/>
<stop offset="0.448862" stop-color="#0F81F0"/>
<stop offset="1" stop-color="#0F81F0" stop-opacity="0"/>
</linearGradient>
<radialGradient id="paint48_radial_3124_4442" cx="0" cy="0" r="1" gradientUnits="userSpaceOnUse" gradientTransform="translate(2.09656 2.09656) rotate(90) scale(2.09656)">
<stop offset="0.389396" stop-color="#0F81F0"/>
<stop offset="1" stop-color="white" stop-opacity="0"/>
</radialGradient>
<linearGradient id="paint49_linear_3124_4442" x1="255.946" y1="61.1963" x2="235.613" y2="66.5298" gradientUnits="userSpaceOnUse">
<stop offset="0.0504271" stop-color="#0F81F0"/>
<stop offset="0.448862" stop-color="#0F81F0"/>
<stop offset="1" stop-color="#0F81F0" stop-opacity="0"/>
</linearGradient>
<radialGradient id="paint50_radial_3124_4442" cx="0" cy="0" r="1" gradientUnits="userSpaceOnUse" gradientTransform="translate(1.74547 1.74547) rotate(90) scale(1.74547)">
<stop offset="0.389396" stop-color="#0F81F0"/>
<stop offset="1" stop-color="white" stop-opacity="0"/>
</radialGradient>
<linearGradient id="paint51_linear_3124_4442" x1="248.335" y1="68.5392" x2="228.095" y2="69.0231" gradientUnits="userSpaceOnUse">
<stop offset="0.0504271" stop-color="#0F81F0"/>
<stop offset="0.448862" stop-color="#0F81F0"/>
<stop offset="1" stop-color="#0F81F0" stop-opacity="0"/>
</linearGradient>
<radialGradient id="paint52_radial_3124_4442" cx="0" cy="0" r="1" gradientUnits="userSpaceOnUse" gradientTransform="translate(1.68108 1.68108) rotate(90) scale(1.68108)">
<stop offset="0.389396" stop-color="#0F81F0"/>
<stop offset="1" stop-color="white" stop-opacity="0"/>
</radialGradient>
<linearGradient id="paint53_linear_3124_4442" x1="258.43" y1="81.0829" x2="229.18" y2="69.4806" gradientUnits="userSpaceOnUse">
<stop offset="0.0504271" stop-color="#0F81F0"/>
<stop offset="0.448862" stop-color="#0F81F0"/>
<stop offset="1" stop-color="#0F81F0" stop-opacity="0"/>
</linearGradient>
<radialGradient id="paint54_radial_3124_4442" cx="0" cy="0" r="1" gradientUnits="userSpaceOnUse" gradientTransform="translate(2.6129 2.6129) rotate(90) scale(2.6129)">
<stop offset="0.389396" stop-color="#0F81F0"/>
<stop offset="1" stop-color="white" stop-opacity="0"/>
</radialGradient>
<linearGradient id="paint55_linear_3124_4442" x1="252.759" y1="82.8831" x2="233.068" y2="71.2223" gradientUnits="userSpaceOnUse">
<stop offset="0.0504271" stop-color="#0F81F0"/>
<stop offset="0.448862" stop-color="#0F81F0"/>
<stop offset="1" stop-color="#0F81F0" stop-opacity="0"/>
</linearGradient>
<radialGradient id="paint56_radial_3124_4442" cx="0" cy="0" r="1" gradientUnits="userSpaceOnUse" gradientTransform="translate(1.90016 1.90016) rotate(90) scale(1.90016)">
<stop offset="0.389396" stop-color="#0F81F0"/>
<stop offset="1" stop-color="white" stop-opacity="0"/>
</radialGradient>
<linearGradient id="paint57_linear_3124_4442" x1="241.894" y1="72.1636" x2="231.814" y2="69.6259" gradientUnits="userSpaceOnUse">
<stop offset="0.0504271" stop-color="#0F81F0"/>
<stop offset="0.448862" stop-color="#0F81F0"/>
<stop offset="1" stop-color="#0F81F0" stop-opacity="0"/>
</linearGradient>
<radialGradient id="paint58_radial_3124_4442" cx="0" cy="0" r="1" gradientUnits="userSpaceOnUse" gradientTransform="translate(0.863101 0.863101) rotate(90) scale(0.863101)">
<stop offset="0.389396" stop-color="#0F81F0"/>
<stop offset="1" stop-color="white" stop-opacity="0"/>
</radialGradient>
<linearGradient id="paint59_linear_3124_4442" x1="74.0211" y1="101.326" x2="65.6953" y2="121.873" gradientUnits="userSpaceOnUse">
<stop offset="0.0504271" stop-color="#0F81F0"/>
<stop offset="0.448862" stop-color="#0F81F0"/>
<stop offset="1" stop-color="#0F81F0" stop-opacity="0"/>
</linearGradient>
<radialGradient id="paint60_radial_3124_4442" cx="0" cy="0" r="1" gradientUnits="userSpaceOnUse" gradientTransform="translate(1.8409 1.8409) rotate(90) scale(1.8409)">
<stop offset="0.389396" stop-color="#0F81F0"/>
<stop offset="1" stop-color="white" stop-opacity="0"/>
</radialGradient>
<linearGradient id="paint61_linear_3124_4442" x1="64.779" y1="151.653" x2="64.6736" y2="129.483" gradientUnits="userSpaceOnUse">
<stop offset="0.0504271" stop-color="#0F81F0"/>
<stop offset="0.448862" stop-color="#0F81F0"/>
<stop offset="1" stop-color="#0F81F0" stop-opacity="0"/>
</linearGradient>
<radialGradient id="paint62_radial_3124_4442" cx="0" cy="0" r="1" gradientUnits="userSpaceOnUse" gradientTransform="translate(1.8409 1.8409) rotate(90) scale(1.8409)">
<stop offset="0.389396" stop-color="#0F81F0"/>
<stop offset="1" stop-color="white" stop-opacity="0"/>
</radialGradient>
<linearGradient id="paint63_linear_3124_4442" x1="66.5163" y1="115.402" x2="64.4007" y2="126.208" gradientUnits="userSpaceOnUse">
<stop offset="0.0504271" stop-color="#0F81F0"/>
<stop offset="0.448862" stop-color="#0F81F0"/>
<stop offset="1" stop-color="#0F81F0" stop-opacity="0"/>
</linearGradient>
<radialGradient id="paint64_radial_3124_4442" cx="0" cy="0" r="1" gradientUnits="userSpaceOnUse" gradientTransform="translate(0.914325 0.914325) rotate(90) scale(0.914325)">
<stop offset="0.389396" stop-color="#0F81F0"/>
<stop offset="1" stop-color="white" stop-opacity="0"/>
</radialGradient>
<linearGradient id="paint65_linear_3124_4442" x1="66.3592" y1="135.791" x2="64.2104" y2="124.991" gradientUnits="userSpaceOnUse">
<stop offset="0.0504271" stop-color="#0F81F0"/>
<stop offset="0.448862" stop-color="#0F81F0"/>
<stop offset="1" stop-color="#0F81F0" stop-opacity="0"/>
</linearGradient>
<radialGradient id="paint66_radial_3124_4442" cx="0" cy="0" r="1" gradientUnits="userSpaceOnUse" gradientTransform="translate(0.914325 0.914325) rotate(90) scale(0.914325)">
<stop offset="0.389396" stop-color="#0F81F0"/>
<stop offset="1" stop-color="white" stop-opacity="0"/>
</radialGradient>
<linearGradient id="paint67_linear_3124_4442" x1="64.1318" y1="111.629" x2="64.2295" y2="127.744" gradientUnits="userSpaceOnUse">
<stop offset="0.0504271" stop-color="#0F81F0"/>
<stop offset="0.448862" stop-color="#0F81F0"/>
<stop offset="1" stop-color="#0F81F0" stop-opacity="0"/>
</linearGradient>
<radialGradient id="paint68_radial_3124_4442" cx="0" cy="0" r="1" gradientUnits="userSpaceOnUse" gradientTransform="translate(1.33816 1.33816) rotate(90) scale(1.33816)">
<stop offset="0.389396" stop-color="#0F81F0"/>
<stop offset="1" stop-color="white" stop-opacity="0"/>
</radialGradient>
<linearGradient id="paint69_linear_3124_4442" x1="48.8047" y1="124.829" x2="64.7875" y2="126.896" gradientUnits="userSpaceOnUse">
<stop offset="0.0504271" stop-color="#0F81F0"/>
<stop offset="0.448862" stop-color="#0F81F0"/>
<stop offset="1" stop-color="#0F81F0" stop-opacity="0"/>
</linearGradient>
<radialGradient id="paint70_radial_3124_4442" cx="0" cy="0" r="1" gradientUnits="userSpaceOnUse" gradientTransform="translate(1.33816 1.33816) rotate(90) scale(1.33816)">
<stop offset="0.389396" stop-color="#0F81F0"/>
<stop offset="1" stop-color="white" stop-opacity="0"/>
</radialGradient>
<linearGradient id="paint71_linear_3124_4442" x1="59.0754" y1="106.019" x2="63.3407" y2="121.561" gradientUnits="userSpaceOnUse">
<stop offset="0.0504271" stop-color="#0F81F0"/>
<stop offset="0.448862" stop-color="#0F81F0"/>
<stop offset="1" stop-color="#0F81F0" stop-opacity="0"/>
</linearGradient>
<radialGradient id="paint72_radial_3124_4442" cx="0" cy="0" r="1" gradientUnits="userSpaceOnUse" gradientTransform="translate(1.33816 1.33816) rotate(90) scale(1.33816)">
<stop offset="0.389396" stop-color="#0F81F0"/>
<stop offset="1" stop-color="white" stop-opacity="0"/>
</radialGradient>
<linearGradient id="paint73_linear_3124_4442" x1="42.5751" y1="129.127" x2="58.5481" y2="126.986" gradientUnits="userSpaceOnUse">
<stop offset="0.0504271" stop-color="#0F81F0"/>
<stop offset="0.448862" stop-color="#0F81F0"/>
<stop offset="1" stop-color="#0F81F0" stop-opacity="0"/>
</linearGradient>
<radialGradient id="paint74_radial_3124_4442" cx="0" cy="0" r="1" gradientUnits="userSpaceOnUse" gradientTransform="translate(1.33816 1.33816) rotate(90) scale(1.33816)">
<stop offset="0.389396" stop-color="#0F81F0"/>
<stop offset="1" stop-color="white" stop-opacity="0"/>
</radialGradient>
<linearGradient id="paint75_linear_3124_4442" x1="54.5392" y1="102.786" x2="61.4889" y2="119.125" gradientUnits="userSpaceOnUse">
<stop offset="0.0504271" stop-color="#0F81F0"/>
<stop offset="0.448862" stop-color="#0F81F0"/>
<stop offset="1" stop-color="#0F81F0" stop-opacity="0"/>
</linearGradient>
<radialGradient id="paint76_radial_3124_4442" cx="0" cy="0" r="1" gradientUnits="userSpaceOnUse" gradientTransform="translate(1.47432 1.47432) rotate(90) scale(1.47432)">
<stop offset="0.389396" stop-color="#0F81F0"/>
<stop offset="1" stop-color="white" stop-opacity="0"/>
</radialGradient>
<linearGradient id="paint77_linear_3124_4442" x1="38.7488" y1="133.16" x2="55.8729" y2="128.467" gradientUnits="userSpaceOnUse">
<stop offset="0.0504271" stop-color="#0F81F0"/>
<stop offset="0.448862" stop-color="#0F81F0"/>
<stop offset="1" stop-color="#0F81F0" stop-opacity="0"/>
</linearGradient>
<radialGradient id="paint78_radial_3124_4442" cx="0" cy="0" r="1" gradientUnits="userSpaceOnUse" gradientTransform="translate(1.47432 1.47432) rotate(90) scale(1.47432)">
<stop offset="0.389396" stop-color="#0F81F0"/>
<stop offset="1" stop-color="white" stop-opacity="0"/>
</radialGradient>
<linearGradient id="paint79_linear_3124_4442" x1="58.8303" y1="116.626" x2="64.667" y2="127.016" gradientUnits="userSpaceOnUse">
<stop offset="0.0504271" stop-color="#0F81F0"/>
<stop offset="0.448862" stop-color="#0F81F0"/>
<stop offset="1" stop-color="#0F81F0" stop-opacity="0"/>
</linearGradient>
<radialGradient id="paint80_radial_3124_4442" cx="0" cy="0" r="1" gradientUnits="userSpaceOnUse" gradientTransform="translate(0.98949 0.98949) rotate(90) scale(0.98949)">
<stop offset="0.389396" stop-color="#0F81F0"/>
<stop offset="1" stop-color="white" stop-opacity="0"/>
</radialGradient>
<linearGradient id="paint81_linear_3124_4442" x1="53.0467" y1="130.777" x2="64.1257" y2="126.388" gradientUnits="userSpaceOnUse">
<stop offset="0.0504271" stop-color="#0F81F0"/>
<stop offset="0.448862" stop-color="#0F81F0"/>
<stop offset="1" stop-color="#0F81F0" stop-opacity="0"/>
</linearGradient>
<radialGradient id="paint82_radial_3124_4442" cx="0" cy="0" r="1" gradientUnits="userSpaceOnUse" gradientTransform="translate(0.98949 0.98949) rotate(90) scale(0.98949)">
<stop offset="0.389396" stop-color="#0F81F0"/>
<stop offset="1" stop-color="white" stop-opacity="0"/>
</radialGradient>
<linearGradient id="paint83_linear_3124_4442" x1="54.5868" y1="115.979" x2="63.8571" y2="124.546" gradientUnits="userSpaceOnUse">
<stop offset="0.0504271" stop-color="#0F81F0"/>
<stop offset="0.448862" stop-color="#0F81F0"/>
<stop offset="1" stop-color="#0F81F0" stop-opacity="0"/>
</linearGradient>
<radialGradient id="paint84_radial_3124_4442" cx="0" cy="0" r="1" gradientUnits="userSpaceOnUse" gradientTransform="translate(1.0481 1.0481) rotate(90) scale(1.0481)">
<stop offset="0.389396" stop-color="#0F81F0"/>
<stop offset="1" stop-color="white" stop-opacity="0"/>
</radialGradient>
<linearGradient id="paint85_linear_3124_4442" x1="51.7797" y1="134.923" x2="61.5134" y2="126.887" gradientUnits="userSpaceOnUse">
<stop offset="0.0504271" stop-color="#0F81F0"/>
<stop offset="0.448862" stop-color="#0F81F0"/>
<stop offset="1" stop-color="#0F81F0" stop-opacity="0"/>
</linearGradient>
<radialGradient id="paint86_radial_3124_4442" cx="0" cy="0" r="1" gradientUnits="userSpaceOnUse" gradientTransform="translate(1.0481 1.0481) rotate(90) scale(1.0481)">
<stop offset="0.389396" stop-color="#0F81F0"/>
<stop offset="1" stop-color="white" stop-opacity="0"/>
</radialGradient>
<linearGradient id="paint87_linear_3124_4442" x1="46.9905" y1="115.244" x2="60.0861" y2="122.343" gradientUnits="userSpaceOnUse">
<stop offset="0.0504271" stop-color="#0F81F0"/>
<stop offset="0.448862" stop-color="#0F81F0"/>
<stop offset="1" stop-color="#0F81F0" stop-opacity="0"/>
</linearGradient>
<radialGradient id="paint88_radial_3124_4442" cx="0" cy="0" r="1" gradientUnits="userSpaceOnUse" gradientTransform="translate(1.23688 1.23688) rotate(90) scale(1.23688)">
<stop offset="0.389396" stop-color="#0F81F0"/>
<stop offset="1" stop-color="white" stop-opacity="0"/>
</radialGradient>
<linearGradient id="paint89_linear_3124_4442" x1="43.2663" y1="116.756" x2="57.0022" y2="122.52" gradientUnits="userSpaceOnUse">
<stop offset="0.0504271" stop-color="#0F81F0"/>
<stop offset="0.448862" stop-color="#0F81F0"/>
<stop offset="1" stop-color="#0F81F0" stop-opacity="0"/>
</linearGradient>
<radialGradient id="paint90_radial_3124_4442" cx="0" cy="0" r="1" gradientUnits="userSpaceOnUse" gradientTransform="translate(1.23688 1.23688) rotate(90) scale(1.23688)">
<stop offset="0.389396" stop-color="#0F81F0"/>
<stop offset="1" stop-color="white" stop-opacity="0"/>
</radialGradient>
<linearGradient id="paint91_linear_3124_4442" x1="54.1854" y1="122.451" x2="62.6138" y2="124.645" gradientUnits="userSpaceOnUse">
<stop offset="0.0504271" stop-color="#0F81F0"/>
<stop offset="0.448862" stop-color="#0F81F0"/>
<stop offset="1" stop-color="#0F81F0" stop-opacity="0"/>
</linearGradient>
<radialGradient id="paint92_radial_3124_4442" cx="0" cy="0" r="1" gradientUnits="userSpaceOnUse" gradientTransform="translate(0.723169 0.723169) rotate(90) scale(0.723169)">
<stop offset="0.389396" stop-color="#0F81F0"/>
<stop offset="1" stop-color="white" stop-opacity="0"/>
</radialGradient>
<linearGradient id="paint93_linear_3124_4442" x1="74.1979" y1="135.214" x2="65.7677" y2="126.506" gradientUnits="userSpaceOnUse">
<stop offset="0.0504271" stop-color="#0F81F0"/>
<stop offset="0.448862" stop-color="#0F81F0"/>
<stop offset="1" stop-color="#0F81F0" stop-opacity="0"/>
</linearGradient>
<radialGradient id="paint94_radial_3124_4442" cx="0" cy="0" r="1" gradientUnits="userSpaceOnUse" gradientTransform="translate(1.00637 1.00637) rotate(90) scale(1.00637)">
<stop offset="0.389396" stop-color="#0F81F0"/>
<stop offset="1" stop-color="white" stop-opacity="0"/>
</radialGradient>
<linearGradient id="paint95_linear_3124_4442" x1="74.5052" y1="107.452" x2="67.5888" y2="119.962" gradientUnits="userSpaceOnUse">
<stop offset="0.0504271" stop-color="#0F81F0"/>
<stop offset="0.448862" stop-color="#0F81F0"/>
<stop offset="1" stop-color="#0F81F0" stop-opacity="0"/>
</linearGradient>
<radialGradient id="paint96_radial_3124_4442" cx="0" cy="0" r="1" gradientUnits="userSpaceOnUse" gradientTransform="translate(1.18694 1.18694) rotate(90) scale(1.18694)">
<stop offset="0.389396" stop-color="#0F81F0"/>
<stop offset="1" stop-color="white" stop-opacity="0"/>
</radialGradient>
<linearGradient id="paint97_linear_3124_4442" x1="62.0226" y1="146.173" x2="63.6674" y2="131.973" gradientUnits="userSpaceOnUse">
<stop offset="0.0504271" stop-color="#0F81F0"/>
<stop offset="0.448862" stop-color="#0F81F0"/>
<stop offset="1" stop-color="#0F81F0" stop-opacity="0"/>
</linearGradient>
<radialGradient id="paint98_radial_3124_4442" cx="0" cy="0" r="1" gradientUnits="userSpaceOnUse" gradientTransform="translate(1.18694 1.18694) rotate(90) scale(1.18694)">
<stop offset="0.389396" stop-color="#0F81F0"/>
<stop offset="1" stop-color="white" stop-opacity="0"/>
</radialGradient>
<linearGradient id="paint99_linear_3124_4442" x1="74.2682" y1="115.365" x2="64.2138" y2="125.527" gradientUnits="userSpaceOnUse">
<stop offset="0.0504271" stop-color="#0F81F0"/>
<stop offset="0.448862" stop-color="#0F81F0"/>
<stop offset="1" stop-color="#0F81F0" stop-opacity="0"/>
</linearGradient>
<radialGradient id="paint100_radial_3124_4442" cx="0" cy="0" r="1" gradientUnits="userSpaceOnUse" gradientTransform="translate(1.18694 1.18694) rotate(90) scale(1.18694)">
<stop offset="0.389396" stop-color="#0F81F0"/>
<stop offset="1" stop-color="white" stop-opacity="0"/>
</radialGradient>
<linearGradient id="paint101_linear_3124_4442" x1="59.1848" y1="138.772" x2="64.6247" y2="125.553" gradientUnits="userSpaceOnUse">
<stop offset="0.0504271" stop-color="#0F81F0"/>
<stop offset="0.448862" stop-color="#0F81F0"/>
<stop offset="1" stop-color="#0F81F0" stop-opacity="0"/>
</linearGradient>
<radialGradient id="paint102_radial_3124_4442" cx="0" cy="0" r="1" gradientUnits="userSpaceOnUse" gradientTransform="translate(1.18694 1.18694) rotate(90) scale(1.18694)">
<stop offset="0.389396" stop-color="#0F81F0"/>
<stop offset="1" stop-color="white" stop-opacity="0"/>
</radialGradient>
<linearGradient id="paint103_linear_3124_4442" x1="72.836" y1="120.154" x2="66.4296" y2="123.901" gradientUnits="userSpaceOnUse">
<stop offset="0.0504271" stop-color="#0F81F0"/>
<stop offset="0.448862" stop-color="#0F81F0"/>
<stop offset="1" stop-color="#0F81F0" stop-opacity="0"/>
</linearGradient>
<radialGradient id="paint104_radial_3124_4442" cx="0" cy="0" r="1" gradientUnits="userSpaceOnUse" gradientTransform="translate(0.616252 0.616252) rotate(90) scale(0.616252)">
<stop offset="0.389396" stop-color="#0F81F0"/>
<stop offset="1" stop-color="white" stop-opacity="0"/>
</radialGradient>
<linearGradient id="paint105_linear_3124_4442" x1="84.9621" y1="116.4" x2="69.2997" y2="123.561" gradientUnits="userSpaceOnUse">
<stop offset="0.0504271" stop-color="#0F81F0"/>
<stop offset="0.448862" stop-color="#0F81F0"/>
<stop offset="1" stop-color="#0F81F0" stop-opacity="0"/>
</linearGradient>
<radialGradient id="paint106_radial_3124_4442" cx="0" cy="0" r="1" gradientUnits="userSpaceOnUse" gradientTransform="translate(1.42999 1.42999) rotate(90) scale(1.42999)">
<stop offset="0.389396" stop-color="#0F81F0"/>
<stop offset="1" stop-color="white" stop-opacity="0"/>
</radialGradient>
<linearGradient id="paint107_linear_3124_4442" x1="83.3477" y1="120.278" x2="69.4791" y2="123.916" gradientUnits="userSpaceOnUse">
<stop offset="0.0504271" stop-color="#0F81F0"/>
<stop offset="0.448862" stop-color="#0F81F0"/>
<stop offset="1" stop-color="#0F81F0" stop-opacity="0"/>
</linearGradient>
<radialGradient id="paint108_radial_3124_4442" cx="0" cy="0" r="1" gradientUnits="userSpaceOnUse" gradientTransform="translate(1.19052 1.19052) rotate(90) scale(1.19052)">
<stop offset="0.389396" stop-color="#0F81F0"/>
<stop offset="1" stop-color="white" stop-opacity="0"/>
</radialGradient>
<linearGradient id="paint109_linear_3124_4442" x1="78.15" y1="125.284" x2="64.3451" y2="125.614" gradientUnits="userSpaceOnUse">
<stop offset="0.0504271" stop-color="#0F81F0"/>
<stop offset="0.448862" stop-color="#0F81F0"/>
<stop offset="1" stop-color="#0F81F0" stop-opacity="0"/>
</linearGradient>
<radialGradient id="paint110_radial_3124_4442" cx="0" cy="0" r="1" gradientUnits="userSpaceOnUse" gradientTransform="translate(1.1466 1.1466) rotate(90) scale(1.1466)">
<stop offset="0.389396" stop-color="#0F81F0"/>
<stop offset="1" stop-color="white" stop-opacity="0"/>
</radialGradient>
<linearGradient id="paint111_linear_3124_4442" x1="85.039" y1="133.845" x2="65.088" y2="125.931" gradientUnits="userSpaceOnUse">
<stop offset="0.0504271" stop-color="#0F81F0"/>
<stop offset="0.448862" stop-color="#0F81F0"/>
<stop offset="1" stop-color="#0F81F0" stop-opacity="0"/>
</linearGradient>
<radialGradient id="paint112_radial_3124_4442" cx="0" cy="0" r="1" gradientUnits="userSpaceOnUse" gradientTransform="translate(1.78216 1.78216) rotate(90) scale(1.78216)">
<stop offset="0.389396" stop-color="#0F81F0"/>
<stop offset="1" stop-color="white" stop-opacity="0"/>
</radialGradient>
<linearGradient id="paint113_linear_3124_4442" x1="81.1718" y1="135.068" x2="67.7417" y2="127.115" gradientUnits="userSpaceOnUse">
<stop offset="0.0504271" stop-color="#0F81F0"/>
<stop offset="0.448862" stop-color="#0F81F0"/>
<stop offset="1" stop-color="#0F81F0" stop-opacity="0"/>
</linearGradient>
<radialGradient id="paint114_radial_3124_4442" cx="0" cy="0" r="1" gradientUnits="userSpaceOnUse" gradientTransform="translate(1.29603 1.29603) rotate(90) scale(1.29603)">
<stop offset="0.389396" stop-color="#0F81F0"/>
<stop offset="1" stop-color="white" stop-opacity="0"/>
</radialGradient>
<linearGradient id="paint115_linear_3124_4442" x1="73.7635" y1="127.76" x2="66.8883" y2="126.029" gradientUnits="userSpaceOnUse">
<stop offset="0.0504271" stop-color="#0F81F0"/>
<stop offset="0.448862" stop-color="#0F81F0"/>
<stop offset="1" stop-color="#0F81F0" stop-opacity="0"/>
</linearGradient>
<radialGradient id="paint116_radial_3124_4442" cx="0" cy="0" r="1" gradientUnits="userSpaceOnUse" gradientTransform="translate(0.588689 0.588689) rotate(90) scale(0.588689)">
<stop offset="0.389396" stop-color="#0F81F0"/>
<stop offset="1" stop-color="white" stop-opacity="0"/>
</radialGradient>
<linearGradient id="paint117_linear_3124_4442" x1="184.999" y1="164.476" x2="184.999" y2="184.687" gradientUnits="userSpaceOnUse">
<stop stop-color="white"/>
<stop offset="0.869293" stop-color="white"/>
</linearGradient>
<linearGradient id="paint118_linear_3124_4442" x1="89.9988" y1="63.3699" x2="89.9988" y2="79.0899" gradientUnits="userSpaceOnUse">
<stop stop-color="white"/>
<stop offset="0.869293" stop-color="white"/>
</linearGradient>
<linearGradient id="paint119_linear_3124_4442" x1="74.1061" y1="204.182" x2="61.4169" y2="223.351" gradientUnits="userSpaceOnUse">
<stop offset="0.155289" stop-color="#031A30"/>
<stop offset="0.514591" stop-color="#0F81F0"/>
<stop offset="1" stop-color="#031A30"/>
</linearGradient>
<linearGradient id="paint120_linear_3124_4442" x1="74.1061" y1="203.966" x2="61.4169" y2="223.134" gradientUnits="userSpaceOnUse">
<stop offset="0.155289" stop-color="#031A30"/>
<stop offset="0.514591" stop-color="#0F81F0"/>
<stop offset="1" stop-color="#031A30"/>
</linearGradient>
<linearGradient id="paint121_linear_3124_4442" x1="72.7562" y1="205.855" x2="59.4697" y2="245.435" gradientUnits="userSpaceOnUse">
<stop offset="0.0596716" stop-color="#6FB3F6"/>
<stop offset="0.138721" stop-color="white"/>
</linearGradient>
<radialGradient id="paint122_radial_3124_4442" cx="0" cy="0" r="1" gradientUnits="userSpaceOnUse" gradientTransform="translate(68.9689 203.752) rotate(76.8094) scale(17.7471 17.7471)">
<stop stop-color="#9FCDF9"/>
<stop offset="1" stop-color="#6FB3F6"/>
</radialGradient>
<linearGradient id="paint123_linear_3124_4442" x1="39.851" y1="188.922" x2="29.242" y2="204.948" gradientUnits="userSpaceOnUse">
<stop offset="0.155289" stop-color="#031A30"/>
<stop offset="0.514591" stop-color="#0F81F0"/>
<stop offset="1" stop-color="#031A30"/>
</linearGradient>
<linearGradient id="paint124_linear_3124_4442" x1="39.851" y1="188.74" x2="29.242" y2="204.767" gradientUnits="userSpaceOnUse">
<stop offset="0.155289" stop-color="#031A30"/>
<stop offset="0.514591" stop-color="#0F81F0"/>
<stop offset="1" stop-color="#031A30"/>
</linearGradient>
<linearGradient id="paint125_linear_3124_4442" x1="38.7224" y1="190.32" x2="27.614" y2="223.412" gradientUnits="userSpaceOnUse">
<stop offset="0.0596716" stop-color="#6FB3F6"/>
<stop offset="0.138721" stop-color="white"/>
</linearGradient>
<radialGradient id="paint126_radial_3124_4442" cx="0" cy="0" r="1" gradientUnits="userSpaceOnUse" gradientTransform="translate(35.5544 184.903) rotate(76.8094) scale(14.8377)">
<stop stop-color="#9FCDF9"/>
<stop offset="1" stop-color="#6FB3F6"/>
</radialGradient>
<linearGradient id="paint127_linear_3124_4442" x1="257.851" y1="190.922" x2="247.242" y2="206.948" gradientUnits="userSpaceOnUse">
<stop offset="0.155289" stop-color="#031A30"/>
<stop offset="0.514591" stop-color="#0F81F0"/>
<stop offset="1" stop-color="#031A30"/>
</linearGradient>
<linearGradient id="paint128_linear_3124_4442" x1="257.851" y1="190.74" x2="247.242" y2="206.767" gradientUnits="userSpaceOnUse">
<stop offset="0.155289" stop-color="#031A30"/>
<stop offset="0.514591" stop-color="#0F81F0"/>
<stop offset="1" stop-color="#031A30"/>
</linearGradient>
<linearGradient id="paint129_linear_3124_4442" x1="256.722" y1="192.32" x2="245.614" y2="225.412" gradientUnits="userSpaceOnUse">
<stop offset="0.0596716" stop-color="#6FB3F6"/>
<stop offset="0.138721" stop-color="white"/>
</linearGradient>
<radialGradient id="paint130_radial_3124_4442" cx="0" cy="0" r="1" gradientUnits="userSpaceOnUse" gradientTransform="translate(253.554 186.903) rotate(76.8094) scale(14.8377)">
<stop stop-color="#9FCDF9"/>
<stop offset="1" stop-color="#6FB3F6"/>
</radialGradient>
<linearGradient id="paint131_linear_3124_4442" x1="228.106" y1="206.182" x2="215.417" y2="225.351" gradientUnits="userSpaceOnUse">
<stop offset="0.155289" stop-color="#031A30"/>
<stop offset="0.514591" stop-color="#0F81F0"/>
<stop offset="1" stop-color="#031A30"/>
</linearGradient>
<linearGradient id="paint132_linear_3124_4442" x1="228.106" y1="205.966" x2="215.417" y2="225.134" gradientUnits="userSpaceOnUse">
<stop offset="0.155289" stop-color="#031A30"/>
<stop offset="0.514591" stop-color="#0F81F0"/>
<stop offset="1" stop-color="#031A30"/>
</linearGradient>
<linearGradient id="paint133_linear_3124_4442" x1="226.756" y1="207.855" x2="213.47" y2="247.435" gradientUnits="userSpaceOnUse">
<stop offset="0.0596716" stop-color="#6FB3F6"/>
<stop offset="0.138721" stop-color="white"/>
</linearGradient>
<radialGradient id="paint134_radial_3124_4442" cx="0" cy="0" r="1" gradientUnits="userSpaceOnUse" gradientTransform="translate(222.969 205.752) rotate(76.8094) scale(17.7471 17.7471)">
<stop stop-color="#9FCDF9"/>
<stop offset="1" stop-color="#6FB3F6"/>
</radialGradient>
</defs>
</svg>
