<svg width="300" height="300" viewBox="0 0 300 300" fill="none" xmlns="http://www.w3.org/2000/svg">
<path fill-rule="evenodd" clip-rule="evenodd" d="M261.963 162.535C261.963 163.735 261.171 164.935 259.585 165.851L156.222 225.527C153.051 227.358 147.909 227.358 144.737 225.527L41.3747 165.851C39.8524 164.972 39.0609 163.831 39 162.679V184.782C39.0609 185.933 39.8524 187.074 41.3747 187.953L144.737 247.629C147.909 249.46 153.051 249.46 156.222 247.629L259.585 187.953C261.171 187.037 261.963 185.837 261.963 184.638V162.535Z" fill="#7D97C2"/>
<path fill-rule="evenodd" clip-rule="evenodd" d="M39.0038 162.681C38.9379 161.433 39.7294 160.174 41.3785 159.222L144.741 99.5451C147.913 97.7141 153.055 97.7141 156.226 99.5451L259.589 159.222C261.174 160.137 261.967 161.337 261.967 162.537V184.639C261.967 183.439 261.174 182.24 259.589 181.324L156.226 121.648C153.055 119.817 147.913 119.817 144.741 121.648L41.3785 181.324C39.7294 182.276 38.9379 183.536 39.0038 184.783V162.681Z" fill="#7D97C2"/>
<path d="M144.741 99.5451C147.913 97.7141 153.055 97.7141 156.226 99.5451L259.589 159.222C262.76 161.053 262.76 164.021 259.589 165.852L156.226 225.529C153.055 227.36 147.913 227.36 144.741 225.529L41.3785 165.852C38.2071 164.021 38.2072 161.053 41.3785 159.222L144.741 99.5451Z" fill="#F0F0F0"/>
<path d="M145.886 113.578C148.365 112.151 152.383 112.151 154.861 113.578L235.631 160.098C238.109 161.525 238.109 163.839 235.631 165.267L154.861 211.786C152.383 213.213 148.365 213.213 145.886 211.786L65.1164 165.267C62.6382 163.839 62.6383 161.525 65.1164 160.098L145.886 113.578Z" fill="#031A30"/>
<path fill-rule="evenodd" clip-rule="evenodd" d="M209.709 145.398C209.709 146.037 209.287 146.676 208.443 147.164L153.411 178.936C151.722 179.911 148.985 179.911 147.296 178.936L92.2643 147.164C91.4539 146.696 91.0324 146.088 91 145.475V157.243C91.0324 157.856 91.4539 158.463 92.2643 158.931L147.296 190.704C148.985 191.679 151.722 191.679 153.411 190.704L208.443 158.931C209.287 158.444 209.709 157.805 209.709 157.166V145.398Z" fill="#7D97C2"/>
<path fill-rule="evenodd" clip-rule="evenodd" d="M91.002 145.478C90.9669 144.814 91.3884 144.144 92.2664 143.637L147.298 111.864C148.987 110.889 151.724 110.889 153.413 111.864L208.445 143.637C209.289 144.124 209.711 144.763 209.711 145.402V157.169C209.711 156.531 209.289 155.892 208.445 155.404L153.413 123.632C151.724 122.657 148.987 122.657 147.298 123.632L92.2664 155.404C91.3884 155.911 90.9669 156.582 91.002 157.246V145.478Z" fill="#7D97C2"/>
<path d="M147.446 111.86C149.13 110.869 151.861 110.869 153.545 111.86L208.439 144.151C210.123 145.141 210.124 146.748 208.439 147.739L153.545 180.029C151.861 181.02 149.13 181.02 147.446 180.029L92.5523 147.739C90.868 146.748 90.868 145.141 92.5523 144.151L147.446 111.86Z" fill="#F0F0F0"/>
<path fill-rule="evenodd" clip-rule="evenodd" d="M173.375 160.453L159.299 152.327V123.884C159.299 118.434 155.473 111.808 150.754 109.083C148.394 107.72 146.257 107.591 144.711 108.484L158.786 100.358C160.333 99.4648 162.469 99.5938 164.829 100.956C169.549 103.681 173.375 110.308 173.375 115.758V144.2L187.45 152.327L173.375 160.453Z" fill="#F0F0F0"/>
<path fill-rule="evenodd" clip-rule="evenodd" d="M173.375 160.453L159.299 152.327V123.884C159.299 118.434 155.473 111.808 150.754 109.083C148.394 107.72 146.257 107.591 144.711 108.484L158.786 100.358C160.333 99.4648 162.469 99.5938 164.829 100.956C169.549 103.681 173.375 110.308 173.375 115.758V144.2L187.45 152.327L173.375 160.453Z" fill="url(#paint0_linear_3113_6213)"/>
<path fill-rule="evenodd" clip-rule="evenodd" d="M144.722 108.486C143.175 109.379 142.219 111.293 142.219 114.018V142.461L156.294 134.334V105.892C156.294 103.167 157.251 101.252 158.797 100.359L144.722 108.486Z" fill="#F0F0F0"/>
<path d="M128.133 134.336L130.5 78.5L159.3 97.7676C167.073 102.256 173.375 113.171 173.375 122.147V160.457L159.3 152.331V123.888C159.3 118.438 155.474 111.811 150.754 109.087C146.034 106.362 142.208 108.571 142.208 114.02V142.463L128.133 134.336Z" fill="#0C0631"/>
<path fill-rule="evenodd" clip-rule="evenodd" d="M150.156 174.383L136.081 166.256V137.814C136.081 132.364 132.255 125.737 127.535 123.012C125.175 121.65 123.039 121.521 121.492 122.414L135.568 114.287C137.114 113.394 139.25 113.523 141.61 114.886C146.33 117.611 150.156 124.238 150.156 129.688V158.13L164.231 166.256L150.156 174.383Z" fill="#F0F0F0"/>
<path fill-rule="evenodd" clip-rule="evenodd" d="M150.156 174.383L136.081 166.256V137.814C136.081 132.364 132.255 125.737 127.535 123.012C125.175 121.65 123.039 121.521 121.492 122.414L135.568 114.287C137.114 113.394 139.25 113.523 141.61 114.886C146.33 117.611 150.156 124.238 150.156 129.688V158.13L164.231 166.256L150.156 174.383Z" fill="url(#paint1_linear_3113_6213)"/>
<path fill-rule="evenodd" clip-rule="evenodd" d="M118.989 156.394L104.914 148.268V93.7045L118.989 85.5781V140.141L133.065 148.268L118.989 156.394Z" fill="#F0F0F0"/>
<path fill-rule="evenodd" clip-rule="evenodd" d="M118.989 156.394L104.914 148.268V93.7045L118.989 85.5781V140.141L133.065 148.268L118.989 156.394Z" fill="url(#paint2_linear_3113_6213)"/>
<path fill-rule="evenodd" clip-rule="evenodd" d="M121.495 122.419C119.949 123.312 118.992 125.227 118.992 127.952V156.394L133.068 148.268V119.825C133.068 117.101 134.024 115.186 135.571 114.293L121.495 122.419Z" fill="#F0F0F0"/>
<path fill-rule="evenodd" clip-rule="evenodd" d="M121.495 122.419C119.949 123.312 118.992 125.227 118.992 127.952V156.394L133.068 148.268V119.825C133.068 117.101 134.024 115.186 135.571 114.293L121.495 122.419Z" fill="url(#paint3_linear_3113_6213)"/>
<path d="M104.914 148.266V93.7031L136.081 111.697C143.855 116.185 150.156 127.1 150.156 136.077V174.387L136.081 166.26V137.818C136.081 132.368 132.255 125.741 127.535 123.016C122.815 120.291 118.989 122.5 118.989 127.95V156.393L104.914 148.266Z" fill="#0C0631"/>
<path d="M159.29 97.7614C167.063 102.25 173.365 113.164 173.365 122.141V160.451L187.441 152.324V114.014C187.441 105.038 181.139 94.1231 173.365 89.635L143.359 72.3111C142.641 71.8963 141.756 71.8963 141.037 72.3111L108.387 91.6874C106.84 92.5811 106.84 94.8153 108.387 95.709L136.072 111.692C143.845 116.18 150.147 127.095 150.147 136.072V174.382L164.222 166.255V127.945C164.222 118.969 157.921 108.054 150.147 103.566L137.41 96.0255C134.353 94.3023 134.395 90.4885 137.266 88.4686C141.282 85.6418 146.5 89.792 150.668 92.3895L159.29 97.7614Z" fill="#D9D9D9"/>
<path d="M159.29 97.7614C167.063 102.25 173.365 113.164 173.365 122.141V160.451L187.441 152.324V114.014C187.441 105.038 181.139 94.1231 173.365 89.635L143.359 72.3111C142.641 71.8963 141.756 71.8963 141.037 72.3111L108.387 91.6874C106.84 92.5811 106.84 94.8153 108.387 95.709L136.072 111.692C143.845 116.18 150.147 127.095 150.147 136.072V174.382L164.222 166.255V127.945C164.222 118.969 157.921 108.054 150.147 103.566L137.41 96.0255C134.353 94.3023 134.395 90.4885 137.266 88.4686C141.282 85.6418 146.5 89.792 150.668 92.3895L159.29 97.7614Z" fill="url(#paint4_linear_3113_6213)"/>
<path fill-rule="evenodd" clip-rule="evenodd" d="M86.4922 126.081C86.8982 125.847 87.459 125.881 88.0785 126.238L145.511 159.397C146.749 160.112 147.754 161.852 147.754 163.283V202.14C147.754 202.827 147.523 203.317 147.145 203.563L149.388 202.268C149.766 202.022 149.997 201.532 149.997 200.845V161.987C149.997 160.557 148.993 158.817 147.754 158.102L90.322 124.943C89.7025 124.585 89.1416 124.552 88.7356 124.786L86.4922 126.081Z" fill="#031A30"/>
<path fill-rule="evenodd" clip-rule="evenodd" d="M147.154 203.562C146.744 203.828 146.163 203.806 145.519 203.434L88.0872 170.276C86.8482 169.561 85.8438 167.821 85.8438 166.39V127.533C85.8438 126.817 86.0949 126.315 86.5008 126.08L88.7443 124.785C88.3383 125.02 88.0872 125.522 88.0872 126.238V165.095C88.0872 166.526 89.0916 168.265 90.3306 168.981L147.763 202.139C148.407 202.511 148.988 202.533 149.397 202.267L147.154 203.562Z" fill="#031A30"/>
<path d="M85.8438 127.531C85.8438 126.101 86.8482 125.521 88.0872 126.236L145.519 159.395C146.758 160.11 147.763 161.85 147.763 163.28V202.138C147.763 203.568 146.758 204.148 145.519 203.433L88.0872 170.275C86.8482 169.559 85.8438 167.82 85.8438 166.389V127.531Z" fill="#E53132"/>
<path d="M89.9667 160.996L93.8068 163.213V164.193L91.1285 162.646V164.315L93.4975 165.682V166.662L91.1285 165.295V167.939L89.9667 167.268V160.996ZM94.4563 163.588L95.6181 164.258V168.331C95.6181 168.741 95.7187 169.117 95.9199 169.459C96.1211 169.802 96.409 170.081 96.7837 170.298C97.1584 170.514 97.4464 170.567 97.6476 170.457C97.8488 170.346 97.9494 170.087 97.9494 169.677V165.604L99.1074 166.273V170.263C99.1074 170.998 98.9075 171.464 98.5076 171.663C98.1103 171.861 97.5357 171.742 96.7837 171.308C96.0444 170.881 95.471 170.337 95.0636 169.675C94.6587 169.011 94.4563 168.312 94.4563 167.578V163.588ZM102.452 168.204L103.614 168.875V173.204C103.614 173.832 103.46 174.241 103.154 174.433C102.847 174.624 102.353 174.523 101.671 174.13C101 173.742 100.507 173.278 100.192 172.736C99.8805 172.193 99.7246 171.625 99.7246 171.033L100.864 171.691C100.864 171.993 100.929 172.267 101.06 172.514C101.193 172.759 101.393 172.959 101.66 173.113C101.931 173.27 102.131 173.3 102.26 173.202C102.388 173.102 102.452 172.888 102.452 172.56V168.204ZM104.569 169.426L105.731 170.097V176.37L104.569 175.699V169.426ZM108.097 171.463L112.918 174.247V175.24L111.088 174.183V179.463L109.927 178.792V173.513L108.097 172.456V171.463ZM113.543 174.607L117.489 176.886V177.866L114.705 176.258V177.844L117.112 179.233V180.218L114.705 178.828V180.571L117.564 182.221V183.201L113.543 180.88V174.607ZM118.17 178.999C118.17 178.668 118.248 178.41 118.404 178.224C118.562 178.04 118.797 177.955 119.109 177.969C119.421 177.981 119.808 178.12 120.271 178.387C120.734 178.655 121.126 178.962 121.448 179.311C121.77 179.659 122.018 180.024 122.191 180.406C122.365 180.788 122.462 181.162 122.482 181.528V181.659L121.391 181.029C121.386 180.646 121.278 180.313 121.067 180.032C120.856 179.747 120.599 179.518 120.298 179.343C119.991 179.166 119.748 179.1 119.569 179.145C119.393 179.189 119.305 179.335 119.305 179.585C119.305 179.835 119.386 180.069 119.547 180.286C119.71 180.503 119.935 180.726 120.222 180.955L120.992 181.574C121.502 181.985 121.903 182.412 122.195 182.856C122.489 183.302 122.636 183.792 122.636 184.326C122.636 184.684 122.556 184.961 122.395 185.158C122.234 185.353 121.99 185.44 121.663 185.42C121.339 185.401 120.931 185.25 120.441 184.967C119.95 184.684 119.532 184.358 119.185 183.989C118.838 183.617 118.569 183.232 118.377 182.835C118.186 182.434 118.082 182.048 118.064 181.678V181.547L119.166 182.183C119.204 182.586 119.338 182.944 119.569 183.257C119.801 183.568 120.088 183.822 120.43 184.019C120.774 184.218 121.038 184.292 121.222 184.242C121.408 184.189 121.501 184.03 121.501 183.762C121.501 183.498 121.415 183.256 121.244 183.035C121.073 182.814 120.831 182.578 120.516 182.327L119.747 181.709C119.256 181.315 118.87 180.886 118.589 180.422C118.31 179.958 118.17 179.484 118.17 178.999ZM122.847 179.979L127.668 182.762V183.756L125.838 182.699V187.979L124.677 187.308V182.029L122.847 180.972V179.979ZM128.293 183.123L129.485 183.812L131.733 189.33L131.809 189.374V185.153L132.922 185.796V192.068L131.733 191.382L129.485 185.863L129.41 185.82V190.04L128.293 189.396V183.123ZM133.915 186.369L137.86 188.647V189.627L135.076 188.02V189.605L137.483 190.995V191.979L135.076 190.59V192.332L137.936 193.983V194.963L133.915 192.641V186.369ZM138.326 188.916L143.147 191.699V192.693L141.318 191.636V196.916L140.156 196.245V190.966L138.326 189.909V188.916Z" fill="white"/>
<path d="M110.593 166.453L103.751 162.502C103.043 162.093 102.599 160.944 102.952 160.432L106.342 155.509C106.694 154.997 107.578 155.503 107.936 156.422L111.388 165.295C111.748 166.219 111.305 166.863 110.593 166.453Z" fill="white"/>
<path d="M100.242 139.348L90.6575 153.166C90.2374 153.771 90.7503 155.13 91.5901 155.637L96.0318 158.316C97.2526 159.053 98.3895 158.956 98.9912 158.065L104.291 150.21C104.798 149.459 104.802 148.186 104.301 146.85L101.844 140.287C101.496 139.358 100.6 138.832 100.242 139.348Z" fill="white"/>
<path d="M126.114 153.239L119.271 149.288C118.563 148.879 118.119 149.517 118.472 150.436L121.862 159.274C122.215 160.192 123.099 160.707 123.456 160.201L126.909 155.314C127.268 154.806 126.825 153.65 126.114 153.239Z" fill="white"/>
<path d="M115.762 168.391L106.178 143.506C105.758 142.415 106.27 141.649 107.11 142.112L111.552 144.561C112.773 145.234 113.91 146.644 114.511 148.23L119.812 162.205C120.318 163.54 120.322 164.818 119.822 165.576L117.364 169.302C117.016 169.829 116.12 169.32 115.762 168.391Z" fill="white"/>
<path d="M141.633 184.452L134.79 180.501C134.082 180.093 133.639 178.944 133.992 178.431L137.382 173.508C137.734 172.996 138.618 173.503 138.975 174.421L142.428 183.295C142.787 184.218 142.345 184.863 141.633 184.452Z" fill="white"/>
<path d="M131.281 157.347L121.697 171.165C121.277 171.77 121.79 173.13 122.63 173.636L127.072 176.316C128.292 177.052 129.429 176.955 130.031 176.064L135.331 168.209C135.838 167.458 135.841 166.185 135.341 164.849L132.884 158.287C132.536 157.357 131.639 156.831 131.281 157.347Z" fill="white"/>
<g filter="url(#filter0_d_3113_6213)">
<path d="M218.679 99.2749C218.736 98.9084 219.264 98.9084 219.321 99.2749L219.719 101.841C219.914 103.099 220.901 104.086 222.159 104.281L224.725 104.679C225.092 104.736 225.092 105.264 224.725 105.321L222.159 105.719C220.901 105.914 219.914 106.901 219.719 108.159L219.321 110.725C219.264 111.092 218.736 111.092 218.679 110.725L218.281 108.159C218.086 106.901 217.099 105.914 215.841 105.719L213.275 105.321C212.908 105.264 212.908 104.736 213.275 104.679L215.841 104.281C217.099 104.086 218.086 103.099 218.281 101.841L218.679 99.2749Z" fill="url(#paint5_linear_3113_6213)"/>
</g>
<path d="M230.067 63.442L242.702 34.4807C242.883 34.0667 242.688 33.5851 242.271 33.413C241.854 33.2412 241.377 33.4443 241.213 33.8639L229.672 63.2785C229.63 63.387 229.682 63.5097 229.79 63.5541C229.897 63.5984 230.02 63.5486 230.067 63.442Z" fill="url(#paint6_linear_3113_6213)"/>
<circle cx="2.69902" cy="2.69902" r="2.69902" transform="matrix(-0.924516 -0.381142 -0.381142 0.924516 245.766 32.0586)" fill="url(#paint7_radial_3113_6213)"/>
<path d="M228.608 74.7865L227.924 106.377C227.914 106.828 228.277 107.2 228.729 107.2C229.18 107.201 229.543 106.832 229.536 106.381L229.036 74.7877C229.034 74.6711 228.939 74.5776 228.822 74.5774C228.706 74.5773 228.611 74.6702 228.608 74.7865Z" fill="url(#paint8_linear_3113_6213)"/>
<circle cx="2.69902" cy="2.69902" r="2.69902" transform="matrix(0.999999 0.00130398 0.00130398 -0.999999 226.016 109.777)" fill="url(#paint9_radial_3113_6213)"/>
<path d="M228.17 69.8479L231.591 54.5316C231.64 54.3127 231.499 54.0963 231.279 54.0519C231.06 54.0075 230.847 54.1517 230.806 54.3718L227.962 69.8055C227.951 69.8624 227.988 69.9173 228.045 69.9288C228.102 69.9402 228.157 69.9043 228.17 69.8479Z" fill="url(#paint10_linear_3113_6213)"/>
<circle cx="1.34053" cy="1.34053" r="1.34053" transform="matrix(-0.980188 -0.198071 -0.198071 0.980188 232.844 53.0625)" fill="url(#paint11_radial_3113_6213)"/>
<path d="M227.917 68.1532L230.571 83.6207C230.609 83.8418 230.822 83.9886 231.042 83.9461C231.262 83.9038 231.404 83.6895 231.358 83.4705L228.125 68.1134C228.113 68.0568 228.058 68.0201 228.001 68.0311C227.944 68.042 227.907 68.0963 227.917 68.1532Z" fill="url(#paint12_linear_3113_6213)"/>
<circle cx="1.34053" cy="1.34053" r="1.34053" transform="matrix(0.98194 -0.189191 -0.189191 -0.98194 229.977 85.4531)" fill="url(#paint13_radial_3113_6213)"/>
<path d="M227.895 72.0772L228.363 49.1136C228.37 48.7853 228.105 48.5156 227.777 48.5156C227.449 48.5156 227.185 48.7842 227.191 49.1117L227.585 72.0767C227.586 72.1614 227.655 72.2293 227.74 72.2293C227.825 72.2293 227.894 72.1617 227.895 72.0772Z" fill="url(#paint14_linear_3113_6213)"/>
<circle cx="1.96193" cy="1.96193" r="1.96193" transform="matrix(-1 0 0 1 229.758 46.6445)" fill="url(#paint15_radial_3113_6213)"/>
<path d="M228.667 70.9155L205.974 67.3697C205.649 67.319 205.347 67.5447 205.303 67.87C205.259 68.1946 205.489 68.4922 205.815 68.5306L228.625 71.2232C228.709 71.2332 228.785 71.1738 228.797 71.0898C228.808 71.006 228.75 70.9285 228.667 70.9155Z" fill="url(#paint16_linear_3113_6213)"/>
<circle cx="1.96193" cy="1.96193" r="1.96193" transform="matrix(-0.134236 0.990949 0.990949 0.134236 203.719 65.6719)" fill="url(#paint17_radial_3113_6213)"/>
<path d="M226.588 63.0196L221.096 40.7174C221.018 40.3986 220.693 40.2065 220.375 40.2915C220.059 40.3763 219.874 40.704 219.964 41.0189L226.288 63.0995C226.311 63.181 226.395 63.2287 226.477 63.2067C226.559 63.1849 226.608 63.1017 226.588 63.0196Z" fill="url(#paint18_linear_3113_6213)"/>
<circle cx="1.96193" cy="1.96193" r="1.96193" transform="matrix(-0.965926 0.258819 0.258819 0.965926 221.773 37.9688)" fill="url(#paint19_radial_3113_6213)"/>
<path d="M219.518 71.0699L196.681 73.5183C196.354 73.5533 196.12 73.8496 196.162 74.1753C196.203 74.5002 196.503 74.728 196.827 74.6809L219.557 71.3781C219.641 71.3659 219.699 71.2887 219.689 71.2046C219.678 71.1208 219.602 71.0609 219.518 71.0699Z" fill="url(#paint20_linear_3113_6213)"/>
<circle cx="1.96193" cy="1.96193" r="1.96193" transform="matrix(0.126815 0.991926 0.991926 -0.126815 194.039 72.4648)" fill="url(#paint21_radial_3113_6213)"/>
<path d="M223.848 59.4498L214.562 35.9098C214.429 35.5733 214.046 35.4115 213.712 35.5511C213.379 35.6904 213.225 36.0755 213.37 36.406L223.532 59.5813C223.57 59.6669 223.669 59.7065 223.755 59.6705C223.841 59.6346 223.883 59.5365 223.848 59.4498Z" fill="url(#paint22_linear_3113_6213)"/>
<circle cx="2.16156" cy="2.16156" r="2.16156" transform="matrix(-0.922572 0.385824 0.385824 0.922572 214.914 32.8125)" fill="url(#paint23_radial_3113_6213)"/>
<path d="M215.604 73.2457L191.03 79.288C190.679 79.3743 190.467 79.7324 190.561 80.0818C190.654 80.4305 191.015 80.635 191.362 80.5357L215.692 73.5764C215.782 73.5508 215.834 73.4579 215.81 73.3676C215.786 73.2777 215.694 73.2234 215.604 73.2457Z" fill="url(#paint24_linear_3113_6213)"/>
<circle cx="2.16156" cy="2.16156" r="2.16156" transform="matrix(0.25849 0.966014 0.966014 -0.25849 188 78.5352)" fill="url(#paint25_radial_3113_6213)"/>
<path d="M228.521 71.0378L220.597 56.0161C220.484 55.8014 220.216 55.7216 220.004 55.8393C219.792 55.9566 219.717 56.2249 219.838 56.4347L228.32 71.1488C228.352 71.2031 228.421 71.2223 228.475 71.1919C228.53 71.1616 228.551 71.0931 228.521 71.0378Z" fill="url(#paint26_linear_3113_6213)"/>
<circle cx="1.45073" cy="1.45073" r="1.45073" transform="matrix(-0.874793 0.484497 0.484497 0.874793 220.609 53.9258)" fill="url(#paint27_radial_3113_6213)"/>
<path d="M227.724 70.1875L211.775 76.0238C211.547 76.1072 211.432 76.3617 211.52 76.5879C211.608 76.8136 211.863 76.9235 212.088 76.8318L227.807 70.4017C227.865 70.378 227.893 70.3121 227.871 70.2537C227.848 70.1955 227.783 70.166 227.724 70.1875Z" fill="url(#paint28_linear_3113_6213)"/>
<circle cx="1.45073" cy="1.45073" r="1.45073" transform="matrix(0.362683 0.931913 0.931913 -0.362683 209.695 75.7344)" fill="url(#paint29_radial_3113_6213)"/>
<path d="M227.314 67.4397L214.429 54.8855C214.245 54.706 213.949 54.7129 213.774 54.9007C213.598 55.0881 213.611 55.3827 213.801 55.5548L227.148 67.6171C227.197 67.6616 227.273 67.6584 227.318 67.6099C227.364 67.5616 227.362 67.4859 227.314 67.4397Z" fill="url(#paint30_linear_3113_6213)"/>
<circle cx="1.53666" cy="1.53666" r="1.53666" transform="matrix(-0.683128 0.730299 0.730299 0.683128 213.75 52.7656)" fill="url(#paint31_radial_3113_6213)"/>
<path d="M223.914 70.9329L209.744 82.0161C209.541 82.1745 209.509 82.4684 209.671 82.6677C209.833 82.8666 210.127 82.8939 210.323 82.7283L224.068 71.1217C224.118 71.0788 224.125 71.0032 224.083 70.9518C224.042 70.9005 223.966 70.8921 223.914 70.9329Z" fill="url(#paint32_linear_3113_6213)"/>
<circle cx="1.53666" cy="1.53666" r="1.53666" transform="matrix(0.631989 0.774977 0.774977 -0.631989 207.586 82.3984)" fill="url(#paint33_radial_3113_6213)"/>
<path d="M221.783 64.2113L203.393 53.6043C203.13 53.4527 202.794 53.5466 202.648 53.8125C202.502 54.0778 202.602 54.4112 202.869 54.5526L221.644 64.4627C221.714 64.4993 221.8 64.4735 221.837 64.4049C221.875 64.3364 221.851 64.2504 221.783 64.2113Z" fill="url(#paint34_linear_3113_6213)"/>
<circle cx="1.81343" cy="1.81343" r="1.81343" transform="matrix(-0.48189 0.876232 0.876232 0.48189 202.031 51.3945)" fill="url(#paint35_radial_3113_6213)"/>
<path d="M217.255 64.4869L197.902 55.7585C197.626 55.6338 197.301 55.7606 197.181 56.0397C197.063 56.3182 197.195 56.64 197.476 56.7541L217.142 64.7508C217.215 64.7803 217.297 64.7462 217.328 64.6741C217.359 64.6023 217.326 64.519 217.255 64.4869Z" fill="url(#paint36_linear_3113_6213)"/>
<circle cx="1.81343" cy="1.81343" r="1.81343" transform="matrix(-0.392495 0.919754 0.919754 0.392495 196.297 53.6914)" fill="url(#paint37_radial_3113_6213)"/>
<path d="M225.517 67.6037L213.592 64.16C213.421 64.1108 213.244 64.2112 213.198 64.3826C213.152 64.5536 213.256 64.7289 213.428 64.7716L225.474 67.7659C225.518 67.7769 225.563 67.7503 225.575 67.706C225.587 67.6619 225.561 67.6164 225.517 67.6037Z" fill="url(#paint38_linear_3113_6213)"/>
<circle cx="1.06027" cy="1.06027" r="1.06027" transform="matrix(-0.257828 0.966191 0.966191 0.257828 212.461 63.0938)" fill="url(#paint39_radial_3113_6213)"/>
<path d="M230.224 70.3515L241.907 83.0749C242.074 83.2568 242.358 83.266 242.536 83.0954C242.714 82.9251 242.718 82.6419 242.545 82.4668L230.393 70.1903C230.348 70.145 230.275 70.144 230.229 70.1881C230.183 70.2321 230.181 70.3047 230.224 70.3515Z" fill="url(#paint40_linear_3113_6213)"/>
<circle cx="1.47547" cy="1.47547" r="1.47547" transform="matrix(0.722669 -0.691194 -0.691194 -0.722669 242.43 85.1367)" fill="url(#paint41_radial_3113_6213)"/>
<path d="M232.852 60.6725L243.176 43.1097C243.324 42.8586 243.237 42.5353 242.983 42.3929C242.729 42.2507 242.408 42.344 242.271 42.5998L232.612 60.5373C232.576 60.6035 232.6 60.6861 232.665 60.7228C232.731 60.7595 232.814 60.7371 232.852 60.6725Z" fill="url(#paint42_linear_3113_6213)"/>
<circle cx="1.74023" cy="1.74023" r="1.74023" transform="matrix(-0.872204 -0.489142 -0.489142 0.872204 245.297 41.7891)" fill="url(#paint43_radial_3113_6213)"/>
<path d="M227.117 78.4039L224.239 98.5725C224.198 98.8608 224.402 99.1266 224.691 99.1619C224.979 99.1971 225.24 98.989 225.271 98.7L227.39 78.4377C227.398 78.3629 227.345 78.2957 227.27 78.2866C227.196 78.2775 227.127 78.3296 227.117 78.4039Z" fill="url(#paint44_linear_3113_6213)"/>
<circle cx="1.74023" cy="1.74023" r="1.74023" transform="matrix(0.992643 0.121081 0.121081 -0.992643 222.75 100.605)" fill="url(#paint45_radial_3113_6213)"/>
<path d="M227.933 68.8363L242.64 54.7382C242.851 54.5367 242.854 54.2018 242.649 53.9957C242.443 53.7901 242.109 53.7927 241.907 54.0015L227.739 68.641C227.687 68.695 227.687 68.781 227.741 68.8342C227.794 68.8873 227.879 68.8882 227.933 68.8363Z" fill="url(#paint46_linear_3113_6213)"/>
<circle cx="1.74023" cy="1.74023" r="1.74023" transform="matrix(-0.706553 -0.70766 -0.70766 0.706553 245.07 54.0391)" fill="url(#paint47_radial_3113_6213)"/>
<path d="M228.502 68.9956L220.254 87.6243C220.136 87.8906 220.26 88.2018 220.528 88.3142C220.796 88.4264 221.104 88.2971 221.212 88.0272L228.756 69.1024C228.784 69.0326 228.75 68.9533 228.681 68.9243C228.612 68.8953 228.532 68.927 228.502 68.9956Z" fill="url(#paint48_linear_3113_6213)"/>
<circle cx="1.74023" cy="1.74023" r="1.74023" transform="matrix(0.922436 0.38615 0.38615 -0.922436 218.281 89.1797)" fill="url(#paint49_radial_3113_6213)"/>
<path d="M231.162 66.4838L240.431 61.3866C240.563 61.3138 240.61 61.1463 240.534 61.0153C240.459 60.8846 240.291 60.8411 240.162 60.9187L231.091 66.3597C231.057 66.3798 231.046 66.423 231.066 66.4568C231.085 66.4905 231.128 66.5025 231.162 66.4838Z" fill="url(#paint50_linear_3113_6213)"/>
<circle cx="0.903512" cy="0.903512" r="0.903512" transform="matrix(-0.499621 -0.866244 -0.866244 0.499621 241.742 61.3633)" fill="url(#paint51_radial_3113_6213)"/>
<path d="M235.398 65.9606L257.982 56.348C258.305 56.2106 258.452 55.8348 258.308 55.5148C258.164 55.1956 257.787 55.0561 257.47 55.2051L235.263 65.6576C235.181 65.6962 235.145 65.7933 235.182 65.8759C235.219 65.9583 235.315 65.996 235.398 65.9606Z" fill="url(#paint52_linear_3113_6213)"/>
<circle cx="2.09656" cy="2.09656" r="2.09656" transform="matrix(-0.410286 -0.911957 -0.911957 0.410286 261.023 56.6016)" fill="url(#paint53_radial_3113_6213)"/>
<path d="M235.664 66.4931L255.56 61.8323C255.844 61.7657 256.019 61.4784 255.946 61.1955C255.874 60.9131 255.584 60.7448 255.303 60.8219L235.596 66.2252C235.524 66.2452 235.48 66.3197 235.499 66.3928C235.518 66.4656 235.591 66.5102 235.664 66.4931Z" fill="url(#paint54_linear_3113_6213)"/>
<circle cx="1.74547" cy="1.74547" r="1.74547" transform="matrix(-0.247856 -0.968797 -0.968797 0.247856 258 62.4805)" fill="url(#paint55_radial_3113_6213)"/>
<path d="M228.151 69L247.831 69.0495C248.113 69.0502 248.34 68.8197 248.335 68.5384C248.33 68.2578 248.096 68.0357 247.815 68.0455L228.147 68.7339C228.074 68.7364 228.017 68.7967 228.018 68.8693C228.019 68.9417 228.078 68.9998 228.151 69Z" fill="url(#paint56_linear_3113_6213)"/>
<circle cx="1.68108" cy="1.68108" r="1.68108" transform="matrix(-0.0178398 -0.999841 -0.999841 0.0178398 249.977 70.1992)" fill="url(#paint57_radial_3113_6213)"/>
<path d="M229.274 69.4817L257.4 81.5072C257.802 81.6791 258.267 81.4872 258.431 81.0817C258.594 80.6772 258.394 80.2173 257.987 80.0609L229.429 69.0984C229.324 69.0579 229.206 69.1094 229.164 69.2141C229.121 69.3185 229.17 69.4375 229.274 69.4817Z" fill="url(#paint58_linear_3113_6213)"/>
<circle cx="2.6129" cy="2.6129" r="2.6129" transform="matrix(0.374329 -0.927296 -0.927296 -0.374329 259.766 84.4453)" fill="url(#paint59_radial_3113_6213)"/>
<path d="M233.136 71.2339L251.971 83.0707C252.24 83.2399 252.595 83.1549 252.759 82.8823C252.922 82.6103 252.831 82.2572 252.556 82.0986L233.291 70.9762C233.22 70.9352 233.129 70.9587 233.087 71.0291C233.045 71.0993 233.067 71.1903 233.136 71.2339Z" fill="url(#paint60_linear_3113_6213)"/>
<circle cx="1.90016" cy="1.90016" r="1.90016" transform="matrix(0.514763 -0.857333 -0.857333 -0.514763 253.344 85.4531)" fill="url(#paint61_radial_3113_6213)"/>
<path d="M231.845 69.6222L241.575 72.347C241.714 72.386 241.858 72.3031 241.894 72.1632C241.93 72.0237 241.845 71.8817 241.704 71.8481L231.879 69.4899C231.843 69.4812 231.806 69.5032 231.797 69.5393C231.788 69.5753 231.809 69.6121 231.845 69.6222Z" fill="url(#paint62_linear_3113_6213)"/>
<circle cx="0.863101" cy="0.863101" r="0.863101" transform="matrix(0.250015 -0.968242 -0.968242 -0.250015 242.492 73.2031)" fill="url(#paint63_radial_3113_6213)"/>
<path d="M65.6966 121.807L74.3147 102.053C74.4378 101.771 74.3051 101.443 74.0202 101.325C73.7361 101.208 73.4111 101.347 73.2988 101.633L65.4273 121.695C65.3983 121.769 65.4339 121.853 65.5075 121.883C65.5808 121.914 65.6649 121.88 65.6966 121.807Z" fill="url(#paint64_linear_3113_6213)"/>
<circle cx="1.8409" cy="1.8409" r="1.8409" transform="matrix(-0.924516 -0.381142 -0.381142 0.924516 76.4062 100.402)" fill="url(#paint65_radial_3113_6213)"/>
<path d="M64.6977 129.545L64.2309 151.091C64.2242 151.399 64.4719 151.653 64.7799 151.653C65.0873 151.653 65.3353 151.402 65.3304 151.094L64.9891 129.546C64.9879 129.466 64.9231 129.402 64.8436 129.402C64.7642 129.402 64.6994 129.465 64.6977 129.545Z" fill="url(#paint66_linear_3113_6213)"/>
<circle cx="1.8409" cy="1.8409" r="1.8409" transform="matrix(0.999999 0.00130398 0.00130398 -0.999999 62.9297 153.41)" fill="url(#paint67_radial_3113_6213)"/>
<path d="M64.395 126.176L66.7283 115.729C66.7617 115.58 66.6658 115.432 66.5159 115.402C66.3662 115.372 66.2209 115.47 66.1932 115.62L64.2532 126.147C64.246 126.186 64.2713 126.223 64.31 126.231C64.3487 126.239 64.3864 126.214 64.395 126.176Z" fill="url(#paint68_linear_3113_6213)"/>
<circle cx="0.914325" cy="0.914325" r="0.914325" transform="matrix(-0.980188 -0.198071 -0.198071 0.980188 67.5859 114.727)" fill="url(#paint69_radial_3113_6213)"/>
<path d="M64.228 125.019L66.0388 135.569C66.0647 135.72 66.2094 135.82 66.3596 135.791C66.5095 135.762 66.6066 135.616 66.5752 135.467L64.3702 124.992C64.3621 124.953 64.3245 124.928 64.2857 124.936C64.247 124.943 64.2214 124.98 64.228 125.019Z" fill="url(#paint70_linear_3113_6213)"/>
<circle cx="0.914325" cy="0.914325" r="0.914325" transform="matrix(0.98194 -0.189191 -0.189191 -0.98194 65.6328 136.82)" fill="url(#paint71_radial_3113_6213)"/>
<path d="M64.2119 127.699L64.5308 112.037C64.5353 111.813 64.3551 111.629 64.1311 111.629C63.9077 111.629 63.7277 111.812 63.7315 112.035L64 127.699C64.001 127.757 64.0482 127.803 64.106 127.803C64.1636 127.803 64.2107 127.757 64.2119 127.699Z" fill="url(#paint72_linear_3113_6213)"/>
<circle cx="1.33816" cy="1.33816" r="1.33816" transform="matrix(-1 0 0 1 65.4844 110.352)" fill="url(#paint73_radial_3113_6213)"/>
<path d="M64.7405 126.907L49.2624 124.489C49.0412 124.454 48.8347 124.608 48.8046 124.83C48.7746 125.051 48.932 125.254 49.1538 125.281L64.7117 127.117C64.7691 127.124 64.8213 127.083 64.8291 127.026C64.8368 126.969 64.7974 126.916 64.7405 126.907Z" fill="url(#paint74_linear_3113_6213)"/>
<circle cx="1.33816" cy="1.33816" r="1.33816" transform="matrix(-0.134236 0.990949 0.990949 0.134236 47.7266 123.332)" fill="url(#paint75_radial_3113_6213)"/>
<path d="M63.3121 121.522L59.5663 106.31C59.5127 106.093 59.291 105.962 59.0747 106.02C58.8589 106.077 58.7324 106.301 58.7939 106.516L63.1073 121.576C63.1233 121.632 63.1808 121.664 63.2366 121.649C63.2923 121.634 63.3259 121.578 63.3121 121.522Z" fill="url(#paint76_linear_3113_6213)"/>
<circle cx="1.33816" cy="1.33816" r="1.33816" transform="matrix(-0.965926 0.258819 0.258819 0.965926 60.0312 104.434)" fill="url(#paint77_radial_3113_6213)"/>
<path d="M58.5056 127.009L42.929 128.679C42.7064 128.703 42.5468 128.905 42.5752 129.127C42.6035 129.349 42.808 129.504 43.0291 129.472L58.5322 127.219C58.5894 127.211 58.6294 127.158 58.622 127.101C58.6147 127.044 58.563 127.003 58.5056 127.009Z" fill="url(#paint78_linear_3113_6213)"/>
<circle cx="1.33816" cy="1.33816" r="1.33816" transform="matrix(0.126815 0.991926 0.991926 -0.126815 41.125 127.961)" fill="url(#paint79_radial_3113_6213)"/>
<path d="M61.4519 119.087L55.118 103.031C55.0275 102.802 54.7661 102.691 54.5385 102.787C54.3114 102.882 54.2062 103.144 54.3051 103.37L61.2364 119.177C61.2619 119.235 61.3295 119.262 61.3883 119.238C61.4469 119.213 61.4752 119.146 61.4519 119.087Z" fill="url(#paint80_linear_3113_6213)"/>
<circle cx="1.47432" cy="1.47432" r="1.47432" transform="matrix(-0.922572 0.385824 0.385824 0.922572 55.3594 100.918)" fill="url(#paint81_radial_3113_6213)"/>
<path d="M55.8299 128.498L39.0692 132.619C38.8297 132.678 38.6852 132.922 38.749 133.161C38.8126 133.399 39.0588 133.538 39.2955 133.47L55.8899 128.724C55.9511 128.706 55.987 128.643 55.9705 128.581C55.9541 128.52 55.8916 128.483 55.8299 128.498Z" fill="url(#paint82_linear_3113_6213)"/>
<circle cx="1.47432" cy="1.47432" r="1.47432" transform="matrix(0.25849 0.966014 0.966014 -0.25849 37 132.105)" fill="url(#paint83_radial_3113_6213)"/>
<path d="M64.6395 126.993L59.2345 116.747C59.1572 116.601 58.9747 116.546 58.8299 116.627C58.6854 116.707 58.6345 116.89 58.717 117.033L64.5023 127.069C64.5237 127.106 64.5707 127.119 64.6081 127.098C64.6454 127.077 64.6594 127.031 64.6395 126.993Z" fill="url(#paint84_linear_3113_6213)"/>
<circle cx="0.98949" cy="0.98949" r="0.98949" transform="matrix(-0.874793 0.484497 0.484497 0.874793 59.2422 115.32)" fill="url(#paint85_radial_3113_6213)"/>
<path d="M64.0993 126.412L53.2208 130.392C53.0653 130.449 52.9868 130.623 53.0469 130.777C53.1068 130.931 53.2813 131.006 53.4342 130.944L64.1559 126.558C64.1955 126.542 64.2147 126.497 64.1992 126.457C64.1838 126.417 64.1394 126.397 64.0993 126.412Z" fill="url(#paint86_linear_3113_6213)"/>
<circle cx="0.98949" cy="0.98949" r="0.98949" transform="matrix(0.362683 0.931913 0.931913 -0.362683 51.8047 130.195)" fill="url(#paint87_radial_3113_6213)"/>
<path d="M63.822 124.532L55.0335 115.969C54.9079 115.847 54.7062 115.851 54.5864 115.979C54.4669 116.107 54.4753 116.308 54.6051 116.426L63.7084 124.653C63.742 124.683 63.7937 124.681 63.8247 124.648C63.8555 124.615 63.8543 124.563 63.822 124.532Z" fill="url(#paint88_linear_3113_6213)"/>
<circle cx="1.0481" cy="1.0481" r="1.0481" transform="matrix(-0.683128 0.730299 0.730299 0.683128 54.5703 114.523)" fill="url(#paint89_radial_3113_6213)"/>
<path d="M61.4948 126.919L51.8298 134.479C51.6916 134.587 51.6692 134.787 51.78 134.923C51.8906 135.059 52.0909 135.078 52.2246 134.965L61.5994 127.048C61.634 127.019 61.6388 126.967 61.6102 126.932C61.5817 126.897 61.5303 126.892 61.4948 126.919Z" fill="url(#paint90_linear_3113_6213)"/>
<circle cx="1.0481" cy="1.0481" r="1.0481" transform="matrix(0.631989 0.774977 0.774977 -0.631989 50.3594 134.738)" fill="url(#paint91_radial_3113_6213)"/>
<path d="M60.0418 122.337L47.4985 115.102C47.3192 114.999 47.0899 115.063 46.9902 115.244C46.8907 115.425 46.9588 115.653 47.1414 115.749L59.9472 122.509C59.9944 122.533 60.0529 122.516 60.0787 122.469C60.1044 122.422 60.088 122.364 60.0418 122.337Z" fill="url(#paint92_linear_3113_6213)"/>
<circle cx="1.23688" cy="1.23688" r="1.23688" transform="matrix(-0.48189 0.876232 0.876232 0.48189 46.5703 113.594)" fill="url(#paint93_radial_3113_6213)"/>
<path d="M56.9575 122.518L43.7578 116.565C43.5691 116.48 43.3473 116.567 43.2661 116.757C43.185 116.947 43.2754 117.166 43.4667 117.244L56.8804 122.698C56.9299 122.719 56.9864 122.695 57.0073 122.646C57.0283 122.597 57.0061 122.54 56.9575 122.518Z" fill="url(#paint94_linear_3113_6213)"/>
<circle cx="1.23688" cy="1.23688" r="1.23688" transform="matrix(-0.392495 0.919754 0.919754 0.392495 42.6641 115.156)" fill="url(#paint95_radial_3113_6213)"/>
<path d="M62.5878 124.648L54.454 122.299C54.3377 122.266 54.2166 122.334 54.1853 122.451C54.1542 122.568 54.2248 122.687 54.3419 122.717L62.5581 124.759C62.5884 124.766 62.6192 124.748 62.6272 124.718C62.6353 124.688 62.6177 124.657 62.5878 124.648Z" fill="url(#paint96_linear_3113_6213)"/>
<circle cx="0.723169" cy="0.723169" r="0.723169" transform="matrix(-0.257828 0.966191 0.966191 0.257828 53.6797 121.57)" fill="url(#paint97_radial_3113_6213)"/>
<path d="M65.8007 126.522L73.7691 135.2C73.883 135.324 74.0766 135.33 74.1983 135.214C74.3197 135.098 74.3223 134.904 74.2041 134.785L65.916 126.412C65.8854 126.381 65.8357 126.38 65.8043 126.41C65.773 126.44 65.7714 126.49 65.8007 126.522Z" fill="url(#paint98_linear_3113_6213)"/>
<circle cx="1.00637" cy="1.00637" r="1.00637" transform="matrix(0.722669 -0.691194 -0.691194 -0.722669 74.125 136.605)" fill="url(#paint99_radial_3113_6213)"/>
<path d="M67.5947 119.92L74.6369 107.941C74.7376 107.77 74.678 107.549 74.5047 107.452C74.3319 107.355 74.1131 107.419 74.0192 107.593L67.431 119.828C67.4067 119.873 67.423 119.929 67.4678 119.954C67.5124 119.979 67.5688 119.964 67.5947 119.92Z" fill="url(#paint100_linear_3113_6213)"/>
<circle cx="1.18694" cy="1.18694" r="1.18694" transform="matrix(-0.872204 -0.489142 -0.489142 0.872204 76.0859 107.039)" fill="url(#paint101_radial_3113_6213)"/>
<path d="M63.6781 132.014L61.7152 145.771C61.6871 145.967 61.8261 146.149 62.0232 146.173C62.2199 146.197 62.3981 146.055 62.4188 145.858L63.8646 132.037C63.8699 131.986 63.8334 131.941 63.7825 131.934C63.7317 131.928 63.6853 131.964 63.6781 132.014Z" fill="url(#paint102_linear_3113_6213)"/>
<circle cx="1.18694" cy="1.18694" r="1.18694" transform="matrix(0.992643 0.121081 0.121081 -0.992643 60.7031 147.156)" fill="url(#paint103_radial_3113_6213)"/>
<path d="M64.2311 125.487L74.2622 115.871C74.4056 115.734 74.4081 115.506 74.2678 115.365C74.1278 115.225 73.9 115.227 73.7621 115.369L64.0985 125.354C64.0628 125.391 64.0633 125.45 64.0995 125.486C64.1357 125.522 64.1941 125.523 64.2311 125.487Z" fill="url(#paint104_linear_3113_6213)"/>
<circle cx="1.18694" cy="1.18694" r="1.18694" transform="matrix(-0.706553 -0.70766 -0.70766 0.706553 75.9219 115.395)" fill="url(#paint105_radial_3113_6213)"/>
<path d="M64.6236 125.596L58.998 138.302C58.9176 138.484 59.0021 138.696 59.1853 138.773C59.3681 138.849 59.5782 138.761 59.6516 138.577L64.7968 125.669C64.8158 125.621 64.7931 125.567 64.7458 125.547C64.6986 125.528 64.6443 125.549 64.6236 125.596Z" fill="url(#paint106_linear_3113_6213)"/>
<circle cx="1.18694" cy="1.18694" r="1.18694" transform="matrix(0.922436 0.38615 0.38615 -0.922436 57.6562 139.363)" fill="url(#paint107_radial_3113_6213)"/>
<path d="M66.4435 123.883L72.7651 120.407C72.8554 120.357 72.8874 120.243 72.8358 120.154C72.7844 120.065 72.6699 120.035 72.5817 120.088L66.3949 123.799C66.3721 123.813 66.3644 123.842 66.3777 123.865C66.391 123.888 66.4202 123.896 66.4435 123.883Z" fill="url(#paint108_linear_3113_6213)"/>
<circle cx="0.616252" cy="0.616252" r="0.616252" transform="matrix(-0.499621 -0.866244 -0.866244 0.499621 73.6562 120.391)" fill="url(#paint109_radial_3113_6213)"/>
<path d="M69.3359 123.524L84.7395 116.968C84.9597 116.874 85.06 116.618 84.9618 116.399C84.8638 116.182 84.6064 116.086 84.3904 116.188L69.2433 123.317C69.1874 123.344 69.1629 123.41 69.1883 123.466C69.2136 123.522 69.2792 123.548 69.3359 123.524Z" fill="url(#paint110_linear_3113_6213)"/>
<circle cx="1.42999" cy="1.42999" r="1.42999" transform="matrix(-0.410286 -0.911957 -0.911957 0.410286 86.8125 117.141)" fill="url(#paint111_radial_3113_6213)"/>
<path d="M69.5141 123.891L83.0842 120.712C83.2781 120.666 83.3969 120.47 83.3475 120.277C83.2983 120.085 83.1007 119.97 82.909 120.023L69.4676 123.708C69.418 123.722 69.3885 123.772 69.4012 123.822C69.414 123.872 69.4641 123.902 69.5141 123.891Z" fill="url(#paint112_linear_3113_6213)"/>
<circle cx="1.19052" cy="1.19052" r="1.19052" transform="matrix(-0.247856 -0.968797 -0.968797 0.247856 84.75 121.152)" fill="url(#paint113_radial_3113_6213)"/>
<path d="M64.3835 125.598L77.8067 125.632C77.9986 125.632 78.1534 125.475 78.15 125.283C78.1466 125.092 77.9869 124.94 77.7956 124.947L64.3805 125.417C64.331 125.418 64.2921 125.459 64.2929 125.509C64.2938 125.558 64.3341 125.598 64.3835 125.598Z" fill="url(#paint114_linear_3113_6213)"/>
<circle cx="1.1466" cy="1.1466" r="1.1466" transform="matrix(-0.0178398 -0.999841 -0.999841 0.0178398 79.2734 126.418)" fill="url(#paint115_radial_3113_6213)"/>
<path d="M65.1524 125.932L84.3364 134.134C84.6106 134.251 84.9277 134.12 85.0393 133.844C85.1507 133.568 85.0143 133.254 84.7365 133.148L65.2585 125.67C65.1866 125.643 65.1059 125.678 65.077 125.749C65.0483 125.821 65.0818 125.902 65.1524 125.932Z" fill="url(#paint116_linear_3113_6213)"/>
<circle cx="1.78216" cy="1.78216" r="1.78216" transform="matrix(0.374329 -0.927296 -0.927296 -0.374329 85.9531 136.137)" fill="url(#paint117_radial_3113_6213)"/>
<path d="M67.7879 127.123L80.6342 135.196C80.8179 135.311 81.0605 135.253 81.1721 135.068C81.2835 134.882 81.2212 134.641 81.0338 134.533L67.8938 126.947C67.8453 126.919 67.7834 126.935 67.7546 126.983C67.7258 127.031 67.7406 127.093 67.7879 127.123Z" fill="url(#paint118_linear_3113_6213)"/>
<circle cx="1.29603" cy="1.29603" r="1.29603" transform="matrix(0.514763 -0.857333 -0.857333 -0.514763 81.5703 136.82)" fill="url(#paint119_radial_3113_6213)"/>
<path d="M66.9095 126.027L73.5459 127.885C73.6408 127.912 73.739 127.855 73.7636 127.76C73.7882 127.665 73.73 127.568 73.6344 127.545L66.9329 125.936C66.9082 125.931 66.8833 125.946 66.8769 125.97C66.8706 125.995 66.885 126.02 66.9095 126.027Z" fill="url(#paint120_linear_3113_6213)"/>
<circle cx="0.588689" cy="0.588689" r="0.588689" transform="matrix(0.250015 -0.968242 -0.968242 -0.250015 74.1719 128.469)" fill="url(#paint121_radial_3113_6213)"/>
<g filter="url(#filter1_d_3113_6213)">
<path d="M184.519 164.412C184.604 163.863 185.396 163.863 185.481 164.412L186.079 168.262C186.372 170.149 187.851 171.628 189.738 171.921L193.588 172.519C194.137 172.604 194.137 173.396 193.588 173.481L189.738 174.079C187.851 174.372 186.372 175.851 186.079 177.738L185.481 181.588C185.396 182.137 184.604 182.137 184.519 181.588L183.921 177.738C183.628 175.851 182.149 174.372 180.262 174.079L176.412 173.481C175.863 173.396 175.863 172.604 176.412 172.519L180.262 171.921C182.149 171.628 183.628 170.149 183.921 168.262L184.519 164.412Z" fill="url(#paint122_linear_3113_6213)"/>
</g>
<g filter="url(#filter2_d_3113_6213)">
<path d="M89.6257 63.3207C89.6921 62.8931 90.308 62.8931 90.3743 63.3207L90.839 66.315C91.0667 67.7822 92.2178 68.9333 93.685 69.161L96.6793 69.6257C97.1069 69.692 97.1069 70.308 96.6793 70.3743L93.685 70.839C92.2178 71.0667 91.0667 72.2178 90.839 73.685L90.3743 76.6793C90.308 77.1069 89.6921 77.1069 89.6257 76.6793L89.161 73.685C88.9333 72.2178 87.7822 71.0667 86.315 70.839L83.3207 70.3743C82.8931 70.308 82.8931 69.6921 83.3207 69.6257L86.315 69.161C87.7822 68.9333 88.9333 67.7822 89.161 66.315L89.6257 63.3207Z" fill="url(#paint123_linear_3113_6213)"/>
</g>
<rect width="27.3083" height="26.8908" rx="5.74105" transform="matrix(0.866025 0.5 -0.866025 0.5 72.3516 214.633)" fill="#7D97C2"/>
<mask id="path-141-outside-1_3113_6213" maskUnits="userSpaceOnUse" x="70.4062" y="225.828" width="5" height="4" fill="black">
<rect fill="white" x="70.4062" y="225.828" width="5" height="4"/>
<path d="M71.4069 227.855C71.407 227.82 71.4235 227.788 71.4513 227.768C72.231 227.207 73.2826 227.207 74.0622 227.768C74.0903 227.788 74.1068 227.821 74.1067 227.855L74.1063 227.932C74.1062 227.973 74.0934 228.012 74.07 228.045C73.4263 228.946 72.0865 228.947 71.4429 228.046C71.4191 228.012 71.4063 227.972 71.4065 227.932L71.4069 227.855Z"/>
</mask>
<path d="M71.4069 227.855C71.407 227.82 71.4235 227.788 71.4513 227.768C72.231 227.207 73.2826 227.207 74.0622 227.768C74.0903 227.788 74.1068 227.821 74.1067 227.855L74.1063 227.932C74.1062 227.973 74.0934 228.012 74.07 228.045C73.4263 228.946 72.0865 228.947 71.4429 228.046C71.4191 228.012 71.4063 227.972 71.4065 227.932L71.4069 227.855Z" fill="url(#paint124_linear_3113_6213)"/>
<path d="M71.4065 227.932L70.5939 227.928L71.4065 227.932ZM74.1063 227.932L74.9189 227.936L74.1063 227.932ZM74.1067 227.855L73.2941 227.852L74.1067 227.855ZM73.2941 227.852L73.2937 227.929L74.9189 227.936L74.9193 227.859L73.2941 227.852ZM72.2191 227.935L72.2195 227.858L70.5943 227.851L70.5939 227.928L72.2191 227.935ZM71.9261 228.428C72.4223 228.07 73.0916 228.07 73.5874 228.427L74.5371 227.108C73.4736 226.343 72.0396 226.343 70.9765 227.109L71.9261 228.428ZM73.4087 227.573C73.0887 228.021 72.4233 228.02 72.1041 227.574L70.7816 228.518C71.7498 229.874 73.7639 229.872 74.7312 228.517L73.4087 227.573ZM70.5939 227.928C70.593 228.14 70.6587 228.346 70.7816 228.518L72.1041 227.574C72.1795 227.679 72.2197 227.805 72.2191 227.935L70.5939 227.928ZM73.2937 227.929C73.2943 227.801 73.3345 227.677 73.4087 227.573L74.7312 228.517C74.8524 228.348 74.918 228.145 74.9189 227.936L73.2937 227.929ZM74.9193 227.859C74.9206 227.561 74.7782 227.282 74.5371 227.108L73.5874 228.427C73.4024 228.294 73.2931 228.08 73.2941 227.852L74.9193 227.859ZM72.2195 227.858C72.2185 228.084 72.1093 228.296 71.9261 228.428L70.9765 227.109C70.7378 227.281 70.5955 227.557 70.5943 227.851L72.2195 227.858Z" fill="#031A30" mask="url(#path-141-outside-1_3113_6213)"/>
<path d="M71.4062 205.855H74.1061V227.994C73.4445 228.92 72.0679 228.92 71.4062 227.994V205.855Z" fill="url(#paint125_linear_3113_6213)"/>
<path d="M71.4062 205.855H74.1061V227.994C73.4445 228.92 72.0679 228.92 71.4062 227.994V205.855Z" fill="url(#paint126_linear_3113_6213)"/>
<path d="M85.2219 212.823C85.2219 217.893 78.0883 221.031 73.0187 221.031C67.949 221.031 60.4375 216.921 60.4375 211.852C60.4375 206.782 67.949 174 73.0187 174C78.0883 174 85.2219 207.754 85.2219 212.823Z" fill="url(#paint127_radial_3113_6213)"/>
<rect width="27.3083" height="26.8908" rx="5.74105" transform="matrix(0.866025 0.5 -0.866025 0.5 38.2891 195.375)" fill="#7D97C2"/>
<mask id="path-146-outside-2_3113_6213" maskUnits="userSpaceOnUse" x="36.5938" y="206.855" width="5" height="4" fill="black">
<rect fill="white" x="36.5938" y="206.855" width="5" height="4"/>
<path d="M37.5943 208.714C37.5944 208.685 37.6082 208.658 37.6314 208.641C38.2833 208.172 39.1625 208.172 39.8143 208.641C39.8378 208.658 39.8516 208.685 39.8515 208.714L39.8512 208.779C39.8511 208.813 39.8404 208.845 39.8208 208.873C39.2826 209.626 38.1625 209.627 37.6244 208.874C37.6045 208.846 37.5938 208.812 37.594 208.778L37.5943 208.714Z"/>
</mask>
<path d="M37.5943 208.714C37.5944 208.685 37.6082 208.658 37.6314 208.641C38.2833 208.172 39.1625 208.172 39.8143 208.641C39.8378 208.658 39.8516 208.685 39.8515 208.714L39.8512 208.779C39.8511 208.813 39.8404 208.845 39.8208 208.873C39.2826 209.626 38.1625 209.627 37.6244 208.874C37.6045 208.846 37.5938 208.812 37.594 208.778L37.5943 208.714Z" fill="url(#paint128_linear_3113_6213)"/>
<path d="M39.8512 208.779L39.0386 208.775L39.8512 208.779ZM39.8515 208.714L40.6641 208.718L39.8515 208.714ZM39.0389 208.711L39.0386 208.775L40.6638 208.782L40.6641 208.718L39.0389 208.711ZM38.4066 208.781L38.4069 208.717L36.7817 208.71L36.7814 208.774L38.4066 208.781ZM38.1062 209.301C38.4746 209.036 38.9715 209.036 39.3395 209.301L40.2891 207.982C39.3535 207.308 38.0919 207.309 37.1566 207.982L38.1062 209.301ZM39.1595 208.401C38.9451 208.701 38.4993 208.7 38.2856 208.401L36.9631 209.346C37.8257 210.554 39.6202 210.552 40.482 209.345L39.1595 208.401ZM36.7814 208.774C36.7805 208.979 36.8441 209.179 36.9631 209.346L38.2856 208.401C38.3648 208.512 38.4072 208.645 38.4066 208.781L36.7814 208.774ZM39.0386 208.775C39.0392 208.641 39.0815 208.51 39.1595 208.401L40.482 209.345C40.5993 209.181 40.6629 208.984 40.6638 208.782L39.0386 208.775ZM40.6641 208.718C40.6653 208.426 40.5257 208.152 40.2891 207.982L39.3395 209.301C39.1499 209.164 39.0379 208.944 39.0389 208.711L40.6641 208.718ZM38.4069 208.717C38.4058 208.949 38.294 209.166 38.1062 209.301L37.1566 207.982C36.9224 208.151 36.7829 208.421 36.7817 208.71L38.4069 208.717Z" fill="#031A30" mask="url(#path-146-outside-2_3113_6213)"/>
<path d="M37.5938 190.32H39.851V208.83C39.2978 209.604 38.1469 209.604 37.5938 208.83V190.32Z" fill="url(#paint129_linear_3113_6213)"/>
<path d="M37.5938 190.32H39.851V208.83C39.2978 209.604 38.1469 209.604 37.5938 208.83V190.32Z" fill="url(#paint130_linear_3113_6213)"/>
<circle cx="38.9402" cy="191.675" r="7.67458" fill="url(#paint131_radial_3113_6213)"/>
<rect width="27.3083" height="26.8908" rx="5.74105" transform="matrix(0.866025 0.5 -0.866025 0.5 256.289 197.375)" fill="#7D97C2"/>
<mask id="path-151-outside-3_3113_6213" maskUnits="userSpaceOnUse" x="254.594" y="208.855" width="5" height="4" fill="black">
<rect fill="white" x="254.594" y="208.855" width="5" height="4"/>
<path d="M255.594 210.714C255.594 210.685 255.608 210.658 255.631 210.641C256.283 210.172 257.163 210.172 257.814 210.641C257.838 210.658 257.852 210.685 257.851 210.714L257.851 210.779C257.851 210.813 257.84 210.845 257.821 210.873C257.283 211.626 256.163 211.627 255.624 210.874C255.604 210.846 255.594 210.812 255.594 210.778L255.594 210.714Z"/>
</mask>
<path d="M255.594 210.714C255.594 210.685 255.608 210.658 255.631 210.641C256.283 210.172 257.163 210.172 257.814 210.641C257.838 210.658 257.852 210.685 257.851 210.714L257.851 210.779C257.851 210.813 257.84 210.845 257.821 210.873C257.283 211.626 256.163 211.627 255.624 210.874C255.604 210.846 255.594 210.812 255.594 210.778L255.594 210.714Z" fill="url(#paint132_linear_3113_6213)"/>
<path d="M257.851 210.779L257.039 210.775L257.851 210.779ZM257.851 210.714L258.664 210.718L257.851 210.714ZM257.039 210.711L257.039 210.775L258.664 210.782L258.664 210.718L257.039 210.711ZM256.407 210.781L256.407 210.717L254.782 210.71L254.781 210.774L256.407 210.781ZM256.106 211.301C256.475 211.036 256.972 211.036 257.34 211.301L258.289 209.982C257.354 209.308 256.092 209.309 255.157 209.982L256.106 211.301ZM257.16 210.401C256.945 210.701 256.499 210.7 256.286 210.401L254.963 211.346C255.826 212.554 257.62 212.552 258.482 211.345L257.16 210.401ZM254.781 210.774C254.78 210.979 254.844 211.179 254.963 211.346L256.286 210.401C256.365 210.512 256.407 210.645 256.407 210.781L254.781 210.774ZM257.039 210.775C257.039 210.641 257.081 210.51 257.16 210.401L258.482 211.345C258.599 211.181 258.663 210.984 258.664 210.782L257.039 210.775ZM258.664 210.718C258.665 210.426 258.526 210.152 258.289 209.982L257.34 211.301C257.15 211.164 257.038 210.944 257.039 210.711L258.664 210.718ZM256.407 210.717C256.406 210.949 256.294 211.166 256.106 211.301L255.157 209.982C254.922 210.151 254.783 210.421 254.782 210.71L256.407 210.717Z" fill="#031A30" mask="url(#path-151-outside-3_3113_6213)"/>
<path d="M255.594 192.32H257.851V210.83C257.298 211.604 256.147 211.604 255.594 210.83V192.32Z" fill="url(#paint133_linear_3113_6213)"/>
<path d="M255.594 192.32H257.851V210.83C257.298 211.604 256.147 211.604 255.594 210.83V192.32Z" fill="url(#paint134_linear_3113_6213)"/>
<circle cx="256.94" cy="193.675" r="7.67458" fill="url(#paint135_radial_3113_6213)"/>
<rect width="27.3083" height="26.8908" rx="5.74105" transform="matrix(0.866025 0.5 -0.866025 0.5 226.352 216.633)" fill="#7D97C2"/>
<mask id="path-156-outside-4_3113_6213" maskUnits="userSpaceOnUse" x="224.406" y="227.828" width="5" height="4" fill="black">
<rect fill="white" x="224.406" y="227.828" width="5" height="4"/>
<path d="M225.407 229.855C225.407 229.82 225.424 229.788 225.451 229.768C226.231 229.207 227.283 229.207 228.062 229.768C228.09 229.788 228.107 229.821 228.107 229.855L228.106 229.932C228.106 229.973 228.093 230.012 228.07 230.045C227.426 230.946 226.087 230.947 225.443 230.046C225.419 230.012 225.406 229.972 225.407 229.932L225.407 229.855Z"/>
</mask>
<path d="M225.407 229.855C225.407 229.82 225.424 229.788 225.451 229.768C226.231 229.207 227.283 229.207 228.062 229.768C228.09 229.788 228.107 229.821 228.107 229.855L228.106 229.932C228.106 229.973 228.093 230.012 228.07 230.045C227.426 230.946 226.087 230.947 225.443 230.046C225.419 230.012 225.406 229.972 225.407 229.932L225.407 229.855Z" fill="url(#paint136_linear_3113_6213)"/>
<path d="M225.407 229.932L224.594 229.928L225.407 229.932ZM228.106 229.932L228.919 229.936L228.106 229.932ZM228.107 229.855L227.294 229.852L228.107 229.855ZM227.294 229.852L227.294 229.929L228.919 229.936L228.919 229.859L227.294 229.852ZM226.219 229.935L226.219 229.858L224.594 229.851L224.594 229.928L226.219 229.935ZM225.926 230.428C226.422 230.07 227.092 230.07 227.587 230.427L228.537 229.108C227.474 228.343 226.04 228.343 224.977 229.109L225.926 230.428ZM227.409 229.573C227.089 230.021 226.423 230.02 226.104 229.574L224.782 230.518C225.75 231.874 227.764 231.872 228.731 230.517L227.409 229.573ZM224.594 229.928C224.593 230.14 224.659 230.346 224.782 230.518L226.104 229.574C226.179 229.679 226.22 229.805 226.219 229.935L224.594 229.928ZM227.294 229.929C227.294 229.801 227.335 229.677 227.409 229.573L228.731 230.517C228.852 230.348 228.918 230.145 228.919 229.936L227.294 229.929ZM228.919 229.859C228.921 229.561 228.778 229.282 228.537 229.108L227.587 230.427C227.402 230.294 227.293 230.08 227.294 229.852L228.919 229.859ZM226.219 229.858C226.218 230.084 226.109 230.296 225.926 230.428L224.977 229.109C224.738 229.281 224.596 229.557 224.594 229.851L226.219 229.858Z" fill="#031A30" mask="url(#path-156-outside-4_3113_6213)"/>
<path d="M225.406 207.855H228.106V229.994C227.444 230.92 226.068 230.92 225.406 229.994V207.855Z" fill="url(#paint137_linear_3113_6213)"/>
<path d="M225.406 207.855H228.106V229.994C227.444 230.92 226.068 230.92 225.406 229.994V207.855Z" fill="url(#paint138_linear_3113_6213)"/>
<path d="M239.222 214.823C239.222 219.893 232.088 223.031 227.019 223.031C221.949 223.031 214.438 218.921 214.438 213.852C214.438 208.782 221.949 176 227.019 176C232.088 176 239.222 209.754 239.222 214.823Z" fill="url(#paint139_radial_3113_6213)"/>
<defs>
<filter id="filter0_d_3113_6213" x="193" y="79" width="52" height="52" filterUnits="userSpaceOnUse" color-interpolation-filters="sRGB">
<feFlood flood-opacity="0" result="BackgroundImageFix"/>
<feColorMatrix in="SourceAlpha" type="matrix" values="0 0 0 0 0 0 0 0 0 0 0 0 0 0 0 0 0 0 127 0" result="hardAlpha"/>
<feOffset/>
<feGaussianBlur stdDeviation="10"/>
<feComposite in2="hardAlpha" operator="out"/>
<feColorMatrix type="matrix" values="0 0 0 0 1 0 0 0 0 1 0 0 0 0 1 0 0 0 1 0"/>
<feBlend mode="normal" in2="BackgroundImageFix" result="effect1_dropShadow_3113_6213"/>
<feBlend mode="normal" in="SourceGraphic" in2="effect1_dropShadow_3113_6213" result="shape"/>
</filter>
<filter id="filter1_d_3113_6213" x="156" y="144" width="58" height="58" filterUnits="userSpaceOnUse" color-interpolation-filters="sRGB">
<feFlood flood-opacity="0" result="BackgroundImageFix"/>
<feColorMatrix in="SourceAlpha" type="matrix" values="0 0 0 0 0 0 0 0 0 0 0 0 0 0 0 0 0 0 127 0" result="hardAlpha"/>
<feOffset/>
<feGaussianBlur stdDeviation="10"/>
<feComposite in2="hardAlpha" operator="out"/>
<feColorMatrix type="matrix" values="0 0 0 0 1 0 0 0 0 1 0 0 0 0 1 0 0 0 1 0"/>
<feBlend mode="normal" in2="BackgroundImageFix" result="effect1_dropShadow_3113_6213"/>
<feBlend mode="normal" in="SourceGraphic" in2="effect1_dropShadow_3113_6213" result="shape"/>
</filter>
<filter id="filter2_d_3113_6213" x="63" y="43" width="54" height="54" filterUnits="userSpaceOnUse" color-interpolation-filters="sRGB">
<feFlood flood-opacity="0" result="BackgroundImageFix"/>
<feColorMatrix in="SourceAlpha" type="matrix" values="0 0 0 0 0 0 0 0 0 0 0 0 0 0 0 0 0 0 127 0" result="hardAlpha"/>
<feOffset/>
<feGaussianBlur stdDeviation="10"/>
<feComposite in2="hardAlpha" operator="out"/>
<feColorMatrix type="matrix" values="0 0 0 0 1 0 0 0 0 1 0 0 0 0 1 0 0 0 1 0"/>
<feBlend mode="normal" in2="BackgroundImageFix" result="effect1_dropShadow_3113_6213"/>
<feBlend mode="normal" in="SourceGraphic" in2="effect1_dropShadow_3113_6213" result="shape"/>
</filter>
<linearGradient id="paint0_linear_3113_6213" x1="166.121" y1="99.792" x2="166.121" y2="167.604" gradientUnits="userSpaceOnUse">
<stop stop-color="#08F7DB"/>
<stop offset="1" stop-color="#0F81F0"/>
</linearGradient>
<linearGradient id="paint1_linear_3113_6213" x1="142.902" y1="113.722" x2="142.902" y2="181.534" gradientUnits="userSpaceOnUse">
<stop stop-color="#08F7DB"/>
<stop offset="1" stop-color="#0F81F0"/>
</linearGradient>
<linearGradient id="paint2_linear_3113_6213" x1="119.016" y1="85.5815" x2="119.016" y2="164.741" gradientUnits="userSpaceOnUse">
<stop stop-color="#08F7DB"/>
<stop offset="1" stop-color="#0F81F0"/>
</linearGradient>
<linearGradient id="paint3_linear_3113_6213" x1="127.297" y1="114.295" x2="127.297" y2="161.357" gradientUnits="userSpaceOnUse">
<stop stop-color="#08F7DB"/>
<stop offset="1" stop-color="#0F81F0"/>
</linearGradient>
<linearGradient id="paint4_linear_3113_6213" x1="147.409" y1="72.0049" x2="147.409" y2="186.45" gradientUnits="userSpaceOnUse">
<stop stop-color="#08F7DB"/>
<stop offset="1" stop-color="#0F81F0"/>
</linearGradient>
<linearGradient id="paint5_linear_3113_6213" x1="218.999" y1="99.3171" x2="218.999" y2="112.791" gradientUnits="userSpaceOnUse">
<stop stop-color="white"/>
<stop offset="0.869293" stop-color="white"/>
</linearGradient>
<linearGradient id="paint6_linear_3113_6213" x1="242.272" y1="33.4135" x2="230.065" y2="63.5395" gradientUnits="userSpaceOnUse">
<stop offset="0.0504271" stop-color="#0F81F0"/>
<stop offset="0.448862" stop-color="#0F81F0"/>
<stop offset="1" stop-color="#0F81F0" stop-opacity="0"/>
</linearGradient>
<radialGradient id="paint7_radial_3113_6213" cx="0" cy="0" r="1" gradientUnits="userSpaceOnUse" gradientTransform="translate(2.69902 2.69902) rotate(90) scale(2.69902)">
<stop offset="0.389396" stop-color="#0F81F0"/>
<stop offset="1" stop-color="white" stop-opacity="0"/>
</radialGradient>
<linearGradient id="paint8_linear_3113_6213" x1="228.728" y1="107.2" x2="228.573" y2="74.6955" gradientUnits="userSpaceOnUse">
<stop offset="0.0504271" stop-color="#0F81F0"/>
<stop offset="0.448862" stop-color="#0F81F0"/>
<stop offset="1" stop-color="#0F81F0" stop-opacity="0"/>
</linearGradient>
<radialGradient id="paint9_radial_3113_6213" cx="0" cy="0" r="1" gradientUnits="userSpaceOnUse" gradientTransform="translate(2.69902 2.69902) rotate(90) scale(2.69902)">
<stop offset="0.389396" stop-color="#0F81F0"/>
<stop offset="1" stop-color="white" stop-opacity="0"/>
</radialGradient>
<linearGradient id="paint10_linear_3113_6213" x1="231.28" y1="54.052" x2="228.178" y2="69.8956" gradientUnits="userSpaceOnUse">
<stop offset="0.0504271" stop-color="#0F81F0"/>
<stop offset="0.448862" stop-color="#0F81F0"/>
<stop offset="1" stop-color="#0F81F0" stop-opacity="0"/>
</linearGradient>
<radialGradient id="paint11_radial_3113_6213" cx="0" cy="0" r="1" gradientUnits="userSpaceOnUse" gradientTransform="translate(1.34053 1.34053) rotate(90) scale(1.34053)">
<stop offset="0.389396" stop-color="#0F81F0"/>
<stop offset="1" stop-color="white" stop-opacity="0"/>
</radialGradient>
<linearGradient id="paint12_linear_3113_6213" x1="231.041" y1="83.9463" x2="227.891" y2="68.1122" gradientUnits="userSpaceOnUse">
<stop offset="0.0504271" stop-color="#0F81F0"/>
<stop offset="0.448862" stop-color="#0F81F0"/>
<stop offset="1" stop-color="#0F81F0" stop-opacity="0"/>
</linearGradient>
<radialGradient id="paint13_radial_3113_6213" cx="0" cy="0" r="1" gradientUnits="userSpaceOnUse" gradientTransform="translate(1.34053 1.34053) rotate(90) scale(1.34053)">
<stop offset="0.389396" stop-color="#0F81F0"/>
<stop offset="1" stop-color="white" stop-opacity="0"/>
</radialGradient>
<linearGradient id="paint14_linear_3113_6213" x1="227.778" y1="48.5156" x2="227.921" y2="72.1432" gradientUnits="userSpaceOnUse">
<stop offset="0.0504271" stop-color="#0F81F0"/>
<stop offset="0.448862" stop-color="#0F81F0"/>
<stop offset="1" stop-color="#0F81F0" stop-opacity="0"/>
</linearGradient>
<radialGradient id="paint15_radial_3113_6213" cx="0" cy="0" r="1" gradientUnits="userSpaceOnUse" gradientTransform="translate(1.96193 1.96193) rotate(90) scale(1.96193)">
<stop offset="0.389396" stop-color="#0F81F0"/>
<stop offset="1" stop-color="white" stop-opacity="0"/>
</radialGradient>
<linearGradient id="paint16_linear_3113_6213" x1="205.303" y1="67.869" x2="228.736" y2="70.8988" gradientUnits="userSpaceOnUse">
<stop offset="0.0504271" stop-color="#0F81F0"/>
<stop offset="0.448862" stop-color="#0F81F0"/>
<stop offset="1" stop-color="#0F81F0" stop-opacity="0"/>
</linearGradient>
<radialGradient id="paint17_radial_3113_6213" cx="0" cy="0" r="1" gradientUnits="userSpaceOnUse" gradientTransform="translate(1.96193 1.96193) rotate(90) scale(1.96193)">
<stop offset="0.389396" stop-color="#0F81F0"/>
<stop offset="1" stop-color="white" stop-opacity="0"/>
</radialGradient>
<linearGradient id="paint18_linear_3113_6213" x1="220.376" y1="40.2913" x2="226.63" y2="63.0767" gradientUnits="userSpaceOnUse">
<stop offset="0.0504271" stop-color="#0F81F0"/>
<stop offset="0.448862" stop-color="#0F81F0"/>
<stop offset="1" stop-color="#0F81F0" stop-opacity="0"/>
</linearGradient>
<radialGradient id="paint19_radial_3113_6213" cx="0" cy="0" r="1" gradientUnits="userSpaceOnUse" gradientTransform="translate(1.96193 1.96193) rotate(90) scale(1.96193)">
<stop offset="0.389396" stop-color="#0F81F0"/>
<stop offset="1" stop-color="white" stop-opacity="0"/>
</radialGradient>
<linearGradient id="paint20_linear_3113_6213" x1="196.162" y1="74.1743" x2="219.58" y2="71.036" gradientUnits="userSpaceOnUse">
<stop offset="0.0504271" stop-color="#0F81F0"/>
<stop offset="0.448862" stop-color="#0F81F0"/>
<stop offset="1" stop-color="#0F81F0" stop-opacity="0"/>
</linearGradient>
<radialGradient id="paint21_radial_3113_6213" cx="0" cy="0" r="1" gradientUnits="userSpaceOnUse" gradientTransform="translate(1.96193 1.96193) rotate(90) scale(1.96193)">
<stop offset="0.389396" stop-color="#0F81F0"/>
<stop offset="1" stop-color="white" stop-opacity="0"/>
</radialGradient>
<linearGradient id="paint22_linear_3113_6213" x1="213.713" y1="35.5507" x2="223.903" y2="59.506" gradientUnits="userSpaceOnUse">
<stop offset="0.0504271" stop-color="#0F81F0"/>
<stop offset="0.448862" stop-color="#0F81F0"/>
<stop offset="1" stop-color="#0F81F0" stop-opacity="0"/>
</linearGradient>
<radialGradient id="paint23_radial_3113_6213" cx="0" cy="0" r="1" gradientUnits="userSpaceOnUse" gradientTransform="translate(2.16156 2.16156) rotate(90) scale(2.16156)">
<stop offset="0.389396" stop-color="#0F81F0"/>
<stop offset="1" stop-color="white" stop-opacity="0"/>
</radialGradient>
<linearGradient id="paint24_linear_3113_6213" x1="190.561" y1="80.0808" x2="215.667" y2="73.1995" gradientUnits="userSpaceOnUse">
<stop offset="0.0504271" stop-color="#0F81F0"/>
<stop offset="0.448862" stop-color="#0F81F0"/>
<stop offset="1" stop-color="#0F81F0" stop-opacity="0"/>
</linearGradient>
<radialGradient id="paint25_radial_3113_6213" cx="0" cy="0" r="1" gradientUnits="userSpaceOnUse" gradientTransform="translate(2.16156 2.16156) rotate(90) scale(2.16156)">
<stop offset="0.389396" stop-color="#0F81F0"/>
<stop offset="1" stop-color="white" stop-opacity="0"/>
</radialGradient>
<linearGradient id="paint26_linear_3113_6213" x1="220.004" y1="55.8389" x2="228.562" y2="71.0714" gradientUnits="userSpaceOnUse">
<stop offset="0.0504271" stop-color="#0F81F0"/>
<stop offset="0.448862" stop-color="#0F81F0"/>
<stop offset="1" stop-color="#0F81F0" stop-opacity="0"/>
</linearGradient>
<radialGradient id="paint27_radial_3113_6213" cx="0" cy="0" r="1" gradientUnits="userSpaceOnUse" gradientTransform="translate(1.45073 1.45073) rotate(90) scale(1.45073)">
<stop offset="0.389396" stop-color="#0F81F0"/>
<stop offset="1" stop-color="white" stop-opacity="0"/>
</radialGradient>
<linearGradient id="paint28_linear_3113_6213" x1="211.52" y1="76.5872" x2="227.763" y2="70.1521" gradientUnits="userSpaceOnUse">
<stop offset="0.0504271" stop-color="#0F81F0"/>
<stop offset="0.448862" stop-color="#0F81F0"/>
<stop offset="1" stop-color="#0F81F0" stop-opacity="0"/>
</linearGradient>
<radialGradient id="paint29_radial_3113_6213" cx="0" cy="0" r="1" gradientUnits="userSpaceOnUse" gradientTransform="translate(1.45073 1.45073) rotate(90) scale(1.45073)">
<stop offset="0.389396" stop-color="#0F81F0"/>
<stop offset="1" stop-color="white" stop-opacity="0"/>
</radialGradient>
<linearGradient id="paint30_linear_3113_6213" x1="213.774" y1="54.9001" x2="227.366" y2="67.4603" gradientUnits="userSpaceOnUse">
<stop offset="0.0504271" stop-color="#0F81F0"/>
<stop offset="0.448862" stop-color="#0F81F0"/>
<stop offset="1" stop-color="#0F81F0" stop-opacity="0"/>
</linearGradient>
<radialGradient id="paint31_radial_3113_6213" cx="0" cy="0" r="1" gradientUnits="userSpaceOnUse" gradientTransform="translate(1.53666 1.53666) rotate(90) scale(1.53666)">
<stop offset="0.389396" stop-color="#0F81F0"/>
<stop offset="1" stop-color="white" stop-opacity="0"/>
</radialGradient>
<linearGradient id="paint32_linear_3113_6213" x1="209.671" y1="82.6671" x2="223.942" y2="70.8845" gradientUnits="userSpaceOnUse">
<stop offset="0.0504271" stop-color="#0F81F0"/>
<stop offset="0.448862" stop-color="#0F81F0"/>
<stop offset="1" stop-color="#0F81F0" stop-opacity="0"/>
</linearGradient>
<radialGradient id="paint33_radial_3113_6213" cx="0" cy="0" r="1" gradientUnits="userSpaceOnUse" gradientTransform="translate(1.53666 1.53666) rotate(90) scale(1.53666)">
<stop offset="0.389396" stop-color="#0F81F0"/>
<stop offset="1" stop-color="white" stop-opacity="0"/>
</radialGradient>
<linearGradient id="paint34_linear_3113_6213" x1="202.648" y1="53.8117" x2="221.848" y2="64.2199" gradientUnits="userSpaceOnUse">
<stop offset="0.0504271" stop-color="#0F81F0"/>
<stop offset="0.448862" stop-color="#0F81F0"/>
<stop offset="1" stop-color="#0F81F0" stop-opacity="0"/>
</linearGradient>
<radialGradient id="paint35_radial_3113_6213" cx="0" cy="0" r="1" gradientUnits="userSpaceOnUse" gradientTransform="translate(1.81343 1.81343) rotate(90) scale(1.81343)">
<stop offset="0.389396" stop-color="#0F81F0"/>
<stop offset="1" stop-color="white" stop-opacity="0"/>
</radialGradient>
<linearGradient id="paint36_linear_3113_6213" x1="197.182" y1="56.0389" x2="217.321" y2="64.489" gradientUnits="userSpaceOnUse">
<stop offset="0.0504271" stop-color="#0F81F0"/>
<stop offset="0.448862" stop-color="#0F81F0"/>
<stop offset="1" stop-color="#0F81F0" stop-opacity="0"/>
</linearGradient>
<radialGradient id="paint37_radial_3113_6213" cx="0" cy="0" r="1" gradientUnits="userSpaceOnUse" gradientTransform="translate(1.81343 1.81343) rotate(90) scale(1.81343)">
<stop offset="0.389396" stop-color="#0F81F0"/>
<stop offset="1" stop-color="white" stop-opacity="0"/>
</radialGradient>
<linearGradient id="paint38_linear_3113_6213" x1="213.198" y1="64.3821" x2="225.555" y2="67.5995" gradientUnits="userSpaceOnUse">
<stop offset="0.0504271" stop-color="#0F81F0"/>
<stop offset="0.448862" stop-color="#0F81F0"/>
<stop offset="1" stop-color="#0F81F0" stop-opacity="0"/>
</linearGradient>
<radialGradient id="paint39_radial_3113_6213" cx="0" cy="0" r="1" gradientUnits="userSpaceOnUse" gradientTransform="translate(1.06027 1.06027) rotate(90) scale(1.06027)">
<stop offset="0.389396" stop-color="#0F81F0"/>
<stop offset="1" stop-color="white" stop-opacity="0"/>
</radialGradient>
<linearGradient id="paint40_linear_3113_6213" x1="242.535" y1="83.0959" x2="230.176" y2="70.329" gradientUnits="userSpaceOnUse">
<stop offset="0.0504271" stop-color="#0F81F0"/>
<stop offset="0.448862" stop-color="#0F81F0"/>
<stop offset="1" stop-color="#0F81F0" stop-opacity="0"/>
</linearGradient>
<radialGradient id="paint41_radial_3113_6213" cx="0" cy="0" r="1" gradientUnits="userSpaceOnUse" gradientTransform="translate(1.47547 1.47547) rotate(90) scale(1.47547)">
<stop offset="0.389396" stop-color="#0F81F0"/>
<stop offset="1" stop-color="white" stop-opacity="0"/>
</radialGradient>
<linearGradient id="paint42_linear_3113_6213" x1="242.983" y1="42.3933" x2="232.843" y2="60.7348" gradientUnits="userSpaceOnUse">
<stop offset="0.0504271" stop-color="#0F81F0"/>
<stop offset="0.448862" stop-color="#0F81F0"/>
<stop offset="1" stop-color="#0F81F0" stop-opacity="0"/>
</linearGradient>
<radialGradient id="paint43_radial_3113_6213" cx="0" cy="0" r="1" gradientUnits="userSpaceOnUse" gradientTransform="translate(1.74023 1.74023) rotate(90) scale(1.74023)">
<stop offset="0.389396" stop-color="#0F81F0"/>
<stop offset="1" stop-color="white" stop-opacity="0"/>
</radialGradient>
<linearGradient id="paint44_linear_3113_6213" x1="224.69" y1="99.1618" x2="227.101" y2="78.3429" gradientUnits="userSpaceOnUse">
<stop offset="0.0504271" stop-color="#0F81F0"/>
<stop offset="0.448862" stop-color="#0F81F0"/>
<stop offset="1" stop-color="#0F81F0" stop-opacity="0"/>
</linearGradient>
<radialGradient id="paint45_radial_3113_6213" cx="0" cy="0" r="1" gradientUnits="userSpaceOnUse" gradientTransform="translate(1.74023 1.74023) rotate(90) scale(1.74023)">
<stop offset="0.389396" stop-color="#0F81F0"/>
<stop offset="1" stop-color="white" stop-opacity="0"/>
</radialGradient>
<linearGradient id="paint46_linear_3113_6213" x1="242.649" y1="53.9963" x2="227.908" y2="68.8939" gradientUnits="userSpaceOnUse">
<stop offset="0.0504271" stop-color="#0F81F0"/>
<stop offset="0.448862" stop-color="#0F81F0"/>
<stop offset="1" stop-color="#0F81F0" stop-opacity="0"/>
</linearGradient>
<radialGradient id="paint47_radial_3113_6213" cx="0" cy="0" r="1" gradientUnits="userSpaceOnUse" gradientTransform="translate(1.74023 1.74023) rotate(90) scale(1.74023)">
<stop offset="0.389396" stop-color="#0F81F0"/>
<stop offset="1" stop-color="white" stop-opacity="0"/>
</radialGradient>
<linearGradient id="paint48_linear_3113_6213" x1="220.528" y1="88.3139" x2="228.503" y2="68.9327" gradientUnits="userSpaceOnUse">
<stop offset="0.0504271" stop-color="#0F81F0"/>
<stop offset="0.448862" stop-color="#0F81F0"/>
<stop offset="1" stop-color="#0F81F0" stop-opacity="0"/>
</linearGradient>
<radialGradient id="paint49_radial_3113_6213" cx="0" cy="0" r="1" gradientUnits="userSpaceOnUse" gradientTransform="translate(1.74023 1.74023) rotate(90) scale(1.74023)">
<stop offset="0.389396" stop-color="#0F81F0"/>
<stop offset="1" stop-color="white" stop-opacity="0"/>
</radialGradient>
<linearGradient id="paint50_linear_3113_6213" x1="240.534" y1="61.0157" x2="231.142" y2="66.5092" gradientUnits="userSpaceOnUse">
<stop offset="0.0504271" stop-color="#0F81F0"/>
<stop offset="0.448862" stop-color="#0F81F0"/>
<stop offset="1" stop-color="#0F81F0" stop-opacity="0"/>
</linearGradient>
<radialGradient id="paint51_radial_3113_6213" cx="0" cy="0" r="1" gradientUnits="userSpaceOnUse" gradientTransform="translate(0.903512 0.903512) rotate(90) scale(0.903512)">
<stop offset="0.389396" stop-color="#0F81F0"/>
<stop offset="1" stop-color="white" stop-opacity="0"/>
</radialGradient>
<linearGradient id="paint52_linear_3113_6213" x1="258.309" y1="55.5158" x2="235.345" y2="66.0146" gradientUnits="userSpaceOnUse">
<stop offset="0.0504271" stop-color="#0F81F0"/>
<stop offset="0.448862" stop-color="#0F81F0"/>
<stop offset="1" stop-color="#0F81F0" stop-opacity="0"/>
</linearGradient>
<radialGradient id="paint53_radial_3113_6213" cx="0" cy="0" r="1" gradientUnits="userSpaceOnUse" gradientTransform="translate(2.09656 2.09656) rotate(90) scale(2.09656)">
<stop offset="0.389396" stop-color="#0F81F0"/>
<stop offset="1" stop-color="white" stop-opacity="0"/>
</radialGradient>
<linearGradient id="paint54_linear_3113_6213" x1="255.946" y1="61.1963" x2="235.613" y2="66.5298" gradientUnits="userSpaceOnUse">
<stop offset="0.0504271" stop-color="#0F81F0"/>
<stop offset="0.448862" stop-color="#0F81F0"/>
<stop offset="1" stop-color="#0F81F0" stop-opacity="0"/>
</linearGradient>
<radialGradient id="paint55_radial_3113_6213" cx="0" cy="0" r="1" gradientUnits="userSpaceOnUse" gradientTransform="translate(1.74547 1.74547) rotate(90) scale(1.74547)">
<stop offset="0.389396" stop-color="#0F81F0"/>
<stop offset="1" stop-color="white" stop-opacity="0"/>
</radialGradient>
<linearGradient id="paint56_linear_3113_6213" x1="248.335" y1="68.5392" x2="228.095" y2="69.0231" gradientUnits="userSpaceOnUse">
<stop offset="0.0504271" stop-color="#0F81F0"/>
<stop offset="0.448862" stop-color="#0F81F0"/>
<stop offset="1" stop-color="#0F81F0" stop-opacity="0"/>
</linearGradient>
<radialGradient id="paint57_radial_3113_6213" cx="0" cy="0" r="1" gradientUnits="userSpaceOnUse" gradientTransform="translate(1.68108 1.68108) rotate(90) scale(1.68108)">
<stop offset="0.389396" stop-color="#0F81F0"/>
<stop offset="1" stop-color="white" stop-opacity="0"/>
</radialGradient>
<linearGradient id="paint58_linear_3113_6213" x1="258.43" y1="81.0829" x2="229.18" y2="69.4806" gradientUnits="userSpaceOnUse">
<stop offset="0.0504271" stop-color="#0F81F0"/>
<stop offset="0.448862" stop-color="#0F81F0"/>
<stop offset="1" stop-color="#0F81F0" stop-opacity="0"/>
</linearGradient>
<radialGradient id="paint59_radial_3113_6213" cx="0" cy="0" r="1" gradientUnits="userSpaceOnUse" gradientTransform="translate(2.6129 2.6129) rotate(90) scale(2.6129)">
<stop offset="0.389396" stop-color="#0F81F0"/>
<stop offset="1" stop-color="white" stop-opacity="0"/>
</radialGradient>
<linearGradient id="paint60_linear_3113_6213" x1="252.759" y1="82.8831" x2="233.068" y2="71.2223" gradientUnits="userSpaceOnUse">
<stop offset="0.0504271" stop-color="#0F81F0"/>
<stop offset="0.448862" stop-color="#0F81F0"/>
<stop offset="1" stop-color="#0F81F0" stop-opacity="0"/>
</linearGradient>
<radialGradient id="paint61_radial_3113_6213" cx="0" cy="0" r="1" gradientUnits="userSpaceOnUse" gradientTransform="translate(1.90016 1.90016) rotate(90) scale(1.90016)">
<stop offset="0.389396" stop-color="#0F81F0"/>
<stop offset="1" stop-color="white" stop-opacity="0"/>
</radialGradient>
<linearGradient id="paint62_linear_3113_6213" x1="241.894" y1="72.1636" x2="231.814" y2="69.6259" gradientUnits="userSpaceOnUse">
<stop offset="0.0504271" stop-color="#0F81F0"/>
<stop offset="0.448862" stop-color="#0F81F0"/>
<stop offset="1" stop-color="#0F81F0" stop-opacity="0"/>
</linearGradient>
<radialGradient id="paint63_radial_3113_6213" cx="0" cy="0" r="1" gradientUnits="userSpaceOnUse" gradientTransform="translate(0.863101 0.863101) rotate(90) scale(0.863101)">
<stop offset="0.389396" stop-color="#0F81F0"/>
<stop offset="1" stop-color="white" stop-opacity="0"/>
</radialGradient>
<linearGradient id="paint64_linear_3113_6213" x1="74.0211" y1="101.326" x2="65.6953" y2="121.873" gradientUnits="userSpaceOnUse">
<stop offset="0.0504271" stop-color="#0F81F0"/>
<stop offset="0.448862" stop-color="#0F81F0"/>
<stop offset="1" stop-color="#0F81F0" stop-opacity="0"/>
</linearGradient>
<radialGradient id="paint65_radial_3113_6213" cx="0" cy="0" r="1" gradientUnits="userSpaceOnUse" gradientTransform="translate(1.8409 1.8409) rotate(90) scale(1.8409)">
<stop offset="0.389396" stop-color="#0F81F0"/>
<stop offset="1" stop-color="white" stop-opacity="0"/>
</radialGradient>
<linearGradient id="paint66_linear_3113_6213" x1="64.779" y1="151.653" x2="64.6736" y2="129.483" gradientUnits="userSpaceOnUse">
<stop offset="0.0504271" stop-color="#0F81F0"/>
<stop offset="0.448862" stop-color="#0F81F0"/>
<stop offset="1" stop-color="#0F81F0" stop-opacity="0"/>
</linearGradient>
<radialGradient id="paint67_radial_3113_6213" cx="0" cy="0" r="1" gradientUnits="userSpaceOnUse" gradientTransform="translate(1.8409 1.8409) rotate(90) scale(1.8409)">
<stop offset="0.389396" stop-color="#0F81F0"/>
<stop offset="1" stop-color="white" stop-opacity="0"/>
</radialGradient>
<linearGradient id="paint68_linear_3113_6213" x1="66.5163" y1="115.402" x2="64.4007" y2="126.208" gradientUnits="userSpaceOnUse">
<stop offset="0.0504271" stop-color="#0F81F0"/>
<stop offset="0.448862" stop-color="#0F81F0"/>
<stop offset="1" stop-color="#0F81F0" stop-opacity="0"/>
</linearGradient>
<radialGradient id="paint69_radial_3113_6213" cx="0" cy="0" r="1" gradientUnits="userSpaceOnUse" gradientTransform="translate(0.914325 0.914325) rotate(90) scale(0.914325)">
<stop offset="0.389396" stop-color="#0F81F0"/>
<stop offset="1" stop-color="white" stop-opacity="0"/>
</radialGradient>
<linearGradient id="paint70_linear_3113_6213" x1="66.3592" y1="135.791" x2="64.2104" y2="124.991" gradientUnits="userSpaceOnUse">
<stop offset="0.0504271" stop-color="#0F81F0"/>
<stop offset="0.448862" stop-color="#0F81F0"/>
<stop offset="1" stop-color="#0F81F0" stop-opacity="0"/>
</linearGradient>
<radialGradient id="paint71_radial_3113_6213" cx="0" cy="0" r="1" gradientUnits="userSpaceOnUse" gradientTransform="translate(0.914325 0.914325) rotate(90) scale(0.914325)">
<stop offset="0.389396" stop-color="#0F81F0"/>
<stop offset="1" stop-color="white" stop-opacity="0"/>
</radialGradient>
<linearGradient id="paint72_linear_3113_6213" x1="64.1318" y1="111.629" x2="64.2295" y2="127.744" gradientUnits="userSpaceOnUse">
<stop offset="0.0504271" stop-color="#0F81F0"/>
<stop offset="0.448862" stop-color="#0F81F0"/>
<stop offset="1" stop-color="#0F81F0" stop-opacity="0"/>
</linearGradient>
<radialGradient id="paint73_radial_3113_6213" cx="0" cy="0" r="1" gradientUnits="userSpaceOnUse" gradientTransform="translate(1.33816 1.33816) rotate(90) scale(1.33816)">
<stop offset="0.389396" stop-color="#0F81F0"/>
<stop offset="1" stop-color="white" stop-opacity="0"/>
</radialGradient>
<linearGradient id="paint74_linear_3113_6213" x1="48.8047" y1="124.829" x2="64.7875" y2="126.896" gradientUnits="userSpaceOnUse">
<stop offset="0.0504271" stop-color="#0F81F0"/>
<stop offset="0.448862" stop-color="#0F81F0"/>
<stop offset="1" stop-color="#0F81F0" stop-opacity="0"/>
</linearGradient>
<radialGradient id="paint75_radial_3113_6213" cx="0" cy="0" r="1" gradientUnits="userSpaceOnUse" gradientTransform="translate(1.33816 1.33816) rotate(90) scale(1.33816)">
<stop offset="0.389396" stop-color="#0F81F0"/>
<stop offset="1" stop-color="white" stop-opacity="0"/>
</radialGradient>
<linearGradient id="paint76_linear_3113_6213" x1="59.0754" y1="106.019" x2="63.3407" y2="121.561" gradientUnits="userSpaceOnUse">
<stop offset="0.0504271" stop-color="#0F81F0"/>
<stop offset="0.448862" stop-color="#0F81F0"/>
<stop offset="1" stop-color="#0F81F0" stop-opacity="0"/>
</linearGradient>
<radialGradient id="paint77_radial_3113_6213" cx="0" cy="0" r="1" gradientUnits="userSpaceOnUse" gradientTransform="translate(1.33816 1.33816) rotate(90) scale(1.33816)">
<stop offset="0.389396" stop-color="#0F81F0"/>
<stop offset="1" stop-color="white" stop-opacity="0"/>
</radialGradient>
<linearGradient id="paint78_linear_3113_6213" x1="42.5751" y1="129.127" x2="58.5481" y2="126.986" gradientUnits="userSpaceOnUse">
<stop offset="0.0504271" stop-color="#0F81F0"/>
<stop offset="0.448862" stop-color="#0F81F0"/>
<stop offset="1" stop-color="#0F81F0" stop-opacity="0"/>
</linearGradient>
<radialGradient id="paint79_radial_3113_6213" cx="0" cy="0" r="1" gradientUnits="userSpaceOnUse" gradientTransform="translate(1.33816 1.33816) rotate(90) scale(1.33816)">
<stop offset="0.389396" stop-color="#0F81F0"/>
<stop offset="1" stop-color="white" stop-opacity="0"/>
</radialGradient>
<linearGradient id="paint80_linear_3113_6213" x1="54.5392" y1="102.786" x2="61.4889" y2="119.125" gradientUnits="userSpaceOnUse">
<stop offset="0.0504271" stop-color="#0F81F0"/>
<stop offset="0.448862" stop-color="#0F81F0"/>
<stop offset="1" stop-color="#0F81F0" stop-opacity="0"/>
</linearGradient>
<radialGradient id="paint81_radial_3113_6213" cx="0" cy="0" r="1" gradientUnits="userSpaceOnUse" gradientTransform="translate(1.47432 1.47432) rotate(90) scale(1.47432)">
<stop offset="0.389396" stop-color="#0F81F0"/>
<stop offset="1" stop-color="white" stop-opacity="0"/>
</radialGradient>
<linearGradient id="paint82_linear_3113_6213" x1="38.7488" y1="133.16" x2="55.8729" y2="128.467" gradientUnits="userSpaceOnUse">
<stop offset="0.0504271" stop-color="#0F81F0"/>
<stop offset="0.448862" stop-color="#0F81F0"/>
<stop offset="1" stop-color="#0F81F0" stop-opacity="0"/>
</linearGradient>
<radialGradient id="paint83_radial_3113_6213" cx="0" cy="0" r="1" gradientUnits="userSpaceOnUse" gradientTransform="translate(1.47432 1.47432) rotate(90) scale(1.47432)">
<stop offset="0.389396" stop-color="#0F81F0"/>
<stop offset="1" stop-color="white" stop-opacity="0"/>
</radialGradient>
<linearGradient id="paint84_linear_3113_6213" x1="58.8303" y1="116.626" x2="64.667" y2="127.016" gradientUnits="userSpaceOnUse">
<stop offset="0.0504271" stop-color="#0F81F0"/>
<stop offset="0.448862" stop-color="#0F81F0"/>
<stop offset="1" stop-color="#0F81F0" stop-opacity="0"/>
</linearGradient>
<radialGradient id="paint85_radial_3113_6213" cx="0" cy="0" r="1" gradientUnits="userSpaceOnUse" gradientTransform="translate(0.98949 0.98949) rotate(90) scale(0.98949)">
<stop offset="0.389396" stop-color="#0F81F0"/>
<stop offset="1" stop-color="white" stop-opacity="0"/>
</radialGradient>
<linearGradient id="paint86_linear_3113_6213" x1="53.0467" y1="130.777" x2="64.1257" y2="126.388" gradientUnits="userSpaceOnUse">
<stop offset="0.0504271" stop-color="#0F81F0"/>
<stop offset="0.448862" stop-color="#0F81F0"/>
<stop offset="1" stop-color="#0F81F0" stop-opacity="0"/>
</linearGradient>
<radialGradient id="paint87_radial_3113_6213" cx="0" cy="0" r="1" gradientUnits="userSpaceOnUse" gradientTransform="translate(0.98949 0.98949) rotate(90) scale(0.98949)">
<stop offset="0.389396" stop-color="#0F81F0"/>
<stop offset="1" stop-color="white" stop-opacity="0"/>
</radialGradient>
<linearGradient id="paint88_linear_3113_6213" x1="54.5868" y1="115.979" x2="63.8571" y2="124.546" gradientUnits="userSpaceOnUse">
<stop offset="0.0504271" stop-color="#0F81F0"/>
<stop offset="0.448862" stop-color="#0F81F0"/>
<stop offset="1" stop-color="#0F81F0" stop-opacity="0"/>
</linearGradient>
<radialGradient id="paint89_radial_3113_6213" cx="0" cy="0" r="1" gradientUnits="userSpaceOnUse" gradientTransform="translate(1.0481 1.0481) rotate(90) scale(1.0481)">
<stop offset="0.389396" stop-color="#0F81F0"/>
<stop offset="1" stop-color="white" stop-opacity="0"/>
</radialGradient>
<linearGradient id="paint90_linear_3113_6213" x1="51.7797" y1="134.923" x2="61.5134" y2="126.887" gradientUnits="userSpaceOnUse">
<stop offset="0.0504271" stop-color="#0F81F0"/>
<stop offset="0.448862" stop-color="#0F81F0"/>
<stop offset="1" stop-color="#0F81F0" stop-opacity="0"/>
</linearGradient>
<radialGradient id="paint91_radial_3113_6213" cx="0" cy="0" r="1" gradientUnits="userSpaceOnUse" gradientTransform="translate(1.0481 1.0481) rotate(90) scale(1.0481)">
<stop offset="0.389396" stop-color="#0F81F0"/>
<stop offset="1" stop-color="white" stop-opacity="0"/>
</radialGradient>
<linearGradient id="paint92_linear_3113_6213" x1="46.9905" y1="115.244" x2="60.0861" y2="122.343" gradientUnits="userSpaceOnUse">
<stop offset="0.0504271" stop-color="#0F81F0"/>
<stop offset="0.448862" stop-color="#0F81F0"/>
<stop offset="1" stop-color="#0F81F0" stop-opacity="0"/>
</linearGradient>
<radialGradient id="paint93_radial_3113_6213" cx="0" cy="0" r="1" gradientUnits="userSpaceOnUse" gradientTransform="translate(1.23688 1.23688) rotate(90) scale(1.23688)">
<stop offset="0.389396" stop-color="#0F81F0"/>
<stop offset="1" stop-color="white" stop-opacity="0"/>
</radialGradient>
<linearGradient id="paint94_linear_3113_6213" x1="43.2663" y1="116.756" x2="57.0022" y2="122.52" gradientUnits="userSpaceOnUse">
<stop offset="0.0504271" stop-color="#0F81F0"/>
<stop offset="0.448862" stop-color="#0F81F0"/>
<stop offset="1" stop-color="#0F81F0" stop-opacity="0"/>
</linearGradient>
<radialGradient id="paint95_radial_3113_6213" cx="0" cy="0" r="1" gradientUnits="userSpaceOnUse" gradientTransform="translate(1.23688 1.23688) rotate(90) scale(1.23688)">
<stop offset="0.389396" stop-color="#0F81F0"/>
<stop offset="1" stop-color="white" stop-opacity="0"/>
</radialGradient>
<linearGradient id="paint96_linear_3113_6213" x1="54.1854" y1="122.451" x2="62.6138" y2="124.645" gradientUnits="userSpaceOnUse">
<stop offset="0.0504271" stop-color="#0F81F0"/>
<stop offset="0.448862" stop-color="#0F81F0"/>
<stop offset="1" stop-color="#0F81F0" stop-opacity="0"/>
</linearGradient>
<radialGradient id="paint97_radial_3113_6213" cx="0" cy="0" r="1" gradientUnits="userSpaceOnUse" gradientTransform="translate(0.723169 0.723169) rotate(90) scale(0.723169)">
<stop offset="0.389396" stop-color="#0F81F0"/>
<stop offset="1" stop-color="white" stop-opacity="0"/>
</radialGradient>
<linearGradient id="paint98_linear_3113_6213" x1="74.1979" y1="135.214" x2="65.7677" y2="126.506" gradientUnits="userSpaceOnUse">
<stop offset="0.0504271" stop-color="#0F81F0"/>
<stop offset="0.448862" stop-color="#0F81F0"/>
<stop offset="1" stop-color="#0F81F0" stop-opacity="0"/>
</linearGradient>
<radialGradient id="paint99_radial_3113_6213" cx="0" cy="0" r="1" gradientUnits="userSpaceOnUse" gradientTransform="translate(1.00637 1.00637) rotate(90) scale(1.00637)">
<stop offset="0.389396" stop-color="#0F81F0"/>
<stop offset="1" stop-color="white" stop-opacity="0"/>
</radialGradient>
<linearGradient id="paint100_linear_3113_6213" x1="74.5052" y1="107.452" x2="67.5888" y2="119.962" gradientUnits="userSpaceOnUse">
<stop offset="0.0504271" stop-color="#0F81F0"/>
<stop offset="0.448862" stop-color="#0F81F0"/>
<stop offset="1" stop-color="#0F81F0" stop-opacity="0"/>
</linearGradient>
<radialGradient id="paint101_radial_3113_6213" cx="0" cy="0" r="1" gradientUnits="userSpaceOnUse" gradientTransform="translate(1.18694 1.18694) rotate(90) scale(1.18694)">
<stop offset="0.389396" stop-color="#0F81F0"/>
<stop offset="1" stop-color="white" stop-opacity="0"/>
</radialGradient>
<linearGradient id="paint102_linear_3113_6213" x1="62.0226" y1="146.173" x2="63.6674" y2="131.973" gradientUnits="userSpaceOnUse">
<stop offset="0.0504271" stop-color="#0F81F0"/>
<stop offset="0.448862" stop-color="#0F81F0"/>
<stop offset="1" stop-color="#0F81F0" stop-opacity="0"/>
</linearGradient>
<radialGradient id="paint103_radial_3113_6213" cx="0" cy="0" r="1" gradientUnits="userSpaceOnUse" gradientTransform="translate(1.18694 1.18694) rotate(90) scale(1.18694)">
<stop offset="0.389396" stop-color="#0F81F0"/>
<stop offset="1" stop-color="white" stop-opacity="0"/>
</radialGradient>
<linearGradient id="paint104_linear_3113_6213" x1="74.2682" y1="115.365" x2="64.2138" y2="125.527" gradientUnits="userSpaceOnUse">
<stop offset="0.0504271" stop-color="#0F81F0"/>
<stop offset="0.448862" stop-color="#0F81F0"/>
<stop offset="1" stop-color="#0F81F0" stop-opacity="0"/>
</linearGradient>
<radialGradient id="paint105_radial_3113_6213" cx="0" cy="0" r="1" gradientUnits="userSpaceOnUse" gradientTransform="translate(1.18694 1.18694) rotate(90) scale(1.18694)">
<stop offset="0.389396" stop-color="#0F81F0"/>
<stop offset="1" stop-color="white" stop-opacity="0"/>
</radialGradient>
<linearGradient id="paint106_linear_3113_6213" x1="59.1848" y1="138.772" x2="64.6247" y2="125.553" gradientUnits="userSpaceOnUse">
<stop offset="0.0504271" stop-color="#0F81F0"/>
<stop offset="0.448862" stop-color="#0F81F0"/>
<stop offset="1" stop-color="#0F81F0" stop-opacity="0"/>
</linearGradient>
<radialGradient id="paint107_radial_3113_6213" cx="0" cy="0" r="1" gradientUnits="userSpaceOnUse" gradientTransform="translate(1.18694 1.18694) rotate(90) scale(1.18694)">
<stop offset="0.389396" stop-color="#0F81F0"/>
<stop offset="1" stop-color="white" stop-opacity="0"/>
</radialGradient>
<linearGradient id="paint108_linear_3113_6213" x1="72.836" y1="120.154" x2="66.4296" y2="123.901" gradientUnits="userSpaceOnUse">
<stop offset="0.0504271" stop-color="#0F81F0"/>
<stop offset="0.448862" stop-color="#0F81F0"/>
<stop offset="1" stop-color="#0F81F0" stop-opacity="0"/>
</linearGradient>
<radialGradient id="paint109_radial_3113_6213" cx="0" cy="0" r="1" gradientUnits="userSpaceOnUse" gradientTransform="translate(0.616252 0.616252) rotate(90) scale(0.616252)">
<stop offset="0.389396" stop-color="#0F81F0"/>
<stop offset="1" stop-color="white" stop-opacity="0"/>
</radialGradient>
<linearGradient id="paint110_linear_3113_6213" x1="84.9621" y1="116.4" x2="69.2997" y2="123.561" gradientUnits="userSpaceOnUse">
<stop offset="0.0504271" stop-color="#0F81F0"/>
<stop offset="0.448862" stop-color="#0F81F0"/>
<stop offset="1" stop-color="#0F81F0" stop-opacity="0"/>
</linearGradient>
<radialGradient id="paint111_radial_3113_6213" cx="0" cy="0" r="1" gradientUnits="userSpaceOnUse" gradientTransform="translate(1.42999 1.42999) rotate(90) scale(1.42999)">
<stop offset="0.389396" stop-color="#0F81F0"/>
<stop offset="1" stop-color="white" stop-opacity="0"/>
</radialGradient>
<linearGradient id="paint112_linear_3113_6213" x1="83.3477" y1="120.278" x2="69.4791" y2="123.916" gradientUnits="userSpaceOnUse">
<stop offset="0.0504271" stop-color="#0F81F0"/>
<stop offset="0.448862" stop-color="#0F81F0"/>
<stop offset="1" stop-color="#0F81F0" stop-opacity="0"/>
</linearGradient>
<radialGradient id="paint113_radial_3113_6213" cx="0" cy="0" r="1" gradientUnits="userSpaceOnUse" gradientTransform="translate(1.19052 1.19052) rotate(90) scale(1.19052)">
<stop offset="0.389396" stop-color="#0F81F0"/>
<stop offset="1" stop-color="white" stop-opacity="0"/>
</radialGradient>
<linearGradient id="paint114_linear_3113_6213" x1="78.15" y1="125.284" x2="64.3451" y2="125.614" gradientUnits="userSpaceOnUse">
<stop offset="0.0504271" stop-color="#0F81F0"/>
<stop offset="0.448862" stop-color="#0F81F0"/>
<stop offset="1" stop-color="#0F81F0" stop-opacity="0"/>
</linearGradient>
<radialGradient id="paint115_radial_3113_6213" cx="0" cy="0" r="1" gradientUnits="userSpaceOnUse" gradientTransform="translate(1.1466 1.1466) rotate(90) scale(1.1466)">
<stop offset="0.389396" stop-color="#0F81F0"/>
<stop offset="1" stop-color="white" stop-opacity="0"/>
</radialGradient>
<linearGradient id="paint116_linear_3113_6213" x1="85.039" y1="133.845" x2="65.088" y2="125.931" gradientUnits="userSpaceOnUse">
<stop offset="0.0504271" stop-color="#0F81F0"/>
<stop offset="0.448862" stop-color="#0F81F0"/>
<stop offset="1" stop-color="#0F81F0" stop-opacity="0"/>
</linearGradient>
<radialGradient id="paint117_radial_3113_6213" cx="0" cy="0" r="1" gradientUnits="userSpaceOnUse" gradientTransform="translate(1.78216 1.78216) rotate(90) scale(1.78216)">
<stop offset="0.389396" stop-color="#0F81F0"/>
<stop offset="1" stop-color="white" stop-opacity="0"/>
</radialGradient>
<linearGradient id="paint118_linear_3113_6213" x1="81.1718" y1="135.068" x2="67.7417" y2="127.115" gradientUnits="userSpaceOnUse">
<stop offset="0.0504271" stop-color="#0F81F0"/>
<stop offset="0.448862" stop-color="#0F81F0"/>
<stop offset="1" stop-color="#0F81F0" stop-opacity="0"/>
</linearGradient>
<radialGradient id="paint119_radial_3113_6213" cx="0" cy="0" r="1" gradientUnits="userSpaceOnUse" gradientTransform="translate(1.29603 1.29603) rotate(90) scale(1.29603)">
<stop offset="0.389396" stop-color="#0F81F0"/>
<stop offset="1" stop-color="white" stop-opacity="0"/>
</radialGradient>
<linearGradient id="paint120_linear_3113_6213" x1="73.7635" y1="127.76" x2="66.8883" y2="126.029" gradientUnits="userSpaceOnUse">
<stop offset="0.0504271" stop-color="#0F81F0"/>
<stop offset="0.448862" stop-color="#0F81F0"/>
<stop offset="1" stop-color="#0F81F0" stop-opacity="0"/>
</linearGradient>
<radialGradient id="paint121_radial_3113_6213" cx="0" cy="0" r="1" gradientUnits="userSpaceOnUse" gradientTransform="translate(0.588689 0.588689) rotate(90) scale(0.588689)">
<stop offset="0.389396" stop-color="#0F81F0"/>
<stop offset="1" stop-color="white" stop-opacity="0"/>
</radialGradient>
<linearGradient id="paint122_linear_3113_6213" x1="184.999" y1="164.476" x2="184.999" y2="184.687" gradientUnits="userSpaceOnUse">
<stop stop-color="white"/>
<stop offset="0.869293" stop-color="white"/>
</linearGradient>
<linearGradient id="paint123_linear_3113_6213" x1="89.9988" y1="63.3699" x2="89.9988" y2="79.0899" gradientUnits="userSpaceOnUse">
<stop stop-color="white"/>
<stop offset="0.869293" stop-color="white"/>
</linearGradient>
<linearGradient id="paint124_linear_3113_6213" x1="74.1061" y1="204.182" x2="61.4169" y2="223.351" gradientUnits="userSpaceOnUse">
<stop offset="0.155289" stop-color="#031A30"/>
<stop offset="0.514591" stop-color="#0F81F0"/>
<stop offset="1" stop-color="#031A30"/>
</linearGradient>
<linearGradient id="paint125_linear_3113_6213" x1="74.1061" y1="203.966" x2="61.4169" y2="223.134" gradientUnits="userSpaceOnUse">
<stop offset="0.155289" stop-color="#031A30"/>
<stop offset="0.514591" stop-color="#0F81F0"/>
<stop offset="1" stop-color="#031A30"/>
</linearGradient>
<linearGradient id="paint126_linear_3113_6213" x1="72.7562" y1="205.855" x2="59.4697" y2="245.435" gradientUnits="userSpaceOnUse">
<stop offset="0.0596716" stop-color="#6FB3F6"/>
<stop offset="0.138721" stop-color="white"/>
</linearGradient>
<radialGradient id="paint127_radial_3113_6213" cx="0" cy="0" r="1" gradientUnits="userSpaceOnUse" gradientTransform="translate(68.9689 203.752) rotate(76.8094) scale(17.7471 17.7471)">
<stop stop-color="#9FCDF9"/>
<stop offset="1" stop-color="#6FB3F6"/>
</radialGradient>
<linearGradient id="paint128_linear_3113_6213" x1="39.851" y1="188.922" x2="29.242" y2="204.948" gradientUnits="userSpaceOnUse">
<stop offset="0.155289" stop-color="#031A30"/>
<stop offset="0.514591" stop-color="#0F81F0"/>
<stop offset="1" stop-color="#031A30"/>
</linearGradient>
<linearGradient id="paint129_linear_3113_6213" x1="39.851" y1="188.74" x2="29.242" y2="204.767" gradientUnits="userSpaceOnUse">
<stop offset="0.155289" stop-color="#031A30"/>
<stop offset="0.514591" stop-color="#0F81F0"/>
<stop offset="1" stop-color="#031A30"/>
</linearGradient>
<linearGradient id="paint130_linear_3113_6213" x1="38.7224" y1="190.32" x2="27.614" y2="223.412" gradientUnits="userSpaceOnUse">
<stop offset="0.0596716" stop-color="#6FB3F6"/>
<stop offset="0.138721" stop-color="white"/>
</linearGradient>
<radialGradient id="paint131_radial_3113_6213" cx="0" cy="0" r="1" gradientUnits="userSpaceOnUse" gradientTransform="translate(35.5544 184.903) rotate(76.8094) scale(14.8377)">
<stop stop-color="#9FCDF9"/>
<stop offset="1" stop-color="#6FB3F6"/>
</radialGradient>
<linearGradient id="paint132_linear_3113_6213" x1="257.851" y1="190.922" x2="247.242" y2="206.948" gradientUnits="userSpaceOnUse">
<stop offset="0.155289" stop-color="#031A30"/>
<stop offset="0.514591" stop-color="#0F81F0"/>
<stop offset="1" stop-color="#031A30"/>
</linearGradient>
<linearGradient id="paint133_linear_3113_6213" x1="257.851" y1="190.74" x2="247.242" y2="206.767" gradientUnits="userSpaceOnUse">
<stop offset="0.155289" stop-color="#031A30"/>
<stop offset="0.514591" stop-color="#0F81F0"/>
<stop offset="1" stop-color="#031A30"/>
</linearGradient>
<linearGradient id="paint134_linear_3113_6213" x1="256.722" y1="192.32" x2="245.614" y2="225.412" gradientUnits="userSpaceOnUse">
<stop offset="0.0596716" stop-color="#6FB3F6"/>
<stop offset="0.138721" stop-color="white"/>
</linearGradient>
<radialGradient id="paint135_radial_3113_6213" cx="0" cy="0" r="1" gradientUnits="userSpaceOnUse" gradientTransform="translate(253.554 186.903) rotate(76.8094) scale(14.8377)">
<stop stop-color="#9FCDF9"/>
<stop offset="1" stop-color="#6FB3F6"/>
</radialGradient>
<linearGradient id="paint136_linear_3113_6213" x1="228.106" y1="206.182" x2="215.417" y2="225.351" gradientUnits="userSpaceOnUse">
<stop offset="0.155289" stop-color="#031A30"/>
<stop offset="0.514591" stop-color="#0F81F0"/>
<stop offset="1" stop-color="#031A30"/>
</linearGradient>
<linearGradient id="paint137_linear_3113_6213" x1="228.106" y1="205.966" x2="215.417" y2="225.134" gradientUnits="userSpaceOnUse">
<stop offset="0.155289" stop-color="#031A30"/>
<stop offset="0.514591" stop-color="#0F81F0"/>
<stop offset="1" stop-color="#031A30"/>
</linearGradient>
<linearGradient id="paint138_linear_3113_6213" x1="226.756" y1="207.855" x2="213.47" y2="247.435" gradientUnits="userSpaceOnUse">
<stop offset="0.0596716" stop-color="#6FB3F6"/>
<stop offset="0.138721" stop-color="white"/>
</linearGradient>
<radialGradient id="paint139_radial_3113_6213" cx="0" cy="0" r="1" gradientUnits="userSpaceOnUse" gradientTransform="translate(222.969 205.752) rotate(76.8094) scale(17.7471 17.7471)">
<stop stop-color="#9FCDF9"/>
<stop offset="1" stop-color="#6FB3F6"/>
</radialGradient>
</defs>
</svg>
