<svg width="300" height="300" viewBox="0 0 300 300" fill="none" xmlns="http://www.w3.org/2000/svg">
<path fill-rule="evenodd" clip-rule="evenodd" d="M257.996 164.641C257.996 165.808 257.225 166.976 255.681 167.867L155.085 225.947C151.999 227.729 146.994 227.729 143.908 225.947L43.3112 167.867C41.8296 167.012 41.0592 165.901 41 164.781V186.292C41.0592 187.412 41.8296 188.523 43.3112 189.378L143.908 247.458C146.994 249.24 151.999 249.24 155.085 247.458L255.681 189.378C257.225 188.487 257.996 187.319 257.996 186.152V164.641Z" fill="#031A30" stroke="#F0F0F0" stroke-linecap="round" stroke-linejoin="round"/>
<path d="M143.911 103.337C146.998 101.554 152.002 101.554 155.089 103.337L255.685 161.416C258.772 163.198 258.772 166.087 255.685 167.869L155.089 225.949C152.002 227.73 146.998 227.73 143.911 225.949L43.3149 167.869C40.2283 166.087 40.2284 163.198 43.3149 161.416L143.911 103.337Z" fill="#031A30" stroke="#F0F0F0" stroke-linecap="round" stroke-linejoin="round"/>
<path d="M145.027 116.995C147.439 115.606 151.349 115.606 153.761 116.995L232.369 162.269C234.781 163.658 234.781 165.911 232.369 167.3L153.761 212.574C151.349 213.963 147.438 213.963 145.027 212.574L66.4183 167.3C64.0064 165.911 64.0064 163.658 66.4183 162.269L145.027 116.995Z" fill="#031A30" stroke="#F0F0F0" stroke-linecap="round" stroke-linejoin="round"/>
<path d="M154 170.5L132.977 183.944L123.203 178.243" stroke="#F0F0F0" stroke-linecap="round" stroke-linejoin="round"/>
<path d="M208.727 168.463L181.033 184.754L127.275 153.802L156.598 134.254" stroke="#F0F0F0" stroke-linecap="round" stroke-linejoin="round"/>
<path fill-rule="evenodd" clip-rule="evenodd" d="M123.952 185.336C123.176 185.788 122.176 185.568 121.54 185.26L105.879 176.218C103.292 174.724 99.4783 167.962 102.066 164.739C102.314 164.429 102.582 164.196 102.864 164.028L108.311 160.883C108.03 161.051 107.762 161.284 107.513 161.594C104.926 164.817 108.739 171.579 111.326 173.073L126.988 182.115C127.623 182.423 128.623 182.643 129.399 182.191L123.952 185.336Z" fill="#031A30" stroke="#F0F0F0" stroke-linecap="round" stroke-linejoin="round"/>
<path fill-rule="evenodd" clip-rule="evenodd" d="M102.875 164.018C104.94 162.785 107.744 165.061 109.023 166.537L114.47 163.392C113.192 161.916 110.388 159.64 108.322 160.873L102.875 164.018Z" fill="#031A30" stroke="#F0F0F0" stroke-linecap="round" stroke-linejoin="round"/>
<path fill-rule="evenodd" clip-rule="evenodd" d="M109.016 166.538C109.11 165.639 109.541 164.438 110.53 163.836L115.977 160.691C114.988 161.293 114.557 162.494 114.463 163.393L109.016 166.538Z" fill="#031A30" stroke="#F0F0F0" stroke-linecap="round" stroke-linejoin="round"/>
<path fill-rule="evenodd" clip-rule="evenodd" d="M110.523 163.837C111.437 163.283 112.826 163.239 114.865 164.417C119.114 166.87 120.721 172.62 120.993 175.188C122.401 176.315 125.188 179.403 125.079 182.736C125.031 184.203 124.559 184.973 123.95 185.328L129.397 182.183C130.007 181.828 130.478 181.058 130.526 179.591C130.635 176.258 127.848 173.17 126.441 172.043C126.168 169.475 124.561 163.725 120.312 161.271C118.273 160.094 116.884 160.137 115.971 160.692L110.523 163.837Z" fill="#031A30" stroke="#F0F0F0" stroke-linecap="round" stroke-linejoin="round"/>
<path d="M121.54 185.256L105.879 176.214C103.292 174.72 99.4783 167.958 102.066 164.734C104.136 162.155 107.559 164.865 109.011 166.543C109.193 164.813 110.618 161.967 114.867 164.42C119.116 166.873 120.723 172.623 120.996 175.192C122.403 176.319 125.19 179.406 125.081 182.74C124.972 186.074 122.675 185.806 121.54 185.256Z" fill="#031A30" stroke="#F0F0F0" stroke-linecap="round" stroke-linejoin="round"/>
<path fill-rule="evenodd" clip-rule="evenodd" d="M97.3298 164.348C96.2951 164.951 94.9619 164.658 94.1145 164.247L73.2342 152.192C69.7844 150.2 64.7004 141.185 68.1502 136.887C68.4814 136.474 68.8386 136.163 69.214 135.939L76.4768 131.746C76.1013 131.97 75.7442 132.281 75.413 132.694C71.9632 136.992 77.0471 146.007 80.4969 147.999L101.377 160.054C102.225 160.465 103.558 160.758 104.593 160.155L97.3298 164.348Z" fill="#031A30" stroke="#F0F0F0" stroke-linecap="round" stroke-linejoin="round"/>
<path fill-rule="evenodd" clip-rule="evenodd" d="M69.2109 135.937C71.9644 134.294 75.7028 137.328 77.4071 139.296L84.6699 135.103C82.9656 133.135 79.2271 130.101 76.4737 131.744L69.2109 135.937Z" fill="#031A30" stroke="#F0F0F0" stroke-linecap="round" stroke-linejoin="round"/>
<path fill-rule="evenodd" clip-rule="evenodd" d="M77.4141 139.292C77.54 138.092 78.1143 136.491 79.4331 135.689L86.6959 131.496C85.377 132.298 84.8027 133.899 84.6768 135.099L77.4141 139.292Z" fill="#031A30" stroke="#F0F0F0" stroke-linecap="round" stroke-linejoin="round"/>
<path fill-rule="evenodd" clip-rule="evenodd" d="M79.4219 135.694C80.6393 134.955 82.4911 134.897 85.2103 136.467C90.8752 139.737 93.0177 147.404 93.3809 150.828C95.2571 152.331 98.9732 156.447 98.8279 160.892C98.764 162.847 98.1353 163.873 97.3224 164.347L104.585 160.154C105.398 159.68 106.027 158.654 106.091 156.698C106.236 152.254 102.52 148.137 100.644 146.635C100.28 143.21 98.138 135.544 92.473 132.273C89.7538 130.703 87.902 130.761 86.6846 131.501L79.4219 135.694Z" fill="#031A30" stroke="#F0F0F0" stroke-linecap="round" stroke-linejoin="round"/>
<path d="M94.1145 164.248L73.2342 152.193C69.7844 150.201 64.7004 141.186 68.1502 136.888C70.9101 133.45 75.4735 137.063 77.4102 139.299C77.6523 136.993 79.5527 133.198 85.2177 136.469C90.8826 139.739 93.0251 147.406 93.3883 150.83C95.2645 152.333 98.9806 156.449 98.8353 160.894C98.6901 165.339 95.6276 164.982 94.1145 164.248Z" fill="#031A30" stroke="#F0F0F0" stroke-linecap="round" stroke-linejoin="round"/>
<path fill-rule="evenodd" clip-rule="evenodd" d="M172.891 166.132C172.891 164.835 173.747 163.539 175.46 162.55C178.887 160.572 184.442 160.572 187.868 162.55C189.581 163.539 190.438 164.835 190.438 166.132V171.13C190.438 169.833 189.581 168.537 187.868 167.548C184.442 165.57 178.887 165.57 175.46 167.548C173.747 168.537 172.891 169.833 172.891 171.13V166.132Z" fill="#031A30" stroke="#F0F0F0" stroke-linecap="round" stroke-linejoin="round"/>
<path fill-rule="evenodd" clip-rule="evenodd" d="M190.438 166.133C190.438 167.429 189.581 168.726 187.868 169.715C184.442 171.693 178.887 171.693 175.46 169.715C173.747 168.726 172.891 167.429 172.891 166.133V171.131C172.891 172.427 173.747 173.723 175.46 174.713C178.887 176.691 184.442 176.691 187.868 174.713C189.581 173.723 190.438 172.427 190.438 171.131V166.133Z" fill="#031A30" stroke="#F0F0F0" stroke-linecap="round" stroke-linejoin="round"/>
<path d="M187.884 169.714C184.457 171.692 178.902 171.692 175.476 169.714C172.05 167.736 172.05 164.528 175.476 162.55C178.902 160.572 184.457 160.572 187.884 162.55C191.31 164.528 191.31 167.736 187.884 169.714Z" fill="#031A30" stroke="#F0F0F0" stroke-linecap="round" stroke-linejoin="round"/>
<path fill-rule="evenodd" clip-rule="evenodd" d="M172.891 159.241C172.891 157.945 173.747 156.649 175.46 155.659C178.887 153.681 184.442 153.681 187.868 155.659C189.581 156.649 190.438 157.945 190.438 159.241V164.239C190.438 162.943 189.581 161.646 187.868 160.657C184.442 158.679 178.887 158.679 175.46 160.657C173.747 161.646 172.891 162.943 172.891 164.239V159.241Z" fill="#031A30" stroke="#F0F0F0" stroke-linecap="round" stroke-linejoin="round"/>
<path fill-rule="evenodd" clip-rule="evenodd" d="M190.438 159.242C190.438 160.539 189.581 161.835 187.868 162.824C184.442 164.802 178.887 164.802 175.46 162.824C173.747 161.835 172.891 160.539 172.891 159.242V164.24C172.891 165.536 173.747 166.833 175.46 167.822C178.887 169.8 184.442 169.8 187.868 167.822C189.581 166.833 190.438 165.536 190.438 164.24V159.242Z" fill="#031A30" stroke="#F0F0F0" stroke-linecap="round" stroke-linejoin="round"/>
<path d="M187.884 162.823C184.457 164.801 178.902 164.801 175.476 162.823C172.05 160.845 172.05 157.638 175.476 155.659C178.902 153.681 184.457 153.681 187.884 155.659C191.31 157.638 191.31 160.845 187.884 162.823Z" fill="#031A30" stroke="#F0F0F0" stroke-linecap="round" stroke-linejoin="round"/>
<path fill-rule="evenodd" clip-rule="evenodd" d="M172.891 152.347C172.891 151.05 173.747 149.754 175.46 148.765C178.887 146.787 184.442 146.787 187.868 148.765C189.581 149.754 190.438 151.05 190.438 152.347V157.345C190.438 156.048 189.581 154.752 187.868 153.763C184.442 151.785 178.887 151.785 175.46 153.763C173.747 154.752 172.891 156.048 172.891 157.345V152.347Z" fill="#031A30" stroke="#F0F0F0" stroke-linecap="round" stroke-linejoin="round"/>
<path fill-rule="evenodd" clip-rule="evenodd" d="M190.438 152.348C190.438 153.644 189.581 154.94 187.868 155.929C184.442 157.908 178.887 157.908 175.46 155.929C173.747 154.94 172.891 153.644 172.891 152.348V157.346C172.891 158.642 173.747 159.938 175.46 160.927C178.887 162.906 184.442 162.906 187.868 160.927C189.581 159.938 190.438 158.642 190.438 157.346V152.348Z" fill="#031A30" stroke="#F0F0F0" stroke-linecap="round" stroke-linejoin="round"/>
<path d="M187.884 155.929C184.457 157.907 178.902 157.907 175.476 155.929C172.05 153.95 172.05 150.743 175.476 148.765C178.902 146.787 184.457 146.787 187.884 148.765C191.31 150.743 191.31 153.95 187.884 155.929Z" fill="#031A30" stroke="#F0F0F0" stroke-linecap="round" stroke-linejoin="round"/>
<path fill-rule="evenodd" clip-rule="evenodd" d="M198.961 158.911C198.961 157.103 200.155 155.296 202.544 153.916C207.322 151.158 215.068 151.158 219.846 153.916C222.235 155.296 223.429 157.103 223.429 158.911V165.88C223.429 164.072 222.235 162.265 219.846 160.886C215.068 158.127 207.322 158.127 202.544 160.886C200.155 162.265 198.961 164.072 198.961 165.88V158.911Z" fill="#031A30" stroke="#F0F0F0" stroke-linecap="round" stroke-linejoin="round"/>
<path fill-rule="evenodd" clip-rule="evenodd" d="M223.429 158.914C223.429 160.722 222.235 162.529 219.846 163.909C215.068 166.667 207.322 166.667 202.544 163.909C200.155 162.529 198.961 160.722 198.961 158.914V165.883C198.961 167.691 200.155 169.498 202.544 170.878C207.322 173.636 215.068 173.636 219.846 170.878C222.235 169.498 223.429 167.691 223.429 165.883V158.914Z" fill="#031A30" stroke="#F0F0F0" stroke-linecap="round" stroke-linejoin="round"/>
<path d="M219.861 163.905C215.084 166.664 207.337 166.664 202.56 163.905C197.782 161.147 197.782 156.675 202.56 153.916C207.337 151.158 215.084 151.158 219.861 153.916C224.639 156.675 224.639 161.147 219.861 163.905Z" fill="#031A30" stroke="#F0F0F0" stroke-linecap="round" stroke-linejoin="round"/>
<path fill-rule="evenodd" clip-rule="evenodd" d="M198.961 149.298C198.961 147.49 200.155 145.682 202.544 144.303C207.322 141.545 215.068 141.545 219.846 144.303C222.235 145.682 223.429 147.49 223.429 149.298V156.267C223.429 154.459 222.235 152.651 219.846 151.272C215.068 148.514 207.322 148.514 202.544 151.272C200.155 152.651 198.961 154.459 198.961 156.267V149.298Z" fill="#031A30" stroke="#F0F0F0" stroke-linecap="round" stroke-linejoin="round"/>
<path fill-rule="evenodd" clip-rule="evenodd" d="M223.429 149.301C223.429 151.108 222.235 152.916 219.846 154.295C215.068 157.054 207.322 157.054 202.544 154.295C200.155 152.916 198.961 151.108 198.961 149.301V156.27C198.961 158.078 200.155 159.885 202.544 161.264C207.322 164.023 215.068 164.023 219.846 161.264C222.235 159.885 223.429 158.078 223.429 156.27V149.301Z" fill="#031A30" stroke="#F0F0F0" stroke-linecap="round" stroke-linejoin="round"/>
<path d="M219.861 154.292C215.084 157.051 207.337 157.051 202.56 154.292C197.782 151.534 197.782 147.062 202.56 144.303C207.337 141.545 215.084 141.545 219.861 144.303C224.639 147.062 224.639 151.534 219.861 154.292Z" fill="#031A30" stroke="#F0F0F0" stroke-linecap="round" stroke-linejoin="round"/>
<path fill-rule="evenodd" clip-rule="evenodd" d="M198.961 139.692C198.961 137.885 200.155 136.077 202.544 134.698C207.322 131.939 215.068 131.939 219.846 134.698C222.235 136.077 223.429 137.885 223.429 139.692V146.661C223.429 144.854 222.235 143.046 219.846 141.667C215.068 138.908 207.322 138.908 202.544 141.667C200.155 143.046 198.961 144.854 198.961 146.661V139.692Z" fill="#031A30" stroke="#F0F0F0" stroke-linecap="round" stroke-linejoin="round"/>
<path fill-rule="evenodd" clip-rule="evenodd" d="M223.429 139.695C223.429 141.503 222.235 143.311 219.846 144.69C215.068 147.448 207.322 147.448 202.544 144.69C200.155 143.311 198.961 141.503 198.961 139.695V146.664C198.961 148.472 200.155 150.28 202.544 151.659C207.322 154.417 215.068 154.417 219.846 151.659C222.235 150.28 223.429 148.472 223.429 146.664V139.695Z" fill="#031A30" stroke="#F0F0F0" stroke-linecap="round" stroke-linejoin="round"/>
<path d="M219.861 144.687C215.084 147.445 207.337 147.445 202.56 144.687C197.782 141.928 197.782 137.456 202.56 134.698C207.337 131.939 215.084 131.939 219.861 134.698C224.639 137.456 224.639 141.928 219.861 144.687Z" fill="#031A30" stroke="#F0F0F0" stroke-linecap="round" stroke-linejoin="round"/>
<path fill-rule="evenodd" clip-rule="evenodd" d="M190.348 124.351C190.348 124.8 190.051 125.248 189.459 125.59L184.448 128.483L150.82 147.899C149.634 148.583 147.712 148.583 146.527 147.899L112.899 128.484L107.888 125.59C107.328 125.268 107.033 124.85 107.001 124.427C107.001 124.42 107 124.412 107 124.405L107.001 124.427L107 132.667C107.023 133.098 107.319 133.524 107.888 133.853L146.527 156.161C147.712 156.845 149.634 156.845 150.82 156.161L189.459 133.853C190.051 133.511 190.348 133.062 190.348 132.613V132.562V124.351Z" fill="#031A30"/>
<path d="M107.889 123.114C107.273 123.47 106.977 123.941 107.001 124.408V124.427C107.033 124.85 107.328 125.268 107.888 125.59L112.899 128.484L146.527 147.899C147.712 148.583 149.634 148.583 150.82 147.899L184.448 128.483L189.459 125.59C190.051 125.248 190.348 124.8 190.348 124.351V132.562C190.349 132.58 190.349 132.598 190.349 132.616V124.354C190.349 123.905 190.053 123.457 189.46 123.114L150.821 100.806C149.636 100.122 147.713 100.122 146.528 100.806L107.889 123.114Z" fill="#031A30"/>
<path d="M190.349 124.354C190.349 123.905 190.053 123.457 189.46 123.114L150.821 100.806C149.636 100.122 147.713 100.122 146.528 100.806L107.889 123.114C107.273 123.47 106.977 123.941 107.001 124.408V124.427M190.349 124.354V132.616M190.349 124.354L190.348 132.562M190.349 132.616C190.349 132.598 190.349 132.58 190.348 132.562M190.349 132.616L190.348 132.562M184.448 128.483L150.82 147.899C149.634 148.583 147.712 148.583 146.527 147.899L112.899 128.484M184.448 128.483L189.459 125.59C190.051 125.248 190.348 124.8 190.348 124.351V132.562M184.448 128.483L189.46 131.377C190.029 131.705 190.325 132.132 190.348 132.562M112.899 128.484L107.888 125.59C107.328 125.268 107.033 124.85 107.001 124.427M112.899 128.484L107.889 131.377C107.273 131.733 106.977 132.204 107.001 132.67V124.427M107.001 124.427L107 124.405C107 124.412 107.001 124.42 107.001 124.427ZM107.001 124.427L107 132.667C107.023 133.098 107.319 133.524 107.888 133.853L146.527 156.161C147.712 156.845 149.634 156.845 150.82 156.161L189.459 133.853C190.051 133.511 190.348 133.062 190.348 132.613V132.562" stroke="#F0F0F0" stroke-linecap="round"/>
<path d="M189.46 131.377C190.053 131.719 190.349 132.168 190.349 132.616V124.354C190.349 123.905 190.053 123.457 189.46 123.114L150.821 100.806C149.636 100.122 147.713 100.122 146.528 100.806L107.889 123.114C107.273 123.47 106.977 123.941 107.001 124.408V132.67C106.977 132.204 107.273 131.733 107.889 131.377" stroke="#F0F0F0" stroke-linecap="round"/>
<path fill-rule="evenodd" clip-rule="evenodd" d="M190.348 124.352C190.348 124.8 190.051 125.249 189.459 125.591L150.82 147.899C149.634 148.583 147.712 148.583 146.527 147.899L107.888 125.591C107.319 125.262 107.023 124.836 107 124.405V132.668C107.023 133.098 107.319 133.525 107.888 133.853L146.527 156.161C147.712 156.846 149.634 156.846 150.82 156.161L189.459 133.853C190.051 133.511 190.348 133.062 190.348 132.614V124.352Z" fill="#031A30" stroke="#F0F0F0" stroke-linecap="round"/>
<path fill-rule="evenodd" clip-rule="evenodd" d="M164.852 134.105L154.969 128.399V108.429C154.969 104.603 152.283 99.9501 148.969 98.0369C147.312 97.0803 145.812 96.9897 144.727 97.6166L154.609 91.9109C155.695 91.284 157.195 91.3746 158.852 92.3312C162.166 94.2444 164.852 98.8973 164.852 102.724V122.694L174.735 128.399L164.852 134.105Z" fill="#F0F0F0"/>
<path fill-rule="evenodd" clip-rule="evenodd" d="M164.852 134.105L154.969 128.399V108.429C154.969 104.603 152.283 99.9501 148.969 98.0369C147.312 97.0803 145.812 96.9897 144.727 97.6166L154.609 91.9109C155.695 91.284 157.195 91.3746 158.852 92.3312C162.166 94.2444 164.852 98.8973 164.852 102.724V122.694L174.735 128.399L164.852 134.105Z" fill="#031A30"/>
<path fill-rule="evenodd" clip-rule="evenodd" d="M164.852 134.105L154.969 128.399V108.429C154.969 104.603 152.283 99.9501 148.969 98.0369C147.312 97.0803 145.812 96.9897 144.727 97.6166L154.609 91.9109C155.695 91.284 157.195 91.3746 158.852 92.3312C162.166 94.2444 164.852 98.8973 164.852 102.724V122.694L174.735 128.399L164.852 134.105Z" stroke="#F0F0F0" stroke-linecap="round" stroke-linejoin="round"/>
<path fill-rule="evenodd" clip-rule="evenodd" d="M144.726 97.6198C143.64 98.2466 142.969 99.591 142.969 101.504V121.474L152.851 115.768V95.7985C152.851 93.8853 153.523 92.541 154.609 91.9141L144.726 97.6198Z" fill="#031A30" stroke="#F0F0F0" stroke-linecap="round" stroke-linejoin="round"/>
<path d="M133.086 115.767V77.457L154.969 90.0911C160.427 93.2422 164.851 100.906 164.851 107.208V134.106L154.969 128.401V108.431C154.969 104.604 152.282 99.9515 148.969 98.0383C145.655 96.1251 142.968 97.676 142.968 101.502V121.472L133.086 115.767Z" fill="#031A30" stroke="#F0F0F0" stroke-linecap="round" stroke-linejoin="round"/>
<path fill-rule="evenodd" clip-rule="evenodd" d="M148.547 143.886L138.665 138.181V118.211C138.665 114.384 135.978 109.731 132.665 107.818C131.008 106.862 129.508 106.771 128.422 107.398L138.304 101.692C139.39 101.065 140.89 101.156 142.547 102.112C145.861 104.026 148.547 108.679 148.547 112.505V132.475L158.43 138.181L148.547 143.886Z" fill="#F0F0F0"/>
<path fill-rule="evenodd" clip-rule="evenodd" d="M148.547 143.886L138.665 138.181V118.211C138.665 114.384 135.978 109.731 132.665 107.818C131.008 106.862 129.508 106.771 128.422 107.398L138.304 101.692C139.39 101.065 140.89 101.156 142.547 102.112C145.861 104.026 148.547 108.679 148.547 112.505V132.475L158.43 138.181L148.547 143.886Z" fill="#031A30"/>
<path fill-rule="evenodd" clip-rule="evenodd" d="M148.547 143.886L138.665 138.181V118.211C138.665 114.384 135.978 109.731 132.665 107.818C131.008 106.862 129.508 106.771 128.422 107.398L138.304 101.692C139.39 101.065 140.89 101.156 142.547 102.112C145.861 104.026 148.547 108.679 148.547 112.505V132.475L158.43 138.181L148.547 143.886Z" stroke="#F0F0F0" stroke-linecap="round" stroke-linejoin="round"/>
<path fill-rule="evenodd" clip-rule="evenodd" d="M128.421 107.401C127.336 108.028 126.664 109.372 126.664 111.285V131.255L136.547 125.55V105.58C136.547 103.667 137.218 102.322 138.304 101.695L128.421 107.401Z" fill="#F0F0F0"/>
<path fill-rule="evenodd" clip-rule="evenodd" d="M128.421 107.401C127.336 108.028 126.664 109.372 126.664 111.285V131.255L136.547 125.55V105.58C136.547 103.667 137.218 102.322 138.304 101.695L128.421 107.401Z" fill="#031A30"/>
<path fill-rule="evenodd" clip-rule="evenodd" d="M128.421 107.401C127.336 108.028 126.664 109.372 126.664 111.285V131.255L136.547 125.55V105.58C136.547 103.667 137.218 102.322 138.304 101.695L128.421 107.401Z" stroke="#F0F0F0" stroke-linecap="round" stroke-linejoin="round"/>
<path d="M116.781 125.548V87.2383L138.664 99.8723C144.122 103.023 148.547 110.687 148.547 116.989V143.888L138.664 138.182V118.212C138.664 114.386 135.978 109.733 132.664 107.82C129.35 105.906 126.664 107.457 126.664 111.284V131.254L116.781 125.548Z" fill="#031A30" stroke="#F0F0F0" stroke-linecap="round" stroke-linejoin="round"/>
<path d="M154.969 90.0875C160.427 93.2387 164.851 100.902 164.851 107.205V134.103L174.734 128.397V101.499C174.734 95.1966 170.309 87.533 164.851 84.3818L143.784 72.2184C143.279 71.9272 142.658 71.9272 142.153 72.2184L119.229 85.8229C118.142 86.4504 118.142 88.019 119.229 88.6465L138.667 99.8687C144.125 103.02 148.549 110.683 148.549 116.986V143.884L158.432 138.178V111.28C158.432 104.978 154.007 97.3142 148.549 94.163L139.607 88.8687C137.46 87.6589 137.49 84.9811 139.505 83.5629V83.5629C142.325 81.5782 145.989 84.4921 148.915 86.3158L154.969 90.0875Z" fill="#031A30"/>
<path d="M154.969 90.0875C160.427 93.2387 164.851 100.902 164.851 107.205V134.103L174.734 128.397V101.499C174.734 95.1966 170.309 87.533 164.851 84.3818L143.784 72.2184C143.279 71.9272 142.658 71.9272 142.153 72.2184L119.229 85.8229C118.142 86.4504 118.142 88.019 119.229 88.6465L138.667 99.8687C144.125 103.02 148.549 110.683 148.549 116.986V143.884L158.432 138.178V111.28C158.432 104.978 154.007 97.3142 148.549 94.163L139.607 88.8687C137.46 87.6589 137.49 84.9811 139.505 83.5629V83.5629C142.325 81.5782 145.989 84.4921 148.915 86.3158L154.969 90.0875Z" fill="#031A30"/>
<path d="M154.969 90.0875C160.427 93.2387 164.851 100.902 164.851 107.205V134.103L174.734 128.397V101.499C174.734 95.1966 170.309 87.533 164.851 84.3818L143.784 72.2184C143.279 71.9272 142.658 71.9272 142.153 72.2184L119.229 85.8229C118.142 86.4504 118.142 88.019 119.229 88.6465L138.667 99.8687C144.125 103.02 148.549 110.683 148.549 116.986V143.884L158.432 138.178V111.28C158.432 104.978 154.007 97.3142 148.549 94.163L139.607 88.8687C137.46 87.6589 137.49 84.9811 139.505 83.5629V83.5629C142.325 81.5782 145.989 84.4921 148.915 86.3158L154.969 90.0875Z" stroke="#F0F0F0" stroke-linecap="round" stroke-linejoin="round"/>
<rect width="27.3083" height="26.8908" rx="5.74105" transform="matrix(0.866025 0.5 -0.866025 0.5 68.3516 214.633)" fill="#031A30" stroke="#F0F0F0" stroke-linecap="round" stroke-linejoin="round"/>
<path d="M67.4069 227.855C67.407 227.82 67.4235 227.788 67.4513 227.768V227.768C68.231 227.207 69.2826 227.207 70.0622 227.768V227.768C70.0903 227.788 70.1068 227.821 70.1067 227.855L70.1063 227.932C70.1062 227.973 70.0934 228.012 70.07 228.045V228.045C69.4263 228.946 68.0865 228.947 67.4429 228.046V228.046C67.4191 228.012 67.4063 227.972 67.4065 227.932L67.4069 227.855Z" fill="#031A30" stroke="#F0F0F0" stroke-linecap="round" stroke-linejoin="round"/>
<path d="M67.4062 205.855H70.1061V227.994V227.994C69.4445 228.92 68.0679 228.92 67.4062 227.994V227.994V205.855Z" fill="#031A30" stroke="#F0F0F0" stroke-linecap="round" stroke-linejoin="round"/>
<path d="M81.2219 212.823C81.2219 217.893 74.0883 221.031 69.0187 221.031C63.949 221.031 56.4375 216.921 56.4375 211.852C56.4375 206.782 63.949 174 69.0187 174C74.0883 174 81.2219 207.754 81.2219 212.823Z" fill="#031A30" stroke="#F0F0F0" stroke-linecap="round" stroke-linejoin="round"/>
<rect width="27.3083" height="26.8908" rx="5.74105" transform="matrix(0.866025 0.5 -0.866025 0.5 34.2891 195.375)" fill="#031A30" stroke="#F0F0F0" stroke-linecap="round" stroke-linejoin="round"/>
<path d="M33.5943 208.714C33.5944 208.685 33.6082 208.658 33.6314 208.641V208.641C34.2833 208.172 35.1625 208.172 35.8143 208.641V208.641C35.8378 208.658 35.8516 208.685 35.8515 208.714L35.8512 208.779C35.8511 208.813 35.8404 208.845 35.8208 208.873V208.873C35.2826 209.626 34.1625 209.627 33.6244 208.874V208.874C33.6045 208.846 33.5938 208.812 33.594 208.778L33.5943 208.714Z" fill="#031A30" stroke="#F0F0F0" stroke-linecap="round" stroke-linejoin="round"/>
<path d="M33.5938 190.32H35.851V208.83V208.83C35.2978 209.604 34.1469 209.604 33.5938 208.83V208.83V190.32Z" fill="#031A30" stroke="#F0F0F0" stroke-linecap="round" stroke-linejoin="round"/>
<circle cx="34.9402" cy="191.675" r="7.67458" fill="#031A30" stroke="#F0F0F0" stroke-linecap="round" stroke-linejoin="round"/>
<rect width="27.3083" height="26.8908" rx="5.74105" transform="matrix(0.866025 0.5 -0.866025 0.5 226.352 216.633)" fill="#031A30" stroke="#F0F0F0" stroke-linecap="round" stroke-linejoin="round"/>
<path d="M225.407 229.855C225.407 229.82 225.424 229.788 225.451 229.768V229.768C226.231 229.207 227.283 229.207 228.062 229.768V229.768C228.09 229.788 228.107 229.821 228.107 229.855L228.106 229.932C228.106 229.973 228.093 230.012 228.07 230.045V230.045C227.426 230.946 226.087 230.947 225.443 230.046V230.046C225.419 230.012 225.406 229.972 225.407 229.932L225.407 229.855Z" fill="#031A30" stroke="#F0F0F0" stroke-linecap="round" stroke-linejoin="round"/>
<path d="M225.406 207.855H228.106V229.994V229.994C227.444 230.92 226.068 230.92 225.406 229.994V229.994V207.855Z" fill="#031A30" stroke="#F0F0F0" stroke-linecap="round" stroke-linejoin="round"/>
<path d="M239.222 214.823C239.222 219.893 232.088 223.031 227.019 223.031C221.949 223.031 214.438 218.921 214.438 213.852C214.438 208.782 221.949 176 227.019 176C232.088 176 239.222 209.754 239.222 214.823Z" fill="#031A30" stroke="#F0F0F0" stroke-linecap="round" stroke-linejoin="round"/>
<rect width="27.3083" height="26.8908" rx="5.74105" transform="matrix(0.866025 0.5 -0.866025 0.5 262.289 194.375)" fill="#031A30" stroke="#F0F0F0" stroke-linecap="round" stroke-linejoin="round"/>
<path d="M261.594 207.714C261.594 207.685 261.608 207.658 261.631 207.641V207.641C262.283 207.172 263.163 207.172 263.814 207.641V207.641C263.838 207.658 263.852 207.685 263.851 207.714L263.851 207.779C263.851 207.813 263.84 207.845 263.821 207.873V207.873C263.283 208.626 262.163 208.627 261.624 207.874V207.874C261.604 207.846 261.594 207.812 261.594 207.778L261.594 207.714Z" fill="#031A30" stroke="#F0F0F0" stroke-linecap="round" stroke-linejoin="round"/>
<path d="M261.594 189.32H263.851V207.83V207.83C263.298 208.604 262.147 208.604 261.594 207.83V207.83V189.32Z" fill="#031A30" stroke="#F0F0F0" stroke-linecap="round" stroke-linejoin="round"/>
<circle cx="262.94" cy="190.675" r="7.67458" fill="#031A30" stroke="#F0F0F0" stroke-linecap="round" stroke-linejoin="round"/>
</svg>
