<svg width="300" height="300" viewBox="0 0 300 300" fill="none" xmlns="http://www.w3.org/2000/svg">
<path fill-rule="evenodd" clip-rule="evenodd" d="M257.996 164.641C257.996 165.808 257.225 166.976 255.681 167.867L155.085 225.947C151.999 227.729 146.994 227.729 143.908 225.947L43.3112 167.867C41.8296 167.012 41.0592 165.901 41 164.781V186.292C41.0592 187.412 41.8296 188.523 43.3112 189.378L143.908 247.458C146.994 249.24 151.999 249.24 155.085 247.458L255.681 189.378C257.225 188.487 257.996 187.319 257.996 186.152V164.641Z" fill="#031A30" stroke="#F0F0F0" stroke-linecap="round" stroke-linejoin="round"/>
<path d="M143.911 103.337C146.998 101.554 152.002 101.554 155.089 103.337L255.685 161.416C258.772 163.198 258.772 166.087 255.685 167.869L155.089 225.949C152.002 227.73 146.998 227.73 143.911 225.949L43.3149 167.869C40.2283 166.087 40.2284 163.198 43.3149 161.416L143.911 103.337Z" fill="#031A30" stroke="#F0F0F0" stroke-linecap="round" stroke-linejoin="round"/>
<path d="M145.027 116.995C147.439 115.606 151.349 115.606 153.761 116.995L232.369 162.269C234.781 163.658 234.781 165.911 232.369 167.3L153.761 212.574C151.349 213.963 147.438 213.963 145.027 212.574L66.4183 167.3C64.0064 165.911 64.0064 163.658 66.4183 162.269L145.027 116.995Z" fill="#031A30" stroke="#F0F0F0" stroke-linecap="round" stroke-linejoin="round"/>
<path fill-rule="evenodd" clip-rule="evenodd" d="M113.719 58.3127C115.157 57.378 117.198 57.4544 119.462 58.7615L164.338 84.6706C168.692 87.1843 172.221 93.2978 172.221 98.3253V150.143C172.221 152.657 171.339 154.423 169.912 155.247L175.976 151.746C177.403 150.922 178.285 149.156 178.285 146.642V94.8241C178.285 89.7966 174.756 83.6831 170.402 81.1693L125.526 55.2603C123.262 53.9531 121.221 53.8767 119.783 54.8115L113.719 58.3127Z" fill="#031A30" stroke="#F0F0F0" stroke-linecap="round" stroke-linejoin="round"/>
<path fill-rule="evenodd" clip-rule="evenodd" d="M169.92 155.248C168.493 156.072 166.522 155.953 164.345 154.696L119.47 128.787C115.116 126.273 111.586 120.16 111.586 115.132V63.3142C111.586 60.9009 112.399 59.1765 113.726 58.3137L119.791 54.8125C118.463 55.6753 117.65 57.3997 117.65 59.8129V111.631C117.65 116.659 121.18 122.772 125.534 125.286L170.41 151.195C172.587 152.452 174.557 152.571 175.984 151.747L169.92 155.248Z" fill="#031A30" stroke="#F0F0F0" stroke-linecap="round" stroke-linejoin="round"/>
<path d="M111.586 63.3158C111.586 58.2883 115.116 56.2504 119.47 58.7642L164.345 84.6732C168.699 87.187 172.229 93.3005 172.229 98.328V150.146C172.229 155.174 168.699 157.211 164.345 154.698L119.47 128.789C115.116 126.275 111.586 120.161 111.586 115.134V63.3158Z" fill="#031A30" stroke="#F0F0F0" stroke-linecap="round" stroke-linejoin="round"/>
<path fill-rule="evenodd" clip-rule="evenodd" d="M152.28 134.126C149.844 135.735 145.181 133.215 139.829 130.125C131.959 125.581 125.578 121.526 125.578 112.283C125.578 107.662 127.173 104.399 129.752 102.86L132.784 101.109C130.205 102.649 128.61 105.912 128.61 110.533C128.61 119.775 134.991 123.83 142.861 128.374C148.213 131.464 152.876 133.985 155.313 132.375L152.28 134.126Z" fill="#031A30" stroke="#F0F0F0" stroke-linecap="round" stroke-linejoin="round"/>
<path fill-rule="evenodd" clip-rule="evenodd" d="M129.75 102.861C132.329 101.322 135.892 101.505 139.827 103.777C147.698 108.322 154.078 119.498 154.078 128.74C154.078 131.698 153.425 133.369 152.278 134.127L155.31 132.376C156.457 131.619 157.11 129.947 157.11 126.989C157.11 117.747 150.73 106.571 142.859 102.027C138.924 99.7548 135.361 99.5709 132.782 101.11L129.75 102.861Z" fill="#031A30" stroke="#F0F0F0" stroke-linecap="round" stroke-linejoin="round"/>
<path fill-rule="evenodd" clip-rule="evenodd" d="M147.746 103.23C145.814 104.456 143.071 104.334 140.03 102.578C134.18 99.2008 129.438 91.0562 129.438 84.3867C129.438 81.1853 130.53 78.9057 132.313 77.774L135.345 76.0234C133.562 77.1551 132.47 79.4347 132.47 82.6361C132.47 89.3055 137.212 97.4502 143.062 100.828C146.104 102.584 148.846 102.705 150.778 101.479L147.746 103.23Z" fill="#031A30" stroke="#F0F0F0" stroke-linecap="round" stroke-linejoin="round"/>
<path fill-rule="evenodd" clip-rule="evenodd" d="M132.312 77.769C134.244 76.5431 136.987 76.6644 140.029 78.4207C145.878 81.7981 150.621 89.9427 150.621 96.6122C150.621 99.8136 149.528 102.093 147.745 103.225L150.777 101.474C152.56 100.343 153.653 98.063 153.653 94.8616C153.653 88.1921 148.911 80.0474 143.061 76.6701C140.019 74.9138 137.277 74.7924 135.345 76.0184L132.312 77.769Z" fill="#031A30" stroke="#F0F0F0" stroke-linecap="round" stroke-linejoin="round"/>
<path d="M154.08 128.749C154.08 137.991 147.7 134.679 139.829 130.135C131.959 125.591 125.578 121.536 125.578 112.293C125.578 103.051 131.959 99.2425 139.829 103.787C147.7 108.331 154.08 119.507 154.08 128.749ZM150.614 96.6194C150.614 103.289 145.872 105.958 140.022 102.58C134.172 99.2029 129.43 91.0583 129.43 84.3888C129.43 77.7193 134.172 75.0505 140.022 78.4279C145.872 81.8053 150.614 89.9499 150.614 96.6194Z" fill="#031A30" stroke="#F0F0F0" stroke-linecap="round" stroke-linejoin="round"/>
<path fill-rule="evenodd" clip-rule="evenodd" d="M90.3359 86.496C90.6103 86.3376 90.9893 86.3605 91.408 86.6022L186.617 141.571C187.455 142.055 188.133 143.23 188.133 144.197V144.197C188.133 144.681 187.964 145.02 187.689 145.179L190.722 143.428C190.996 143.27 191.166 142.93 191.166 142.447V142.447C191.166 141.48 190.487 140.304 189.649 139.821L94.4401 84.8516C94.0215 84.6099 93.6424 84.587 93.3681 84.7454L90.3359 86.496Z" fill="#031A30"/>
<path d="M188.133 144.197C188.133 143.23 187.455 142.055 186.617 141.571L91.408 86.6022C90.9893 86.3605 90.6103 86.3376 90.3359 86.496L93.3681 84.7454C93.6424 84.587 94.0215 84.6099 94.4401 84.8516L189.649 139.821C190.487 140.304 191.166 141.48 191.166 142.447M188.133 144.197V144.197ZM188.133 144.197C188.133 144.681 187.964 145.02 187.689 145.179L190.722 143.428C190.996 143.27 191.166 142.93 191.166 142.447M191.166 142.447V142.447Z" stroke="#F0F0F0" stroke-linecap="round" stroke-linejoin="round"/>
<path d="M89.8906 87.473C89.8906 86.5062 90.5694 86.1143 91.4067 86.5977L186.616 141.567C187.454 142.05 188.132 143.226 188.132 144.193V144.193C188.132 145.16 187.454 145.552 186.616 145.068L91.4067 90.0989C90.5694 89.6155 89.8906 88.4398 89.8906 87.473V87.473Z" fill="#031A30"/>
<path d="M89.8906 87.473C89.8906 86.5062 90.5694 86.1143 91.4067 86.5977L186.616 141.567C187.454 142.05 188.132 143.226 188.132 144.193M89.8906 87.473C89.8906 88.4398 90.5694 89.6155 91.4067 90.0989L186.616 145.068C187.454 145.552 188.132 145.16 188.132 144.193M89.8906 87.473V87.473ZM188.132 144.193V144.193Z" stroke="#F0F0F0" stroke-linecap="round" stroke-linejoin="round"/>
<path fill-rule="evenodd" clip-rule="evenodd" d="M99.5703 33.9074C103.128 31.8533 107.948 31.9859 113.302 34.7271C113.97 35.0695 114.514 36.0149 114.514 36.7883V38.6041C114.514 38.9908 114.378 39.261 114.158 39.3931L120.223 35.8918C120.442 35.7598 120.579 35.4896 120.579 35.1029V33.2871C120.579 32.5136 120.035 31.5683 119.366 31.2259C114.012 28.4847 109.192 28.352 105.635 30.4062L99.5703 33.9074Z" fill="#031A30" stroke="#F0F0F0" stroke-linecap="round" stroke-linejoin="round"/>
<path fill-rule="evenodd" clip-rule="evenodd" d="M102.751 38.6184C99.7226 40.1769 97.7388 43.6001 97.4299 48.524C97.4074 48.8814 97.2717 49.1406 97.0625 49.2707L103.127 45.7695C103.336 45.6394 103.472 45.3802 103.494 45.0228C103.803 40.0989 105.787 36.6756 108.815 35.1172L102.751 38.6184Z" fill="#031A30" stroke="#F0F0F0" stroke-linecap="round" stroke-linejoin="round"/>
<path fill-rule="evenodd" clip-rule="evenodd" d="M170.82 68.3427C171.042 68.2032 171.356 68.2247 171.704 68.4482C182.411 75.3294 190.984 90.1811 191.59 102.892C191.609 103.289 191.482 103.566 191.266 103.695L197.33 100.194C197.546 100.065 197.673 99.7882 197.654 99.3912C197.049 86.6798 188.475 71.8282 177.768 64.947C177.42 64.7235 177.106 64.7019 176.885 64.8415L170.82 68.3427Z" fill="#031A30" stroke="#F0F0F0" stroke-linecap="round" stroke-linejoin="round"/>
<path fill-rule="evenodd" clip-rule="evenodd" d="M185.421 182.624C181.863 184.678 177.043 184.545 171.689 181.804C171.021 181.462 170.477 180.517 170.477 179.743V177.927C170.477 177.54 170.613 177.27 170.833 177.138L176.897 173.637C176.677 173.769 176.541 174.039 176.541 174.426V176.242C176.541 177.015 177.085 177.96 177.754 178.303C183.107 181.044 187.927 181.177 191.485 179.123L185.421 182.624Z" fill="#031A30" stroke="#F0F0F0" stroke-linecap="round" stroke-linejoin="round"/>
<path fill-rule="evenodd" clip-rule="evenodd" d="M170.836 177.137C171.056 177.005 171.359 177.011 171.693 177.176C175.772 179.202 179.457 179.353 182.252 177.914L188.316 174.413C185.521 175.852 181.836 175.701 177.757 173.675C177.423 173.509 177.12 173.503 176.9 173.635L170.836 177.137Z" fill="#031A30" stroke="#F0F0F0" stroke-linecap="round" stroke-linejoin="round"/>
<path fill-rule="evenodd" clip-rule="evenodd" d="M182.25 177.915C185.278 176.357 187.262 172.934 187.571 168.009C187.593 167.652 187.729 167.393 187.938 167.263L194.002 163.762C193.793 163.892 193.657 164.151 193.635 164.508C193.326 169.432 191.342 172.856 188.314 174.414L182.25 177.915Z" fill="#031A30" stroke="#F0F0F0" stroke-linecap="round" stroke-linejoin="round"/>
<path fill-rule="evenodd" clip-rule="evenodd" d="M187.938 167.268C188.165 167.127 188.477 167.137 188.826 167.339L190.398 168.246C191.068 168.633 191.615 169.577 191.577 170.328C191.274 176.333 188.979 180.574 185.422 182.628L191.486 179.127C195.044 177.073 197.339 172.832 197.641 166.826C197.679 166.076 197.133 165.132 196.463 164.745L194.89 163.837C194.542 163.636 194.229 163.626 194.002 163.767L187.938 167.268Z" fill="#031A30" stroke="#F0F0F0" stroke-linecap="round" stroke-linejoin="round"/>
<path fill-rule="evenodd" clip-rule="evenodd" d="M114.178 148.194C113.956 148.333 113.642 148.312 113.294 148.088C102.587 141.207 94.0138 126.355 93.4081 113.644C93.3892 113.247 93.5164 112.97 93.732 112.841L99.7963 109.34C99.5807 109.469 99.4535 109.746 99.4724 110.143C100.078 122.854 108.651 137.706 119.359 144.587C119.706 144.811 120.02 144.832 120.242 144.692L114.178 148.194Z" fill="#031A30" stroke="#F0F0F0" stroke-linecap="round" stroke-linejoin="round"/>
<path fill-rule="evenodd" clip-rule="evenodd" d="M93.7188 112.842C93.9344 112.712 94.2385 112.731 94.5734 112.924L96.1459 113.832C96.8158 114.219 97.3543 115.159 97.4011 115.957C97.9952 126.113 104.783 137.871 113.281 143.462C113.949 143.902 114.494 144.838 114.494 145.612V147.428C114.494 147.799 114.369 148.065 114.164 148.194L120.229 144.693C120.433 144.564 120.558 144.298 120.558 143.927V142.111C120.558 141.337 120.013 140.401 119.345 139.961C110.848 134.369 104.059 122.612 103.465 112.456C103.419 111.658 102.88 110.718 102.21 110.331L100.638 109.423C100.303 109.23 99.9987 109.211 99.783 109.34L93.7188 112.842Z" fill="#031A30" stroke="#F0F0F0" stroke-linecap="round" stroke-linejoin="round"/>
<path d="M94.5867 48.296C93.9169 47.9093 93.3703 46.9654 93.4081 46.215C94.0138 34.2031 102.587 29.2513 113.294 34.7337C113.963 35.0761 114.507 36.0215 114.507 36.7949V38.6107C114.507 39.3841 113.962 39.6915 113.294 39.3596C104.797 35.1396 98.0085 39.0588 97.4143 48.5278C97.3676 49.2725 96.8291 49.5906 96.1592 49.2039L94.5867 48.296ZM170.482 69.112C170.482 68.3385 171.026 68.0214 171.695 68.4512C182.402 75.3324 190.976 90.1841 191.581 102.895C191.619 103.689 191.073 104.002 190.403 103.615L188.83 102.707C188.16 102.321 187.621 101.381 187.575 100.582C186.981 90.4271 180.193 78.6696 171.695 73.0772C171.027 72.6378 170.482 71.7012 170.482 70.9277V69.112ZM190.403 168.249C191.073 168.636 191.619 169.58 191.581 170.331C190.976 182.342 182.402 187.294 171.695 181.812C171.026 181.469 170.482 180.524 170.482 179.751V177.935C170.482 177.161 171.027 176.854 171.695 177.186C180.193 181.406 186.981 177.487 187.575 168.017C187.621 167.273 188.16 166.955 188.83 167.342L190.403 168.249ZM114.507 147.434C114.507 148.207 113.963 148.524 113.294 148.095C102.587 141.213 94.0138 126.361 93.4081 113.65C93.3703 112.856 93.9169 112.543 94.5867 112.93L96.1592 113.838C96.8291 114.225 97.3676 115.165 97.4143 115.963C98.0085 126.119 104.797 137.876 113.294 143.468C113.962 143.908 114.507 144.844 114.507 145.618V147.434Z" fill="#031A30" stroke="#F0F0F0" stroke-linecap="round" stroke-linejoin="round"/>
<rect width="27.3083" height="26.8908" rx="5.74105" transform="matrix(0.866025 0.5 -0.866025 0.5 68.3516 214.633)" fill="#031A30" stroke="#F0F0F0" stroke-linecap="round" stroke-linejoin="round"/>
<path d="M67.4069 227.855C67.407 227.82 67.4235 227.788 67.4513 227.768V227.768C68.231 227.207 69.2826 227.207 70.0622 227.768V227.768C70.0903 227.788 70.1068 227.821 70.1067 227.855L70.1063 227.932C70.1062 227.973 70.0934 228.012 70.07 228.045V228.045C69.4263 228.946 68.0865 228.947 67.4429 228.046V228.046C67.4191 228.012 67.4063 227.972 67.4065 227.932L67.4069 227.855Z" fill="#031A30" stroke="#F0F0F0" stroke-linecap="round" stroke-linejoin="round"/>
<path d="M67.4062 205.855H70.1061V227.994V227.994C69.4445 228.92 68.0679 228.92 67.4062 227.994V227.994V205.855Z" fill="#031A30" stroke="#F0F0F0" stroke-linecap="round" stroke-linejoin="round"/>
<path d="M81.2219 212.823C81.2219 217.893 74.0883 221.031 69.0187 221.031C63.949 221.031 56.4375 216.921 56.4375 211.852C56.4375 206.782 63.949 174 69.0187 174C74.0883 174 81.2219 207.754 81.2219 212.823Z" fill="#031A30" stroke="#F0F0F0" stroke-linecap="round" stroke-linejoin="round"/>
<rect width="27.3083" height="26.8908" rx="5.74105" transform="matrix(0.866025 0.5 -0.866025 0.5 34.2891 195.375)" fill="#031A30" stroke="#F0F0F0" stroke-linecap="round" stroke-linejoin="round"/>
<path d="M33.5943 208.714C33.5944 208.685 33.6082 208.658 33.6314 208.641V208.641C34.2833 208.172 35.1625 208.172 35.8143 208.641V208.641C35.8378 208.658 35.8516 208.685 35.8515 208.714L35.8512 208.779C35.8511 208.813 35.8404 208.845 35.8208 208.873V208.873C35.2826 209.626 34.1625 209.627 33.6244 208.874V208.874C33.6045 208.846 33.5938 208.812 33.594 208.778L33.5943 208.714Z" fill="#031A30" stroke="#F0F0F0" stroke-linecap="round" stroke-linejoin="round"/>
<path d="M33.5938 190.32H35.851V208.83V208.83C35.2978 209.604 34.1469 209.604 33.5938 208.83V208.83V190.32Z" fill="#031A30" stroke="#F0F0F0" stroke-linecap="round" stroke-linejoin="round"/>
<circle cx="34.9402" cy="191.675" r="7.67458" fill="#031A30" stroke="#F0F0F0" stroke-linecap="round" stroke-linejoin="round"/>
<rect width="27.3083" height="26.8908" rx="5.74105" transform="matrix(0.866025 0.5 -0.866025 0.5 226.352 216.633)" fill="#031A30" stroke="#F0F0F0" stroke-linecap="round" stroke-linejoin="round"/>
<path d="M225.407 229.855C225.407 229.82 225.424 229.788 225.451 229.768V229.768C226.231 229.207 227.283 229.207 228.062 229.768V229.768C228.09 229.788 228.107 229.821 228.107 229.855L228.106 229.932C228.106 229.973 228.093 230.012 228.07 230.045V230.045C227.426 230.946 226.087 230.947 225.443 230.046V230.046C225.419 230.012 225.406 229.972 225.407 229.932L225.407 229.855Z" fill="#031A30" stroke="#F0F0F0" stroke-linecap="round" stroke-linejoin="round"/>
<path d="M225.406 207.855H228.106V229.994V229.994C227.444 230.92 226.068 230.92 225.406 229.994V229.994V207.855Z" fill="#031A30" stroke="#F0F0F0" stroke-linecap="round" stroke-linejoin="round"/>
<path d="M239.222 214.823C239.222 219.893 232.088 223.031 227.019 223.031C221.949 223.031 214.438 218.921 214.438 213.852C214.438 208.782 221.949 176 227.019 176C232.088 176 239.222 209.754 239.222 214.823Z" fill="#031A30" stroke="#F0F0F0" stroke-linecap="round" stroke-linejoin="round"/>
<rect width="27.3083" height="26.8908" rx="5.74105" transform="matrix(0.866025 0.5 -0.866025 0.5 262.289 194.375)" fill="#031A30" stroke="#F0F0F0" stroke-linecap="round" stroke-linejoin="round"/>
<path d="M261.594 207.714C261.594 207.685 261.608 207.658 261.631 207.641V207.641C262.283 207.172 263.163 207.172 263.814 207.641V207.641C263.838 207.658 263.852 207.685 263.851 207.714L263.851 207.779C263.851 207.813 263.84 207.845 263.821 207.873V207.873C263.283 208.626 262.163 208.627 261.624 207.874V207.874C261.604 207.846 261.594 207.812 261.594 207.778L261.594 207.714Z" fill="#031A30" stroke="#F0F0F0" stroke-linecap="round" stroke-linejoin="round"/>
<path d="M261.594 189.32H263.851V207.83V207.83C263.298 208.604 262.147 208.604 261.594 207.83V207.83V189.32Z" fill="#031A30" stroke="#F0F0F0" stroke-linecap="round" stroke-linejoin="round"/>
<circle cx="262.94" cy="190.675" r="7.67458" fill="#031A30" stroke="#F0F0F0" stroke-linecap="round" stroke-linejoin="round"/>
</svg>
