<svg width="300" height="300" viewBox="0 0 300 300" fill="none" xmlns="http://www.w3.org/2000/svg">
<path fill-rule="evenodd" clip-rule="evenodd" d="M257.996 164.641C257.996 165.808 257.225 166.976 255.681 167.867L155.085 225.947C151.999 227.729 146.994 227.729 143.908 225.947L43.3112 167.867C41.8296 167.012 41.0592 165.901 41 164.781V186.292C41.0592 187.412 41.8296 188.523 43.3112 189.378L143.908 247.458C146.994 249.24 151.999 249.24 155.085 247.458L255.681 189.378C257.225 188.487 257.996 187.319 257.996 186.152V164.641Z" fill="#031A30" stroke="#F0F0F0" stroke-linecap="round" stroke-linejoin="round"/>
<path d="M143.911 103.337C146.998 101.554 152.002 101.554 155.089 103.337L255.685 161.416C258.772 163.198 258.772 166.087 255.685 167.869L155.089 225.949C152.002 227.73 146.998 227.73 143.911 225.949L43.3149 167.869C40.2283 166.087 40.2284 163.198 43.3149 161.416L143.911 103.337Z" fill="#031A30" stroke="#F0F0F0" stroke-linecap="round" stroke-linejoin="round"/>
<path d="M145.027 116.995C147.439 115.606 151.349 115.606 153.761 116.995L232.369 162.269C234.781 163.658 234.781 165.911 232.369 167.3L153.761 212.574C151.349 213.963 147.438 213.963 145.027 212.574L66.4183 167.3C64.0064 165.911 64.0064 163.658 66.4183 162.269L145.027 116.995Z" fill="#031A30" stroke="#F0F0F0" stroke-linecap="round" stroke-linejoin="round"/>
<path fill-rule="evenodd" clip-rule="evenodd" d="M121.727 60.7518C122.213 60.4357 122.903 60.4615 123.669 60.9036L183.663 95.5414C185.136 96.3916 186.33 98.4593 186.33 100.16V140.186C186.33 141.036 186.031 141.633 185.549 141.912L188.215 140.372C188.698 140.094 188.996 139.496 188.996 138.646V98.6203C188.996 96.9199 187.802 94.8522 186.33 94.0019L126.335 59.3642C125.57 58.9221 124.879 58.8962 124.393 59.2124L121.727 60.7518Z" fill="#031A30" stroke="#F0F0F0" stroke-linecap="round" stroke-linejoin="round"/>
<path fill-rule="evenodd" clip-rule="evenodd" d="M185.546 141.91C185.064 142.189 184.397 142.149 183.661 141.724L123.666 107.086C122.194 106.236 121 104.168 121 102.468V62.4417C121 61.6255 121.275 61.0422 121.724 60.7504L124.39 59.2109C123.941 59.5028 123.666 60.086 123.666 60.9022V100.928C123.666 102.629 124.86 104.696 126.333 105.546L186.327 140.184C187.064 140.609 187.73 140.65 188.213 140.371L185.546 141.91Z" fill="#031A30" stroke="#F0F0F0" stroke-linecap="round" stroke-linejoin="round"/>
<path d="M121 62.4466C121 60.7462 122.194 60.0569 123.666 60.9071L183.661 95.5449C185.133 96.3951 186.327 98.4628 186.327 100.163V140.189C186.327 141.89 185.133 142.579 183.661 141.729L123.666 107.091C122.194 106.241 121 104.173 121 102.472V62.4466Z" fill="#031A30" stroke="#F0F0F0" stroke-linecap="round" stroke-linejoin="round"/>
<path fill-rule="evenodd" clip-rule="evenodd" d="M122.602 84.8963C122.602 83.9602 123.22 83.024 124.457 82.3097C126.932 80.8811 130.943 80.8811 133.418 82.3097C134.655 83.024 135.273 83.9602 135.273 84.8963V88.5056C135.273 87.5694 134.655 86.6332 133.418 85.919C130.943 84.4904 126.932 84.4904 124.457 85.919C123.22 86.6332 122.602 87.5694 122.602 88.5056V84.8963Z" fill="#031A30" stroke="#F0F0F0" stroke-linecap="round" stroke-linejoin="round"/>
<path fill-rule="evenodd" clip-rule="evenodd" d="M135.273 84.8867C135.273 85.8229 134.655 86.7591 133.418 87.4734C130.943 88.9019 126.932 88.9019 124.457 87.4734C123.22 86.7591 122.602 85.8229 122.602 84.8867V88.496C122.602 89.4322 123.22 90.3683 124.457 91.0826C126.932 92.5112 130.943 92.5112 133.418 91.0826C134.655 90.3683 135.273 89.4322 135.273 88.496V84.8867Z" fill="#031A30" stroke="#F0F0F0" stroke-linecap="round" stroke-linejoin="round"/>
<path d="M133.418 87.483C130.943 88.9115 126.932 88.9115 124.457 87.483C121.983 86.0544 121.983 83.7383 124.457 82.3097C126.932 80.8811 130.943 80.8811 133.418 82.3097C135.892 83.7383 135.892 86.0544 133.418 87.483Z" fill="#031A30" stroke="#F0F0F0" stroke-linecap="round" stroke-linejoin="round"/>
<path fill-rule="evenodd" clip-rule="evenodd" d="M122.602 79.6268C122.602 78.6906 123.22 77.7544 124.457 77.0402C126.932 75.6116 130.943 75.6116 133.418 77.0402C134.655 77.7544 135.273 78.6906 135.273 79.6268V83.2361C135.273 82.2999 134.655 81.3637 133.418 80.6494C130.943 79.2209 126.932 79.2209 124.457 80.6494C123.22 81.3637 122.602 82.2999 122.602 83.2361V79.6268Z" fill="#031A30" stroke="#F0F0F0" stroke-linecap="round" stroke-linejoin="round"/>
<path fill-rule="evenodd" clip-rule="evenodd" d="M135.273 79.6172C135.273 80.5534 134.655 81.4895 133.418 82.2038C130.943 83.6324 126.932 83.6324 124.457 82.2038C123.22 81.4895 122.602 80.5534 122.602 79.6172V83.2264C122.602 84.1626 123.22 85.0988 124.457 85.8131C126.932 87.2416 130.943 87.2416 133.418 85.8131C134.655 85.0988 135.273 84.1626 135.273 83.2264V79.6172Z" fill="#031A30" stroke="#F0F0F0" stroke-linecap="round" stroke-linejoin="round"/>
<path d="M133.418 82.2134C130.943 83.642 126.932 83.642 124.457 82.2134C121.983 80.7849 121.983 78.4687 124.457 77.0402C126.932 75.6116 130.943 75.6116 133.418 77.0402C135.892 78.4687 135.892 80.7849 133.418 82.2134Z" fill="#031A30" stroke="#F0F0F0" stroke-linecap="round" stroke-linejoin="round"/>
<path fill-rule="evenodd" clip-rule="evenodd" d="M122.602 74.6581C122.602 73.7219 123.22 72.7857 124.457 72.0714C126.932 70.6429 130.943 70.6429 133.418 72.0714C134.655 72.7857 135.273 73.7219 135.273 74.6581V78.2673C135.273 77.3311 134.655 76.395 133.418 75.6807C130.943 74.2521 126.932 74.2521 124.457 75.6807C123.22 76.395 122.602 77.3311 122.602 78.2673V74.6581Z" fill="#031A30" stroke="#F0F0F0" stroke-linecap="round" stroke-linejoin="round"/>
<path fill-rule="evenodd" clip-rule="evenodd" d="M135.273 74.6484C135.273 75.5846 134.655 76.5208 133.418 77.2351C130.943 78.6636 126.932 78.6636 124.457 77.2351C123.22 76.5208 122.602 75.5846 122.602 74.6484V78.2577C122.602 79.1939 123.22 80.1301 124.457 80.8443C126.932 82.2729 130.943 82.2729 133.418 80.8443C134.655 80.1301 135.273 79.1939 135.273 78.2577V74.6484Z" fill="#031A30" stroke="#F0F0F0" stroke-linecap="round" stroke-linejoin="round"/>
<path d="M133.418 77.2447C130.943 78.6733 126.932 78.6733 124.457 77.2447C121.983 75.8161 121.983 73.5 124.457 72.0714C126.932 70.6429 130.943 70.6429 133.418 72.0714C135.892 73.5 135.892 75.8161 133.418 77.2447Z" fill="#031A30" stroke="#F0F0F0" stroke-linecap="round" stroke-linejoin="round"/>
<path d="M137.702 81.1019C137.702 79.2244 139.02 78.4633 140.646 79.4021L179.901 102.066C181.527 103.005 182.845 105.288 182.845 107.165C182.845 109.043 181.527 109.804 179.901 108.865L140.646 86.2012C139.02 85.2625 137.702 82.9794 137.702 81.1019ZM137.702 89.0342C137.702 87.7825 138.581 87.2752 139.665 87.901L157.329 98.0997C158.413 98.7256 159.292 100.248 159.292 101.499C159.292 102.751 158.413 103.258 157.329 102.632L139.665 92.4338C138.581 91.8079 137.702 90.2859 137.702 89.0342ZM122 101.499C122 100.874 122.439 100.62 122.981 100.933L136.721 108.865C137.263 109.178 137.702 109.939 137.702 110.565C137.702 111.191 137.263 111.444 136.721 111.131L122.981 103.199C122.439 102.886 122 102.125 122 101.499ZM139.665 111.698C139.665 111.072 140.104 110.818 140.646 111.131L154.385 119.064C154.927 119.377 155.367 120.138 155.367 120.763C155.367 121.389 154.927 121.643 154.385 121.33L140.646 113.398C140.104 113.085 139.665 112.324 139.665 111.698ZM157.329 121.897C157.329 121.271 157.769 121.017 158.311 121.33L181.864 134.928C182.405 135.241 182.845 136.002 182.845 136.628C182.845 137.254 182.405 137.508 181.864 137.195L158.311 123.596C157.769 123.284 157.329 122.522 157.329 121.897Z" fill="#031A30" stroke="#F0F0F0" stroke-linecap="round" stroke-linejoin="round"/>
<path fill-rule="evenodd" clip-rule="evenodd" d="M106.727 87.7518C107.213 87.4357 107.903 87.4615 108.669 87.9036L168.663 122.541C170.136 123.392 171.33 125.459 171.33 127.16V167.186C171.33 168.036 171.031 168.633 170.549 168.912L173.215 167.372C173.698 167.094 173.996 166.496 173.996 165.646V125.62C173.996 123.92 172.802 121.852 171.33 121.002L111.335 86.3642C110.57 85.9221 109.879 85.8962 109.393 86.2124L106.727 87.7518Z" fill="#031A30" stroke="#F0F0F0" stroke-linecap="round" stroke-linejoin="round"/>
<path fill-rule="evenodd" clip-rule="evenodd" d="M170.546 168.91C170.064 169.189 169.397 169.149 168.661 168.724L108.666 134.086C107.194 133.236 106 131.168 106 129.468V89.4417C106 88.6255 106.275 88.0422 106.724 87.7504L109.39 86.2109C108.941 86.5028 108.666 87.086 108.666 87.9022V127.928C108.666 129.629 109.86 131.696 111.333 132.546L171.327 167.184C172.064 167.609 172.73 167.65 173.213 167.371L170.546 168.91Z" fill="#031A30" stroke="#F0F0F0" stroke-linecap="round" stroke-linejoin="round"/>
<path d="M106 89.4466C106 87.7462 107.194 87.0569 108.666 87.9071L168.661 122.545C170.133 123.395 171.327 125.463 171.327 127.163V167.189C171.327 168.89 170.133 169.579 168.661 168.729L108.666 134.091C107.194 133.241 106 131.173 106 129.472V89.4466Z" fill="#031A30" stroke="#F0F0F0" stroke-linecap="round" stroke-linejoin="round"/>
<path fill-rule="evenodd" clip-rule="evenodd" d="M107.602 111.896C107.602 110.96 108.22 110.024 109.457 109.31C111.932 107.881 115.943 107.881 118.418 109.31C119.655 110.024 120.273 110.96 120.273 111.896V115.506C120.273 114.569 119.655 113.633 118.418 112.919C115.943 111.49 111.932 111.49 109.457 112.919C108.22 113.633 107.602 114.569 107.602 115.506V111.896Z" fill="#031A30" stroke="#F0F0F0" stroke-linecap="round" stroke-linejoin="round"/>
<path fill-rule="evenodd" clip-rule="evenodd" d="M120.273 111.887C120.273 112.823 119.655 113.759 118.418 114.473C115.943 115.902 111.932 115.902 109.457 114.473C108.22 113.759 107.602 112.823 107.602 111.887V115.496C107.602 116.432 108.22 117.368 109.457 118.083C111.932 119.511 115.943 119.511 118.418 118.083C119.655 117.368 120.273 116.432 120.273 115.496V111.887Z" fill="#031A30" stroke="#F0F0F0" stroke-linecap="round" stroke-linejoin="round"/>
<path d="M118.418 114.483C115.943 115.912 111.932 115.912 109.457 114.483C106.983 113.054 106.983 110.738 109.457 109.31C111.932 107.881 115.943 107.881 118.418 109.31C120.892 110.738 120.892 113.054 118.418 114.483Z" fill="#031A30" stroke="#F0F0F0" stroke-linecap="round" stroke-linejoin="round"/>
<path fill-rule="evenodd" clip-rule="evenodd" d="M107.602 106.627C107.602 105.691 108.22 104.754 109.457 104.04C111.932 102.612 115.943 102.612 118.418 104.04C119.655 104.754 120.273 105.691 120.273 106.627V110.236C120.273 109.3 119.655 108.364 118.418 107.649C115.943 106.221 111.932 106.221 109.457 107.649C108.22 108.364 107.602 109.3 107.602 110.236V106.627Z" fill="#031A30" stroke="#F0F0F0" stroke-linecap="round" stroke-linejoin="round"/>
<path fill-rule="evenodd" clip-rule="evenodd" d="M120.273 106.617C120.273 107.553 119.655 108.49 118.418 109.204C115.943 110.632 111.932 110.632 109.457 109.204C108.22 108.49 107.602 107.553 107.602 106.617V110.226C107.602 111.163 108.22 112.099 109.457 112.813C111.932 114.242 115.943 114.242 118.418 112.813C119.655 112.099 120.273 111.163 120.273 110.226V106.617Z" fill="#031A30" stroke="#F0F0F0" stroke-linecap="round" stroke-linejoin="round"/>
<path d="M118.418 109.213C115.943 110.642 111.932 110.642 109.457 109.213C106.983 107.785 106.983 105.469 109.457 104.04C111.932 102.612 115.943 102.612 118.418 104.04C120.892 105.469 120.892 107.785 118.418 109.213Z" fill="#031A30" stroke="#F0F0F0" stroke-linecap="round" stroke-linejoin="round"/>
<path fill-rule="evenodd" clip-rule="evenodd" d="M107.602 101.658C107.602 100.722 108.22 99.7857 109.457 99.0714C111.932 97.6429 115.943 97.6429 118.418 99.0714C119.655 99.7857 120.273 100.722 120.273 101.658V105.267C120.273 104.331 119.655 103.395 118.418 102.681C115.943 101.252 111.932 101.252 109.457 102.681C108.22 103.395 107.602 104.331 107.602 105.267V101.658Z" fill="#031A30" stroke="#F0F0F0" stroke-linecap="round" stroke-linejoin="round"/>
<path fill-rule="evenodd" clip-rule="evenodd" d="M120.273 101.648C120.273 102.585 119.655 103.521 118.418 104.235C115.943 105.664 111.932 105.664 109.457 104.235C108.22 103.521 107.602 102.585 107.602 101.648V105.258C107.602 106.194 108.22 107.13 109.457 107.844C111.932 109.273 115.943 109.273 118.418 107.844C119.655 107.13 120.273 106.194 120.273 105.258V101.648Z" fill="#031A30" stroke="#F0F0F0" stroke-linecap="round" stroke-linejoin="round"/>
<path d="M118.418 104.245C115.943 105.673 111.932 105.673 109.457 104.245C106.983 102.816 106.983 100.5 109.457 99.0714C111.932 97.6429 115.943 97.6429 118.418 99.0714C120.892 100.5 120.892 102.816 118.418 104.245Z" fill="#031A30" stroke="#F0F0F0" stroke-linecap="round" stroke-linejoin="round"/>
<path d="M122.702 108.102C122.702 106.224 124.02 105.463 125.646 106.402L164.901 129.066C166.527 130.005 167.845 132.288 167.845 134.165C167.845 136.043 166.527 136.804 164.901 135.865L125.646 113.201C124.02 112.262 122.702 109.979 122.702 108.102ZM122.702 116.034C122.702 114.783 123.581 114.275 124.665 114.901L142.329 125.1C143.413 125.726 144.292 127.248 144.292 128.499C144.292 129.751 143.413 130.258 142.329 129.632L124.665 119.434C123.581 118.808 122.702 117.286 122.702 116.034ZM107 128.499C107 127.874 107.439 127.62 107.981 127.933L121.721 135.865C122.263 136.178 122.702 136.939 122.702 137.565C122.702 138.191 122.263 138.444 121.721 138.131L107.981 130.199C107.439 129.886 107 129.125 107 128.499ZM124.665 138.698C124.665 138.072 125.104 137.818 125.646 138.131L139.385 146.064C139.927 146.377 140.367 147.138 140.367 147.763C140.367 148.389 139.927 148.643 139.385 148.33L125.646 140.398C125.104 140.085 124.665 139.324 124.665 138.698ZM142.329 148.897C142.329 148.271 142.769 148.017 143.311 148.33L166.864 161.928C167.405 162.241 167.845 163.002 167.845 163.628C167.845 164.254 167.405 164.508 166.864 164.195L143.311 150.596C142.769 150.284 142.329 149.522 142.329 148.897Z" fill="#031A30" stroke="#F0F0F0" stroke-linecap="round" stroke-linejoin="round"/>
<path fill-rule="evenodd" clip-rule="evenodd" d="M95.7266 117.752C96.2129 117.436 96.9033 117.462 97.669 117.904L157.663 152.541C159.136 153.392 160.33 155.459 160.33 157.16V197.186C160.33 198.036 160.031 198.633 159.549 198.912L162.215 197.372C162.698 197.094 162.996 196.496 162.996 195.646V155.62C162.996 153.92 161.802 151.852 160.33 151.002L100.335 116.364C99.5697 115.922 98.8793 115.896 98.393 116.212L95.7266 117.752Z" fill="#031A30" stroke="#F0F0F0" stroke-linecap="round" stroke-linejoin="round"/>
<path fill-rule="evenodd" clip-rule="evenodd" d="M159.546 198.91C159.064 199.189 158.397 199.149 157.661 198.724L97.6664 164.086C96.1938 163.236 95 161.168 95 159.468V119.442C95 118.625 95.2751 118.042 95.724 117.75L98.3904 116.211C97.9415 116.503 97.6664 117.086 97.6664 117.902V157.928C97.6664 159.629 98.8602 161.696 100.333 162.546L160.327 197.184C161.064 197.609 161.73 197.65 162.213 197.371L159.546 198.91Z" fill="#031A30" stroke="#F0F0F0" stroke-linecap="round" stroke-linejoin="round"/>
<path d="M95 119.447C95 117.746 96.1938 117.057 97.6664 117.907L157.661 152.545C159.133 153.395 160.327 155.463 160.327 157.163V197.189C160.327 198.89 159.133 199.579 157.661 198.729L97.6664 164.091C96.1938 163.241 95 161.173 95 159.472V119.447Z" fill="#031A30" stroke="#F0F0F0" stroke-linecap="round" stroke-linejoin="round"/>
<path fill-rule="evenodd" clip-rule="evenodd" d="M96.6016 141.896C96.6016 140.96 97.2201 140.024 98.4573 139.31C100.932 137.881 104.943 137.881 107.418 139.31C108.655 140.024 109.273 140.96 109.273 141.896V145.506C109.273 144.569 108.655 143.633 107.418 142.919C104.943 141.49 100.932 141.49 98.4573 142.919C97.2201 143.633 96.6016 144.569 96.6016 145.506V141.896Z" fill="#031A30" stroke="#F0F0F0" stroke-linecap="round" stroke-linejoin="round"/>
<path fill-rule="evenodd" clip-rule="evenodd" d="M109.273 141.887C109.273 142.823 108.655 143.759 107.418 144.473C104.943 145.902 100.932 145.902 98.4573 144.473C97.2201 143.759 96.6016 142.823 96.6016 141.887V145.496C96.6016 146.432 97.2201 147.368 98.4573 148.083C100.932 149.511 104.943 149.511 107.418 148.083C108.655 147.368 109.273 146.432 109.273 145.496V141.887Z" fill="#031A30" stroke="#F0F0F0" stroke-linecap="round" stroke-linejoin="round"/>
<path d="M107.418 144.483C104.943 145.912 100.932 145.912 98.4573 144.483C95.983 143.054 95.983 140.738 98.4573 139.31C100.932 137.881 104.943 137.881 107.418 139.31C109.892 140.738 109.892 143.054 107.418 144.483Z" fill="#031A30" stroke="#F0F0F0" stroke-linecap="round" stroke-linejoin="round"/>
<path fill-rule="evenodd" clip-rule="evenodd" d="M96.6016 136.627C96.6016 135.691 97.2201 134.754 98.4573 134.04C100.932 132.612 104.943 132.612 107.418 134.04C108.655 134.754 109.273 135.691 109.273 136.627V140.236C109.273 139.3 108.655 138.364 107.418 137.649C104.943 136.221 100.932 136.221 98.4573 137.649C97.2201 138.364 96.6016 139.3 96.6016 140.236V136.627Z" fill="#031A30" stroke="#F0F0F0" stroke-linecap="round" stroke-linejoin="round"/>
<path fill-rule="evenodd" clip-rule="evenodd" d="M109.273 136.617C109.273 137.553 108.655 138.49 107.418 139.204C104.943 140.632 100.932 140.632 98.4573 139.204C97.2201 138.49 96.6016 137.553 96.6016 136.617V140.226C96.6016 141.163 97.2201 142.099 98.4573 142.813C100.932 144.242 104.943 144.242 107.418 142.813C108.655 142.099 109.273 141.163 109.273 140.226V136.617Z" fill="#031A30" stroke="#F0F0F0" stroke-linecap="round" stroke-linejoin="round"/>
<path d="M107.418 139.213C104.943 140.642 100.932 140.642 98.4573 139.213C95.983 137.785 95.983 135.469 98.4573 134.04C100.932 132.612 104.943 132.612 107.418 134.04C109.892 135.469 109.892 137.785 107.418 139.213Z" fill="#031A30" stroke="#F0F0F0" stroke-linecap="round" stroke-linejoin="round"/>
<path fill-rule="evenodd" clip-rule="evenodd" d="M96.6016 131.658C96.6016 130.722 97.2201 129.786 98.4573 129.071C100.932 127.643 104.943 127.643 107.418 129.071C108.655 129.786 109.273 130.722 109.273 131.658V135.267C109.273 134.331 108.655 133.395 107.418 132.681C104.943 131.252 100.932 131.252 98.4573 132.681C97.2201 133.395 96.6016 134.331 96.6016 135.267V131.658Z" fill="#031A30" stroke="#F0F0F0" stroke-linecap="round" stroke-linejoin="round"/>
<path fill-rule="evenodd" clip-rule="evenodd" d="M109.273 131.648C109.273 132.585 108.655 133.521 107.418 134.235C104.943 135.664 100.932 135.664 98.4573 134.235C97.2201 133.521 96.6016 132.585 96.6016 131.648V135.258C96.6016 136.194 97.2201 137.13 98.4573 137.844C100.932 139.273 104.943 139.273 107.418 137.844C108.655 137.13 109.273 136.194 109.273 135.258V131.648Z" fill="#031A30" stroke="#F0F0F0" stroke-linecap="round" stroke-linejoin="round"/>
<path d="M107.418 134.245C104.943 135.673 100.932 135.673 98.4573 134.245C95.983 132.816 95.983 130.5 98.4573 129.071C100.932 127.643 104.943 127.643 107.418 129.071C109.892 130.5 109.892 132.816 107.418 134.245Z" fill="#031A30" stroke="#F0F0F0" stroke-linecap="round" stroke-linejoin="round"/>
<path d="M112.702 138.102C112.702 136.224 114.02 135.463 115.646 136.402L154.901 159.066C156.527 160.005 157.845 162.288 157.845 164.165C157.845 166.043 156.527 166.804 154.901 165.865L115.646 143.201C114.02 142.262 112.702 139.979 112.702 138.102ZM112.702 146.034C112.702 144.783 113.581 144.275 114.665 144.901L132.329 155.1C133.413 155.726 134.292 157.248 134.292 158.499C134.292 159.751 133.413 160.258 132.329 159.632L114.665 149.434C113.581 148.808 112.702 147.286 112.702 146.034ZM97 158.499C97 157.874 97.4394 157.62 97.9814 157.933L111.721 165.865C112.263 166.178 112.702 166.939 112.702 167.565C112.702 168.191 112.263 168.444 111.721 168.131L97.9814 160.199C97.4394 159.886 97 159.125 97 158.499ZM114.665 168.698C114.665 168.072 115.104 167.818 115.646 168.131L129.385 176.064C129.927 176.377 130.367 177.138 130.367 177.763C130.367 178.389 129.927 178.643 129.385 178.33L115.646 170.398C115.104 170.085 114.665 169.324 114.665 168.698ZM132.329 178.897C132.329 178.271 132.769 178.017 133.311 178.33L156.864 191.928C157.405 192.241 157.845 193.002 157.845 193.628C157.845 194.254 157.405 194.508 156.864 194.195L133.311 180.596C132.769 180.284 132.329 179.522 132.329 178.897Z" fill="#031A30" stroke="#F0F0F0" stroke-linecap="round" stroke-linejoin="round"/>
<rect width="27.3083" height="26.8908" rx="5.74105" transform="matrix(0.866025 0.5 -0.866025 0.5 69.3516 215.633)" fill="#031A30" stroke="#F0F0F0" stroke-linecap="round" stroke-linejoin="round"/>
<path d="M68.4069 228.855C68.407 228.82 68.4235 228.788 68.4513 228.768V228.768C69.231 228.207 70.2826 228.207 71.0622 228.768V228.768C71.0903 228.788 71.1068 228.821 71.1067 228.855L71.1063 228.932C71.1062 228.973 71.0934 229.012 71.07 229.045V229.045C70.4263 229.946 69.0865 229.947 68.4429 229.046V229.046C68.4191 229.012 68.4063 228.972 68.4065 228.932L68.4069 228.855Z" fill="#031A30" stroke="#F0F0F0" stroke-linecap="round" stroke-linejoin="round"/>
<path d="M68.4062 206.855H71.1061V228.994V228.994C70.4445 229.92 69.0679 229.92 68.4062 228.994V228.994V206.855Z" fill="#031A30" stroke="#F0F0F0" stroke-linecap="round" stroke-linejoin="round"/>
<path d="M82.2219 213.823C82.2219 218.893 75.0883 222.031 70.0187 222.031C64.949 222.031 57.4375 217.921 57.4375 212.852C57.4375 207.782 64.949 175 70.0187 175C75.0883 175 82.2219 208.754 82.2219 213.823Z" fill="#031A30" stroke="#F0F0F0" stroke-linecap="round" stroke-linejoin="round"/>
<rect width="27.3083" height="26.8908" rx="5.74105" transform="matrix(0.866025 0.5 -0.866025 0.5 35.2891 196.375)" fill="#031A30" stroke="#F0F0F0" stroke-linecap="round" stroke-linejoin="round"/>
<path d="M34.5943 209.714C34.5944 209.685 34.6082 209.658 34.6314 209.641V209.641C35.2833 209.172 36.1625 209.172 36.8143 209.641V209.641C36.8378 209.658 36.8516 209.685 36.8515 209.714L36.8512 209.779C36.8511 209.813 36.8404 209.845 36.8208 209.873V209.873C36.2826 210.626 35.1625 210.627 34.6244 209.874V209.874C34.6045 209.846 34.5938 209.812 34.594 209.778L34.5943 209.714Z" fill="#031A30" stroke="#F0F0F0" stroke-linecap="round" stroke-linejoin="round"/>
<path d="M34.5938 191.32H36.851V209.83V209.83C36.2978 210.604 35.1469 210.604 34.5938 209.83V209.83V191.32Z" fill="#031A30" stroke="#F0F0F0" stroke-linecap="round" stroke-linejoin="round"/>
<circle cx="35.9402" cy="192.675" r="7.67458" fill="#031A30" stroke="#F0F0F0" stroke-linecap="round" stroke-linejoin="round"/>
<rect width="27.3083" height="26.8908" rx="5.74105" transform="matrix(0.866025 0.5 -0.866025 0.5 224.352 215.633)" fill="#031A30" stroke="#F0F0F0" stroke-linecap="round" stroke-linejoin="round"/>
<path d="M223.407 228.855C223.407 228.82 223.424 228.788 223.451 228.768V228.768C224.231 228.207 225.283 228.207 226.062 228.768V228.768C226.09 228.788 226.107 228.821 226.107 228.855L226.106 228.932C226.106 228.973 226.093 229.012 226.07 229.045V229.045C225.426 229.946 224.087 229.947 223.443 229.046V229.046C223.419 229.012 223.406 228.972 223.407 228.932L223.407 228.855Z" fill="#031A30" stroke="#F0F0F0" stroke-linecap="round" stroke-linejoin="round"/>
<path d="M223.406 206.855H226.106V228.994V228.994C225.444 229.92 224.068 229.92 223.406 228.994V228.994V206.855Z" fill="#031A30" stroke="#F0F0F0" stroke-linecap="round" stroke-linejoin="round"/>
<path d="M237.222 213.823C237.222 218.893 230.088 222.031 225.019 222.031C219.949 222.031 212.438 217.921 212.438 212.852C212.438 207.782 219.949 175 225.019 175C230.088 175 237.222 208.754 237.222 213.823Z" fill="#031A30" stroke="#F0F0F0" stroke-linecap="round" stroke-linejoin="round"/>
<rect width="27.3083" height="26.8908" rx="5.74105" transform="matrix(0.866025 0.5 -0.866025 0.5 260.289 193.375)" fill="#031A30" stroke="#F0F0F0" stroke-linecap="round" stroke-linejoin="round"/>
<path d="M259.594 206.714C259.594 206.685 259.608 206.658 259.631 206.641V206.641C260.283 206.172 261.163 206.172 261.814 206.641V206.641C261.838 206.658 261.852 206.685 261.851 206.714L261.851 206.779C261.851 206.813 261.84 206.845 261.821 206.873V206.873C261.283 207.626 260.163 207.627 259.624 206.874V206.874C259.604 206.846 259.594 206.812 259.594 206.778L259.594 206.714Z" fill="#031A30" stroke="#F0F0F0" stroke-linecap="round" stroke-linejoin="round"/>
<path d="M259.594 188.32H261.851V206.83V206.83C261.298 207.604 260.147 207.604 259.594 206.83V206.83V188.32Z" fill="#031A30" stroke="#F0F0F0" stroke-linecap="round" stroke-linejoin="round"/>
<circle cx="260.94" cy="189.675" r="7.67458" fill="#031A30" stroke="#F0F0F0" stroke-linecap="round" stroke-linejoin="round"/>
</svg>
