<svg width="300" height="300" viewBox="0 0 300 300" fill="none" xmlns="http://www.w3.org/2000/svg">
<path fill-rule="evenodd" clip-rule="evenodd" d="M257.996 164.641C257.996 165.808 257.225 166.976 255.681 167.867L155.085 225.947C151.999 227.729 146.994 227.729 143.908 225.947L43.3112 167.867C41.8296 167.012 41.0592 165.901 41 164.781V186.292C41.0592 187.412 41.8296 188.523 43.3112 189.378L143.908 247.458C146.994 249.24 151.999 249.24 155.085 247.458L255.681 189.378C257.225 188.487 257.996 187.319 257.996 186.152V164.641Z" fill="#031A30" stroke="#F0F0F0" stroke-linecap="round" stroke-linejoin="round"/>
<path d="M143.911 103.337C146.998 101.554 152.002 101.554 155.089 103.337L255.685 161.416C258.772 163.198 258.772 166.087 255.685 167.869L155.089 225.949C152.002 227.73 146.998 227.73 143.911 225.949L43.3149 167.869C40.2283 166.087 40.2284 163.198 43.3149 161.416L143.911 103.337Z" fill="#031A30" stroke="#F0F0F0" stroke-linecap="round" stroke-linejoin="round"/>
<path d="M145.027 116.995C147.439 115.606 151.349 115.606 153.761 116.995L232.369 162.269C234.781 163.658 234.781 165.911 232.369 167.3L153.761 212.574C151.349 213.963 147.438 213.963 145.027 212.574L66.4183 167.3C64.0064 165.911 64.0064 163.658 66.4183 162.269L145.027 116.995Z" fill="#031A30" stroke="#F0F0F0" stroke-linecap="round" stroke-linejoin="round"/>
<path d="M153.789 169.863L131.781 183.72L122 178.014" stroke="#F0F0F0" stroke-linecap="round" stroke-linejoin="round"/>
<path d="M207.586 168.234L179.873 184.536L126.076 153.562L155.42 134" stroke="#F0F0F0" stroke-linecap="round" stroke-linejoin="round"/>
<path fill-rule="evenodd" clip-rule="evenodd" d="M160.93 187.851C160.93 186.554 161.786 185.258 163.499 184.269C166.926 182.291 172.481 182.291 175.907 184.269C177.62 185.258 178.477 186.554 178.477 187.851V192.849C178.477 191.552 177.62 190.256 175.907 189.267C172.481 187.288 166.926 187.288 163.499 189.267C161.786 190.256 160.93 191.552 160.93 192.849V187.851Z" fill="#031A30" stroke="#F0F0F0" stroke-linecap="round" stroke-linejoin="round"/>
<path fill-rule="evenodd" clip-rule="evenodd" d="M178.477 187.852C178.477 189.148 177.62 190.444 175.907 191.433C172.481 193.412 166.926 193.412 163.499 191.433C161.786 190.444 160.93 189.148 160.93 187.852V192.849C160.93 194.146 161.786 195.442 163.499 196.431C166.926 198.409 172.481 198.409 175.907 196.431C177.62 195.442 178.477 194.146 178.477 192.849V187.852Z" fill="#031A30" stroke="#F0F0F0" stroke-linecap="round" stroke-linejoin="round"/>
<path d="M175.923 191.432C172.497 193.411 166.941 193.411 163.515 191.432C160.089 189.454 160.089 186.247 163.515 184.269C166.941 182.291 172.497 182.291 175.923 184.269C179.349 186.247 179.349 189.454 175.923 191.432Z" fill="#031A30" stroke="#F0F0F0" stroke-linecap="round" stroke-linejoin="round"/>
<path fill-rule="evenodd" clip-rule="evenodd" d="M160.93 180.96C160.93 179.664 161.786 178.367 163.499 177.378C166.926 175.4 172.481 175.4 175.907 177.378C177.62 178.367 178.477 179.664 178.477 180.96V185.958C178.477 184.662 177.62 183.365 175.907 182.376C172.481 180.398 166.926 180.398 163.499 182.376C161.786 183.365 160.93 184.662 160.93 185.958V180.96Z" fill="#031A30" stroke="#F0F0F0" stroke-linecap="round" stroke-linejoin="round"/>
<path fill-rule="evenodd" clip-rule="evenodd" d="M178.477 180.961C178.477 182.257 177.62 183.554 175.907 184.543C172.481 186.521 166.926 186.521 163.499 184.543C161.786 183.554 160.93 182.257 160.93 180.961V185.959C160.93 187.255 161.786 188.552 163.499 189.541C166.926 191.519 172.481 191.519 175.907 189.541C177.62 188.552 178.477 187.255 178.477 185.959V180.961Z" fill="#031A30" stroke="#F0F0F0" stroke-linecap="round" stroke-linejoin="round"/>
<path d="M175.923 184.542C172.497 186.52 166.941 186.52 163.515 184.542C160.089 182.564 160.089 179.356 163.515 177.378C166.941 175.4 172.497 175.4 175.923 177.378C179.349 179.356 179.349 182.564 175.923 184.542Z" fill="#031A30" stroke="#F0F0F0" stroke-linecap="round" stroke-linejoin="round"/>
<path fill-rule="evenodd" clip-rule="evenodd" d="M160.93 174.065C160.93 172.769 161.786 171.473 163.499 170.484C166.926 168.505 172.481 168.505 175.907 170.484C177.62 171.473 178.477 172.769 178.477 174.065V179.063C178.477 177.767 177.62 176.471 175.907 175.482C172.481 173.503 166.926 173.503 163.499 175.482C161.786 176.471 160.93 177.767 160.93 179.063V174.065Z" fill="#031A30" stroke="#F0F0F0" stroke-linecap="round" stroke-linejoin="round"/>
<path fill-rule="evenodd" clip-rule="evenodd" d="M178.477 174.066C178.477 175.363 177.62 176.659 175.907 177.648C172.481 179.626 166.926 179.626 163.499 177.648C161.786 176.659 160.93 175.363 160.93 174.066V179.064C160.93 180.361 161.786 181.657 163.499 182.646C166.926 184.624 172.481 184.624 175.907 182.646C177.62 181.657 178.477 180.361 178.477 179.064V174.066Z" fill="#031A30" stroke="#F0F0F0" stroke-linecap="round" stroke-linejoin="round"/>
<path d="M175.923 177.647C172.497 179.625 166.941 179.625 163.515 177.647C160.089 175.669 160.089 172.462 163.515 170.484C166.941 168.505 172.497 168.505 175.923 170.484C179.349 172.462 179.349 175.669 175.923 177.647Z" fill="#031A30" stroke="#F0F0F0" stroke-linecap="round" stroke-linejoin="round"/>
<path fill-rule="evenodd" clip-rule="evenodd" d="M138 195.282C138 193.474 139.194 191.667 141.583 190.288C146.361 187.529 154.107 187.529 158.885 190.288C161.274 191.667 162.468 193.474 162.468 195.282V202.251C162.468 200.443 161.274 198.636 158.885 197.257C154.107 194.498 146.361 194.498 141.583 197.257C139.194 198.636 138 200.443 138 202.251V195.282Z" fill="#031A30" stroke="#F0F0F0" stroke-linecap="round" stroke-linejoin="round"/>
<path fill-rule="evenodd" clip-rule="evenodd" d="M162.468 195.285C162.468 197.093 161.274 198.9 158.885 200.28C154.107 203.038 146.361 203.038 141.583 200.28C139.194 198.9 138 197.093 138 195.285V202.254C138 204.062 139.194 205.87 141.583 207.249C146.361 210.007 154.107 210.007 158.885 207.249C161.274 205.87 162.468 204.062 162.468 202.254V195.285Z" fill="#031A30" stroke="#F0F0F0" stroke-linecap="round" stroke-linejoin="round"/>
<path d="M158.9 200.277C154.123 203.035 146.377 203.035 141.599 200.277C136.821 197.518 136.821 193.046 141.599 190.288C146.377 187.529 154.123 187.529 158.9 190.288C163.678 193.046 163.678 197.518 158.9 200.277Z" fill="#031A30" stroke="#F0F0F0" stroke-linecap="round" stroke-linejoin="round"/>
<path fill-rule="evenodd" clip-rule="evenodd" d="M138 185.669C138 183.861 139.194 182.053 141.583 180.674C146.361 177.916 154.107 177.916 158.885 180.674C161.274 182.053 162.468 183.861 162.468 185.669V192.638C162.468 190.83 161.274 189.023 158.885 187.643C154.107 184.885 146.361 184.885 141.583 187.643C139.194 189.023 138 190.83 138 192.638V185.669Z" fill="#031A30" stroke="#F0F0F0" stroke-linecap="round" stroke-linejoin="round"/>
<path fill-rule="evenodd" clip-rule="evenodd" d="M162.468 185.672C162.468 187.48 161.274 189.287 158.885 190.666C154.107 193.425 146.361 193.425 141.583 190.666C139.194 189.287 138 187.48 138 185.672V192.641C138 194.449 139.194 196.256 141.583 197.635C146.361 200.394 154.107 200.394 158.885 197.635C161.274 196.256 162.468 194.449 162.468 192.641V185.672Z" fill="#031A30" stroke="#F0F0F0" stroke-linecap="round" stroke-linejoin="round"/>
<path d="M158.9 190.663C154.123 193.422 146.377 193.422 141.599 190.663C136.821 187.905 136.821 183.433 141.599 180.674C146.377 177.916 154.123 177.916 158.9 180.674C163.678 183.433 163.678 187.905 158.9 190.663Z" fill="#031A30" stroke="#F0F0F0" stroke-linecap="round" stroke-linejoin="round"/>
<path fill-rule="evenodd" clip-rule="evenodd" d="M138 176.063C138 174.256 139.194 172.448 141.583 171.069C146.361 168.31 154.107 168.31 158.885 171.069C161.274 172.448 162.468 174.256 162.468 176.063V183.032C162.468 181.225 161.274 179.417 158.885 178.038C154.107 175.279 146.361 175.279 141.583 178.038C139.194 179.417 138 181.225 138 183.032V176.063Z" fill="#031A30" stroke="#F0F0F0" stroke-linecap="round" stroke-linejoin="round"/>
<path fill-rule="evenodd" clip-rule="evenodd" d="M162.468 176.066C162.468 177.874 161.274 179.682 158.885 181.061C154.107 183.819 146.361 183.819 141.583 181.061C139.194 179.682 138 177.874 138 176.066V183.036C138 184.843 139.194 186.651 141.583 188.03C146.361 190.788 154.107 190.788 158.885 188.03C161.274 186.651 162.468 184.843 162.468 183.036V176.066Z" fill="#031A30" stroke="#F0F0F0" stroke-linecap="round" stroke-linejoin="round"/>
<path d="M158.9 181.058C154.123 183.816 146.377 183.816 141.599 181.058C136.821 178.299 136.821 173.827 141.599 171.069C146.377 168.31 154.123 168.31 158.9 171.069C163.678 173.827 163.678 178.299 158.9 181.058Z" fill="#031A30" stroke="#F0F0F0" stroke-linecap="round" stroke-linejoin="round"/>
<path fill-rule="evenodd" clip-rule="evenodd" d="M190.348 125.351C190.348 125.8 190.051 126.248 189.459 126.59L184.448 129.483L150.82 148.899C149.634 149.583 147.712 149.583 146.527 148.899L112.899 129.484L107.888 126.59C107.328 126.268 107.033 125.85 107.001 125.427C107.001 125.42 107 125.412 107 125.405L107.001 125.427L107 133.667C107.023 134.098 107.319 134.524 107.888 134.853L146.527 157.161C147.712 157.845 149.634 157.845 150.82 157.161L189.459 134.853C190.051 134.511 190.348 134.062 190.348 133.613V133.562V125.351Z" fill="#031A30"/>
<path d="M107.889 124.114C107.273 124.47 106.977 124.941 107.001 125.408V125.427C107.033 125.85 107.328 126.268 107.888 126.59L112.899 129.484L146.527 148.899C147.712 149.583 149.634 149.583 150.82 148.899L184.448 129.483L189.459 126.59C190.051 126.248 190.348 125.8 190.348 125.351V133.562C190.349 133.58 190.349 133.598 190.349 133.616V125.354C190.349 124.905 190.053 124.457 189.46 124.114L150.821 101.806C149.636 101.122 147.713 101.122 146.528 101.806L107.889 124.114Z" fill="#031A30"/>
<path d="M190.349 125.354C190.349 124.905 190.053 124.457 189.46 124.114L150.821 101.806C149.636 101.122 147.713 101.122 146.528 101.806L107.889 124.114C107.273 124.47 106.977 124.941 107.001 125.408V125.427M190.349 125.354V133.616M190.349 125.354L190.348 133.562M190.349 133.616C190.349 133.598 190.349 133.58 190.348 133.562M190.349 133.616L190.348 133.562M184.448 129.483L150.82 148.899C149.634 149.583 147.712 149.583 146.527 148.899L112.899 129.484M184.448 129.483L189.459 126.59C190.051 126.248 190.348 125.8 190.348 125.351V133.562M184.448 129.483L189.46 132.377C190.029 132.705 190.325 133.132 190.348 133.562M112.899 129.484L107.888 126.59C107.328 126.268 107.033 125.85 107.001 125.427M112.899 129.484L107.889 132.377C107.273 132.733 106.977 133.204 107.001 133.67V125.427M107.001 125.427L107 125.405C107 125.412 107.001 125.42 107.001 125.427ZM107.001 125.427L107 133.667C107.023 134.098 107.319 134.524 107.888 134.853L146.527 157.161C147.712 157.845 149.634 157.845 150.82 157.161L189.459 134.853C190.051 134.511 190.348 134.062 190.348 133.613V133.562" stroke="#F0F0F0" stroke-linecap="round"/>
<path d="M189.46 132.377C190.053 132.719 190.349 133.168 190.349 133.616V125.354C190.349 124.905 190.053 124.457 189.46 124.114L150.821 101.806C149.636 101.122 147.713 101.122 146.528 101.806L107.889 124.114C107.273 124.47 106.977 124.941 107.001 125.408V133.67C106.977 133.204 107.273 132.733 107.889 132.377" stroke="#F0F0F0" stroke-linecap="round"/>
<path fill-rule="evenodd" clip-rule="evenodd" d="M190.348 125.352C190.348 125.8 190.051 126.249 189.459 126.591L150.82 148.899C149.634 149.583 147.712 149.583 146.527 148.899L107.888 126.591C107.319 126.262 107.023 125.836 107 125.405V133.668C107.023 134.098 107.319 134.525 107.888 134.853L146.527 157.161C147.712 157.846 149.634 157.846 150.82 157.161L189.459 134.853C190.051 134.511 190.348 134.062 190.348 133.614V125.352Z" fill="#031A30" stroke="#F0F0F0" stroke-linecap="round"/>
<path fill-rule="evenodd" clip-rule="evenodd" d="M164.852 135.105L154.969 129.399V109.429C154.969 105.603 152.283 100.95 148.969 99.0369C147.312 98.0803 145.812 97.9897 144.727 98.6166L154.609 92.9109C155.695 92.284 157.195 92.3746 158.852 93.3312C162.166 95.2444 164.852 99.8973 164.852 103.724V123.694L174.735 129.399L164.852 135.105Z" fill="#F0F0F0"/>
<path fill-rule="evenodd" clip-rule="evenodd" d="M164.852 135.105L154.969 129.399V109.429C154.969 105.603 152.283 100.95 148.969 99.0369C147.312 98.0803 145.812 97.9897 144.727 98.6166L154.609 92.9109C155.695 92.284 157.195 92.3746 158.852 93.3312C162.166 95.2444 164.852 99.8973 164.852 103.724V123.694L174.735 129.399L164.852 135.105Z" fill="#031A30"/>
<path fill-rule="evenodd" clip-rule="evenodd" d="M164.852 135.105L154.969 129.399V109.429C154.969 105.603 152.283 100.95 148.969 99.0369C147.312 98.0803 145.812 97.9897 144.727 98.6166L154.609 92.9109C155.695 92.284 157.195 92.3746 158.852 93.3312C162.166 95.2444 164.852 99.8973 164.852 103.724V123.694L174.735 129.399L164.852 135.105Z" stroke="#F0F0F0" stroke-linecap="round" stroke-linejoin="round"/>
<path fill-rule="evenodd" clip-rule="evenodd" d="M144.726 98.6198C143.64 99.2466 142.969 100.591 142.969 102.504V122.474L152.851 116.768V96.7985C152.851 94.8853 153.523 93.541 154.609 92.9141L144.726 98.6198Z" fill="#031A30" stroke="#F0F0F0" stroke-linecap="round" stroke-linejoin="round"/>
<path d="M133.086 116.767V78.457L154.969 91.0911C160.427 94.2422 164.851 101.906 164.851 108.208V135.106L154.969 129.401V109.431C154.969 105.604 152.282 100.951 148.969 99.0383C145.655 97.1251 142.968 98.676 142.968 102.502V122.472L133.086 116.767Z" fill="#031A30" stroke="#F0F0F0" stroke-linecap="round" stroke-linejoin="round"/>
<path fill-rule="evenodd" clip-rule="evenodd" d="M148.547 144.886L138.665 139.181V119.211C138.665 115.384 135.978 110.731 132.665 108.818C131.008 107.862 129.508 107.771 128.422 108.398L138.304 102.692C139.39 102.065 140.89 102.156 142.547 103.112C145.861 105.026 148.547 109.679 148.547 113.505V133.475L158.43 139.181L148.547 144.886Z" fill="#F0F0F0"/>
<path fill-rule="evenodd" clip-rule="evenodd" d="M148.547 144.886L138.665 139.181V119.211C138.665 115.384 135.978 110.731 132.665 108.818C131.008 107.862 129.508 107.771 128.422 108.398L138.304 102.692C139.39 102.065 140.89 102.156 142.547 103.112C145.861 105.026 148.547 109.679 148.547 113.505V133.475L158.43 139.181L148.547 144.886Z" fill="#031A30"/>
<path fill-rule="evenodd" clip-rule="evenodd" d="M148.547 144.886L138.665 139.181V119.211C138.665 115.384 135.978 110.731 132.665 108.818C131.008 107.862 129.508 107.771 128.422 108.398L138.304 102.692C139.39 102.065 140.89 102.156 142.547 103.112C145.861 105.026 148.547 109.679 148.547 113.505V133.475L158.43 139.181L148.547 144.886Z" stroke="#F0F0F0" stroke-linecap="round" stroke-linejoin="round"/>
<path fill-rule="evenodd" clip-rule="evenodd" d="M128.421 108.401C127.336 109.028 126.664 110.372 126.664 112.285V132.255L136.547 126.55V106.58C136.547 104.667 137.218 103.322 138.304 102.695L128.421 108.401Z" fill="#F0F0F0"/>
<path fill-rule="evenodd" clip-rule="evenodd" d="M128.421 108.401C127.336 109.028 126.664 110.372 126.664 112.285V132.255L136.547 126.55V106.58C136.547 104.667 137.218 103.322 138.304 102.695L128.421 108.401Z" fill="#031A30"/>
<path fill-rule="evenodd" clip-rule="evenodd" d="M128.421 108.401C127.336 109.028 126.664 110.372 126.664 112.285V132.255L136.547 126.55V106.58C136.547 104.667 137.218 103.322 138.304 102.695L128.421 108.401Z" stroke="#F0F0F0" stroke-linecap="round" stroke-linejoin="round"/>
<path d="M116.781 126.548V88.2383L138.664 100.872C144.122 104.023 148.547 111.687 148.547 117.989V144.888L138.664 139.182V119.212C138.664 115.386 135.978 110.733 132.664 108.82C129.35 106.906 126.664 108.457 126.664 112.284V132.254L116.781 126.548Z" fill="#031A30" stroke="#F0F0F0" stroke-linecap="round" stroke-linejoin="round"/>
<path d="M154.969 91.0875C160.427 94.2387 164.851 101.902 164.851 108.205V135.103L174.734 129.397V102.499C174.734 96.1966 170.309 88.533 164.851 85.3818L143.784 73.2184C143.279 72.9272 142.658 72.9272 142.153 73.2184L119.229 86.8229C118.142 87.4504 118.142 89.019 119.229 89.6465L138.667 100.869C144.125 104.02 148.549 111.683 148.549 117.986V144.884L158.432 139.178V112.28C158.432 105.978 154.007 98.3142 148.549 95.163L139.607 89.8687C137.46 88.6589 137.49 85.9811 139.505 84.5629V84.5629C142.325 82.5782 145.989 85.4921 148.915 87.3158L154.969 91.0875Z" fill="#031A30"/>
<path d="M154.969 91.0875C160.427 94.2387 164.851 101.902 164.851 108.205V135.103L174.734 129.397V102.499C174.734 96.1966 170.309 88.533 164.851 85.3818L143.784 73.2184C143.279 72.9272 142.658 72.9272 142.153 73.2184L119.229 86.8229C118.142 87.4504 118.142 89.019 119.229 89.6465L138.667 100.869C144.125 104.02 148.549 111.683 148.549 117.986V144.884L158.432 139.178V112.28C158.432 105.978 154.007 98.3142 148.549 95.163L139.607 89.8687C137.46 88.6589 137.49 85.9811 139.505 84.5629V84.5629C142.325 82.5782 145.989 85.4921 148.915 87.3158L154.969 91.0875Z" fill="#031A30"/>
<path d="M154.969 91.0875C160.427 94.2387 164.851 101.902 164.851 108.205V135.103L174.734 129.397V102.499C174.734 96.1966 170.309 88.533 164.851 85.3818L143.784 73.2184C143.279 72.9272 142.658 72.9272 142.153 73.2184L119.229 86.8229C118.142 87.4504 118.142 89.019 119.229 89.6465L138.667 100.869C144.125 104.02 148.549 111.683 148.549 117.986V144.884L158.432 139.178V112.28C158.432 105.978 154.007 98.3142 148.549 95.163L139.607 89.8687C137.46 88.6589 137.49 85.9811 139.505 84.5629V84.5629C142.325 82.5782 145.989 85.4921 148.915 87.3158L154.969 91.0875Z" stroke="#F0F0F0" stroke-linecap="round" stroke-linejoin="round"/>
<path fill-rule="evenodd" clip-rule="evenodd" d="M185.867 114.632C186.542 114.243 187.475 114.299 188.505 114.894L214.921 130.145C216.981 131.334 218.651 134.227 218.651 136.606V166.696C218.651 167.886 218.233 168.721 217.558 169.111L223.42 165.727C224.095 165.337 224.512 164.501 224.512 163.312V133.221C224.512 130.843 222.842 127.95 220.782 126.761L194.367 111.509C193.337 110.915 192.404 110.858 191.729 111.248L185.867 114.632Z" fill="#031A30" stroke="#F0F0F0" stroke-linecap="round" stroke-linejoin="round"/>
<path d="M184.789 117.046C184.789 114.667 186.459 113.703 188.519 114.892L214.935 130.143C216.995 131.333 218.665 134.225 218.665 136.604V166.695C218.665 169.073 216.995 170.038 214.935 168.848L188.519 153.597C186.459 152.408 184.789 149.515 184.789 147.136V117.046Z" fill="#031A30" stroke="#F0F0F0" stroke-linecap="round" stroke-linejoin="round"/>
<path d="M188.18 121.082C188.18 120.287 188.738 119.964 189.428 120.362L194.777 123.45C195.466 123.848 196.025 124.816 196.025 125.612C196.025 126.408 195.466 126.73 194.777 126.332L189.428 123.244C188.738 122.846 188.18 121.878 188.18 121.082ZM192.453 136.115C192.453 135.433 192.932 135.156 193.522 135.497L198.158 138.174C198.749 138.515 199.228 139.344 199.228 140.026C199.228 140.709 198.749 140.985 198.158 140.644L193.522 137.968C192.932 137.627 192.453 136.797 192.453 136.115ZM192.453 127.667C192.453 126.871 193.011 126.548 193.7 126.946L195.839 128.181C196.528 128.579 197.087 129.546 197.087 130.342C197.087 131.138 196.528 131.46 195.839 131.062L193.7 129.828C193.011 129.43 192.453 128.462 192.453 127.667ZM198.521 131.17C198.521 130.374 199.079 130.052 199.769 130.45L204.761 133.332C205.45 133.73 206.009 134.698 206.009 135.494C206.009 136.29 205.45 136.612 204.761 136.214L199.769 133.332C199.079 132.934 198.521 131.966 198.521 131.17ZM197.094 142.912C197.094 142.23 197.573 141.953 198.164 142.295L204.226 145.794C204.817 146.136 205.296 146.965 205.296 147.647C205.296 148.33 204.817 148.606 204.226 148.265L198.164 144.765C197.573 144.424 197.094 143.594 197.094 142.912ZM206.722 148.47C206.722 147.788 207.201 147.512 207.792 147.853L208.861 148.47C209.452 148.811 209.931 149.641 209.931 150.323C209.931 151.005 209.452 151.281 208.861 150.94L207.792 150.323C207.201 149.982 206.722 149.152 206.722 148.47ZM192.453 131.997C192.453 131.315 192.931 131.038 193.522 131.379L194.592 131.997C195.182 132.338 195.661 133.167 195.661 133.849C195.661 134.531 195.182 134.808 194.592 134.467L193.522 133.849C192.931 133.508 192.453 132.679 192.453 131.997ZM197.094 134.677C197.094 133.995 197.573 133.718 198.164 134.059L210.288 141.059C210.879 141.4 211.358 142.23 211.358 142.912C211.358 143.594 210.879 143.871 210.288 143.53L198.164 136.53C197.573 136.189 197.094 135.359 197.094 134.677ZM192.453 144.556C192.453 143.76 193.011 143.437 193.701 143.835L198.693 146.717C199.382 147.115 199.941 148.083 199.941 148.879C199.941 149.675 199.382 149.998 198.693 149.6L193.701 146.717C193.011 146.319 192.453 145.352 192.453 144.556ZM201.011 149.497C201.011 148.701 201.57 148.378 202.259 148.776L214.383 155.776C215.072 156.174 215.631 157.142 215.631 157.938C215.631 158.734 215.072 159.056 214.383 158.658L202.259 151.658C201.57 151.26 201.011 150.293 201.011 149.497ZM192.453 148.659C192.453 147.863 193.011 147.541 193.7 147.938L196.909 149.791C197.598 150.189 198.156 151.156 198.156 151.952C198.156 152.748 197.598 153.07 196.909 152.672L193.7 150.82C193.011 150.422 192.453 149.454 192.453 148.659ZM199.234 152.574C199.234 151.778 199.792 151.456 200.482 151.854L201.195 152.265C201.884 152.663 202.442 153.631 202.442 154.426C202.442 155.222 201.884 155.544 201.195 155.147L200.482 154.735C199.792 154.337 199.234 153.37 199.234 152.574Z" fill="#031A30" stroke="#F0F0F0" stroke-linecap="round" stroke-linejoin="round"/>
<path fill-rule="evenodd" clip-rule="evenodd" d="M82.0781 128.632C82.7532 128.243 83.6857 128.299 84.7157 128.894L111.131 144.145C113.192 145.334 114.862 148.227 114.862 150.606V180.696C114.862 181.886 114.444 182.721 113.769 183.111L119.631 179.727C120.306 179.337 120.723 178.501 120.723 177.312V147.221C120.723 144.843 119.053 141.95 116.993 140.761L90.5775 125.509C89.5475 124.915 88.6149 124.858 87.9399 125.248L82.0781 128.632Z" fill="#031A30" stroke="#F0F0F0" stroke-linecap="round" stroke-linejoin="round"/>
<path d="M81 131.046C81 128.667 82.67 127.703 84.7302 128.892L111.146 144.143C113.206 145.333 114.876 148.225 114.876 150.604V180.695C114.876 183.073 113.206 184.038 111.146 182.848L84.7302 167.597C82.67 166.408 81 163.515 81 161.136V131.046Z" fill="#031A30" stroke="#F0F0F0" stroke-linecap="round" stroke-linejoin="round"/>
<path d="M84.3906 135.082C84.3906 134.287 84.9494 133.964 85.6387 134.362L90.9875 137.45C91.6768 137.848 92.2356 138.816 92.2356 139.612C92.2356 140.408 91.6768 140.73 90.9875 140.332L85.6387 137.244C84.9494 136.846 84.3906 135.878 84.3906 135.082ZM88.6636 150.115C88.6636 149.433 89.1426 149.156 89.7334 149.497L94.369 152.174C94.9599 152.515 95.4388 153.344 95.4388 154.026C95.4388 154.709 94.9599 154.985 94.369 154.644L89.7334 151.968C89.1426 151.627 88.6636 150.797 88.6636 150.115ZM88.6636 141.667C88.6636 140.871 89.2222 140.548 89.9113 140.946L92.0502 142.181C92.7393 142.579 93.2979 143.546 93.2979 144.342C93.2979 145.138 92.7393 145.46 92.0502 145.062L89.9113 143.828C89.2222 143.43 88.6636 142.462 88.6636 141.667ZM94.7316 145.17C94.7316 144.374 95.2904 144.052 95.9797 144.45L100.972 147.332C101.661 147.73 102.22 148.698 102.22 149.494C102.22 150.29 101.661 150.612 100.972 150.214L95.9797 147.332C95.2904 146.934 94.7316 145.966 94.7316 145.17ZM93.3053 156.912C93.3053 156.23 93.7842 155.953 94.375 156.295L100.437 159.794C101.028 160.136 101.507 160.965 101.507 161.647C101.507 162.33 101.028 162.606 100.437 162.265L94.375 158.765C93.7842 158.424 93.3053 157.594 93.3053 156.912ZM102.933 162.47C102.933 161.788 103.412 161.512 104.003 161.853L105.072 162.47C105.663 162.811 106.141 163.641 106.141 164.323C106.141 165.005 105.663 165.281 105.072 164.94L104.003 164.323C103.412 163.982 102.933 163.152 102.933 162.47ZM88.6636 145.997C88.6636 145.315 89.1424 145.038 89.7331 145.379L90.8025 145.997C91.3931 146.338 91.8719 147.167 91.8719 147.849C91.8719 148.531 91.3931 148.808 90.8025 148.467L89.7331 147.849C89.1424 147.508 88.6636 146.679 88.6636 145.997ZM93.3053 148.677C93.3053 147.995 93.7842 147.718 94.375 148.059L106.499 155.059C107.09 155.4 107.569 156.23 107.569 156.912C107.569 157.594 107.09 157.871 106.499 157.53L94.375 150.53C93.7842 150.189 93.3053 149.359 93.3053 148.677ZM88.6636 158.556C88.6636 157.76 89.2224 157.437 89.9117 157.835L94.9039 160.717C95.5932 161.115 96.152 162.083 96.152 162.879C96.152 163.675 95.5932 163.998 94.9039 163.6L89.9117 160.717C89.2224 160.319 88.6636 159.352 88.6636 158.556ZM97.2217 163.497C97.2217 162.701 97.7805 162.378 98.4698 162.776L110.594 169.776C111.283 170.174 111.842 171.142 111.842 171.938C111.842 172.734 111.283 173.056 110.594 172.658L98.4698 165.658C97.7805 165.26 97.2217 164.293 97.2217 163.497ZM88.6636 162.659C88.6636 161.863 89.2222 161.541 89.9113 161.938L93.1197 163.791C93.8087 164.189 94.3673 165.156 94.3673 165.952C94.3673 166.748 93.8087 167.07 93.1197 166.672L89.9113 164.82C89.2222 164.422 88.6636 163.454 88.6636 162.659ZM95.4448 166.574C95.4448 165.778 96.0034 165.456 96.6925 165.854L97.4054 166.265C98.0946 166.663 98.6531 167.631 98.6531 168.426C98.6531 169.222 98.0946 169.544 97.4054 169.147L96.6925 168.735C96.0034 168.337 95.4448 167.37 95.4448 166.574Z" fill="#031A30" stroke="#F0F0F0" stroke-linecap="round" stroke-linejoin="round"/>
<path d="M162.881 131.423L157.211 134.696L171.551 144.015L172.639 154.091V158.44L178.309 155.166C179.108 154.76 179.608 153.815 179.608 152.448V144.447C179.608 141.817 177.762 138.62 175.484 137.305L173.629 136.234L165.796 131.712C164.657 131.054 163.627 130.992 162.881 131.423Z" fill="#031A30" stroke="#F0F0F0" stroke-linecap="round" stroke-linejoin="round"/>
<path fill-rule="evenodd" clip-rule="evenodd" d="M169.811 158.098C172.089 159.413 173.935 158.347 173.935 155.717V147.716C173.935 145.087 172.089 141.889 169.811 140.575L167.956 139.504L160.123 134.981C157.846 133.666 156 134.732 156 137.362V145.363C156 147.992 157.846 151.19 160.123 152.504L169.811 158.098ZM170.619 148.717L168.377 144.846V144.851C167.942 144.096 167.233 143.691 166.794 143.937C166.355 144.183 166.355 144.999 166.794 145.757L168.241 148.257L166.794 149.085C166.355 149.331 166.359 150.149 166.794 150.905C167.228 151.66 167.938 152.07 168.377 151.819L170.619 150.537C171.058 150.291 171.058 149.475 170.619 148.717ZM163.146 143.651L161.698 144.479L163.146 146.979C163.585 147.737 163.585 148.553 163.146 148.799C162.707 149.045 161.997 148.64 161.563 147.885L159.316 144.016C158.877 143.258 158.877 142.442 159.316 142.197L161.558 140.914C161.997 140.663 162.707 141.073 163.141 141.828C163.576 142.584 163.58 143.402 163.141 143.648L163.146 143.651Z" fill="#031A30"/>
<path d="M170.619 148.717L168.377 144.846V144.851C167.942 144.096 167.233 143.691 166.794 143.937C166.355 144.183 166.355 144.999 166.794 145.757L168.241 148.257L166.794 149.085C166.355 149.331 166.359 150.149 166.794 150.905C167.228 151.66 167.938 152.07 168.377 151.819L170.619 150.537C171.058 150.291 171.058 149.475 170.619 148.717Z" fill="#031A30"/>
<path d="M161.698 144.479L163.146 143.651L163.141 143.648C163.58 143.402 163.576 142.584 163.141 141.828C162.707 141.073 161.997 140.663 161.558 140.914L159.316 142.197C158.877 142.442 158.877 143.258 159.316 144.016L161.563 147.885C161.997 148.64 162.707 149.045 163.146 148.799C163.585 148.553 163.585 147.737 163.146 146.979L161.698 144.479Z" fill="#031A30"/>
<path fill-rule="evenodd" clip-rule="evenodd" d="M169.811 158.098C172.089 159.413 173.935 158.347 173.935 155.717V147.716C173.935 145.087 172.089 141.889 169.811 140.575L167.956 139.504L160.123 134.981C157.846 133.666 156 134.732 156 137.362V145.363C156 147.992 157.846 151.19 160.123 152.504L169.811 158.098ZM170.619 148.717L168.377 144.846V144.851C167.942 144.096 167.233 143.691 166.794 143.937C166.355 144.183 166.355 144.999 166.794 145.757L168.241 148.257L166.794 149.085C166.355 149.331 166.359 150.149 166.794 150.905C167.228 151.66 167.938 152.07 168.377 151.819L170.619 150.537C171.058 150.291 171.058 149.475 170.619 148.717ZM163.146 143.651L161.698 144.479L163.146 146.979C163.585 147.737 163.585 148.553 163.146 148.799C162.707 149.045 161.997 148.64 161.563 147.885L159.316 144.016C158.877 143.258 158.877 142.442 159.316 142.197L161.558 140.914C161.997 140.663 162.707 141.073 163.141 141.828C163.576 142.584 163.58 143.402 163.141 143.648L163.146 143.651Z" stroke="#F0F0F0" stroke-linecap="round" stroke-linejoin="round"/>
<path d="M170.619 148.717L168.377 144.846V144.851C167.942 144.096 167.233 143.691 166.794 143.937C166.355 144.183 166.355 144.999 166.794 145.757L168.241 148.257L166.794 149.085C166.355 149.331 166.359 150.149 166.794 150.905C167.228 151.66 167.938 152.07 168.377 151.819L170.619 150.537C171.058 150.291 171.058 149.475 170.619 148.717Z" stroke="#F0F0F0" stroke-linecap="round" stroke-linejoin="round"/>
<path d="M161.698 144.479L163.146 143.651L163.141 143.648C163.58 143.402 163.576 142.584 163.141 141.828C162.707 141.073 161.997 140.663 161.558 140.914L159.316 142.197C158.877 142.442 158.877 143.258 159.316 144.016L161.563 147.885C161.997 148.64 162.707 149.045 163.146 148.799C163.585 148.553 163.585 147.737 163.146 146.979L161.698 144.479Z" stroke="#F0F0F0" stroke-linecap="round" stroke-linejoin="round"/>
<rect width="27.3083" height="26.8908" rx="5.74105" transform="matrix(0.866025 0.5 -0.866025 0.5 68.3516 214.633)" fill="#031A30" stroke="#F0F0F0" stroke-linecap="round" stroke-linejoin="round"/>
<path d="M67.4069 227.855C67.407 227.82 67.4235 227.788 67.4513 227.768V227.768C68.231 227.207 69.2826 227.207 70.0622 227.768V227.768C70.0903 227.788 70.1068 227.821 70.1067 227.855L70.1063 227.932C70.1062 227.973 70.0934 228.012 70.07 228.045V228.045C69.4263 228.946 68.0865 228.947 67.4429 228.046V228.046C67.4191 228.012 67.4063 227.972 67.4065 227.932L67.4069 227.855Z" fill="#031A30" stroke="#F0F0F0" stroke-linecap="round" stroke-linejoin="round"/>
<path d="M67.4062 205.855H70.1061V227.994V227.994C69.4445 228.92 68.0679 228.92 67.4062 227.994V227.994V205.855Z" fill="#031A30" stroke="#F0F0F0" stroke-linecap="round" stroke-linejoin="round"/>
<path d="M81.2219 212.823C81.2219 217.893 74.0883 221.031 69.0187 221.031C63.949 221.031 56.4375 216.921 56.4375 211.852C56.4375 206.782 63.949 174 69.0187 174C74.0883 174 81.2219 207.754 81.2219 212.823Z" fill="#031A30" stroke="#F0F0F0" stroke-linecap="round" stroke-linejoin="round"/>
<rect width="27.3083" height="26.8908" rx="5.74105" transform="matrix(0.866025 0.5 -0.866025 0.5 34.2891 195.375)" fill="#031A30" stroke="#F0F0F0" stroke-linecap="round" stroke-linejoin="round"/>
<path d="M33.5943 208.714C33.5944 208.685 33.6082 208.658 33.6314 208.641V208.641C34.2833 208.172 35.1625 208.172 35.8143 208.641V208.641C35.8378 208.658 35.8516 208.685 35.8515 208.714L35.8512 208.779C35.8511 208.813 35.8404 208.845 35.8208 208.873V208.873C35.2826 209.626 34.1625 209.627 33.6244 208.874V208.874C33.6045 208.846 33.5938 208.812 33.594 208.778L33.5943 208.714Z" fill="#031A30" stroke="#F0F0F0" stroke-linecap="round" stroke-linejoin="round"/>
<path d="M33.5938 190.32H35.851V208.83V208.83C35.2978 209.604 34.1469 209.604 33.5938 208.83V208.83V190.32Z" fill="#031A30" stroke="#F0F0F0" stroke-linecap="round" stroke-linejoin="round"/>
<circle cx="34.9402" cy="191.675" r="7.67458" fill="#031A30" stroke="#F0F0F0" stroke-linecap="round" stroke-linejoin="round"/>
<rect width="27.3083" height="26.8908" rx="5.74105" transform="matrix(0.866025 0.5 -0.866025 0.5 226.352 216.633)" fill="#031A30" stroke="#F0F0F0" stroke-linecap="round" stroke-linejoin="round"/>
<path d="M225.407 229.855C225.407 229.82 225.424 229.788 225.451 229.768V229.768C226.231 229.207 227.283 229.207 228.062 229.768V229.768C228.09 229.788 228.107 229.821 228.107 229.855L228.106 229.932C228.106 229.973 228.093 230.012 228.07 230.045V230.045C227.426 230.946 226.087 230.947 225.443 230.046V230.046C225.419 230.012 225.406 229.972 225.407 229.932L225.407 229.855Z" fill="#031A30" stroke="#F0F0F0" stroke-linecap="round" stroke-linejoin="round"/>
<path d="M225.406 207.855H228.106V229.994V229.994C227.444 230.92 226.068 230.92 225.406 229.994V229.994V207.855Z" fill="#031A30" stroke="#F0F0F0" stroke-linecap="round" stroke-linejoin="round"/>
<path d="M239.222 214.823C239.222 219.893 232.088 223.031 227.019 223.031C221.949 223.031 214.438 218.921 214.438 213.852C214.438 208.782 221.949 176 227.019 176C232.088 176 239.222 209.754 239.222 214.823Z" fill="#031A30" stroke="#F0F0F0" stroke-linecap="round" stroke-linejoin="round"/>
<rect width="27.3083" height="26.8908" rx="5.74105" transform="matrix(0.866025 0.5 -0.866025 0.5 262.289 194.375)" fill="#031A30" stroke="#F0F0F0" stroke-linecap="round" stroke-linejoin="round"/>
<path d="M261.594 207.714C261.594 207.685 261.608 207.658 261.631 207.641V207.641C262.283 207.172 263.163 207.172 263.814 207.641V207.641C263.838 207.658 263.852 207.685 263.851 207.714L263.851 207.779C263.851 207.813 263.84 207.845 263.821 207.873V207.873C263.283 208.626 262.163 208.627 261.624 207.874V207.874C261.604 207.846 261.594 207.812 261.594 207.778L261.594 207.714Z" fill="#031A30" stroke="#F0F0F0" stroke-linecap="round" stroke-linejoin="round"/>
<path d="M261.594 189.32H263.851V207.83V207.83C263.298 208.604 262.147 208.604 261.594 207.83V207.83V189.32Z" fill="#031A30" stroke="#F0F0F0" stroke-linecap="round" stroke-linejoin="round"/>
<circle cx="262.94" cy="190.675" r="7.67458" fill="#031A30" stroke="#F0F0F0" stroke-linecap="round" stroke-linejoin="round"/>
</svg>
