<svg width="300" height="300" viewBox="0 0 300 300" fill="none" xmlns="http://www.w3.org/2000/svg">
<path fill-rule="evenodd" clip-rule="evenodd" d="M257.996 164.641C257.996 165.808 257.225 166.976 255.681 167.867L155.085 225.947C151.999 227.729 146.994 227.729 143.908 225.947L43.3112 167.867C41.8296 167.012 41.0592 165.901 41 164.781V186.292C41.0592 187.412 41.8296 188.523 43.3112 189.378L143.908 247.458C146.994 249.24 151.999 249.24 155.085 247.458L255.681 189.378C257.225 188.487 257.996 187.319 257.996 186.152V164.641Z" fill="#031A30" stroke="#F0F0F0" stroke-linecap="round" stroke-linejoin="round"/>
<path d="M143.911 103.337C146.998 101.554 152.002 101.554 155.089 103.337L255.685 161.416C258.772 163.198 258.772 166.087 255.685 167.869L155.089 225.949C152.002 227.73 146.998 227.73 143.911 225.949L43.3149 167.869C40.2283 166.087 40.2284 163.198 43.3149 161.416L143.911 103.337Z" fill="#031A30" stroke="#F0F0F0" stroke-linecap="round" stroke-linejoin="round"/>
<path d="M145.027 116.995C147.439 115.606 151.349 115.606 153.761 116.995L232.369 162.269C234.781 163.658 234.781 165.911 232.369 167.3L153.761 212.574C151.349 213.963 147.438 213.963 145.027 212.574L66.4183 167.3C64.0064 165.911 64.0064 163.658 66.4183 162.269L145.027 116.995Z" fill="#031A30" stroke="#F0F0F0" stroke-linecap="round" stroke-linejoin="round"/>
<path fill-rule="evenodd" clip-rule="evenodd" d="M149.352 137.876L90 104L149.352 69L209 103.438L149.352 137.876Z" fill="#031A30"/>
<path d="M149.352 137.876V206.752L209 172.314V103.438L149.352 137.876Z" fill="#031A30"/>
<path d="M149.352 137.876L90 104L149.352 69L209 103.438M149.352 137.876V206.752L209 172.314V103.438M149.352 137.876L209 103.438" stroke="#F0F0F0" stroke-linecap="round" stroke-linejoin="round"/>
<path fill-rule="evenodd" clip-rule="evenodd" d="M198.053 136.513C196.106 135.389 194.902 132.978 194.902 129.548V41.4068C194.902 40.0999 195.819 38.5109 196.951 37.8574C197.517 37.5307 198.029 37.4998 198.4 37.7139L147.17 8.13634C146.799 7.92224 146.287 7.95317 145.721 8.27987C144.589 8.93328 143.672 10.5224 143.672 11.8292V99.9704C143.672 103.401 144.876 105.811 146.823 106.935L198.053 136.513Z" fill="#031A30" stroke="#F0F0F0" stroke-linecap="round" stroke-linejoin="round"/>
<path d="M198.989 127.478V39.0411C198.989 37.7343 198.072 37.2046 196.94 37.858C195.808 38.5114 194.891 40.1005 194.891 41.4073V129.548L198.989 127.478Z" fill="#031A30" stroke="#F0F0F0" stroke-linecap="round" stroke-linejoin="round"/>
<path fill-rule="evenodd" clip-rule="evenodd" d="M139 36.535L183.786 62.392V83.686L188.176 81.151V59.857L143.391 34L139 36.535Z" fill="#031A30" stroke="#F0F0F0" stroke-linecap="round" stroke-linejoin="round"/>
<path fill-rule="evenodd" clip-rule="evenodd" d="M183.786 83.686L139 57.829V36.535L143.391 34V55.294L188.176 81.151L183.786 83.686Z" fill="#031A30" stroke="#F0F0F0" stroke-linecap="round" stroke-linejoin="round"/>
<path d="M139 36.5391L183.786 62.3961V83.69L139 57.8331V36.5391Z" fill="#031A30" stroke="#F0F0F0" stroke-linecap="round" stroke-linejoin="round"/>
<path fill-rule="evenodd" clip-rule="evenodd" d="M176.053 152.513C174.106 151.389 172.902 148.978 172.902 145.548V57.4068C172.902 56.0999 173.819 54.5109 174.951 53.8574C175.517 53.5307 176.029 53.4998 176.4 53.7139L125.17 24.1363C124.799 23.9222 124.287 23.9532 123.721 24.2799C122.589 24.9333 121.672 26.5224 121.672 27.8292V115.97C121.672 119.401 122.876 121.811 124.823 122.935L176.053 152.513Z" fill="#031A30" stroke="#F0F0F0" stroke-linecap="round" stroke-linejoin="round"/>
<path d="M176.989 143.478V55.0411C176.989 53.7343 176.072 53.2046 174.94 53.858C173.808 54.5114 172.891 56.1005 172.891 57.4073V145.548L176.989 143.478Z" fill="#031A30" stroke="#F0F0F0" stroke-linecap="round" stroke-linejoin="round"/>
<path fill-rule="evenodd" clip-rule="evenodd" d="M117 52.535L161.786 78.392V99.686L166.176 97.151V75.857L121.391 50L117 52.535Z" fill="#031A30" stroke="#F0F0F0" stroke-linecap="round" stroke-linejoin="round"/>
<path fill-rule="evenodd" clip-rule="evenodd" d="M161.786 99.686L117 73.829V52.535L121.391 50V71.294L166.176 97.151L161.786 99.686Z" fill="#031A30" stroke="#F0F0F0" stroke-linecap="round" stroke-linejoin="round"/>
<path d="M117 52.5391L161.786 78.3961V99.69L117 73.8331V52.5391Z" fill="#031A30" stroke="#F0F0F0" stroke-linecap="round" stroke-linejoin="round"/>
<path fill-rule="evenodd" clip-rule="evenodd" d="M154.053 172.513C152.106 171.389 150.902 168.978 150.902 165.548V77.4068C150.902 76.0999 151.819 74.5109 152.951 73.8574C153.517 73.5307 154.029 73.4998 154.4 73.7139L103.17 44.1363C102.799 43.9222 102.287 43.9532 101.721 44.2799C100.589 44.9333 99.6719 46.5224 99.6719 47.8292V135.97C99.6719 139.401 100.876 141.811 102.823 142.935L154.053 172.513Z" fill="#031A30" stroke="#F0F0F0" stroke-linecap="round" stroke-linejoin="round"/>
<path d="M154.989 163.478V75.0411C154.989 73.7343 154.072 73.2046 152.94 73.858C151.808 74.5114 150.891 76.1005 150.891 77.4073V165.548L154.989 163.478Z" fill="#031A30" stroke="#F0F0F0" stroke-linecap="round" stroke-linejoin="round"/>
<path fill-rule="evenodd" clip-rule="evenodd" d="M95 72.535L139.786 98.392V119.686L144.176 117.151V95.857L99.3907 70L95 72.535Z" fill="#031A30" stroke="#F0F0F0" stroke-linecap="round" stroke-linejoin="round"/>
<path fill-rule="evenodd" clip-rule="evenodd" d="M139.786 119.686L95 93.829V72.535L99.3907 70V91.294L144.176 117.151L139.786 119.686Z" fill="#031A30" stroke="#F0F0F0" stroke-linecap="round" stroke-linejoin="round"/>
<path d="M95 72.5391L139.786 98.3961V119.69L95 93.8331V72.5391Z" fill="#031A30" stroke="#F0F0F0" stroke-linecap="round" stroke-linejoin="round"/>
<path d="M149.5 137.999L149.352 206.752L209 172.314V103.438L149.5 137.999Z" fill="#031A30"/>
<path d="M89.7031 103.438L149.5 137.999M149.5 137.999L149.352 206.752L209 172.314V103.438L149.5 137.999Z" stroke="#F0F0F0" stroke-linejoin="round"/>
<path d="M89.7031 103.438V172.314L149.352 206.752L209 172.314" stroke="#F0F0F0" stroke-linejoin="round"/>
<path d="M90 104L149.5 138L149.352 206.751L89.7031 172.313L90 104Z" fill="#031A30" stroke="#F0F0F0" stroke-linecap="round" stroke-linejoin="round"/>
<path d="M149.5 138L131.648 162.562L72 128.124L90 104L149.5 138Z" fill="#031A30" stroke="#F0F0F0" stroke-linecap="round" stroke-linejoin="round"/>
<path d="M149.5 138L166.852 162.562L226.5 128.124L209 103.5L149.5 138Z" fill="#031A30" stroke="#F0F0F0" stroke-linecap="round" stroke-linejoin="round"/>
<rect width="27.3083" height="26.8908" rx="5.74105" transform="matrix(0.866025 0.5 -0.866025 0.5 35.2891 196.375)" fill="#031A30" stroke="#F0F0F0" stroke-linecap="round" stroke-linejoin="round"/>
<path d="M34.5943 209.714C34.5944 209.685 34.6082 209.658 34.6314 209.641V209.641C35.2833 209.172 36.1625 209.172 36.8143 209.641V209.641C36.8378 209.658 36.8516 209.685 36.8515 209.714L36.8512 209.779C36.8511 209.813 36.8404 209.845 36.8208 209.873V209.873C36.2826 210.626 35.1625 210.627 34.6244 209.874V209.874C34.6045 209.846 34.5938 209.812 34.594 209.778L34.5943 209.714Z" fill="#031A30" stroke="#F0F0F0" stroke-linecap="round" stroke-linejoin="round"/>
<path d="M34.5938 191.32H36.851V209.83V209.83C36.2978 210.604 35.1469 210.604 34.5938 209.83V209.83V191.32Z" fill="#031A30" stroke="#F0F0F0" stroke-linecap="round" stroke-linejoin="round"/>
<circle cx="35.9402" cy="192.675" r="7.67458" fill="#031A30" stroke="#F0F0F0" stroke-linecap="round" stroke-linejoin="round"/>
<rect width="32.4261" height="32.4261" transform="matrix(0.866025 0.5 -0.866025 0.5 70.0781 213)" fill="#031A30" stroke="#F0F0F0" stroke-linecap="round" stroke-linejoin="round"/>
<circle cx="0.863947" cy="0.863947" r="0.863947" transform="matrix(0.866025 0.5 -0.866025 0.5 70.0781 242.273)" fill="#F0F0F0"/>
<circle cx="0.863947" cy="0.863947" r="0.863947" transform="matrix(0.866025 0.5 -0.866025 0.5 94.7734 228.266)" fill="#F0F0F0"/>
<circle cx="0.863947" cy="0.863947" r="0.863947" transform="matrix(0.866025 0.5 -0.866025 0.5 45.4766 228.203)" fill="#F0F0F0"/>
<path d="M68.3236 215.808H71.8795L91.7348 227.271L91.7348 229.264L71.8687 240.734H68.3344L48.655 229.372L48.655 227.163L68.3236 215.808Z" fill="#031A30" stroke="#F0F0F0" stroke-linecap="round" stroke-linejoin="round"/>
<circle cx="0.863947" cy="0.863947" r="0.863947" transform="matrix(0.866025 0.5 -0.866025 0.5 70.0781 213.91)" fill="#F0F0F0"/>
<rect width="32.4261" height="32.4261" transform="matrix(0.866025 0.5 -0.866025 0.5 227.078 212)" fill="#031A30" stroke="#F0F0F0" stroke-linecap="round" stroke-linejoin="round"/>
<circle cx="0.863947" cy="0.863947" r="0.863947" transform="matrix(0.866025 0.5 -0.866025 0.5 227.078 241.273)" fill="#F0F0F0"/>
<circle cx="0.863947" cy="0.863947" r="0.863947" transform="matrix(0.866025 0.5 -0.866025 0.5 251.773 227.266)" fill="#F0F0F0"/>
<circle cx="0.863947" cy="0.863947" r="0.863947" transform="matrix(0.866025 0.5 -0.866025 0.5 202.477 227.203)" fill="#F0F0F0"/>
<path d="M225.324 214.808H228.88L248.735 226.271L248.735 228.264L228.869 239.734H225.334L205.655 228.372L205.655 226.163L225.324 214.808Z" fill="#031A30" stroke="#F0F0F0" stroke-linecap="round" stroke-linejoin="round"/>
<circle cx="0.863947" cy="0.863947" r="0.863947" transform="matrix(0.866025 0.5 -0.866025 0.5 227.078 212.91)" fill="#F0F0F0"/>
<rect width="27.3083" height="26.8908" rx="5.74105" transform="matrix(0.866025 0.5 -0.866025 0.5 260.289 193.375)" fill="#031A30" stroke="#F0F0F0" stroke-linecap="round" stroke-linejoin="round"/>
<path d="M259.594 206.714C259.594 206.685 259.608 206.658 259.631 206.641V206.641C260.283 206.172 261.163 206.172 261.814 206.641V206.641C261.838 206.658 261.852 206.685 261.851 206.714L261.851 206.779C261.851 206.813 261.84 206.845 261.821 206.873V206.873C261.283 207.626 260.163 207.627 259.624 206.874V206.874C259.604 206.846 259.594 206.812 259.594 206.778L259.594 206.714Z" fill="#031A30" stroke="#F0F0F0" stroke-linecap="round" stroke-linejoin="round"/>
<path d="M259.594 188.32H261.851V206.83V206.83C261.298 207.604 260.147 207.604 259.594 206.83V206.83V188.32Z" fill="#031A30" stroke="#F0F0F0" stroke-linecap="round" stroke-linejoin="round"/>
<circle cx="260.94" cy="189.675" r="7.67458" fill="#031A30" stroke="#F0F0F0" stroke-linecap="round" stroke-linejoin="round"/>
</svg>
