<svg width="300" height="300" viewBox="0 0 300 300" fill="none" xmlns="http://www.w3.org/2000/svg">
<path fill-rule="evenodd" clip-rule="evenodd" d="M257.996 164.641C257.996 165.808 257.225 166.976 255.681 167.867L155.085 225.947C151.999 227.729 146.994 227.729 143.908 225.947L43.3112 167.867C41.8296 167.012 41.0592 165.901 41 164.781V186.292C41.0592 187.412 41.8296 188.523 43.3112 189.378L143.908 247.458C146.994 249.24 151.999 249.24 155.085 247.458L255.681 189.378C257.225 188.487 257.996 187.319 257.996 186.152V164.641Z" fill="#031A30" stroke="#F0F0F0" stroke-linecap="round" stroke-linejoin="round"/>
<path d="M143.911 103.337C146.998 101.554 152.002 101.554 155.089 103.337L255.685 161.416C258.772 163.198 258.772 166.087 255.685 167.869L155.089 225.949C152.002 227.73 146.998 227.73 143.911 225.949L43.3149 167.869C40.2283 166.087 40.2284 163.198 43.3149 161.416L143.911 103.337Z" fill="#031A30" stroke="#F0F0F0" stroke-linecap="round" stroke-linejoin="round"/>
<path d="M145.027 116.995C147.439 115.606 151.349 115.606 153.761 116.995L232.369 162.269C234.781 163.658 234.781 165.911 232.369 167.3L153.761 212.574C151.349 213.963 147.438 213.963 145.027 212.574L66.4183 167.3C64.0064 165.911 64.0064 163.658 66.4183 162.269L145.027 116.995Z" fill="#031A30" stroke="#F0F0F0" stroke-linecap="round" stroke-linejoin="round"/>
<path fill-rule="evenodd" clip-rule="evenodd" d="M228.348 156.351C228.348 156.8 228.051 157.248 227.459 157.59L222.448 160.483L188.82 179.899C187.634 180.583 185.712 180.583 184.527 179.899L150.899 160.484L145.888 157.59C145.328 157.268 145.033 156.85 145.001 156.427C145.001 156.42 145 156.412 145 156.405L145.001 156.427L145 164.667C145.023 165.098 145.319 165.524 145.888 165.853L184.527 188.161C185.712 188.845 187.634 188.845 188.82 188.161L227.459 165.853C228.051 165.511 228.348 165.062 228.348 164.613V164.562V156.351Z" fill="#031A30"/>
<path d="M145.889 155.114C145.273 155.47 144.977 155.941 145.001 156.408V156.427C145.033 156.85 145.328 157.268 145.888 157.59L150.899 160.484L184.527 179.899C185.712 180.583 187.634 180.583 188.82 179.899L222.448 160.483L227.459 157.59C228.051 157.248 228.348 156.8 228.348 156.351V164.562C228.349 164.58 228.349 164.598 228.349 164.616V156.354C228.349 155.905 228.053 155.457 227.46 155.114L188.821 132.806C187.636 132.122 185.713 132.122 184.528 132.806L145.889 155.114Z" fill="#031A30"/>
<path d="M228.349 156.354C228.349 155.905 228.053 155.457 227.46 155.114L188.821 132.806C187.636 132.122 185.713 132.122 184.528 132.806L145.889 155.114C145.273 155.47 144.977 155.941 145.001 156.408V156.427M228.349 156.354V164.616M228.349 156.354L228.348 164.562M228.349 164.616C228.349 164.598 228.349 164.58 228.348 164.562M228.349 164.616L228.348 164.562M222.448 160.483L188.82 179.899C187.634 180.583 185.712 180.583 184.527 179.899L150.899 160.484M222.448 160.483L227.459 157.59C228.051 157.248 228.348 156.8 228.348 156.351V164.562M222.448 160.483L227.46 163.377C228.029 163.705 228.325 164.132 228.348 164.562M150.899 160.484L145.888 157.59C145.328 157.268 145.033 156.85 145.001 156.427M150.899 160.484L145.889 163.377C145.273 163.733 144.977 164.204 145.001 164.67V156.427M145.001 156.427L145 156.405C145 156.412 145.001 156.42 145.001 156.427ZM145.001 156.427L145 164.667C145.023 165.098 145.319 165.524 145.888 165.853L184.527 188.161C185.712 188.845 187.634 188.845 188.82 188.161L227.459 165.853C228.051 165.511 228.348 165.062 228.348 164.613V164.562" stroke="#F0F0F0" stroke-linecap="round"/>
<path d="M227.46 163.377C228.053 163.719 228.349 164.168 228.349 164.616V156.354C228.349 155.905 228.053 155.457 227.46 155.114L188.821 132.806C187.636 132.122 185.713 132.122 184.528 132.806L145.889 155.114C145.273 155.47 144.977 155.941 145.001 156.408V164.67C144.977 164.204 145.273 163.733 145.889 163.377" stroke="#F0F0F0" stroke-linecap="round"/>
<path fill-rule="evenodd" clip-rule="evenodd" d="M228.348 156.352C228.348 156.8 228.051 157.249 227.459 157.591L188.82 179.899C187.634 180.583 185.712 180.583 184.527 179.899L145.888 157.591C145.319 157.262 145.023 156.836 145 156.405V164.668C145.023 165.098 145.319 165.525 145.888 165.853L184.527 188.161C185.712 188.846 187.634 188.846 188.82 188.161L227.459 165.853C228.051 165.511 228.348 165.062 228.348 164.614V156.352Z" fill="#031A30" stroke="#F0F0F0" stroke-linecap="round"/>
<path fill-rule="evenodd" clip-rule="evenodd" d="M202.852 166.105L192.969 160.399V140.429C192.969 136.603 190.283 131.95 186.969 130.037C185.312 129.08 183.812 128.99 182.727 129.617L192.609 123.911C193.695 123.284 195.195 123.375 196.852 124.331C200.166 126.244 202.852 130.897 202.852 134.724V154.694L212.735 160.399L202.852 166.105Z" fill="#F0F0F0"/>
<path fill-rule="evenodd" clip-rule="evenodd" d="M202.852 166.105L192.969 160.399V140.429C192.969 136.603 190.283 131.95 186.969 130.037C185.312 129.08 183.812 128.99 182.727 129.617L192.609 123.911C193.695 123.284 195.195 123.375 196.852 124.331C200.166 126.244 202.852 130.897 202.852 134.724V154.694L212.735 160.399L202.852 166.105Z" fill="#031A30"/>
<path fill-rule="evenodd" clip-rule="evenodd" d="M202.852 166.105L192.969 160.399V140.429C192.969 136.603 190.283 131.95 186.969 130.037C185.312 129.08 183.812 128.99 182.727 129.617L192.609 123.911C193.695 123.284 195.195 123.375 196.852 124.331C200.166 126.244 202.852 130.897 202.852 134.724V154.694L212.735 160.399L202.852 166.105Z" stroke="#F0F0F0" stroke-linecap="round" stroke-linejoin="round"/>
<path fill-rule="evenodd" clip-rule="evenodd" d="M182.726 129.62C181.64 130.247 180.969 131.591 180.969 133.504V153.474L190.851 147.768V127.799C190.851 125.885 191.523 124.541 192.609 123.914L182.726 129.62Z" fill="#031A30" stroke="#F0F0F0" stroke-linecap="round" stroke-linejoin="round"/>
<path d="M171.086 147.767V109.457L192.969 122.091C198.427 125.242 202.851 132.906 202.851 139.208V166.106L192.969 160.401V140.431C192.969 136.604 190.282 131.951 186.969 130.038C183.655 128.125 180.968 129.676 180.968 133.502V153.472L171.086 147.767Z" fill="#031A30" stroke="#F0F0F0" stroke-linecap="round" stroke-linejoin="round"/>
<path fill-rule="evenodd" clip-rule="evenodd" d="M186.547 175.886L176.665 170.181V150.211C176.665 146.384 173.978 141.731 170.665 139.818C169.008 138.862 167.508 138.771 166.422 139.398L176.304 133.692C177.39 133.065 178.89 133.156 180.547 134.112C183.861 136.026 186.547 140.679 186.547 144.505V164.475L196.43 170.181L186.547 175.886Z" fill="#F0F0F0"/>
<path fill-rule="evenodd" clip-rule="evenodd" d="M186.547 175.886L176.665 170.181V150.211C176.665 146.384 173.978 141.731 170.665 139.818C169.008 138.862 167.508 138.771 166.422 139.398L176.304 133.692C177.39 133.065 178.89 133.156 180.547 134.112C183.861 136.026 186.547 140.679 186.547 144.505V164.475L196.43 170.181L186.547 175.886Z" fill="#031A30"/>
<path fill-rule="evenodd" clip-rule="evenodd" d="M186.547 175.886L176.665 170.181V150.211C176.665 146.384 173.978 141.731 170.665 139.818C169.008 138.862 167.508 138.771 166.422 139.398L176.304 133.692C177.39 133.065 178.89 133.156 180.547 134.112C183.861 136.026 186.547 140.679 186.547 144.505V164.475L196.43 170.181L186.547 175.886Z" stroke="#F0F0F0" stroke-linecap="round" stroke-linejoin="round"/>
<path fill-rule="evenodd" clip-rule="evenodd" d="M166.421 139.401C165.336 140.028 164.664 141.372 164.664 143.285V163.255L174.547 157.55V137.58C174.547 135.667 175.218 134.322 176.304 133.695L166.421 139.401Z" fill="#F0F0F0"/>
<path fill-rule="evenodd" clip-rule="evenodd" d="M166.421 139.401C165.336 140.028 164.664 141.372 164.664 143.285V163.255L174.547 157.55V137.58C174.547 135.667 175.218 134.322 176.304 133.695L166.421 139.401Z" fill="#031A30"/>
<path fill-rule="evenodd" clip-rule="evenodd" d="M166.421 139.401C165.336 140.028 164.664 141.372 164.664 143.285V163.255L174.547 157.55V137.58C174.547 135.667 175.218 134.322 176.304 133.695L166.421 139.401Z" stroke="#F0F0F0" stroke-linecap="round" stroke-linejoin="round"/>
<path d="M154.781 157.548V119.238L176.664 131.872C182.122 135.023 186.547 142.687 186.547 148.989V175.888L176.664 170.182V150.212C176.664 146.386 173.978 141.733 170.664 139.82C167.35 137.906 164.664 139.457 164.664 143.284V163.254L154.781 157.548Z" fill="#031A30" stroke="#F0F0F0" stroke-linecap="round" stroke-linejoin="round"/>
<path d="M192.969 122.088C198.427 125.239 202.851 132.902 202.851 139.205V166.103L212.734 160.397V133.499C212.734 127.197 208.309 119.533 202.851 116.382L181.784 104.218C181.279 103.927 180.658 103.927 180.153 104.218L157.229 117.823C156.142 118.45 156.142 120.019 157.229 120.646L176.667 131.869C182.125 135.02 186.549 142.683 186.549 148.986V175.884L196.432 170.178V143.28C196.432 136.978 192.007 129.314 186.549 126.163L177.607 120.869C175.46 119.659 175.49 116.981 177.505 115.563V115.563C180.325 113.578 183.989 116.492 186.915 118.316L192.969 122.088Z" fill="#031A30"/>
<path d="M192.969 122.088C198.427 125.239 202.851 132.902 202.851 139.205V166.103L212.734 160.397V133.499C212.734 127.197 208.309 119.533 202.851 116.382L181.784 104.218C181.279 103.927 180.658 103.927 180.153 104.218L157.229 117.823C156.142 118.45 156.142 120.019 157.229 120.646L176.667 131.869C182.125 135.02 186.549 142.683 186.549 148.986V175.884L196.432 170.178V143.28C196.432 136.978 192.007 129.314 186.549 126.163L177.607 120.869C175.46 119.659 175.49 116.981 177.505 115.563V115.563C180.325 113.578 183.989 116.492 186.915 118.316L192.969 122.088Z" fill="#031A30"/>
<path d="M192.969 122.088C198.427 125.239 202.851 132.902 202.851 139.205V166.103L212.734 160.397V133.499C212.734 127.197 208.309 119.533 202.851 116.382L181.784 104.218C181.279 103.927 180.658 103.927 180.153 104.218L157.229 117.823C156.142 118.45 156.142 120.019 157.229 120.646L176.667 131.869C182.125 135.02 186.549 142.683 186.549 148.986V175.884L196.432 170.178V143.28C196.432 136.978 192.007 129.314 186.549 126.163L177.607 120.869C175.46 119.659 175.49 116.981 177.505 115.563V115.563C180.325 113.578 183.989 116.492 186.915 118.316L192.969 122.088Z" stroke="#F0F0F0" stroke-linecap="round" stroke-linejoin="round"/>
<path fill-rule="evenodd" clip-rule="evenodd" d="M107.375 114.903C107.626 114.74 107.981 114.753 108.376 114.981L139.295 132.832C140.054 133.27 140.669 134.336 140.669 135.212V155.84C140.669 156.278 140.515 156.586 140.266 156.729L141.641 155.936C141.889 155.792 142.043 155.484 142.043 155.046V134.419C142.043 133.542 141.428 132.477 140.669 132.039L109.75 114.188C109.356 113.96 109 113.947 108.749 114.109L107.375 114.903Z" fill="#031A30" stroke="#F0F0F0" stroke-linecap="round" stroke-linejoin="round"/>
<path fill-rule="evenodd" clip-rule="evenodd" d="M140.264 156.729C140.016 156.873 139.672 156.852 139.293 156.633L108.374 138.782C107.615 138.344 107 137.278 107 136.402V115.774C107 115.354 107.142 115.053 107.373 114.903L108.747 114.109C108.516 114.26 108.374 114.56 108.374 114.981V135.609C108.374 136.485 108.989 137.551 109.748 137.989L140.667 155.84C141.046 156.059 141.39 156.079 141.639 155.936L140.264 156.729Z" fill="#031A30" stroke="#F0F0F0" stroke-linecap="round" stroke-linejoin="round"/>
<path d="M107 115.778C107 114.902 107.615 114.546 108.374 114.985L139.293 132.835C140.052 133.274 140.667 134.339 140.667 135.216V155.843C140.667 156.72 140.052 157.075 139.293 156.637L108.374 138.786C107.615 138.348 107 137.282 107 136.406V115.778Z" fill="#031A30" stroke="#F0F0F0" stroke-linecap="round" stroke-linejoin="round"/>
<path fill-rule="evenodd" clip-rule="evenodd" d="M107.82 127.346C107.82 126.864 108.139 126.381 108.777 126.013C110.052 125.277 112.119 125.277 113.394 126.013C114.032 126.381 114.351 126.864 114.351 127.346V129.206C114.351 128.724 114.032 128.241 113.394 127.873C112.119 127.137 110.052 127.137 108.777 127.873C108.139 128.241 107.82 128.724 107.82 129.206V127.346Z" fill="#031A30" stroke="#F0F0F0" stroke-linecap="round" stroke-linejoin="round"/>
<path fill-rule="evenodd" clip-rule="evenodd" d="M114.351 127.34C114.351 127.822 114.032 128.305 113.394 128.673C112.119 129.409 110.052 129.409 108.777 128.673C108.139 128.305 107.82 127.822 107.82 127.34V129.2C107.82 129.682 108.139 130.165 108.777 130.533C110.052 131.269 112.119 131.269 113.394 130.533C114.032 130.165 114.351 129.682 114.351 129.2V127.34Z" fill="#031A30" stroke="#F0F0F0" stroke-linecap="round" stroke-linejoin="round"/>
<path d="M113.394 128.679C112.119 129.415 110.052 129.415 108.777 128.679C107.502 127.943 107.502 126.749 108.777 126.013C110.052 125.277 112.119 125.277 113.394 126.013C114.67 126.749 114.67 127.943 113.394 128.679Z" fill="#031A30" stroke="#F0F0F0" stroke-linecap="round" stroke-linejoin="round"/>
<path fill-rule="evenodd" clip-rule="evenodd" d="M107.82 124.631C107.82 124.149 108.139 123.666 108.777 123.298C110.052 122.562 112.119 122.562 113.394 123.298C114.032 123.666 114.351 124.149 114.351 124.631V126.491C114.351 126.009 114.032 125.526 113.394 125.158C112.119 124.422 110.052 124.422 108.777 125.158C108.139 125.526 107.82 126.009 107.82 126.491V124.631Z" fill="#031A30" stroke="#F0F0F0" stroke-linecap="round" stroke-linejoin="round"/>
<path fill-rule="evenodd" clip-rule="evenodd" d="M114.351 124.625C114.351 125.107 114.032 125.59 113.394 125.958C112.119 126.694 110.052 126.694 108.777 125.958C108.139 125.59 107.82 125.107 107.82 124.625V126.485C107.82 126.968 108.139 127.45 108.777 127.818C110.052 128.554 112.119 128.554 113.394 127.818C114.032 127.45 114.351 126.968 114.351 126.485V124.625Z" fill="#031A30" stroke="#F0F0F0" stroke-linecap="round" stroke-linejoin="round"/>
<path d="M113.394 125.964C112.119 126.701 110.052 126.701 108.777 125.964C107.502 125.228 107.502 124.034 108.777 123.298C110.052 122.562 112.119 122.562 113.394 123.298C114.67 124.034 114.67 125.228 113.394 125.964Z" fill="#031A30" stroke="#F0F0F0" stroke-linecap="round" stroke-linejoin="round"/>
<path fill-rule="evenodd" clip-rule="evenodd" d="M107.82 122.073C107.82 121.59 108.139 121.108 108.777 120.74C110.052 120.003 112.119 120.003 113.394 120.74C114.032 121.108 114.351 121.59 114.351 122.073V123.933C114.351 123.45 114.032 122.968 113.394 122.6C112.119 121.864 110.052 121.864 108.777 122.6C108.139 122.968 107.82 123.45 107.82 123.933V122.073Z" fill="#031A30" stroke="#F0F0F0" stroke-linecap="round" stroke-linejoin="round"/>
<path fill-rule="evenodd" clip-rule="evenodd" d="M114.351 122.066C114.351 122.549 114.032 123.031 113.394 123.399C112.119 124.136 110.052 124.136 108.777 123.399C108.139 123.031 107.82 122.549 107.82 122.066V123.926C107.82 124.409 108.139 124.891 108.777 125.26C110.052 125.996 112.119 125.996 113.394 125.26C114.032 124.891 114.351 124.409 114.351 123.926V122.066Z" fill="#031A30" stroke="#F0F0F0" stroke-linecap="round" stroke-linejoin="round"/>
<path d="M113.394 123.406C112.119 124.142 110.052 124.142 108.777 123.406C107.502 122.67 107.502 121.476 108.777 120.74C110.052 120.003 112.119 120.003 113.394 120.74C114.67 121.476 114.67 122.67 113.394 123.406Z" fill="#031A30" stroke="#F0F0F0" stroke-linecap="round" stroke-linejoin="round"/>
<path d="M115.092 125.298C115.092 124.33 115.771 123.938 116.609 124.422L136.84 136.102C137.678 136.586 138.357 137.762 138.357 138.73C138.357 139.698 137.678 140.09 136.84 139.606L116.609 127.926C115.771 127.442 115.092 126.266 115.092 125.298ZM115.092 129.386C115.092 128.741 115.545 128.48 116.104 128.802L125.207 134.058C125.766 134.381 126.219 135.165 126.219 135.81C126.219 136.455 125.766 136.717 125.207 136.394L116.104 131.138C115.545 130.816 115.092 130.031 115.092 129.386ZM107 135.81C107 135.488 107.226 135.357 107.506 135.518L114.586 139.606C114.866 139.767 115.092 140.16 115.092 140.482C115.092 140.804 114.866 140.935 114.586 140.774L107.506 136.686C107.226 136.525 107 136.133 107 135.81ZM116.104 141.066C116.104 140.744 116.33 140.613 116.609 140.774L123.69 144.862C123.969 145.023 124.196 145.416 124.196 145.738C124.196 146.06 123.969 146.191 123.69 146.03L116.609 141.942C116.33 141.781 116.104 141.388 116.104 141.066ZM125.207 146.322C125.207 146 125.434 145.869 125.713 146.03L137.851 153.038C138.13 153.199 138.357 153.591 138.357 153.914C138.357 154.236 138.13 154.367 137.851 154.206L125.713 147.198C125.434 147.037 125.207 146.644 125.207 146.322Z" fill="#031A30" stroke="#F0F0F0" stroke-linecap="round" stroke-linejoin="round"/>
<path fill-rule="evenodd" clip-rule="evenodd" d="M88.9766 128.903C89.2272 128.74 89.583 128.753 89.9776 128.981L120.896 146.832C121.655 147.27 122.27 148.336 122.27 149.212V169.84C122.27 170.278 122.117 170.586 121.868 170.729L123.242 169.936C123.491 169.792 123.645 169.484 123.645 169.046V148.419C123.645 147.542 123.029 146.477 122.27 146.039L91.3518 128.188C90.9571 127.96 90.6014 127.947 90.3507 128.109L88.9766 128.903Z" fill="#031A30" stroke="#F0F0F0" stroke-linecap="round" stroke-linejoin="round"/>
<path fill-rule="evenodd" clip-rule="evenodd" d="M121.866 170.729C121.617 170.873 121.274 170.852 120.894 170.633L89.9757 152.782C89.2168 152.344 88.6016 151.278 88.6016 150.402V129.774C88.6016 129.354 88.7433 129.053 88.9747 128.903L90.3488 128.109C90.1175 128.26 89.9757 128.56 89.9757 128.981V149.609C89.9757 150.485 90.591 151.551 91.3499 151.989L122.268 169.84C122.648 170.059 122.991 170.079 123.24 169.936L121.866 170.729Z" fill="#031A30" stroke="#F0F0F0" stroke-linecap="round" stroke-linejoin="round"/>
<path d="M88.6016 129.778C88.6016 128.902 89.2168 128.546 89.9757 128.985L120.894 146.835C121.653 147.274 122.268 148.339 122.268 149.216V169.843C122.268 170.72 121.653 171.075 120.894 170.637L89.9757 152.786C89.2168 152.348 88.6016 151.282 88.6016 150.406V129.778Z" fill="#031A30" stroke="#F0F0F0" stroke-linecap="round" stroke-linejoin="round"/>
<path fill-rule="evenodd" clip-rule="evenodd" d="M89.4219 141.346C89.4219 140.864 89.7407 140.381 90.3783 140.013C91.6534 139.277 93.7209 139.277 94.9961 140.013C95.6336 140.381 95.9524 140.864 95.9524 141.346V143.206C95.9524 142.724 95.6336 142.241 94.9961 141.873C93.7209 141.137 91.6534 141.137 90.3783 141.873C89.7407 142.241 89.4219 142.724 89.4219 143.206V141.346Z" fill="#031A30" stroke="#F0F0F0" stroke-linecap="round" stroke-linejoin="round"/>
<path fill-rule="evenodd" clip-rule="evenodd" d="M95.9524 141.34C95.9524 141.822 95.6336 142.305 94.9961 142.673C93.7209 143.409 91.6534 143.409 90.3783 142.673C89.7407 142.305 89.4219 141.822 89.4219 141.34V143.2C89.4219 143.682 89.7407 144.165 90.3783 144.533C91.6534 145.269 93.7209 145.269 94.9961 144.533C95.6336 144.165 95.9524 143.682 95.9524 143.2V141.34Z" fill="#031A30" stroke="#F0F0F0" stroke-linecap="round" stroke-linejoin="round"/>
<path d="M94.9961 142.679C93.7209 143.415 91.6534 143.415 90.3783 142.679C89.1031 141.943 89.1031 140.749 90.3783 140.013C91.6534 139.277 93.7209 139.277 94.9961 140.013C96.2712 140.749 96.2712 141.943 94.9961 142.679Z" fill="#031A30" stroke="#F0F0F0" stroke-linecap="round" stroke-linejoin="round"/>
<path fill-rule="evenodd" clip-rule="evenodd" d="M89.4219 138.631C89.4219 138.149 89.7407 137.666 90.3783 137.298C91.6534 136.562 93.7209 136.562 94.9961 137.298C95.6336 137.666 95.9524 138.149 95.9524 138.631V140.491C95.9524 140.009 95.6336 139.526 94.9961 139.158C93.7209 138.422 91.6534 138.422 90.3783 139.158C89.7407 139.526 89.4219 140.009 89.4219 140.491V138.631Z" fill="#031A30" stroke="#F0F0F0" stroke-linecap="round" stroke-linejoin="round"/>
<path fill-rule="evenodd" clip-rule="evenodd" d="M95.9524 138.625C95.9524 139.107 95.6336 139.59 94.9961 139.958C93.7209 140.694 91.6534 140.694 90.3783 139.958C89.7407 139.59 89.4219 139.107 89.4219 138.625V140.485C89.4219 140.968 89.7407 141.45 90.3783 141.818C91.6534 142.554 93.7209 142.554 94.9961 141.818C95.6336 141.45 95.9524 140.968 95.9524 140.485V138.625Z" fill="#031A30" stroke="#F0F0F0" stroke-linecap="round" stroke-linejoin="round"/>
<path d="M94.9961 139.964C93.7209 140.701 91.6534 140.701 90.3783 139.964C89.1031 139.228 89.1031 138.034 90.3783 137.298C91.6534 136.562 93.7209 136.562 94.9961 137.298C96.2712 138.034 96.2712 139.228 94.9961 139.964Z" fill="#031A30" stroke="#F0F0F0" stroke-linecap="round" stroke-linejoin="round"/>
<path fill-rule="evenodd" clip-rule="evenodd" d="M89.4219 136.073C89.4219 135.59 89.7407 135.108 90.3783 134.74C91.6534 134.003 93.7209 134.003 94.9961 134.74C95.6336 135.108 95.9524 135.59 95.9524 136.073V137.933C95.9524 137.45 95.6336 136.968 94.9961 136.6C93.7209 135.864 91.6534 135.864 90.3783 136.6C89.7407 136.968 89.4219 137.45 89.4219 137.933V136.073Z" fill="#031A30" stroke="#F0F0F0" stroke-linecap="round" stroke-linejoin="round"/>
<path fill-rule="evenodd" clip-rule="evenodd" d="M95.9524 136.066C95.9524 136.549 95.6336 137.031 94.9961 137.399C93.7209 138.136 91.6534 138.136 90.3783 137.399C89.7407 137.031 89.4219 136.549 89.4219 136.066V137.926C89.4219 138.409 89.7407 138.891 90.3783 139.26C91.6534 139.996 93.7209 139.996 94.9961 139.26C95.6336 138.891 95.9524 138.409 95.9524 137.926V136.066Z" fill="#031A30" stroke="#F0F0F0" stroke-linecap="round" stroke-linejoin="round"/>
<path d="M94.9961 137.406C93.7209 138.142 91.6534 138.142 90.3783 137.406C89.1031 136.67 89.1031 135.476 90.3783 134.74C91.6534 134.003 93.7209 134.003 94.9961 134.74C96.2712 135.476 96.2712 136.67 94.9961 137.406Z" fill="#031A30" stroke="#F0F0F0" stroke-linecap="round" stroke-linejoin="round"/>
<path d="M96.6937 139.298C96.6937 138.33 97.373 137.938 98.2109 138.422L118.441 150.102C119.279 150.586 119.958 151.762 119.958 152.73C119.958 153.698 119.279 154.09 118.441 153.606L98.2109 141.926C97.373 141.442 96.6937 140.266 96.6937 139.298ZM96.6937 143.386C96.6937 142.741 97.1465 142.48 97.7052 142.802L106.809 148.058C107.367 148.381 107.82 149.165 107.82 149.81C107.82 150.455 107.367 150.717 106.809 150.394L97.7052 145.138C97.1465 144.816 96.6937 144.031 96.6937 143.386ZM88.6016 149.81C88.6016 149.488 88.828 149.357 89.1073 149.518L96.1879 153.606C96.4672 153.767 96.6937 154.16 96.6937 154.482C96.6937 154.804 96.4672 154.935 96.1879 154.774L89.1073 150.686C88.828 150.525 88.6016 150.133 88.6016 149.81ZM97.7052 155.066C97.7052 154.744 97.9316 154.613 98.2109 154.774L105.292 158.862C105.571 159.023 105.797 159.416 105.797 159.738C105.797 160.06 105.571 160.191 105.292 160.03L98.2109 155.942C97.9316 155.781 97.7052 155.388 97.7052 155.066ZM106.809 160.322C106.809 160 107.035 159.869 107.315 160.03L119.453 167.038C119.732 167.199 119.958 167.591 119.958 167.914C119.958 168.236 119.732 168.367 119.453 168.206L107.315 161.198C107.035 161.037 106.809 160.644 106.809 160.322Z" fill="#031A30" stroke="#F0F0F0" stroke-linecap="round" stroke-linejoin="round"/>
<path fill-rule="evenodd" clip-rule="evenodd" d="M70.375 140.735C70.6256 140.572 70.9814 140.585 71.3761 140.813L102.295 158.664C103.054 159.102 103.669 160.168 103.669 161.044V181.672C103.669 182.11 103.515 182.418 103.266 182.561L104.641 181.768C104.889 181.624 105.043 181.317 105.043 180.878V160.251C105.043 159.374 104.428 158.309 103.669 157.871L72.7502 140.02C72.3556 139.792 71.9998 139.779 71.7492 139.941L70.375 140.735Z" fill="#031A30" stroke="#F0F0F0" stroke-linecap="round" stroke-linejoin="round"/>
<path fill-rule="evenodd" clip-rule="evenodd" d="M103.264 182.561C103.016 182.705 102.672 182.684 102.293 182.465L71.3742 164.614C70.6152 164.176 70 163.11 70 162.234V141.606C70 141.186 70.1417 140.885 70.3731 140.735L71.7473 139.941C71.5159 140.092 71.3742 140.392 71.3742 140.813V161.441C71.3742 162.317 71.9894 163.383 72.7483 163.821L103.667 181.672C104.046 181.891 104.39 181.911 104.639 181.768L103.264 182.561Z" fill="#031A30" stroke="#F0F0F0" stroke-linecap="round" stroke-linejoin="round"/>
<path d="M70 141.61C70 140.734 70.6152 140.378 71.3742 140.817L102.293 158.667C103.052 159.106 103.667 160.171 103.667 161.048V181.675C103.667 182.552 103.052 182.907 102.293 182.469L71.3742 164.618C70.6152 164.18 70 163.114 70 162.238V141.61Z" fill="#031A30" stroke="#F0F0F0" stroke-linecap="round" stroke-linejoin="round"/>
<path fill-rule="evenodd" clip-rule="evenodd" d="M70.8203 153.178C70.8203 152.696 71.1391 152.213 71.7767 151.845C73.0519 151.109 75.1193 151.109 76.3945 151.845C77.0321 152.213 77.3509 152.696 77.3509 153.178V155.038C77.3509 154.556 77.0321 154.073 76.3945 153.705C75.1193 152.969 73.0519 152.969 71.7767 153.705C71.1391 154.073 70.8203 154.556 70.8203 155.038V153.178Z" fill="#031A30" stroke="#F0F0F0" stroke-linecap="round" stroke-linejoin="round"/>
<path fill-rule="evenodd" clip-rule="evenodd" d="M77.3509 153.172C77.3509 153.654 77.0321 154.137 76.3945 154.505C75.1193 155.241 73.0519 155.241 71.7767 154.505C71.1391 154.137 70.8203 153.654 70.8203 153.172V155.032C70.8203 155.514 71.1391 155.997 71.7767 156.365C73.0519 157.101 75.1193 157.101 76.3945 156.365C77.0321 155.997 77.3509 155.514 77.3509 155.032V153.172Z" fill="#031A30" stroke="#F0F0F0" stroke-linecap="round" stroke-linejoin="round"/>
<path d="M76.3945 154.511C75.1193 155.247 73.0519 155.247 71.7767 154.511C70.5015 153.775 70.5015 152.581 71.7767 151.845C73.0519 151.109 75.1193 151.109 76.3945 151.845C77.6697 152.581 77.6697 153.775 76.3945 154.511Z" fill="#031A30" stroke="#F0F0F0" stroke-linecap="round" stroke-linejoin="round"/>
<path fill-rule="evenodd" clip-rule="evenodd" d="M70.8203 150.463C70.8203 149.981 71.1391 149.498 71.7767 149.13C73.0519 148.394 75.1193 148.394 76.3945 149.13C77.0321 149.498 77.3509 149.981 77.3509 150.463V152.323C77.3509 151.841 77.0321 151.358 76.3945 150.99C75.1193 150.254 73.0519 150.254 71.7767 150.99C71.1391 151.358 70.8203 151.841 70.8203 152.323V150.463Z" fill="#031A30" stroke="#F0F0F0" stroke-linecap="round" stroke-linejoin="round"/>
<path fill-rule="evenodd" clip-rule="evenodd" d="M77.3509 150.457C77.3509 150.939 77.0321 151.422 76.3945 151.79C75.1193 152.526 73.0519 152.526 71.7767 151.79C71.1391 151.422 70.8203 150.939 70.8203 150.457V152.317C70.8203 152.8 71.1391 153.282 71.7767 153.65C73.0519 154.386 75.1193 154.386 76.3945 153.65C77.0321 153.282 77.3509 152.8 77.3509 152.317V150.457Z" fill="#031A30" stroke="#F0F0F0" stroke-linecap="round" stroke-linejoin="round"/>
<path d="M76.3945 151.796C75.1193 152.533 73.0519 152.533 71.7767 151.796C70.5015 151.06 70.5015 149.867 71.7767 149.13C73.0519 148.394 75.1193 148.394 76.3945 149.13C77.6697 149.867 77.6697 151.06 76.3945 151.796Z" fill="#031A30" stroke="#F0F0F0" stroke-linecap="round" stroke-linejoin="round"/>
<path fill-rule="evenodd" clip-rule="evenodd" d="M70.8203 147.905C70.8203 147.422 71.1391 146.94 71.7767 146.572C73.0519 145.835 75.1193 145.835 76.3945 146.572C77.0321 146.94 77.3509 147.422 77.3509 147.905V149.765C77.3509 149.282 77.0321 148.8 76.3945 148.432C75.1193 147.696 73.0519 147.696 71.7767 148.432C71.1391 148.8 70.8203 149.282 70.8203 149.765V147.905Z" fill="#031A30" stroke="#F0F0F0" stroke-linecap="round" stroke-linejoin="round"/>
<path fill-rule="evenodd" clip-rule="evenodd" d="M77.3509 147.898C77.3509 148.381 77.0321 148.863 76.3945 149.231C75.1193 149.968 73.0519 149.968 71.7767 149.231C71.1391 148.863 70.8203 148.381 70.8203 147.898V149.759C70.8203 150.241 71.1391 150.723 71.7767 151.092C73.0519 151.828 75.1193 151.828 76.3945 151.092C77.0321 150.723 77.3509 150.241 77.3509 149.759V147.898Z" fill="#031A30" stroke="#F0F0F0" stroke-linecap="round" stroke-linejoin="round"/>
<path d="M76.3945 149.238C75.1193 149.974 73.0519 149.974 71.7767 149.238C70.5015 148.502 70.5015 147.308 71.7767 146.572C73.0519 145.835 75.1193 145.835 76.3945 146.572C77.6697 147.308 77.6697 148.502 76.3945 149.238Z" fill="#031A30" stroke="#F0F0F0" stroke-linecap="round" stroke-linejoin="round"/>
<path d="M79.0921 151.083C79.0921 150.116 79.7714 149.723 80.6094 150.207L100.84 161.887C101.678 162.371 102.357 163.548 102.357 164.515C102.357 165.483 101.678 165.875 100.84 165.391L80.6094 153.711C79.7714 153.227 79.0921 152.051 79.0921 151.083ZM79.0921 155.171C79.0921 154.526 79.545 154.265 80.1036 154.587L89.2073 159.843C89.7659 160.166 90.2188 160.95 90.2188 161.595C90.2188 162.24 89.7659 162.502 89.2073 162.179L80.1036 156.923C79.545 156.601 79.0921 155.816 79.0921 155.171ZM71 161.595C71 161.273 71.2264 161.142 71.5058 161.303L78.5864 165.391C78.8657 165.552 79.0921 165.945 79.0921 166.267C79.0921 166.59 78.8657 166.72 78.5864 166.559L71.5058 162.471C71.2264 162.31 71 161.918 71 161.595ZM80.1036 166.851C80.1036 166.529 80.3301 166.398 80.6094 166.559L87.69 170.647C87.9693 170.808 88.1957 171.201 88.1957 171.523C88.1957 171.846 87.9693 171.976 87.69 171.815L80.6094 167.727C80.3301 167.566 80.1036 167.174 80.1036 166.851ZM89.2073 172.107C89.2073 171.785 89.4337 171.654 89.713 171.815L101.851 178.823C102.13 178.984 102.357 179.377 102.357 179.699C102.357 180.022 102.13 180.152 101.851 179.991L89.713 172.983C89.4337 172.822 89.2073 172.43 89.2073 172.107Z" fill="#031A30" stroke="#F0F0F0" stroke-linecap="round" stroke-linejoin="round"/>
<rect width="27.3083" height="26.8908" rx="5.74105" transform="matrix(0.866025 0.5 -0.866025 0.5 68.3516 214.633)" fill="#031A30" stroke="#F0F0F0" stroke-linecap="round" stroke-linejoin="round"/>
<path d="M67.4069 227.855C67.407 227.82 67.4235 227.788 67.4513 227.768V227.768C68.231 227.207 69.2826 227.207 70.0622 227.768V227.768C70.0903 227.788 70.1068 227.821 70.1067 227.855L70.1063 227.932C70.1062 227.973 70.0934 228.012 70.07 228.045V228.045C69.4263 228.946 68.0865 228.947 67.4429 228.046V228.046C67.4191 228.012 67.4063 227.972 67.4065 227.932L67.4069 227.855Z" fill="#031A30" stroke="#F0F0F0" stroke-linecap="round" stroke-linejoin="round"/>
<path d="M67.4062 205.855H70.1061V227.994V227.994C69.4445 228.92 68.0679 228.92 67.4062 227.994V227.994V205.855Z" fill="#031A30" stroke="#F0F0F0" stroke-linecap="round" stroke-linejoin="round"/>
<path d="M81.2219 212.823C81.2219 217.893 74.0883 221.031 69.0187 221.031C63.949 221.031 56.4375 216.921 56.4375 211.852C56.4375 206.782 63.949 174 69.0187 174C74.0883 174 81.2219 207.754 81.2219 212.823Z" fill="#031A30" stroke="#F0F0F0" stroke-linecap="round" stroke-linejoin="round"/>
<rect width="27.3083" height="26.8908" rx="5.74105" transform="matrix(0.866025 0.5 -0.866025 0.5 34.2891 195.375)" fill="#031A30" stroke="#F0F0F0" stroke-linecap="round" stroke-linejoin="round"/>
<path d="M33.5943 208.714C33.5944 208.685 33.6082 208.658 33.6314 208.641V208.641C34.2833 208.172 35.1625 208.172 35.8143 208.641V208.641C35.8378 208.658 35.8516 208.685 35.8515 208.714L35.8512 208.779C35.8511 208.813 35.8404 208.845 35.8208 208.873V208.873C35.2826 209.626 34.1625 209.627 33.6244 208.874V208.874C33.6045 208.846 33.5938 208.812 33.594 208.778L33.5943 208.714Z" fill="#031A30" stroke="#F0F0F0" stroke-linecap="round" stroke-linejoin="round"/>
<path d="M33.5938 190.32H35.851V208.83V208.83C35.2978 209.604 34.1469 209.604 33.5938 208.83V208.83V190.32Z" fill="#031A30" stroke="#F0F0F0" stroke-linecap="round" stroke-linejoin="round"/>
<circle cx="34.9402" cy="191.675" r="7.67458" fill="#031A30" stroke="#F0F0F0" stroke-linecap="round" stroke-linejoin="round"/>
<rect width="27.3083" height="26.8908" rx="5.74105" transform="matrix(0.866025 0.5 -0.866025 0.5 226.352 216.633)" fill="#031A30" stroke="#F0F0F0" stroke-linecap="round" stroke-linejoin="round"/>
<path d="M225.407 229.855C225.407 229.82 225.424 229.788 225.451 229.768V229.768C226.231 229.207 227.283 229.207 228.062 229.768V229.768C228.09 229.788 228.107 229.821 228.107 229.855L228.106 229.932C228.106 229.973 228.093 230.012 228.07 230.045V230.045C227.426 230.946 226.087 230.947 225.443 230.046V230.046C225.419 230.012 225.406 229.972 225.407 229.932L225.407 229.855Z" fill="#031A30" stroke="#F0F0F0" stroke-linecap="round" stroke-linejoin="round"/>
<path d="M225.406 207.855H228.106V229.994V229.994C227.444 230.92 226.068 230.92 225.406 229.994V229.994V207.855Z" fill="#031A30" stroke="#F0F0F0" stroke-linecap="round" stroke-linejoin="round"/>
<path d="M239.222 214.823C239.222 219.893 232.088 223.031 227.019 223.031C221.949 223.031 214.438 218.921 214.438 213.852C214.438 208.782 221.949 176 227.019 176C232.088 176 239.222 209.754 239.222 214.823Z" fill="#031A30" stroke="#F0F0F0" stroke-linecap="round" stroke-linejoin="round"/>
<rect width="27.3083" height="26.8908" rx="5.74105" transform="matrix(0.866025 0.5 -0.866025 0.5 262.289 194.375)" fill="#031A30" stroke="#F0F0F0" stroke-linecap="round" stroke-linejoin="round"/>
<path d="M261.594 207.714C261.594 207.685 261.608 207.658 261.631 207.641V207.641C262.283 207.172 263.163 207.172 263.814 207.641V207.641C263.838 207.658 263.852 207.685 263.851 207.714L263.851 207.779C263.851 207.813 263.84 207.845 263.821 207.873V207.873C263.283 208.626 262.163 208.627 261.624 207.874V207.874C261.604 207.846 261.594 207.812 261.594 207.778L261.594 207.714Z" fill="#031A30" stroke="#F0F0F0" stroke-linecap="round" stroke-linejoin="round"/>
<path d="M261.594 189.32H263.851V207.83V207.83C263.298 208.604 262.147 208.604 261.594 207.83V207.83V189.32Z" fill="#031A30" stroke="#F0F0F0" stroke-linecap="round" stroke-linejoin="round"/>
<circle cx="262.94" cy="190.675" r="7.67458" fill="#031A30" stroke="#F0F0F0" stroke-linecap="round" stroke-linejoin="round"/>
</svg>
