<svg width="300" height="300" viewBox="0 0 300 300" fill="none" xmlns="http://www.w3.org/2000/svg">
<rect width="32.4261" height="32.4261" transform="matrix(0.866025 0.5 -0.866025 0.5 262.078 193)" fill="#031A30" stroke="#F0F0F0" stroke-linecap="round" stroke-linejoin="round"/>
<circle cx="0.863947" cy="0.863947" r="0.863947" transform="matrix(0.866025 0.5 -0.866025 0.5 262.078 222.273)" fill="#F0F0F0"/>
<circle cx="0.863947" cy="0.863947" r="0.863947" transform="matrix(0.866025 0.5 -0.866025 0.5 286.773 208.266)" fill="#F0F0F0"/>
<circle cx="0.863947" cy="0.863947" r="0.863947" transform="matrix(0.866025 0.5 -0.866025 0.5 237.477 208.203)" fill="#F0F0F0"/>
<path d="M260.324 195.808H263.88L283.735 207.271L283.735 209.264L263.869 220.734H260.334L240.655 209.372L240.655 207.163L260.324 195.808Z" fill="#031A30" stroke="#F0F0F0" stroke-linecap="round" stroke-linejoin="round"/>
<circle cx="0.863947" cy="0.863947" r="0.863947" transform="matrix(0.866025 0.5 -0.866025 0.5 262.078 193.91)" fill="#F0F0F0"/>
<path fill-rule="evenodd" clip-rule="evenodd" d="M257.996 164.641C257.996 165.808 257.225 166.976 255.681 167.867L155.085 225.947C151.999 227.729 146.994 227.729 143.908 225.947L43.3112 167.867C41.8296 167.012 41.0592 165.901 41 164.781V186.292C41.0592 187.412 41.8296 188.523 43.3112 189.378L143.908 247.458C146.994 249.24 151.999 249.24 155.085 247.458L255.681 189.378C257.225 188.487 257.996 187.319 257.996 186.152V164.641Z" fill="#031A30" stroke="#F0F0F0" stroke-linecap="round" stroke-linejoin="round"/>
<path d="M143.911 103.337C146.998 101.554 152.002 101.554 155.089 103.337L255.685 161.416C258.772 163.198 258.772 166.087 255.685 167.869L155.089 225.949C152.002 227.73 146.998 227.73 143.911 225.949L43.3149 167.869C40.2283 166.087 40.2284 163.198 43.3149 161.416L143.911 103.337Z" fill="#031A30" stroke="#F0F0F0" stroke-linecap="round" stroke-linejoin="round"/>
<path d="M145.027 116.995C147.439 115.606 151.349 115.606 153.761 116.995L232.369 162.269C234.781 163.658 234.781 165.911 232.369 167.3L153.761 212.574C151.349 213.963 147.438 213.963 145.027 212.574L66.4183 167.3C64.0064 165.911 64.0064 163.658 66.4183 162.269L145.027 116.995Z" fill="#031A30" stroke="#F0F0F0" stroke-linecap="round" stroke-linejoin="round"/>
<path fill-rule="evenodd" clip-rule="evenodd" d="M135.317 88.1615C134.865 88.4182 134.586 88.9733 134.586 89.7671V94.5415L139.033 91.9737V87.1993C139.033 86.4056 139.312 85.8504 139.764 85.5938L135.317 88.1615Z" fill="#031A30" stroke="#F0F0F0" stroke-linecap="round" stroke-linejoin="round"/>
<path fill-rule="evenodd" clip-rule="evenodd" d="M134.588 94.543L130.419 92.1358C128.579 91.0736 126.911 90.9671 125.703 91.6528L130.151 89.0851C131.358 88.3993 133.026 88.5058 134.866 89.568L139.035 91.9753L134.588 94.543Z" fill="#031A30" stroke="#F0F0F0" stroke-linecap="round" stroke-linejoin="round"/>
<path fill-rule="evenodd" clip-rule="evenodd" d="M125.706 91.6537C124.498 92.3394 123.75 93.8173 123.75 95.924V97.8338V103.563V134.119C123.75 138.332 126.742 143.485 130.421 145.61L163.777 164.868C165.617 165.93 167.285 166.036 168.492 165.35L172.94 162.783C171.732 163.468 170.064 163.362 168.224 162.3L134.869 143.042C131.189 140.917 128.197 135.764 128.197 131.551V100.995V95.2661V93.3563C128.197 91.2496 128.945 89.7717 130.153 89.0859L125.706 91.6537Z" fill="#031A30" stroke="#F0F0F0" stroke-linecap="round" stroke-linejoin="round"/>
<path fill-rule="evenodd" clip-rule="evenodd" d="M168.493 165.349C169.701 164.663 170.449 163.185 170.449 161.079V130.523V124.793V122.884C170.449 118.67 167.457 113.517 163.778 111.393L159.608 108.986V104.211C159.608 102.624 158.493 100.703 157.107 99.9024C156.413 99.5022 155.788 99.4604 155.336 99.7171L159.783 97.1494C160.236 96.8927 160.861 96.9345 161.554 97.3347C162.94 98.1351 164.056 100.056 164.056 101.644V106.418L168.225 108.825C171.905 110.95 174.896 116.102 174.896 120.316V122.226V127.955V158.511C174.896 160.617 174.149 162.095 172.941 162.781L168.493 165.349Z" fill="#031A30" stroke="#F0F0F0" stroke-linecap="round" stroke-linejoin="round"/>
<path fill-rule="evenodd" clip-rule="evenodd" d="M155.333 99.7201C154.88 99.9768 154.602 100.532 154.602 101.326V106.1L159.049 103.532V98.7579C159.049 97.9642 159.328 97.409 159.78 97.1523L155.333 99.7201Z" fill="#031A30" stroke="#F0F0F0" stroke-linecap="round" stroke-linejoin="round"/>
<path fill-rule="evenodd" clip-rule="evenodd" d="M154.603 106.097L139.593 97.4311V92.6567C139.593 91.0692 138.477 89.1481 137.091 88.3477C136.398 87.9475 135.772 87.9057 135.32 88.1624L139.768 85.5947C140.22 85.338 140.845 85.3798 141.538 85.78C142.925 86.5804 144.04 88.5015 144.04 90.089V94.8633L159.05 103.529L154.603 106.097Z" fill="#031A30" stroke="#F0F0F0" stroke-linecap="round" stroke-linejoin="round"/>
<path fill-rule="evenodd" clip-rule="evenodd" d="M128.758 106.451L165.449 127.634V158.19C165.449 158.694 165.276 159.055 164.995 159.235L169.442 156.667C169.724 156.487 169.897 156.127 169.897 155.623V125.067L133.205 103.883L128.758 106.451Z" fill="#031A30" stroke="#F0F0F0" stroke-linecap="round" stroke-linejoin="round"/>
<path fill-rule="evenodd" clip-rule="evenodd" d="M164.995 159.235C164.69 159.43 164.258 159.413 163.781 159.137L130.426 139.879C129.508 139.35 128.758 138.057 128.758 137.007V106.451L133.205 103.883V134.439C133.205 135.489 133.956 136.782 134.873 137.312L168.229 156.57C168.706 156.845 169.138 156.862 169.442 156.667L164.995 159.235Z" fill="#031A30" stroke="#F0F0F0" stroke-linecap="round" stroke-linejoin="round"/>
<path d="M134.841 94.978C134.995 94.8886 135.091 94.7236 135.091 94.545V89.7706C135.091 89.082 135.328 88.736 135.568 88.5998C135.811 88.4623 136.238 88.4342 136.842 88.7833C137.443 89.13 138.011 89.7384 138.431 90.4607C138.85 91.1832 139.094 91.9743 139.094 92.6593V97.4336C139.094 97.6123 139.189 97.7773 139.344 97.8667L154.354 106.533C154.509 106.622 154.699 106.622 154.854 106.533C155.009 106.443 155.104 106.278 155.104 106.1V101.325C155.104 100.637 155.342 100.291 155.582 100.155C155.824 100.017 156.251 99.9889 156.856 100.338C157.456 100.685 158.025 101.293 158.444 102.015C158.864 102.738 159.107 103.529 159.107 104.214V108.988C159.107 109.167 159.203 109.332 159.357 109.421L163.527 111.829C165.273 112.837 166.884 114.584 168.06 116.609C169.236 118.634 169.948 120.889 169.948 122.886V124.796V130.525V161.081C169.948 163.08 169.243 164.351 168.245 164.917C167.246 165.484 165.776 165.446 164.027 164.436L130.671 145.178C128.925 144.169 127.314 142.422 126.138 140.398C124.962 138.373 124.25 136.117 124.25 134.12V103.564V97.8349V95.9251C124.25 93.9258 124.955 92.6556 125.953 92.0895C126.952 91.5223 128.422 91.5606 130.171 92.5707L134.341 94.978C134.495 95.0673 134.686 95.0673 134.841 94.978ZM129.003 106.02C128.849 105.93 128.658 105.93 128.503 106.02C128.349 106.109 128.253 106.274 128.253 106.453V137.009C128.253 137.644 128.477 138.316 128.811 138.891C129.145 139.467 129.619 139.996 130.171 140.315L163.527 159.573C164.077 159.89 164.692 159.983 165.202 159.693C165.714 159.402 165.945 158.826 165.945 158.193V127.637C165.945 127.458 165.849 127.293 165.695 127.204L129.003 106.02Z" fill="#031A30" stroke="#F0F0F0" stroke-linecap="round" stroke-linejoin="round"/>
<path fill-rule="evenodd" clip-rule="evenodd" d="M196.361 150.238L190.135 146.643C190.135 119.273 170.92 85.9924 147.217 72.3072C135.682 65.6476 124.973 65.8583 117.195 70.2352L121.643 67.6675C129.421 63.2906 140.13 63.0799 151.664 69.7395C175.368 83.4247 194.582 116.705 194.582 144.075L200.809 147.67L196.361 150.238Z" fill="#031A30" stroke="#F0F0F0" stroke-linecap="round" stroke-linejoin="round"/>
<path fill-rule="evenodd" clip-rule="evenodd" d="M117.197 70.2357C115.931 70.9482 114.742 71.7711 113.641 72.6928L119.422 78.5986L123.87 76.0309L118.088 70.1251C119.19 69.2034 120.378 68.3805 121.645 67.668L117.197 70.2357Z" fill="#031A30" stroke="#F0F0F0" stroke-linecap="round" stroke-linejoin="round"/>
<path fill-rule="evenodd" clip-rule="evenodd" d="M119.42 78.596L102.964 84.7586L99.4062 58.5677L103.854 56L107.412 82.1908L123.867 76.0283L119.42 78.596Z" fill="#031A30" stroke="#F0F0F0" stroke-linecap="round" stroke-linejoin="round"/>
<path fill-rule="evenodd" clip-rule="evenodd" d="M99.4062 58.5677L107.412 66.2709L111.859 63.7032L103.854 56L99.4062 58.5677Z" fill="#031A30" stroke="#F0F0F0" stroke-linecap="round" stroke-linejoin="round"/>
<path fill-rule="evenodd" clip-rule="evenodd" d="M107.406 66.2715C108.794 64.8541 110.354 63.6285 112.061 62.6068L116.508 60.0391C114.802 61.0608 113.241 62.2864 111.854 63.7038L107.406 66.2715Z" fill="#031A30" stroke="#F0F0F0" stroke-linecap="round" stroke-linejoin="round"/>
<path fill-rule="evenodd" clip-rule="evenodd" d="M112.062 62.6082C121.023 57.2441 134.016 57.4987 147.212 65.1174C174.356 80.7885 196.357 118.897 196.357 150.238L200.804 147.67C200.804 116.33 178.803 78.2208 151.66 62.5497C138.464 54.931 125.47 54.6763 116.51 60.0405L112.062 62.6082Z" fill="#031A30" stroke="#F0F0F0" stroke-linecap="round" stroke-linejoin="round"/>
<path fill-rule="evenodd" clip-rule="evenodd" d="M98.0703 93.4896L104.297 97.0844C104.297 124.455 123.511 157.735 147.215 171.42C158.8 178.109 169.312 178.879 177.034 174.722L181.481 172.154C173.76 176.311 163.247 175.541 151.662 168.852C127.958 155.167 108.744 121.887 108.744 94.5167L102.518 90.9219L98.0703 93.4896Z" fill="#031A30" stroke="#F0F0F0" stroke-linecap="round" stroke-linejoin="round"/>
<path fill-rule="evenodd" clip-rule="evenodd" d="M177.031 174.721C179.744 173.26 182.112 171.192 184.061 168.558L177.677 161.79L182.124 159.223L188.509 165.99C186.56 168.624 184.192 170.693 181.479 172.153L177.031 174.721Z" fill="#031A30" stroke="#F0F0F0" stroke-linecap="round" stroke-linejoin="round"/>
<path fill-rule="evenodd" clip-rule="evenodd" d="M177.68 161.791L194.58 157.169L196.804 182.847L201.251 180.279L199.027 154.602L182.127 159.223L177.68 161.791Z" fill="#031A30" stroke="#F0F0F0" stroke-linecap="round" stroke-linejoin="round"/>
<path fill-rule="evenodd" clip-rule="evenodd" d="M189.591 175.087C187.54 177.923 185.073 180.201 182.258 181.881L186.705 179.314C189.521 177.633 191.988 175.355 194.038 172.52L189.591 175.087Z" fill="#031A30" stroke="#F0F0F0" stroke-linecap="round" stroke-linejoin="round"/>
<path d="M147.215 65.118C174.358 80.7891 196.359 118.898 196.359 150.238L190.132 146.643C190.132 119.273 170.918 85.9929 147.215 72.3077C133.802 64.564 121.506 66.1095 113.636 72.6928L119.418 78.5986L102.962 84.7612L99.4045 58.5703L107.41 66.2735C116.082 57.4148 131.505 56.0481 147.215 65.118ZM147.215 178.612C120.071 162.941 98.0703 124.832 98.0703 93.4914L104.297 97.0863C104.297 124.457 123.511 157.737 147.215 171.422C162.87 180.461 176.568 178.691 184.064 168.56L177.679 161.793L194.58 157.171L196.803 182.848L189.59 175.089C181.046 186.905 165.268 189.035 147.215 178.612Z" fill="#031A30" stroke="#F0F0F0" stroke-linecap="round" stroke-linejoin="round"/>
<rect width="27.3083" height="26.8908" rx="5.74105" transform="matrix(0.866025 0.5 -0.866025 0.5 68.3516 214.633)" fill="#031A30" stroke="#F0F0F0" stroke-linecap="round" stroke-linejoin="round"/>
<path d="M67.4069 227.855C67.407 227.82 67.4235 227.788 67.4513 227.768V227.768C68.231 227.207 69.2826 227.207 70.0622 227.768V227.768C70.0903 227.788 70.1068 227.821 70.1067 227.855L70.1063 227.932C70.1062 227.973 70.0934 228.012 70.07 228.045V228.045C69.4263 228.946 68.0865 228.947 67.4429 228.046V228.046C67.4191 228.012 67.4063 227.972 67.4065 227.932L67.4069 227.855Z" fill="#031A30" stroke="#F0F0F0" stroke-linecap="round" stroke-linejoin="round"/>
<path d="M67.4062 205.855H70.1061V227.994V227.994C69.4445 228.92 68.0679 228.92 67.4062 227.994V227.994V205.855Z" fill="#031A30" stroke="#F0F0F0" stroke-linecap="round" stroke-linejoin="round"/>
<path d="M81.2219 212.823C81.2219 217.893 74.0883 221.031 69.0187 221.031C63.949 221.031 56.4375 216.921 56.4375 211.852C56.4375 206.782 63.949 174 69.0187 174C74.0883 174 81.2219 207.754 81.2219 212.823Z" fill="#031A30" stroke="#F0F0F0" stroke-linecap="round" stroke-linejoin="round"/>
<rect width="27.3083" height="26.8908" rx="5.74105" transform="matrix(0.866025 0.5 -0.866025 0.5 34.2891 195.375)" fill="#031A30" stroke="#F0F0F0" stroke-linecap="round" stroke-linejoin="round"/>
<path d="M33.5943 208.714C33.5944 208.685 33.6082 208.658 33.6314 208.641V208.641C34.2833 208.172 35.1625 208.172 35.8143 208.641V208.641C35.8378 208.658 35.8516 208.685 35.8515 208.714L35.8512 208.779C35.8511 208.813 35.8404 208.845 35.8208 208.873V208.873C35.2826 209.626 34.1625 209.627 33.6244 208.874V208.874C33.6045 208.846 33.5938 208.812 33.594 208.778L33.5943 208.714Z" fill="#031A30" stroke="#F0F0F0" stroke-linecap="round" stroke-linejoin="round"/>
<path d="M33.5938 190.32H35.851V208.83V208.83C35.2978 209.604 34.1469 209.604 33.5938 208.83V208.83V190.32Z" fill="#031A30" stroke="#F0F0F0" stroke-linecap="round" stroke-linejoin="round"/>
<circle cx="34.9402" cy="191.675" r="7.67458" fill="#031A30" stroke="#F0F0F0" stroke-linecap="round" stroke-linejoin="round"/>
<rect width="27.3083" height="26.8908" rx="5.74105" transform="matrix(0.866025 0.5 -0.866025 0.5 226.289 216.375)" fill="#031A30" stroke="#F0F0F0" stroke-linecap="round" stroke-linejoin="round"/>
<path d="M225.594 229.714C225.594 229.685 225.608 229.658 225.631 229.641V229.641C226.283 229.172 227.163 229.172 227.814 229.641V229.641C227.838 229.658 227.852 229.685 227.851 229.714L227.851 229.779C227.851 229.813 227.84 229.845 227.821 229.873V229.873C227.283 230.626 226.163 230.627 225.624 229.874V229.874C225.604 229.846 225.594 229.812 225.594 229.778L225.594 229.714Z" fill="#031A30" stroke="#F0F0F0" stroke-linecap="round" stroke-linejoin="round"/>
<path d="M225.594 211.32H227.851V229.83V229.83C227.298 230.604 226.147 230.604 225.594 229.83V229.83V211.32Z" fill="#031A30" stroke="#F0F0F0" stroke-linecap="round" stroke-linejoin="round"/>
<circle cx="226.94" cy="212.675" r="7.67458" fill="#031A30" stroke="#F0F0F0" stroke-linecap="round" stroke-linejoin="round"/>
</svg>
