<svg width="300" height="300" viewBox="0 0 300 300" fill="none" xmlns="http://www.w3.org/2000/svg">
<path fill-rule="evenodd" clip-rule="evenodd" d="M257.996 164.641C257.996 165.808 257.225 166.976 255.681 167.867L155.085 225.947C151.999 227.729 146.994 227.729 143.908 225.947L43.3112 167.867C41.8296 167.012 41.0592 165.901 41 164.781V186.292C41.0592 187.412 41.8296 188.523 43.3112 189.378L143.908 247.458C146.994 249.24 151.999 249.24 155.085 247.458L255.681 189.378C257.225 188.487 257.996 187.319 257.996 186.152V164.641Z" fill="#031A30" stroke="#F0F0F0" stroke-linecap="round" stroke-linejoin="round"/>
<path d="M143.911 103.337C146.998 101.554 152.002 101.554 155.089 103.337L255.685 161.416C258.772 163.198 258.772 166.087 255.685 167.869L155.089 225.949C152.002 227.73 146.998 227.73 143.911 225.949L43.3149 167.869C40.2283 166.087 40.2284 163.198 43.3149 161.416L143.911 103.337Z" fill="#031A30" stroke="#F0F0F0" stroke-linecap="round" stroke-linejoin="round"/>
<path d="M145.027 116.995C147.439 115.606 151.349 115.606 153.761 116.995L232.369 162.269C234.781 163.658 234.781 165.911 232.369 167.3L153.761 212.574C151.349 213.963 147.438 213.963 145.027 212.574L66.4183 167.3C64.0064 165.911 64.0064 163.658 66.4183 162.269L145.027 116.995Z" fill="#031A30" stroke="#F0F0F0" stroke-linecap="round" stroke-linejoin="round"/>
<path fill-rule="evenodd" clip-rule="evenodd" d="M148.391 139.596L122.828 124.837L148.391 110.078L173.954 124.837L148.391 139.596Z" fill="#031A30"/>
<path d="M148.391 139.596V169.113L173.954 154.354V124.837L148.391 139.596Z" fill="#031A30"/>
<path d="M148.391 139.596L122.828 124.837L148.391 110.078L173.954 124.837M148.391 139.596V169.113L173.954 154.354V124.837M148.391 139.596L173.954 124.837" stroke="#F0F0F0" stroke-linecap="round" stroke-linejoin="round"/>
<path d="M148.391 110.078L122.828 124.837V154.354L148.391 169.113L173.954 154.354" stroke="#F0F0F0" stroke-linejoin="round"/>
<path d="M122.828 124.836L148.391 139.595V169.112L122.828 154.354V124.836Z" fill="#031A30" stroke="#F0F0F0" stroke-linecap="round" stroke-linejoin="round"/>
<path fill-rule="evenodd" clip-rule="evenodd" d="M175.883 155.139L150.32 140.38L175.883 125.621L201.446 140.38L175.883 155.139Z" fill="#031A30"/>
<path d="M175.883 155.139V184.656L201.446 169.897V140.38L175.883 155.139Z" fill="#031A30"/>
<path d="M175.883 155.139L150.32 140.38L175.883 125.621L201.446 140.38M175.883 155.139V184.656L201.446 169.897V140.38M175.883 155.139L201.446 140.38" stroke="#F0F0F0" stroke-linecap="round" stroke-linejoin="round"/>
<path d="M175.883 125.621L150.32 140.38V169.897L175.883 184.656L201.446 169.897" stroke="#F0F0F0" stroke-linejoin="round"/>
<path d="M150.32 140.379L175.883 155.138V184.655L150.32 169.896V140.379Z" fill="#031A30" stroke="#F0F0F0" stroke-linecap="round" stroke-linejoin="round"/>
<path fill-rule="evenodd" clip-rule="evenodd" d="M120.899 155.139L95.3359 140.38L120.899 125.621L146.462 140.38L120.899 155.139Z" fill="#031A30"/>
<path d="M120.899 155.139V184.656L146.462 169.897V140.38L120.899 155.139Z" fill="#031A30"/>
<path d="M120.899 155.139L95.3359 140.38L120.899 125.621L146.462 140.38M120.899 155.139V184.656L146.462 169.897V140.38M120.899 155.139L146.462 140.38" stroke="#F0F0F0" stroke-linecap="round" stroke-linejoin="round"/>
<path d="M120.899 125.621L95.3359 140.38V169.897L120.899 184.656L146.462 169.897" stroke="#F0F0F0" stroke-linejoin="round"/>
<path d="M95.3359 140.379L120.899 155.138V184.655L95.3359 169.896V140.379Z" fill="#031A30" stroke="#F0F0F0" stroke-linecap="round" stroke-linejoin="round"/>
<path fill-rule="evenodd" clip-rule="evenodd" d="M148.391 171.873L122.828 157.114L148.391 142.355L173.954 157.114L148.391 171.873Z" fill="#031A30"/>
<path d="M148.391 171.873V201.391L173.954 186.632V157.114L148.391 171.873Z" fill="#031A30"/>
<path d="M148.391 171.873L122.828 157.114L148.391 142.355L173.954 157.114M148.391 171.873V201.391L173.954 186.632V157.114M148.391 171.873L173.954 157.114" stroke="#F0F0F0" stroke-linecap="round" stroke-linejoin="round"/>
<path d="M148.391 142.355L122.828 157.114V186.632L148.391 201.391L173.954 186.632" stroke="#F0F0F0" stroke-linejoin="round"/>
<path d="M122.828 157.113L148.391 171.872V201.39L122.828 186.631V157.113Z" fill="#031A30" stroke="#F0F0F0" stroke-linecap="round" stroke-linejoin="round"/>
<path fill-rule="evenodd" clip-rule="evenodd" d="M148.391 108.518L122.828 93.7588L148.391 79L173.954 93.7588L148.391 108.518Z" fill="#031A30"/>
<path d="M148.391 108.518V138.035L173.954 123.276V93.7588L148.391 108.518Z" fill="#031A30"/>
<path d="M148.391 108.518L122.828 93.7588L148.391 79L173.954 93.7588M148.391 108.518V138.035L173.954 123.276V93.7588M148.391 108.518L173.954 93.7588" stroke="#F0F0F0" stroke-linecap="round" stroke-linejoin="round"/>
<path d="M148.391 79L122.828 93.7588V123.276L148.391 138.035L173.954 123.276" stroke="#F0F0F0" stroke-linejoin="round"/>
<path d="M122.828 93.7578L148.391 108.517V138.034L122.828 123.275V93.7578Z" fill="#031A30" stroke="#F0F0F0" stroke-linecap="round" stroke-linejoin="round"/>
<path fill-rule="evenodd" clip-rule="evenodd" d="M175.883 124.057L150.32 109.298L175.883 94.5391L201.446 109.298L175.883 124.057Z" fill="#031A30"/>
<path d="M175.883 124.057V153.574L201.446 138.815V109.298L175.883 124.057Z" fill="#031A30"/>
<path d="M175.883 124.057L150.32 109.298L175.883 94.5391L201.446 109.298M175.883 124.057V153.574L201.446 138.815V109.298M175.883 124.057L201.446 109.298" stroke="#F0F0F0" stroke-linecap="round" stroke-linejoin="round"/>
<path d="M175.883 94.5391L150.32 109.298V138.815L175.883 153.574L201.446 138.815" stroke="#F0F0F0" stroke-linejoin="round"/>
<path d="M150.32 109.297L175.883 124.056V153.573L150.32 138.814V109.297Z" fill="#031A30" stroke="#F0F0F0" stroke-linecap="round" stroke-linejoin="round"/>
<path fill-rule="evenodd" clip-rule="evenodd" d="M120.899 124.057L95.3359 109.298L120.899 94.5391L146.462 109.298L120.899 124.057Z" fill="#031A30"/>
<path d="M120.899 124.057V153.574L146.462 138.815V109.298L120.899 124.057Z" fill="#031A30"/>
<path d="M120.899 124.057L95.3359 109.298L120.899 94.5391L146.462 109.298M120.899 124.057V153.574L146.462 138.815V109.298M120.899 124.057L146.462 109.298" stroke="#F0F0F0" stroke-linecap="round" stroke-linejoin="round"/>
<path d="M120.899 94.5391L95.3359 109.298V138.815L120.899 153.574L146.462 138.815" stroke="#F0F0F0" stroke-linejoin="round"/>
<path d="M95.3359 109.297L120.899 124.056V153.573L95.3359 138.814V109.297Z" fill="#031A30" stroke="#F0F0F0" stroke-linecap="round" stroke-linejoin="round"/>
<rect width="27.3083" height="26.8908" rx="5.74105" transform="matrix(0.866025 0.5 -0.866025 0.5 69.3516 215.633)" fill="#031A30" stroke="#F0F0F0" stroke-linecap="round" stroke-linejoin="round"/>
<path d="M68.4069 228.855C68.407 228.82 68.4235 228.788 68.4513 228.768V228.768C69.231 228.207 70.2826 228.207 71.0622 228.768V228.768C71.0903 228.788 71.1068 228.821 71.1067 228.855L71.1063 228.932C71.1062 228.973 71.0934 229.012 71.07 229.045V229.045C70.4263 229.946 69.0865 229.947 68.4429 229.046V229.046C68.4191 229.012 68.4063 228.972 68.4065 228.932L68.4069 228.855Z" fill="#031A30" stroke="#F0F0F0" stroke-linecap="round" stroke-linejoin="round"/>
<path d="M68.4062 206.855H71.1061V228.994V228.994C70.4445 229.92 69.0679 229.92 68.4062 228.994V228.994V206.855Z" fill="#031A30" stroke="#F0F0F0" stroke-linecap="round" stroke-linejoin="round"/>
<path d="M82.2219 213.823C82.2219 218.893 75.0883 222.031 70.0187 222.031C64.949 222.031 57.4375 217.921 57.4375 212.852C57.4375 207.782 64.949 175 70.0187 175C75.0883 175 82.2219 208.754 82.2219 213.823Z" fill="#031A30" stroke="#F0F0F0" stroke-linecap="round" stroke-linejoin="round"/>
<rect width="27.3083" height="26.8908" rx="5.74105" transform="matrix(0.866025 0.5 -0.866025 0.5 35.2891 196.375)" fill="#031A30" stroke="#F0F0F0" stroke-linecap="round" stroke-linejoin="round"/>
<path d="M34.5943 209.714C34.5944 209.685 34.6082 209.658 34.6314 209.641V209.641C35.2833 209.172 36.1625 209.172 36.8143 209.641V209.641C36.8378 209.658 36.8516 209.685 36.8515 209.714L36.8512 209.779C36.8511 209.813 36.8404 209.845 36.8208 209.873V209.873C36.2826 210.626 35.1625 210.627 34.6244 209.874V209.874C34.6045 209.846 34.5938 209.812 34.594 209.778L34.5943 209.714Z" fill="#031A30" stroke="#F0F0F0" stroke-linecap="round" stroke-linejoin="round"/>
<path d="M34.5938 191.32H36.851V209.83V209.83C36.2978 210.604 35.1469 210.604 34.5938 209.83V209.83V191.32Z" fill="#031A30" stroke="#F0F0F0" stroke-linecap="round" stroke-linejoin="round"/>
<circle cx="35.9402" cy="192.675" r="7.67458" fill="#031A30" stroke="#F0F0F0" stroke-linecap="round" stroke-linejoin="round"/>
<rect width="27.3083" height="26.8908" rx="5.74105" transform="matrix(0.866025 0.5 -0.866025 0.5 224.289 216.375)" fill="#031A30" stroke="#F0F0F0" stroke-linecap="round" stroke-linejoin="round"/>
<path d="M223.594 229.714C223.594 229.685 223.608 229.658 223.631 229.641V229.641C224.283 229.172 225.163 229.172 225.814 229.641V229.641C225.838 229.658 225.852 229.685 225.851 229.714L225.851 229.779C225.851 229.813 225.84 229.845 225.821 229.873V229.873C225.283 230.626 224.163 230.627 223.624 229.874V229.874C223.604 229.846 223.594 229.812 223.594 229.778L223.594 229.714Z" fill="#031A30" stroke="#F0F0F0" stroke-linecap="round" stroke-linejoin="round"/>
<path d="M223.594 211.32H225.851V229.83V229.83C225.298 230.604 224.147 230.604 223.594 229.83V229.83V211.32Z" fill="#031A30" stroke="#F0F0F0" stroke-linecap="round" stroke-linejoin="round"/>
<circle cx="224.94" cy="212.675" r="7.67458" fill="#031A30" stroke="#F0F0F0" stroke-linecap="round" stroke-linejoin="round"/>
<rect width="32.4261" height="32.4261" transform="matrix(0.866025 0.5 -0.866025 0.5 262.078 193)" fill="#031A30" stroke="#F0F0F0" stroke-linecap="round" stroke-linejoin="round"/>
<circle cx="0.863947" cy="0.863947" r="0.863947" transform="matrix(0.866025 0.5 -0.866025 0.5 262.078 222.273)" fill="#F0F0F0"/>
<circle cx="0.863947" cy="0.863947" r="0.863947" transform="matrix(0.866025 0.5 -0.866025 0.5 286.773 208.266)" fill="#F0F0F0"/>
<circle cx="0.863947" cy="0.863947" r="0.863947" transform="matrix(0.866025 0.5 -0.866025 0.5 237.477 208.203)" fill="#F0F0F0"/>
<path d="M260.324 195.808H263.88L283.735 207.271L283.735 209.264L263.869 220.734H260.334L240.655 209.372L240.655 207.163L260.324 195.808Z" fill="#031A30" stroke="#F0F0F0" stroke-linecap="round" stroke-linejoin="round"/>
<circle cx="0.863947" cy="0.863947" r="0.863947" transform="matrix(0.866025 0.5 -0.866025 0.5 262.078 193.91)" fill="#F0F0F0"/>
</svg>
