<svg width="300" height="300" viewBox="0 0 300 300" fill="none" xmlns="http://www.w3.org/2000/svg">
<path fill-rule="evenodd" clip-rule="evenodd" d="M257.996 164.641C257.996 165.808 257.225 166.976 255.681 167.867L155.085 225.947C151.999 227.729 146.994 227.729 143.908 225.947L43.3112 167.867C41.8296 167.012 41.0592 165.901 41 164.781V186.292C41.0592 187.412 41.8296 188.523 43.3112 189.378L143.908 247.458C146.994 249.24 151.999 249.24 155.085 247.458L255.681 189.378C257.225 188.487 257.996 187.319 257.996 186.152V164.641Z" fill="#031A30" stroke="#F0F0F0" stroke-linecap="round" stroke-linejoin="round"/>
<path d="M143.911 103.337C146.998 101.554 152.002 101.554 155.089 103.337L255.685 161.416C258.772 163.198 258.772 166.087 255.685 167.869L155.089 225.949C152.002 227.73 146.998 227.73 143.911 225.949L43.3149 167.869C40.2283 166.087 40.2284 163.198 43.3149 161.416L143.911 103.337Z" fill="#031A30" stroke="#F0F0F0" stroke-linecap="round" stroke-linejoin="round"/>
<path d="M145.027 116.995C147.439 115.606 151.349 115.606 153.761 116.995L232.369 162.269C234.781 163.658 234.781 165.911 232.369 167.3L153.761 212.574C151.349 213.963 147.438 213.963 145.027 212.574L66.4183 167.3C64.0064 165.911 64.0064 163.658 66.4183 162.269L145.027 116.995Z" fill="#031A30" stroke="#F0F0F0" stroke-linecap="round" stroke-linejoin="round"/>
<path d="M86.4735 104.953V170.923C86.4735 172.296 87.1598 172.811 88.3608 173.497C88.9613 173.84 89.5618 174.012 90.2481 174.012C90.9344 174.012 91.5349 173.84 92.1354 173.497L103.116 167.149L106.045 165.426V179.846C106.045 180.275 106.388 180.533 106.474 180.618C106.646 180.618 106.989 180.876 107.332 180.618L167.44 146.697C169.571 145.494 170.888 143.234 170.883 140.786L170.728 69.3395L170.728 69.3332C170.728 65.706 168.498 64.0343 166.096 62.8333C164.38 61.9754 162.309 61.3738 160.078 61.1164C155.875 60.6875 151.671 61.4595 148.583 63.1753L91.4491 96.1173C88.3608 97.9189 86.3877 101.265 86.3877 104.868L86.4735 104.953Z" fill="#031A30"/>
<path d="M106.045 162.08V114.563C106.045 111.989 107.418 109.673 109.648 108.386L167.815 74.4256C169.623 73.3701 170.733 71.4325 170.728 69.3395M106.045 162.08L106.033 162.087M106.045 162.08V165.426M106.045 165.426L106.033 165.433M106.045 165.426V179.846C106.045 180.275 106.388 180.533 106.474 180.618C106.646 180.618 106.989 180.876 107.332 180.618L167.44 146.697C169.571 145.494 170.888 143.234 170.883 140.786L170.728 69.3395M106.045 165.426L103.116 167.149L92.1354 173.497C91.5349 173.84 90.9344 174.012 90.2481 174.012C89.5618 174.012 88.9613 173.84 88.3608 173.497C87.1598 172.811 86.4735 172.296 86.4735 170.923V104.953L86.3877 104.868C86.3877 101.265 88.3608 97.9189 91.4491 96.1173L148.583 63.1753C151.671 61.4595 155.875 60.6875 160.078 61.1164C162.309 61.3738 164.38 61.9754 166.096 62.8333C168.498 64.0343 170.728 65.706 170.728 69.3332L170.728 69.3395" stroke="#F0F0F0" stroke-linejoin="round"/>
<path fill-rule="evenodd" clip-rule="evenodd" d="M86.4735 170.923V104.953L86.3877 104.868C86.3877 101.265 88.3608 97.9189 91.4491 96.1173L148.583 63.1753C151.671 61.4595 155.875 60.6875 160.078 61.1164C162.309 61.3738 164.38 61.9754 166.096 62.8333C168.498 64.0343 170.728 65.706 170.728 69.3332L170.728 69.3395C170.733 71.4325 169.623 73.3701 167.815 74.4256L109.648 108.386C107.418 109.673 106.045 111.989 106.045 114.563V162.08V165.426L103.116 167.149L92.1354 173.497C91.5349 173.84 90.9344 174.012 90.2481 174.012C89.5618 174.012 88.9613 173.84 88.3608 173.497C87.1597 172.811 86.4735 172.296 86.4735 170.923Z" fill="#031A30"/>
<path d="M106.045 162.08V114.563C106.045 111.989 107.418 109.673 109.648 108.386L167.815 74.4256C169.623 73.3701 170.733 71.4325 170.728 69.3395M106.045 162.08L106.033 162.087M106.045 162.08V165.426M106.045 165.426L106.033 165.433M106.045 165.426V179.846C106.045 180.275 106.388 180.533 106.474 180.618C106.646 180.618 106.989 180.876 107.332 180.618L167.44 146.697C169.571 145.494 170.888 143.234 170.883 140.786L170.728 69.3395M106.045 165.426L103.116 167.149L92.1354 173.497C91.5349 173.84 90.9344 174.012 90.2481 174.012C89.5618 174.012 88.9613 173.84 88.3608 173.497C87.1597 172.811 86.4735 172.296 86.4735 170.923V104.953L86.3877 104.868C86.3877 101.265 88.3608 97.9189 91.4491 96.1173L148.583 63.1753C151.671 61.4595 155.875 60.6875 160.078 61.1164C162.309 61.3738 164.38 61.9754 166.096 62.8333C168.498 64.0343 170.728 65.706 170.728 69.3332L170.728 69.3395" stroke="#F0F0F0" stroke-linejoin="round"/>
<path fill-rule="evenodd" clip-rule="evenodd" d="M106.045 179.845V165.425V162.079V114.561C106.045 111.988 107.418 109.672 109.648 108.385L167.815 74.4244C169.623 73.3689 170.733 71.4313 170.728 69.3383L170.883 140.785C170.888 143.233 169.571 145.493 167.44 146.696L107.332 180.617C107.085 180.802 106.838 180.721 106.655 180.661C106.584 180.637 106.522 180.617 106.474 180.617C106.464 180.607 106.451 180.595 106.435 180.58C106.313 180.469 106.045 180.224 106.045 179.845Z" fill="#031A30"/>
<path d="M170.728 69.332L170.728 69.3383M106.045 162.079V114.561C106.045 111.988 107.418 109.672 109.648 108.385L167.815 74.4244C169.623 73.3689 170.733 71.4313 170.728 69.3383M106.045 162.079L106.033 162.086M106.045 162.079V165.425M106.045 165.425L106.033 165.432M106.045 165.425V179.845C106.045 180.224 106.313 180.469 106.435 180.58C106.451 180.595 106.464 180.607 106.474 180.617C106.522 180.617 106.584 180.637 106.655 180.661C106.838 180.721 107.085 180.802 107.332 180.617L167.44 146.696C169.571 145.493 170.888 143.233 170.883 140.785L170.728 69.3383" stroke="#F0F0F0" stroke-linejoin="round"/>
<path d="M95.4676 139.739L86.4915 134.755V126.533V124.115C86.4915 124.115 81.999 125.808 81.999 129.242V149.347V149.948C82.2564 151.406 83.3716 152.779 85.0874 153.808L95.3818 159.727C97.2691 160.843 99.6711 161.357 102.073 161.357C104.475 161.357 106.963 160.843 108.85 159.727L136.13 143.943C138.018 142.827 139.219 140.768 139.219 138.538L139.209 125.146C139.208 124.036 138.012 123.338 137.045 123.884L108.936 139.739C105.161 141.884 99.2422 141.884 95.4676 139.739Z" fill="#031A30"/>
<path d="M81.999 149.948C82.2564 151.406 83.3716 152.779 85.0874 153.808L95.3818 159.727C97.2691 160.843 99.6711 161.357 102.073 161.357C104.475 161.357 106.963 160.843 108.85 159.727L136.13 143.943C138.018 142.827 139.219 140.768 139.219 138.538L139.209 125.146C139.208 124.036 138.012 123.338 137.045 123.884L108.936 139.739C105.161 141.884 99.2422 141.884 95.4676 139.739L86.4915 134.755V126.533V124.115C86.4915 124.115 81.999 125.808 81.999 129.242M81.999 149.948C81.999 149.776 81.999 149.519 81.999 149.347M81.999 149.948V149.347M81.999 149.347C81.999 149.347 81.999 135.722 81.999 129.242M81.999 149.347V129.242" stroke="#F0F0F0" stroke-linecap="round" stroke-linejoin="round"/>
<path fill-rule="evenodd" clip-rule="evenodd" d="M86.4915 134.755C83.1839 132.918 82.1184 130.315 81.999 129.242C81.999 125.808 86.4915 124.115 86.4915 124.115V126.533V134.755Z" fill="#031A30"/>
<path d="M86.4915 134.755L95.4676 139.739C99.2422 141.884 105.161 141.884 108.936 139.739L137.045 123.884M86.4915 134.755V126.533V124.115C86.4915 124.115 81.999 125.808 81.999 129.242M86.4915 134.755C83.1839 132.918 82.1184 130.315 81.999 129.242M81.999 149.948C82.2564 151.406 83.3716 152.779 85.0874 153.808L95.3818 159.727C97.2691 160.843 99.6711 161.357 102.073 161.357C104.475 161.357 106.963 160.843 108.85 159.727L136.13 143.943C138.018 142.827 139.219 140.768 139.219 138.538L139.209 125.146M81.999 149.948C81.999 149.776 81.999 149.519 81.999 149.347M81.999 149.948V149.347M81.999 149.347C81.999 149.347 81.999 135.722 81.999 129.242M81.999 149.347V129.242M139.209 125.146C139.208 124.036 138.012 123.338 137.045 123.884M139.209 125.146V125.146C139.208 124.036 138.012 123.338 137.045 123.884V123.884" stroke="#F0F0F0" stroke-linecap="round" stroke-linejoin="round"/>
<path d="M128.927 139.23C128.927 141.547 130.471 142.49 132.53 141.375C134.589 140.26 136.133 137.515 136.219 135.198C136.219 132.882 134.675 131.938 132.616 133.054C130.643 134.169 129.013 136.914 128.927 139.23Z" fill="#031A30" stroke="#F0F0F0" stroke-linecap="round" stroke-linejoin="round"/>
<path d="M134.473 123.953V189.923C134.473 191.296 135.16 191.811 136.361 192.497C136.961 192.84 137.562 193.012 138.248 193.012C138.934 193.012 139.535 192.84 140.135 192.497L151.116 186.149L154.045 184.426V198.846C154.045 199.275 154.388 199.533 154.474 199.618C154.646 199.618 154.989 199.876 155.332 199.618L215.44 165.697C217.571 164.494 218.888 162.234 218.883 159.786L218.728 88.3395L218.728 88.3332C218.728 84.706 216.498 83.0343 214.096 81.8333C212.38 80.9754 210.309 80.3738 208.078 80.1164C203.875 79.6875 199.671 80.4595 196.583 82.1753L139.449 115.117C136.361 116.919 134.388 120.265 134.388 123.868L134.473 123.953Z" fill="#031A30"/>
<path d="M154.045 181.08V133.563C154.045 130.989 155.418 128.673 157.648 127.386L215.815 93.4256C217.623 92.3701 218.733 90.4325 218.728 88.3395M154.045 181.08L154.033 181.087M154.045 181.08V184.426M154.045 184.426L154.033 184.433M154.045 184.426V198.846C154.045 199.275 154.388 199.533 154.474 199.618C154.646 199.618 154.989 199.876 155.332 199.618L215.44 165.697C217.571 164.494 218.888 162.234 218.883 159.786L218.728 88.3395M154.045 184.426L151.116 186.149L140.135 192.497C139.535 192.84 138.934 193.012 138.248 193.012C137.562 193.012 136.961 192.84 136.361 192.497C135.16 191.811 134.473 191.296 134.473 189.923V123.953L134.388 123.868C134.388 120.265 136.361 116.919 139.449 115.117L196.583 82.1753C199.671 80.4595 203.875 79.6875 208.078 80.1164C210.309 80.3738 212.38 80.9754 214.096 81.8333C216.498 83.0343 218.728 84.706 218.728 88.3332L218.728 88.3395" stroke="#F0F0F0" stroke-linejoin="round"/>
<path fill-rule="evenodd" clip-rule="evenodd" d="M134.473 189.923V123.953L134.388 123.868C134.388 120.265 136.361 116.919 139.449 115.117L196.583 82.1753C199.671 80.4595 203.875 79.6875 208.078 80.1164C210.309 80.3738 212.38 80.9754 214.096 81.8333C216.498 83.0343 218.728 84.706 218.728 88.3332L218.728 88.3395C218.733 90.4325 217.623 92.3701 215.815 93.4256L157.648 127.386C155.418 128.673 154.045 130.989 154.045 133.563V181.08V184.426L151.116 186.149L140.135 192.497C139.535 192.84 138.934 193.012 138.248 193.012C137.562 193.012 136.961 192.84 136.361 192.497C135.16 191.811 134.473 191.296 134.473 189.923Z" fill="#031A30"/>
<path d="M154.045 181.08V133.563C154.045 130.989 155.418 128.673 157.648 127.386L215.815 93.4256C217.623 92.3701 218.733 90.4325 218.728 88.3395M154.045 181.08L154.033 181.087M154.045 181.08V184.426M154.045 184.426L154.033 184.433M154.045 184.426V198.846C154.045 199.275 154.388 199.533 154.474 199.618C154.646 199.618 154.989 199.876 155.332 199.618L215.44 165.697C217.571 164.494 218.888 162.234 218.883 159.786L218.728 88.3395M154.045 184.426L151.116 186.149L140.135 192.497C139.535 192.84 138.934 193.012 138.248 193.012C137.562 193.012 136.961 192.84 136.361 192.497C135.16 191.811 134.473 191.296 134.473 189.923V123.953L134.388 123.868C134.388 120.265 136.361 116.919 139.449 115.117L196.583 82.1753C199.671 80.4595 203.875 79.6875 208.078 80.1164C210.309 80.3738 212.38 80.9754 214.096 81.8333C216.498 83.0343 218.728 84.706 218.728 88.3332L218.728 88.3395" stroke="#F0F0F0" stroke-linejoin="round"/>
<path fill-rule="evenodd" clip-rule="evenodd" d="M154.045 198.845V184.425V181.079V133.561C154.045 130.988 155.418 128.672 157.648 127.385L215.815 93.4244C217.623 92.3689 218.733 90.4313 218.728 88.3383L218.883 159.785C218.888 162.233 217.571 164.493 215.44 165.696L155.332 199.617C155.085 199.802 154.838 199.721 154.655 199.661C154.584 199.637 154.522 199.617 154.474 199.617C154.464 199.607 154.451 199.595 154.435 199.58C154.313 199.469 154.045 199.224 154.045 198.845Z" fill="#031A30"/>
<path d="M218.728 88.332L218.728 88.3383M154.045 181.079V133.561C154.045 130.988 155.418 128.672 157.648 127.385L215.815 93.4244C217.623 92.3689 218.733 90.4313 218.728 88.3383M154.045 181.079L154.033 181.086M154.045 181.079V184.425M154.045 184.425L154.033 184.432M154.045 184.425V198.845C154.045 199.224 154.313 199.469 154.435 199.58C154.451 199.595 154.464 199.607 154.474 199.617C154.522 199.617 154.584 199.637 154.655 199.661C154.838 199.721 155.085 199.802 155.332 199.617L215.44 165.696C217.571 164.493 218.888 162.233 218.883 159.785L218.728 88.3383" stroke="#F0F0F0" stroke-linejoin="round"/>
<path d="M143.468 158.739L134.491 153.755V145.533V143.115C134.491 143.115 129.999 144.808 129.999 148.242V168.347V168.948C130.256 170.406 131.372 171.779 133.087 172.808L143.382 178.727C145.269 179.843 147.671 180.357 150.073 180.357C152.475 180.357 154.963 179.843 156.85 178.727L184.13 162.943C186.018 161.827 187.219 159.768 187.219 157.538L187.209 144.146C187.208 143.036 186.012 142.338 185.045 142.884L156.936 158.739C153.161 160.884 147.242 160.884 143.468 158.739Z" fill="#031A30"/>
<path d="M129.999 168.948C130.256 170.406 131.372 171.779 133.087 172.808L143.382 178.727C145.269 179.843 147.671 180.357 150.073 180.357C152.475 180.357 154.963 179.843 156.85 178.727L184.13 162.943C186.018 161.827 187.219 159.768 187.219 157.538L187.209 144.146C187.208 143.036 186.012 142.338 185.045 142.884L156.936 158.739C153.161 160.884 147.242 160.884 143.468 158.739L134.491 153.755V145.533V143.115C134.491 143.115 129.999 144.808 129.999 148.242M129.999 168.948C129.999 168.776 129.999 168.519 129.999 168.347M129.999 168.948V168.347M129.999 168.347C129.999 168.347 129.999 154.722 129.999 148.242M129.999 168.347V148.242" stroke="#F0F0F0" stroke-linecap="round" stroke-linejoin="round"/>
<path fill-rule="evenodd" clip-rule="evenodd" d="M134.491 153.755C131.184 151.918 130.118 149.315 129.999 148.242C129.999 144.808 134.491 143.115 134.491 143.115V145.533V153.755Z" fill="#031A30"/>
<path d="M134.491 153.755L143.468 158.739C147.242 160.884 153.161 160.884 156.936 158.739L185.045 142.884M134.491 153.755V145.533V143.115C134.491 143.115 129.999 144.808 129.999 148.242M134.491 153.755C131.184 151.918 130.118 149.315 129.999 148.242M129.999 168.948C130.256 170.406 131.372 171.779 133.087 172.808L143.382 178.727C145.269 179.843 147.671 180.357 150.073 180.357C152.475 180.357 154.963 179.843 156.85 178.727L184.13 162.943C186.018 161.827 187.219 159.768 187.219 157.538L187.209 144.146M129.999 168.948C129.999 168.776 129.999 168.519 129.999 168.347M129.999 168.948V168.347M129.999 168.347C129.999 168.347 129.999 154.722 129.999 148.242M129.999 168.347V148.242M187.209 144.146C187.208 143.036 186.012 142.338 185.045 142.884M187.209 144.146V144.146C187.208 143.036 186.012 142.338 185.045 142.884V142.884" stroke="#F0F0F0" stroke-linecap="round" stroke-linejoin="round"/>
<path d="M176.927 158.23C176.927 160.547 178.471 161.49 180.53 160.375C182.589 159.26 184.133 156.515 184.219 154.198C184.219 151.882 182.675 150.938 180.616 152.054C178.643 153.169 177.013 155.914 176.927 158.23Z" fill="#031A30" stroke="#F0F0F0" stroke-linecap="round" stroke-linejoin="round"/>
<rect width="27.3083" height="26.8908" rx="5.74105" transform="matrix(0.866025 0.5 -0.866025 0.5 226.352 216.633)" fill="#031A30" stroke="#F0F0F0" stroke-linecap="round" stroke-linejoin="round"/>
<path d="M225.407 229.855C225.407 229.82 225.424 229.788 225.451 229.768V229.768C226.231 229.207 227.283 229.207 228.062 229.768V229.768C228.09 229.788 228.107 229.821 228.107 229.855L228.106 229.932C228.106 229.973 228.093 230.012 228.07 230.045V230.045C227.426 230.946 226.087 230.947 225.443 230.046V230.046C225.419 230.012 225.406 229.972 225.407 229.932L225.407 229.855Z" fill="#031A30" stroke="#F0F0F0" stroke-linecap="round" stroke-linejoin="round"/>
<path d="M225.406 207.855H228.106V229.994V229.994C227.444 230.92 226.068 230.92 225.406 229.994V229.994V207.855Z" fill="#031A30" stroke="#F0F0F0" stroke-linecap="round" stroke-linejoin="round"/>
<path d="M239.222 214.823C239.222 219.893 232.088 223.031 227.019 223.031C221.949 223.031 214.438 218.921 214.438 213.852C214.438 208.782 221.949 176 227.019 176C232.088 176 239.222 209.754 239.222 214.823Z" fill="#031A30" stroke="#F0F0F0" stroke-linecap="round" stroke-linejoin="round"/>
<rect width="27.3083" height="26.8908" rx="5.74105" transform="matrix(0.866025 0.5 -0.866025 0.5 262.289 194.375)" fill="#031A30" stroke="#F0F0F0" stroke-linecap="round" stroke-linejoin="round"/>
<path d="M261.594 207.714C261.594 207.685 261.608 207.658 261.631 207.641V207.641C262.283 207.172 263.163 207.172 263.814 207.641V207.641C263.838 207.658 263.852 207.685 263.851 207.714L263.851 207.779C263.851 207.813 263.84 207.845 263.821 207.873V207.873C263.283 208.626 262.163 208.627 261.624 207.874V207.874C261.604 207.846 261.594 207.812 261.594 207.778L261.594 207.714Z" fill="#031A30" stroke="#F0F0F0" stroke-linecap="round" stroke-linejoin="round"/>
<path d="M261.594 189.32H263.851V207.83V207.83C263.298 208.604 262.147 208.604 261.594 207.83V207.83V189.32Z" fill="#031A30" stroke="#F0F0F0" stroke-linecap="round" stroke-linejoin="round"/>
<circle cx="262.94" cy="190.675" r="7.67458" fill="#031A30" stroke="#F0F0F0" stroke-linecap="round" stroke-linejoin="round"/>
<rect width="32.4261" height="32.4261" transform="matrix(0.866025 0.5 -0.866025 0.5 35.0781 193)" fill="#031A30" stroke="#F0F0F0" stroke-linecap="round" stroke-linejoin="round"/>
<circle cx="0.863947" cy="0.863947" r="0.863947" transform="matrix(0.866025 0.5 -0.866025 0.5 35.0781 222.273)" fill="#F0F0F0"/>
<circle cx="0.863947" cy="0.863947" r="0.863947" transform="matrix(0.866025 0.5 -0.866025 0.5 59.7734 208.266)" fill="#F0F0F0"/>
<circle cx="0.863947" cy="0.863947" r="0.863947" transform="matrix(0.866025 0.5 -0.866025 0.5 10.4766 208.203)" fill="#F0F0F0"/>
<path d="M33.3236 195.808H36.8795L56.7348 207.271L56.7348 209.264L36.8687 220.734H33.3344L13.655 209.372L13.655 207.163L33.3236 195.808Z" fill="#031A30" stroke="#F0F0F0" stroke-linecap="round" stroke-linejoin="round"/>
<circle cx="0.863947" cy="0.863947" r="0.863947" transform="matrix(0.866025 0.5 -0.866025 0.5 35.0781 193.91)" fill="#F0F0F0"/>
<rect width="32.4261" height="32.4261" transform="matrix(0.866025 0.5 -0.866025 0.5 69.0781 212)" fill="#031A30" stroke="#F0F0F0" stroke-linecap="round" stroke-linejoin="round"/>
<circle cx="0.863947" cy="0.863947" r="0.863947" transform="matrix(0.866025 0.5 -0.866025 0.5 69.0781 241.273)" fill="#F0F0F0"/>
<circle cx="0.863947" cy="0.863947" r="0.863947" transform="matrix(0.866025 0.5 -0.866025 0.5 93.7734 227.266)" fill="#F0F0F0"/>
<circle cx="0.863947" cy="0.863947" r="0.863947" transform="matrix(0.866025 0.5 -0.866025 0.5 44.4766 227.203)" fill="#F0F0F0"/>
<path d="M67.3236 214.808H70.8795L90.7348 226.271L90.7348 228.264L70.8687 239.734H67.3344L47.655 228.372L47.655 226.163L67.3236 214.808Z" fill="#031A30" stroke="#F0F0F0" stroke-linecap="round" stroke-linejoin="round"/>
<circle cx="0.863947" cy="0.863947" r="0.863947" transform="matrix(0.866025 0.5 -0.866025 0.5 69.0781 212.91)" fill="#F0F0F0"/>
</svg>
