<svg width="300" height="300" viewBox="0 0 300 300" fill="none" xmlns="http://www.w3.org/2000/svg">
<path fill-rule="evenodd" clip-rule="evenodd" d="M257.996 164.641C257.996 165.808 257.225 166.976 255.681 167.867L155.085 225.947C151.999 227.729 146.994 227.729 143.908 225.947L43.3112 167.867C41.8296 167.012 41.0592 165.901 41 164.781V186.292C41.0592 187.412 41.8296 188.523 43.3112 189.378L143.908 247.458C146.994 249.24 151.999 249.24 155.085 247.458L255.681 189.378C257.225 188.487 257.996 187.319 257.996 186.152V164.641Z" fill="#031A30" stroke="#F0F0F0" stroke-linecap="round" stroke-linejoin="round"/>
<path d="M143.911 103.337C146.998 101.554 152.002 101.554 155.089 103.337L255.685 161.416C258.772 163.198 258.772 166.087 255.685 167.869L155.089 225.949C152.002 227.73 146.998 227.73 143.911 225.949L43.3149 167.869C40.2283 166.087 40.2284 163.198 43.3149 161.416L143.911 103.337Z" fill="#031A30" stroke="#F0F0F0" stroke-linecap="round" stroke-linejoin="round"/>
<path d="M145.027 116.995C147.439 115.606 151.349 115.606 153.761 116.995L232.369 162.269C234.781 163.658 234.781 165.911 232.369 167.3L153.761 212.574C151.349 213.963 147.438 213.963 145.027 212.574L66.4183 167.3C64.0064 165.911 64.0064 163.658 66.4183 162.269L145.027 116.995Z" fill="#031A30" stroke="#F0F0F0" stroke-linecap="round" stroke-linejoin="round"/>
<path fill-rule="evenodd" clip-rule="evenodd" d="M104.352 125.511L71 106.256L104.352 87L137.703 106.256L104.352 125.511Z" fill="#031A30"/>
<path d="M104.352 125.511V164.022L137.703 144.767V106.256L104.352 125.511Z" fill="#031A30"/>
<path d="M104.352 125.511L71 106.256L104.352 87L137.703 106.256M104.352 125.511V164.022L137.703 144.767V106.256M104.352 125.511L137.703 106.256" stroke="#F0F0F0" stroke-linecap="round" stroke-linejoin="round"/>
<path d="M104.352 87L71 106.256V144.767L104.352 164.022L137.703 144.767" stroke="#F0F0F0" stroke-linejoin="round"/>
<path d="M71 106.254L104.352 125.509V164.021L71 144.765V106.254Z" fill="#031A30" stroke="#F0F0F0" stroke-linecap="round" stroke-linejoin="round"/>
<path fill-rule="evenodd" clip-rule="evenodd" d="M133 145.785C133 145.803 133 145.821 133 145.838V145.785ZM159.019 156.026V160.048C160.627 159.12 161.443 157.896 161.455 156.673V152.65C161.443 153.874 160.627 155.097 159.019 156.026Z" fill="#031A30"/>
<path d="M159.019 156.026C155.803 157.883 150.542 157.909 147.326 156.053L135.389 149.161C133.804 148.246 133.012 147.044 133 145.838M159.019 156.026C160.627 155.097 161.443 153.874 161.455 152.65V156.673C161.443 157.896 160.627 159.12 159.019 160.048M159.019 156.026V160.048M159.019 160.048C155.803 161.905 150.542 161.932 147.326 160.075L135.389 153.183C133.781 152.255 132.988 151.031 133 149.808V145.838M133 145.838C133 145.821 133 145.803 133 145.785V145.838Z" stroke="#F0F0F0" stroke-linecap="round" stroke-linejoin="round"/>
<path fill-rule="evenodd" clip-rule="evenodd" d="M159.066 149.271C160.674 150.2 161.466 151.423 161.454 152.647V156.616C161.443 155.41 160.651 154.209 159.066 153.294L147.128 146.402C143.912 144.545 138.651 144.572 135.435 146.429V142.406C138.651 140.549 143.912 140.522 147.128 142.379L159.066 149.271ZM161.454 156.669V156.616C161.455 156.634 161.455 156.651 161.454 156.669Z" fill="#031A30"/>
<path d="M135.435 142.406C138.651 140.549 143.912 140.522 147.128 142.379L159.066 149.271C160.674 150.2 161.466 151.423 161.454 152.647V156.616M135.435 142.406C133.827 143.335 133.012 144.558 133 145.782V149.804C133.012 148.581 133.827 147.357 135.435 146.429M135.435 142.406V146.429M135.435 146.429C138.651 144.572 143.912 144.545 147.128 146.402L159.066 153.294C160.651 154.209 161.443 155.41 161.454 156.616M161.454 156.616V156.669C161.455 156.651 161.455 156.634 161.454 156.616Z" stroke="#F0F0F0" stroke-linecap="round" stroke-linejoin="round"/>
<path fill-rule="evenodd" clip-rule="evenodd" d="M137.625 146.305C137.625 146.316 137.625 146.327 137.625 146.338V146.305ZM155.496 154L155.526 158.005C156.419 157.49 156.872 156.81 156.88 156.13V152.108C156.872 152.788 156.419 153.468 155.526 153.983C155.516 153.989 155.506 153.994 155.496 154Z" fill="#031A30"/>
<path d="M155.526 158.005C156.419 157.49 156.872 156.81 156.88 156.13V152.108C156.872 152.788 156.419 153.468 155.526 153.983C155.516 153.989 155.506 153.994 155.496 154M155.526 158.005C153.74 159.036 150.816 159.053 149.031 158.023L138.949 152.202C138.057 151.687 137.618 151.007 137.625 150.327V146.338M155.526 158.005L155.496 154M155.496 154C153.708 155.014 150.806 155.025 149.031 154L138.949 148.18C138.071 147.673 137.632 147.007 137.625 146.338M137.625 146.338C137.625 146.327 137.625 146.316 137.625 146.305V146.338Z" stroke="#F0F0F0" stroke-linecap="round" stroke-linejoin="round"/>
<path fill-rule="evenodd" clip-rule="evenodd" d="M155.555 150.23C156.448 150.745 156.887 151.425 156.88 152.105V156.094C156.872 155.425 156.433 154.759 155.555 154.252L145.474 148.432C143.689 147.401 140.764 147.418 138.979 148.449V144.426C140.764 143.395 143.689 143.378 145.474 144.409L155.555 150.23ZM156.88 156.127V156.094C156.88 156.105 156.88 156.116 156.88 156.127Z" fill="#031A30"/>
<path d="M138.979 144.426C140.764 143.395 143.689 143.378 145.474 144.409L155.555 150.23C156.448 150.745 156.887 151.425 156.88 152.105V156.094M138.979 144.426C138.086 144.942 137.632 145.621 137.625 146.301V150.324C137.632 149.644 138.086 148.964 138.979 148.449M138.979 144.426V148.449M138.979 148.449C140.764 147.418 143.689 147.401 145.474 148.432L155.555 154.252C156.433 154.759 156.872 155.425 156.88 156.094M156.88 156.094V156.127C156.88 156.116 156.88 156.105 156.88 156.094Z" stroke="#F0F0F0" stroke-linecap="round" stroke-linejoin="round"/>
<path fill-rule="evenodd" clip-rule="evenodd" d="M135.435 142.406C138.652 140.549 143.913 140.522 147.128 142.379L159.066 149.271C162.282 151.128 162.235 154.165 159.019 156.022L155.518 153.981C157.304 152.95 157.333 151.262 155.548 150.231L145.467 144.41C143.681 143.38 140.757 143.397 138.971 144.427L135.435 142.406Z" fill="#031A30"/>
<path d="M135.435 142.406C138.652 140.549 143.913 140.522 147.128 142.379L159.066 149.271C162.282 151.128 162.235 154.165 159.019 156.022M135.435 142.406C132.219 144.263 132.173 147.3 135.389 149.157L147.326 156.049C150.542 157.906 155.803 157.879 159.019 156.022M135.435 142.406L138.971 144.427M159.019 156.022L155.518 153.981M138.971 144.427C140.757 143.397 143.681 143.38 145.467 144.41L155.548 150.231C157.333 151.262 157.304 152.95 155.518 153.981M138.971 144.427C137.186 145.458 137.156 147.147 138.942 148.178L149.023 153.998C150.808 155.029 153.733 155.012 155.518 153.981" stroke="#F0F0F0" stroke-linecap="round" stroke-linejoin="round"/>
<path fill-rule="evenodd" clip-rule="evenodd" d="M123.061 133.519C121.932 134.108 121.227 135.456 121.227 137.387C121.227 141.101 123.834 145.67 127.05 147.527L138.987 154.419C140.531 155.31 141.934 155.415 142.976 154.871L146.46 152.86C145.418 153.403 144.015 153.299 142.471 152.408L130.533 145.516C127.317 143.659 124.71 139.089 124.71 135.376C124.71 133.445 125.415 132.096 126.544 131.508L123.061 133.519Z" fill="#031A30" stroke="#F0F0F0" stroke-linecap="round" stroke-linejoin="round"/>
<path fill-rule="evenodd" clip-rule="evenodd" d="M142.978 154.872C144.107 154.283 144.812 152.935 144.812 151.003C144.812 147.29 142.205 142.72 138.989 140.864L127.052 133.971C125.508 133.08 124.105 132.976 123.062 133.519L126.546 131.508C127.588 130.965 128.992 131.069 130.535 131.96L142.473 138.852C145.689 140.709 148.296 145.279 148.296 148.992C148.296 150.923 147.591 152.272 146.462 152.86L142.978 154.872Z" fill="#031A30" stroke="#F0F0F0" stroke-linecap="round" stroke-linejoin="round"/>
<path fill-rule="evenodd" clip-rule="evenodd" d="M125.768 137.246C125.141 137.573 124.75 138.323 124.75 139.395C124.75 141.457 126.198 143.998 127.983 145.029L138.064 150.849C138.921 151.344 139.7 151.401 140.279 151.098L143.762 149.087C143.184 149.39 142.405 149.333 141.548 148.838L131.467 143.018C129.681 141.987 128.234 139.446 128.234 137.384C128.234 136.312 128.625 135.562 129.252 135.234L125.768 137.246Z" fill="#031A30" stroke="#F0F0F0" stroke-linecap="round" stroke-linejoin="round"/>
<path fill-rule="evenodd" clip-rule="evenodd" d="M127.05 133.976C123.834 132.119 121.227 133.678 121.227 137.392C121.227 141.105 123.834 145.675 127.05 147.532L138.987 154.424C142.203 156.28 144.81 154.721 144.81 151.008C144.81 147.294 142.203 142.725 138.987 140.868L127.05 133.976ZM127.978 137.503C126.193 136.472 124.745 137.341 124.745 139.403C124.745 141.465 126.193 144.006 127.978 145.037L138.059 150.857C139.844 151.888 141.292 151.018 141.292 148.956C141.292 146.895 139.844 144.354 138.059 143.323L127.978 137.503Z" fill="#031A30" stroke="#F0F0F0" stroke-linecap="round" stroke-linejoin="round"/>
<path fill-rule="evenodd" clip-rule="evenodd" d="M148.678 148.894C147.549 149.483 146.844 150.831 146.844 152.762C146.844 156.476 149.451 161.045 152.667 162.902L164.605 169.794C166.148 170.685 167.551 170.79 168.594 170.246L172.077 168.235C171.035 168.778 169.632 168.674 168.088 167.783L156.15 160.891C152.935 159.034 150.327 154.464 150.327 150.751C150.327 148.82 151.032 147.471 152.161 146.883L148.678 148.894Z" fill="#031A30" stroke="#F0F0F0" stroke-linecap="round" stroke-linejoin="round"/>
<path fill-rule="evenodd" clip-rule="evenodd" d="M168.596 170.247C169.725 169.658 170.43 168.31 170.43 166.378C170.43 162.665 167.822 158.095 164.607 156.239L152.669 149.346C151.125 148.455 149.722 148.351 148.68 148.894L152.163 146.883C153.205 146.34 154.609 146.444 156.152 147.335L168.09 154.227C171.306 156.084 173.913 160.654 173.913 164.367C173.913 166.298 173.208 167.647 172.079 168.235L168.596 170.247Z" fill="#031A30" stroke="#F0F0F0" stroke-linecap="round" stroke-linejoin="round"/>
<path fill-rule="evenodd" clip-rule="evenodd" d="M151.385 152.621C150.759 152.948 150.367 153.698 150.367 154.77C150.367 156.832 151.815 159.373 153.6 160.404L163.681 166.224C164.538 166.719 165.317 166.776 165.896 166.473L169.38 164.462C168.801 164.765 168.022 164.708 167.165 164.213L157.084 158.393C155.298 157.362 153.851 154.821 153.851 152.759C153.851 151.687 154.242 150.937 154.869 150.609L151.385 152.621Z" fill="#031A30" stroke="#F0F0F0" stroke-linecap="round" stroke-linejoin="round"/>
<path fill-rule="evenodd" clip-rule="evenodd" d="M165.886 166.479C166.512 166.151 166.904 165.402 166.904 164.329C166.904 162.268 165.456 159.727 163.671 158.696L153.59 152.876C152.733 152.381 151.954 152.324 151.375 152.626L154.859 150.615C155.437 150.313 156.216 150.37 157.073 150.864L167.154 156.685C168.94 157.715 170.387 160.257 170.387 162.318C170.387 163.39 169.996 164.14 169.369 164.468L165.886 166.479Z" fill="#031A30" stroke="#F0F0F0" stroke-linecap="round" stroke-linejoin="round"/>
<path fill-rule="evenodd" clip-rule="evenodd" d="M152.667 149.347C149.451 147.49 146.844 149.049 146.844 152.763C146.844 156.476 149.451 161.046 152.667 162.903L164.605 169.795C167.82 171.652 170.428 170.092 170.428 166.379C170.428 162.665 167.82 158.096 164.605 156.239L152.667 149.347ZM153.595 152.874C151.81 151.843 150.362 152.712 150.362 154.774C150.362 156.836 151.81 159.377 153.595 160.408L163.676 166.228C165.462 167.259 166.909 166.389 166.909 164.327C166.909 162.266 165.462 159.725 163.676 158.694L153.595 152.874Z" fill="#031A30" stroke="#F0F0F0" stroke-linecap="round" stroke-linejoin="round"/>
<path fill-rule="evenodd" clip-rule="evenodd" d="M133 145.785C133 145.803 133 145.821 133 145.838V145.785ZM159.019 156.026C155.803 157.883 150.542 157.909 147.326 156.053L135.389 149.161C133.804 148.246 133.012 147.044 133 145.838V149.808C132.988 151.031 133.781 152.255 135.389 153.183L147.326 160.075C150.542 161.932 155.803 161.905 159.019 160.048V156.026Z" fill="#031A30"/>
<path d="M159.019 156.026C155.803 157.883 150.542 157.909 147.326 156.053L135.389 149.161C133.804 148.246 133.012 147.044 133 145.838M159.019 156.026C160.627 155.097 161.443 153.874 161.455 152.65V156.673C161.443 157.896 160.627 159.12 159.019 160.048M159.019 156.026V160.048M159.019 160.048C155.803 161.905 150.542 161.932 147.326 160.075L135.389 153.183C133.781 152.255 132.988 151.031 133 149.808V145.838M133 145.838C133 145.821 133 145.803 133 145.785V145.838Z" stroke="#F0F0F0" stroke-linecap="round" stroke-linejoin="round"/>
<path fill-rule="evenodd" clip-rule="evenodd" d="M159.019 156.022L155.518 153.981C153.733 155.012 150.808 155.029 149.023 153.998L138.942 148.178C137.156 147.147 137.186 145.458 138.971 144.428L135.435 142.406C132.219 144.263 132.173 147.3 135.389 149.157L147.326 156.049C150.542 157.906 155.803 157.879 159.019 156.022Z" fill="#031A30" stroke="#F0F0F0" stroke-linecap="round" stroke-linejoin="round"/>
<path fill-rule="evenodd" clip-rule="evenodd" d="M184.352 170.511L151 151.256L184.352 132L217.703 151.256L184.352 170.511Z" fill="#031A30"/>
<path d="M184.352 170.511V209.022L217.703 189.767V151.256L184.352 170.511Z" fill="#031A30"/>
<path d="M184.352 170.511L151 151.256L184.352 132L217.703 151.256M184.352 170.511V209.022L217.703 189.767V151.256M184.352 170.511L217.703 151.256" stroke="#F0F0F0" stroke-linecap="round" stroke-linejoin="round"/>
<path d="M184.352 132L151 151.256V189.767L184.352 209.022L217.703 189.767" stroke="#F0F0F0" stroke-linejoin="round"/>
<path d="M151 151.254L184.352 170.509V209.021L151 189.765V151.254Z" fill="#031A30" stroke="#F0F0F0" stroke-linecap="round" stroke-linejoin="round"/>
<rect width="27.3083" height="26.8908" rx="5.74105" transform="matrix(0.866025 0.5 -0.866025 0.5 69.3516 215.633)" fill="#031A30" stroke="#F0F0F0" stroke-linecap="round" stroke-linejoin="round"/>
<path d="M68.4069 228.855C68.407 228.82 68.4235 228.788 68.4513 228.768V228.768C69.231 228.207 70.2826 228.207 71.0622 228.768V228.768C71.0903 228.788 71.1068 228.821 71.1067 228.855L71.1063 228.932C71.1062 228.973 71.0934 229.012 71.07 229.045V229.045C70.4263 229.946 69.0865 229.947 68.4429 229.046V229.046C68.4191 229.012 68.4063 228.972 68.4065 228.932L68.4069 228.855Z" fill="#031A30" stroke="#F0F0F0" stroke-linecap="round" stroke-linejoin="round"/>
<path d="M68.4062 206.855H71.1061V228.994V228.994C70.4445 229.92 69.0679 229.92 68.4062 228.994V228.994V206.855Z" fill="#031A30" stroke="#F0F0F0" stroke-linecap="round" stroke-linejoin="round"/>
<path d="M82.2219 213.823C82.2219 218.893 75.0883 222.031 70.0187 222.031C64.949 222.031 57.4375 217.921 57.4375 212.852C57.4375 207.782 64.949 175 70.0187 175C75.0883 175 82.2219 208.754 82.2219 213.823Z" fill="#031A30" stroke="#F0F0F0" stroke-linecap="round" stroke-linejoin="round"/>
<rect width="27.3083" height="26.8908" rx="5.74105" transform="matrix(0.866025 0.5 -0.866025 0.5 35.2891 196.375)" fill="#031A30" stroke="#F0F0F0" stroke-linecap="round" stroke-linejoin="round"/>
<path d="M34.5943 209.714C34.5944 209.685 34.6082 209.658 34.6314 209.641V209.641C35.2833 209.172 36.1625 209.172 36.8143 209.641V209.641C36.8378 209.658 36.8516 209.685 36.8515 209.714L36.8512 209.779C36.8511 209.813 36.8404 209.845 36.8208 209.873V209.873C36.2826 210.626 35.1625 210.627 34.6244 209.874V209.874C34.6045 209.846 34.5938 209.812 34.594 209.778L34.5943 209.714Z" fill="#031A30" stroke="#F0F0F0" stroke-linecap="round" stroke-linejoin="round"/>
<path d="M34.5938 191.32H36.851V209.83V209.83C36.2978 210.604 35.1469 210.604 34.5938 209.83V209.83V191.32Z" fill="#031A30" stroke="#F0F0F0" stroke-linecap="round" stroke-linejoin="round"/>
<circle cx="35.9402" cy="192.675" r="7.67458" fill="#031A30" stroke="#F0F0F0" stroke-linecap="round" stroke-linejoin="round"/>
<rect width="27.3083" height="26.8908" rx="5.74105" transform="matrix(0.866025 0.5 -0.866025 0.5 224.352 215.633)" fill="#031A30" stroke="#F0F0F0" stroke-linecap="round" stroke-linejoin="round"/>
<path d="M223.407 228.855C223.407 228.82 223.424 228.788 223.451 228.768V228.768C224.231 228.207 225.283 228.207 226.062 228.768V228.768C226.09 228.788 226.107 228.821 226.107 228.855L226.106 228.932C226.106 228.973 226.093 229.012 226.07 229.045V229.045C225.426 229.946 224.087 229.947 223.443 229.046V229.046C223.419 229.012 223.406 228.972 223.407 228.932L223.407 228.855Z" fill="#031A30" stroke="#F0F0F0" stroke-linecap="round" stroke-linejoin="round"/>
<path d="M223.406 206.855H226.106V228.994V228.994C225.444 229.92 224.068 229.92 223.406 228.994V228.994V206.855Z" fill="#031A30" stroke="#F0F0F0" stroke-linecap="round" stroke-linejoin="round"/>
<path d="M237.222 213.823C237.222 218.893 230.088 222.031 225.019 222.031C219.949 222.031 212.438 217.921 212.438 212.852C212.438 207.782 219.949 175 225.019 175C230.088 175 237.222 208.754 237.222 213.823Z" fill="#031A30" stroke="#F0F0F0" stroke-linecap="round" stroke-linejoin="round"/>
<rect width="27.3083" height="26.8908" rx="5.74105" transform="matrix(0.866025 0.5 -0.866025 0.5 260.289 193.375)" fill="#031A30" stroke="#F0F0F0" stroke-linecap="round" stroke-linejoin="round"/>
<path d="M259.594 206.714C259.594 206.685 259.608 206.658 259.631 206.641V206.641C260.283 206.172 261.163 206.172 261.814 206.641V206.641C261.838 206.658 261.852 206.685 261.851 206.714L261.851 206.779C261.851 206.813 261.84 206.845 261.821 206.873V206.873C261.283 207.626 260.163 207.627 259.624 206.874V206.874C259.604 206.846 259.594 206.812 259.594 206.778L259.594 206.714Z" fill="#031A30" stroke="#F0F0F0" stroke-linecap="round" stroke-linejoin="round"/>
<path d="M259.594 188.32H261.851V206.83V206.83C261.298 207.604 260.147 207.604 259.594 206.83V206.83V188.32Z" fill="#031A30" stroke="#F0F0F0" stroke-linecap="round" stroke-linejoin="round"/>
<circle cx="260.94" cy="189.675" r="7.67458" fill="#031A30" stroke="#F0F0F0" stroke-linecap="round" stroke-linejoin="round"/>
</svg>
