<svg width="300" height="300" viewBox="0 0 300 300" fill="none" xmlns="http://www.w3.org/2000/svg">
<path fill-rule="evenodd" clip-rule="evenodd" d="M257.996 164.641C257.996 165.808 257.225 166.976 255.681 167.867L155.085 225.947C151.999 227.729 146.994 227.729 143.908 225.947L43.3112 167.867C41.8296 167.012 41.0592 165.901 41 164.781V186.292C41.0592 187.412 41.8296 188.523 43.3112 189.378L143.908 247.458C146.994 249.24 151.999 249.24 155.085 247.458L255.681 189.378C257.225 188.487 257.996 187.319 257.996 186.152V164.641Z" fill="#031A30" stroke="#F0F0F0" stroke-linecap="round" stroke-linejoin="round"/>
<path d="M143.911 103.337C146.998 101.554 152.002 101.554 155.089 103.337L255.685 161.416C258.772 163.198 258.772 166.087 255.685 167.869L155.089 225.949C152.002 227.73 146.998 227.73 143.911 225.949L43.3149 167.869C40.2283 166.087 40.2284 163.198 43.3149 161.416L143.911 103.337Z" fill="#031A30" stroke="#F0F0F0" stroke-linecap="round" stroke-linejoin="round"/>
<path d="M145.027 116.995C147.439 115.606 151.349 115.606 153.761 116.995L232.369 162.269C234.781 163.658 234.781 165.911 232.369 167.3L153.761 212.574C151.349 213.963 147.438 213.963 145.027 212.574L66.4183 167.3C64.0064 165.911 64.0064 163.658 66.4183 162.269L145.027 116.995Z" fill="#031A30" stroke="#F0F0F0" stroke-linecap="round" stroke-linejoin="round"/>
<path fill-rule="evenodd" clip-rule="evenodd" d="M146.883 81.309C148.055 80.6321 149.675 80.7299 151.464 81.7628L197.344 108.251C200.922 110.317 203.822 115.341 203.822 119.473V171.735C203.822 173.801 203.097 175.252 201.925 175.929L212.106 170.051C213.278 169.374 214.003 167.923 214.003 165.857V113.595C214.003 109.463 211.102 104.439 207.524 102.373L161.645 75.8848C159.856 74.8519 158.236 74.7542 157.064 75.431L146.883 81.309Z" fill="#031A30" stroke="#F0F0F0" stroke-linecap="round" stroke-linejoin="round"/>
<path d="M145 85.5003C145 81.3687 147.901 79.694 151.479 81.7598L197.358 108.248C200.936 110.314 203.837 115.338 203.837 119.47V171.732C203.837 175.863 200.936 177.538 197.358 175.472L151.479 148.984C147.901 146.918 145 141.894 145 137.762V85.5003Z" fill="#031A30" stroke="#F0F0F0" stroke-linecap="round" stroke-linejoin="round"/>
<path d="M150.883 92.5163C150.883 91.1339 151.853 90.5736 153.05 91.2648L162.34 96.6284C163.538 97.3196 164.508 99.0006 164.508 100.383C164.508 101.765 163.538 102.326 162.34 101.634L153.05 96.2708C151.853 95.5796 150.883 93.8987 150.883 92.5163ZM158.304 118.625C158.304 117.44 159.136 116.96 160.162 117.552L168.214 122.201C169.24 122.793 170.072 124.234 170.072 125.419C170.072 126.604 169.24 127.084 168.214 126.492L160.162 121.843C159.136 121.251 158.304 119.81 158.304 118.625ZM158.304 103.952C158.304 102.57 159.274 102.01 160.471 102.701L164.186 104.845C165.383 105.536 166.353 107.217 166.353 108.599C166.353 109.981 165.383 110.541 164.186 109.85L160.471 107.705C159.274 107.014 158.304 105.334 158.304 103.952ZM168.843 110.037C168.843 108.655 169.814 108.095 171.011 108.786L179.682 113.792C180.879 114.483 181.849 116.164 181.849 117.546C181.849 118.929 180.879 119.489 179.682 118.798L171.011 113.792C169.814 113.101 168.843 111.42 168.843 110.037ZM166.366 130.431C166.366 129.246 167.198 128.766 168.224 129.358L178.753 135.437C179.779 136.029 180.611 137.47 180.611 138.655C180.611 139.84 179.779 140.32 178.753 139.728L168.224 133.649C167.198 133.057 166.366 131.616 166.366 130.431ZM183.088 140.085C183.088 138.9 183.92 138.42 184.945 139.012L186.803 140.085C187.829 140.677 188.66 142.117 188.66 143.302C188.66 144.486 187.829 144.967 186.803 144.374L184.945 143.302C183.92 142.71 183.088 141.269 183.088 140.085ZM158.304 111.473C158.304 110.288 159.136 109.808 160.162 110.401L162.019 111.473C163.045 112.065 163.877 113.506 163.877 114.69C163.877 115.875 163.045 116.355 162.019 115.763L160.162 114.69C159.136 114.098 158.304 112.657 158.304 111.473ZM166.366 116.128C166.366 114.943 167.198 114.463 168.224 115.055L189.282 127.213C190.308 127.805 191.14 129.246 191.14 130.431C191.14 131.616 190.308 132.096 189.282 131.504L168.224 119.346C167.198 118.754 166.366 117.313 166.366 116.128ZM158.304 133.285C158.304 131.903 159.275 131.343 160.472 132.034L169.143 137.04C170.34 137.731 171.31 139.412 171.31 140.795C171.31 142.177 170.34 142.737 169.143 142.046L160.472 137.04C159.275 136.349 158.304 134.668 158.304 133.285ZM173.168 141.867C173.168 140.485 174.139 139.924 175.336 140.616L196.393 152.773C197.59 153.464 198.561 155.145 198.561 156.528C198.561 157.91 197.59 158.47 196.393 157.779L175.336 145.622C174.139 144.93 173.168 143.249 173.168 141.867ZM158.304 140.412C158.304 139.03 159.274 138.47 160.471 139.161L166.044 142.378C167.24 143.069 168.211 144.749 168.211 146.131C168.211 147.513 167.24 148.073 166.044 147.382L160.471 144.165C159.274 143.474 158.304 141.794 158.304 140.412ZM170.082 147.212C170.082 145.83 171.052 145.27 172.249 145.961L173.487 146.675C174.684 147.366 175.654 149.047 175.654 150.429C175.654 151.811 174.684 152.371 173.487 151.68L172.249 150.965C171.052 150.274 170.082 148.594 170.082 147.212Z" fill="#031A30" stroke="#F0F0F0" stroke-linecap="round" stroke-linejoin="round"/>
<path d="M106.941 110.476L97.0938 116.162L122 132.348L123.89 149.848V157.4L133.737 151.715C135.126 151.008 135.993 149.368 135.993 146.993V133.097C135.993 128.53 132.787 122.977 128.831 120.693L125.61 118.833L112.005 110.978C110.027 109.836 108.237 109.728 106.941 110.476Z" fill="#031A30" stroke="#F0F0F0" stroke-linecap="round" stroke-linejoin="round"/>
<path fill-rule="evenodd" clip-rule="evenodd" d="M118.988 156.804C122.943 159.087 126.15 157.236 126.15 152.669V138.773C126.15 134.206 122.943 128.652 118.988 126.369L115.766 124.509L102.161 116.654C98.2063 114.37 95 116.222 95 120.789V134.685C95 139.252 98.2063 144.805 102.161 147.089L118.988 156.804ZM120.39 140.511L116.496 133.787V133.797C115.742 132.485 114.509 131.782 113.747 132.209C112.984 132.636 112.984 134.053 113.747 135.37L116.261 139.712L113.747 141.15C112.984 141.577 112.992 142.999 113.747 144.311C114.501 145.623 115.734 146.334 116.496 145.898L120.39 143.671C121.153 143.244 121.153 141.827 120.39 140.511ZM107.411 131.712L104.896 133.15L107.411 137.492C108.174 138.809 108.174 140.226 107.411 140.653C106.649 141.08 105.416 140.377 104.661 139.065L100.759 132.347C99.9969 131.03 99.9969 129.613 100.759 129.186L104.653 126.959C105.416 126.523 106.649 127.235 107.403 128.547C108.157 129.859 108.166 131.28 107.403 131.707L107.411 131.712Z" fill="#031A30"/>
<path d="M120.39 140.511L116.496 133.787V133.797C115.742 132.485 114.509 131.782 113.747 132.209C112.984 132.636 112.984 134.053 113.747 135.37L116.261 139.712L113.747 141.15C112.984 141.577 112.992 142.999 113.747 144.311C114.501 145.623 115.734 146.334 116.496 145.898L120.39 143.671C121.153 143.244 121.153 141.827 120.39 140.511Z" fill="#031A30"/>
<path d="M104.896 133.15L107.411 131.712L107.403 131.707C108.166 131.28 108.157 129.859 107.403 128.547C106.649 127.235 105.416 126.523 104.653 126.959L100.759 129.186C99.9969 129.613 99.9969 131.03 100.759 132.347L104.661 139.065C105.416 140.377 106.649 141.08 107.411 140.653C108.174 140.226 108.174 138.809 107.411 137.492L104.896 133.15Z" fill="#031A30"/>
<path fill-rule="evenodd" clip-rule="evenodd" d="M118.988 156.804C122.943 159.087 126.15 157.236 126.15 152.669V138.773C126.15 134.206 122.943 128.652 118.988 126.369L115.766 124.509L102.161 116.654C98.2063 114.37 95 116.222 95 120.789V134.685C95 139.252 98.2063 144.805 102.161 147.089L118.988 156.804ZM120.39 140.511L116.496 133.787V133.797C115.742 132.485 114.509 131.782 113.747 132.209C112.984 132.636 112.984 134.053 113.747 135.37L116.261 139.712L113.747 141.15C112.984 141.577 112.992 142.999 113.747 144.311C114.501 145.623 115.734 146.334 116.496 145.898L120.39 143.671C121.153 143.244 121.153 141.827 120.39 140.511ZM107.411 131.712L104.896 133.15L107.411 137.492C108.174 138.809 108.174 140.226 107.411 140.653C106.649 141.08 105.416 140.377 104.661 139.065L100.759 132.347C99.9969 131.03 99.9969 129.613 100.759 129.186L104.653 126.959C105.416 126.523 106.649 127.235 107.403 128.547C108.157 129.859 108.166 131.28 107.403 131.707L107.411 131.712Z" stroke="#F0F0F0" stroke-linecap="round" stroke-linejoin="round"/>
<path d="M120.39 140.511L116.496 133.787V133.797C115.742 132.485 114.509 131.782 113.747 132.209C112.984 132.636 112.984 134.053 113.747 135.37L116.261 139.712L113.747 141.15C112.984 141.577 112.992 142.999 113.747 144.311C114.501 145.623 115.734 146.334 116.496 145.898L120.39 143.671C121.153 143.244 121.153 141.827 120.39 140.511Z" stroke="#F0F0F0" stroke-linecap="round" stroke-linejoin="round"/>
<path d="M104.896 133.15L107.411 131.712L107.403 131.707C108.166 131.28 108.157 129.859 107.403 128.547C106.649 127.235 105.416 126.523 104.653 126.959L100.759 129.186C99.9969 129.613 99.9969 131.03 100.759 132.347L104.661 139.065C105.416 140.377 106.649 141.08 107.411 140.653C108.174 140.226 108.174 138.809 107.411 137.492L104.896 133.15Z" stroke="#F0F0F0" stroke-linecap="round" stroke-linejoin="round"/>
<path fill-rule="evenodd" clip-rule="evenodd" d="M145.243 185.715C145.041 185.832 144.761 185.815 144.452 185.637L142.884 184.732C142.266 184.375 141.764 183.506 141.764 182.792V163.315C141.764 162.241 140.696 161.019 139.96 161.25L130.804 164.125C130.068 164.356 129 163.134 129 162.06L129 160.885C129 160.548 129.114 160.292 129.314 160.168L131.554 158.875C131.353 158.999 131.239 159.255 131.239 159.592V160.768C131.239 161.841 132.307 163.064 133.043 162.832L142.2 159.957C142.936 159.726 144.004 160.949 144.004 162.022V181.499C144.004 182.213 144.505 183.082 145.123 183.439L146.691 184.344C147 184.522 147.28 184.539 147.483 184.422L145.243 185.715Z" fill="#031A30" stroke="#F0F0F0" stroke-linecap="round" stroke-linejoin="round"/>
<path fill-rule="evenodd" clip-rule="evenodd" d="M129.32 160.167C129.343 160.153 129.366 160.141 129.39 160.131L142.939 154.339C143.36 154.159 143.987 154.521 144.409 155.188L157.957 176.623C158.201 177.01 158.341 177.447 158.341 177.821V178.997C158.341 179.362 158.218 179.601 158.026 179.716L160.265 178.423C160.457 178.308 160.581 178.069 160.581 177.704V176.528C160.581 176.154 160.441 175.717 160.196 175.331L146.648 153.895C146.227 153.228 145.599 152.866 145.178 153.046L131.63 158.838C131.605 158.848 131.582 158.86 131.56 158.874L129.32 160.167Z" fill="#031A30" stroke="#F0F0F0" stroke-linecap="round" stroke-linejoin="round"/>
<path fill-rule="evenodd" clip-rule="evenodd" d="M158.013 179.714C157.641 179.937 157.011 179.69 156.525 178.976L147.368 165.528C146.897 164.836 146.29 164.583 145.914 164.771L148.153 163.478C148.529 163.29 149.136 163.543 149.607 164.235L158.764 177.683C159.25 178.397 159.88 178.644 160.253 178.421L158.013 179.714Z" fill="#031A30" stroke="#F0F0F0" stroke-linecap="round" stroke-linejoin="round"/>
<path fill-rule="evenodd" clip-rule="evenodd" d="M145.928 164.777C145.716 164.883 145.578 165.129 145.578 165.516V184.993C145.578 185.35 145.453 185.601 145.25 185.718L147.489 184.425C147.692 184.308 147.817 184.057 147.817 183.7V164.223C147.817 163.836 147.956 163.59 148.167 163.484L145.928 164.777Z" fill="#031A30" stroke="#F0F0F0" stroke-linecap="round" stroke-linejoin="round"/>
<path fill-rule="evenodd" clip-rule="evenodd" d="M158.031 205.097C157.827 205.229 157.537 205.219 157.216 205.033L130.12 189.389C129.501 189.032 129 188.164 129 187.45L129 170.901C129 170.544 129.125 170.293 129.328 170.176L131.567 168.883C131.365 169 131.239 169.251 131.239 169.608V186.157C131.239 186.871 131.741 187.739 132.359 188.096L159.455 203.74C159.777 203.926 160.067 203.937 160.271 203.804L158.031 205.097Z" fill="#031A30" stroke="#F0F0F0" stroke-linecap="round" stroke-linejoin="round"/>
<path fill-rule="evenodd" clip-rule="evenodd" d="M129.32 170.176C129.523 170.059 129.803 170.076 130.112 170.254L131.68 171.159C132.298 171.516 132.799 172.385 132.799 173.099V185.252C132.799 185.966 133.301 186.834 133.919 187.191L153.401 198.439C153.71 198.618 153.99 198.635 154.193 198.518L156.432 197.225C156.23 197.342 155.95 197.325 155.641 197.147L136.158 185.898C135.54 185.541 135.039 184.673 135.039 183.959V171.806C135.039 171.092 134.537 170.224 133.919 169.867L132.351 168.962C132.042 168.783 131.762 168.766 131.56 168.883L129.32 170.176Z" fill="#031A30" stroke="#F0F0F0" stroke-linecap="round" stroke-linejoin="round"/>
<path fill-rule="evenodd" clip-rule="evenodd" d="M154.195 198.518C154.398 198.401 154.523 198.15 154.523 197.793V185.64C154.523 185.297 154.639 185.052 154.827 184.93L157.067 183.637C156.878 183.759 156.763 184.004 156.763 184.347V196.5C156.763 196.857 156.637 197.108 156.435 197.225L154.195 198.518Z" fill="#031A30" stroke="#F0F0F0" stroke-linecap="round" stroke-linejoin="round"/>
<path fill-rule="evenodd" clip-rule="evenodd" d="M154.828 184.925C155.032 184.792 155.322 184.803 155.644 184.989L157.211 185.894C157.83 186.251 158.331 187.119 158.331 187.833V204.382C158.331 204.725 158.215 204.97 158.027 205.092L160.266 203.799C160.455 203.677 160.57 203.432 160.57 203.089V186.54C160.57 185.826 160.069 184.958 159.451 184.601L157.883 183.696C157.562 183.51 157.272 183.499 157.067 183.632L154.828 184.925Z" fill="#031A30" stroke="#F0F0F0" stroke-linecap="round" stroke-linejoin="round"/>
<path d="M145.571 184.993C145.571 185.707 145.07 185.997 144.452 185.64L142.884 184.735C142.266 184.378 141.764 183.509 141.764 182.796V163.318C141.764 162.245 140.696 161.022 139.96 161.253L130.804 164.129C130.068 164.36 129 163.137 129 162.064L129 160.888C129 160.514 129.14 160.239 129.385 160.135L142.933 154.343C143.354 154.163 143.981 154.525 144.403 155.192L157.951 176.627C158.195 177.014 158.336 177.451 158.336 177.825V179.001C158.336 180.074 157.268 180.064 156.532 178.983L147.375 165.534C146.639 164.453 145.571 164.443 145.571 165.516V184.993ZM155.648 184.993L157.216 185.898C157.834 186.255 158.336 187.124 158.336 187.838V204.387C158.336 205.101 157.834 205.39 157.216 205.033L130.12 189.389C129.501 189.032 129 188.164 129 187.45L129 170.901C129 170.187 129.501 169.897 130.12 170.254L131.687 171.159C132.306 171.517 132.807 172.385 132.807 173.099V185.252C132.807 185.966 133.308 186.834 133.927 187.191L153.409 198.44C154.027 198.797 154.529 198.507 154.529 197.793V185.64C154.529 184.926 155.03 184.636 155.648 184.993Z" fill="#031A30"/>
<path d="M145.571 184.993C145.571 185.707 145.07 185.997 144.452 185.64L142.884 184.735C142.266 184.378 141.764 183.509 141.764 182.796V163.318C141.764 162.245 140.696 161.022 139.96 161.253L130.804 164.129C130.068 164.36 129 163.137 129 162.064L129 160.888C129 160.514 129.14 160.239 129.385 160.135L142.933 154.343C143.354 154.163 143.981 154.525 144.403 155.192L157.951 176.627C158.195 177.014 158.336 177.451 158.336 177.825V179.001C158.336 180.074 157.268 180.064 156.532 178.983L147.375 165.534C146.639 164.453 145.571 164.443 145.571 165.516V184.993ZM155.648 184.993L157.216 185.898C157.834 186.255 158.336 187.124 158.336 187.838V204.387C158.336 205.101 157.834 205.39 157.216 205.033L130.12 189.389C129.501 189.032 129 188.164 129 187.45L129 170.901C129 170.187 129.501 169.897 130.12 170.254L131.687 171.159C132.306 171.517 132.807 172.385 132.807 173.099V185.252C132.807 185.966 133.308 186.834 133.927 187.191L153.409 198.44C154.027 198.797 154.529 198.507 154.529 197.793V185.64C154.529 184.926 155.03 184.636 155.648 184.993Z" fill="#031A30"/>
<path d="M145.571 184.993C145.571 185.707 145.07 185.997 144.452 185.64L142.884 184.735C142.266 184.378 141.764 183.509 141.764 182.796V163.318C141.764 162.245 140.696 161.022 139.96 161.253L130.804 164.129C130.068 164.36 129 163.137 129 162.064L129 160.888C129 160.514 129.14 160.239 129.385 160.135L142.933 154.343C143.354 154.163 143.981 154.525 144.403 155.192L157.951 176.627C158.195 177.014 158.336 177.451 158.336 177.825V179.001C158.336 180.074 157.268 180.064 156.532 178.983L147.375 165.534C146.639 164.453 145.571 164.443 145.571 165.516V184.993ZM155.648 184.993L157.216 185.898C157.834 186.255 158.336 187.124 158.336 187.838V204.387C158.336 205.101 157.834 205.39 157.216 205.033L130.12 189.389C129.501 189.032 129 188.164 129 187.45L129 170.901C129 170.187 129.501 169.897 130.12 170.254L131.687 171.159C132.306 171.517 132.807 172.385 132.807 173.099V185.252C132.807 185.966 133.308 186.834 133.927 187.191L153.409 198.44C154.027 198.797 154.529 198.507 154.529 197.793V185.64C154.529 184.926 155.03 184.636 155.648 184.993Z" stroke="#F0F0F0" stroke-linecap="round" stroke-linejoin="round"/>
<rect width="27.3083" height="26.8908" rx="5.74105" transform="matrix(0.866025 0.5 -0.866025 0.5 226.352 216.633)" fill="#031A30" stroke="#F0F0F0" stroke-linecap="round" stroke-linejoin="round"/>
<path d="M225.407 229.855C225.407 229.82 225.424 229.788 225.451 229.768V229.768C226.231 229.207 227.283 229.207 228.062 229.768V229.768C228.09 229.788 228.107 229.821 228.107 229.855L228.106 229.932C228.106 229.973 228.093 230.012 228.07 230.045V230.045C227.426 230.946 226.087 230.947 225.443 230.046V230.046C225.419 230.012 225.406 229.972 225.407 229.932L225.407 229.855Z" fill="#031A30" stroke="#F0F0F0" stroke-linecap="round" stroke-linejoin="round"/>
<path d="M225.406 207.855H228.106V229.994V229.994C227.444 230.92 226.068 230.92 225.406 229.994V229.994V207.855Z" fill="#031A30" stroke="#F0F0F0" stroke-linecap="round" stroke-linejoin="round"/>
<path d="M239.222 214.823C239.222 219.893 232.088 223.031 227.019 223.031C221.949 223.031 214.438 218.921 214.438 213.852C214.438 208.782 221.949 176 227.019 176C232.088 176 239.222 209.754 239.222 214.823Z" fill="#031A30" stroke="#F0F0F0" stroke-linecap="round" stroke-linejoin="round"/>
<rect width="27.3083" height="26.8908" rx="5.74105" transform="matrix(0.866025 0.5 -0.866025 0.5 262.289 194.375)" fill="#031A30" stroke="#F0F0F0" stroke-linecap="round" stroke-linejoin="round"/>
<path d="M261.594 207.714C261.594 207.685 261.608 207.658 261.631 207.641V207.641C262.283 207.172 263.163 207.172 263.814 207.641V207.641C263.838 207.658 263.852 207.685 263.851 207.714L263.851 207.779C263.851 207.813 263.84 207.845 263.821 207.873V207.873C263.283 208.626 262.163 208.627 261.624 207.874V207.874C261.604 207.846 261.594 207.812 261.594 207.778L261.594 207.714Z" fill="#031A30" stroke="#F0F0F0" stroke-linecap="round" stroke-linejoin="round"/>
<path d="M261.594 189.32H263.851V207.83V207.83C263.298 208.604 262.147 208.604 261.594 207.83V207.83V189.32Z" fill="#031A30" stroke="#F0F0F0" stroke-linecap="round" stroke-linejoin="round"/>
<circle cx="262.94" cy="190.675" r="7.67458" fill="#031A30" stroke="#F0F0F0" stroke-linecap="round" stroke-linejoin="round"/>
<rect width="32.4261" height="32.4261" transform="matrix(0.866025 0.5 -0.866025 0.5 35.0781 193)" fill="#031A30" stroke="#F0F0F0" stroke-linecap="round" stroke-linejoin="round"/>
<circle cx="0.863947" cy="0.863947" r="0.863947" transform="matrix(0.866025 0.5 -0.866025 0.5 35.0781 222.273)" fill="#F0F0F0"/>
<circle cx="0.863947" cy="0.863947" r="0.863947" transform="matrix(0.866025 0.5 -0.866025 0.5 59.7734 208.266)" fill="#F0F0F0"/>
<circle cx="0.863947" cy="0.863947" r="0.863947" transform="matrix(0.866025 0.5 -0.866025 0.5 10.4766 208.203)" fill="#F0F0F0"/>
<path d="M33.3236 195.808H36.8795L56.7348 207.271L56.7348 209.264L36.8687 220.734H33.3344L13.655 209.372L13.655 207.163L33.3236 195.808Z" fill="#031A30" stroke="#F0F0F0" stroke-linecap="round" stroke-linejoin="round"/>
<circle cx="0.863947" cy="0.863947" r="0.863947" transform="matrix(0.866025 0.5 -0.866025 0.5 35.0781 193.91)" fill="#F0F0F0"/>
<rect width="32.4261" height="32.4261" transform="matrix(0.866025 0.5 -0.866025 0.5 69.0781 212)" fill="#031A30" stroke="#F0F0F0" stroke-linecap="round" stroke-linejoin="round"/>
<circle cx="0.863947" cy="0.863947" r="0.863947" transform="matrix(0.866025 0.5 -0.866025 0.5 69.0781 241.273)" fill="#F0F0F0"/>
<circle cx="0.863947" cy="0.863947" r="0.863947" transform="matrix(0.866025 0.5 -0.866025 0.5 93.7734 227.266)" fill="#F0F0F0"/>
<circle cx="0.863947" cy="0.863947" r="0.863947" transform="matrix(0.866025 0.5 -0.866025 0.5 44.4766 227.203)" fill="#F0F0F0"/>
<path d="M67.3236 214.808H70.8795L90.7348 226.271L90.7348 228.264L70.8687 239.734H67.3344L47.655 228.372L47.655 226.163L67.3236 214.808Z" fill="#031A30" stroke="#F0F0F0" stroke-linecap="round" stroke-linejoin="round"/>
<circle cx="0.863947" cy="0.863947" r="0.863947" transform="matrix(0.866025 0.5 -0.866025 0.5 69.0781 212.91)" fill="#F0F0F0"/>
</svg>
