<svg width="300" height="300" viewBox="0 0 300 300" fill="none" xmlns="http://www.w3.org/2000/svg">
<path fill-rule="evenodd" clip-rule="evenodd" d="M257.996 164.641C257.996 165.808 257.225 166.976 255.681 167.867L155.085 225.947C151.999 227.729 146.994 227.729 143.908 225.947L43.3112 167.867C41.8296 167.012 41.0592 165.901 41 164.781V186.292C41.0592 187.412 41.8296 188.523 43.3112 189.378L143.908 247.458C146.994 249.24 151.999 249.24 155.085 247.458L255.681 189.378C257.225 188.487 257.996 187.319 257.996 186.152V164.641Z" fill="#031A30" stroke="#F0F0F0" stroke-linecap="round" stroke-linejoin="round"/>
<path d="M143.911 103.337C146.998 101.554 152.002 101.554 155.089 103.337L255.685 161.416C258.772 163.198 258.772 166.087 255.685 167.869L155.089 225.949C152.002 227.73 146.998 227.73 143.911 225.949L43.3149 167.869C40.2283 166.087 40.2284 163.198 43.3149 161.416L143.911 103.337Z" fill="#031A30" stroke="#F0F0F0" stroke-linecap="round" stroke-linejoin="round"/>
<path d="M145.027 116.995C147.439 115.606 151.349 115.606 153.761 116.995L232.369 162.269C234.781 163.658 234.781 165.911 232.369 167.3L153.761 212.574C151.349 213.963 147.438 213.963 145.027 212.574L66.4183 167.3C64.0064 165.911 64.0064 163.658 66.4183 162.269L145.027 116.995Z" fill="#031A30" stroke="#F0F0F0" stroke-linecap="round" stroke-linejoin="round"/>
<path fill-rule="evenodd" clip-rule="evenodd" d="M122 149.504C122 145.137 124.885 140.771 130.656 137.439C142.197 130.776 160.909 130.776 172.45 137.439C178.221 140.771 181.106 145.137 181.106 149.504V166.339C181.106 161.972 178.221 157.605 172.45 154.274C160.909 147.61 142.197 147.61 130.656 154.274C124.885 157.605 122 161.972 122 166.339V149.504Z" fill="#072543" stroke="#F0F0F0" stroke-linecap="round" stroke-linejoin="round"/>
<path fill-rule="evenodd" clip-rule="evenodd" d="M181.106 149.5C181.106 153.867 178.221 158.233 172.45 161.565C160.909 168.228 142.197 168.228 130.656 161.565C124.885 158.233 122 153.867 122 149.5V166.335C122 170.702 124.885 175.068 130.656 178.4C142.197 185.063 160.909 185.063 172.45 178.4C178.221 175.068 181.106 170.702 181.106 166.335V149.5Z" fill="#E5F1FE"/>
<path fill-rule="evenodd" clip-rule="evenodd" d="M181.106 149.5C181.106 153.867 178.221 158.233 172.45 161.565C160.909 168.228 142.197 168.228 130.656 161.565C124.885 158.233 122 153.867 122 149.5V166.335C122 170.702 124.885 175.068 130.656 178.4C142.197 185.063 160.909 185.063 172.45 178.4C178.221 175.068 181.106 170.702 181.106 166.335V149.5Z" fill="#031A30"/>
<path fill-rule="evenodd" clip-rule="evenodd" d="M181.106 149.5C181.106 153.867 178.221 158.233 172.45 161.565C160.909 168.228 142.197 168.228 130.656 161.565C124.885 158.233 122 153.867 122 149.5V166.335C122 170.702 124.885 175.068 130.656 178.4C142.197 185.063 160.909 185.063 172.45 178.4C178.221 175.068 181.106 170.702 181.106 166.335V149.5Z" stroke="#F0F0F0" stroke-linecap="round" stroke-linejoin="round"/>
<path d="M172.489 161.569C160.948 168.232 142.236 168.232 130.695 161.569C119.154 154.906 119.154 144.102 130.695 137.439C142.236 130.776 160.948 130.776 172.489 137.439C184.031 144.102 184.031 154.906 172.489 161.569Z" fill="#031A30" stroke="#F0F0F0" stroke-linecap="round" stroke-linejoin="round"/>
<path d="M170.595 159.826C160.143 165.758 143.197 165.758 132.745 159.826C122.293 153.894 122.293 144.276 132.745 138.344C143.197 132.411 160.143 132.411 170.595 138.344C181.047 144.276 181.047 153.894 170.595 159.826Z" fill="#031A30" stroke="#F0F0F0" stroke-linecap="round" stroke-linejoin="round"/>
<path fill-rule="evenodd" clip-rule="evenodd" d="M122 126.293C122 121.926 124.885 117.56 130.656 114.228C142.197 107.565 160.909 107.565 172.45 114.228C178.221 117.56 181.106 121.926 181.106 126.293V143.128C181.106 138.761 178.221 134.394 172.45 131.063C160.909 124.4 142.197 124.4 130.656 131.063C124.885 134.394 122 138.761 122 143.128V126.293Z" fill="#072543" stroke="#F0F0F0" stroke-linecap="round" stroke-linejoin="round"/>
<path fill-rule="evenodd" clip-rule="evenodd" d="M181.106 126.289C181.106 130.656 178.221 135.022 172.45 138.354C160.909 145.017 142.197 145.017 130.656 138.354C124.885 135.022 122 130.656 122 126.289V143.124C122 147.491 124.885 151.857 130.656 155.189C142.197 161.852 160.909 161.852 172.45 155.189C178.221 151.857 181.106 147.491 181.106 143.124V126.289Z" fill="#E5F1FE"/>
<path fill-rule="evenodd" clip-rule="evenodd" d="M181.106 126.289C181.106 130.656 178.221 135.022 172.45 138.354C160.909 145.017 142.197 145.017 130.656 138.354C124.885 135.022 122 130.656 122 126.289V143.124C122 147.491 124.885 151.857 130.656 155.189C142.197 161.852 160.909 161.852 172.45 155.189C178.221 151.857 181.106 147.491 181.106 143.124V126.289Z" fill="#031A30"/>
<path fill-rule="evenodd" clip-rule="evenodd" d="M181.106 126.289C181.106 130.656 178.221 135.022 172.45 138.354C160.909 145.017 142.197 145.017 130.656 138.354C124.885 135.022 122 130.656 122 126.289V143.124C122 147.491 124.885 151.857 130.656 155.189C142.197 161.852 160.909 161.852 172.45 155.189C178.221 151.857 181.106 147.491 181.106 143.124V126.289Z" stroke="#F0F0F0" stroke-linecap="round" stroke-linejoin="round"/>
<path d="M172.489 138.358C160.948 145.021 142.236 145.021 130.695 138.358C119.154 131.695 119.154 120.891 130.695 114.228C142.236 107.565 160.948 107.565 172.489 114.228C184.031 120.891 184.031 131.695 172.489 138.358Z" fill="#031A30" stroke="#F0F0F0" stroke-linecap="round" stroke-linejoin="round"/>
<path d="M170.595 136.615C160.143 142.547 143.197 142.547 132.745 136.615C122.293 130.683 122.293 121.065 132.745 115.133C143.197 109.201 160.143 109.201 170.595 115.133C181.047 121.065 181.047 130.683 170.595 136.615Z" fill="#031A30" stroke="#F0F0F0" stroke-linecap="round" stroke-linejoin="round"/>
<path fill-rule="evenodd" clip-rule="evenodd" d="M122 103.062C122 98.6958 124.885 94.3291 130.656 90.9975C142.197 84.3342 160.909 84.3342 172.45 90.9975C178.221 94.3291 181.106 98.6958 181.106 103.062V119.897C181.106 115.531 178.221 111.164 172.45 107.832C160.909 101.169 142.197 101.169 130.656 107.832C124.885 111.164 122 115.531 122 119.897V103.062Z" fill="#072543" stroke="#F0F0F0" stroke-linecap="round" stroke-linejoin="round"/>
<path fill-rule="evenodd" clip-rule="evenodd" d="M181.106 103.059C181.106 107.425 178.221 111.792 172.45 115.124C160.909 121.787 142.197 121.787 130.656 115.124C124.885 111.792 122 107.425 122 103.059V119.893C122 124.26 124.885 128.627 130.656 131.958C142.197 138.622 160.909 138.622 172.45 131.958C178.221 128.627 181.106 124.26 181.106 119.893V103.059Z" fill="#E5F1FE"/>
<path fill-rule="evenodd" clip-rule="evenodd" d="M181.106 103.059C181.106 107.425 178.221 111.792 172.45 115.124C160.909 121.787 142.197 121.787 130.656 115.124C124.885 111.792 122 107.425 122 103.059V119.893C122 124.26 124.885 128.627 130.656 131.958C142.197 138.622 160.909 138.622 172.45 131.958C178.221 128.627 181.106 124.26 181.106 119.893V103.059Z" fill="#031A30"/>
<path fill-rule="evenodd" clip-rule="evenodd" d="M181.106 103.059C181.106 107.425 178.221 111.792 172.45 115.124C160.909 121.787 142.197 121.787 130.656 115.124C124.885 111.792 122 107.425 122 103.059V119.893C122 124.26 124.885 128.627 130.656 131.958C142.197 138.622 160.909 138.622 172.45 131.958C178.221 128.627 181.106 124.26 181.106 119.893V103.059Z" stroke="#F0F0F0" stroke-linecap="round" stroke-linejoin="round"/>
<path d="M172.489 115.127C160.948 121.791 142.236 121.791 130.695 115.127C119.154 108.464 119.154 97.6608 130.695 90.9975C142.236 84.3342 160.948 84.3342 172.489 90.9975C184.031 97.6608 184.031 108.464 172.489 115.127Z" fill="#031A30" stroke="#F0F0F0" stroke-linecap="round" stroke-linejoin="round"/>
<path d="M170.595 113.385C160.143 119.317 143.197 119.317 132.745 113.385C122.293 107.453 122.293 97.8345 132.745 91.9023C143.197 85.9701 160.143 85.9701 170.595 91.9023C181.047 97.8345 181.047 107.453 170.595 113.385Z" fill="#031A30" stroke="#F0F0F0" stroke-linecap="round" stroke-linejoin="round"/>
<path d="M100.979 120.278L95.2266 123.599L110.879 147.688L116.631 144.367C117.442 143.954 117.949 142.996 117.949 141.609V133.492C117.949 130.824 116.076 127.58 113.766 126.246L111.884 125.16L103.937 120.571C102.781 119.904 101.736 119.841 100.979 120.278Z" fill="#031A30" stroke="#F0F0F0" stroke-linecap="round" stroke-linejoin="round"/>
<path fill-rule="evenodd" clip-rule="evenodd" d="M108.012 147.34C110.323 148.674 112.195 147.593 112.195 144.925V136.808C112.195 134.14 110.323 130.896 108.012 129.563L106.13 128.476L98.1832 123.888C95.8729 122.554 94 123.635 94 126.303V134.42C94 137.088 95.8729 140.332 98.1832 141.666L108.012 147.34ZM108.831 137.823L106.557 133.896V133.901C106.116 133.135 105.396 132.725 104.95 132.974C104.505 133.223 104.505 134.051 104.95 134.82L106.419 137.357L104.95 138.197C104.505 138.446 104.51 139.277 104.95 140.043C105.391 140.809 106.111 141.225 106.557 140.97L108.831 139.669C109.277 139.42 109.277 138.592 108.831 137.823ZM101.25 132.684L99.7808 133.524L101.25 136.06C101.695 136.829 101.695 137.657 101.25 137.906C100.804 138.156 100.084 137.745 99.6434 136.979L97.3643 133.054C96.9189 132.285 96.9189 131.457 97.3643 131.208L99.6387 129.907C100.084 129.652 100.804 130.068 101.245 130.835C101.686 131.601 101.69 132.432 101.245 132.681L101.25 132.684Z" fill="#031A30" stroke="#F0F0F0" stroke-linecap="round" stroke-linejoin="round"/>
<path fill-rule="evenodd" clip-rule="evenodd" d="M80.0625 74.5645C80.7249 74.182 81.64 74.2373 82.6507 74.8208L108.572 89.7864C110.593 90.9535 112.232 93.792 112.232 96.1262V125.653C112.232 126.82 111.822 127.641 111.16 128.023L116.912 124.702C117.574 124.32 117.984 123.499 117.984 122.332V92.8053C117.984 90.471 116.345 87.6326 114.324 86.4655L88.4027 71.4999C87.392 70.9163 86.4769 70.8611 85.8145 71.2435L80.0625 74.5645Z" fill="#031A30" stroke="#F0F0F0" stroke-linecap="round" stroke-linejoin="round"/>
<path d="M79 76.9335C79 74.5992 80.6388 73.6531 82.6603 74.8202L108.581 89.7858C110.603 90.9529 112.242 93.7914 112.242 96.1256V125.653C112.242 127.987 110.603 128.933 108.581 127.766L82.6603 112.8C80.6388 111.633 79 108.795 79 106.461V76.9335Z" fill="#031A30" stroke="#F0F0F0" stroke-linecap="round" stroke-linejoin="round"/>
<path d="M82.3203 80.8978C82.3203 80.1168 82.8686 79.8002 83.545 80.1907L88.7937 83.221C89.4701 83.6115 90.0184 84.5613 90.0184 85.3423C90.0184 86.1233 89.4701 86.4398 88.7937 86.0493L83.545 83.019C82.8686 82.6285 82.3203 81.6788 82.3203 80.8978ZM86.5133 95.6487C86.5133 94.9793 86.9833 94.7079 87.563 95.0426L92.1119 97.6689C92.6916 98.0036 93.1616 98.8177 93.1616 99.4871C93.1616 100.157 92.6916 100.428 92.1119 100.093L87.563 97.4669C86.9833 97.1322 86.5133 96.3181 86.5133 95.6487ZM86.5133 87.3586C86.5133 86.5778 87.0614 86.2613 87.7376 86.6517L89.8365 87.8635C90.5127 88.2539 91.0608 89.2033 91.0608 89.9841C91.0608 90.7649 90.5127 91.0814 89.8365 90.6909L87.7376 89.4792C87.0614 89.0888 86.5133 88.1394 86.5133 87.3586ZM92.4677 90.7968C92.4677 90.0157 93.016 89.6992 93.6924 90.0897L98.5911 92.918C99.2675 93.3085 99.8159 94.2582 99.8159 95.0392C99.8159 95.8203 99.2675 96.1368 98.5911 95.7463L93.6924 92.918C93.016 92.5275 92.4677 91.5778 92.4677 90.7968ZM91.068 102.319C91.068 101.649 91.538 101.378 92.1178 101.713L98.0663 105.147C98.6461 105.482 99.1161 106.296 99.1161 106.965C99.1161 107.635 98.6461 107.906 98.0663 107.571L92.1178 104.137C91.538 103.802 91.068 102.988 91.068 102.319ZM100.516 107.773C100.516 107.104 100.985 106.832 101.565 107.167L102.614 107.773C103.194 108.108 103.664 108.921 103.664 109.591C103.664 110.26 103.194 110.531 102.614 110.197L101.565 109.591C100.985 109.256 100.516 108.442 100.516 107.773ZM86.5133 91.6079C86.5133 90.9387 86.9831 90.6674 87.5627 91.002L88.6121 91.6079C89.1917 91.9425 89.6615 92.7563 89.6615 93.4256C89.6615 94.0948 89.1917 94.366 88.6121 94.0314L87.5627 93.4255C86.9831 93.0909 86.5133 92.2771 86.5133 91.6079ZM91.068 94.2379C91.068 93.5685 91.538 93.2971 92.1178 93.6319L104.015 100.501C104.595 100.835 105.065 101.649 105.065 102.319C105.065 102.988 104.595 103.26 104.015 102.925L92.1178 96.0561C91.538 95.7214 91.068 94.9074 91.068 94.2379ZM86.5133 103.932C86.5133 103.151 87.0616 102.834 87.738 103.224L92.6368 106.053C93.3132 106.443 93.8615 107.393 93.8615 108.174C93.8615 108.955 93.3132 109.272 92.6368 108.881L87.738 106.053C87.0616 105.662 86.5133 104.713 86.5133 103.932ZM94.9111 108.78C94.9111 107.999 95.4595 107.682 96.1358 108.073L108.033 114.942C108.709 115.332 109.258 116.282 109.258 117.063C109.258 117.844 108.709 118.16 108.033 117.77L96.1358 110.901C95.4595 110.511 94.9111 109.561 94.9111 108.78ZM86.5133 107.958C86.5133 107.177 87.0614 106.861 87.7376 107.251L90.8859 109.069C91.5621 109.459 92.1102 110.408 92.1102 111.189C92.1102 111.97 91.5621 112.286 90.8859 111.896L87.7376 110.078C87.0614 109.688 86.5133 108.739 86.5133 107.958ZM93.1675 111.8C93.1675 111.019 93.7157 110.702 94.3918 111.093L95.0914 111.497C95.7676 111.887 96.3158 112.836 96.3158 113.617C96.3158 114.398 95.7676 114.715 95.0914 114.324L94.3918 113.92C93.7157 113.53 93.1675 112.58 93.1675 111.8Z" fill="#031A30" stroke="#F0F0F0" stroke-linecap="round" stroke-linejoin="round"/>
<path fill-rule="evenodd" clip-rule="evenodd" d="M178.879 182.688C179.69 182.275 180.197 181.317 180.197 179.93V171.813C180.197 169.145 178.324 165.901 176.014 164.567L174.132 163.481L166.185 158.892C165.029 158.225 163.984 158.162 163.227 158.599L168.979 155.278C169.736 154.841 170.781 154.904 171.937 155.571L179.884 160.16L181.766 161.246C184.076 162.58 185.949 165.824 185.949 168.492V176.609C185.949 177.996 185.442 178.954 184.631 179.367L178.879 182.688Z" fill="#031A30" stroke="#F0F0F0" stroke-linecap="round" stroke-linejoin="round"/>
<path fill-rule="evenodd" clip-rule="evenodd" d="M176.012 182.34C178.323 183.674 180.195 182.593 180.195 179.925V171.808C180.195 169.14 178.323 165.896 176.012 164.563L174.13 163.476L166.183 158.888C163.873 157.554 162 158.635 162 161.303V169.42C162 172.088 163.873 175.332 166.183 176.666L176.012 182.34ZM176.831 172.823L174.557 168.896V168.901C174.116 168.135 173.396 167.725 172.95 167.974C172.505 168.223 172.505 169.051 172.95 169.82L174.419 172.357L172.95 173.197C172.505 173.446 172.51 174.277 172.95 175.043C173.391 175.809 174.111 176.225 174.557 175.97L176.831 174.669C177.277 174.42 177.277 173.592 176.831 172.823ZM169.25 167.684L167.781 168.524L169.25 171.06C169.695 171.829 169.695 172.657 169.25 172.906C168.804 173.156 168.084 172.745 167.643 171.979L165.364 168.054C164.919 167.285 164.919 166.457 165.364 166.208L167.639 164.907C168.084 164.652 168.804 165.068 169.245 165.835C169.686 166.601 169.69 167.432 169.245 167.681L169.25 167.684Z" fill="#031A30" stroke="#F0F0F0" stroke-linecap="round" stroke-linejoin="round"/>
<path fill-rule="evenodd" clip-rule="evenodd" d="M184.062 148.564C184.725 148.182 185.64 148.237 186.651 148.821L212.572 163.786C214.593 164.954 216.232 167.792 216.232 170.126V199.653C216.232 200.82 215.822 201.641 215.16 202.023L220.912 198.702C221.574 198.32 221.984 197.499 221.984 196.332V166.805C221.984 164.471 220.345 161.633 218.324 160.465L192.403 145.5C191.392 144.916 190.477 144.861 189.815 145.244L184.062 148.564Z" fill="#031A30" stroke="#F0F0F0" stroke-linecap="round" stroke-linejoin="round"/>
<path d="M183 150.937C183 148.603 184.639 147.657 186.66 148.824L212.581 163.79C214.603 164.957 216.242 167.795 216.242 170.13V199.657C216.242 201.991 214.603 202.937 212.581 201.77L186.66 186.804C184.639 185.637 183 182.799 183 180.464V150.937Z" fill="#031A30" stroke="#F0F0F0" stroke-linecap="round" stroke-linejoin="round"/>
<path d="M186.305 154.898C186.305 154.117 186.853 153.8 187.529 154.191L192.778 157.221C193.454 157.612 194.003 158.561 194.003 159.342C194.003 160.123 193.454 160.44 192.778 160.049L187.529 157.019C186.853 156.629 186.305 155.679 186.305 154.898ZM190.498 169.649C190.498 168.979 190.968 168.708 191.547 169.043L196.096 171.669C196.676 172.004 197.146 172.818 197.146 173.487C197.146 174.157 196.676 174.428 196.096 174.093L191.547 171.467C190.968 171.132 190.498 170.318 190.498 169.649ZM190.498 161.359C190.498 160.578 191.046 160.261 191.722 160.652L193.821 161.863C194.497 162.254 195.045 163.203 195.045 163.984C195.045 164.765 194.497 165.081 193.821 164.691L191.722 163.479C191.046 163.089 190.498 162.139 190.498 161.359ZM196.452 164.797C196.452 164.016 197 163.699 197.677 164.09L202.576 166.918C203.252 167.308 203.8 168.258 203.8 169.039C203.8 169.82 203.252 170.137 202.576 169.746L197.677 166.918C197 166.528 196.452 165.578 196.452 164.797ZM195.052 176.319C195.052 175.649 195.522 175.378 196.102 175.713L202.051 179.147C202.63 179.482 203.1 180.296 203.1 180.965C203.1 181.635 202.63 181.906 202.051 181.571L196.102 178.137C195.522 177.802 195.052 176.988 195.052 176.319ZM204.5 181.773C204.5 181.104 204.97 180.832 205.549 181.167L206.599 181.773C207.178 182.108 207.648 182.921 207.648 183.591C207.648 184.26 207.178 184.531 206.599 184.197L205.549 183.591C204.97 183.256 204.5 182.442 204.5 181.773ZM190.498 165.608C190.498 164.939 190.968 164.667 191.547 165.002L192.597 165.608C193.176 165.943 193.646 166.756 193.646 167.426C193.646 168.095 193.176 168.366 192.597 168.031L191.547 167.426C190.968 167.091 190.498 166.277 190.498 165.608ZM195.052 168.238C195.052 167.568 195.522 167.297 196.102 167.632L207.999 174.501C208.579 174.835 209.049 175.649 209.049 176.319C209.049 176.988 208.579 177.26 207.999 176.925L196.102 170.056C195.522 169.721 195.052 168.907 195.052 168.238ZM190.498 177.932C190.498 177.151 191.046 176.834 191.722 177.224L196.621 180.053C197.298 180.443 197.846 181.393 197.846 182.174C197.846 182.955 197.298 183.272 196.621 182.881L191.722 180.053C191.046 179.662 190.498 178.713 190.498 177.932ZM198.895 182.78C198.895 181.999 199.444 181.682 200.12 182.073L212.017 188.942C212.694 189.332 213.242 190.282 213.242 191.063C213.242 191.844 212.694 192.16 212.017 191.77L200.12 184.901C199.444 184.511 198.895 183.561 198.895 182.78ZM190.498 181.958C190.498 181.177 191.046 180.861 191.722 181.251L194.87 183.069C195.546 183.459 196.095 184.408 196.095 185.189C196.095 185.97 195.546 186.286 194.87 185.896L191.722 184.078C191.046 183.688 190.498 182.739 190.498 181.958ZM197.152 185.8C197.152 185.019 197.7 184.702 198.376 185.093L199.076 185.497C199.752 185.887 200.3 186.836 200.3 187.617C200.3 188.398 199.752 188.715 199.076 188.324L198.376 187.92C197.7 187.53 197.152 186.58 197.152 185.8Z" fill="#031A30" stroke="#F0F0F0" stroke-linecap="round" stroke-linejoin="round"/>
<rect width="27.3083" height="26.8908" rx="5.74105" transform="matrix(0.866025 0.5 -0.866025 0.5 226.352 216.633)" fill="#031A30" stroke="#F0F0F0" stroke-linecap="round" stroke-linejoin="round"/>
<path d="M225.407 229.855C225.407 229.82 225.424 229.788 225.451 229.768V229.768C226.231 229.207 227.283 229.207 228.062 229.768V229.768C228.09 229.788 228.107 229.821 228.107 229.855L228.106 229.932C228.106 229.973 228.093 230.012 228.07 230.045V230.045C227.426 230.946 226.087 230.947 225.443 230.046V230.046C225.419 230.012 225.406 229.972 225.407 229.932L225.407 229.855Z" fill="#031A30" stroke="#F0F0F0" stroke-linecap="round" stroke-linejoin="round"/>
<path d="M225.406 207.855H228.106V229.994V229.994C227.444 230.92 226.068 230.92 225.406 229.994V229.994V207.855Z" fill="#031A30" stroke="#F0F0F0" stroke-linecap="round" stroke-linejoin="round"/>
<path d="M239.222 214.823C239.222 219.893 232.088 223.031 227.019 223.031C221.949 223.031 214.438 218.921 214.438 213.852C214.438 208.782 221.949 176 227.019 176C232.088 176 239.222 209.754 239.222 214.823Z" fill="#031A30" stroke="#F0F0F0" stroke-linecap="round" stroke-linejoin="round"/>
<rect width="27.3083" height="26.8908" rx="5.74105" transform="matrix(0.866025 0.5 -0.866025 0.5 262.289 194.375)" fill="#031A30" stroke="#F0F0F0" stroke-linecap="round" stroke-linejoin="round"/>
<path d="M261.594 207.714C261.594 207.685 261.608 207.658 261.631 207.641V207.641C262.283 207.172 263.163 207.172 263.814 207.641V207.641C263.838 207.658 263.852 207.685 263.851 207.714L263.851 207.779C263.851 207.813 263.84 207.845 263.821 207.873V207.873C263.283 208.626 262.163 208.627 261.624 207.874V207.874C261.604 207.846 261.594 207.812 261.594 207.778L261.594 207.714Z" fill="#031A30" stroke="#F0F0F0" stroke-linecap="round" stroke-linejoin="round"/>
<path d="M261.594 189.32H263.851V207.83V207.83C263.298 208.604 262.147 208.604 261.594 207.83V207.83V189.32Z" fill="#031A30" stroke="#F0F0F0" stroke-linecap="round" stroke-linejoin="round"/>
<circle cx="262.94" cy="190.675" r="7.67458" fill="#031A30" stroke="#F0F0F0" stroke-linecap="round" stroke-linejoin="round"/>
<rect width="32.4261" height="32.4261" transform="matrix(0.866025 0.5 -0.866025 0.5 35.0781 193)" fill="#031A30" stroke="#F0F0F0" stroke-linecap="round" stroke-linejoin="round"/>
<circle cx="0.863947" cy="0.863947" r="0.863947" transform="matrix(0.866025 0.5 -0.866025 0.5 35.0781 222.273)" fill="#F0F0F0" stroke="#F0F0F0"/>
<circle cx="0.863947" cy="0.863947" r="0.863947" transform="matrix(0.866025 0.5 -0.866025 0.5 59.7734 208.266)" fill="#F0F0F0" stroke="#F0F0F0"/>
<circle cx="0.863947" cy="0.863947" r="0.863947" transform="matrix(0.866025 0.5 -0.866025 0.5 10.4766 208.203)" fill="#F0F0F0" stroke="#F0F0F0"/>
<path d="M33.3236 195.808H36.8795L56.7348 207.271L56.7348 209.264L36.8687 220.734H33.3344L13.655 209.372L13.655 207.163L33.3236 195.808Z" fill="#031A30" stroke="#F0F0F0" stroke-linecap="round" stroke-linejoin="round"/>
<circle cx="0.863947" cy="0.863947" r="0.863947" transform="matrix(0.866025 0.5 -0.866025 0.5 35.0781 193.91)" fill="#F0F0F0" stroke="#F0F0F0"/>
<rect width="32.4261" height="32.4261" transform="matrix(0.866025 0.5 -0.866025 0.5 69.0781 212)" fill="#031A30" stroke="#F0F0F0" stroke-linecap="round" stroke-linejoin="round"/>
<circle cx="0.863947" cy="0.863947" r="0.863947" transform="matrix(0.866025 0.5 -0.866025 0.5 69.0781 241.273)" fill="#F0F0F0" stroke="#F0F0F0"/>
<circle cx="0.863947" cy="0.863947" r="0.863947" transform="matrix(0.866025 0.5 -0.866025 0.5 93.7734 227.266)" fill="#F0F0F0" stroke="#F0F0F0"/>
<circle cx="0.863947" cy="0.863947" r="0.863947" transform="matrix(0.866025 0.5 -0.866025 0.5 44.4766 227.203)" fill="#F0F0F0" stroke="#F0F0F0"/>
<path d="M67.3236 214.808H70.8795L90.7348 226.271L90.7348 228.264L70.8687 239.734H67.3344L47.655 228.372L47.655 226.163L67.3236 214.808Z" fill="#031A30" stroke="#F0F0F0" stroke-linecap="round" stroke-linejoin="round"/>
<circle cx="0.863947" cy="0.863947" r="0.863947" transform="matrix(0.866025 0.5 -0.866025 0.5 69.0781 212.91)" fill="#F0F0F0" stroke="#F0F0F0"/>
</svg>
