<svg width="300" height="300" viewBox="0 0 300 300" fill="none" xmlns="http://www.w3.org/2000/svg">
<path fill-rule="evenodd" clip-rule="evenodd" d="M257.996 164.641C257.996 165.808 257.225 166.976 255.681 167.867L155.085 225.947C151.999 227.729 146.994 227.729 143.908 225.947L43.3112 167.867C41.8296 167.012 41.0592 165.901 41 164.781V186.292C41.0592 187.412 41.8296 188.523 43.3112 189.378L143.908 247.458C146.994 249.24 151.999 249.24 155.085 247.458L255.681 189.378C257.225 188.487 257.996 187.319 257.996 186.152V164.641Z" fill="#031A30" stroke="#F0F0F0" stroke-linecap="round" stroke-linejoin="round"/>
<path d="M143.911 103.337C146.998 101.554 152.002 101.554 155.089 103.337L255.685 161.416C258.772 163.198 258.772 166.087 255.685 167.869L155.089 225.949C152.002 227.73 146.998 227.73 143.911 225.949L43.3149 167.869C40.2283 166.087 40.2284 163.198 43.3149 161.416L143.911 103.337Z" fill="#031A30" stroke="#F0F0F0" stroke-linecap="round" stroke-linejoin="round"/>
<path d="M145.027 116.995C147.439 115.606 151.349 115.606 153.761 116.995L232.369 162.269C234.781 163.658 234.781 165.911 232.369 167.3L153.761 212.574C151.349 213.963 147.438 213.963 145.027 212.574L66.4183 167.3C64.0064 165.911 64.0064 163.658 66.4183 162.269L145.027 116.995Z" fill="#031A30" stroke="#F0F0F0" stroke-linecap="round" stroke-linejoin="round"/>
<path fill-rule="evenodd" clip-rule="evenodd" d="M79.0625 106.404C79.7249 106.022 80.64 106.077 81.6507 106.661L107.572 121.626C109.593 122.793 111.232 125.632 111.232 127.966V157.493C111.232 158.66 110.822 159.48 110.16 159.863L115.912 156.542C116.574 156.159 116.984 155.339 116.984 154.172V124.645C116.984 122.311 115.345 119.472 113.324 118.305L87.4027 103.34C86.392 102.756 85.4769 102.701 84.8145 103.083L79.0625 106.404Z" fill="#031A30" stroke="#F0F0F0" stroke-linecap="round" stroke-linejoin="round"/>
<path d="M78 108.773C78 106.439 79.6388 105.493 81.6603 106.66L107.581 121.626C109.603 122.793 111.242 125.631 111.242 127.965V157.493C111.242 159.827 109.603 160.773 107.581 159.606L81.6603 144.64C79.6388 143.473 78 140.635 78 138.3V108.773Z" fill="#031A30" stroke="#F0F0F0" stroke-linecap="round" stroke-linejoin="round"/>
<path d="M81.3203 112.738C81.3203 111.957 81.8686 111.64 82.545 112.031L87.7937 115.061C88.4701 115.451 89.0184 116.401 89.0184 117.182C89.0184 117.963 88.4701 118.28 87.7937 117.889L82.545 114.859C81.8686 114.468 81.3203 113.519 81.3203 112.738ZM85.5133 127.489C85.5133 126.819 85.9833 126.548 86.563 126.882L91.1119 129.509C91.6916 129.843 92.1616 130.658 92.1616 131.327C92.1616 131.996 91.6916 132.268 91.1119 131.933L86.563 129.307C85.9833 128.972 85.5133 128.158 85.5133 127.489ZM85.5133 119.198C85.5133 118.418 86.0614 118.101 86.7376 118.492L88.8365 119.703C89.5127 120.094 90.0608 121.043 90.0608 121.824C90.0608 122.605 89.5127 122.921 88.8365 122.531L86.7376 121.319C86.0614 120.929 85.5133 119.979 85.5133 119.198ZM91.4677 122.637C91.4677 121.856 92.016 121.539 92.6924 121.93L97.5911 124.758C98.2675 125.148 98.8159 126.098 98.8159 126.879C98.8159 127.66 98.2675 127.977 97.5911 127.586L92.6924 124.758C92.016 124.367 91.4677 123.418 91.4677 122.637ZM90.068 134.159C90.068 133.489 90.538 133.218 91.1178 133.553L97.0663 136.987C97.6461 137.322 98.1161 138.136 98.1161 138.805C98.1161 139.475 97.6461 139.746 97.0663 139.411L91.1178 135.977C90.538 135.642 90.068 134.828 90.068 134.159ZM99.5156 139.613C99.5156 138.944 99.9855 138.672 100.565 139.007L101.614 139.613C102.194 139.947 102.664 140.761 102.664 141.43C102.664 142.1 102.194 142.371 101.614 142.036L100.565 141.431C99.9855 141.096 99.5156 140.282 99.5156 139.613ZM85.5133 123.448C85.5133 122.779 85.9831 122.507 86.5627 122.842L87.6121 123.448C88.1917 123.782 88.6615 124.596 88.6615 125.265C88.6615 125.935 88.1917 126.206 87.6121 125.871L86.5627 125.265C85.9831 124.931 85.5133 124.117 85.5133 123.448ZM90.068 126.078C90.068 125.408 90.538 125.137 91.1178 125.472L103.015 132.34C103.595 132.675 104.065 133.489 104.065 134.159C104.065 134.828 103.595 135.099 103.015 134.765L91.1178 127.896C90.538 127.561 90.068 126.747 90.068 126.078ZM85.5133 135.771C85.5133 134.99 86.0616 134.674 86.738 135.064L91.6368 137.893C92.3132 138.283 92.8615 139.233 92.8615 140.014C92.8615 140.795 92.3132 141.111 91.6368 140.721L86.738 137.893C86.0616 137.502 85.5133 136.552 85.5133 135.771ZM93.9111 140.62C93.9111 139.839 94.4595 139.522 95.1358 139.913L107.033 146.782C107.709 147.172 108.258 148.122 108.258 148.903C108.258 149.684 107.709 150 107.033 149.61L95.1358 142.741C94.4595 142.351 93.9111 141.401 93.9111 140.62ZM85.5133 139.798C85.5133 139.017 86.0614 138.7 86.7376 139.091L89.8859 140.908C90.5621 141.299 91.1102 142.248 91.1102 143.029C91.1102 143.81 90.5621 144.126 89.8859 143.736L86.7376 141.918C86.0614 141.528 85.5133 140.578 85.5133 139.798ZM92.1675 143.639C92.1675 142.859 92.7157 142.542 93.3918 142.933L94.0914 143.336C94.7676 143.727 95.3158 144.676 95.3158 145.457C95.3158 146.238 94.7676 146.554 94.0914 146.164L93.3918 145.76C92.7157 145.37 92.1675 144.42 92.1675 143.639Z" fill="#031A30" stroke="#F0F0F0" stroke-linecap="round" stroke-linejoin="round"/>
<path d="M130.879 173.528L136.631 170.207C137.442 169.794 137.949 168.836 137.949 167.449V159.331C137.949 156.664 136.076 153.42 133.766 152.086L131.884 150.999L123.937 146.411C122.781 145.744 121.736 145.681 120.979 146.118L115.227 149.439" stroke="#F0F0F0" stroke-linecap="round" stroke-linejoin="round"/>
<path fill-rule="evenodd" clip-rule="evenodd" d="M128.012 173.18C130.323 174.514 132.195 173.433 132.195 170.765V162.648C132.195 159.98 130.323 156.736 128.012 155.402L126.13 154.316L118.183 149.728C115.873 148.394 114 149.475 114 152.143V160.26C114 162.928 115.873 166.172 118.183 167.506L128.012 173.18ZM128.831 163.663L126.557 159.736V159.741C126.116 158.975 125.396 158.565 124.95 158.814C124.505 159.063 124.505 159.891 124.95 160.66L126.419 163.196L124.95 164.037C124.505 164.286 124.51 165.116 124.95 165.883C125.391 166.649 126.111 167.065 126.557 166.81L128.831 165.509C129.277 165.26 129.277 164.432 128.831 163.663ZM121.25 158.523L119.781 159.364L121.25 161.9C121.695 162.669 121.695 163.497 121.25 163.746C120.804 163.995 120.084 163.585 119.643 162.819L117.364 158.894C116.919 158.125 116.919 157.297 117.364 157.048L119.639 155.747C120.084 155.492 120.804 155.908 121.245 156.674C121.686 157.441 121.69 158.271 121.245 158.521L121.25 158.523Z" fill="#031A30" stroke="#F0F0F0" stroke-linecap="round" stroke-linejoin="round"/>
<path fill-rule="evenodd" clip-rule="evenodd" d="M114.203 102.752C114.689 102.436 115.38 102.462 116.146 102.904L176.14 137.541C177.613 138.392 178.806 140.459 178.806 142.16V182.186C178.806 183.036 178.508 183.633 178.025 183.912L180.692 182.372C181.174 182.094 181.473 181.496 181.473 180.646V140.62C181.473 138.92 180.279 136.852 178.806 136.002L118.812 101.364C118.046 100.922 117.356 100.896 116.87 101.212L114.203 102.752Z" fill="#031A30" stroke="#F0F0F0" stroke-linecap="round" stroke-linejoin="round"/>
<path fill-rule="evenodd" clip-rule="evenodd" d="M178.023 183.91C177.54 184.189 176.874 184.149 176.137 183.724L116.143 149.086C114.67 148.236 113.477 146.168 113.477 144.468V104.442C113.477 103.625 113.752 103.042 114.201 102.75L116.867 101.211C116.418 101.503 116.143 102.086 116.143 102.902V142.928C116.143 144.629 117.337 146.696 118.809 147.546L178.804 182.184C179.54 182.609 180.207 182.65 180.689 182.371L178.023 183.91Z" fill="#031A30" stroke="#F0F0F0" stroke-linecap="round" stroke-linejoin="round"/>
<path d="M113.477 104.447C113.477 102.746 114.67 102.057 116.143 102.907L176.137 137.545C177.61 138.395 178.804 140.463 178.804 142.163V182.189C178.804 183.89 177.61 184.579 176.137 183.729L116.143 149.091C114.67 148.241 113.477 146.173 113.477 144.472V104.447Z" fill="#031A30" stroke="#F0F0F0" stroke-linecap="round" stroke-linejoin="round"/>
<path fill-rule="evenodd" clip-rule="evenodd" d="M115.078 126.896C115.078 125.96 115.697 125.024 116.934 124.31C119.408 122.881 123.42 122.881 125.894 124.31C127.131 125.024 127.75 125.96 127.75 126.896V130.506C127.75 129.569 127.131 128.633 125.894 127.919C123.42 126.49 119.408 126.49 116.934 127.919C115.697 128.633 115.078 129.569 115.078 130.506V126.896Z" fill="#031A30" stroke="#F0F0F0" stroke-linecap="round" stroke-linejoin="round"/>
<path fill-rule="evenodd" clip-rule="evenodd" d="M127.75 126.887C127.75 127.823 127.131 128.759 125.894 129.473C123.42 130.902 119.408 130.902 116.934 129.473C115.697 128.759 115.078 127.823 115.078 126.887V130.496C115.078 131.432 115.697 132.368 116.934 133.083C119.408 134.511 123.42 134.511 125.894 133.083C127.131 132.368 127.75 131.432 127.75 130.496V126.887Z" fill="#031A30" stroke="#F0F0F0" stroke-linecap="round" stroke-linejoin="round"/>
<path d="M125.894 129.483C123.42 130.912 119.408 130.912 116.934 129.483C114.46 128.054 114.46 125.738 116.934 124.31C119.408 122.881 123.42 122.881 125.894 124.31C128.369 125.738 128.369 128.054 125.894 129.483Z" fill="#031A30" stroke="#F0F0F0" stroke-linecap="round" stroke-linejoin="round"/>
<path fill-rule="evenodd" clip-rule="evenodd" d="M115.078 121.627C115.078 120.691 115.697 119.754 116.934 119.04C119.408 117.612 123.42 117.612 125.894 119.04C127.131 119.754 127.75 120.691 127.75 121.627V125.236C127.75 124.3 127.131 123.364 125.894 122.649C123.42 121.221 119.408 121.221 116.934 122.649C115.697 123.364 115.078 124.3 115.078 125.236V121.627Z" fill="#031A30" stroke="#F0F0F0" stroke-linecap="round" stroke-linejoin="round"/>
<path fill-rule="evenodd" clip-rule="evenodd" d="M127.75 121.617C127.75 122.553 127.131 123.49 125.894 124.204C123.42 125.632 119.408 125.632 116.934 124.204C115.697 123.49 115.078 122.553 115.078 121.617V125.226C115.078 126.163 115.697 127.099 116.934 127.813C119.408 129.242 123.42 129.242 125.894 127.813C127.131 127.099 127.75 126.163 127.75 125.226V121.617Z" fill="#031A30" stroke="#F0F0F0" stroke-linecap="round" stroke-linejoin="round"/>
<path d="M125.894 124.213C123.42 125.642 119.408 125.642 116.934 124.213C114.46 122.785 114.46 120.469 116.934 119.04C119.408 117.612 123.42 117.612 125.894 119.04C128.369 120.469 128.369 122.785 125.894 124.213Z" fill="#031A30" stroke="#F0F0F0" stroke-linecap="round" stroke-linejoin="round"/>
<path fill-rule="evenodd" clip-rule="evenodd" d="M115.078 116.658C115.078 115.722 115.697 114.786 116.934 114.071C119.408 112.643 123.42 112.643 125.894 114.071C127.131 114.786 127.75 115.722 127.75 116.658V120.267C127.75 119.331 127.131 118.395 125.894 117.681C123.42 116.252 119.408 116.252 116.934 117.681C115.697 118.395 115.078 119.331 115.078 120.267V116.658Z" fill="#031A30" stroke="#F0F0F0" stroke-linecap="round" stroke-linejoin="round"/>
<path fill-rule="evenodd" clip-rule="evenodd" d="M127.75 116.648C127.75 117.585 127.131 118.521 125.894 119.235C123.42 120.664 119.408 120.664 116.934 119.235C115.697 118.521 115.078 117.585 115.078 116.648V120.258C115.078 121.194 115.697 122.13 116.934 122.844C119.408 124.273 123.42 124.273 125.894 122.844C127.131 122.13 127.75 121.194 127.75 120.258V116.648Z" fill="#031A30" stroke="#F0F0F0" stroke-linecap="round" stroke-linejoin="round"/>
<path d="M125.894 119.245C123.42 120.673 119.408 120.673 116.934 119.245C114.46 117.816 114.46 115.5 116.934 114.071C119.408 112.643 123.42 112.643 125.894 114.071C128.369 115.5 128.369 117.816 125.894 119.245Z" fill="#031A30" stroke="#F0F0F0" stroke-linecap="round" stroke-linejoin="round"/>
<path fill-rule="evenodd" clip-rule="evenodd" d="M130.055 121.009C130.587 120.701 131.323 120.746 132.136 121.215L171.391 143.879C173.017 144.817 174.335 147.101 174.335 148.978C174.335 149.879 174.032 150.523 173.536 150.845L175.499 149.712C175.994 149.39 176.298 148.746 176.298 147.845C176.298 145.967 174.98 143.684 173.354 142.746L134.099 120.082C133.286 119.612 132.55 119.568 132.017 119.876L130.055 121.009Z" fill="#031A30" stroke="#F0F0F0" stroke-linecap="round" stroke-linejoin="round"/>
<path fill-rule="evenodd" clip-rule="evenodd" d="M173.523 150.845C172.986 151.194 172.224 151.165 171.379 150.677L132.124 128.014C130.498 127.075 129.18 124.792 129.18 122.914C129.18 121.975 129.509 121.316 130.042 121.008L132.005 119.875C131.472 120.183 131.142 120.842 131.142 121.781C131.142 123.659 132.461 125.942 134.087 126.88L173.341 149.544C174.187 150.032 174.949 150.061 175.486 149.712L173.523 150.845Z" fill="#031A30" stroke="#F0F0F0" stroke-linecap="round" stroke-linejoin="round"/>
<path fill-rule="evenodd" clip-rule="evenodd" d="M129.719 129.602C130.077 129.369 130.585 129.388 131.149 129.714L148.813 139.912C149.897 140.538 150.776 142.06 150.776 143.312C150.776 143.938 150.556 144.378 150.201 144.583L152.164 143.449C152.519 143.244 152.739 142.805 152.739 142.179C152.739 140.927 151.86 139.405 150.776 138.779L133.111 128.581C132.548 128.255 132.039 128.236 131.681 128.469L129.719 129.602Z" fill="#031A30" stroke="#F0F0F0" stroke-linecap="round" stroke-linejoin="round"/>
<path fill-rule="evenodd" clip-rule="evenodd" d="M150.195 144.563C149.84 144.768 149.349 144.739 148.807 144.426L131.142 134.227C130.058 133.601 129.18 132.079 129.18 130.827C129.18 130.227 129.382 129.797 129.713 129.582L131.675 128.449C131.345 128.664 131.142 129.093 131.142 129.694C131.142 130.946 132.021 132.468 133.105 133.094L150.77 143.292C151.312 143.605 151.803 143.635 152.158 143.43L150.195 144.563Z" fill="#031A30" stroke="#F0F0F0" stroke-linecap="round" stroke-linejoin="round"/>
<path fill-rule="evenodd" clip-rule="evenodd" d="M113.75 142.671C113.928 142.569 114.173 142.583 114.444 142.74L128.183 150.672C128.725 150.985 129.164 151.746 129.164 152.372C129.164 152.685 129.055 152.905 128.877 153.007L130.84 151.874C131.017 151.772 131.127 151.552 131.127 151.239C131.127 150.613 130.688 149.852 130.146 149.539L116.407 141.607C116.136 141.45 115.89 141.435 115.713 141.538L113.75 142.671Z" fill="#031A30" stroke="#F0F0F0" stroke-linecap="round" stroke-linejoin="round"/>
<path fill-rule="evenodd" clip-rule="evenodd" d="M128.891 153.001C128.713 153.103 128.468 153.088 128.197 152.932L114.458 145C113.916 144.687 113.477 143.925 113.477 143.3C113.477 142.987 113.586 142.767 113.764 142.664L115.727 141.531C115.549 141.634 115.439 141.854 115.439 142.167C115.439 142.792 115.879 143.553 116.421 143.866L130.16 151.799C130.431 151.955 130.676 151.97 130.854 151.867L128.891 153.001Z" fill="#031A30" stroke="#F0F0F0" stroke-linecap="round" stroke-linejoin="round"/>
<path fill-rule="evenodd" clip-rule="evenodd" d="M131.422 152.866C131.599 152.764 131.845 152.779 132.116 152.935L145.855 160.867C146.397 161.18 146.836 161.942 146.836 162.567C146.836 162.868 146.735 163.082 146.57 163.19L148.533 162.056C148.698 161.949 148.799 161.734 148.799 161.434C148.799 160.808 148.36 160.047 147.818 159.734L134.079 151.802C133.808 151.646 133.562 151.631 133.385 151.733L131.422 152.866Z" fill="#031A30" stroke="#F0F0F0" stroke-linecap="round" stroke-linejoin="round"/>
<path fill-rule="evenodd" clip-rule="evenodd" d="M146.584 163.187C146.405 163.303 146.151 163.294 145.869 163.131L132.13 155.199C131.588 154.886 131.148 154.125 131.148 153.499C131.148 153.186 131.258 152.966 131.436 152.864L133.399 151.73C133.221 151.833 133.111 152.053 133.111 152.366C133.111 152.992 133.551 153.753 134.093 154.066L147.832 161.998C148.114 162.161 148.368 162.17 148.547 162.054L146.584 163.187Z" fill="#031A30" stroke="#F0F0F0" stroke-linecap="round" stroke-linejoin="round"/>
<path fill-rule="evenodd" clip-rule="evenodd" d="M149.062 163.079C149.242 162.962 149.496 162.972 149.777 163.134L173.33 176.733C173.872 177.045 174.312 177.807 174.312 178.432C174.312 178.745 174.202 178.965 174.024 179.068L175.987 177.934C176.164 177.832 176.274 177.612 176.274 177.299C176.274 176.673 175.835 175.912 175.293 175.599L151.74 162.001C151.458 161.838 151.204 161.829 151.025 161.945L149.062 163.079Z" fill="#031A30" stroke="#F0F0F0" stroke-linecap="round" stroke-linejoin="round"/>
<path fill-rule="evenodd" clip-rule="evenodd" d="M174.033 179.075C173.855 179.178 173.61 179.163 173.339 179.007L149.786 165.409C149.244 165.096 148.805 164.334 148.805 163.709C148.805 163.408 148.906 163.194 149.071 163.086L151.034 161.953C150.869 162.061 150.767 162.275 150.767 162.576C150.767 163.201 151.207 163.962 151.749 164.275L175.302 177.874C175.573 178.03 175.818 178.045 175.996 177.942L174.033 179.075Z" fill="#031A30" stroke="#F0F0F0" stroke-linecap="round" stroke-linejoin="round"/>
<path fill-rule="evenodd" clip-rule="evenodd" d="M179.879 131.688C180.69 131.275 181.197 130.317 181.197 128.93V120.813C181.197 118.145 179.324 114.901 177.014 113.567L175.132 112.481L167.185 107.892C166.029 107.225 164.984 107.162 164.227 107.599L169.979 104.278C170.736 103.841 171.781 103.904 172.937 104.571L180.884 109.16L182.766 110.246C185.076 111.58 186.949 114.824 186.949 117.492V125.609C186.949 126.996 186.442 127.954 185.631 128.367L179.879 131.688Z" fill="#031A30" stroke="#F0F0F0" stroke-linecap="round" stroke-linejoin="round"/>
<path fill-rule="evenodd" clip-rule="evenodd" d="M177.012 131.34C179.323 132.674 181.195 131.593 181.195 128.925V120.808C181.195 118.14 179.323 114.896 177.012 113.563L175.13 112.476L167.183 107.888C164.873 106.554 163 107.635 163 110.303V118.42C163 121.088 164.873 124.332 167.183 125.666L177.012 131.34ZM177.831 121.823L175.557 117.896V117.901C175.116 117.135 174.396 116.725 173.95 116.974C173.505 117.223 173.505 118.051 173.95 118.82L175.419 121.357L173.95 122.197C173.505 122.446 173.51 123.277 173.95 124.043C174.391 124.809 175.111 125.225 175.557 124.97L177.831 123.669C178.277 123.42 178.277 122.592 177.831 121.823ZM170.25 116.684L168.781 117.524L170.25 120.06C170.695 120.829 170.695 121.657 170.25 121.906C169.804 122.156 169.084 121.745 168.643 120.979L166.364 117.054C165.919 116.285 165.919 115.457 166.364 115.208L168.639 113.907C169.084 113.652 169.804 114.068 170.245 114.835C170.686 115.601 170.69 116.432 170.245 116.681L170.25 116.684Z" fill="#031A30" stroke="#F0F0F0" stroke-linecap="round" stroke-linejoin="round"/>
<path fill-rule="evenodd" clip-rule="evenodd" d="M186.125 117.584C186.787 117.202 187.702 117.257 188.713 117.84L214.634 132.806C216.656 133.973 218.295 136.812 218.295 139.146V168.673C218.295 169.84 217.885 170.66 217.223 171.043L222.975 167.722C223.637 167.339 224.047 166.519 224.047 165.352V135.825C224.047 133.491 222.408 130.652 220.386 129.485L194.465 114.519C193.454 113.936 192.539 113.881 191.877 114.263L186.125 117.584Z" fill="#031A30" stroke="#F0F0F0" stroke-linecap="round" stroke-linejoin="round"/>
<path d="M185.062 119.957C185.062 117.623 186.701 116.677 188.723 117.844L214.644 132.809C216.665 133.976 218.304 136.815 218.304 139.149V168.676C218.304 171.01 216.665 171.957 214.644 170.789L188.723 155.824C186.701 154.657 185.062 151.818 185.062 149.484V119.957Z" fill="#031A30" stroke="#F0F0F0" stroke-linecap="round" stroke-linejoin="round"/>
<path d="M188.367 123.917C188.367 123.136 188.916 122.82 189.592 123.21L194.841 126.241C195.517 126.631 196.065 127.581 196.065 128.362C196.065 129.143 195.517 129.459 194.841 129.069L189.592 126.039C188.916 125.648 188.367 124.698 188.367 123.917ZM192.56 138.668C192.56 137.999 193.03 137.727 193.61 138.062L198.159 140.688C198.739 141.023 199.209 141.837 199.209 142.507C199.209 143.176 198.739 143.447 198.159 143.113L193.61 140.486C193.03 140.152 192.56 139.338 192.56 138.668ZM192.56 130.378C192.56 129.597 193.108 129.281 193.784 129.671L195.883 130.883C196.56 131.273 197.108 132.223 197.108 133.004C197.108 133.784 196.56 134.101 195.883 133.71L193.784 132.499C193.108 132.108 192.56 131.159 192.56 130.378ZM198.515 133.816C198.515 133.035 199.063 132.719 199.739 133.109L204.638 135.938C205.314 136.328 205.863 137.278 205.863 138.059C205.863 138.84 205.314 139.156 204.638 138.766L199.739 135.938C199.063 135.547 198.515 134.597 198.515 133.816ZM197.115 145.338C197.115 144.669 197.585 144.398 198.165 144.732L204.113 148.167C204.693 148.501 205.163 149.315 205.163 149.985C205.163 150.654 204.693 150.926 204.113 150.591L198.165 147.156C197.585 146.822 197.115 146.008 197.115 145.338ZM206.562 150.792C206.562 150.123 207.032 149.852 207.612 150.187L208.661 150.793C209.241 151.127 209.711 151.941 209.711 152.61C209.711 153.279 209.241 153.551 208.661 153.216L207.612 152.61C207.032 152.276 206.562 151.462 206.562 150.792ZM192.56 134.627C192.56 133.958 193.03 133.687 193.61 134.022L194.659 134.627C195.239 134.962 195.708 135.776 195.708 136.445C195.708 137.114 195.239 137.386 194.659 137.051L193.61 136.445C193.03 136.11 192.56 135.297 192.56 134.627ZM197.115 137.257C197.115 136.588 197.585 136.317 198.165 136.651L210.062 143.52C210.641 143.855 211.111 144.669 211.111 145.338C211.111 146.008 210.641 146.279 210.062 145.944L198.165 139.076C197.585 138.741 197.115 137.927 197.115 137.257ZM192.56 146.951C192.56 146.17 193.108 145.853 193.785 146.244L198.684 149.072C199.36 149.463 199.908 150.413 199.908 151.194C199.908 151.975 199.36 152.291 198.684 151.901L193.785 149.072C193.108 148.682 192.56 147.732 192.56 146.951ZM200.958 151.8C200.958 151.019 201.506 150.702 202.183 151.092L214.08 157.961C214.756 158.352 215.304 159.301 215.304 160.082C215.304 160.863 214.756 161.18 214.08 160.789L202.183 153.921C201.506 153.53 200.958 152.581 200.958 151.8ZM192.56 150.977C192.56 150.197 193.108 149.88 193.784 150.27L196.933 152.088C197.609 152.478 198.157 153.428 198.157 154.209C198.157 154.989 197.609 155.306 196.933 154.916L193.784 153.098C193.108 152.708 192.56 151.758 192.56 150.977ZM199.214 154.819C199.214 154.038 199.763 153.722 200.439 154.112L201.138 154.516C201.815 154.907 202.363 155.856 202.363 156.637C202.363 157.418 201.815 157.734 201.138 157.344L200.439 156.94C199.763 156.549 199.214 155.6 199.214 154.819Z" fill="#031A30" stroke="#F0F0F0" stroke-linecap="round" stroke-linejoin="round"/>
<rect width="27.3083" height="26.8908" rx="5.74105" transform="matrix(0.866025 0.5 -0.866025 0.5 226.352 216.633)" fill="#031A30" stroke="#F0F0F0" stroke-linecap="round" stroke-linejoin="round"/>
<path d="M225.407 229.855C225.407 229.82 225.424 229.788 225.451 229.768V229.768C226.231 229.207 227.283 229.207 228.062 229.768V229.768C228.09 229.788 228.107 229.821 228.107 229.855L228.106 229.932C228.106 229.973 228.093 230.012 228.07 230.045V230.045C227.426 230.946 226.087 230.947 225.443 230.046V230.046C225.419 230.012 225.406 229.972 225.407 229.932L225.407 229.855Z" fill="#031A30" stroke="#F0F0F0" stroke-linecap="round" stroke-linejoin="round"/>
<path d="M225.406 207.855H228.106V229.994V229.994C227.444 230.92 226.068 230.92 225.406 229.994V229.994V207.855Z" fill="#031A30" stroke="#F0F0F0" stroke-linecap="round" stroke-linejoin="round"/>
<path d="M239.222 214.823C239.222 219.893 232.088 223.031 227.019 223.031C221.949 223.031 214.438 218.921 214.438 213.852C214.438 208.782 221.949 176 227.019 176C232.088 176 239.222 209.754 239.222 214.823Z" fill="#031A30" stroke="#F0F0F0" stroke-linecap="round" stroke-linejoin="round"/>
<rect width="27.3083" height="26.8908" rx="5.74105" transform="matrix(0.866025 0.5 -0.866025 0.5 262.289 194.375)" fill="#031A30" stroke="#F0F0F0" stroke-linecap="round" stroke-linejoin="round"/>
<path d="M261.594 207.714C261.594 207.685 261.608 207.658 261.631 207.641V207.641C262.283 207.172 263.163 207.172 263.814 207.641V207.641C263.838 207.658 263.852 207.685 263.851 207.714L263.851 207.779C263.851 207.813 263.84 207.845 263.821 207.873V207.873C263.283 208.626 262.163 208.627 261.624 207.874V207.874C261.604 207.846 261.594 207.812 261.594 207.778L261.594 207.714Z" fill="#031A30" stroke="#F0F0F0" stroke-linecap="round" stroke-linejoin="round"/>
<path d="M261.594 189.32H263.851V207.83V207.83C263.298 208.604 262.147 208.604 261.594 207.83V207.83V189.32Z" fill="#031A30" stroke="#F0F0F0" stroke-linecap="round" stroke-linejoin="round"/>
<circle cx="262.94" cy="190.675" r="7.67458" fill="#031A30" stroke="#F0F0F0" stroke-linecap="round" stroke-linejoin="round"/>
<rect width="32.4261" height="32.4261" transform="matrix(0.866025 0.5 -0.866025 0.5 35.0781 193)" fill="#031A30" stroke="#F0F0F0" stroke-linecap="round" stroke-linejoin="round"/>
<circle cx="0.863947" cy="0.863947" r="0.863947" transform="matrix(0.866025 0.5 -0.866025 0.5 35.0781 222.273)" fill="#F0F0F0"/>
<circle cx="0.863947" cy="0.863947" r="0.863947" transform="matrix(0.866025 0.5 -0.866025 0.5 59.7734 208.266)" fill="#F0F0F0"/>
<circle cx="0.863947" cy="0.863947" r="0.863947" transform="matrix(0.866025 0.5 -0.866025 0.5 10.4766 208.203)" fill="#F0F0F0"/>
<path d="M33.3236 195.808H36.8795L56.7348 207.271L56.7348 209.264L36.8687 220.734H33.3344L13.655 209.372L13.655 207.163L33.3236 195.808Z" fill="#031A30" stroke="#F0F0F0" stroke-linecap="round" stroke-linejoin="round"/>
<circle cx="0.863947" cy="0.863947" r="0.863947" transform="matrix(0.866025 0.5 -0.866025 0.5 35.0781 193.91)" fill="#F0F0F0"/>
<rect width="32.4261" height="32.4261" transform="matrix(0.866025 0.5 -0.866025 0.5 69.0781 212)" fill="#031A30" stroke="#F0F0F0" stroke-linecap="round" stroke-linejoin="round"/>
<circle cx="0.863947" cy="0.863947" r="0.863947" transform="matrix(0.866025 0.5 -0.866025 0.5 69.0781 241.273)" fill="#F0F0F0"/>
<circle cx="0.863947" cy="0.863947" r="0.863947" transform="matrix(0.866025 0.5 -0.866025 0.5 93.7734 227.266)" fill="#F0F0F0"/>
<circle cx="0.863947" cy="0.863947" r="0.863947" transform="matrix(0.866025 0.5 -0.866025 0.5 44.4766 227.203)" fill="#F0F0F0"/>
<path d="M67.3236 214.808H70.8795L90.7348 226.271L90.7348 228.264L70.8687 239.734H67.3344L47.655 228.372L47.655 226.163L67.3236 214.808Z" fill="#031A30" stroke="#F0F0F0" stroke-linecap="round" stroke-linejoin="round"/>
<circle cx="0.863947" cy="0.863947" r="0.863947" transform="matrix(0.866025 0.5 -0.866025 0.5 69.0781 212.91)" fill="#F0F0F0"/>
</svg>
