<svg width="300" height="300" viewBox="0 0 300 300" fill="none" xmlns="http://www.w3.org/2000/svg">
<path fill-rule="evenodd" clip-rule="evenodd" d="M257.996 164.641C257.996 165.808 257.225 166.976 255.681 167.867L155.085 225.947C151.999 227.729 146.994 227.729 143.908 225.947L43.3112 167.867C41.8296 167.012 41.0592 165.901 41 164.781V186.292C41.0592 187.412 41.8296 188.523 43.3112 189.378L143.908 247.458C146.994 249.24 151.999 249.24 155.085 247.458L255.681 189.378C257.225 188.487 257.996 187.319 257.996 186.152V164.641Z" fill="#031A30" stroke="#F0F0F0" stroke-linecap="round" stroke-linejoin="round"/>
<path d="M143.911 103.337C146.998 101.554 152.002 101.554 155.089 103.337L255.685 161.416C258.772 163.198 258.772 166.087 255.685 167.869L155.089 225.949C152.002 227.73 146.998 227.73 143.911 225.949L43.3149 167.869C40.2283 166.087 40.2284 163.198 43.3149 161.416L143.911 103.337Z" fill="#031A30" stroke="#F0F0F0" stroke-linecap="round" stroke-linejoin="round"/>
<path d="M145.027 116.995C147.439 115.606 151.349 115.606 153.761 116.995L232.369 162.269C234.781 163.658 234.781 165.911 232.369 167.3L153.761 212.574C151.349 213.963 147.438 213.963 145.027 212.574L66.4183 167.3C64.0064 165.911 64.0064 163.658 66.4183 162.269L145.027 116.995Z" fill="#031A30" stroke="#F0F0F0" stroke-linecap="round" stroke-linejoin="round"/>
<path fill-rule="evenodd" clip-rule="evenodd" d="M122 149.504C122 145.137 124.885 140.771 130.656 137.439C142.197 130.776 160.909 130.776 172.45 137.439C178.221 140.771 181.106 145.137 181.106 149.504V166.339C181.106 161.972 178.221 157.605 172.45 154.274C160.909 147.61 142.197 147.61 130.656 154.274C124.885 157.605 122 161.972 122 166.339V149.504Z" fill="#072543" stroke="#F0F0F0" stroke-linecap="round" stroke-linejoin="round"/>
<path fill-rule="evenodd" clip-rule="evenodd" d="M181.106 149.5C181.106 153.867 178.221 158.233 172.45 161.565C160.909 168.228 142.197 168.228 130.656 161.565C124.885 158.233 122 153.867 122 149.5V166.335C122 170.702 124.885 175.068 130.656 178.4C142.197 185.063 160.909 185.063 172.45 178.4C178.221 175.068 181.106 170.702 181.106 166.335V149.5Z" fill="#E5F1FE"/>
<path fill-rule="evenodd" clip-rule="evenodd" d="M181.106 149.5C181.106 153.867 178.221 158.233 172.45 161.565C160.909 168.228 142.197 168.228 130.656 161.565C124.885 158.233 122 153.867 122 149.5V166.335C122 170.702 124.885 175.068 130.656 178.4C142.197 185.063 160.909 185.063 172.45 178.4C178.221 175.068 181.106 170.702 181.106 166.335V149.5Z" fill="#031A30"/>
<path fill-rule="evenodd" clip-rule="evenodd" d="M181.106 149.5C181.106 153.867 178.221 158.233 172.45 161.565C160.909 168.228 142.197 168.228 130.656 161.565C124.885 158.233 122 153.867 122 149.5V166.335C122 170.702 124.885 175.068 130.656 178.4C142.197 185.063 160.909 185.063 172.45 178.4C178.221 175.068 181.106 170.702 181.106 166.335V149.5Z" stroke="#F0F0F0" stroke-linecap="round" stroke-linejoin="round"/>
<path d="M172.489 161.569C160.948 168.232 142.236 168.232 130.695 161.569C119.154 154.906 119.154 144.102 130.695 137.439C142.236 130.776 160.948 130.776 172.489 137.439C184.031 144.102 184.031 154.906 172.489 161.569Z" fill="#031A30" stroke="#F0F0F0" stroke-linecap="round" stroke-linejoin="round"/>
<path d="M170.595 159.826C160.143 165.758 143.197 165.758 132.745 159.826C122.293 153.894 122.293 144.276 132.745 138.344C143.197 132.411 160.143 132.411 170.595 138.344C181.047 144.276 181.047 153.894 170.595 159.826Z" fill="#031A30" stroke="#F0F0F0" stroke-linecap="round" stroke-linejoin="round"/>
<path fill-rule="evenodd" clip-rule="evenodd" d="M122 126.293C122 121.926 124.885 117.56 130.656 114.228C142.197 107.565 160.909 107.565 172.45 114.228C178.221 117.56 181.106 121.926 181.106 126.293V143.128C181.106 138.761 178.221 134.394 172.45 131.063C160.909 124.4 142.197 124.4 130.656 131.063C124.885 134.394 122 138.761 122 143.128V126.293Z" fill="#072543" stroke="#F0F0F0" stroke-linecap="round" stroke-linejoin="round"/>
<path fill-rule="evenodd" clip-rule="evenodd" d="M181.106 126.289C181.106 130.656 178.221 135.022 172.45 138.354C160.909 145.017 142.197 145.017 130.656 138.354C124.885 135.022 122 130.656 122 126.289V143.124C122 147.491 124.885 151.857 130.656 155.189C142.197 161.852 160.909 161.852 172.45 155.189C178.221 151.857 181.106 147.491 181.106 143.124V126.289Z" fill="#E5F1FE"/>
<path fill-rule="evenodd" clip-rule="evenodd" d="M181.106 126.289C181.106 130.656 178.221 135.022 172.45 138.354C160.909 145.017 142.197 145.017 130.656 138.354C124.885 135.022 122 130.656 122 126.289V143.124C122 147.491 124.885 151.857 130.656 155.189C142.197 161.852 160.909 161.852 172.45 155.189C178.221 151.857 181.106 147.491 181.106 143.124V126.289Z" fill="#031A30"/>
<path fill-rule="evenodd" clip-rule="evenodd" d="M181.106 126.289C181.106 130.656 178.221 135.022 172.45 138.354C160.909 145.017 142.197 145.017 130.656 138.354C124.885 135.022 122 130.656 122 126.289V143.124C122 147.491 124.885 151.857 130.656 155.189C142.197 161.852 160.909 161.852 172.45 155.189C178.221 151.857 181.106 147.491 181.106 143.124V126.289Z" stroke="#F0F0F0" stroke-linecap="round" stroke-linejoin="round"/>
<path d="M172.489 138.358C160.948 145.021 142.236 145.021 130.695 138.358C119.154 131.695 119.154 120.891 130.695 114.228C142.236 107.565 160.948 107.565 172.489 114.228C184.031 120.891 184.031 131.695 172.489 138.358Z" fill="#031A30" stroke="#F0F0F0" stroke-linecap="round" stroke-linejoin="round"/>
<path d="M170.595 136.615C160.143 142.547 143.197 142.547 132.745 136.615C122.293 130.683 122.293 121.065 132.745 115.133C143.197 109.201 160.143 109.201 170.595 115.133C181.047 121.065 181.047 130.683 170.595 136.615Z" fill="#031A30" stroke="#F0F0F0" stroke-linecap="round" stroke-linejoin="round"/>
<path fill-rule="evenodd" clip-rule="evenodd" d="M122 103.062C122 98.6958 124.885 94.3291 130.656 90.9975C142.197 84.3342 160.909 84.3342 172.45 90.9975C178.221 94.3291 181.106 98.6958 181.106 103.062V119.897C181.106 115.531 178.221 111.164 172.45 107.832C160.909 101.169 142.197 101.169 130.656 107.832C124.885 111.164 122 115.531 122 119.897V103.062Z" fill="#072543" stroke="#F0F0F0" stroke-linecap="round" stroke-linejoin="round"/>
<path fill-rule="evenodd" clip-rule="evenodd" d="M181.106 103.059C181.106 107.425 178.221 111.792 172.45 115.124C160.909 121.787 142.197 121.787 130.656 115.124C124.885 111.792 122 107.425 122 103.059V119.893C122 124.26 124.885 128.627 130.656 131.958C142.197 138.622 160.909 138.622 172.45 131.958C178.221 128.627 181.106 124.26 181.106 119.893V103.059Z" fill="#E5F1FE"/>
<path fill-rule="evenodd" clip-rule="evenodd" d="M181.106 103.059C181.106 107.425 178.221 111.792 172.45 115.124C160.909 121.787 142.197 121.787 130.656 115.124C124.885 111.792 122 107.425 122 103.059V119.893C122 124.26 124.885 128.627 130.656 131.958C142.197 138.622 160.909 138.622 172.45 131.958C178.221 128.627 181.106 124.26 181.106 119.893V103.059Z" fill="#031A30"/>
<path fill-rule="evenodd" clip-rule="evenodd" d="M181.106 103.059C181.106 107.425 178.221 111.792 172.45 115.124C160.909 121.787 142.197 121.787 130.656 115.124C124.885 111.792 122 107.425 122 103.059V119.893C122 124.26 124.885 128.627 130.656 131.958C142.197 138.622 160.909 138.622 172.45 131.958C178.221 128.627 181.106 124.26 181.106 119.893V103.059Z" stroke="#F0F0F0" stroke-linecap="round" stroke-linejoin="round"/>
<path d="M172.489 115.127C160.948 121.791 142.236 121.791 130.695 115.127C119.154 108.464 119.154 97.6608 130.695 90.9975C142.236 84.3342 160.948 84.3342 172.489 90.9975C184.031 97.6608 184.031 108.464 172.489 115.127Z" fill="#031A30" stroke="#F0F0F0" stroke-linecap="round" stroke-linejoin="round"/>
<path d="M170.595 113.385C160.143 119.317 143.197 119.317 132.745 113.385C122.293 107.453 122.293 97.8345 132.745 91.9023C143.197 85.9701 160.143 85.9701 170.595 91.9023C181.047 97.8345 181.047 107.453 170.595 113.385Z" fill="#031A30" stroke="#F0F0F0" stroke-linecap="round" stroke-linejoin="round"/>
<path d="M100.979 133.278L95.2266 136.599L110.879 160.688L116.631 157.367C117.442 156.954 117.949 155.996 117.949 154.609V146.492C117.949 143.824 116.076 140.58 113.766 139.246L111.884 138.16L103.937 133.571C102.781 132.904 101.736 132.841 100.979 133.278Z" fill="#031A30" stroke="#F0F0F0" stroke-linecap="round" stroke-linejoin="round"/>
<path fill-rule="evenodd" clip-rule="evenodd" d="M108.012 160.34C110.323 161.674 112.195 160.593 112.195 157.925V149.808C112.195 147.14 110.323 143.896 108.012 142.563L106.13 141.476L98.1832 136.888C95.8729 135.554 94 136.635 94 139.303V147.42C94 150.088 95.8729 153.332 98.1832 154.666L108.012 160.34ZM108.831 150.823L106.557 146.896V146.901C106.116 146.135 105.396 145.725 104.95 145.974C104.505 146.223 104.505 147.051 104.95 147.82L106.419 150.357L104.95 151.197C104.505 151.446 104.51 152.277 104.95 153.043C105.391 153.809 106.111 154.225 106.557 153.97L108.831 152.669C109.277 152.42 109.277 151.592 108.831 150.823ZM101.25 145.684L99.7808 146.524L101.25 149.06C101.695 149.829 101.695 150.657 101.25 150.906C100.804 151.156 100.084 150.745 99.6434 149.979L97.3643 146.054C96.9189 145.285 96.9189 144.457 97.3643 144.208L99.6387 142.907C100.084 142.652 100.804 143.068 101.245 143.835C101.686 144.601 101.69 145.432 101.245 145.681L101.25 145.684Z" fill="#031A30" stroke="#F0F0F0" stroke-linecap="round" stroke-linejoin="round"/>
<path fill-rule="evenodd" clip-rule="evenodd" d="M80.0625 87.5645C80.7249 87.182 81.64 87.2373 82.6507 87.8208L108.572 102.786C110.593 103.954 112.232 106.792 112.232 109.126V138.653C112.232 139.82 111.822 140.641 111.16 141.023L116.912 137.702C117.574 137.32 117.984 136.499 117.984 135.332V105.805C117.984 103.471 116.345 100.633 114.324 99.4655L88.4027 84.4999C87.392 83.9163 86.4769 83.8611 85.8145 84.2435L80.0625 87.5645Z" fill="#031A30" stroke="#F0F0F0" stroke-linecap="round" stroke-linejoin="round"/>
<path d="M79 89.9335C79 87.5992 80.6388 86.6531 82.6603 87.8202L108.581 102.786C110.603 103.953 112.242 106.791 112.242 109.126V138.653C112.242 140.987 110.603 141.933 108.581 140.766L82.6603 125.8C80.6388 124.633 79 121.795 79 119.461V89.9335Z" fill="#031A30" stroke="#F0F0F0" stroke-linecap="round" stroke-linejoin="round"/>
<path d="M82.3203 93.8978C82.3203 93.1168 82.8686 92.8002 83.545 93.1907L88.7937 96.221C89.4701 96.6115 90.0184 97.5613 90.0184 98.3423C90.0184 99.1233 89.4701 99.4398 88.7937 99.0493L83.545 96.019C82.8686 95.6285 82.3203 94.6788 82.3203 93.8978ZM86.5133 108.649C86.5133 107.979 86.9833 107.708 87.563 108.043L92.1119 110.669C92.6916 111.004 93.1616 111.818 93.1616 112.487C93.1616 113.157 92.6916 113.428 92.1119 113.093L87.563 110.467C86.9833 110.132 86.5133 109.318 86.5133 108.649ZM86.5133 100.359C86.5133 99.5778 87.0614 99.2613 87.7376 99.6517L89.8365 100.863C90.5127 101.254 91.0608 102.203 91.0608 102.984C91.0608 103.765 90.5127 104.081 89.8365 103.691L87.7376 102.479C87.0614 102.089 86.5133 101.139 86.5133 100.359ZM92.4677 103.797C92.4677 103.016 93.016 102.699 93.6924 103.09L98.5911 105.918C99.2675 106.308 99.8159 107.258 99.8159 108.039C99.8159 108.82 99.2675 109.137 98.5911 108.746L93.6924 105.918C93.016 105.528 92.4677 104.578 92.4677 103.797ZM91.068 115.319C91.068 114.649 91.538 114.378 92.1178 114.713L98.0663 118.147C98.6461 118.482 99.1161 119.296 99.1161 119.965C99.1161 120.635 98.6461 120.906 98.0663 120.571L92.1178 117.137C91.538 116.802 91.068 115.988 91.068 115.319ZM100.516 120.773C100.516 120.104 100.985 119.832 101.565 120.167L102.614 120.773C103.194 121.108 103.664 121.921 103.664 122.591C103.664 123.26 103.194 123.531 102.614 123.197L101.565 122.591C100.985 122.256 100.516 121.442 100.516 120.773ZM86.5133 104.608C86.5133 103.939 86.9831 103.667 87.5627 104.002L88.6121 104.608C89.1917 104.943 89.6615 105.756 89.6615 106.426C89.6615 107.095 89.1917 107.366 88.6121 107.031L87.5627 106.426C86.9831 106.091 86.5133 105.277 86.5133 104.608ZM91.068 107.238C91.068 106.568 91.538 106.297 92.1178 106.632L104.015 113.501C104.595 113.835 105.065 114.649 105.065 115.319C105.065 115.988 104.595 116.26 104.015 115.925L92.1178 109.056C91.538 108.721 91.068 107.907 91.068 107.238ZM86.5133 116.932C86.5133 116.151 87.0616 115.834 87.738 116.224L92.6368 119.053C93.3132 119.443 93.8615 120.393 93.8615 121.174C93.8615 121.955 93.3132 122.272 92.6368 121.881L87.738 119.053C87.0616 118.662 86.5133 117.713 86.5133 116.932ZM94.9111 121.78C94.9111 120.999 95.4595 120.682 96.1358 121.073L108.033 127.942C108.709 128.332 109.258 129.282 109.258 130.063C109.258 130.844 108.709 131.16 108.033 130.77L96.1358 123.901C95.4595 123.511 94.9111 122.561 94.9111 121.78ZM86.5133 120.958C86.5133 120.177 87.0614 119.861 87.7376 120.251L90.8859 122.069C91.5621 122.459 92.1102 123.408 92.1102 124.189C92.1102 124.97 91.5621 125.286 90.8859 124.896L87.7376 123.078C87.0614 122.688 86.5133 121.739 86.5133 120.958ZM93.1675 124.8C93.1675 124.019 93.7157 123.702 94.3918 124.093L95.0914 124.497C95.7676 124.887 96.3158 125.836 96.3158 126.617C96.3158 127.398 95.7676 127.715 95.0914 127.324L94.3918 126.92C93.7157 126.53 93.1675 125.58 93.1675 124.8Z" fill="#031A30" stroke="#F0F0F0" stroke-linecap="round" stroke-linejoin="round"/>
<path fill-rule="evenodd" clip-rule="evenodd" d="M179.879 158.688C180.69 158.275 181.197 157.317 181.197 155.93V147.813C181.197 145.145 179.324 141.901 177.014 140.567L175.132 139.481L167.185 134.892C166.029 134.225 164.984 134.162 164.227 134.599L169.979 131.278C170.736 130.841 171.781 130.904 172.937 131.571L180.884 136.16L182.766 137.246C185.076 138.58 186.949 141.824 186.949 144.492V152.609C186.949 153.996 186.442 154.954 185.631 155.367L179.879 158.688Z" fill="#031A30" stroke="#F0F0F0" stroke-linecap="round" stroke-linejoin="round"/>
<path fill-rule="evenodd" clip-rule="evenodd" d="M177.012 158.34C179.323 159.674 181.195 158.593 181.195 155.925V147.808C181.195 145.14 179.323 141.896 177.012 140.563L175.13 139.476L167.183 134.888C164.873 133.554 163 134.635 163 137.303V145.42C163 148.088 164.873 151.332 167.183 152.666L177.012 158.34ZM177.831 148.823L175.557 144.896V144.901C175.116 144.135 174.396 143.725 173.95 143.974C173.505 144.223 173.505 145.051 173.95 145.82L175.419 148.357L173.95 149.197C173.505 149.446 173.51 150.277 173.95 151.043C174.391 151.809 175.111 152.225 175.557 151.97L177.831 150.669C178.277 150.42 178.277 149.592 177.831 148.823ZM170.25 143.684L168.781 144.524L170.25 147.06C170.695 147.829 170.695 148.657 170.25 148.906C169.804 149.156 169.084 148.745 168.643 147.979L166.364 144.054C165.919 143.285 165.919 142.457 166.364 142.208L168.639 140.907C169.084 140.652 169.804 141.068 170.245 141.835C170.686 142.601 170.69 143.432 170.245 143.681L170.25 143.684Z" fill="#031A30" stroke="#F0F0F0" stroke-linecap="round" stroke-linejoin="round"/>
<path fill-rule="evenodd" clip-rule="evenodd" d="M185.062 124.564C185.725 124.182 186.64 124.237 187.651 124.821L213.572 139.786C215.593 140.954 217.232 143.792 217.232 146.126V175.653C217.232 176.82 216.822 177.641 216.16 178.023L221.912 174.702C222.574 174.32 222.984 173.499 222.984 172.332V142.805C222.984 140.471 221.345 137.633 219.324 136.465L193.403 121.5C192.392 120.916 191.477 120.861 190.815 121.244L185.062 124.564Z" fill="#031A30" stroke="#F0F0F0" stroke-linecap="round" stroke-linejoin="round"/>
<path d="M184 126.937C184 124.603 185.639 123.657 187.66 124.824L213.581 139.79C215.603 140.957 217.242 143.795 217.242 146.13V175.657C217.242 177.991 215.603 178.937 213.581 177.77L187.66 162.804C185.639 161.637 184 158.799 184 156.464V126.937Z" fill="#031A30" stroke="#F0F0F0" stroke-linecap="round" stroke-linejoin="round"/>
<path d="M187.305 130.898C187.305 130.117 187.853 129.8 188.529 130.191L193.778 133.221C194.454 133.612 195.003 134.561 195.003 135.342C195.003 136.123 194.454 136.44 193.778 136.049L188.529 133.019C187.853 132.629 187.305 131.679 187.305 130.898ZM191.498 145.649C191.498 144.979 191.968 144.708 192.547 145.043L197.096 147.669C197.676 148.004 198.146 148.818 198.146 149.487C198.146 150.157 197.676 150.428 197.096 150.093L192.547 147.467C191.968 147.132 191.498 146.318 191.498 145.649ZM191.498 137.359C191.498 136.578 192.046 136.261 192.722 136.652L194.821 137.863C195.497 138.254 196.045 139.203 196.045 139.984C196.045 140.765 195.497 141.081 194.821 140.691L192.722 139.479C192.046 139.089 191.498 138.139 191.498 137.359ZM197.452 140.797C197.452 140.016 198 139.699 198.677 140.09L203.576 142.918C204.252 143.308 204.8 144.258 204.8 145.039C204.8 145.82 204.252 146.137 203.576 145.746L198.677 142.918C198 142.528 197.452 141.578 197.452 140.797ZM196.052 152.319C196.052 151.649 196.522 151.378 197.102 151.713L203.051 155.147C203.63 155.482 204.1 156.296 204.1 156.965C204.1 157.635 203.63 157.906 203.051 157.571L197.102 154.137C196.522 153.802 196.052 152.988 196.052 152.319ZM205.5 157.773C205.5 157.104 205.97 156.832 206.549 157.167L207.599 157.773C208.178 158.108 208.648 158.921 208.648 159.591C208.648 160.26 208.178 160.531 207.599 160.197L206.549 159.591C205.97 159.256 205.5 158.442 205.5 157.773ZM191.498 141.608C191.498 140.939 191.968 140.667 192.547 141.002L193.597 141.608C194.176 141.943 194.646 142.756 194.646 143.426C194.646 144.095 194.176 144.366 193.597 144.031L192.547 143.426C191.968 143.091 191.498 142.277 191.498 141.608ZM196.052 144.238C196.052 143.568 196.522 143.297 197.102 143.632L208.999 150.501C209.579 150.835 210.049 151.649 210.049 152.319C210.049 152.988 209.579 153.26 208.999 152.925L197.102 146.056C196.522 145.721 196.052 144.907 196.052 144.238ZM191.498 153.932C191.498 153.151 192.046 152.834 192.722 153.224L197.621 156.053C198.298 156.443 198.846 157.393 198.846 158.174C198.846 158.955 198.298 159.272 197.621 158.881L192.722 156.053C192.046 155.662 191.498 154.713 191.498 153.932ZM199.895 158.78C199.895 157.999 200.444 157.682 201.12 158.073L213.017 164.942C213.694 165.332 214.242 166.282 214.242 167.063C214.242 167.844 213.694 168.16 213.017 167.77L201.12 160.901C200.444 160.511 199.895 159.561 199.895 158.78ZM191.498 157.958C191.498 157.177 192.046 156.861 192.722 157.251L195.87 159.069C196.546 159.459 197.095 160.408 197.095 161.189C197.095 161.97 196.546 162.286 195.87 161.896L192.722 160.078C192.046 159.688 191.498 158.739 191.498 157.958ZM198.152 161.8C198.152 161.019 198.7 160.702 199.376 161.093L200.076 161.497C200.752 161.887 201.3 162.836 201.3 163.617C201.3 164.398 200.752 164.715 200.076 164.324L199.376 163.92C198.7 163.53 198.152 162.58 198.152 161.8Z" fill="#031A30" stroke="#F0F0F0" stroke-linecap="round" stroke-linejoin="round"/>
<rect width="27.3083" height="26.8908" rx="5.74105" transform="matrix(0.866025 0.5 -0.866025 0.5 226.352 216.633)" fill="#031A30" stroke="#F0F0F0" stroke-linecap="round" stroke-linejoin="round"/>
<path d="M225.407 229.855C225.407 229.82 225.424 229.788 225.451 229.768V229.768C226.231 229.207 227.283 229.207 228.062 229.768V229.768C228.09 229.788 228.107 229.821 228.107 229.855L228.106 229.932C228.106 229.973 228.093 230.012 228.07 230.045V230.045C227.426 230.946 226.087 230.947 225.443 230.046V230.046C225.419 230.012 225.406 229.972 225.407 229.932L225.407 229.855Z" fill="#031A30" stroke="#F0F0F0" stroke-linecap="round" stroke-linejoin="round"/>
<path d="M225.406 207.855H228.106V229.994V229.994C227.444 230.92 226.068 230.92 225.406 229.994V229.994V207.855Z" fill="#031A30" stroke="#F0F0F0" stroke-linecap="round" stroke-linejoin="round"/>
<path d="M239.222 214.823C239.222 219.893 232.088 223.031 227.019 223.031C221.949 223.031 214.438 218.921 214.438 213.852C214.438 208.782 221.949 176 227.019 176C232.088 176 239.222 209.754 239.222 214.823Z" fill="#031A30" stroke="#F0F0F0" stroke-linecap="round" stroke-linejoin="round"/>
<rect width="27.3083" height="26.8908" rx="5.74105" transform="matrix(0.866025 0.5 -0.866025 0.5 262.289 194.375)" fill="#031A30" stroke="#F0F0F0" stroke-linecap="round" stroke-linejoin="round"/>
<path d="M261.594 207.714C261.594 207.685 261.608 207.658 261.631 207.641V207.641C262.283 207.172 263.163 207.172 263.814 207.641V207.641C263.838 207.658 263.852 207.685 263.851 207.714L263.851 207.779C263.851 207.813 263.84 207.845 263.821 207.873V207.873C263.283 208.626 262.163 208.627 261.624 207.874V207.874C261.604 207.846 261.594 207.812 261.594 207.778L261.594 207.714Z" fill="#031A30" stroke="#F0F0F0" stroke-linecap="round" stroke-linejoin="round"/>
<path d="M261.594 189.32H263.851V207.83V207.83C263.298 208.604 262.147 208.604 261.594 207.83V207.83V189.32Z" fill="#031A30" stroke="#F0F0F0" stroke-linecap="round" stroke-linejoin="round"/>
<circle cx="262.94" cy="190.675" r="7.67458" fill="#031A30" stroke="#F0F0F0" stroke-linecap="round" stroke-linejoin="round"/>
<rect width="32.4261" height="32.4261" transform="matrix(0.866025 0.5 -0.866025 0.5 35.0781 193)" fill="#031A30" stroke="#F0F0F0" stroke-linecap="round" stroke-linejoin="round"/>
<circle cx="0.863947" cy="0.863947" r="0.863947" transform="matrix(0.866025 0.5 -0.866025 0.5 35.0781 222.273)" fill="#F0F0F0"/>
<circle cx="0.863947" cy="0.863947" r="0.863947" transform="matrix(0.866025 0.5 -0.866025 0.5 59.7734 208.266)" fill="#F0F0F0"/>
<circle cx="0.863947" cy="0.863947" r="0.863947" transform="matrix(0.866025 0.5 -0.866025 0.5 10.4766 208.203)" fill="#F0F0F0"/>
<path d="M33.3236 195.808H36.8795L56.7348 207.271L56.7348 209.264L36.8687 220.734H33.3344L13.655 209.372L13.655 207.163L33.3236 195.808Z" fill="#031A30" stroke="#F0F0F0" stroke-linecap="round" stroke-linejoin="round"/>
<circle cx="0.863947" cy="0.863947" r="0.863947" transform="matrix(0.866025 0.5 -0.866025 0.5 35.0781 193.91)" fill="#F0F0F0"/>
<rect width="32.4261" height="32.4261" transform="matrix(0.866025 0.5 -0.866025 0.5 69.0781 212)" fill="#031A30" stroke="#F0F0F0" stroke-linecap="round" stroke-linejoin="round"/>
<circle cx="0.863947" cy="0.863947" r="0.863947" transform="matrix(0.866025 0.5 -0.866025 0.5 69.0781 241.273)" fill="#F0F0F0"/>
<circle cx="0.863947" cy="0.863947" r="0.863947" transform="matrix(0.866025 0.5 -0.866025 0.5 93.7734 227.266)" fill="#F0F0F0"/>
<circle cx="0.863947" cy="0.863947" r="0.863947" transform="matrix(0.866025 0.5 -0.866025 0.5 44.4766 227.203)" fill="#F0F0F0"/>
<path d="M67.3236 214.808H70.8795L90.7348 226.271L90.7348 228.264L70.8687 239.734H67.3344L47.655 228.372L47.655 226.163L67.3236 214.808Z" fill="#031A30" stroke="#F0F0F0" stroke-linecap="round" stroke-linejoin="round"/>
<circle cx="0.863947" cy="0.863947" r="0.863947" transform="matrix(0.866025 0.5 -0.866025 0.5 69.0781 212.91)" fill="#F0F0F0"/>
</svg>
