<svg width="300" height="300" viewBox="0 0 300 300" fill="none" xmlns="http://www.w3.org/2000/svg">
<rect width="32.4261" height="32.4261" transform="matrix(0.866025 0.5 -0.866025 0.5 226.578 214.387)" fill="#031A30" stroke="#F0F0F0" stroke-linecap="round" stroke-linejoin="round"/>
<circle cx="0.863947" cy="0.863947" r="0.863947" transform="matrix(0.866025 0.5 -0.866025 0.5 226.578 243.66)" fill="#F0F0F0"/>
<circle cx="0.863947" cy="0.863947" r="0.863947" transform="matrix(0.866025 0.5 -0.866025 0.5 251.273 229.652)" fill="#F0F0F0"/>
<circle cx="0.863947" cy="0.863947" r="0.863947" transform="matrix(0.866025 0.5 -0.866025 0.5 201.977 229.59)" fill="#F0F0F0"/>
<path d="M224.824 217.194H228.38L248.235 228.658L248.235 230.651L228.369 242.12H224.834L205.155 230.759L205.155 228.55L224.824 217.194Z" fill="#031A30" stroke="#F0F0F0" stroke-linecap="round" stroke-linejoin="round"/>
<circle cx="0.863947" cy="0.863947" r="0.863947" transform="matrix(0.866025 0.5 -0.866025 0.5 226.578 215.297)" fill="#F0F0F0"/>
<rect width="32.4261" height="32.4261" transform="matrix(0.866025 0.5 -0.866025 0.5 261.078 193)" fill="#031A30" stroke="#F0F0F0" stroke-linecap="round" stroke-linejoin="round"/>
<circle cx="0.863947" cy="0.863947" r="0.863947" transform="matrix(0.866025 0.5 -0.866025 0.5 261.078 222.273)" fill="#F0F0F0"/>
<circle cx="0.863947" cy="0.863947" r="0.863947" transform="matrix(0.866025 0.5 -0.866025 0.5 285.773 208.266)" fill="#F0F0F0"/>
<circle cx="0.863947" cy="0.863947" r="0.863947" transform="matrix(0.866025 0.5 -0.866025 0.5 236.477 208.203)" fill="#F0F0F0"/>
<path d="M259.324 195.808H262.88L282.735 207.271L282.735 209.264L262.869 220.734H259.334L239.655 209.372L239.655 207.163L259.324 195.808Z" fill="#031A30" stroke="#F0F0F0" stroke-linecap="round" stroke-linejoin="round"/>
<circle cx="0.863947" cy="0.863947" r="0.863947" transform="matrix(0.866025 0.5 -0.866025 0.5 261.078 193.91)" fill="#F0F0F0"/>
<path fill-rule="evenodd" clip-rule="evenodd" d="M257.996 165.039C257.996 166.207 257.225 167.375 255.681 168.266L155.085 226.345C151.999 228.127 146.994 228.127 143.908 226.345L43.3112 168.266C41.8296 167.41 41.0592 166.3 41 165.179V186.69C41.0592 187.811 41.8296 188.921 43.3112 189.777L143.908 247.856C146.994 249.638 151.999 249.638 155.085 247.856L255.681 189.777C257.225 188.886 257.996 187.718 257.996 186.55V165.039Z" fill="#031A30" stroke="#F0F0F0" stroke-linecap="round" stroke-linejoin="round"/>
<path d="M143.911 103.735C146.998 101.953 152.002 101.953 155.089 103.735L255.685 161.814C258.772 163.596 258.772 166.486 255.685 168.268L155.089 226.347C152.002 228.129 146.998 228.129 143.911 226.347L43.3149 168.268C40.2283 166.486 40.2284 163.596 43.3149 161.814L143.911 103.735Z" fill="#031A30" stroke="#F0F0F0" stroke-linecap="round" stroke-linejoin="round"/>
<path d="M145.027 117.393C147.439 116.004 151.349 116.004 153.761 117.393L232.369 162.668C234.781 164.057 234.781 166.309 232.369 167.698L153.761 212.973C151.349 214.362 147.438 214.362 145.027 212.973L66.4183 167.698C64.0064 166.309 64.0064 164.057 66.4183 162.668L145.027 117.393Z" fill="#031A30" stroke="#F0F0F0" stroke-linecap="round" stroke-linejoin="round"/>
<path d="M138.704 129.561C140.306 128.636 142.904 128.636 144.506 129.561L196.719 159.713C198.321 160.638 198.321 162.138 196.719 163.063L144.506 193.214C142.904 194.139 140.306 194.139 138.704 193.214L86.4906 163.063C84.8885 162.138 84.8886 160.638 86.4906 159.713L138.704 129.561Z" stroke="#F0F0F0" stroke-linecap="round" stroke-linejoin="round"/>
<path d="M151.392 129.561C152.994 128.636 155.591 128.636 157.193 129.561L209.407 159.713C211.009 160.638 211.009 162.138 209.407 163.063L157.193 193.214C155.591 194.139 152.994 194.139 151.392 193.214L99.1781 163.063C97.576 162.138 97.5761 160.638 99.1781 159.713L151.392 129.561Z" stroke="#F0F0F0" stroke-linecap="round" stroke-linejoin="round"/>
<path fill-rule="evenodd" clip-rule="evenodd" d="M123.367 118.962C123.367 115.407 125.716 111.852 130.415 109.139C139.811 103.714 155.046 103.714 164.443 109.139C169.141 111.852 171.49 115.407 171.49 118.962V132.669C171.49 129.113 169.141 125.558 164.443 122.846C155.046 117.421 139.811 117.421 130.415 122.846C125.716 125.558 123.367 129.113 123.367 132.669V118.962Z" fill="#031A30" stroke="#F0F0F0" stroke-linecap="round" stroke-linejoin="round"/>
<path fill-rule="evenodd" clip-rule="evenodd" d="M171.49 118.969C171.49 122.524 169.141 126.079 164.443 128.792C155.046 134.217 139.811 134.217 130.415 128.792C125.716 126.079 123.367 122.524 123.367 118.969V132.675C123.367 136.231 125.716 139.786 130.415 142.498C139.811 147.923 155.046 147.923 164.443 142.498C169.141 139.786 171.49 136.231 171.49 132.675V118.969Z" fill="#031A30" stroke="#F0F0F0" stroke-linecap="round" stroke-linejoin="round"/>
<path d="M164.443 128.785C155.046 134.21 139.811 134.21 130.415 128.785C121.018 123.36 121.018 114.564 130.415 109.139C139.811 103.714 155.046 103.714 164.443 109.139C173.839 114.564 173.839 123.36 164.443 128.785Z" fill="#031A30" stroke="#F0F0F0" stroke-linecap="round" stroke-linejoin="round"/>
<path fill-rule="evenodd" clip-rule="evenodd" d="M123.367 99.9231C123.367 96.3678 125.716 92.8126 130.415 90.1001C139.811 84.675 155.046 84.675 164.443 90.1001C169.141 92.8126 171.49 96.3678 171.49 99.9231V113.63C171.49 110.074 169.141 106.519 164.443 103.807C155.046 98.3815 139.811 98.3815 130.415 103.807C125.716 106.519 123.367 110.074 123.367 113.63V99.9231Z" fill="#031A30" stroke="#F0F0F0" stroke-linecap="round" stroke-linejoin="round"/>
<path fill-rule="evenodd" clip-rule="evenodd" d="M171.49 99.9297C171.49 103.485 169.141 107.04 164.443 109.753C155.046 115.178 139.811 115.178 130.415 109.753C125.716 107.04 123.367 103.485 123.367 99.9297V113.636C123.367 117.191 125.716 120.747 130.415 123.459C139.811 128.884 155.046 128.884 164.443 123.459C169.141 120.747 171.49 117.191 171.49 113.636V99.9297Z" fill="#031A30" stroke="#F0F0F0" stroke-linecap="round" stroke-linejoin="round"/>
<path d="M164.443 109.746C155.046 115.171 139.811 115.171 130.415 109.746C121.018 104.321 121.018 95.5252 130.415 90.1001C139.811 84.675 155.046 84.675 164.443 90.1001C173.839 95.5252 173.839 104.321 164.443 109.746Z" fill="#031A30" stroke="#F0F0F0" stroke-linecap="round" stroke-linejoin="round"/>
<path fill-rule="evenodd" clip-rule="evenodd" d="M123.367 80.8918C123.367 77.3366 125.716 73.7814 130.415 71.0688C139.811 65.6437 155.046 65.6437 164.443 71.0688C169.141 73.7814 171.49 77.3366 171.49 80.8918V94.5984C171.49 91.0431 169.141 87.4879 164.443 84.7754C155.046 79.3503 139.811 79.3503 130.415 84.7754C125.716 87.4879 123.367 91.0431 123.367 94.5984V80.8918Z" fill="#031A30" stroke="#F0F0F0" stroke-linecap="round" stroke-linejoin="round"/>
<path fill-rule="evenodd" clip-rule="evenodd" d="M171.49 80.8984C171.49 84.4537 169.141 88.0089 164.443 90.7215C155.046 96.1465 139.811 96.1465 130.415 90.7215C125.716 88.0089 123.367 84.4537 123.367 80.8984V94.605C123.367 98.1602 125.716 101.715 130.415 104.428C139.811 109.853 155.046 109.853 164.443 104.428C169.141 101.715 171.49 98.1602 171.49 94.605V80.8984Z" fill="#031A30" stroke="#F0F0F0" stroke-linecap="round" stroke-linejoin="round"/>
<path d="M164.443 90.7148C155.046 96.1399 139.811 96.1399 130.415 90.7148C121.018 85.2898 121.018 76.4939 130.415 71.0688C139.811 65.6437 155.046 65.6437 164.443 71.0688C173.839 76.4939 173.839 85.2898 164.443 90.7148Z" fill="#031A30"/>
<path d="M164.443 90.7148C155.046 96.1399 139.811 96.1399 130.415 90.7148C121.018 85.2898 121.018 76.4939 130.415 71.0688C139.811 65.6437 155.046 65.6437 164.443 71.0688C173.839 76.4939 173.839 85.2898 164.443 90.7148Z" fill="#031A30"/>
<path d="M164.443 90.7148C155.046 96.1399 139.811 96.1399 130.415 90.7148C121.018 85.2898 121.018 76.4939 130.415 71.0688C139.811 65.6437 155.046 65.6437 164.443 71.0688C173.839 76.4939 173.839 85.2898 164.443 90.7148Z" stroke="#F0F0F0" stroke-linecap="round" stroke-linejoin="round"/>
<path d="M163.207 89.6512C154.459 94.6497 140.277 94.6497 131.529 89.6512C122.782 84.6526 122.782 76.5483 131.529 71.5497C140.277 66.5511 154.459 66.5511 163.207 71.5497C171.954 76.5483 171.954 84.6526 163.207 89.6512Z" fill="#031A30" stroke="#F0F0F0" stroke-linecap="round" stroke-linejoin="round"/>
<path fill-rule="evenodd" clip-rule="evenodd" d="M163.016 166.326C163.016 163.641 164.79 160.957 168.337 158.908C175.433 154.812 186.937 154.812 194.033 158.908C197.581 160.957 199.355 163.641 199.355 166.326V176.676C199.355 173.992 197.581 171.307 194.033 169.259C186.937 165.162 175.433 165.162 168.337 169.259C164.79 171.307 163.016 173.992 163.016 176.676V166.326Z" fill="#031A30" stroke="#F0F0F0" stroke-linecap="round" stroke-linejoin="round"/>
<path fill-rule="evenodd" clip-rule="evenodd" d="M199.355 166.328C199.355 169.013 197.581 171.697 194.033 173.746C186.937 177.842 175.433 177.842 168.337 173.746C164.79 171.697 163.016 169.013 163.016 166.328V176.678C163.016 179.363 164.79 182.048 168.337 184.096C175.433 188.193 186.937 188.193 194.033 184.096C197.581 182.048 199.355 179.363 199.355 176.678V166.328Z" fill="#031A30" stroke="#F0F0F0" stroke-linecap="round" stroke-linejoin="round"/>
<path d="M194.056 173.744C186.961 177.84 175.456 177.84 168.361 173.744C161.265 169.647 161.265 163.005 168.361 158.908C175.456 154.812 186.961 154.812 194.056 158.908C201.152 163.005 201.152 169.647 194.056 173.744Z" fill="#031A30" stroke="#F0F0F0" stroke-linecap="round" stroke-linejoin="round"/>
<path fill-rule="evenodd" clip-rule="evenodd" d="M163.016 152.049C163.016 149.364 164.79 146.679 168.337 144.631C175.433 140.534 186.937 140.534 194.033 144.631C197.581 146.679 199.355 149.364 199.355 152.049V162.399C199.355 159.714 197.581 157.03 194.033 154.981C186.937 150.885 175.433 150.885 168.337 154.981C164.79 157.03 163.016 159.714 163.016 162.399V152.049Z" fill="#031A30" stroke="#F0F0F0" stroke-linecap="round" stroke-linejoin="round"/>
<path fill-rule="evenodd" clip-rule="evenodd" d="M199.355 152.051C199.355 154.735 197.581 157.42 194.033 159.468C186.937 163.565 175.433 163.565 168.337 159.468C164.79 157.42 163.016 154.735 163.016 152.051V162.401C163.016 165.086 164.79 167.77 168.337 169.819C175.433 173.915 186.937 173.915 194.033 169.819C197.581 167.77 199.355 165.086 199.355 162.401V152.051Z" fill="#031A30" stroke="#F0F0F0" stroke-linecap="round" stroke-linejoin="round"/>
<path d="M194.056 159.466C186.961 163.563 175.456 163.563 168.361 159.466C161.265 155.37 161.265 148.728 168.361 144.631C175.456 140.534 186.961 140.534 194.056 144.631C201.152 148.728 201.152 155.37 194.056 159.466Z" fill="#031A30" stroke="#F0F0F0" stroke-linecap="round" stroke-linejoin="round"/>
<path fill-rule="evenodd" clip-rule="evenodd" d="M163.016 137.771C163.016 135.087 164.79 132.402 168.337 130.354C175.433 126.257 186.937 126.257 194.033 130.354C197.581 132.402 199.355 135.087 199.355 137.771V148.122C199.355 145.437 197.581 142.752 194.033 140.704C186.937 136.607 175.433 136.607 168.337 140.704C164.79 142.752 163.016 145.437 163.016 148.122V137.771Z" fill="#031A30" stroke="#F0F0F0" stroke-linecap="round" stroke-linejoin="round"/>
<path fill-rule="evenodd" clip-rule="evenodd" d="M199.355 137.773C199.355 140.458 197.581 143.143 194.033 145.191C186.937 149.288 175.433 149.288 168.337 145.191C164.79 143.143 163.016 140.458 163.016 137.773V148.124C163.016 150.808 164.79 153.493 168.337 155.541C175.433 159.638 186.937 159.638 194.033 155.541C197.581 153.493 199.355 150.808 199.355 148.124V137.773Z" fill="#031A30" stroke="#F0F0F0" stroke-linecap="round" stroke-linejoin="round"/>
<path d="M194.056 145.189C186.961 149.286 175.456 149.286 168.361 145.189C161.265 141.092 161.265 134.45 168.361 130.354C175.456 126.257 186.961 126.257 194.056 130.354C201.152 134.45 201.152 141.092 194.056 145.189Z" fill="#031A30" stroke="#F0F0F0" stroke-linecap="round" stroke-linejoin="round"/>
<path d="M192.895 144.115C186.469 147.762 176.05 147.762 169.624 144.115C163.198 140.468 163.198 134.554 169.624 130.907C176.05 127.26 186.469 127.26 192.895 130.907C199.321 134.554 199.321 140.468 192.895 144.115Z" fill="#031A30" stroke="#F0F0F0" stroke-linecap="round" stroke-linejoin="round"/>
<path fill-rule="evenodd" clip-rule="evenodd" d="M97.9688 166.326C97.9688 163.641 99.7427 160.957 103.29 158.908C110.386 154.812 121.89 154.812 128.986 158.908C132.534 160.957 134.308 163.641 134.308 166.326V176.676C134.308 173.992 132.534 171.307 128.986 169.259C121.89 165.162 110.386 165.162 103.29 169.259C99.7427 171.307 97.9688 173.992 97.9688 176.676V166.326Z" fill="#031A30" stroke="#F0F0F0" stroke-linecap="round" stroke-linejoin="round"/>
<path fill-rule="evenodd" clip-rule="evenodd" d="M134.308 166.328C134.308 169.013 132.534 171.697 128.986 173.746C121.89 177.842 110.386 177.842 103.29 173.746C99.7427 171.697 97.9688 169.013 97.9688 166.328V176.678C97.9688 179.363 99.7427 182.048 103.29 184.096C110.386 188.193 121.89 188.193 128.986 184.096C132.534 182.048 134.308 179.363 134.308 176.678V166.328Z" fill="#031A30" stroke="#F0F0F0" stroke-linecap="round" stroke-linejoin="round"/>
<path d="M128.986 173.744C121.89 177.84 110.386 177.84 103.29 173.744C96.1948 169.647 96.1948 163.005 103.29 158.908C110.386 154.812 121.89 154.812 128.986 158.908C136.082 163.005 136.082 169.647 128.986 173.744Z" fill="#031A30" stroke="#F0F0F0" stroke-linecap="round" stroke-linejoin="round"/>
<path fill-rule="evenodd" clip-rule="evenodd" d="M97.9688 152.049C97.9688 149.364 99.7427 146.679 103.29 144.631C110.386 140.534 121.89 140.534 128.986 144.631C132.534 146.679 134.308 149.364 134.308 152.049V162.399C134.308 159.714 132.534 157.03 128.986 154.981C121.89 150.885 110.386 150.885 103.29 154.981C99.7427 157.03 97.9688 159.714 97.9688 162.399V152.049Z" fill="#031A30" stroke="#F0F0F0" stroke-linecap="round" stroke-linejoin="round"/>
<path fill-rule="evenodd" clip-rule="evenodd" d="M134.308 152.051C134.308 154.735 132.534 157.42 128.986 159.468C121.89 163.565 110.386 163.565 103.29 159.468C99.7427 157.42 97.9688 154.735 97.9688 152.051V162.401C97.9688 165.086 99.7427 167.77 103.29 169.819C110.386 173.915 121.89 173.915 128.986 169.819C132.534 167.77 134.308 165.086 134.308 162.401V152.051Z" fill="#031A30" stroke="#F0F0F0" stroke-linecap="round" stroke-linejoin="round"/>
<path d="M128.986 159.466C121.89 163.563 110.386 163.563 103.29 159.466C96.1948 155.37 96.1948 148.728 103.29 144.631C110.386 140.534 121.89 140.534 128.986 144.631C136.082 148.728 136.082 155.37 128.986 159.466Z" fill="#031A30" stroke="#F0F0F0" stroke-linecap="round" stroke-linejoin="round"/>
<path fill-rule="evenodd" clip-rule="evenodd" d="M97.9688 137.771C97.9688 135.087 99.7427 132.402 103.29 130.354C110.386 126.257 121.89 126.257 128.986 130.354C132.534 132.402 134.308 135.087 134.308 137.771V148.122C134.308 145.437 132.534 142.752 128.986 140.704C121.89 136.607 110.386 136.607 103.29 140.704C99.7427 142.752 97.9688 145.437 97.9688 148.122V137.771Z" fill="#031A30" stroke="#F0F0F0" stroke-linecap="round" stroke-linejoin="round"/>
<path fill-rule="evenodd" clip-rule="evenodd" d="M134.308 137.773C134.308 140.458 132.534 143.143 128.986 145.191C121.89 149.288 110.386 149.288 103.29 145.191C99.7427 143.143 97.9688 140.458 97.9688 137.773V148.124C97.9688 150.808 99.7427 153.493 103.29 155.541C110.386 159.638 121.89 159.638 128.986 155.541C132.534 153.493 134.308 150.808 134.308 148.124V137.773Z" fill="#031A30" stroke="#F0F0F0" stroke-linecap="round" stroke-linejoin="round"/>
<path d="M128.986 145.189C121.89 149.286 110.386 149.286 103.29 145.189C96.1948 141.092 96.1948 134.45 103.29 130.354C110.386 126.257 121.89 126.257 128.986 130.354C136.082 134.45 136.082 141.092 128.986 145.189Z" fill="#031A30" stroke="#F0F0F0" stroke-linecap="round" stroke-linejoin="round"/>
<path d="M127.848 144.115C121.422 147.762 111.003 147.762 104.577 144.115C98.1513 140.468 98.1513 134.554 104.577 130.907C111.003 127.26 121.422 127.26 127.848 130.907C134.274 134.554 134.274 140.468 127.848 144.115Z" fill="#031A30" stroke="#F0F0F0" stroke-linecap="round" stroke-linejoin="round"/>
<rect width="27.3083" height="26.8908" rx="5.74105" transform="matrix(0.866025 0.5 -0.866025 0.5 68.3516 214.633)" fill="#031A30" stroke="#F0F0F0" stroke-linecap="round" stroke-linejoin="round"/>
<path d="M67.4069 227.855C67.407 227.82 67.4235 227.788 67.4513 227.768V227.768C68.231 227.207 69.2826 227.207 70.0622 227.768V227.768C70.0903 227.788 70.1068 227.821 70.1067 227.855L70.1063 227.932C70.1062 227.973 70.0934 228.012 70.07 228.045V228.045C69.4263 228.946 68.0865 228.947 67.4429 228.046V228.046C67.4191 228.012 67.4063 227.972 67.4065 227.932L67.4069 227.855Z" fill="#031A30" stroke="#F0F0F0" stroke-linecap="round" stroke-linejoin="round"/>
<path d="M67.4062 205.855H70.1061V227.994V227.994C69.4445 228.92 68.0679 228.92 67.4062 227.994V227.994V205.855Z" fill="#031A30" stroke="#F0F0F0" stroke-linecap="round" stroke-linejoin="round"/>
<path d="M81.2219 212.823C81.2219 217.893 74.0883 221.031 69.0187 221.031C63.949 221.031 56.4375 216.921 56.4375 211.852C56.4375 206.782 63.949 174 69.0187 174C74.0883 174 81.2219 207.754 81.2219 212.823Z" fill="#031A30" stroke="#F0F0F0" stroke-linecap="round" stroke-linejoin="round"/>
<rect width="27.3083" height="26.8908" rx="5.74105" transform="matrix(0.866025 0.5 -0.866025 0.5 34.2891 195.375)" fill="#031A30" stroke="#F0F0F0" stroke-linecap="round" stroke-linejoin="round"/>
<path d="M33.5943 208.714C33.5944 208.685 33.6082 208.658 33.6314 208.641V208.641C34.2833 208.172 35.1625 208.172 35.8143 208.641V208.641C35.8378 208.658 35.8516 208.685 35.8515 208.714L35.8512 208.779C35.8511 208.813 35.8404 208.845 35.8208 208.873V208.873C35.2826 209.626 34.1625 209.627 33.6244 208.874V208.874C33.6045 208.846 33.5938 208.812 33.594 208.778L33.5943 208.714Z" fill="#031A30" stroke="#F0F0F0" stroke-linecap="round" stroke-linejoin="round"/>
<path d="M33.5938 190.32H35.851V208.83V208.83C35.2978 209.604 34.1469 209.604 33.5938 208.83V208.83V190.32Z" fill="#031A30" stroke="#F0F0F0" stroke-linecap="round" stroke-linejoin="round"/>
<circle cx="34.9402" cy="191.675" r="7.67458" fill="#031A30" stroke="#F0F0F0" stroke-linecap="round" stroke-linejoin="round"/>
</svg>
