<svg width="300" height="300" viewBox="0 0 300 300" fill="none" xmlns="http://www.w3.org/2000/svg">
<rect width="32.4261" height="32.4261" transform="matrix(0.866025 0.5 -0.866025 0.5 226.578 214.387)" fill="#031A30" stroke="#F0F0F0" stroke-linecap="round" stroke-linejoin="round"/>
<circle cx="0.863947" cy="0.863947" r="0.863947" transform="matrix(0.866025 0.5 -0.866025 0.5 226.578 243.66)" fill="#F0F0F0"/>
<circle cx="0.863947" cy="0.863947" r="0.863947" transform="matrix(0.866025 0.5 -0.866025 0.5 251.273 229.652)" fill="#F0F0F0"/>
<circle cx="0.863947" cy="0.863947" r="0.863947" transform="matrix(0.866025 0.5 -0.866025 0.5 201.977 229.59)" fill="#F0F0F0"/>
<path d="M224.824 217.194H228.38L248.235 228.658L248.235 230.651L228.369 242.12H224.834L205.155 230.759L205.155 228.55L224.824 217.194Z" fill="#031A30" stroke="#F0F0F0" stroke-linecap="round" stroke-linejoin="round"/>
<circle cx="0.863947" cy="0.863947" r="0.863947" transform="matrix(0.866025 0.5 -0.866025 0.5 226.578 215.297)" fill="#F0F0F0"/>
<rect width="32.4261" height="32.4261" transform="matrix(0.866025 0.5 -0.866025 0.5 261.078 193)" fill="#031A30" stroke="#F0F0F0" stroke-linecap="round" stroke-linejoin="round"/>
<circle cx="0.863947" cy="0.863947" r="0.863947" transform="matrix(0.866025 0.5 -0.866025 0.5 261.078 222.273)" fill="#F0F0F0"/>
<circle cx="0.863947" cy="0.863947" r="0.863947" transform="matrix(0.866025 0.5 -0.866025 0.5 285.773 208.266)" fill="#F0F0F0"/>
<circle cx="0.863947" cy="0.863947" r="0.863947" transform="matrix(0.866025 0.5 -0.866025 0.5 236.477 208.203)" fill="#F0F0F0"/>
<path d="M259.324 195.808H262.88L282.735 207.271L282.735 209.264L262.869 220.734H259.334L239.655 209.372L239.655 207.163L259.324 195.808Z" fill="#031A30" stroke="#F0F0F0" stroke-linecap="round" stroke-linejoin="round"/>
<circle cx="0.863947" cy="0.863947" r="0.863947" transform="matrix(0.866025 0.5 -0.866025 0.5 261.078 193.91)" fill="#F0F0F0"/>
<path fill-rule="evenodd" clip-rule="evenodd" d="M257.996 165.039C257.996 166.207 257.225 167.375 255.681 168.266L155.085 226.345C151.999 228.127 146.994 228.127 143.908 226.345L43.3112 168.266C41.8296 167.41 41.0592 166.3 41 165.179V186.69C41.0592 187.811 41.8296 188.921 43.3112 189.777L143.908 247.856C146.994 249.638 151.999 249.638 155.085 247.856L255.681 189.777C257.225 188.886 257.996 187.718 257.996 186.55V165.039Z" fill="#031A30" stroke="#F0F0F0" stroke-linecap="round" stroke-linejoin="round"/>
<path d="M143.911 103.735C146.998 101.953 152.002 101.953 155.089 103.735L255.685 161.814C258.772 163.596 258.772 166.486 255.685 168.268L155.089 226.347C152.002 228.129 146.998 228.129 143.911 226.347L43.3149 168.268C40.2283 166.486 40.2284 163.596 43.3149 161.814L143.911 103.735Z" fill="#031A30" stroke="#F0F0F0" stroke-linecap="round" stroke-linejoin="round"/>
<path d="M145.027 117.393C147.439 116.004 151.349 116.004 153.761 117.393L232.369 162.668C234.781 164.057 234.781 166.309 232.369 167.698L153.761 212.973C151.349 214.362 147.438 214.362 145.027 212.973L66.4183 167.698C64.0064 166.309 64.0064 164.057 66.4183 162.668L145.027 117.393Z" fill="#031A30" stroke="#F0F0F0" stroke-linecap="round" stroke-linejoin="round"/>
<path fill-rule="evenodd" clip-rule="evenodd" d="M125.039 80.467L161.473 101.502V180.768C161.473 181.344 161.28 181.716 160.982 181.894L166.933 178.458C167.231 178.281 167.424 177.908 167.424 177.333V98.0664L130.99 77.0312L125.039 80.467Z" fill="#031A30" stroke="white" stroke-linecap="round" stroke-linejoin="round"/>
<path fill-rule="evenodd" clip-rule="evenodd" d="M143.255 154.088L128.023 162.882L133.974 159.447L149.206 150.652L143.255 154.088Z" fill="#031A30" stroke="white" stroke-linecap="round" stroke-linejoin="round"/>
<path fill-rule="evenodd" clip-rule="evenodd" d="M128.024 162.884C126.923 163.52 125.039 161.532 125.039 159.733V80.467L130.99 77.0312V156.297C130.99 158.096 132.873 160.085 133.975 159.449L128.024 162.884Z" fill="#031A30" stroke="white" stroke-linecap="round" stroke-linejoin="round"/>
<path d="M125.039 80.4688L161.473 101.504V180.77C161.473 182.569 159.59 182.382 158.488 180.475L143.256 154.092L128.024 162.886C126.923 163.522 125.039 161.534 125.039 159.735V80.4688Z" fill="#031A30" stroke="white" stroke-linecap="round" stroke-linejoin="round"/>
<path fill-rule="evenodd" clip-rule="evenodd" d="M138.969 65.3052C139.34 64.718 139.786 64.2702 140.289 63.9514L146.24 60.5156C145.737 60.8344 145.291 61.2822 144.92 61.8695L138.969 65.3052Z" fill="#031A30" stroke="#F0F0F0" stroke-linecap="round" stroke-linejoin="round"/>
<path fill-rule="evenodd" clip-rule="evenodd" d="M140.273 63.9459C143.963 61.6082 150.713 66.2107 153.436 73.6618V73.6618C155.283 78.7157 159.312 82.9683 163.06 83.8209V83.8209C169.339 85.2487 175.204 95.4073 173.301 101.559V101.559C172.165 105.231 173.834 110.846 177.287 114.973V114.973C182.263 120.918 182.959 128.834 179.377 131.083L185.328 127.647C188.91 125.399 188.214 117.483 183.238 111.537V111.537C179.785 107.411 178.116 101.796 179.252 98.1234V98.1234C181.155 91.9716 175.29 81.813 169.011 80.3852V80.3852C165.263 79.5325 161.234 75.28 159.387 70.226V70.226C156.664 62.775 149.914 58.1725 146.224 60.5102L140.273 63.9459Z" fill="#031A30"/>
<path d="M153.436 73.6618C150.713 66.2107 143.963 61.6082 140.273 63.9459L146.224 60.5102C149.914 58.1725 156.664 62.775 159.387 70.226M153.436 73.6618V73.6618ZM153.436 73.6618C155.283 78.7157 159.312 82.9683 163.06 83.8209M163.06 83.8209V83.8209ZM163.06 83.8209C169.339 85.2487 175.204 95.4073 173.301 101.559M173.301 101.559V101.559ZM173.301 101.559C172.165 105.231 173.834 110.846 177.287 114.973M177.287 114.973V114.973ZM177.287 114.973C182.263 120.918 182.959 128.834 179.377 131.083L185.328 127.647C188.91 125.399 188.214 117.483 183.238 111.537M183.238 111.537V111.537ZM183.238 111.537C179.785 107.411 178.116 101.796 179.252 98.1234M179.252 98.1234V98.1234ZM179.252 98.1234C181.155 91.9716 175.29 81.813 169.011 80.3852M169.011 80.3852V80.3852ZM169.011 80.3852C165.263 79.5325 161.234 75.28 159.387 70.226M159.387 70.226V70.226Z" stroke="#F0F0F0" stroke-linecap="round" stroke-linejoin="round"/>
<path fill-rule="evenodd" clip-rule="evenodd" d="M179.387 131.088C178.803 131.454 178.107 131.67 177.297 131.702L183.248 128.267C184.058 128.234 184.754 128.018 185.337 127.652L179.387 131.088Z" fill="#031A30" stroke="#F0F0F0" stroke-linecap="round" stroke-linejoin="round"/>
<path fill-rule="evenodd" clip-rule="evenodd" d="M177.297 131.697V131.697L183.248 128.262V128.262L177.297 131.697Z" fill="#031A30"/>
<path d="M177.297 131.697V131.697ZM177.297 131.697L183.248 128.262M183.248 128.262V128.262Z" stroke="#F0F0F0" stroke-linecap="round" stroke-linejoin="round"/>
<path fill-rule="evenodd" clip-rule="evenodd" d="M177.287 131.697C176.597 131.725 175.977 131.895 175.438 132.189L181.388 128.753C181.928 128.459 182.547 128.29 183.238 128.262L177.287 131.697Z" fill="#031A30" stroke="#F0F0F0" stroke-linecap="round" stroke-linejoin="round"/>
<path fill-rule="evenodd" clip-rule="evenodd" d="M175.455 132.194C173.296 133.368 172.41 136.526 173.318 140.513V140.513C174.269 144.688 173.279 147.621 171.266 148.784L177.217 145.348C179.23 144.186 180.22 141.252 179.269 137.077V137.077C178.36 133.091 179.247 129.933 181.406 128.758L175.455 132.194Z" fill="#031A30"/>
<path d="M173.318 140.513C172.41 136.526 173.296 133.368 175.455 132.194L181.406 128.758C179.247 129.933 178.36 133.091 179.269 137.077M173.318 140.513V140.513ZM173.318 140.513C174.269 144.688 173.279 147.621 171.266 148.784L177.217 145.348C179.23 144.186 180.22 141.252 179.269 137.077M179.269 137.077V137.077Z" stroke="#F0F0F0" stroke-linecap="round" stroke-linejoin="round"/>
<path fill-rule="evenodd" clip-rule="evenodd" d="M171.259 148.782C169.246 149.944 166.21 149.335 163.07 146.424L169.021 142.988C172.161 145.9 175.197 146.509 177.21 145.346L171.259 148.782Z" fill="#031A30" stroke="#F0F0F0" stroke-linecap="round" stroke-linejoin="round"/>
<path fill-rule="evenodd" clip-rule="evenodd" d="M163.07 146.424V146.424L169.021 142.988V142.988L163.07 146.424Z" fill="#031A30"/>
<path d="M163.07 146.424V146.424ZM163.07 146.424L169.021 142.988M169.021 142.988V142.988Z" stroke="#F0F0F0" stroke-linecap="round" stroke-linejoin="round"/>
<path fill-rule="evenodd" clip-rule="evenodd" d="M163.059 146.416C160.136 143.705 157.042 142.866 154.945 144.014L160.896 140.579C162.993 139.43 166.087 140.269 169.01 142.98L163.059 146.416Z" fill="#031A30" stroke="#F0F0F0" stroke-linecap="round" stroke-linejoin="round"/>
<path fill-rule="evenodd" clip-rule="evenodd" d="M154.963 144.022C154.372 144.346 153.86 144.827 153.454 145.47V145.47C153.082 146.057 152.636 146.505 152.133 146.824L158.084 143.388C158.587 143.069 159.033 142.622 159.404 142.034V142.034C159.811 141.392 160.323 140.91 160.914 140.586L154.963 144.022Z" fill="#031A30"/>
<path d="M153.454 145.47C153.86 144.827 154.372 144.346 154.963 144.022L160.914 140.586C160.323 140.91 159.811 141.392 159.404 142.034M153.454 145.47V145.47ZM153.454 145.47C153.082 146.057 152.636 146.505 152.133 146.824L158.084 143.388C158.587 143.069 159.033 142.622 159.404 142.034M159.404 142.034V142.034Z" stroke="#F0F0F0" stroke-linecap="round" stroke-linejoin="round"/>
<path fill-rule="evenodd" clip-rule="evenodd" d="M152.131 146.823C148.442 149.161 141.692 144.559 138.969 137.108L144.92 133.672C147.643 141.123 154.393 145.725 158.082 143.388L152.131 146.823Z" fill="#031A30" stroke="#F0F0F0" stroke-linecap="round" stroke-linejoin="round"/>
<path fill-rule="evenodd" clip-rule="evenodd" d="M138.969 137.108V137.108L144.92 133.672V133.672L138.969 137.108Z" fill="#031A30"/>
<path d="M138.969 137.108V137.108ZM138.969 137.108L144.92 133.672M144.92 133.672V133.672Z" stroke="#F0F0F0" stroke-linecap="round" stroke-linejoin="round"/>
<path fill-rule="evenodd" clip-rule="evenodd" d="M138.959 137.107C137.112 132.053 133.084 127.8 129.336 126.947L135.287 123.512C139.035 124.365 143.063 128.617 144.91 133.671L138.959 137.107Z" fill="#031A30" stroke="#F0F0F0" stroke-linecap="round" stroke-linejoin="round"/>
<path fill-rule="evenodd" clip-rule="evenodd" d="M129.336 126.947V126.947L135.287 123.512V123.512L129.336 126.947Z" fill="#031A30"/>
<path d="M129.336 126.947V126.947ZM129.336 126.947L135.287 123.512M135.287 123.512V123.512Z" stroke="#F0F0F0" stroke-linecap="round" stroke-linejoin="round"/>
<path fill-rule="evenodd" clip-rule="evenodd" d="M129.34 126.951C123.061 125.523 117.196 115.365 119.099 109.213L125.05 105.777C123.147 111.929 129.012 122.088 135.291 123.515L129.34 126.951Z" fill="#031A30" stroke="#F0F0F0" stroke-linecap="round" stroke-linejoin="round"/>
<path fill-rule="evenodd" clip-rule="evenodd" d="M119.094 109.213V109.213L125.045 105.777V105.777L119.094 109.213Z" fill="#031A30"/>
<path d="M119.094 109.213V109.213ZM119.094 109.213L125.045 105.777M125.045 105.777V105.777Z" stroke="#F0F0F0" stroke-linecap="round" stroke-linejoin="round"/>
<path fill-rule="evenodd" clip-rule="evenodd" d="M119.103 109.213C120.239 105.541 118.57 99.9256 115.117 95.799L121.068 92.3633C124.521 96.4899 126.19 102.105 125.054 105.777L119.103 109.213Z" fill="#031A30" stroke="#F0F0F0" stroke-linecap="round" stroke-linejoin="round"/>
<path fill-rule="evenodd" clip-rule="evenodd" d="M115.117 95.799V95.799L121.068 92.3633V92.3633L115.117 95.799Z" fill="#031A30"/>
<path d="M115.117 95.799V95.799ZM115.117 95.799L121.068 92.3633M121.068 92.3633V92.3633Z" stroke="#F0F0F0" stroke-linecap="round" stroke-linejoin="round"/>
<path fill-rule="evenodd" clip-rule="evenodd" d="M115.113 95.7993C110.137 89.8537 109.44 81.9378 113.023 79.6897L118.974 76.2539C115.391 78.502 116.088 86.4179 121.063 92.3635L115.113 95.7993Z" fill="#031A30" stroke="#F0F0F0" stroke-linecap="round" stroke-linejoin="round"/>
<path fill-rule="evenodd" clip-rule="evenodd" d="M113.023 79.6899C113.607 79.3239 114.303 79.1081 115.113 79.0755V79.0755C115.804 79.0477 116.423 78.8779 116.963 78.5842L122.914 75.1484C122.374 75.4422 121.755 75.6119 121.064 75.6397V75.6397C120.254 75.6724 119.558 75.8881 118.974 76.2541L113.023 79.6899Z" fill="#031A30"/>
<path d="M115.113 79.0755C114.303 79.1081 113.607 79.3239 113.023 79.6899L118.974 76.2541C119.558 75.8881 120.254 75.6724 121.064 75.6397M115.113 79.0755V79.0755ZM115.113 79.0755C115.804 79.0477 116.423 78.8779 116.963 78.5842L122.914 75.1484C122.374 75.4422 121.755 75.6119 121.064 75.6397M121.064 75.6397V75.6397Z" stroke="#F0F0F0" stroke-linecap="round" stroke-linejoin="round"/>
<path fill-rule="evenodd" clip-rule="evenodd" d="M116.969 78.5794C119.128 77.4045 120.014 74.2467 119.105 70.26L125.056 66.8242C125.965 70.811 125.079 73.9688 122.92 75.1436L116.969 78.5794Z" fill="#031A30" stroke="#F0F0F0" stroke-linecap="round" stroke-linejoin="round"/>
<path fill-rule="evenodd" clip-rule="evenodd" d="M119.094 70.26V70.26L125.045 66.8242V66.8242L119.094 70.26Z" fill="#031A30"/>
<path d="M119.094 70.26V70.26ZM119.094 70.26L125.045 66.8242M125.045 66.8242V66.8242Z" stroke="#F0F0F0" stroke-linecap="round" stroke-linejoin="round"/>
<path fill-rule="evenodd" clip-rule="evenodd" d="M119.099 70.2612C118.147 66.0866 119.138 63.1528 121.151 61.9904L127.102 58.5547C125.089 59.7171 124.098 62.6509 125.05 66.8255L119.099 70.2612Z" fill="#031A30" stroke="#F0F0F0" stroke-linecap="round" stroke-linejoin="round"/>
<path fill-rule="evenodd" clip-rule="evenodd" d="M121.156 61.9903C123.17 60.8279 126.206 61.437 129.345 64.3483V64.3483C132.269 67.059 135.363 67.8981 137.459 66.7499L143.41 63.3142C141.313 64.4624 138.219 63.6232 135.296 60.9125V60.9125C132.156 58.0013 129.12 57.3922 127.107 58.5546L121.156 61.9903Z" fill="#031A30"/>
<path d="M129.345 64.3483C126.206 61.437 123.17 60.8279 121.156 61.9903L127.107 58.5546C129.12 57.3922 132.156 58.0013 135.296 60.9125M129.345 64.3483V64.3483ZM129.345 64.3483C132.269 67.059 135.363 67.8981 137.459 66.7499L143.41 63.3142C141.313 64.4624 138.219 63.6232 135.296 60.9125M135.296 60.9125V60.9125Z" stroke="#F0F0F0" stroke-linecap="round" stroke-linejoin="round"/>
<path fill-rule="evenodd" clip-rule="evenodd" d="M137.453 66.7553C138.044 66.4314 138.556 65.9495 138.963 65.3068L144.914 61.8711C144.507 62.5137 143.995 62.9957 143.404 63.3195L137.453 66.7553Z" fill="#031A30" stroke="#F0F0F0" stroke-linecap="round" stroke-linejoin="round"/>
<path fill-rule="evenodd" clip-rule="evenodd" d="M138.969 65.3068V65.3068L144.92 61.8711V61.8711L138.969 65.3068Z" fill="#031A30"/>
<path d="M138.969 65.3068V65.3068ZM138.969 65.3068L144.92 61.8711M144.92 61.8711V61.8711Z" stroke="#F0F0F0" stroke-linecap="round" stroke-linejoin="round"/>
<path d="M138.963 65.3032C142.058 60.4094 150.352 65.1981 153.447 73.6652V73.6652C155.294 78.7192 159.322 82.9717 163.071 83.8243V83.8243C169.349 85.2522 175.215 95.4108 173.311 101.563V101.563C172.176 105.235 173.845 110.85 177.298 114.976V114.976C183.083 121.89 183.083 131.467 177.298 131.7V131.7C173.845 131.839 172.176 135.528 173.311 140.511V140.511C175.215 148.86 169.349 152.246 163.071 146.424V146.424C159.322 142.949 155.294 142.55 153.447 145.471V145.471C150.352 150.365 142.058 145.576 138.963 137.109V137.109C137.116 132.055 133.088 127.802 129.34 126.949V126.949C123.061 125.522 117.196 115.363 119.099 109.211V109.211C120.234 105.539 118.566 99.9242 115.113 95.7975V95.7975C109.327 88.8841 109.327 79.3066 115.113 79.0736V79.0736C118.566 78.9345 120.234 75.2463 119.099 70.2628V70.2628C117.196 61.9137 123.061 58.5275 129.34 64.35V64.35C133.088 67.8253 137.116 68.2243 138.963 65.3032V65.3032Z" fill="#031A30"/>
<path d="M138.963 65.3032C142.058 60.4094 150.352 65.1981 153.447 73.6652M138.963 65.3032C137.116 68.2243 133.088 67.8253 129.34 64.35M138.963 65.3032V65.3032ZM153.447 73.6652V73.6652ZM153.447 73.6652C155.294 78.7192 159.322 82.9717 163.071 83.8243M163.071 83.8243V83.8243ZM163.071 83.8243C169.349 85.2522 175.215 95.4108 173.311 101.563M173.311 101.563V101.563ZM173.311 101.563C172.176 105.235 173.845 110.85 177.298 114.976M177.298 114.976V114.976ZM177.298 114.976C183.083 121.89 183.083 131.467 177.298 131.7M177.298 131.7V131.7ZM177.298 131.7C173.845 131.839 172.176 135.528 173.311 140.511M173.311 140.511V140.511ZM173.311 140.511C175.215 148.86 169.349 152.246 163.071 146.424M163.071 146.424V146.424ZM163.071 146.424C159.322 142.949 155.294 142.55 153.447 145.471M153.447 145.471V145.471ZM153.447 145.471C150.352 150.365 142.058 145.576 138.963 137.109M138.963 137.109V137.109ZM138.963 137.109C137.116 132.055 133.088 127.802 129.34 126.949M129.34 126.949V126.949ZM129.34 126.949C123.061 125.522 117.196 115.363 119.099 109.211M119.099 109.211V109.211ZM119.099 109.211C120.234 105.539 118.566 99.9242 115.113 95.7975M115.113 95.7975V95.7975ZM115.113 95.7975C109.327 88.8841 109.327 79.3066 115.113 79.0736M115.113 79.0736V79.0736ZM115.113 79.0736C118.566 78.9345 120.234 75.2463 119.099 70.2628M119.099 70.2628V70.2628ZM119.099 70.2628C117.196 61.9137 123.061 58.5275 129.34 64.35M129.34 64.35V64.35Z" stroke="#F0F0F0" stroke-linecap="round" stroke-linejoin="round"/>
<path fill-rule="evenodd" clip-rule="evenodd" d="M141.589 119.493C140.906 119.944 139.654 119.221 138.971 117.981L127.13 96.4836C126.446 95.2433 126.446 93.6927 127.13 93.2413L130.105 91.5234C129.422 91.9748 129.422 93.5255 130.105 94.7657L141.946 116.263C142.629 117.503 143.882 118.226 144.565 117.775L141.589 119.493Z" fill="#031A30" stroke="#F0F0F0"/>
<path fill-rule="evenodd" clip-rule="evenodd" d="M127.125 93.2448L129.744 91.6554L132.719 89.9375L130.1 91.527L127.125 93.2448Z" fill="#031A30" stroke="#F0F0F0"/>
<path fill-rule="evenodd" clip-rule="evenodd" d="M129.75 91.647C129.791 91.6115 129.834 91.5805 129.878 91.5538L132.853 89.8359C132.809 89.8626 132.766 89.8936 132.725 89.9292L129.75 91.647Z" fill="#031A30" stroke="#F0F0F0"/>
<path fill-rule="evenodd" clip-rule="evenodd" d="M129.875 91.5576C130.565 91.14 131.61 91.7988 132.252 93.097L140.336 107.632L143.311 105.914L135.228 91.3792C134.585 90.0809 133.541 89.4221 132.85 89.8398L129.875 91.5576Z" fill="#031A30" stroke="#F0F0F0"/>
<path fill-rule="evenodd" clip-rule="evenodd" d="M140.336 107.636L157.414 96.3507L160.39 94.6328L143.311 105.918L140.336 107.636Z" fill="#031A30" stroke="#F0F0F0"/>
<path fill-rule="evenodd" clip-rule="evenodd" d="M157.43 96.3463C157.471 96.3107 157.513 96.2797 157.557 96.253L160.533 94.5352C160.489 94.5618 160.446 94.5929 160.405 94.6284L157.43 96.3463Z" fill="#031A30" stroke="#F0F0F0"/>
<path fill-rule="evenodd" clip-rule="evenodd" d="M157.547 96.253C158.237 95.8353 159.282 96.494 159.924 97.7924L162.543 102.406C163.226 103.646 163.226 105.196 162.543 105.648L165.518 103.93C166.201 103.479 166.201 101.928 165.518 100.688L162.899 96.0745C162.257 94.7762 161.213 94.1175 160.522 94.5351L157.547 96.253Z" fill="#031A30" stroke="#F0F0F0"/>
<path fill-rule="evenodd" clip-rule="evenodd" d="M162.551 105.651L141.602 119.494V119.494L144.577 117.777V117.777L165.527 103.934L162.551 105.651Z" fill="#031A30"/>
<path d="M141.602 119.494L162.551 105.651L165.527 103.934L144.577 117.777M141.602 119.494V119.494ZM141.602 119.494L144.577 117.777M144.577 117.777V117.777Z" stroke="#F0F0F0"/>
<path d="M141.589 119.493C140.906 119.944 139.654 119.221 138.971 117.981L127.13 96.4835C126.446 95.2432 126.446 93.6926 127.13 93.2412L129.748 91.6517C130.431 91.0594 131.57 91.7168 132.253 93.0979L140.337 107.633L157.415 96.3479C158.098 95.7555 159.237 96.4128 159.92 97.794L162.539 102.407C163.222 103.647 163.222 105.198 162.539 105.65L141.589 119.493Z" fill="#031A30" stroke="#F0F0F0"/>
<rect width="27.3083" height="26.8908" rx="5.74105" transform="matrix(0.866025 0.5 -0.866025 0.5 68.3516 214.633)" fill="#031A30" stroke="#F0F0F0" stroke-linecap="round" stroke-linejoin="round"/>
<path d="M67.4069 227.855C67.407 227.82 67.4235 227.788 67.4513 227.768V227.768C68.231 227.207 69.2826 227.207 70.0622 227.768V227.768C70.0903 227.788 70.1068 227.821 70.1067 227.855L70.1063 227.932C70.1062 227.973 70.0934 228.012 70.07 228.045V228.045C69.4263 228.946 68.0865 228.947 67.4429 228.046V228.046C67.4191 228.012 67.4063 227.972 67.4065 227.932L67.4069 227.855Z" fill="#031A30" stroke="#F0F0F0" stroke-linecap="round" stroke-linejoin="round"/>
<path d="M67.4062 205.855H70.1061V227.994V227.994C69.4445 228.92 68.0679 228.92 67.4062 227.994V227.994V205.855Z" fill="#031A30" stroke="#F0F0F0" stroke-linecap="round" stroke-linejoin="round"/>
<path d="M81.2219 212.823C81.2219 217.893 74.0883 221.031 69.0187 221.031C63.949 221.031 56.4375 216.921 56.4375 211.852C56.4375 206.782 63.949 174 69.0187 174C74.0883 174 81.2219 207.754 81.2219 212.823Z" fill="#031A30" stroke="#F0F0F0" stroke-linecap="round" stroke-linejoin="round"/>
<rect width="27.3083" height="26.8908" rx="5.74105" transform="matrix(0.866025 0.5 -0.866025 0.5 34.2891 195.375)" fill="#031A30" stroke="#F0F0F0" stroke-linecap="round" stroke-linejoin="round"/>
<path d="M33.5943 208.714C33.5944 208.685 33.6082 208.658 33.6314 208.641V208.641C34.2833 208.172 35.1625 208.172 35.8143 208.641V208.641C35.8378 208.658 35.8516 208.685 35.8515 208.714L35.8512 208.779C35.8511 208.813 35.8404 208.845 35.8208 208.873V208.873C35.2826 209.626 34.1625 209.627 33.6244 208.874V208.874C33.6045 208.846 33.5938 208.812 33.594 208.778L33.5943 208.714Z" fill="#031A30" stroke="#F0F0F0" stroke-linecap="round" stroke-linejoin="round"/>
<path d="M33.5938 190.32H35.851V208.83V208.83C35.2978 209.604 34.1469 209.604 33.5938 208.83V208.83V190.32Z" fill="#031A30" stroke="#F0F0F0" stroke-linecap="round" stroke-linejoin="round"/>
<circle cx="34.9402" cy="191.675" r="7.67458" fill="#031A30" stroke="#F0F0F0" stroke-linecap="round" stroke-linejoin="round"/>
</svg>
