<svg width="235" height="50" viewBox="0 0 235 50" fill="none" xmlns="http://www.w3.org/2000/svg">
<g clip-path="url(#clip0_3731_2732)">
<path d="M79.4162 8.69027C78.778 7.58784 77.4123 6.27608 74.5208 6.27608C71.8647 6.27608 67.831 7.3948 62.5306 9.60433C59.1893 7.12036 55.2099 5.80859 51.0162 5.80859C40.3753 5.80859 31.7195 14.4164 31.7195 24.9989C31.7195 25.7292 31.7618 26.4782 31.8466 27.2224C30.827 27.9969 29.8734 28.7527 29.0116 29.4714C27.1349 31.0367 24.799 33.1044 23.3721 35.2348C21.8486 37.5071 21.5919 39.5516 22.6115 41.3076C23.252 42.4099 24.6224 43.7217 27.5069 43.7217C30.163 43.7217 34.1966 42.603 39.497 40.3935C42.8407 42.8774 46.8202 44.1892 51.0162 44.1892C61.6547 44.1892 70.3106 35.5814 70.3106 24.9989C70.3106 24.2663 70.2682 23.522 70.1835 22.7801C71.1512 22.0451 72.0625 21.3241 72.896 20.631L73.0232 20.5264C73.0633 20.4914 73.1056 20.4589 73.1456 20.424H73.1503C75.0035 18.868 77.2663 16.8446 78.6603 14.763C80.1838 12.4883 80.4381 10.4463 79.4209 8.69027H79.4162ZM35.8849 28.9993C39.045 26.7083 42.763 24.2826 46.6459 21.9799L53.3827 33.5882L54.7578 32.809C54.8803 32.7416 55.005 32.6695 55.1251 32.5996L55.3512 32.4694C55.801 32.2113 56.2483 31.9508 56.691 31.6926L57.0395 31.4902C60.3809 29.5226 63.5479 27.5038 66.4536 25.4873C66.1946 33.723 59.3353 40.3679 51.0139 40.3679C48.2423 40.3679 45.525 39.6283 43.1538 38.2282C42.1343 37.6235 41.1854 36.9071 40.3376 36.0977L40.1775 35.9442L39.9727 36.0349C38.8848 36.514 37.8275 36.9605 36.8268 37.3583C33.7705 38.5723 31.1496 39.3888 29.2423 39.7236C28.2887 39.8911 27.514 39.9399 26.9394 39.8679C26.4238 39.8027 26.087 39.6445 25.9458 39.4004C25.8021 39.1538 25.8327 38.7863 26.0352 38.3072C26.2589 37.777 26.6898 37.1327 27.3138 36.3954C28.5595 34.9232 30.5821 33.0742 33.1676 31.0507C33.9847 30.4064 34.8983 29.718 35.8849 29.0017V28.9993ZM66.1452 21.0032C63.0134 23.2755 59.3024 25.6967 55.3982 28.0108L48.6615 16.405L48.1011 16.7213C47.7337 16.9283 47.3782 17.1307 47.025 17.333L46.6788 17.5307C46.1161 17.8517 45.5557 18.1773 45.007 18.5029C41.6139 20.5054 38.4445 22.5289 35.5764 24.5174C35.8355 16.2794 42.6947 9.63223 51.0185 9.63223C53.7877 9.63223 56.505 10.3718 58.8762 11.7743C59.8817 12.3651 60.8306 13.0814 61.6971 13.9048L61.8572 14.0583L62.0597 13.9676C63.1405 13.4908 64.1978 13.0465 65.2032 12.6442C68.2597 11.4301 70.8805 10.6137 72.7878 10.2788C73.7414 10.1113 74.5184 10.0625 75.0907 10.1346C75.6062 10.1997 75.943 10.3579 76.0843 10.6021C76.2279 10.8486 76.1973 11.2161 75.9948 11.6952C75.7711 12.2255 75.3403 12.8698 74.7162 13.6071C73.4706 15.0816 71.4478 16.9307 68.8624 18.9564C67.9912 19.6402 67.0752 20.331 66.1452 21.0055V21.0032Z" fill="#BAC7E1"/>
<path d="M89.0386 16.9524H92.9397L104.284 30.4871V16.9524H108.156V36.1313H104.284L92.9397 22.5966V36.1313H89.0386V16.9524Z" fill="#BAC7E1"/>
<path d="M112.806 23.3971C113.986 22.2291 115.876 21.6426 118.478 21.6426C121.08 21.6426 122.97 22.2266 124.15 23.3971C125.33 24.5652 125.921 26.4379 125.921 29.0129C125.921 31.588 125.33 33.4891 124.15 34.6571C122.97 35.8086 121.08 36.3833 118.478 36.3833C115.876 36.3833 113.986 35.8086 112.806 34.6571C111.643 33.4891 111.063 31.6068 111.063 29.0129C111.063 26.419 111.645 24.5652 112.806 23.3971ZM114.689 29.0129C114.689 30.4009 114.984 31.4153 115.575 32.0537C116.183 32.6921 117.152 33.0138 118.48 33.0138C119.809 33.0138 120.768 32.6946 121.357 32.0537C121.965 31.4153 122.271 30.4009 122.271 29.0129C122.271 27.6249 121.967 26.5917 121.357 25.9721C120.766 25.3336 119.809 25.0121 118.48 25.0121C117.152 25.0121 116.185 25.3313 115.575 25.9721C114.984 26.594 114.689 27.606 114.689 29.0129Z" fill="#BAC7E1"/>
<path d="M127.018 21.8918H130.89L134.762 32.0027L138.635 21.8918H142.536L136.837 36.1406H132.716L127.018 21.8918Z" fill="#BAC7E1"/>
<path d="M148.721 36.3833C146.86 36.3833 145.486 36.0357 144.6 35.3429C143.734 34.6311 143.301 33.4986 143.301 31.945C143.301 30.3914 143.779 29.2234 144.739 28.5471C145.699 27.8519 147.247 27.5067 149.387 27.5067H153.702C153.628 26.5396 153.324 25.8444 152.791 25.4235C152.273 24.9861 151.462 24.7662 150.356 24.7662C148.568 24.7662 147.515 25.3976 147.202 26.6579H143.604C143.824 24.9033 144.48 23.6336 145.569 22.8486C146.658 22.0446 148.3 21.6426 150.495 21.6426C152.893 21.6426 154.636 22.1368 155.725 23.1228C156.813 24.09 157.356 25.6624 157.356 27.8354V36.1373H153.705V34.7943C152.654 35.8536 150.993 36.3833 148.723 36.3833H148.721ZM146.951 31.7794C146.951 32.7655 147.845 33.2596 149.633 33.2596C150.887 33.2596 151.828 33.0398 152.455 32.6024C153.101 32.146 153.516 31.4437 153.699 30.4931V30.1645H150.352C148.083 30.1645 146.948 30.7036 146.948 31.7819L146.951 31.7794Z" fill="#BAC7E1"/>
<path d="M159.913 31.5903H163.511C163.86 32.704 165.032 33.262 167.024 33.262C169.015 33.262 169.901 32.879 169.901 32.1105C169.901 31.4177 168.692 30.9046 166.278 30.5759C164.028 30.3205 162.431 29.8453 161.491 29.15C160.55 28.4383 160.078 27.379 160.078 25.9721C160.078 24.4919 160.577 23.4066 161.572 22.7114C162.568 21.9996 164.144 21.6426 166.303 21.6426C168.463 21.6426 170.195 22.0256 171.284 22.7941C172.39 23.5437 173.046 24.7567 173.249 26.4379H169.652C169.448 25.8539 169.08 25.433 168.546 25.1776C168.029 24.9033 167.263 24.7662 166.251 24.7662C164.499 24.7662 163.623 25.1233 163.623 25.8349C163.623 26.4923 164.729 26.9676 166.942 27.2608C169.377 27.6084 171.063 28.1097 172.004 28.767C172.945 29.4055 173.417 30.4198 173.417 31.8078C173.417 33.3425 172.89 34.494 171.839 35.2601C170.805 36.0096 169.163 36.3833 166.914 36.3833C164.664 36.3833 163.032 36.0002 161.907 35.2318C160.782 34.4656 160.117 33.2503 159.915 31.588L159.913 31.5903Z" fill="#BAC7E1"/>
<path d="M180.652 21.8868H184.58V25.2563H180.652V30.7374C180.652 31.4491 180.817 31.9693 181.151 32.3003C181.483 32.61 182.036 32.7661 182.811 32.7661H184.832V36.1356H182.701C180.71 36.1356 179.262 35.7431 178.357 34.958C177.453 34.1731 177.003 32.9127 177.003 31.1771V25.2586H174.898V21.8891H177.003V18.7939H180.655V21.8891L180.652 21.8868Z" fill="#BAC7E1"/>
<path d="M187.27 36.1373V21.8885H190.922V23.1772C191.843 22.1534 193.265 21.6426 195.182 21.6426H196.565V25.0121H194.076C192.951 25.0121 192.14 25.3219 191.643 25.9438C191.163 26.5656 190.922 27.5871 190.922 29.0129V36.1373H187.27Z" fill="#BAC7E1"/>
<path d="M199.619 23.3971C200.798 22.2291 202.689 21.6426 205.29 21.6426C207.892 21.6426 209.783 22.2266 210.963 23.3971C212.143 24.5652 212.734 26.4379 212.734 29.0129C212.734 31.588 212.143 33.4891 210.963 34.6571C209.783 35.8086 207.892 36.3833 205.29 36.3833C202.689 36.3833 200.798 35.8086 199.619 34.6571C198.458 33.4891 197.876 31.6068 197.876 29.0129C197.876 26.419 198.458 24.5652 199.619 23.3971ZM201.5 29.0129C201.5 30.4009 201.794 31.4153 202.386 32.0537C202.993 32.6921 203.962 33.0138 205.29 33.0138C206.619 33.0138 207.579 32.6946 208.167 32.0537C208.776 31.4153 209.081 30.4009 209.081 29.0129C209.081 27.6249 208.778 26.5917 208.167 25.9721C207.576 25.3336 206.619 25.0121 205.29 25.0121C203.962 25.0121 202.995 25.3313 202.386 25.9721C201.794 26.594 201.5 27.606 201.5 29.0129Z" fill="#BAC7E1"/>
</g>
<defs>
<clipPath id="clip0_3731_2732">
<rect width="191" height="38.3806" fill="white" transform="translate(22 5.80981)"/>
</clipPath>
</defs>
</svg>
