<svg width="144" height="50" viewBox="0 0 144 50" fill="none" xmlns="http://www.w3.org/2000/svg">
<path d="M143.5 35.312V33.5598L127.891 33.4398C126.833 33.4316 125.979 32.5711 125.979 31.5124V16.4429H123.957V31.1359C123.957 33.4423 125.827 35.312 128.133 35.312H143.5Z" fill="#BAC7E1"/>
<path d="M99.293 16.4429V35.312H101.18V18.9049C101.18 18.55 101.468 18.2624 101.822 18.2624H110.104C114.969 18.2624 118.919 22.1963 118.938 27.0615L118.971 35.312H120.511C120.777 35.312 120.992 35.0962 120.992 34.8301V27.2044C120.992 21.261 116.174 16.4429 110.231 16.4429H99.293Z" fill="#BAC7E1"/>
<path d="M96.5298 18.1972V16.3777H86.0171C80.8065 16.3777 76.5825 20.6017 76.5825 25.8122C76.5825 31.0228 80.8065 35.2468 86.0171 35.2468H96.5298V33.6294H86.1855C81.924 33.6294 78.4694 30.1748 78.4694 25.9133C78.4694 21.6518 81.9241 18.1972 86.1855 18.1972H87.4996H96.5298Z" fill="#BAC7E1"/>
<circle cx="23.615" cy="6.1323" r="2.76291" fill="#BAC7E1"/>
<circle cx="30.3523" cy="10.9834" r="2.76291" fill="#BAC7E1"/>
<circle cx="31.8361" cy="20.8237" r="2.35858" fill="#BAC7E1"/>
<circle cx="26.8498" cy="24.8644" r="2.35858" fill="#BAC7E1"/>
<circle cx="20.11" cy="24.5966" r="2.35858" fill="#BAC7E1"/>
<circle cx="24.0187" cy="30.3918" r="2.35858" fill="#BAC7E1"/>
<circle cx="15.1237" cy="20.6896" r="2.35858" fill="#BAC7E1"/>
<circle cx="9.86737" cy="17.0505" r="2.35858" fill="#BAC7E1"/>
<circle cx="3.66718" cy="14.6232" r="2.35858" fill="#BAC7E1"/>
<circle cx="3.12812" cy="21.0915" r="2.35858" fill="#BAC7E1"/>
<circle cx="2.85858" cy="27.8342" r="2.35858" fill="#BAC7E1"/>
<circle cx="7.57628" cy="21.7684" r="1.41515" fill="#BAC7E1"/>
<circle cx="7.30675" cy="27.6976" r="1.41515" fill="#BAC7E1"/>
<circle cx="9.05773" cy="31.7418" r="1.41515" fill="#BAC7E1"/>
<circle cx="13.4391" cy="35.7162" r="1.48254" fill="#BAC7E1"/>
<circle cx="19.0987" cy="37.8722" r="1.48254" fill="#BAC7E1"/>
<circle cx="12.1583" cy="23.6532" r="1.41515" fill="#BAC7E1"/>
<circle cx="10.6759" cy="27.0255" r="1.01082" fill="#BAC7E1"/>
<circle cx="13.2369" cy="29.7171" r="1.01082" fill="#BAC7E1"/>
<circle cx="15.0577" cy="32.482" r="0.943434" fill="#BAC7E1"/>
<circle cx="18.6276" cy="31.8758" r="1.41515" fill="#BAC7E1"/>
<circle cx="16.4698" cy="27.0245" r="1.41515" fill="#BAC7E1"/>
<circle cx="30.6232" cy="27.1586" r="1.41515" fill="#BAC7E1"/>
<circle cx="28.4674" cy="32.1434" r="1.41515" fill="#BAC7E1"/>
<circle cx="33.6554" cy="35.984" r="1.48254" fill="#BAC7E1"/>
<circle cx="28.1295" cy="38.1434" r="1.48254" fill="#BAC7E1"/>
<circle cx="35.0709" cy="23.7906" r="1.41515" fill="#BAC7E1"/>
<circle cx="39.5187" cy="21.9025" r="1.41515" fill="#BAC7E1"/>
<circle cx="39.7882" cy="27.8314" r="1.41515" fill="#BAC7E1"/>
<circle cx="38.0358" cy="32.0131" r="1.41515" fill="#BAC7E1"/>
<circle cx="36.4195" cy="27.2933" r="1.01082" fill="#BAC7E1"/>
<circle cx="33.9923" cy="29.8543" r="1.01082" fill="#BAC7E1"/>
<circle cx="32.1055" cy="32.6832" r="1.01082" fill="#BAC7E1"/>
<circle cx="37.362" cy="17.3183" r="2.35858" fill="#BAC7E1"/>
<circle cx="43.5622" cy="15.0285" r="2.35858" fill="#BAC7E1"/>
<circle cx="44.1013" cy="21.2253" r="2.35858" fill="#BAC7E1"/>
<circle cx="44.3708" cy="28.102" r="2.35858" fill="#BAC7E1"/>
<circle cx="41.5402" cy="34.1684" r="2.35858" fill="#BAC7E1"/>
<circle cx="36.4196" cy="39.4211" r="2.35858" fill="#BAC7E1"/>
<circle cx="30.3532" cy="42.9299" r="2.35858" fill="#BAC7E1"/>
<circle cx="23.6154" cy="37.1313" r="2.35858" fill="#BAC7E1"/>
<circle cx="23.6154" cy="44.2722" r="2.35858" fill="#BAC7E1"/>
<circle cx="16.7409" cy="42.6586" r="2.35858" fill="#BAC7E1"/>
<circle cx="10.676" cy="39.1533" r="2.35858" fill="#BAC7E1"/>
<circle cx="5.55341" cy="33.8972" r="2.35858" fill="#BAC7E1"/>
<circle cx="16.8772" cy="10.9834" r="2.76291" fill="#BAC7E1"/>
<circle cx="23.6149" cy="11.5221" r="1.6847" fill="#BAC7E1"/>
<circle cx="19.9752" cy="15.2987" r="1.6847" fill="#BAC7E1"/>
<circle cx="27.5231" cy="15.2987" r="1.6847" fill="#BAC7E1"/>
<circle cx="23.6143" cy="18.3988" r="1.1456" fill="#BAC7E1"/>
<circle cx="23.6143" cy="22.3058" r="1.1456" fill="#BAC7E1"/>
<path fill-rule="evenodd" clip-rule="evenodd" d="M51.9858 20.3559V34.7772C51.9858 35.075 52.2272 35.3163 52.525 35.3163H64.1096C72.0005 35.3163 74.2244 33.898 74.2244 29.4535C74.2244 25.7438 72.1353 24.5982 70.9897 24.0623C71.394 23.4526 72.1353 22.7113 72.1353 20.5548C72.1353 18.6006 70.9897 16.5115 68.4289 16.5115H55.827C53.6706 16.5115 51.9858 17.7951 51.9858 20.3559ZM53.8727 23.0461V19.9483C53.8727 18.9807 54.6567 18.1962 55.6244 18.1962H67.4181C68.968 18.1962 70.1136 19.2744 70.1136 20.4201V21.1614C70.1136 22.4418 68.968 23.4526 67.8224 23.3852C66.9341 23.3852 58.6726 23.4274 54.279 23.4505C54.0549 23.4516 53.8727 23.2703 53.8727 23.0461ZM67.4854 33.4937C64.7435 33.4937 58.5442 33.5358 54.2792 33.5589C54.0551 33.5601 53.8727 33.3787 53.8727 33.1546V25.4069C53.8727 25.258 53.9913 25.1373 54.1402 25.1373H66.8789C70.3158 25.1373 72.0679 26.4851 72.0679 28.0351V30.4611C72.0679 32.0785 70.5854 33.3589 67.4854 33.4937Z" fill="#BAC7E1"/>
</svg>
