<svg width="99" height="56" viewBox="0 0 99 56" fill="none" xmlns="http://www.w3.org/2000/svg">
<g filter="url(#filter0_d_3731_2664)">
<g clip-path="url(#clip0_3731_2664)">
<path d="M35.5927 16.6882C35.5927 25.6298 28.3551 32.8784 19.5674 32.8784C10.8344 32.8784 3.74462 25.7197 3.65674 16.8549L5.62525 16.8545L5.62621 16.9228C5.74934 24.65 11.9439 30.8755 19.5674 30.8755C27.2133 30.8755 33.4446 24.4469 33.5323 16.6882H35.5927Z" fill="#BAC7E1"/>
<path opacity="0.5" d="M65.4099 16.6875L65.411 16.5211C65.411 25.4627 58.2872 32.7113 49.4995 32.7113C40.7665 32.7113 33.6767 25.5526 33.5889 16.6878L35.5574 16.6875L35.5583 16.7557C35.6815 24.483 41.876 30.7084 49.4995 30.7084C57.1454 30.7084 63.3539 24.4464 63.4417 16.6877L65.4099 16.6875Z" fill="#6F7D9B"/>
<path d="M65.4099 16.9131L65.411 17.0795C65.411 8.13785 58.2872 0.889244 49.4995 0.889244C40.7665 0.889244 33.6767 8.04794 33.5889 16.9128L35.5574 16.9131L35.5583 16.8449C35.6815 9.11763 41.876 2.89216 49.4995 2.89216C57.1454 2.89216 63.3539 9.15422 63.4417 16.9129L65.4099 16.9131Z" fill="#BAC7E1"/>
<path d="M94.9988 16.6875L94.9999 16.5211C94.9999 25.4627 87.8761 32.7113 79.0884 32.7113C70.3554 32.7113 63.2656 25.5526 63.1777 16.6878L65.1462 16.6875L65.1472 16.7557C65.2703 24.483 71.4649 30.7084 79.0884 30.7084C86.7343 30.7084 92.9428 24.4464 93.0305 16.6877L94.9988 16.6875Z" fill="#BAC7E1"/>
<path d="M49.3876 0.890314L49.2212 0.889194C58.1628 0.889194 65.4114 8.01301 65.4114 16.8007C65.4114 25.5337 58.2527 32.6235 49.3879 32.7114L49.3876 30.7429L49.4558 30.7419C57.183 30.6188 63.4085 24.4242 63.4085 16.8007C63.4085 9.15479 57.1464 2.94628 49.3877 2.85857L49.3876 0.890314Z" fill="#BAC7E1"/>
<path opacity="0.5" d="M63.4281 32.1531L63.4275 32.0867C63.3035 24.5484 57.0645 18.475 49.3862 18.475L49.2215 18.4769L49.221 16.5219C49.276 16.5214 49.3311 16.5211 49.3862 16.5211C58.1818 16.5211 65.3225 23.5047 65.4111 32.1527L63.4281 32.1531Z" fill="#9BABCB"/>
<path d="M49.3366 16.5211L49.3364 18.4896L49.27 18.4906C41.6757 18.6137 35.5573 24.8083 35.5573 32.4318C35.5573 40.1323 41.7999 46.3749 49.5006 46.3749C57.1464 46.3749 63.3549 40.2209 63.4429 32.596L65.411 32.5958L65.4102 32.6949C65.2697 41.3612 58.2005 48.3433 49.5006 48.3433C40.7128 48.3433 33.5889 41.2195 33.5889 32.4318C33.5889 23.6988 40.6243 16.6091 49.3366 16.5211Z" fill="#BAC7E1"/>
<path d="M21.865 42.2022H19.6318V47.785H21.865V42.2022Z" fill="#9BABCB"/>
</g>
</g>
<defs>
<filter id="filter0_d_3731_2664" x="0.823466" y="0" width="97.3531" height="55.5893" filterUnits="userSpaceOnUse" color-interpolation-filters="sRGB">
<feFlood flood-opacity="0" result="BackgroundImageFix"/>
<feColorMatrix in="SourceAlpha" type="matrix" values="0 0 0 0 0 0 0 0 0 0 0 0 0 0 0 0 0 0 127 0" result="hardAlpha"/>
<feOffset dy="3.17653"/>
<feGaussianBlur stdDeviation="1.58827"/>
<feComposite in2="hardAlpha" operator="out"/>
<feColorMatrix type="matrix" values="0 0 0 0 0 0 0 0 0 0 0 0 0 0 0 0 0 0 0.27 0"/>
<feBlend mode="normal" in2="BackgroundImageFix" result="effect1_dropShadow_3731_2664"/>
<feBlend mode="normal" in="SourceGraphic" in2="effect1_dropShadow_3731_2664" result="shape"/>
</filter>
<clipPath id="clip0_3731_2664">
<rect width="91.0002" height="47.4541" fill="white" transform="translate(4 0.891113)"/>
</clipPath>
</defs>
</svg>
