<svg width="208" height="40" viewBox="0 0 208 40" fill="none" xmlns="http://www.w3.org/2000/svg">
<mask id="mask0_3730_2410" style="mask-type:luminance" maskUnits="userSpaceOnUse" x="0" y="0" width="208" height="40">
<path d="M208 0H0V39.7859H208V0Z" fill="white"/>
</mask>
<g mask="url(#mask0_3730_2410)">
<path fill-rule="evenodd" clip-rule="evenodd" d="M49.9954 8.09058H52.6455L65.9531 25.5848V8.09058H69.0815V31.3948H66.4314L53.1237 13.9006V31.3948H49.9941V8.09058H49.9954ZM135.416 8.09058H138.156L146.523 21.4484L154.891 8.09058H157.631V31.3948H154.503V14.6154L147.544 25.726H145.504L138.545 14.6154V31.3948H135.416V8.09058ZM196.741 8.09058H193.611V31.3948H196.741V18.5748C197.222 18.0883 198.38 17.2234 200.495 17.2234C202.611 17.2234 203.658 18.0037 204.147 18.7673C204.719 19.6567 204.875 20.8542 204.875 21.9476V31.3948H208.005V21.9476C208.005 20.6796 207.847 18.7275 206.776 17.0578C205.623 15.2611 203.599 14.0738 200.495 14.0738C198.96 14.0738 197.718 14.3934 196.741 14.8337V8.09058ZM100.42 31.0804H103.501V14.0751H100.37V27.4201C100.28 27.5164 100.154 27.6332 99.9871 27.7551C99.5024 28.1054 98.5723 28.5624 96.9299 28.5624C94.7289 28.5624 93.6563 27.8449 93.0888 27.1288C92.469 26.3459 92.2369 25.2871 92.2369 24.3117V14.0751H89.1073V24.3104C89.1073 25.6965 89.4236 27.551 90.6415 29.0898C91.913 30.6954 93.9687 31.7105 96.9299 31.7105C98.3532 31.7105 99.5034 31.4564 100.42 31.0804ZM109.13 14.0738H106.002V31.3948H109.13V19.7427C109.13 19.649 109.246 19.0895 110.681 18.476C111.996 17.9139 113.963 17.5391 116.327 17.5391V14.3895C113.686 14.3895 111.272 14.8015 109.457 15.5781C109.349 15.6242 109.239 15.673 109.13 15.7257V14.0751V14.0738ZM117.892 21.6319C117.892 17.4582 121.254 14.0738 125.401 14.0738C129.548 14.0738 132.91 17.4582 132.91 21.6319V24.1512C132.91 28.325 129.548 31.7092 125.401 31.7092C121.254 31.7092 117.892 28.325 117.892 24.1512V21.6319ZM125.401 17.2234C122.981 17.2234 121.021 19.1973 121.021 21.6319V24.1512C121.021 26.5859 122.981 28.5598 125.401 28.5598C127.82 28.5598 129.781 26.5859 129.781 24.1512V21.6319C129.781 19.1973 127.82 17.2234 125.401 17.2234ZM79.0924 14.0738C77.0367 14.0738 75.111 14.74 73.703 16.2095C72.2978 17.6752 71.5835 19.7593 71.5835 22.2621V23.5224C71.5835 25.6798 72.1638 27.7294 73.462 29.2657C74.7896 30.8365 76.7307 31.7092 79.0937 31.7092C82.7411 31.7092 84.8032 29.5621 85.4995 28.1619L82.7015 26.754C82.458 27.243 81.3918 28.5598 79.095 28.5598C77.5456 28.5598 76.5151 28.0156 75.8481 27.225C75.2933 26.5679 74.9031 25.6361 74.7679 24.4657H86.6052V22.2608C86.6052 19.7582 85.8898 17.6739 84.4857 16.2082C83.0777 14.7387 81.152 14.0726 79.0963 14.0726L79.0924 14.0738ZM83.4246 21.3175H74.759C74.9056 19.9404 75.3725 19.0034 75.9553 18.3951C76.6592 17.6597 77.7063 17.2234 79.0924 17.2234C80.4787 17.2234 81.5257 17.6597 82.2297 18.3951C82.8125 19.0034 83.2792 19.9404 83.4259 21.3175H83.4246ZM162.252 16.2095C163.66 14.74 165.585 14.0738 167.641 14.0738C169.697 14.0738 171.623 14.74 173.031 16.2095C174.435 17.6752 175.15 19.7593 175.15 22.2621V24.4669H163.314C163.449 25.6374 163.839 26.5692 164.394 27.2263C165.061 28.0169 166.091 28.5611 167.641 28.5611C169.939 28.5611 171.005 27.2443 171.247 26.7553L174.046 28.1632C173.351 29.5634 171.289 31.7105 167.641 31.7105C165.28 31.7105 163.337 30.8378 162.009 29.267C160.713 27.7306 160.133 25.6811 160.133 23.5237V22.2634C160.133 19.7606 160.848 17.6764 162.252 16.2107V16.2095ZM171.973 21.3175C171.828 19.9404 171.362 19.0034 170.778 18.3951C170.074 17.6597 169.028 17.2234 167.641 17.2234C166.255 17.2234 165.209 17.6597 164.504 18.3951C163.921 19.0034 163.454 19.9404 163.309 21.3175H171.973ZM187.535 14.8362C185.442 13.8531 183.031 13.8236 180.916 14.7554L180.649 14.8721C178.828 15.6742 177.653 17.4852 177.653 19.4847C177.653 21.8129 179.274 23.9755 181.739 24.2873C182.52 24.3861 183.396 24.4644 184.222 24.4644C184.855 24.4644 185.574 24.5247 186.275 24.612C187.03 24.7069 187.665 25.3974 187.665 26.3394C187.665 27.1749 187.133 27.9167 186.345 28.1811L186.046 28.2813C185.054 28.615 183.983 28.6252 182.983 28.3108L182.7 28.2209C181.649 27.8911 180.893 26.9658 180.772 25.8659L177.661 26.2137C177.92 28.5572 179.53 30.5247 181.766 31.228L182.051 31.3166C183.675 31.8286 185.42 31.812 187.036 31.2691L187.336 31.1689C189.4 30.4759 190.793 28.5315 190.793 26.3407C190.793 23.987 189.153 21.8001 186.66 21.4881C185.892 21.3919 185.032 21.3162 184.222 21.3162C183.577 21.3162 182.841 21.2533 182.129 21.1635C181.396 21.0711 180.781 20.4011 180.781 19.486C180.781 18.7366 181.222 18.0589 181.903 17.7585L182.169 17.6417C183.461 17.0732 184.934 17.0912 186.211 17.6905L186.292 17.7278C187.037 18.0781 187.557 18.7827 187.674 19.6028L187.68 19.6503L190.777 19.2049L190.771 19.1575C190.504 17.285 189.318 15.6742 187.615 14.8747L187.535 14.8375V14.8362Z" fill="#BAC7E1"/>
<path fill-rule="evenodd" clip-rule="evenodd" d="M0.00292969 0L17.3469 13.5272L34.6909 0V19.6362H30.6099V8.37942L17.3469 18.7237L4.08386 8.37942V19.6362H0.00292969V0Z" fill="#BAC7E1"/>
<path d="M23.5951 26.7807C23.8768 26.7807 24.1052 26.5508 24.1052 26.2673C24.1052 25.9838 23.8768 25.7539 23.5951 25.7539C23.3133 25.7539 23.085 25.9838 23.085 26.2673C23.085 26.5508 23.3133 26.7807 23.5951 26.7807Z" fill="#BAC7E1"/>
<path fill-rule="evenodd" clip-rule="evenodd" d="M33.6702 24.4904C33.6702 24.2863 33.7965 24.1092 33.9547 23.9808C34.248 23.746 34.4354 23.3841 34.4354 22.9772C34.4354 22.2688 33.8641 21.6938 33.1602 21.6938C32.4562 21.6938 31.8848 22.2688 31.8848 22.9772C31.8848 23.1466 31.918 23.3071 31.9767 23.456C32.0672 23.6818 32.085 23.9513 31.9359 24.1439L27.6586 29.678C27.4979 29.8859 27.2071 29.932 26.9635 29.8345C26.6714 29.7165 26.3514 29.6522 26.0172 29.6522C25.5479 29.6522 25.108 29.7793 24.7304 30.0026C24.5175 30.1285 24.2459 30.1335 24.0558 29.9757L19.4953 26.1627C19.3168 26.0125 19.2672 25.761 19.3245 25.5338C19.364 25.3733 19.3857 25.2053 19.3857 25.032C19.3857 23.8974 18.4726 22.9785 17.3452 22.9785C16.2179 22.9785 15.3048 23.8974 15.3048 25.032C15.3048 25.1975 15.3239 25.3579 15.3609 25.5133C15.4145 25.7379 15.3647 25.9856 15.1875 26.1345L12.2377 28.6038C12.165 28.664 12.0656 28.6769 11.9737 28.6551C11.8972 28.6358 11.8156 28.6268 11.7326 28.6268C11.572 28.6268 11.4202 28.664 11.285 28.7308C11.1907 28.7769 11.0784 28.7834 10.9892 28.7256L4.17403 24.303C3.96106 24.1644 3.88964 23.8884 3.93172 23.6369C3.94575 23.5484 3.95341 23.4573 3.95341 23.3649C3.95341 22.4433 3.21118 21.6963 2.29553 21.6963C1.37986 21.6963 0.637646 22.4433 0.637646 23.3649C0.637646 23.9745 0.962846 24.5083 1.44746 24.7996C1.63748 24.9139 1.78541 25.1038 1.78541 25.3272V34.8206C1.78541 35.0606 1.61707 35.262 1.39772 35.3557C0.576432 35.7074 0 36.5275 0 37.4824C0 38.7581 1.02789 39.7925 2.29553 39.7925C3.56317 39.7925 4.59105 38.7581 4.59105 37.4824C4.59105 37.2604 4.56044 37.046 4.50178 36.8432C4.43674 36.6147 4.48521 36.3594 4.66757 36.2079L11.2736 30.7136C11.3438 30.6559 11.4381 30.6418 11.5261 30.6598C11.5924 30.6738 11.6625 30.6803 11.7326 30.6803C12.1102 30.6803 12.4392 30.4737 12.6164 30.1682C12.6815 30.0552 12.8039 29.977 12.9314 30.0013L23.2881 31.9971C23.3927 32.0176 23.4654 32.1139 23.4654 32.2204C23.4654 33.6386 24.6068 34.7872 26.0159 34.7872C26.4559 34.7872 26.8704 34.6743 27.2326 34.4767C27.443 34.3611 27.7057 34.3611 27.8894 34.5151L31.4449 37.4876C31.6119 37.6261 31.6642 37.8559 31.6387 38.0715C31.6323 38.1305 31.6285 38.1909 31.6285 38.2524C31.6285 39.1034 32.3133 39.7925 33.1589 39.7925C34.0043 39.7925 34.6892 39.1034 34.6892 38.2524C34.6892 37.7109 34.4112 37.2347 33.9916 36.96C33.8105 36.8419 33.669 36.6545 33.669 36.4364V24.4917L33.6702 24.4904ZM16.4742 26.8878C16.2612 26.7864 16.0037 26.7864 15.8226 26.9391L13.0258 29.2801C12.9429 29.3493 12.9773 29.4841 13.0832 29.5047L23.2958 31.4721C23.4463 31.5017 23.5929 31.4067 23.6503 31.2642C23.7013 31.1346 23.672 30.9857 23.5662 30.8972L18.845 26.9507C18.6664 26.8006 18.4114 26.7993 18.1997 26.8967C17.9408 27.0174 17.6513 27.0841 17.3465 27.0841C17.0417 27.0841 16.7382 27.0135 16.4742 26.8878ZM3.19461 24.7663C3.40375 24.6302 3.67667 24.5866 3.88581 24.7226L10.6244 29.094C10.7316 29.1633 10.7673 29.3019 10.7405 29.4276C10.7252 29.4995 10.7163 29.5752 10.7163 29.651C10.7163 29.6613 10.7163 29.6728 10.7163 29.6831C10.7188 29.7755 10.6883 29.8679 10.6168 29.9269L4.0363 35.4007C3.85139 35.5547 3.58612 35.5522 3.37442 35.4379C3.31704 35.4071 3.25709 35.3789 3.19588 35.3519C2.97653 35.2583 2.80819 35.0554 2.80819 34.8167V25.3233C2.80819 25.1 2.95613 24.91 3.14614 24.7959C3.16273 24.7855 3.17931 24.7753 3.19461 24.765V24.7663ZM28.5691 32.2178C28.5691 32.522 28.5168 32.8133 28.4199 33.0841C28.337 33.3177 28.3816 33.5872 28.5704 33.7464L32.2585 36.8291C32.3286 36.8869 32.4268 36.8945 32.5085 36.8548C32.5914 36.8163 32.6487 36.7354 32.6487 36.6443V24.38C32.6487 24.258 32.497 24.2016 32.423 24.2991C31.631 25.3323 28.9835 28.7898 28.0577 29.995C27.897 30.2029 27.9263 30.4942 28.0806 30.7085C28.3868 31.1321 28.5679 31.6544 28.5679 32.2178H28.5691Z" fill="#BAC7E1"/>
<path d="M11.0977 34.2713C11.5198 34.2713 11.8628 33.9261 11.8628 33.5013C11.8628 33.0764 11.5198 32.7312 11.0977 32.7312C10.6756 32.7312 10.3325 33.0764 10.3325 33.5013C10.3325 33.9261 10.6756 34.2713 11.0977 34.2713Z" fill="#BAC7E1"/>
</g>
</svg>
