<svg width="168" height="50" viewBox="0 0 168 50" fill="none" xmlns="http://www.w3.org/2000/svg">
<path fill-rule="evenodd" clip-rule="evenodd" d="M35.0554 45.9346C46.6849 45.9346 56.1124 36.562 56.1124 25C56.1124 13.5861 46.9249 4.30587 35.5011 4.07003H34.6097C23.1875 4.30587 14 13.5861 14 25C14 36.562 23.4274 45.9346 35.0554 45.9346ZM41.3293 33.7362C40.238 33.7362 39.8651 32.8236 40.153 31.2247L40.8419 27.2004C40.9858 26.3432 41.1003 25.5152 41.1003 24.8874C41.1003 23.1177 39.9518 21.9481 38.1422 21.9481C35.7878 21.9481 33.6347 24.2302 32.5155 26.0862L33.7054 19.3457L33.7184 19.3161L38.6337 17.8058L37.8826 15.3919L34.2038 16.5224L34.4101 15.3538C34.7537 13.3547 34.4969 12.5267 32.2848 12.5267C31.223 12.5267 30.7927 12.7837 30.7927 12.7837C30.7927 12.7837 31.079 13.4409 30.7633 15.2399L30.3321 17.6959L30.3131 17.7181L25.2484 19.2746L25.9978 21.6885L29.8141 20.5158L29.8364 20.5197L27.5761 33.3946C27.2325 35.3922 27.4911 36.22 29.7014 36.22C30.7633 36.22 31.1935 35.963 31.1935 35.963C31.1935 35.963 30.9073 35.3059 31.223 33.5084C32.0836 28.7132 34.8405 24.4596 36.6501 24.4596C37.2816 24.4596 37.5679 24.8874 37.3389 26.257L36.7925 29.3981C36.7651 29.565 36.7382 29.7278 36.7119 29.8865L36.7111 29.8915L36.7107 29.8938L36.7101 29.8977C36.5172 31.0632 36.3621 32.0002 36.3621 32.6513C36.3621 34.7936 37.6825 36.22 39.8372 36.22C42.5075 36.22 44.6033 33.5084 44.8897 31.9958C44.9763 31.4817 44.7178 31.254 44.3448 31.254C43.512 32.9083 42.4501 33.7362 41.3293 33.7362ZM33.7467 16.6629L34.2038 16.5224L34.2018 16.5336L33.7467 16.6629ZM71.8713 18.1194C73.2226 18.1194 74.3746 18.4576 75.3268 19.1343C76.2773 19.811 76.9957 20.7642 77.48 21.9907C77.9641 23.2188 78.2063 24.6583 78.2063 26.3109V26.6233C78.2063 28.2076 77.9593 29.6228 77.4668 30.8721C76.9776 32.1179 76.2593 33.094 75.3137 33.7999C74.3713 34.5075 73.2341 34.8605 71.9039 34.8605C70.3103 34.8605 69.0145 34.2993 68.0166 33.1753V40.7684H63.4877V18.4186H67.6893L67.853 19.9671C68.8738 18.7358 70.2123 18.1194 71.8713 18.1194ZM73.6906 26.3109C73.6906 24.9185 73.45 23.8125 72.9707 22.9927C72.4897 22.1728 71.7355 21.7629 70.7063 21.7629C69.4138 21.7629 68.5172 22.2558 68.0166 23.24V29.6944C68.5352 30.7224 69.44 31.2363 70.7325 31.2363C71.7617 31.2363 72.5126 30.8134 72.9838 29.9676C73.4551 29.1218 73.6906 28.0076 73.6906 26.6233V26.3109ZM81.0101 11.641V34.5567H85.5585V11.641H81.0101ZM102.246 30.5792C102.246 31.495 102.3 32.2367 102.41 32.8044C102.518 33.3689 102.685 33.8699 102.907 34.3074V34.5611H98.3587C98.1575 34.1757 98.012 33.6942 97.9202 33.1168C96.8895 34.2798 95.5349 34.8605 93.8561 34.8605C92.8352 34.8605 91.9027 34.6523 91.0616 34.2359C90.2239 33.8161 89.5597 33.2387 89.0721 32.5051C88.5878 31.7683 88.3456 30.9371 88.3456 30.0131C88.3456 28.3133 88.9805 27.0039 90.2501 26.0833C91.523 25.1593 93.3948 24.6974 95.8653 24.6974H97.7109V23.7865C97.7109 23.0447 97.5211 22.4689 97.1415 22.0557C96.762 21.6393 96.1925 21.4311 95.4334 21.4311C94.7429 21.4311 94.2046 21.5937 93.8169 21.9191C93.4323 22.2411 93.241 22.6998 93.241 23.2984H88.7056C88.7056 22.3322 88.9935 21.4556 89.5694 20.6698C90.1455 19.8858 90.9602 19.2645 92.0172 18.809C93.0724 18.3503 94.2897 18.1194 95.669 18.1194C96.9517 18.1194 98.0872 18.3341 99.0786 18.7635C100.069 19.1896 100.842 19.8305 101.402 20.6893C101.965 21.5449 102.246 22.5876 102.246 23.8189V30.5792ZM94.8771 31.4446C95.5349 31.4446 96.1157 31.3046 96.618 31.0216C97.1186 30.7353 97.4834 30.3889 97.7109 29.9806V27.2805H95.9897C94.9376 27.2805 94.1539 27.5081 93.6401 27.9636C93.1248 28.4158 92.8679 29.003 92.8679 29.7268C92.8679 30.2343 93.0479 30.6491 93.4111 30.9695C93.7777 31.2868 94.2651 31.4446 94.8771 31.4446ZM118.209 19.5768C117.319 18.6057 116.059 18.1194 114.433 18.1194C113.468 18.1194 112.59 18.3048 111.802 18.6723C111.012 19.0417 110.331 19.5801 109.76 20.286L109.616 18.4186H105.369V34.5611H109.897V23.1943C110.167 22.7357 110.519 22.381 110.951 22.1338C111.386 21.8865 111.902 21.7629 112.496 21.7629C113.355 21.7629 113.989 21.95 114.4 22.3225C114.809 22.6966 115.015 23.3603 115.015 24.3135V34.5611H119.544V24.3265C119.544 22.1273 119.099 20.5446 118.209 19.5768ZM136.338 28.9071C136.338 30.0522 136.037 31.0785 135.435 31.9846C134.836 32.8874 134.025 33.5917 133.001 34.0993C131.975 34.6067 130.838 34.8605 129.591 34.8605C127.958 34.8605 126.577 34.5075 125.448 33.7999C124.318 33.094 123.469 32.1245 122.902 30.8916C122.335 29.6602 122.052 28.2564 122.052 26.6819V26.298C122.052 24.7234 122.335 23.3212 122.902 22.0883C123.469 20.857 124.313 19.8874 125.435 19.1798C126.561 18.4739 127.935 18.1194 129.558 18.1194C130.888 18.1194 132.066 18.3763 133.092 18.887C134.116 19.3995 134.913 20.1363 135.481 21.0993C136.052 22.059 136.338 23.1879 136.338 24.4891H132.091C132.081 23.6953 131.845 23.0415 131.384 22.5241C130.926 22.0036 130.286 21.7434 129.467 21.7434C128.367 21.7434 127.611 22.1566 127.202 22.9796C126.791 23.7994 126.587 24.9056 126.587 26.298V26.6819C126.587 28.1052 126.79 29.2194 127.196 30.0262C127.601 30.8329 128.369 31.2363 129.499 31.2363C130.28 31.2363 130.903 31.0282 131.371 30.6117C131.842 30.1921 132.081 29.6228 132.091 28.9071H136.338ZM143.286 29.7179L144.804 28.2084L148.809 34.5651H154L147.717 25.1243L153.534 18.4226H148.103L144.039 23.2114L143.286 24.1808V11.6364H138.757V34.5651H143.286V29.7179Z" fill="#BAC7E1"/>
</svg>
