<svg width="174" height="50" viewBox="0 0 174 50" fill="none" xmlns="http://www.w3.org/2000/svg">
<path d="M68.105 34.2856V15.2153H81.4663V18.0999H71.4436V23.0945H80.9475V25.8188H71.4436V34.2856H68.105Z" fill="#BAC7E1"/>
<path d="M83.311 34.3432V20.1628H86.482V34.3432H83.311ZM83.311 18.3758V15.2729H86.482V18.3758H83.311Z" fill="#BAC7E1"/>
<path d="M142.396 34.3432V20.1628H145.567V34.3432H142.396ZM142.396 18.3758V15.2729H145.567V18.3758H142.396Z" fill="#BAC7E1"/>
<path d="M89.7773 34.2856V15.2153H92.8222V34.2856H89.7773Z" fill="#BAC7E1"/>
<path d="M109.117 28.0998H98.622C98.622 30.3368 100.085 32.0951 102.461 32.0951C104.284 32.0951 105.388 31.5243 105.941 29.9501H108.923C108.233 33.0709 105.582 34.8108 102.461 34.8108C97.9868 34.8108 95.4736 31.5289 95.4736 27.1377C95.4736 23.078 98.1249 19.7593 102.378 19.7593C106.88 19.7593 109.641 23.8191 109.117 28.0998ZM98.622 25.9272H105.968C105.858 23.9387 104.505 22.2449 102.378 22.2449C100.196 22.2449 98.7049 23.8007 98.622 25.9272Z" fill="#BAC7E1"/>
<path d="M124.123 24.9847H121.078C120.722 23.2759 119.609 22.394 117.926 22.394C116.351 22.394 114.093 23.2219 114.093 27.4153C114.093 29.7122 115.149 32.0954 117.793 32.0954C119.556 32.0954 120.895 31.346 121.193 29.4438H124.238C123.677 33.0228 121.345 34.6894 117.793 34.6894C113.466 34.6894 110.98 31.475 110.98 27.4153C110.98 23.2486 113.359 19.8169 117.9 19.8169C121.105 19.8169 123.829 21.5927 124.123 24.9847Z" fill="#BAC7E1"/>
<path d="M148.736 34.4024L148.737 20.105H151.853V22.0106L151.907 22.0649C152.831 20.5161 154.252 19.8169 156.1 19.8169C159.143 19.8169 161.072 21.6047 161.072 24.7566V34.4024H157.845V25.5717C157.79 23.3708 157.051 22.4198 155.23 22.4198C153.165 22.4198 151.834 24.0501 151.834 26.1151V34.4024H148.736Z" fill="#BAC7E1"/>
<path d="M132.765 32.1429C135.49 32.1429 136.692 29.6589 136.692 27.2551C136.692 24.878 135.49 22.394 132.765 22.394C130.041 22.394 128.839 24.878 128.839 27.2551C128.839 29.6589 130.041 32.1429 132.765 32.1429ZM132.765 34.5467C128.332 34.5467 125.794 31.5018 125.794 27.2551C125.794 23.0351 128.332 19.9902 132.765 19.9902C137.199 19.9902 139.737 23.0351 139.737 27.2551C139.737 31.5018 137.199 34.5467 132.765 34.5467Z" fill="#BAC7E1"/>
<path fill-rule="evenodd" clip-rule="evenodd" d="M12.9272 24.8929C12.9272 36.8232 22.6005 46.4964 34.4233 46.4964C46.2461 46.4964 55.8118 36.9306 55.9193 25.2153C55.9193 13.1775 46.3536 3.61179 34.5308 3.50431C22.6005 3.39682 13.0347 13.07 12.9272 24.8929ZM35.6049 25.7029L36.1383 22.8584L40.8496 23.5695L41.2051 22.2362L36.3161 21.525C36.6071 20.6103 36.8593 19.6955 37.109 18.7898C37.393 17.7593 37.6738 16.7406 38.005 15.7471C38.2717 15.1248 38.7162 14.5026 39.1606 14.0581C39.7829 13.4359 40.5829 13.5248 41.1162 14.2359C41.2496 14.3692 41.3607 14.5026 41.4718 14.6359C41.5829 14.7693 41.694 14.9026 41.8274 15.0359C42.1829 15.3915 42.6274 15.4804 42.983 15.2137C43.2496 14.947 43.2496 14.5026 43.2496 14.147C43.2496 13.9692 43.0719 13.7914 42.983 13.7026C42.4496 13.0803 41.6496 12.8136 40.8496 12.8136C38.9828 12.7247 37.7383 13.6137 36.6716 15.0359C35.6049 16.4582 35.1605 18.0582 34.716 19.6583C34.6125 19.9172 34.5391 20.1762 34.4607 20.4527C34.4045 20.6508 34.3458 20.8579 34.2716 21.0806L29.027 20.3694L28.8492 21.7917L33.916 22.5917L33.2938 25.3474L28.4047 24.6362L28.2269 25.9696L32.9382 26.6807V27.0363C32.5682 28.8125 32.1365 30.527 31.6945 32.2826C31.6057 32.6357 31.5163 32.9904 31.427 33.3476C31.1604 34.3254 30.7159 35.3032 29.9159 36.0144C29.2047 36.5477 28.4936 36.4588 27.9603 35.7477C27.7825 35.3921 27.5158 35.0366 27.2491 34.7699C26.9824 34.681 26.538 34.5921 26.3602 34.681C26.0935 34.8588 25.9157 35.3032 25.9157 35.6588C25.9157 35.9255 26.1824 36.2811 26.4491 36.4588C27.2491 37.0811 28.3158 37.17 29.2936 36.9922C30.9826 36.7255 32.2271 35.6588 32.9382 34.1476C33.4715 32.9921 33.916 31.7476 34.3605 30.5031C34.6309 29.8541 34.8026 29.1393 34.9756 28.4188C35.0871 27.955 35.199 27.4888 35.3383 27.0363L40.3162 27.7474L40.6718 26.4141L35.6049 25.7029Z" fill="#BAC7E1"/>
</svg>
