<svg width="230" height="115" viewBox="0 0 230 115" fill="none" xmlns="http://www.w3.org/2000/svg">
<path d="M48.5787 57.5141L38.2871 49.1007L48.5787 40.6875V57.5141Z" fill="#BAC7E1" stroke="#BAC7E1" stroke-width="0.470296"/>
<path d="M48.5767 88.1879V88.4529H48.8417H55.2517H55.2592H55.5244V88.1879V26.5977V26.0384L55.0914 26.3925L32.8093 44.6158L10.5272 26.3925L10.0942 26.0384V26.5977V88.1879V88.4529H10.3593H16.7768H17.042V88.1879V66.4833L32.8093 53.5854L48.5767 66.4833V88.1879ZM1.00195 95.935V19.0469H64.6091V95.935H1.00195Z" fill="#BAC7E1" stroke="#BAC7E1" stroke-width="0.470296"/>
<path d="M17.0352 40.6875L27.3193 49.1005L17.0352 57.5136V40.6875Z" fill="#BAC7E1" stroke="#BAC7E1" stroke-width="0.470296"/>
<path d="M87.4989 33.4453V52.6408H84.9944V33.4453H87.4989ZM93.6691 33.4453V35.5283H78.8379V33.4453H93.6691ZM110.675 41.6983V43.7682H100.286V41.6983H110.675ZM100.682 33.4453V52.6408H98.1369V33.4453H100.682ZM112.89 33.4453V52.6408H110.359V33.4453H112.89ZM131.226 50.5709V52.6408H121.062V50.5709H131.226ZM121.576 33.4453V52.6408H119.032V33.4453H121.576ZM129.882 41.6983V43.7682H121.062V41.6983H129.882ZM131.095 33.4453V35.5283H121.062V33.4453H131.095ZM87.486 72.4852H82.3575V70.4153H87.486C88.479 70.4153 89.2835 70.2571 89.8986 69.9407C90.5137 69.6243 90.9623 69.1848 91.2436 68.6223C91.5333 68.0598 91.6785 67.4182 91.6785 66.6975C91.6785 66.0383 91.5333 65.4187 91.2436 64.8386C90.9623 64.2585 90.5137 63.7927 89.8986 63.4411C89.2835 63.0807 88.479 62.9006 87.486 62.9006H82.9506V80.0131H80.4065V60.8176H87.486C88.936 60.8176 90.1624 61.068 91.1645 61.569C92.1659 62.07 92.9262 62.7644 93.4448 63.6521C93.9634 64.5309 94.2226 65.5373 94.2226 66.6712C94.2226 67.9016 93.9634 68.9519 93.4448 69.8221C92.9262 70.6921 92.1659 71.3558 91.1645 71.8128C90.1624 72.261 88.936 72.4852 87.486 72.4852ZM113.839 69.8088V71.0217C113.839 72.4632 113.658 73.7552 113.298 74.8978C112.938 76.0404 112.419 77.0116 111.742 77.8114C111.066 78.6112 110.253 79.222 109.303 79.6439C108.363 80.0658 107.308 80.2768 106.139 80.2768C105.006 80.2768 103.964 80.0658 103.015 79.6439C102.075 79.222 101.257 78.6112 100.562 77.8114C99.8773 77.0116 99.345 76.0404 98.9672 74.8978C98.5893 73.7552 98.4007 72.4632 98.4007 71.0217V69.8088C98.4007 68.3675 98.5855 67.0798 98.9542 65.946C99.3321 64.8034 99.8636 63.8323 100.549 63.0325C101.235 62.2238 102.048 61.6086 102.989 61.1867C103.938 60.7648 104.979 60.5539 106.113 60.5539C107.282 60.5539 108.337 60.7648 109.277 61.1867C110.226 61.6086 111.039 62.2238 111.716 63.0325C112.402 63.8323 112.925 64.8034 113.285 65.946C113.654 67.0798 113.839 68.3675 113.839 69.8088ZM111.32 71.0217V69.7825C111.32 68.6399 111.202 67.6292 110.965 66.7502C110.736 65.8713 110.398 65.1331 109.95 64.5354C109.501 63.9377 108.952 63.4851 108.302 63.1775C107.66 62.8698 106.93 62.716 106.113 62.716C105.322 62.716 104.606 62.8698 103.964 63.1775C103.332 63.4851 102.786 63.9377 102.329 64.5354C101.881 65.1331 101.534 65.8713 101.288 66.7502C101.041 67.6292 100.919 68.6399 100.919 69.7825V71.0217C100.919 72.1731 101.041 73.1927 101.288 74.0804C101.534 74.9593 101.885 75.702 102.342 76.3084C102.808 76.9061 103.357 77.3587 103.991 77.6664C104.632 77.974 105.349 78.1278 106.139 78.1278C106.966 78.1278 107.7 77.974 108.341 77.6664C108.982 77.3587 109.523 76.9061 109.962 76.3084C110.411 75.702 110.749 74.9593 110.978 74.0804C111.206 73.1927 111.32 72.1731 111.32 71.0217ZM129.499 75.1614C129.499 74.7132 129.429 74.3177 129.289 73.9749C129.157 73.6233 128.919 73.307 128.576 73.0257C128.243 72.7445 127.776 72.4764 127.179 72.2215C126.59 71.9666 125.843 71.7073 124.938 71.4437C123.988 71.1624 123.132 70.8504 122.367 70.5076C121.603 70.156 120.948 69.7562 120.403 69.3079C119.858 68.8596 119.44 68.3455 119.15 67.7654C118.86 67.1853 118.715 66.5217 118.715 65.7746C118.715 65.0276 118.869 64.3376 119.176 63.7048C119.484 63.072 119.924 62.5227 120.495 62.0569C121.075 61.5822 121.765 61.213 122.565 60.9494C123.364 60.6857 124.257 60.5539 125.241 60.5539C126.682 60.5539 127.904 60.8307 128.906 61.3845C129.917 61.9294 130.686 62.6457 131.213 63.5334C131.741 64.4123 132.004 65.3528 132.004 66.3547H129.473C129.473 65.634 129.319 64.9968 129.011 64.4431C128.704 63.8805 128.238 63.4411 127.614 63.1247C126.99 62.7995 126.199 62.6369 125.241 62.6369C124.336 62.6369 123.589 62.7732 123 63.0456C122.411 63.318 121.971 63.6872 121.682 64.1531C121.4 64.6188 121.26 65.1506 121.26 65.7482C121.26 66.1526 121.343 66.5217 121.51 66.8557C121.686 67.1809 121.954 67.4841 122.314 67.7654C122.684 68.0466 123.149 68.3059 123.712 68.5432C124.283 68.7806 124.964 69.009 125.755 69.2288C126.845 69.5364 127.786 69.8792 128.576 70.2571C129.368 70.635 130.018 71.0613 130.527 71.536C131.046 72.0017 131.428 72.5335 131.675 73.1312C131.929 73.72 132.057 74.388 132.057 75.1351C132.057 75.9174 131.899 76.6249 131.583 77.2577C131.266 77.8905 130.813 78.431 130.225 78.8793C129.636 79.3275 128.928 79.6747 128.102 79.9208C127.285 80.1581 126.371 80.2768 125.359 80.2768C124.472 80.2768 123.598 80.1537 122.736 79.9076C121.884 79.6615 121.106 79.2924 120.403 78.8002C119.708 78.3079 119.15 77.7015 118.728 76.9808C118.316 76.2513 118.109 75.4075 118.109 74.4495H120.64C120.64 75.1087 120.768 75.6756 121.022 76.1502C121.277 76.616 121.625 77.0027 122.064 77.3104C122.512 77.618 123.018 77.8466 123.58 77.996C124.151 78.1366 124.744 78.2069 125.359 78.2069C126.247 78.2069 126.999 78.0839 127.614 77.8377C128.23 77.5916 128.695 77.2401 129.011 76.7831C129.337 76.326 129.499 75.7855 129.499 75.1614ZM149.115 77.9432V80.0131H138.95V77.9432H149.115ZM139.464 60.8176V80.0131H136.92V60.8176H139.464ZM147.77 69.0706V71.1404H138.95V69.0706H147.77ZM148.983 60.8176V62.9006H138.95V60.8176H148.983ZM154.69 60.8176H157.155L163.444 76.4666L169.72 60.8176H172.199L164.394 80.0131H162.469L154.69 60.8176ZM153.886 60.8176H156.061L156.418 72.5247V80.0131H153.886V60.8176ZM170.814 60.8176H172.989V80.0131H170.458V72.5247L170.814 60.8176ZM191.273 77.9432V80.0131H181.109V77.9432H191.273ZM181.623 60.8176V80.0131H179.079V60.8176H181.623ZM189.929 69.0706V71.1404H181.109V69.0706H189.929ZM191.142 60.8176V62.9006H181.109V60.8176H191.142ZM206.275 75.1614C206.275 74.7132 206.205 74.3177 206.064 73.9749C205.932 73.6233 205.695 73.307 205.353 73.0257C205.018 72.7445 204.553 72.4764 203.955 72.2215C203.366 71.9666 202.619 71.7073 201.714 71.4437C200.764 71.1624 199.907 70.8504 199.143 70.5076C198.378 70.156 197.723 69.7562 197.178 69.3079C196.634 68.8596 196.216 68.3455 195.926 67.7654C195.636 67.1853 195.491 66.5217 195.491 65.7746C195.491 65.0276 195.645 64.3376 195.952 63.7048C196.26 63.072 196.699 62.5227 197.271 62.0569C197.851 61.5822 198.541 61.213 199.341 60.9494C200.14 60.6857 201.032 60.5539 202.017 60.5539C203.458 60.5539 204.68 60.8307 205.682 61.3845C206.692 61.9294 207.462 62.6457 207.989 63.5334C208.516 64.4123 208.78 65.3528 208.78 66.3547H206.249C206.249 65.634 206.095 64.9968 205.787 64.4431C205.48 63.8805 205.013 63.4411 204.39 63.1247C203.766 62.7995 202.975 62.6369 202.017 62.6369C201.111 62.6369 200.365 62.7732 199.775 63.0456C199.187 63.318 198.747 63.6872 198.457 64.1531C198.176 64.6188 198.035 65.1506 198.035 65.7482C198.035 66.1526 198.119 66.5217 198.286 66.8557C198.462 67.1809 198.729 67.4841 199.09 67.7654C199.459 68.0466 199.925 68.3059 200.487 68.5432C201.059 68.7806 201.74 69.009 202.531 69.2288C203.621 69.5364 204.561 69.8792 205.353 70.2571C206.143 70.635 206.793 71.0613 207.304 71.536C207.822 72.0017 208.205 72.5335 208.45 73.1312C208.705 73.72 208.833 74.388 208.833 75.1351C208.833 75.9174 208.674 76.6249 208.358 77.2577C208.042 77.8905 207.589 78.431 207 78.8793C206.411 79.3275 205.704 79.6747 204.877 79.9208C204.06 80.1581 203.146 80.2768 202.136 80.2768C201.247 80.2768 200.373 80.1537 199.512 79.9076C198.659 79.6615 197.881 79.2924 197.178 78.8002C196.484 78.3079 195.926 77.7015 195.504 76.9808C195.091 76.2513 194.884 75.4075 194.884 74.4495H197.415C197.415 75.1087 197.543 75.6756 197.798 76.1502C198.053 76.616 198.4 77.0027 198.839 77.3104C199.287 77.618 199.793 77.8466 200.356 77.996C200.927 78.1366 201.52 78.2069 202.136 78.2069C203.023 78.2069 203.775 78.0839 204.39 77.8377C205.005 77.5916 205.471 77.2401 205.787 76.7831C206.112 76.326 206.275 75.7855 206.275 75.1614ZM226.234 69.0706V71.1404H215.845V69.0706H226.234ZM216.241 60.8176V80.0131H213.696V60.8176H216.241ZM228.449 60.8176V80.0131H225.917V60.8176H228.449Z" fill="#BAC7E1"/>
<mask id="mask0_3846_373" style="mask-type:luminance" maskUnits="userSpaceOnUse" x="78" y="32" width="152" height="49">
<path d="M229.488 32.8672H78.1797V80.7687H229.488V32.8672Z" fill="white"/>
<path d="M87.5009 33.4375V52.633H84.9963V33.4375H87.5009ZM93.6711 33.4375V35.5205H78.8398V33.4375H93.6711ZM110.677 41.6905V43.7603H100.288V41.6905H110.677ZM100.684 33.4375V52.633H98.1388V33.4375H100.684ZM112.892 33.4375V52.633H110.361V33.4375H112.892ZM131.228 50.5631V52.633H121.064V50.5631H131.228ZM121.578 33.4375V52.633H119.034V33.4375H121.578ZM129.884 41.6905V43.7603H121.064V41.6905H129.884ZM131.097 33.4375V35.5205H121.064V33.4375H131.097ZM87.488 72.4774H82.3595V70.4075H87.488C88.481 70.4075 89.2854 70.2493 89.9005 69.9329C90.5156 69.6165 90.9642 69.177 91.2456 68.6145C91.5353 68.052 91.6805 67.4104 91.6805 66.6897C91.6805 66.0305 91.5353 65.4109 91.2456 64.8308C90.9642 64.2507 90.5156 63.7849 89.9005 63.4333C89.2854 63.0729 88.481 62.8928 87.488 62.8928H82.9525V80.0053H80.4084V60.8098H87.488C88.9379 60.8098 90.1644 61.0602 91.1665 61.5612C92.1679 62.0622 92.9282 62.7566 93.4468 63.6443C93.9653 64.5231 94.2246 65.5295 94.2246 66.6633C94.2246 67.8938 93.9653 68.9441 93.4468 69.8143C92.9282 70.6843 92.1679 71.348 91.1665 71.805C90.1644 72.2532 88.9379 72.4774 87.488 72.4774ZM113.841 69.801V71.0139C113.841 72.4554 113.66 73.7474 113.3 74.89C112.94 76.0326 112.421 77.0037 111.744 77.8036C111.068 78.6034 110.255 79.2142 109.305 79.6361C108.365 80.058 107.31 80.269 106.141 80.269C105.008 80.269 103.966 80.058 103.017 79.6361C102.077 79.2142 101.259 78.6034 100.564 77.8036C99.8792 77.0037 99.347 76.0326 98.9691 74.89C98.5912 73.7474 98.4027 72.4554 98.4027 71.0139V69.801C98.4027 68.3597 98.5874 67.072 98.9562 65.9382C99.3341 64.7956 99.8656 63.8245 100.551 63.0246C101.237 62.216 102.05 61.6008 102.991 61.1789C103.939 60.757 104.981 60.5461 106.115 60.5461C107.284 60.5461 108.339 60.757 109.279 61.1789C110.228 61.6008 111.041 62.216 111.718 63.0246C112.404 63.8245 112.927 64.7956 113.287 65.9382C113.656 67.072 113.841 68.3597 113.841 69.801ZM111.322 71.0139V69.7747C111.322 68.6321 111.204 67.6214 110.967 66.7424C110.738 65.8635 110.4 65.1252 109.951 64.5275C109.503 63.9299 108.954 63.4773 108.304 63.1696C107.662 62.862 106.932 62.7082 106.115 62.7082C105.324 62.7082 104.608 62.862 103.966 63.1696C103.333 63.4773 102.788 63.9299 102.331 64.5275C101.883 65.1252 101.536 65.8635 101.29 66.7424C101.043 67.6214 100.921 68.6321 100.921 69.7747V71.0139C100.921 72.1653 101.043 73.1849 101.29 74.0726C101.536 74.9515 101.887 75.6941 102.344 76.3006C102.81 76.8983 103.359 77.3509 103.993 77.6586C104.634 77.9662 105.351 78.12 106.141 78.12C106.968 78.12 107.702 77.9662 108.343 77.6586C108.984 77.3509 109.525 76.8983 109.964 76.3006C110.413 75.6941 110.751 74.9515 110.979 74.0726C111.208 73.1849 111.322 72.1653 111.322 71.0139ZM129.501 75.1536C129.501 74.7054 129.431 74.3099 129.291 73.9671C129.158 73.6155 128.921 73.2991 128.578 73.0179C128.245 72.7366 127.778 72.4685 127.181 72.2137C126.592 71.9588 125.845 71.6995 124.94 71.4358C123.99 71.1546 123.134 70.8426 122.369 70.4998C121.604 70.1482 120.95 69.7483 120.405 69.3001C119.859 68.8518 119.442 68.3377 119.152 67.7575C118.862 67.1775 118.717 66.5139 118.717 65.7668C118.717 65.0198 118.871 64.3298 119.178 63.697C119.486 63.0642 119.926 62.5148 120.497 62.0491C121.077 61.5744 121.767 61.2052 122.567 60.9416C123.366 60.6779 124.259 60.5461 125.243 60.5461C126.684 60.5461 127.906 60.8229 128.908 61.3767C129.919 61.9215 130.688 62.6379 131.215 63.5256C131.743 64.4045 132.006 65.345 132.006 66.3469H129.475C129.475 65.6262 129.321 64.989 129.013 64.4353C128.706 63.8727 128.24 63.4333 127.616 63.1169C126.992 62.7917 126.201 62.6291 125.243 62.6291C124.338 62.6291 123.59 62.7654 123.002 63.0378C122.413 63.3102 121.973 63.6794 121.684 64.1452C121.402 64.611 121.262 65.1428 121.262 65.7404C121.262 66.1448 121.345 66.5139 121.512 66.8479C121.688 67.1731 121.956 67.4763 122.316 67.7575C122.686 68.0388 123.151 68.2981 123.714 68.5354C124.285 68.7728 124.966 69.0012 125.757 69.221C126.847 69.5286 127.788 69.8714 128.578 70.2493C129.37 70.6272 130.02 71.0535 130.529 71.5282C131.048 71.9939 131.43 72.5257 131.677 73.1233C131.931 73.7122 132.059 74.3802 132.059 75.1273C132.059 75.9095 131.901 76.617 131.585 77.2499C131.268 77.8827 130.815 78.4232 130.227 78.8715C129.637 79.3197 128.93 79.6668 128.104 79.913C127.286 80.1503 126.373 80.269 125.361 80.269C124.474 80.269 123.6 80.1459 122.738 79.8998C121.886 79.6537 121.108 79.2845 120.405 78.7924C119.71 78.3001 119.152 77.6937 118.73 76.973C118.318 76.2435 118.111 75.3997 118.111 74.4417H120.642C120.642 75.1009 120.77 75.6678 121.024 76.1424C121.279 76.6082 121.627 76.9949 122.066 77.3026C122.514 77.6102 123.019 77.8388 123.582 77.9882C124.153 78.1287 124.746 78.1991 125.361 78.1991C126.249 78.1991 127.001 78.0761 127.616 77.8299C128.232 77.5838 128.697 77.2323 129.013 76.7753C129.339 76.3182 129.501 75.7777 129.501 75.1536ZM149.117 77.9354V80.0053H138.952V77.9354H149.117ZM139.466 60.8098V80.0053H136.922V60.8098H139.466ZM147.772 69.0627V71.1326H138.952V69.0627H147.772ZM148.985 60.8098V62.8928H138.952V60.8098H148.985ZM154.692 60.8098H157.157L163.446 76.4588L169.722 60.8098H172.201L164.396 80.0053H162.471L154.692 60.8098ZM153.888 60.8098H156.063L156.42 72.5169V80.0053H153.888V60.8098ZM170.816 60.8098H172.991V80.0053H170.46V72.5169L170.816 60.8098ZM191.275 77.9354V80.0053H181.111V77.9354H191.275ZM181.625 60.8098V80.0053H179.081V60.8098H181.625ZM189.931 69.0627V71.1326H181.111V69.0627H189.931ZM191.144 60.8098V62.8928H181.111V60.8098H191.144ZM206.277 75.1536C206.277 74.7054 206.207 74.3099 206.066 73.9671C205.934 73.6155 205.697 73.2991 205.355 73.0179C205.02 72.7366 204.555 72.4685 203.957 72.2137C203.368 71.9588 202.621 71.6995 201.716 71.4358C200.766 71.1546 199.909 70.8426 199.145 70.4998C198.38 70.1482 197.725 69.7483 197.18 69.3001C196.636 68.8518 196.218 68.3377 195.928 67.7575C195.638 67.1775 195.493 66.5139 195.493 65.7668C195.493 65.0198 195.646 64.3298 195.954 63.697C196.262 63.0642 196.701 62.5148 197.273 62.0491C197.853 61.5744 198.543 61.2052 199.343 60.9416C200.142 60.6779 201.034 60.5461 202.019 60.5461C203.46 60.5461 204.682 60.8229 205.684 61.3767C206.694 61.9215 207.464 62.6379 207.991 63.5256C208.518 64.4045 208.782 65.345 208.782 66.3469H206.251C206.251 65.6262 206.097 64.989 205.789 64.4353C205.482 63.8727 205.015 63.4333 204.392 63.1169C203.768 62.7917 202.977 62.6291 202.019 62.6291C201.113 62.6291 200.367 62.7654 199.777 63.0378C199.189 63.3102 198.749 63.6794 198.459 64.1452C198.178 64.611 198.037 65.1428 198.037 65.7404C198.037 66.1448 198.121 66.5139 198.288 66.8479C198.464 67.1731 198.731 67.4763 199.092 67.7575C199.461 68.0388 199.927 68.2981 200.489 68.5354C201.061 68.7728 201.742 69.0012 202.533 69.221C203.622 69.5286 204.563 69.8714 205.355 70.2493C206.145 70.6272 206.795 71.0535 207.306 71.5282C207.824 71.9939 208.207 72.5257 208.452 73.1233C208.707 73.7122 208.835 74.3802 208.835 75.1273C208.835 75.9095 208.676 76.617 208.36 77.2499C208.044 77.8827 207.591 78.4232 207.002 78.8715C206.413 79.3197 205.706 79.6668 204.879 79.913C204.062 80.1503 203.148 80.269 202.138 80.269C201.249 80.269 200.375 80.1459 199.514 79.8998C198.661 79.6537 197.883 79.2845 197.18 78.7924C196.486 78.3001 195.928 77.6937 195.506 76.973C195.093 76.2435 194.886 75.3997 194.886 74.4417H197.417C197.417 75.1009 197.545 75.6678 197.8 76.1424C198.054 76.6082 198.402 76.9949 198.841 77.3026C199.289 77.6102 199.795 77.8388 200.358 77.9882C200.929 78.1287 201.522 78.1991 202.138 78.1991C203.025 78.1991 203.777 78.0761 204.392 77.8299C205.007 77.5838 205.473 77.2323 205.789 76.7753C206.114 76.3182 206.277 75.7777 206.277 75.1536ZM226.236 69.0627V71.1326H215.846V69.0627H226.236ZM216.243 60.8098V80.0053H213.698V60.8098H216.243ZM228.451 60.8098V80.0053H225.919V60.8098H228.451Z" fill="black"/>
</mask>
<g mask="url(#mask0_3846_373)">
<path d="M87.4994 33.4336H87.8788V33.0547H87.4994V33.4336ZM87.4994 52.6291V53.008H87.8788V52.6291H87.4994ZM84.9949 52.6291H84.6162V53.008H84.9949V52.6291ZM84.9949 33.4336V33.0547H84.6162V33.4336H84.9949ZM93.6696 33.4336H94.049V33.0547H93.6696V33.4336ZM93.6696 35.5167V35.8955H94.049V35.5167H93.6696ZM78.8384 35.5167H78.459V35.8955H78.8384V35.5167ZM78.8384 33.4336V33.0547H78.459V33.4336H78.8384ZM87.1208 33.4336V52.6291H87.8788V33.4336H87.1208ZM87.4994 52.2502H84.9949V53.008H87.4994V52.2502ZM85.3735 52.6291V33.4336H84.6162V52.6291H85.3735ZM84.9949 33.8125H87.4994V33.0547H84.9949V33.8125ZM93.291 33.4336V35.5167H94.049V33.4336H93.291ZM93.6696 35.1377H78.8384V35.8955H93.6696V35.1377ZM79.217 35.5167V33.4336H78.459V35.5167H79.217ZM78.8384 33.8125H93.6696V33.0547H78.8384V33.8125ZM110.675 41.6866H111.054V41.3077H110.675V41.6866ZM110.675 43.7565V44.1354H111.054V43.7565H110.675ZM100.286 43.7565H99.9074V44.1354H100.286V43.7565ZM100.286 41.6866V41.3077H99.9074V41.6866H100.286ZM100.682 33.4336H101.061V33.0547H100.682V33.4336ZM100.682 52.6291V53.008H101.061V52.6291H100.682ZM98.1374 52.6291H97.7587V53.008H98.1374V52.6291ZM98.1374 33.4336V33.0547H97.7587V33.4336H98.1374ZM112.89 33.4336H113.269V33.0547H112.89V33.4336ZM112.89 52.6291V53.008H113.269V52.6291H112.89ZM110.359 52.6291H109.98V53.008H110.359V52.6291ZM110.359 33.4336V33.0547H109.98V33.4336H110.359ZM110.296 41.6866V43.7565H111.054V41.6866H110.296ZM110.675 43.3775H100.286V44.1354H110.675V43.3775ZM100.666 43.7565V41.6866H99.9074V43.7565H100.666ZM100.286 42.0656H110.675V41.3077H100.286V42.0656ZM100.303 33.4336V52.6291H101.061V33.4336H100.303ZM100.682 52.2502H98.1374V53.008H100.682V52.2502ZM98.516 52.6291V33.4336H97.7587V52.6291H98.516ZM98.1374 33.8125H100.682V33.0547H98.1374V33.8125ZM112.511 33.4336V52.6291H113.269V33.4336H112.511ZM112.89 52.2502H110.359V53.008H112.89V52.2502ZM110.738 52.6291V33.4336H109.98V52.6291H110.738ZM110.359 33.8125H112.89V33.0547H110.359V33.8125ZM131.227 50.5593H131.606V50.1803H131.227V50.5593ZM131.227 52.6291V53.008H131.606V52.6291H131.227ZM121.062 52.6291H120.683V53.008H121.062V52.6291ZM121.062 50.5593V50.1803H120.683V50.5593H121.062ZM121.576 33.4336H121.955V33.0547H121.576V33.4336ZM121.576 52.6291V53.008H121.955V52.6291H121.576ZM119.032 52.6291H118.653V53.008H119.032V52.6291ZM119.032 33.4336V33.0547H118.653V33.4336H119.032ZM129.882 41.6866H130.261V41.3077H129.882V41.6866ZM129.882 43.7565V44.1354H130.261V43.7565H129.882ZM121.062 43.7565H120.683V44.1354H121.062V43.7565ZM121.062 41.6866V41.3077H120.683V41.6866H121.062ZM131.095 33.4336H131.474V33.0547H131.095V33.4336ZM131.095 35.5167V35.8955H131.474V35.5167H131.095ZM121.062 35.5167H120.683V35.8955H121.062V35.5167ZM121.062 33.4336V33.0547H120.683V33.4336H121.062ZM130.848 50.5593V52.6291H131.606V50.5593H130.848ZM131.227 52.2502H121.062V53.008H131.227V52.2502ZM121.441 52.6291V50.5593H120.683V52.6291H121.441ZM121.062 50.9382H131.227V50.1803H121.062V50.9382ZM121.198 33.4336V52.6291H121.955V33.4336H121.198ZM121.576 52.2502H119.032V53.008H121.576V52.2502ZM119.411 52.6291V33.4336H118.653V52.6291H119.411ZM119.032 33.8125H121.576V33.0547H119.032V33.8125ZM129.503 41.6866V43.7565H130.261V41.6866H129.503ZM129.882 43.3775H121.062V44.1354H129.882V43.3775ZM121.441 43.7565V41.6866H120.683V43.7565H121.441ZM121.062 42.0656H129.882V41.3077H121.062V42.0656ZM130.716 33.4336V35.5167H131.474V33.4336H130.716ZM131.095 35.1377H121.062V35.8955H131.095V35.1377ZM121.441 35.5167V33.4336H120.683V35.5167H121.441ZM121.062 33.8125H131.095V33.0547H121.062V33.8125ZM82.358 72.4735H81.9794V72.8525H82.358V72.4735ZM82.358 70.4036V70.0247H81.9794V70.4036H82.358ZM91.2441 68.6107L90.9073 68.437L90.905 68.4412L91.2441 68.6107ZM91.2441 64.8269L90.9027 64.9923L90.905 64.9964L91.2441 64.8269ZM89.8991 63.4295L89.7075 63.7564L89.7113 63.7585L89.8991 63.4295ZM82.9511 62.8889V62.51H82.5724V62.8889H82.9511ZM82.9511 80.0014V80.3803H83.3305V80.0014H82.9511ZM80.407 80.0014H80.0283V80.3803H80.407V80.0014ZM80.407 60.8059V60.427H80.0283V60.8059H80.407ZM93.4453 63.6404L93.1184 63.8315L93.1191 63.833L93.4453 63.6404ZM91.165 71.8011L91.3194 72.147L91.3224 72.1459L91.165 71.8011ZM87.4865 72.0946H82.358V72.8525H87.4865V72.0946ZM82.7367 72.4735V70.4036H81.9794V72.4735H82.7367ZM82.358 70.7826H87.4865V70.0247H82.358V70.7826ZM87.4865 70.7826C88.5153 70.7826 89.3851 70.6193 90.0724 70.266L89.7257 69.592C89.1821 69.8715 88.4438 70.0247 87.4865 70.0247V70.7826ZM90.0724 70.266C90.7514 69.9166 91.2616 69.4219 91.5825 68.7801L90.905 68.4412C90.6632 68.9245 90.277 69.3086 89.7257 69.592L90.0724 70.266ZM91.5809 68.7843C91.9018 68.1611 92.0577 67.4585 92.0577 66.6859H91.3004C91.3004 67.3546 91.1658 67.9353 90.9073 68.437L91.5809 68.7843ZM92.0577 66.6859C92.0577 65.9688 91.8995 65.291 91.5825 64.6574L90.905 64.9964C91.1681 65.523 91.3004 66.0845 91.3004 66.6859H92.0577ZM91.5848 64.6616C91.2669 64.006 90.7621 63.486 90.0869 63.1005L89.7113 63.7585C90.2671 64.0761 90.6587 64.4877 90.9027 64.9923L91.5848 64.6616ZM90.0907 63.1025C89.3988 62.6973 88.5221 62.51 87.4865 62.51V63.2678C88.4377 63.2678 89.1691 63.4409 89.7075 63.7564L90.0907 63.1025ZM87.4865 62.51H82.9511V63.2678H87.4865V62.51ZM82.5724 62.8889V80.0014H83.3305V62.8889H82.5724ZM82.9511 79.6225H80.407V80.3803H82.9511V79.6225ZM80.7856 80.0014V60.8059H80.0283V80.0014H80.7856ZM80.407 61.1848H87.4865V60.427H80.407V61.1848ZM87.4865 61.1848C88.8947 61.1848 90.0595 61.4282 90.9955 61.8963L91.3346 61.2184C90.2663 60.6846 88.9791 60.427 87.4865 60.427V61.1848ZM90.9955 61.8963C91.9375 62.3674 92.6401 63.013 93.1184 63.8315L93.773 63.4492C93.2142 62.4924 92.396 61.7493 91.3346 61.2184L90.9955 61.8963ZM93.1191 63.833C93.5997 64.6472 93.8445 65.5857 93.8445 66.6595H94.6025C94.6025 65.4657 94.3288 64.3914 93.7723 63.4478L93.1191 63.833ZM93.8445 66.6595C93.8445 67.8363 93.5966 68.8163 93.1199 69.6164L93.7707 70.0044C94.3311 69.0641 94.6025 67.9435 94.6025 66.6595H93.8445ZM93.1199 69.6164C92.6447 70.4145 91.9459 71.0284 91.0077 71.4563L91.3224 72.1459C92.3877 71.6598 93.2096 70.9465 93.7707 70.0044L93.1199 69.6164ZM91.0099 71.4552C90.0694 71.8759 88.9 72.0946 87.4865 72.0946V72.8525C88.9737 72.8525 90.2557 72.6228 91.3194 72.147L91.0099 71.4552ZM109.304 79.6323L109.15 79.2859L109.149 79.2865L109.304 79.6323ZM103.016 79.6323L102.861 79.978L102.861 79.9785L103.016 79.6323ZM100.563 77.7997L100.275 78.0464L100.277 78.0481L100.563 77.7997ZM98.9547 65.9343L98.5951 65.8153L98.5943 65.817L98.9547 65.9343ZM100.55 63.0208L100.838 63.2674L100.839 63.2658L100.55 63.0208ZM102.989 61.1751L102.835 60.8287L102.834 60.8293L102.989 61.1751ZM109.278 61.1751L109.123 61.5208L109.124 61.5213L109.278 61.1751ZM111.716 63.0208L111.426 63.264L111.429 63.2674L111.716 63.0208ZM113.286 65.9343L112.924 66.0483L112.925 66.0517L113.286 65.9343ZM110.965 66.7386L110.599 66.8339L110.599 66.8373L110.965 66.7386ZM108.302 63.1658L108.138 63.5075L108.14 63.5083L108.302 63.1658ZM103.965 63.1658L103.801 62.8241L103.799 62.825L103.965 63.1658ZM102.33 64.5237L102.029 64.2935L102.027 64.2963L102.33 64.5237ZM101.288 74.0687L100.923 74.17V74.1709L101.288 74.0687ZM102.343 76.2967L102.04 76.5248L102.044 76.5297L102.343 76.2967ZM103.991 77.6547L103.825 77.9955L103.827 77.9964L103.991 77.6547ZM109.963 76.2967L109.659 76.0715L109.658 76.0723L109.963 76.2967ZM110.978 74.0687L111.345 74.164V74.1632L110.978 74.0687ZM113.461 69.7972V71.0101H114.218V69.7972H113.461ZM113.461 71.0101C113.461 72.4204 113.284 73.673 112.937 74.7721L113.66 75.0001C114.034 73.814 114.218 72.4826 114.218 71.0101H113.461ZM112.937 74.7721C112.59 75.8736 112.093 76.7986 111.454 77.5549L112.033 78.0444C112.746 77.2012 113.286 76.1838 113.66 75.0001L112.937 74.7721ZM111.454 77.5549C110.814 78.3116 110.047 78.8875 109.15 79.2859L109.458 79.9785C110.459 79.5333 111.319 78.8875 112.033 78.0444L111.454 77.5549ZM109.149 79.2865C108.264 79.6837 107.262 79.8861 106.14 79.8861V80.644C107.355 80.644 108.464 80.4245 109.459 79.978L109.149 79.2865ZM106.14 79.8861C105.054 79.8861 104.066 79.6844 103.169 79.2859L102.861 79.9785C103.863 80.4239 104.958 80.644 106.14 80.644V79.8861ZM103.171 79.2865C102.282 78.8878 101.509 78.3107 100.85 77.5513L100.277 78.0481C101.006 78.8884 101.868 79.533 102.861 79.978L103.171 79.2865ZM100.851 77.5531C100.202 76.7957 99.6923 75.8695 99.3281 74.7671L98.608 75.0051C98.9996 76.1879 99.5539 77.2041 100.275 78.0464L100.851 77.5531ZM99.3281 74.7671C98.9646 73.6696 98.7799 72.4188 98.7799 71.0101H98.0218C98.0218 72.4842 98.2157 73.8174 98.608 75.0051L99.3281 74.7671ZM98.7799 71.0101V69.7972H98.0218V71.0101H98.7799ZM98.7799 69.7972C98.7799 68.3876 98.9608 67.1406 99.3151 66.0517L98.5943 65.817C98.2104 66.9957 98.0218 68.3239 98.0218 69.7972H98.7799ZM99.3144 66.0533C99.6793 64.951 100.189 64.0248 100.838 63.2674L100.263 62.7741C99.5402 63.6164 98.9859 64.6326 98.5951 65.8153L99.3144 66.0533ZM100.839 63.2658C101.489 62.499 102.257 61.9188 103.144 61.5208L102.834 60.8293C101.84 61.275 100.982 61.9252 100.261 62.7757L100.839 63.2658ZM103.143 61.5213C104.039 61.1229 105.028 60.9212 106.113 60.9212V60.1633C104.932 60.1633 103.837 60.3835 102.835 60.8287L103.143 61.5213ZM106.113 60.9212C107.236 60.9212 108.237 61.1235 109.123 61.5208L109.433 60.8293C108.438 60.3828 107.329 60.1633 106.113 60.1633V60.9212ZM109.124 61.5213C110.019 61.9194 110.786 62.499 111.426 63.264L112.008 62.7776C111.294 61.9253 110.434 61.2745 109.431 60.8287L109.124 61.5213ZM111.429 63.2674C112.077 64.0234 112.576 64.9478 112.924 66.0483L113.647 65.8204C113.273 64.6358 112.728 63.6177 112.004 62.7741L111.429 63.2674ZM112.925 66.0517C113.28 67.1406 113.461 68.3876 113.461 69.7972H114.218C114.218 68.3239 114.029 66.9957 113.646 65.817L112.925 66.0517ZM111.7 71.0101V69.7708H110.942V71.0101H111.7ZM111.7 69.7708C111.7 68.603 111.579 67.5579 111.331 66.6398L110.599 66.8373C110.826 67.6771 110.942 68.6536 110.942 69.7708H111.7ZM111.332 66.6432C111.094 65.7266 110.737 64.941 110.253 64.2963L109.647 64.7511C110.06 65.3017 110.38 65.9927 110.599 66.8339L111.332 66.6432ZM110.253 64.2963C109.769 63.6513 109.172 63.1582 108.464 62.8233L108.14 63.5083C108.733 63.7886 109.234 64.2008 109.647 64.7511L110.253 64.2963ZM108.466 62.8241C107.766 62.4886 106.979 62.3254 106.113 62.3254V63.0833C106.883 63.0833 107.555 63.2278 108.138 63.5075L108.466 62.8241ZM106.113 62.3254C105.272 62.3254 104.499 62.4893 103.801 62.8241L104.128 63.5075C104.714 63.227 105.373 63.0833 106.113 63.0833V62.3254ZM103.799 62.825C103.109 63.1602 102.519 63.6523 102.029 64.2935L102.631 64.7539C103.054 64.1999 103.554 63.7866 104.13 63.5066L103.799 62.825ZM102.027 64.2963C101.544 64.9388 101.179 65.722 100.923 66.6364L101.653 66.8407C101.89 65.9973 102.218 65.3039 102.633 64.7511L102.027 64.2963ZM100.923 66.6364C100.666 67.5557 100.54 68.602 100.54 69.7708H101.298C101.298 68.6545 101.418 67.6793 101.653 66.8407L100.923 66.6364ZM100.54 69.7708V71.0101H101.298V69.7708H100.54ZM100.54 71.0101C100.54 72.1875 100.666 73.2423 100.923 74.17L101.653 73.9675C101.418 73.1198 101.298 72.1354 101.298 71.0101H100.54ZM100.923 74.1709C101.179 75.0863 101.55 75.8739 102.04 76.5248L102.645 76.0687C102.222 75.5067 101.889 74.809 101.653 73.9665L100.923 74.1709ZM102.044 76.5297C102.543 77.1694 103.137 77.6606 103.825 77.9955L104.157 77.3139C103.58 77.0335 103.075 76.6194 102.642 76.0638L102.044 76.5297ZM103.827 77.9964C104.525 78.3312 105.298 78.495 106.14 78.495V77.7372C105.399 77.7372 104.74 77.5935 104.155 77.313L103.827 77.9964ZM106.14 78.495C107.014 78.495 107.805 78.3322 108.505 77.9964L108.178 77.313C107.595 77.5924 106.919 77.7372 106.14 77.7372V78.495ZM108.505 77.9964C109.206 77.6607 109.794 77.1668 110.269 76.5213L109.658 76.0723C109.254 76.6221 108.761 77.0334 108.178 77.313L108.505 77.9964ZM110.268 76.522C110.75 75.8696 111.107 75.0805 111.345 74.164L110.612 73.9734C110.393 74.8147 110.072 75.5111 109.659 76.0715L110.268 76.522ZM111.345 74.1632C111.583 73.238 111.7 72.1856 111.7 71.0101H110.942C110.942 72.1374 110.831 73.1241 110.612 73.9743L111.345 74.1632ZM129.289 73.9632L128.934 74.0963L128.937 74.1017L128.938 74.1071L129.289 73.9632ZM128.577 73.014L128.333 73.3039L128.337 73.307L128.577 73.014ZM127.179 72.2098L127.029 72.5576L127.031 72.5584L127.179 72.2098ZM124.939 71.432L124.831 71.7953L124.832 71.7958L124.939 71.432ZM122.367 70.4959L122.209 70.8402L122.213 70.8417L122.367 70.4959ZM120.495 62.0452L120.735 62.3388L120.735 62.3385L120.495 62.0452ZM128.907 61.3728L128.724 61.7045L128.727 61.7063L128.907 61.3728ZM131.214 63.5217L130.888 63.7153L130.889 63.7167L131.214 63.5217ZM132.004 66.343V66.722H132.384V66.343H132.004ZM129.473 66.343H129.095V66.722H129.473V66.343ZM129.012 64.4315L128.68 64.6132L128.681 64.6155L129.012 64.4315ZM127.614 63.113L127.439 63.4491L127.443 63.451L127.614 63.113ZM121.682 64.1414L121.36 63.941L121.357 63.9455L121.682 64.1414ZM121.51 66.844L121.172 67.0135L121.174 67.0189L121.177 67.0242L121.51 66.844ZM122.315 67.7537L122.081 68.0524L122.085 68.0552L122.315 67.7537ZM123.712 68.5315L123.565 68.8807L123.567 68.8815L123.712 68.5315ZM125.756 69.2171L125.859 68.8524L125.857 68.852L125.756 69.2171ZM130.528 71.5243L130.27 71.8017L130.275 71.8062L130.528 71.5243ZM131.675 73.1195L131.325 73.2638L131.328 73.27L131.675 73.1195ZM128.102 79.9091L128.208 80.273L128.21 80.2722L128.102 79.9091ZM122.737 79.896L122.632 80.26L122.633 80.2603L122.737 79.896ZM120.403 78.7885L120.184 79.0977L120.186 79.099L120.403 78.7885ZM118.729 76.9691L118.399 77.1559L118.402 77.1606L118.729 76.9691ZM118.109 74.4378V74.0589H117.731V74.4378H118.109ZM120.64 74.4378H121.019V74.0589H120.64V74.4378ZM121.023 76.1386L120.689 76.3179L120.691 76.3204L121.023 76.1386ZM122.065 77.2987L121.847 77.6092L121.85 77.6112L122.065 77.2987ZM123.581 77.9843L123.483 78.3506L123.49 78.3522L123.581 77.9843ZM129.012 76.7714L128.703 76.5517L128.701 76.5557L129.012 76.7714ZM129.879 75.1498C129.879 74.6623 129.803 74.2164 129.64 73.8194L128.938 74.1071C129.057 74.3957 129.121 74.7408 129.121 75.1498H129.879ZM129.644 73.8302C129.485 73.4058 129.203 73.0369 128.817 72.7211L128.337 73.307C128.637 73.5536 128.829 73.8176 128.934 74.0963L129.644 73.8302ZM128.821 72.7242C128.448 72.41 127.945 72.1244 127.328 71.8613L127.031 72.5584C127.609 72.805 128.038 73.0555 128.333 73.3039L128.821 72.7242ZM127.33 71.862C126.722 71.5987 125.958 71.3344 125.044 71.0682L124.832 71.7958C125.729 72.0569 126.459 72.3111 127.029 72.5576L127.33 71.862ZM125.046 71.0686C124.11 70.7913 123.27 70.4849 122.522 70.1501L122.213 70.8417C122.995 71.1925 123.868 71.5101 124.831 71.7953L125.046 71.0686ZM122.526 70.1517C121.785 69.8112 121.16 69.4276 120.644 69.0035L120.162 69.5888C120.737 70.0613 121.421 70.4776 122.209 70.8402L122.526 70.1517ZM120.644 69.0035C120.136 68.586 119.754 68.1128 119.489 67.5843L118.812 67.9232C119.127 68.5548 119.58 69.1099 120.162 69.5888L120.644 69.0035ZM119.489 67.5843C119.23 67.0642 119.095 66.4602 119.095 65.763H118.337C118.337 66.56 118.492 67.283 118.812 67.9232L119.489 67.5843ZM119.095 65.763C119.095 65.0697 119.237 64.4368 119.518 63.8588L118.836 63.5275C118.502 64.2151 118.337 64.9621 118.337 65.763H119.095ZM119.518 63.8588C119.8 63.2779 120.204 62.7716 120.735 62.3388L120.256 61.7515C119.644 62.2504 119.169 62.8427 118.836 63.5275L119.518 63.8588ZM120.735 62.3385C121.275 61.8967 121.923 61.5485 122.684 61.2976L122.447 60.5778C121.608 60.8543 120.875 61.244 120.256 61.7515L120.735 62.3385ZM122.684 61.2976C123.439 61.0485 124.291 60.9212 125.241 60.9212V60.1633C124.223 60.1633 123.29 60.2996 122.447 60.5778L122.684 61.2976ZM125.241 60.9212C126.635 60.9212 127.79 61.1887 128.724 61.7045L129.09 61.0411C128.019 60.4494 126.731 60.1633 125.241 60.1633V60.9212ZM128.727 61.7063C129.684 62.2224 130.399 62.8931 130.888 63.7153L131.54 63.3282C130.973 62.375 130.151 61.613 129.086 61.0393L128.727 61.7063ZM130.889 63.7167C131.382 64.5381 131.626 65.4114 131.626 66.343H132.384C132.384 65.2708 132.1 64.2632 131.538 63.3268L130.889 63.7167ZM132.004 65.9641H129.473V66.722H132.004V65.9641ZM129.853 66.343C129.853 65.5669 129.686 64.8648 129.343 64.2474L128.681 64.6155C128.953 65.1055 129.095 65.6777 129.095 66.343H129.853ZM129.345 64.2496C128.997 63.6139 128.472 63.1228 127.786 62.7751L127.443 63.451C128.006 63.7361 128.412 64.124 128.68 64.6132L129.345 64.2496ZM127.79 62.777C127.096 62.4153 126.24 62.2463 125.241 62.2463V63.0042C126.16 63.0042 126.886 63.1604 127.439 63.4491L127.79 62.777ZM125.241 62.2463C124.301 62.2463 123.496 62.3873 122.841 62.69L123.159 63.3778C123.683 63.1357 124.371 63.0042 125.241 63.0042V62.2463ZM122.841 62.69C122.198 62.9877 121.696 63.4018 121.36 63.941L122.004 64.3417C122.248 63.9492 122.625 63.625 123.159 63.3778L122.841 62.69ZM121.357 63.9455C121.037 64.4762 120.881 65.0769 120.881 65.7366H121.639C121.639 65.201 121.764 64.7383 122.006 64.3372L121.357 63.9455ZM120.881 65.7366C120.881 66.1948 120.976 66.6226 121.172 67.0135L121.849 66.6745C121.711 66.3975 121.639 66.087 121.639 65.7366H120.881ZM121.177 67.0242C121.383 67.4049 121.69 67.7464 122.081 68.0524L122.548 67.455C122.22 67.1985 121.99 66.9335 121.844 66.6638L121.177 67.0242ZM122.085 68.0552C122.486 68.3607 122.982 68.6346 123.565 68.8807L123.86 68.1824C123.318 67.9538 122.882 67.7093 122.544 67.4523L122.085 68.0552ZM123.567 68.8815C124.156 69.1263 124.853 69.3596 125.654 69.5822L125.857 68.852C125.076 68.6352 124.411 68.4114 123.857 68.1816L123.567 68.8815ZM125.653 69.5818C126.728 69.8852 127.647 70.2209 128.413 70.5873L128.74 69.9036C127.925 69.514 126.963 69.1643 125.859 68.8524L125.653 69.5818ZM128.413 70.5873C129.178 70.9528 129.795 71.3591 130.27 71.8017L130.786 71.2469C130.242 70.7403 129.558 70.294 128.74 69.9036L128.413 70.5873ZM130.275 71.8062C130.754 72.237 131.102 72.7227 131.325 73.2638L132.026 72.9752C131.756 72.3209 131.339 71.7431 130.781 71.2424L130.275 71.8062ZM131.328 73.27C131.559 73.8042 131.678 74.4197 131.678 75.1234H132.436C132.436 74.333 132.302 73.6125 132.023 72.9689L131.328 73.27ZM131.678 75.1234C131.678 75.8531 131.532 76.5017 131.244 77.0765L131.922 77.4155C132.268 76.7246 132.436 75.9582 132.436 75.1234H131.678ZM131.244 77.0765C130.954 77.6552 130.541 78.1513 129.996 78.566L130.454 79.1691C131.088 78.6875 131.579 78.1025 131.922 77.4155L131.244 77.0765ZM129.996 78.566C129.448 78.9825 128.784 79.3108 127.994 79.546L128.21 80.2722C129.073 80.0153 129.824 79.6492 130.454 79.1691L129.996 78.566ZM127.997 79.5452C127.22 79.7709 126.341 79.8861 125.36 79.8861V80.644C126.4 80.644 127.35 80.5219 128.208 80.273L127.997 79.5452ZM125.36 79.8861C124.508 79.8861 123.669 79.7681 122.841 79.5315L122.633 80.2603C123.527 80.5159 124.437 80.644 125.36 80.644V79.8861ZM122.842 79.5318C122.028 79.297 121.288 78.9455 120.621 78.4781L120.186 79.099C120.924 79.6158 121.741 80.0027 122.632 80.26L122.842 79.5318ZM120.622 78.4794C119.971 78.0177 119.45 77.4511 119.056 76.7777L118.402 77.1606C118.851 77.9287 119.447 78.5749 120.184 79.0977L120.622 78.4794ZM119.059 76.7824C118.682 76.1176 118.488 75.3399 118.488 74.4378H117.731C117.731 75.4518 117.95 76.3617 118.399 77.1559L119.059 76.7824ZM118.109 74.8168H120.64V74.0589H118.109V74.8168ZM120.262 74.4378C120.262 75.1458 120.399 75.7771 120.689 76.3179L121.357 75.9593C121.137 75.5508 121.019 75.0483 121.019 74.4378H120.262ZM120.691 76.3204C120.973 76.8379 121.36 77.2684 121.847 77.6092L122.281 76.9883C121.89 76.7138 121.582 76.3708 121.355 75.9566L120.691 76.3204ZM121.85 77.6112C122.336 77.9449 122.882 78.1909 123.483 78.3506L123.678 77.6181C123.154 77.479 122.689 77.2678 122.279 76.9863L121.85 77.6112ZM123.49 78.3522C124.092 78.5005 124.716 78.5742 125.36 78.5742V77.8163C124.774 77.8163 124.211 77.7494 123.671 77.6163L123.49 78.3522ZM125.36 78.5742C126.281 78.5742 127.083 78.4469 127.756 78.1779L127.474 77.4743C126.916 77.6975 126.215 77.8163 125.36 77.8163V78.5742ZM127.756 78.1779C128.426 77.9096 128.957 77.5162 129.324 76.987L128.701 76.5557C128.434 76.9406 128.033 77.2503 127.474 77.4743L127.756 78.1779ZM129.321 76.9911C129.697 76.4627 129.879 75.8433 129.879 75.1498H129.121C129.121 75.7043 128.978 76.1659 128.703 76.5517L129.321 76.9911ZM149.116 77.9315H149.495V77.5526H149.116V77.9315ZM149.116 80.0014V80.3803H149.495V80.0014H149.116ZM138.951 80.0014H138.572V80.3803H138.951V80.0014ZM138.951 77.9315V77.5526H138.572V77.9315H138.951ZM139.465 60.8059H139.844V60.427H139.465V60.8059ZM139.465 80.0014V80.3803H139.844V80.0014H139.465ZM136.921 80.0014H136.541V80.3803H136.921V80.0014ZM136.921 60.8059V60.427H136.541V60.8059H136.921ZM147.771 69.0589H148.15V68.6799H147.771V69.0589ZM147.771 71.1288V71.5077H148.15V71.1288H147.771ZM138.951 71.1288H138.572V71.5077H138.951V71.1288ZM138.951 69.0589V68.6799H138.572V69.0589H138.951ZM148.984 60.8059H149.363V60.427H148.984V60.8059ZM148.984 62.8889V63.2678H149.363V62.8889H148.984ZM138.951 62.8889H138.572V63.2678H138.951V62.8889ZM138.951 60.8059V60.427H138.572V60.8059H138.951ZM148.737 77.9315V80.0014H149.495V77.9315H148.737ZM149.116 79.6225H138.951V80.3803H149.116V79.6225ZM139.33 80.0014V77.9315H138.572V80.0014H139.33ZM138.951 78.3105H149.116V77.5526H138.951V78.3105ZM139.086 60.8059V80.0014H139.844V60.8059H139.086ZM139.465 79.6225H136.921V80.3803H139.465V79.6225ZM137.299 80.0014V60.8059H136.541V80.0014H137.299ZM136.921 61.1848H139.465V60.427H136.921V61.1848ZM147.392 69.0589V71.1288H148.15V69.0589H147.392ZM147.771 70.7498H138.951V71.5077H147.771V70.7498ZM139.33 71.1288V69.0589H138.572V71.1288H139.33ZM138.951 69.4378H147.771V68.6799H138.951V69.4378ZM148.605 60.8059V62.8889H149.363V60.8059H148.605ZM148.984 62.51H138.951V63.2678H148.984V62.51ZM139.33 62.8889V60.8059H138.572V62.8889H139.33ZM138.951 61.1848H148.984V60.427H138.951V61.1848ZM154.691 60.8059V60.427H154.128L154.34 60.9482L154.691 60.8059ZM157.156 60.8059L157.508 60.6646L157.412 60.427H157.156V60.8059ZM163.445 76.455L163.093 76.5963L163.445 77.4721L163.797 76.596L163.445 76.455ZM169.72 60.8059V60.427H169.464L169.368 60.6649L169.72 60.8059ZM172.199 60.8059L172.55 60.9486L172.762 60.427H172.199V60.8059ZM164.394 80.0014V80.3803H164.649L164.745 80.1441L164.394 80.0014ZM162.469 80.0014L162.118 80.1437L162.214 80.3803H162.469V80.0014ZM153.886 60.8059V60.427H153.508V60.8059H153.886ZM156.062 60.8059L156.44 60.7944L156.43 60.427H156.062V60.8059ZM156.418 72.513H156.797V72.5073V72.5015L156.418 72.513ZM156.418 80.0014V80.3803H156.797V80.0014H156.418ZM153.886 80.0014H153.508V80.3803H153.886V80.0014ZM170.815 60.8059V60.427H170.447L170.436 60.7944L170.815 60.8059ZM172.99 60.8059H173.369V60.427H172.99V60.8059ZM172.99 80.0014V80.3803H173.369V80.0014H172.99ZM170.459 80.0014H170.079V80.3803H170.459V80.0014ZM170.459 72.513L170.08 72.5015L170.079 72.5073V72.513H170.459ZM154.691 61.1848H157.156V60.427H154.691V61.1848ZM156.805 60.9472L163.093 76.5963L163.797 76.3137L157.508 60.6646L156.805 60.9472ZM163.797 76.596L170.072 60.947L169.368 60.6649L163.093 76.3139L163.797 76.596ZM169.72 61.1848H172.199V60.427H169.72V61.1848ZM171.848 60.6632L164.043 79.8587L164.745 80.1441L172.55 60.9486L171.848 60.6632ZM164.394 79.6225H162.469V80.3803H164.394V79.6225ZM162.82 79.8591L155.042 60.6636L154.34 60.9482L162.118 80.1437L162.82 79.8591ZM153.886 61.1848H156.062V60.427H153.886V61.1848ZM155.683 60.8174L156.039 72.5245L156.797 72.5015L156.44 60.7944L155.683 60.8174ZM156.039 72.513V80.0014H156.797V72.513H156.039ZM156.418 79.6225H153.886V80.3803H156.418V79.6225ZM154.266 80.0014V60.8059H153.508V80.0014H154.266ZM170.815 61.1848H172.99V60.427H170.815V61.1848ZM172.611 60.8059V80.0014H173.369V60.8059H172.611ZM172.99 79.6225H170.459V80.3803H172.99V79.6225ZM170.837 80.0014V72.513H170.079V80.0014H170.837ZM170.837 72.5245L171.193 60.8174L170.436 60.7944L170.08 72.5015L170.837 72.5245ZM191.274 77.9315H191.653V77.5526H191.274V77.9315ZM191.274 80.0014V80.3803H191.653V80.0014H191.274ZM181.11 80.0014H180.73V80.3803H181.11V80.0014ZM181.11 77.9315V77.5526H180.73V77.9315H181.11ZM181.624 60.8059H182.002V60.427H181.624V60.8059ZM181.624 80.0014V80.3803H182.002V80.0014H181.624ZM179.079 80.0014H178.7V80.3803H179.079V80.0014ZM179.079 60.8059V60.427H178.7V60.8059H179.079ZM189.93 69.0589H190.308V68.6799H189.93V69.0589ZM189.93 71.1288V71.5077H190.308V71.1288H189.93ZM181.11 71.1288H180.73V71.5077H181.11V71.1288ZM181.11 69.0589V68.6799H180.73V69.0589H181.11ZM191.142 60.8059H191.521V60.427H191.142V60.8059ZM191.142 62.8889V63.2678H191.521V62.8889H191.142ZM181.11 62.8889H180.73V63.2678H181.11V62.8889ZM181.11 60.8059V60.427H180.73V60.8059H181.11ZM190.895 77.9315V80.0014H191.653V77.9315H190.895ZM191.274 79.6225H181.11V80.3803H191.274V79.6225ZM181.488 80.0014V77.9315H180.73V80.0014H181.488ZM181.11 78.3105H191.274V77.5526H181.11V78.3105ZM181.245 60.8059V80.0014H182.002V60.8059H181.245ZM181.624 79.6225H179.079V80.3803H181.624V79.6225ZM179.458 80.0014V60.8059H178.7V80.0014H179.458ZM179.079 61.1848H181.624V60.427H179.079V61.1848ZM189.55 69.0589V71.1288H190.308V69.0589H189.55ZM189.93 70.7498H181.11V71.5077H189.93V70.7498ZM181.488 71.1288V69.0589H180.73V71.1288H181.488ZM181.11 69.4378H189.93V68.6799H181.11V69.4378ZM190.764 60.8059V62.8889H191.521V60.8059H190.764ZM191.142 62.51H181.11V63.2678H191.142V62.51ZM181.488 62.8889V60.8059H180.73V62.8889H181.488ZM181.11 61.1848H191.142V60.427H181.11V61.1848ZM206.065 73.9632L205.71 74.0963L205.712 74.1017L205.714 74.1071L206.065 73.9632ZM205.353 73.014L205.108 73.3039L205.112 73.307L205.353 73.014ZM203.956 72.2098L203.805 72.5576L203.807 72.5584L203.956 72.2098ZM201.714 71.432L201.606 71.7953L201.608 71.7958L201.714 71.432ZM199.143 70.4959L198.985 70.8402L198.988 70.8417L199.143 70.4959ZM205.682 61.3728L205.499 61.7045L205.502 61.7063L205.682 61.3728ZM207.989 63.5217L207.664 63.7153L207.664 63.7167L207.989 63.5217ZM208.781 66.343V66.722H209.159V66.343H208.781ZM206.25 66.343H205.87V66.722H206.25V66.343ZM205.788 64.4315L205.455 64.6132L205.456 64.6155L205.788 64.4315ZM204.39 63.113L204.215 63.4491L204.219 63.451L204.39 63.113ZM198.458 64.1414L198.136 63.941L198.133 63.9455L198.458 64.1414ZM198.286 66.844L197.947 67.0135L197.95 67.0189L197.953 67.0242L198.286 66.844ZM199.09 67.7537L198.857 68.0524L198.861 68.0552L199.09 67.7537ZM200.488 68.5315L200.341 68.8807L200.342 68.8815L200.488 68.5315ZM202.531 69.2171L202.634 68.8524L202.633 68.852L202.531 69.2171ZM207.304 71.5243L207.046 71.8017L207.051 71.8062L207.304 71.5243ZM208.451 73.1195L208.1 73.2638L208.103 73.27L208.451 73.1195ZM204.878 79.9091L204.984 80.273L204.987 80.2722L204.878 79.9091ZM199.512 79.896L199.407 80.26L199.408 80.2603L199.512 79.896ZM197.179 78.7885L196.96 79.0977L196.961 79.099L197.179 78.7885ZM195.504 76.9691L195.174 77.1559L195.177 77.1606L195.504 76.9691ZM194.885 74.4378V74.0589H194.506V74.4378H194.885ZM197.416 74.4378H197.795V74.0589H197.416V74.4378ZM197.798 76.1386L197.465 76.3179L197.466 76.3204L197.798 76.1386ZM198.84 77.2987L198.623 77.6092L198.626 77.6112L198.84 77.2987ZM200.356 77.9843L200.259 78.3506L200.266 78.3522L200.356 77.9843ZM205.788 76.7714L205.479 76.5517L205.476 76.5557L205.788 76.7714ZM206.655 75.1498C206.655 74.6623 206.578 74.2164 206.415 73.8194L205.714 74.1071C205.832 74.3957 205.897 74.7408 205.897 75.1498H206.655ZM206.419 73.8302C206.26 73.4058 205.978 73.0369 205.593 72.7211L205.112 73.307C205.413 73.5536 205.605 73.8176 205.71 74.0963L206.419 73.8302ZM205.597 72.7242C205.224 72.41 204.721 72.1244 204.104 71.8613L203.807 72.5584C204.385 72.805 204.814 73.0555 205.108 73.3039L205.597 72.7242ZM204.106 71.862C203.497 71.5987 202.734 71.3344 201.82 71.0682L201.608 71.7958C202.505 72.0569 203.236 72.3111 203.805 72.5576L204.106 71.862ZM201.821 71.0686C200.886 70.7913 200.045 70.4849 199.298 70.1501L198.988 70.8417C199.771 71.1925 200.644 71.5101 201.606 71.7953L201.821 71.0686ZM199.302 70.1517C198.561 69.8112 197.935 69.4276 197.42 69.0035L196.938 69.5888C197.512 70.0613 198.196 70.4776 198.985 70.8402L199.302 70.1517ZM197.42 69.0035C196.912 68.586 196.529 68.1128 196.265 67.5843L195.587 67.9232C195.904 68.5548 196.356 69.1099 196.938 69.5888L197.42 69.0035ZM196.265 67.5843C196.005 67.0642 195.87 66.4602 195.87 65.763H195.112C195.112 66.56 195.267 67.283 195.587 67.9232L196.265 67.5843ZM195.87 65.763C195.87 65.0697 196.012 64.4368 196.294 63.8588L195.612 63.5275C195.278 64.2151 195.112 64.9621 195.112 65.763H195.87ZM196.294 63.8588C196.576 63.2779 196.98 62.7716 197.511 62.3388L197.032 61.7515C196.42 62.2504 195.945 62.8427 195.612 63.5275L196.294 63.8588ZM197.511 62.3388C198.051 61.8971 198.699 61.5485 199.46 61.2976L199.222 60.5778C198.384 60.8543 197.652 61.2444 197.031 61.7519L197.511 62.3388ZM199.46 61.2976C200.215 61.0485 201.066 60.9212 202.017 60.9212V60.1633C200.999 60.1633 200.066 60.2996 199.222 60.5778L199.46 61.2976ZM202.017 60.9212C203.411 60.9212 204.566 61.1887 205.499 61.7045L205.866 61.0411C204.795 60.4494 203.506 60.1633 202.017 60.1633V60.9212ZM205.502 61.7063C206.459 62.2224 207.175 62.8931 207.664 63.7153L208.315 63.3282C207.749 62.375 206.926 61.613 205.862 61.0393L205.502 61.7063ZM207.664 63.7167C208.157 64.5381 208.401 65.4114 208.401 66.343H209.159C209.159 65.2708 208.876 64.2632 208.315 63.3268L207.664 63.7167ZM208.781 65.9641H206.25V66.722H208.781V65.9641ZM206.628 66.343C206.628 65.5669 206.462 64.8648 206.119 64.2474L205.456 64.6155C205.729 65.1055 205.87 65.6777 205.87 66.343H206.628ZM206.12 64.2496C205.773 63.6139 205.247 63.1228 204.562 62.7751L204.219 63.451C204.781 63.7361 205.188 64.124 205.455 64.6132L206.12 64.2496ZM204.565 62.777C203.871 62.4153 203.015 62.2463 202.017 62.2463V63.0042C202.935 63.0042 203.661 63.1604 204.215 63.4491L204.565 62.777ZM202.017 62.2463C201.078 62.2463 200.271 62.3873 199.617 62.69L199.935 63.3778C200.459 63.1357 201.147 63.0042 202.017 63.0042V62.2463ZM199.617 62.69C198.973 62.9877 198.472 63.4018 198.136 63.941L198.779 64.3417C199.024 63.9492 199.401 63.625 199.935 63.3778L199.617 62.69ZM198.133 63.9455C197.813 64.4762 197.657 65.0769 197.657 65.7366H198.415C198.415 65.201 198.54 64.7383 198.782 64.3372L198.133 63.9455ZM197.657 65.7366C197.657 66.1948 197.752 66.6226 197.947 67.0135L198.625 66.6745C198.486 66.3975 198.415 66.087 198.415 65.7366H197.657ZM197.953 67.0242C198.159 67.4049 198.465 67.7464 198.857 68.0524L199.324 67.455C198.995 67.1985 198.765 66.9335 198.619 66.6638L197.953 67.0242ZM198.861 68.0552C199.262 68.3607 199.758 68.6346 200.341 68.8807L200.635 68.1824C200.093 67.9538 199.657 67.7093 199.32 67.4523L198.861 68.0552ZM200.342 68.8815C200.932 69.1263 201.628 69.3596 202.43 69.5822L202.633 68.852C201.852 68.6352 201.186 68.4114 200.634 68.1816L200.342 68.8815ZM202.429 69.5818C203.503 69.8852 204.422 70.2209 205.19 70.5873L205.516 69.9036C204.701 69.514 203.74 69.1643 202.634 68.8524L202.429 69.5818ZM205.19 70.5873C205.954 70.9528 206.57 71.3591 207.046 71.8017L207.562 71.2469C207.018 70.7403 206.333 70.294 205.516 69.9036L205.19 70.5873ZM207.051 71.8062C207.53 72.237 207.877 72.7227 208.1 73.2638L208.801 72.9752C208.532 72.3209 208.115 71.7431 207.557 71.2424L207.051 71.8062ZM208.103 73.27C208.334 73.8042 208.454 74.4197 208.454 75.1234H209.212C209.212 74.333 209.077 73.6125 208.799 72.9689L208.103 73.27ZM208.454 75.1234C208.454 75.8531 208.307 76.5017 208.02 77.0765L208.698 77.4155C209.043 76.7246 209.212 75.9582 209.212 75.1234H208.454ZM208.02 77.0765C207.731 77.6552 207.316 78.1513 206.771 78.566L207.23 79.1691C207.863 78.6875 208.354 78.1025 208.698 77.4155L208.02 77.0765ZM206.771 78.566C206.224 78.9825 205.559 79.3108 204.77 79.546L204.987 80.2722C205.849 80.0153 206.599 79.6492 207.23 79.1691L206.771 78.566ZM204.772 79.5452C203.995 79.7709 203.118 79.8861 202.136 79.8861V80.644C203.176 80.644 204.127 80.5219 204.984 80.273L204.772 79.5452ZM202.136 79.8861C201.284 79.8861 200.444 79.7681 199.616 79.5315L199.408 80.2603C200.303 80.5159 201.213 80.644 202.136 80.644V79.8861ZM199.617 79.5318C198.803 79.297 198.064 78.9455 197.396 78.4781L196.961 79.099C197.7 79.6158 198.516 80.0027 199.407 80.26L199.617 79.5318ZM197.398 78.4794C196.747 78.0177 196.226 77.4511 195.831 76.7777L195.177 77.1606C195.627 77.9287 196.222 78.5749 196.96 79.0977L197.398 78.4794ZM195.834 76.7824C195.458 76.1176 195.264 75.3399 195.264 74.4378H194.506C194.506 75.4518 194.725 76.3617 195.174 77.1559L195.834 76.7824ZM194.885 74.8168H197.416V74.0589H194.885V74.8168ZM197.037 74.4378C197.037 75.1458 197.174 75.7771 197.465 76.3179L198.132 75.9593C197.913 75.5508 197.795 75.0483 197.795 74.4378H197.037ZM197.466 76.3204C197.749 76.8379 198.136 77.2684 198.623 77.6092L199.057 76.9883C198.665 76.7138 198.357 76.3708 198.131 75.9566L197.466 76.3204ZM198.626 77.6112C199.112 77.9449 199.657 78.1909 200.259 78.3506L200.453 77.6181C199.93 77.479 199.464 77.2678 199.054 76.9863L198.626 77.6112ZM200.266 78.3522C200.868 78.5005 201.491 78.5742 202.136 78.5742V77.8163C201.55 77.8163 200.987 77.7494 200.447 77.6163L200.266 78.3522ZM202.136 78.5742C203.056 78.5742 203.859 78.4469 204.531 78.1779L204.25 77.4743C203.692 77.6975 202.991 77.8163 202.136 77.8163V78.5742ZM204.531 78.1779C205.202 77.9096 205.733 77.5162 206.099 76.987L205.476 76.5557C205.209 76.9406 204.809 77.2503 204.25 77.4743L204.531 78.1779ZM206.097 76.9911C206.472 76.4627 206.655 75.8433 206.655 75.1498H205.897C205.897 75.7043 205.754 76.1659 205.479 76.5517L206.097 76.9911ZM226.234 69.0589H226.613V68.6799H226.234V69.0589ZM226.234 71.1288V71.5077H226.613V71.1288H226.234ZM215.845 71.1288H215.466V71.5077H215.845V71.1288ZM215.845 69.0589V68.6799H215.466V69.0589H215.845ZM216.241 60.8059H216.62V60.427H216.241V60.8059ZM216.241 80.0014V80.3803H216.62V80.0014H216.241ZM213.696 80.0014H213.318V80.3803H213.696V80.0014ZM213.696 60.8059V60.427H213.318V60.8059H213.696ZM228.449 60.8059H228.828V60.427H228.449V60.8059ZM228.449 80.0014V80.3803H228.828V80.0014H228.449ZM225.918 80.0014H225.539V80.3803H225.918V80.0014ZM225.918 60.8059V60.427H225.539V60.8059H225.918ZM225.855 69.0589V71.1288H226.613V69.0589H225.855ZM226.234 70.7498H215.845V71.5077H226.234V70.7498ZM216.224 71.1288V69.0589H215.466V71.1288H216.224ZM215.845 69.4378H226.234V68.6799H215.845V69.4378ZM215.862 60.8059V80.0014H216.62V60.8059H215.862ZM216.241 79.6225H213.696V80.3803H216.241V79.6225ZM214.076 80.0014V60.8059H213.318V80.0014H214.076ZM213.696 61.1848H216.241V60.427H213.696V61.1848ZM228.07 60.8059V80.0014H228.828V60.8059H228.07ZM228.449 79.6225H225.918V80.3803H228.449V79.6225ZM226.297 80.0014V60.8059H225.539V80.0014H226.297ZM225.918 61.1848H228.449V60.427H225.918V61.1848Z" fill="#BAC7E1"/>
</g>
</svg>
