<svg width="295" height="115" viewBox="0 0 295 115" fill="none" xmlns="http://www.w3.org/2000/svg">
<g filter="url(#filter0_d_3847_384)">
<path d="M64.4719 57.0801L51.6074 46.5634L64.4719 36.0469V57.0801Z" fill="#BAC7E1" stroke="#BAC7E1" stroke-width="0.587869"/>
<path d="M64.4684 95.4263V95.7576H64.7997H72.8122H72.8216H73.153V95.4263V18.4386V17.7394L72.6118 18.1821L44.7592 40.9612L16.9066 18.1821L16.3653 17.7394V18.4386V95.4263V95.7576H16.6967H24.7186H25.05V95.4263V68.2956L44.7592 52.1732L64.4684 68.2956V95.4263ZM5 105.11V9H84.5089V105.11H5Z" fill="#BAC7E1" stroke="#BAC7E1" stroke-width="0.587869"/>
<path d="M25.041 36.0469L37.8962 46.5632L25.041 57.0795V36.0469Z" fill="#BAC7E1" stroke="#BAC7E1" stroke-width="0.587869"/>
<path d="M113.121 26.9922V50.9866H109.991V26.9922H113.121ZM120.834 26.9922V29.596H102.295V26.9922H120.834ZM142.091 37.3084V39.8957H129.105V37.3084H142.091ZM129.6 26.9922V50.9866H126.419V26.9922H129.6ZM144.86 26.9922V50.9866H141.696V26.9922H144.86ZM167.78 48.3992V50.9866H155.075V48.3992H167.78ZM155.717 26.9922V50.9866H152.537V26.9922H155.717ZM166.1 37.3084V39.8957H155.075V37.3084H166.1ZM167.616 26.9922V29.596H155.075V26.9922H167.616ZM113.105 75.792H106.694V73.2047H113.105C114.346 73.2047 115.352 73.0069 116.121 72.6114C116.89 72.2159 117.45 71.6666 117.802 70.9635C118.164 70.2603 118.346 69.4583 118.346 68.5575C118.346 67.7334 118.164 66.9589 117.802 66.2338C117.45 65.5087 116.89 64.9265 116.121 64.487C115.352 64.0365 114.346 63.8113 113.105 63.8113H107.436V85.2019H104.256V61.2075H113.105C114.918 61.2075 116.451 61.5206 117.703 62.1468C118.955 62.7731 119.905 63.641 120.554 64.7506C121.202 65.8492 121.526 67.1072 121.526 68.5245C121.526 70.0626 121.202 71.3755 120.554 72.4631C119.905 73.5507 118.955 74.3803 117.703 74.9516C116.451 75.5118 114.918 75.792 113.105 75.792ZM146.046 72.4466V73.9627C146.046 75.7645 145.821 77.3795 145.37 78.8078C144.92 80.236 144.271 81.45 143.426 82.4498C142.58 83.4495 141.564 84.2131 140.377 84.7405C139.202 85.2678 137.883 85.5315 136.422 85.5315C135.005 85.5315 133.703 85.2678 132.517 84.7405C131.341 84.2131 130.319 83.4495 129.451 82.4498C128.594 81.45 127.929 80.236 127.456 78.8078C126.984 77.3795 126.748 75.7645 126.748 73.9627V72.4466C126.748 70.6449 126.979 69.0353 127.44 67.6181C127.913 66.1899 128.577 64.9759 129.434 63.9761C130.292 62.9653 131.308 62.1963 132.483 61.669C133.669 61.1416 134.972 60.8779 136.389 60.8779C137.85 60.8779 139.169 61.1416 140.344 61.669C141.53 62.1963 142.546 62.9653 143.392 63.9761C144.25 64.9759 144.903 66.1899 145.354 67.6181C145.815 69.0353 146.046 70.6449 146.046 72.4466ZM142.898 73.9627V72.4136C142.898 70.9854 142.75 69.722 142.453 68.6233C142.168 67.5247 141.745 66.6019 141.184 65.8547C140.624 65.1077 139.938 64.5419 139.125 64.1574C138.323 63.7728 137.41 63.5806 136.389 63.5806C135.4 63.5806 134.505 63.7728 133.703 64.1574C132.912 64.5419 132.231 65.1077 131.659 65.8547C131.099 66.6019 130.665 67.5247 130.357 68.6233C130.049 69.722 129.896 70.9854 129.896 72.4136V73.9627C129.896 75.402 130.049 76.6764 130.357 77.786C130.665 78.8847 131.104 79.813 131.675 80.571C132.258 81.3182 132.944 81.884 133.736 82.2685C134.538 82.653 135.433 82.8453 136.422 82.8453C137.455 82.8453 138.372 82.653 139.174 82.2685C139.976 81.884 140.651 81.3182 141.201 80.571C141.761 79.813 142.184 78.8847 142.469 77.786C142.756 76.6764 142.898 75.402 142.898 73.9627ZM165.622 79.1373C165.622 78.5771 165.534 78.0826 165.359 77.6542C165.193 77.2147 164.897 76.8192 164.468 76.4677C164.051 76.1161 163.468 75.781 162.721 75.4624C161.985 75.1438 161.051 74.8197 159.92 74.4901C158.733 74.1386 157.662 73.7485 156.706 73.32C155.751 72.8806 154.932 72.3807 154.251 71.8204C153.569 71.2601 153.048 70.6174 152.686 69.8922C152.323 69.1672 152.141 68.3377 152.141 67.4038C152.141 66.47 152.334 65.6075 152.718 64.8166C153.103 64.0255 153.652 63.3389 154.366 62.7566C155.091 62.1633 155.954 61.7019 156.954 61.3723C157.953 61.0427 159.069 60.8779 160.298 60.8779C162.1 60.8779 163.628 61.224 164.88 61.9162C166.144 62.5972 167.105 63.4926 167.764 64.6023C168.424 65.701 168.753 66.8765 168.753 68.1289H165.589C165.589 67.2281 165.397 66.4316 165.012 65.7395C164.628 65.0362 164.045 64.487 163.265 64.0914C162.485 63.6849 161.496 63.4817 160.298 63.4817C159.167 63.4817 158.233 63.652 157.498 63.9926C156.761 64.3331 156.212 64.7945 155.85 65.3769C155.498 65.9591 155.322 66.6238 155.322 67.3709C155.322 67.8763 155.427 68.3377 155.635 68.7552C155.855 69.1617 156.19 69.5407 156.64 69.8922C157.102 70.2438 157.684 70.5679 158.387 70.8645C159.101 71.1613 159.953 71.4469 160.942 71.7215C162.304 72.1061 163.48 72.5345 164.468 73.0069C165.457 73.4793 166.27 74.0121 166.907 74.6055C167.555 75.1877 168.033 75.8525 168.341 76.5995C168.659 77.3356 168.819 78.1706 168.819 79.1044C168.819 80.0822 168.621 80.9666 168.226 81.7576C167.83 82.5487 167.264 83.2244 166.529 83.7846C165.792 84.3449 164.908 84.7789 163.875 85.0865C162.853 85.3831 161.711 85.5315 160.447 85.5315C159.338 85.5315 158.245 85.3776 157.168 85.0701C156.102 84.7624 155.13 84.301 154.251 83.6858C153.383 83.0705 152.686 82.3124 152.158 81.4115C151.642 80.4997 151.383 79.445 151.383 78.2474H154.547C154.547 79.0715 154.707 79.7801 155.026 80.3734C155.344 80.9556 155.778 81.439 156.328 81.8235C156.887 82.2081 157.519 82.4938 158.223 82.6805C158.937 82.8562 159.678 82.9442 160.447 82.9442C161.557 82.9442 162.496 82.7904 163.265 82.4827C164.035 82.1751 164.616 81.7357 165.012 81.1644C165.418 80.5931 165.622 79.9174 165.622 79.1373ZM190.142 82.6146V85.2019H177.436V82.6146H190.142ZM178.078 61.2075V85.2019H174.898V61.2075H178.078ZM188.461 71.5237V74.1111H177.436V71.5237H188.461ZM189.976 61.2075V63.8113H177.436V61.2075H189.976ZM197.11 61.2075H200.192L208.053 80.7688L215.897 61.2075H218.996L209.24 85.2019H206.833L197.11 61.2075ZM196.105 61.2075H198.824L199.27 75.8414V85.2019H196.105V61.2075ZM217.265 61.2075H219.984V85.2019H216.82V75.8414L217.265 61.2075ZM242.839 82.6146V85.2019H230.134V82.6146H242.839ZM230.776 61.2075V85.2019H227.596V61.2075H230.776ZM241.159 71.5237V74.1111H230.134V71.5237H241.159ZM242.675 61.2075V63.8113H230.134V61.2075H242.675ZM261.591 79.1373C261.591 78.5771 261.504 78.0826 261.328 77.6542C261.162 77.2147 260.866 76.8192 260.438 76.4677C260.02 76.1161 259.438 75.781 258.691 75.4624C257.955 75.1438 257.021 74.8197 255.89 74.4901C254.702 74.1386 253.631 73.7485 252.676 73.32C251.72 72.8806 250.902 72.3807 250.22 71.8204C249.54 71.2601 249.017 70.6174 248.655 69.8922C248.293 69.1672 248.111 68.3377 248.111 67.4038C248.111 66.47 248.303 65.6075 248.688 64.8166C249.072 64.0255 249.621 63.3389 250.336 62.7566C251.061 62.1633 251.923 61.7019 252.923 61.3723C253.923 61.0427 255.038 60.8779 256.269 60.8779C258.07 60.8779 259.597 61.224 260.85 61.9162C262.113 62.5972 263.075 63.4926 263.733 64.6023C264.393 65.701 264.723 66.8765 264.723 68.1289H261.559C261.559 67.2281 261.366 66.4316 260.982 65.7395C260.597 65.0362 260.014 64.487 259.235 64.0914C258.455 63.6849 257.466 63.4817 256.269 63.4817C255.137 63.4817 254.203 63.652 253.467 63.9926C252.731 64.3331 252.182 64.7945 251.819 65.3769C251.467 65.9591 251.291 66.6238 251.291 67.3709C251.291 67.8763 251.396 68.3377 251.605 68.7552C251.825 69.1617 252.159 69.5407 252.61 69.8922C253.071 70.2438 253.654 70.5679 254.356 70.8645C255.071 71.1613 255.923 71.4469 256.911 71.7215C258.273 72.1061 259.449 72.5345 260.438 73.0069C261.427 73.4793 262.239 74.0121 262.877 74.6055C263.525 75.1877 264.003 75.8525 264.31 76.5995C264.629 77.3356 264.788 78.1706 264.788 79.1044C264.788 80.0822 264.591 80.9666 264.195 81.7576C263.8 82.5487 263.233 83.2244 262.498 83.7846C261.761 84.3449 260.877 84.7789 259.844 85.0865C258.823 85.3831 257.68 85.5315 256.417 85.5315C255.307 85.5315 254.214 85.3776 253.137 85.0701C252.072 84.7624 251.099 84.301 250.22 83.6858C249.352 83.0705 248.655 82.3124 248.127 81.4115C247.611 80.4997 247.353 79.445 247.353 78.2474H250.517C250.517 79.0715 250.676 79.7801 250.995 80.3734C251.313 80.9556 251.748 81.439 252.297 81.8235C252.857 82.2081 253.489 82.4938 254.192 82.6805C254.906 82.8562 255.648 82.9442 256.417 82.9442C257.526 82.9442 258.466 82.7904 259.235 82.4827C260.004 82.1751 260.587 81.7357 260.982 81.1644C261.388 80.5931 261.591 79.9174 261.591 79.1373ZM286.54 71.5237V74.1111H273.553V71.5237H286.54ZM274.048 61.2075V85.2019H270.867V61.2075H274.048ZM289.308 61.2075V85.2019H286.144V61.2075H289.308Z" fill="#BAC7E1"/>
<mask id="mask0_3847_384" style="mask-type:luminance" maskUnits="userSpaceOnUse" x="101" y="26" width="190" height="61">
<path d="M290.607 26.2656H101.473V86.1425H290.607V26.2656Z" fill="white"/>
<path d="M113.123 26.9766V50.9709H109.992V26.9766H113.123ZM120.836 26.9766V29.5803H102.297V26.9766H120.836ZM142.093 37.2928V39.8801H129.106V37.2928H142.093ZM129.602 26.9766V50.9709H126.421V26.9766H129.602ZM144.862 26.9766V50.9709H141.698V26.9766H144.862ZM167.782 48.3836V50.9709H155.077V48.3836H167.782ZM155.719 26.9766V50.9709H152.539V26.9766H155.719ZM166.102 37.2928V39.8801H155.077V37.2928H166.102ZM167.618 26.9766V29.5803H155.077V26.9766H167.618ZM113.107 75.7764H106.696V73.189H113.107C114.348 73.189 115.354 72.9913 116.123 72.5958C116.892 72.2003 117.452 71.651 117.804 70.9478C118.166 70.2447 118.348 69.4427 118.348 68.5418C118.348 67.7178 118.166 66.9433 117.804 66.2181C117.452 65.4931 116.892 64.9108 116.123 64.4714C115.354 64.0209 114.348 63.7957 113.107 63.7957H107.438V85.1863H104.258V61.1919H113.107C114.919 61.1919 116.453 61.505 117.705 62.1312C118.957 62.7575 119.907 63.6254 120.556 64.735C121.204 65.8336 121.528 67.0916 121.528 68.5089C121.528 70.0469 121.204 71.3599 120.556 72.4475C119.907 73.5351 118.957 74.3646 117.705 74.9359C116.453 75.4962 114.919 75.7764 113.107 75.7764ZM146.048 72.431V73.9471C146.048 75.7489 145.823 77.3639 145.372 78.7922C144.922 80.2204 144.273 81.4344 143.428 82.4341C142.582 83.4339 141.566 84.1975 140.379 84.7248C139.204 85.2521 137.885 85.5159 136.424 85.5159C135.007 85.5159 133.705 85.2521 132.519 84.7248C131.343 84.1975 130.321 83.4339 129.452 82.4341C128.596 81.4344 127.931 80.2204 127.458 78.7922C126.986 77.3639 126.75 75.7489 126.75 73.9471V72.431C126.75 70.6293 126.981 69.0197 127.442 67.6024C127.915 66.1742 128.579 64.9603 129.436 63.9605C130.294 62.9497 131.31 62.1806 132.485 61.6533C133.671 61.1259 134.973 60.8623 136.391 60.8623C137.852 60.8623 139.171 61.1259 140.346 61.6533C141.532 62.1806 142.548 62.9497 143.394 63.9605C144.252 64.9603 144.905 66.1742 145.356 67.6024C145.817 69.0197 146.048 70.6293 146.048 72.431ZM142.9 73.9471V72.398C142.9 70.9698 142.752 69.7064 142.455 68.6077C142.17 67.5091 141.747 66.5862 141.186 65.8391C140.626 65.0921 139.939 64.5263 139.127 64.1417C138.325 63.7572 137.412 63.5649 136.391 63.5649C135.402 63.5649 134.507 63.7572 133.705 64.1417C132.914 64.5263 132.232 65.0921 131.661 65.8391C131.1 66.5862 130.667 67.5091 130.359 68.6077C130.051 69.7064 129.898 70.9698 129.898 72.398V73.9471C129.898 75.3863 130.051 76.6608 130.359 77.7704C130.667 78.8691 131.106 79.7974 131.677 80.5554C132.26 81.3025 132.946 81.8683 133.738 82.2529C134.54 82.6374 135.435 82.8297 136.424 82.8297C137.457 82.8297 138.374 82.6374 139.176 82.2529C139.977 81.8683 140.653 81.3025 141.203 80.5554C141.763 79.7974 142.186 78.8691 142.471 77.7704C142.757 76.6608 142.9 75.3863 142.9 73.9471ZM165.624 79.1217C165.624 78.5614 165.536 78.067 165.361 77.6386C165.195 77.1991 164.899 76.8036 164.47 76.4521C164.053 76.1005 163.47 75.7654 162.723 75.4468C161.987 75.1282 161.053 74.8041 159.922 74.4745C158.735 74.1229 157.664 73.7329 156.708 73.3044C155.753 72.8649 154.934 72.3651 154.253 71.8047C153.571 71.2445 153.05 70.6018 152.688 69.8766C152.324 69.1515 152.143 68.3221 152.143 67.3882C152.143 66.4544 152.336 65.5919 152.72 64.801C153.105 64.0099 153.654 63.3232 154.368 62.741C155.093 62.1477 155.956 61.6862 156.956 61.3567C157.955 61.0271 159.071 60.8623 160.3 60.8623C162.102 60.8623 163.63 61.2084 164.882 61.9005C166.146 62.5816 167.107 63.477 167.766 64.5866C168.426 65.6853 168.754 66.8609 168.754 68.1133H165.591C165.591 67.2125 165.399 66.4159 165.014 65.7238C164.63 65.0206 164.047 64.4714 163.267 64.0758C162.487 63.6693 161.498 63.4661 160.3 63.4661C159.169 63.4661 158.235 63.6364 157.5 63.9769C156.763 64.3175 156.214 64.7789 155.851 65.3612C155.5 65.9435 155.324 66.6082 155.324 67.3552C155.324 67.8607 155.429 68.3221 155.637 68.7395C155.857 69.146 156.192 69.5251 156.642 69.8766C157.104 70.2282 157.686 70.5523 158.389 70.8489C159.103 71.1456 159.954 71.4312 160.944 71.7059C162.306 72.0904 163.482 72.5189 164.47 72.9913C165.459 73.4637 166.272 73.9965 166.909 74.5899C167.557 75.1721 168.035 75.8368 168.343 76.5839C168.661 77.32 168.821 78.1549 168.821 79.0888C168.821 80.0666 168.623 80.951 168.228 81.742C167.832 82.5331 167.266 83.2087 166.53 83.769C165.794 84.3293 164.91 84.7632 163.877 85.0709C162.855 85.3675 161.713 85.5159 160.449 85.5159C159.34 85.5159 158.247 85.362 157.17 85.0544C156.104 84.7468 155.132 84.2854 154.253 83.6702C153.385 83.0548 152.688 82.2968 152.16 81.3959C151.644 80.484 151.385 79.4294 151.385 78.2318H154.549C154.549 79.0558 154.709 79.7645 155.027 80.3577C155.346 80.94 155.78 81.4234 156.33 81.8079C156.889 82.1924 157.521 82.4781 158.225 82.6649C158.938 82.8406 159.68 82.9285 160.449 82.9285C161.559 82.9285 162.498 82.7748 163.267 82.4671C164.037 82.1595 164.618 81.7201 165.014 81.1488C165.42 80.5775 165.624 79.9018 165.624 79.1217ZM190.144 82.5989V85.1863H177.438V82.5989H190.144ZM178.08 61.1919V85.1863H174.9V61.1919H178.08ZM188.463 71.5081V74.0955H177.438V71.5081H188.463ZM189.978 61.1919V63.7957H177.438V61.1919H189.978ZM197.112 61.1919H200.194L208.055 80.7532L215.899 61.1919H218.998L209.242 85.1863H206.835L197.112 61.1919ZM196.107 61.1919H198.826L199.272 75.8258V85.1863H196.107V61.1919ZM217.267 61.1919H219.986V85.1863H216.822V75.8258L217.267 61.1919ZM242.841 82.5989V85.1863H230.136V82.5989H242.841ZM230.778 61.1919V85.1863H227.598V61.1919H230.778ZM241.161 71.5081V74.0955H230.136V71.5081H241.161ZM242.677 61.1919V63.7957H230.136V61.1919H242.677ZM261.593 79.1217C261.593 78.5614 261.506 78.067 261.33 77.6386C261.164 77.1991 260.868 76.8036 260.44 76.4521C260.022 76.1005 259.44 75.7654 258.693 75.4468C257.957 75.1282 257.023 74.8041 255.891 74.4745C254.704 74.1229 253.633 73.7329 252.678 73.3044C251.722 72.8649 250.904 72.3651 250.222 71.8047C249.542 71.2445 249.019 70.6018 248.657 69.8766C248.295 69.1515 248.113 68.3221 248.113 67.3882C248.113 66.4544 248.305 65.5919 248.69 64.801C249.074 64.0099 249.623 63.3232 250.338 62.741C251.063 62.1477 251.925 61.6862 252.925 61.3567C253.925 61.0271 255.04 60.8623 256.271 60.8623C258.072 60.8623 259.599 61.2084 260.852 61.9005C262.115 62.5816 263.077 63.477 263.735 64.5866C264.395 65.6853 264.725 66.8609 264.725 68.1133H261.561C261.561 67.2125 261.368 66.4159 260.984 65.7238C260.599 65.0206 260.016 64.4714 259.237 64.0758C258.457 63.6693 257.468 63.4661 256.271 63.4661C255.139 63.4661 254.205 63.6364 253.469 63.9769C252.733 64.3175 252.184 64.7789 251.821 65.3612C251.469 65.9435 251.293 66.6082 251.293 67.3552C251.293 67.8607 251.398 68.3221 251.607 68.7395C251.826 69.146 252.161 69.5251 252.612 69.8766C253.073 70.2282 253.656 70.5523 254.358 70.8489C255.073 71.1456 255.925 71.4312 256.913 71.7059C258.275 72.0904 259.451 72.5189 260.44 72.9913C261.429 73.4637 262.241 73.9965 262.879 74.5899C263.527 75.1721 264.005 75.8368 264.312 76.5839C264.631 77.32 264.79 78.1549 264.79 79.0888C264.79 80.0666 264.593 80.951 264.197 81.742C263.802 82.5331 263.235 83.2087 262.5 83.769C261.763 84.3293 260.879 84.7632 259.846 85.0709C258.824 85.3675 257.682 85.5159 256.419 85.5159C255.309 85.5159 254.216 85.362 253.139 85.0544C252.074 84.7468 251.101 84.2854 250.222 83.6702C249.354 83.0548 248.657 82.2968 248.129 81.3959C247.613 80.484 247.355 79.4294 247.355 78.2318H250.519C250.519 79.0558 250.678 79.7645 250.997 80.3577C251.315 80.94 251.75 81.4234 252.299 81.8079C252.859 82.1924 253.491 82.4781 254.194 82.6649C254.908 82.8406 255.65 82.9285 256.419 82.9285C257.528 82.9285 258.468 82.7748 259.237 82.4671C260.006 82.1595 260.588 81.7201 260.984 81.1488C261.39 80.5775 261.593 79.9018 261.593 79.1217ZM286.542 71.5081V74.0955H273.555V71.5081H286.542ZM274.05 61.1919V85.1863H270.869V61.1919H274.05ZM289.31 61.1919V85.1863H286.146V61.1919H289.31Z" fill="black"/>
</mask>
<g mask="url(#mask0_3847_384)">
<path d="M113.123 26.9815H113.597V26.5078H113.123V26.9815ZM113.123 50.9759V51.4495H113.597V50.9759H113.123ZM109.992 50.9759H109.519V51.4495H109.992V50.9759ZM109.992 26.9815V26.5078H109.519V26.9815H109.992ZM120.836 26.9815H121.31V26.5078H120.836V26.9815ZM120.836 29.5853V30.0589H121.31V29.5853H120.836ZM102.297 29.5853H101.822V30.0589H102.297V29.5853ZM102.297 26.9815V26.5078H101.822V26.9815H102.297ZM112.65 26.9815V50.9759H113.597V26.9815H112.65ZM113.123 50.5022H109.992V51.4495H113.123V50.5022ZM110.465 50.9759V26.9815H109.519V50.9759H110.465ZM109.992 27.4551H113.123V26.5078H109.992V27.4551ZM120.362 26.9815V29.5853H121.31V26.9815H120.362ZM120.836 29.1116H102.297V30.0589H120.836V29.1116ZM102.77 29.5853V26.9815H101.822V29.5853H102.77ZM102.297 27.4551H120.836V26.5078H102.297V27.4551ZM142.093 37.2977H142.566V36.824H142.093V37.2977ZM142.093 39.8851V40.3588H142.566V39.8851H142.093ZM129.106 39.8851H128.633V40.3588H129.106V39.8851ZM129.106 37.2977V36.824H128.633V37.2977H129.106ZM129.601 26.9815H130.075V26.5078H129.601V26.9815ZM129.601 50.9759V51.4495H130.075V50.9759H129.601ZM126.42 50.9759H125.947V51.4495H126.42V50.9759ZM126.42 26.9815V26.5078H125.947V26.9815H126.42ZM144.861 26.9815H145.335V26.5078H144.861V26.9815ZM144.861 50.9759V51.4495H145.335V50.9759H144.861ZM141.697 50.9759H141.223V51.4495H141.697V50.9759ZM141.697 26.9815V26.5078H141.223V26.9815H141.697ZM141.619 37.2977V39.8851H142.566V37.2977H141.619ZM142.093 39.4114H129.106V40.3588H142.093V39.4114ZM129.58 39.8851V37.2977H128.633V39.8851H129.58ZM129.106 37.7714H142.093V36.824H129.106V37.7714ZM129.127 26.9815V50.9759H130.075V26.9815H129.127ZM129.601 50.5022H126.42V51.4495H129.601V50.5022ZM126.894 50.9759V26.9815H125.947V50.9759H126.894ZM126.42 27.4551H129.601V26.5078H126.42V27.4551ZM144.387 26.9815V50.9759H145.335V26.9815H144.387ZM144.861 50.5022H141.697V51.4495H144.861V50.5022ZM142.171 50.9759V26.9815H141.223V50.9759H142.171ZM141.697 27.4551H144.861V26.5078H141.697V27.4551ZM167.782 48.3885H168.256V47.9148H167.782V48.3885ZM167.782 50.9759V51.4495H168.256V50.9759H167.782ZM155.077 50.9759H154.602V51.4495H155.077V50.9759ZM155.077 48.3885V47.9148H154.602V48.3885H155.077ZM155.719 26.9815H156.192V26.5078H155.719V26.9815ZM155.719 50.9759V51.4495H156.192V50.9759H155.719ZM152.539 50.9759H152.065V51.4495H152.539V50.9759ZM152.539 26.9815V26.5078H152.065V26.9815H152.539ZM166.102 37.2977H166.575V36.824H166.102V37.2977ZM166.102 39.8851V40.3588H166.575V39.8851H166.102ZM155.077 39.8851H154.602V40.3588H155.077V39.8851ZM155.077 37.2977V36.824H154.602V37.2977H155.077ZM167.617 26.9815H168.091V26.5078H167.617V26.9815ZM167.617 29.5853V30.0589H168.091V29.5853H167.617ZM155.077 29.5853H154.602V30.0589H155.077V29.5853ZM155.077 26.9815V26.5078H154.602V26.9815H155.077ZM167.309 48.3885V50.9759H168.256V48.3885H167.309ZM167.782 50.5022H155.077V51.4495H167.782V50.5022ZM155.55 50.9759V48.3885H154.602V50.9759H155.55ZM155.077 48.8622H167.782V47.9148H155.077V48.8622ZM155.246 26.9815V50.9759H156.192V26.9815H155.246ZM155.719 50.5022H152.539V51.4495H155.719V50.5022ZM153.012 50.9759V26.9815H152.065V50.9759H153.012ZM152.539 27.4551H155.719V26.5078H152.539V27.4551ZM165.627 37.2977V39.8851H166.575V37.2977H165.627ZM166.102 39.4114H155.077V40.3588H166.102V39.4114ZM155.55 39.8851V37.2977H154.602V39.8851H155.55ZM155.077 37.7714H166.102V36.824H155.077V37.7714ZM167.144 26.9815V29.5853H168.091V26.9815H167.144ZM167.617 29.1116H155.077V30.0589H167.617V29.1116ZM155.55 29.5853V26.9815H154.602V29.5853H155.55ZM155.077 27.4551H167.617V26.5078H155.077V27.4551ZM106.696 75.7813H106.223V76.255H106.696V75.7813ZM106.696 73.194V72.7203H106.223V73.194H106.696ZM117.804 70.9528L117.383 70.7357L117.38 70.7409L117.804 70.9528ZM117.804 66.2231L117.377 66.4298L117.38 66.4349L117.804 66.2231ZM116.122 64.4763L115.883 64.885L115.888 64.8875L116.122 64.4763ZM107.437 63.8006V63.3269H106.964V63.8006H107.437ZM107.437 85.1912V85.6648H107.912V85.1912H107.437ZM104.257 85.1912H103.784V85.6648H104.257V85.1912ZM104.257 61.1969V60.7232H103.784V61.1969H104.257ZM120.555 64.74L120.146 64.9789L120.147 64.9807L120.555 64.74ZM117.705 74.9409L117.898 75.3732L117.902 75.3718L117.705 74.9409ZM113.107 75.3076H106.696V76.255H113.107V75.3076ZM107.169 75.7813V73.194H106.223V75.7813H107.169ZM106.696 73.6677H113.107V72.7203H106.696V73.6677ZM113.107 73.6677C114.393 73.6677 115.48 73.4636 116.339 73.022L115.906 72.1795C115.226 72.5289 114.303 72.7203 113.107 72.7203V73.6677ZM116.339 73.022C117.188 72.5852 117.826 71.9668 118.227 71.1646L117.38 70.7409C117.078 71.345 116.595 71.8252 115.906 72.1795L116.339 73.022ZM118.225 71.1699C118.626 70.3908 118.821 69.5126 118.821 68.5468H117.874C117.874 69.3827 117.706 70.1085 117.383 70.7357L118.225 71.1699ZM118.821 68.5468C118.821 67.6504 118.623 66.8032 118.227 66.0112L117.38 66.4349C117.709 67.0932 117.874 67.7951 117.874 68.5468H118.821ZM118.229 66.0165C117.832 65.1969 117.201 64.5469 116.357 64.065L115.888 64.8875C116.582 65.2845 117.072 65.7991 117.377 66.4298L118.229 66.0165ZM116.362 64.0675C115.497 63.561 114.401 63.3269 113.107 63.3269V64.2742C114.296 64.2742 115.21 64.4906 115.883 64.885L116.362 64.0675ZM113.107 63.3269H107.437V64.2742H113.107V63.3269ZM106.964 63.8006V85.1912H107.912V63.8006H106.964ZM107.437 84.7175H104.257V85.6648H107.437V84.7175ZM104.731 85.1912V61.1969H103.784V85.1912H104.731ZM104.257 61.6704H113.107V60.7232H104.257V61.6704ZM113.107 61.6704C114.867 61.6704 116.323 61.9747 117.493 62.5599L117.917 61.7125C116.581 61.0452 114.972 60.7232 113.107 60.7232V61.6704ZM117.493 62.5599C118.67 63.1487 119.549 63.9558 120.146 64.9789L120.965 64.501C120.266 63.3049 119.244 62.376 117.917 61.7125L117.493 62.5599ZM120.147 64.9807C120.748 65.9985 121.054 67.1715 121.054 68.5138H122.002C122.002 67.0215 121.66 65.6787 120.964 64.4992L120.147 64.9807ZM121.054 68.5138C121.054 69.9849 120.744 71.2099 120.148 72.2099L120.962 72.6949C121.662 71.5196 122.002 70.1189 122.002 68.5138H121.054ZM120.148 72.2099C119.554 73.2076 118.681 73.975 117.508 74.5099L117.902 75.3718C119.233 74.7642 120.261 73.8726 120.962 72.6949L120.148 72.2099ZM117.511 74.5084C116.335 75.0343 114.874 75.3076 113.107 75.3076V76.255C114.966 76.255 116.568 75.968 117.898 75.3732L117.511 74.5084ZM140.378 84.7298L140.186 84.2969L140.184 84.2975L140.378 84.7298ZM132.518 84.7298L132.324 85.1619L132.325 85.1626L132.518 84.7298ZM129.452 82.4391L129.093 82.7474L129.095 82.7496L129.452 82.4391ZM127.442 67.6074L126.992 67.4586L126.991 67.4607L127.442 67.6074ZM129.436 63.9654L129.796 64.2737L129.797 64.2718L129.436 63.9654ZM132.485 61.6583L132.292 61.2254L132.291 61.226L132.485 61.6583ZM140.346 61.6583L140.152 62.0904L140.153 62.0911L140.346 61.6583ZM143.394 63.9654L143.031 64.2694L143.035 64.2737L143.394 63.9654ZM145.356 67.6074L144.903 67.7498L144.905 67.754L145.356 67.6074ZM142.455 68.6127L141.997 68.7318L141.998 68.7361L142.455 68.6127ZM139.126 64.1467L138.921 64.5738L138.924 64.5749L139.126 64.1467ZM133.704 64.1467L133.5 63.7196L133.497 63.7207L133.704 64.1467ZM131.661 65.8441L131.285 65.5564L131.282 65.5599L131.661 65.8441ZM130.359 77.7753L129.903 77.9019V77.9031L130.359 77.7753ZM131.677 80.5604L131.299 80.8455L131.304 80.8516L131.677 80.5604ZM133.738 82.2578L133.53 82.6838L133.532 82.6849L133.738 82.2578ZM141.202 80.5604L140.822 80.2788L140.821 80.2798L141.202 80.5604ZM142.471 77.7753L142.93 77.8945V77.8935L142.471 77.7753ZM145.574 72.4359V73.952H146.521V72.4359H145.574ZM145.574 73.952C145.574 75.715 145.354 77.2807 144.92 78.6546L145.823 78.9396C146.291 77.4569 146.521 75.7926 146.521 73.952H145.574ZM144.92 78.6546C144.486 80.0315 143.865 81.1877 143.066 82.1331L143.789 82.745C144.681 81.6909 145.357 80.4192 145.823 78.9396L144.92 78.6546ZM143.066 82.1331C142.266 83.0789 141.307 83.7988 140.186 84.2969L140.571 85.1626C141.823 84.606 142.897 83.7988 143.789 82.745L143.066 82.1331ZM140.184 84.2975C139.078 84.7941 137.826 85.0471 136.423 85.0471V85.9944C137.942 85.9944 139.328 85.7201 140.572 85.1619L140.184 84.2975ZM136.423 85.0471C135.066 85.0471 133.831 84.795 132.71 84.2969L132.325 85.1626C133.578 85.7193 134.947 85.9944 136.423 85.9944V85.0471ZM132.712 84.2975C131.601 83.7992 130.634 83.0779 129.81 82.1286L129.095 82.7496C130.006 83.7999 131.084 84.6057 132.324 85.1619L132.712 84.2975ZM129.812 82.1308C129.001 81.184 128.364 80.0263 127.909 78.6483L127.009 78.9459C127.498 80.4244 128.191 81.6946 129.093 82.7474L129.812 82.1308ZM127.909 78.6483C127.454 77.2765 127.223 75.713 127.223 73.952H126.276C126.276 75.7947 126.518 77.4612 127.009 78.9459L127.909 78.6483ZM127.223 73.952V72.4359H126.276V73.952H127.223ZM127.223 72.4359C127.223 70.6739 127.45 69.1152 127.892 67.754L126.991 67.4607C126.511 68.9341 126.276 70.5944 126.276 72.4359H127.223ZM127.892 67.7561C128.348 66.3782 128.984 65.2205 129.796 64.2737L129.077 63.6571C128.174 64.7099 127.481 65.9802 126.992 67.4586L127.892 67.7561ZM129.797 64.2718C130.61 63.3133 131.57 62.588 132.679 62.0904L132.291 61.226C131.049 61.7832 129.976 62.596 129.075 63.6591L129.797 64.2718ZM132.677 62.0911C133.797 61.5931 135.033 61.3409 136.39 61.3409V60.3936C134.913 60.3936 133.545 60.6688 132.292 61.2254L132.677 62.0911ZM136.39 61.3409C137.794 61.3409 139.045 61.5938 140.152 62.0904L140.54 61.226C139.296 60.6679 137.91 60.3936 136.39 60.3936V61.3409ZM140.153 62.0911C141.273 62.5887 142.231 63.3132 143.031 64.2694L143.758 63.6614C142.866 62.5961 141.791 61.7826 140.538 61.2254L140.153 62.0911ZM143.035 64.2737C143.844 65.2187 144.469 66.3742 144.903 67.7498L145.807 67.4649C145.34 65.9841 144.658 64.7116 143.754 63.6571L143.035 64.2737ZM144.905 67.754C145.348 69.1152 145.574 70.6739 145.574 72.4359H146.521C146.521 70.5944 146.285 68.9341 145.806 67.4607L144.905 67.754ZM143.374 73.952V72.403H142.426V73.952H143.374ZM143.374 72.403C143.374 70.9432 143.222 69.6368 142.912 68.4892L141.998 68.7361C142.281 69.7859 142.426 71.0064 142.426 72.403H143.374ZM142.913 68.4935C142.616 67.3477 142.17 66.3656 141.565 65.5599L140.807 66.1283C141.324 66.8166 141.723 67.6804 141.997 68.7318L142.913 68.4935ZM141.565 65.5599C140.96 64.7536 140.214 64.1372 139.329 63.7185L138.924 64.5749C139.664 64.9252 140.291 65.4404 140.807 66.1283L141.565 65.5599ZM139.331 63.7196C138.456 63.3001 137.473 63.0962 136.39 63.0962V64.0436C137.352 64.0436 138.192 64.2241 138.921 64.5738L139.331 63.7196ZM136.39 63.0962C135.339 63.0962 134.372 63.3011 133.5 63.7196L133.909 64.5738C134.64 64.2232 135.465 64.0436 136.39 64.0436V63.0962ZM133.497 63.7207C132.635 64.1397 131.898 64.7548 131.285 65.5564L132.037 66.1318C132.567 65.4393 133.191 64.9227 133.912 64.5727L133.497 63.7207ZM131.282 65.5599C130.679 66.363 130.223 67.3419 129.903 68.4849L130.815 68.7404C131.111 67.6861 131.521 66.8193 132.04 66.1283L131.282 65.5599ZM129.903 68.4849C129.581 69.6341 129.424 70.942 129.424 72.403H130.371C130.371 71.0075 130.521 69.7885 130.815 68.7404L129.903 68.4849ZM129.424 72.403V73.952H130.371V72.403H129.424ZM129.424 73.952C129.424 75.4239 129.581 76.7423 129.903 77.9019L130.815 77.6488C130.521 76.5892 130.371 75.3587 130.371 73.952H129.424ZM129.903 77.9031C130.223 79.0474 130.686 80.0318 131.299 80.8455L132.055 80.2753C131.526 79.5729 131.11 78.7007 130.815 77.6476L129.903 77.9031ZM131.304 80.8516C131.927 81.6513 132.669 82.2652 133.53 82.6838L133.945 81.8318C133.223 81.4813 132.592 80.9637 132.051 80.2693L131.304 80.8516ZM133.532 82.6849C134.405 83.1034 135.371 83.3082 136.423 83.3082V82.361C135.498 82.361 134.674 82.1813 133.942 81.8307L133.532 82.6849ZM136.423 83.3082C137.516 83.3082 138.505 83.1047 139.38 82.6849L138.971 81.8307C138.243 82.18 137.397 82.361 136.423 82.361V83.3082ZM139.38 82.6849C140.256 82.2653 140.991 81.6479 141.584 80.841L140.821 80.2798C140.315 80.9671 139.7 81.4812 138.971 81.8307L139.38 82.6849ZM141.583 80.842C142.186 80.0264 142.632 79.0401 142.93 77.8945L142.013 77.6561C141.739 78.7079 141.339 79.5783 140.822 80.2788L141.583 80.842ZM142.93 77.8935C143.228 76.7369 143.374 75.4215 143.374 73.952H142.426C142.426 75.3612 142.287 76.5946 142.013 77.6573L142.93 77.8935ZM165.36 77.6435L164.916 77.8098L164.919 77.8166L164.921 77.8233L165.36 77.6435ZM164.47 76.457L164.165 76.8193L164.169 76.8232L164.47 76.457ZM162.723 75.4517L162.535 75.8865L162.537 75.8874L162.723 75.4517ZM159.922 74.4794L159.787 74.9336L159.789 74.9342L159.922 74.4794ZM156.707 73.3094L156.51 73.7397L156.515 73.7416L156.707 73.3094ZM154.368 62.7459L154.667 63.113L154.668 63.1125L154.368 62.7459ZM164.882 61.9055L164.653 62.3201L164.657 62.3223L164.882 61.9055ZM167.766 64.5916L167.359 64.8336L167.36 64.8354L167.766 64.5916ZM168.754 68.1182V68.5919H169.228V68.1182H168.754ZM165.59 68.1182H165.117V68.5919H165.59V68.1182ZM165.013 65.7288L164.598 65.956L164.6 65.9588L165.013 65.7288ZM163.266 64.0807L163.048 64.5008L163.053 64.5032L163.266 64.0807ZM155.851 65.3662L155.449 65.1157L155.445 65.1214L155.851 65.3662ZM155.636 68.7445L155.213 68.9563L155.216 68.9631L155.22 68.9697L155.636 68.7445ZM156.642 69.8816L156.35 70.255L156.355 70.2584L156.642 69.8816ZM158.389 70.8539L158.204 71.2903L158.207 71.2913L158.389 70.8539ZM160.944 71.7108L161.072 71.2549L161.07 71.2545L160.944 71.7108ZM166.908 74.5948L166.586 74.9415L166.592 74.9472L166.908 74.5948ZM168.343 76.5888L167.904 76.7692L167.908 76.777L168.343 76.5888ZM163.877 85.0758L164.009 85.5307L164.012 85.5298L163.877 85.0758ZM157.169 85.0594L157.038 85.5145L157.039 85.5148L157.169 85.0594ZM154.253 83.6751L153.979 84.0615L153.981 84.0632L154.253 83.6751ZM152.16 81.4008L151.747 81.6343L151.751 81.6401L152.16 81.4008ZM151.385 78.2368V77.7631H150.912V78.2368H151.385ZM154.549 78.2368H155.022V77.7631H154.549V78.2368ZM155.027 80.3627L154.61 80.5868L154.612 80.59L155.027 80.3627ZM156.329 81.8128L156.057 82.2009L156.061 82.2035L156.329 81.8128ZM158.224 82.6698L158.103 83.1277L158.111 83.1297L158.224 82.6698ZM165.013 81.1537L164.627 80.879L164.625 80.8841L165.013 81.1537ZM166.097 79.1266C166.097 78.5173 166.002 77.9599 165.798 77.4637L164.921 77.8233C165.069 78.1841 165.15 78.6154 165.15 79.1266H166.097ZM165.803 77.4772C165.604 76.9467 165.252 76.4856 164.77 76.0908L164.169 76.8232C164.545 77.1315 164.785 77.4615 164.916 77.8098L165.803 77.4772ZM164.775 76.0947C164.309 75.702 163.68 75.345 162.909 75.0161L162.537 75.8874C163.26 76.1957 163.796 76.5089 164.165 76.8193L164.775 76.0947ZM162.911 75.017C162.151 74.6879 161.196 74.3574 160.054 74.0247L159.789 74.9342C160.909 75.2606 161.823 75.5783 162.535 75.8865L162.911 75.017ZM160.056 74.0252C158.886 73.6786 157.836 73.2956 156.901 72.8771L156.515 73.7416C157.493 74.1801 158.584 74.577 159.787 74.9336L160.056 74.0252ZM156.906 72.879C155.98 72.4534 155.198 71.9739 154.554 71.4439L153.951 72.1755C154.67 72.7661 155.524 73.2865 156.51 73.7397L156.906 72.879ZM154.554 71.4439C153.919 70.922 153.441 70.3304 153.11 69.6698L152.263 70.0934C152.658 70.8829 153.223 71.5768 153.951 72.1755L154.554 71.4439ZM153.11 69.6698C152.786 69.0197 152.617 68.2647 152.617 67.3932H151.669C151.669 68.3894 151.863 69.2933 152.263 70.0934L153.11 69.6698ZM152.617 67.3932C152.617 66.5266 152.795 65.7355 153.146 65.0129L152.294 64.5988C151.876 65.4583 151.669 66.3921 151.669 67.3932H152.617ZM153.146 65.0129C153.499 64.2868 154.004 63.6539 154.667 63.113L154.068 62.3788C153.304 63.0025 152.71 63.7429 152.294 64.5988L153.146 65.0129ZM154.668 63.1125C155.343 62.5603 156.152 62.1251 157.104 61.8115L156.807 60.9117C155.759 61.2573 154.843 61.7445 154.068 62.3788L154.668 63.1125ZM157.104 61.8115C158.048 61.5 159.112 61.3409 160.3 61.3409V60.3936C159.027 60.3936 157.861 60.564 156.807 60.9117L157.104 61.8115ZM160.3 61.3409C162.042 61.3409 163.486 61.6754 164.653 62.3201L165.111 61.4908C163.772 60.7512 162.162 60.3936 160.3 60.3936V61.3409ZM164.657 62.3223C165.853 62.9675 166.748 63.8058 167.359 64.8336L168.173 64.3497C167.465 63.1582 166.437 62.2057 165.106 61.4885L164.657 62.3223ZM167.36 64.8354C167.976 65.8621 168.281 66.9537 168.281 68.1182H169.228C169.228 66.7779 168.874 65.5184 168.172 64.3479L167.36 64.8354ZM168.754 67.6446H165.59V68.5919H168.754V67.6446ZM166.064 68.1182C166.064 67.1481 165.856 66.2704 165.428 65.4987L164.6 65.9588C164.94 66.5713 165.117 67.2866 165.117 68.1182H166.064ZM165.43 65.5014C164.994 64.7068 164.338 64.0929 163.481 63.6583L163.053 64.5032C163.756 64.8596 164.263 65.3444 164.598 65.956L165.43 65.5014ZM163.486 63.6607C162.618 63.2086 161.548 62.9973 160.3 62.9973V63.9447C161.448 63.9447 162.356 64.1399 163.048 64.5008L163.486 63.6607ZM160.3 62.9973C159.125 62.9973 158.118 63.1736 157.3 63.552L157.698 64.4118C158.352 64.1091 159.212 63.9447 160.3 63.9447V62.9973ZM157.3 63.552C156.496 63.9241 155.868 64.4417 155.449 65.1157L156.253 65.6165C156.558 65.126 157.03 64.7207 157.698 64.4118L157.3 63.552ZM155.445 65.1214C155.045 65.7847 154.85 66.5356 154.85 67.3602H155.797C155.797 66.6907 155.954 66.1123 156.256 65.611L155.445 65.1214ZM154.85 67.3602C154.85 67.9329 154.969 68.4677 155.213 68.9563L156.06 68.5326C155.887 68.1863 155.797 67.7982 155.797 67.3602H154.85ZM155.22 68.9697C155.478 69.4456 155.861 69.8724 156.35 70.255L156.934 69.5082C156.523 69.1876 156.236 68.8563 156.054 68.5192L155.22 68.9697ZM156.355 70.2584C156.856 70.6403 157.475 70.9827 158.204 71.2903L158.573 70.4175C157.896 70.1317 157.351 69.8261 156.929 69.5048L156.355 70.2584ZM158.207 71.2913C158.944 71.5974 159.814 71.889 160.816 72.1672L161.07 71.2545C160.094 70.9834 159.262 70.7037 158.57 70.4165L158.207 71.2913ZM160.814 72.1667C162.158 72.5459 163.307 72.9656 164.265 73.4236L164.674 72.5689C163.655 72.082 162.453 71.6448 161.072 71.2549L160.814 72.1667ZM164.265 73.4236C165.221 73.8805 165.992 74.3883 166.586 74.9415L167.232 74.2481C166.551 73.6148 165.696 73.0569 164.674 72.5689L164.265 73.4236ZM166.592 74.9472C167.192 75.4858 167.626 76.0929 167.904 76.7692L168.781 76.4084C168.443 75.5906 167.923 74.8684 167.225 74.2424L166.592 74.9472ZM167.908 76.777C168.197 77.4447 168.346 78.2141 168.346 79.0938H169.294C169.294 78.1057 169.126 77.2051 168.777 76.4006L167.908 76.777ZM168.346 79.0938C168.346 80.0059 168.163 80.8166 167.804 81.5351L168.651 81.9588C169.083 81.0953 169.294 80.1371 169.294 79.0938H168.346ZM167.804 81.5351C167.442 82.2584 166.925 82.8785 166.243 83.397L166.816 84.1509C167.608 83.5488 168.222 82.8175 168.651 81.9588L167.804 81.5351ZM166.243 83.397C165.559 83.9176 164.728 84.328 163.742 84.6219L164.012 85.5298C165.09 85.2085 166.028 84.751 166.816 84.1509L166.243 83.397ZM163.744 84.621C162.773 84.9031 161.675 85.0471 160.448 85.0471V85.9944C161.749 85.9944 162.937 85.8419 164.009 85.5307L163.744 84.621ZM160.448 85.0471C159.384 85.0471 158.335 84.8995 157.3 84.6039L157.039 85.5148C158.158 85.8344 159.295 85.9944 160.448 85.9944V85.0471ZM157.301 84.6042C156.284 84.3107 155.359 83.8714 154.524 83.287L153.981 84.0632C154.904 84.7093 155.924 85.1928 157.038 85.5145L157.301 84.6042ZM154.526 83.2887C153.713 82.7116 153.061 82.0033 152.568 81.1616L151.751 81.6401C152.313 82.6003 153.057 83.4081 153.979 84.0615L154.526 83.2887ZM152.572 81.1675C152.101 80.3364 151.858 79.3643 151.858 78.2368H150.912C150.912 79.5043 151.186 80.6416 151.747 81.6343L152.572 81.1675ZM151.385 78.7105H154.549V77.7631H151.385V78.7105ZM154.076 78.2368C154.076 79.1217 154.247 79.9108 154.61 80.5868L155.444 80.1386C155.17 79.628 155.022 78.9999 155.022 78.2368H154.076ZM154.612 80.59C154.965 81.2369 155.449 81.775 156.057 82.2009L156.6 81.4248C156.111 81.0817 155.726 80.6529 155.442 80.1352L154.612 80.59ZM156.061 82.2035C156.669 82.6206 157.351 82.9281 158.103 83.1277L158.346 82.212C157.691 82.0382 157.11 81.7742 156.597 81.4223L156.061 82.2035ZM158.111 83.1297C158.864 83.3151 159.643 83.4072 160.448 83.4072V82.4598C159.717 82.4598 159.012 82.3762 158.337 82.2098L158.111 83.1297ZM160.448 83.4072C161.599 83.4072 162.602 83.2481 163.443 82.9118L163.091 82.0323C162.393 82.3113 161.518 82.4598 160.448 82.4598V83.4072ZM163.443 82.9118C164.281 82.5764 164.945 82.0848 165.403 81.4233L164.625 80.8841C164.291 81.3652 163.79 81.7524 163.091 82.0323L163.443 82.9118ZM165.4 81.4283C165.87 80.7678 166.097 79.9935 166.097 79.1266H165.15C165.15 79.8199 164.97 80.3969 164.627 80.879L165.4 81.4283ZM190.143 82.6039H190.617V82.1302H190.143V82.6039ZM190.143 85.1912V85.6648H190.617V85.1912H190.143ZM177.437 85.1912H176.964V85.6648H177.437V85.1912ZM177.437 82.6039V82.1302H176.964V82.6039H177.437ZM178.08 61.1969H178.554V60.7232H178.08V61.1969ZM178.08 85.1912V85.6648H178.554V85.1912H178.08ZM174.9 85.1912H174.425V85.6648H174.9V85.1912ZM174.9 61.1969V60.7232H174.425V61.1969H174.9ZM188.462 71.5131H188.935V71.0394H188.462V71.5131ZM188.462 74.1004V74.5741H188.935V74.1004H188.462ZM177.437 74.1004H176.964V74.5741H177.437V74.1004ZM177.437 71.5131V71.0394H176.964V71.5131H177.437ZM189.978 61.1969H190.452V60.7232H189.978V61.1969ZM189.978 63.8006V64.2742H190.452V63.8006H189.978ZM177.437 63.8006H176.964V64.2742H177.437V63.8006ZM177.437 61.1969V60.7232H176.964V61.1969H177.437ZM189.669 82.6039V85.1912H190.617V82.6039H189.669ZM190.143 84.7175H177.437V85.6648H190.143V84.7175ZM177.911 85.1912V82.6039H176.964V85.1912H177.911ZM177.437 83.0776H190.143V82.1302H177.437V83.0776ZM177.606 61.1969V85.1912H178.554V61.1969H177.606ZM178.08 84.7175H174.9V85.6648H178.08V84.7175ZM175.373 85.1912V61.1969H174.425V85.1912H175.373ZM174.9 61.6704H178.08V60.7232H174.9V61.6704ZM187.989 71.5131V74.1004H188.935V71.5131H187.989ZM188.462 73.6267H177.437V74.5741H188.462V73.6267ZM177.911 74.1004V71.5131H176.964V74.1004H177.911ZM177.437 71.9868H188.462V71.0394H177.437V71.9868ZM189.505 61.1969V63.8006H190.452V61.1969H189.505ZM189.978 63.3269H177.437V64.2742H189.978V63.3269ZM177.911 63.8006V61.1969H176.964V63.8006H177.911ZM177.437 61.6704H189.978V60.7232H177.437V61.6704ZM197.112 61.1969V60.7232H196.409L196.673 61.3747L197.112 61.1969ZM200.193 61.1969L200.633 61.0202L200.514 60.7232H200.193V61.1969ZM208.054 80.7581L207.615 80.9348L208.055 82.0296L208.494 80.9345L208.054 80.7581ZM215.899 61.1969V60.7232H215.579L215.459 61.0205L215.899 61.1969ZM218.997 61.1969L219.436 61.3752L219.701 60.7232H218.997V61.1969ZM209.241 85.1912V85.6648H209.56L209.679 85.3696L209.241 85.1912ZM206.835 85.1912L206.396 85.3691L206.516 85.6648H206.835V85.1912ZM196.106 61.1969V60.7232H195.633V61.1969H196.106ZM198.826 61.1969L199.299 61.1824L199.286 60.7232H198.826V61.1969ZM199.271 75.8308H199.745V75.8235V75.8163L199.271 75.8308ZM199.271 85.1912V85.6648H199.745V85.1912H199.271ZM196.106 85.1912H195.633V85.6648H196.106V85.1912ZM217.267 61.1969V60.7232H216.807L216.793 61.1824L217.267 61.1969ZM219.986 61.1969H220.459V60.7232H219.986V61.1969ZM219.986 85.1912V85.6648H220.459V85.1912H219.986ZM216.822 85.1912H216.348V85.6648H216.822V85.1912ZM216.822 75.8308L216.349 75.8163L216.348 75.8235V75.8308H216.822ZM197.112 61.6704H200.193V60.7232H197.112V61.6704ZM199.754 61.3734L207.615 80.9348L208.494 80.5816L200.633 61.0202L199.754 61.3734ZM208.494 80.9345L216.338 61.3732L215.459 61.0205L207.615 80.5818L208.494 80.9345ZM215.899 61.6704H218.997V60.7232H215.899V61.6704ZM218.558 61.0185L208.802 85.0128L209.679 85.3696L219.436 61.3752L218.558 61.0185ZM209.241 84.7175H206.835V85.6648H209.241V84.7175ZM207.274 85.0133L197.551 61.0189L196.673 61.3747L206.396 85.3691L207.274 85.0133ZM196.106 61.6704H198.826V60.7232H196.106V61.6704ZM198.352 61.2112L198.797 75.8451L199.745 75.8163L199.299 61.1824L198.352 61.2112ZM198.797 75.8308V85.1912H199.745V75.8308H198.797ZM199.271 84.7175H196.106V85.6648H199.271V84.7175ZM196.581 85.1912V61.1969H195.633V85.1912H196.581ZM217.267 61.6704H219.986V60.7232H217.267V61.6704ZM219.513 61.1969V85.1912H220.459V61.1969H219.513ZM219.986 84.7175H216.822V85.6648H219.986V84.7175ZM217.295 85.1912V75.8308H216.348V85.1912H217.295ZM217.295 75.8451L217.74 61.2112L216.793 61.1824L216.349 75.8163L217.295 75.8451ZM242.841 82.6039H243.315V82.1302H242.841V82.6039ZM242.841 85.1912V85.6648H243.315V85.1912H242.841ZM230.136 85.1912H229.661V85.6648H230.136V85.1912ZM230.136 82.6039V82.1302H229.661V82.6039H230.136ZM230.778 61.1969H231.251V60.7232H230.778V61.1969ZM230.778 85.1912V85.6648H231.251V85.1912H230.778ZM227.598 85.1912H227.124V85.6648H227.598V85.1912ZM227.598 61.1969V60.7232H227.124V61.1969H227.598ZM241.16 71.5131H241.634V71.0394H241.16V71.5131ZM241.16 74.1004V74.5741H241.634V74.1004H241.16ZM230.136 74.1004H229.661V74.5741H230.136V74.1004ZM230.136 71.5131V71.0394H229.661V71.5131H230.136ZM242.676 61.1969H243.15V60.7232H242.676V61.1969ZM242.676 63.8006V64.2742H243.15V63.8006H242.676ZM230.136 63.8006H229.661V64.2742H230.136V63.8006ZM230.136 61.1969V60.7232H229.661V61.1969H230.136ZM242.368 82.6039V85.1912H243.315V82.6039H242.368ZM242.841 84.7175H230.136V85.6648H242.841V84.7175ZM230.609 85.1912V82.6039H229.661V85.1912H230.609ZM230.136 83.0776H242.841V82.1302H230.136V83.0776ZM230.305 61.1969V85.1912H231.251V61.1969H230.305ZM230.778 84.7175H227.598V85.6648H230.778V84.7175ZM228.071 85.1912V61.1969H227.124V85.1912H228.071ZM227.598 61.6704H230.778V60.7232H227.598V61.6704ZM240.686 71.5131V74.1004H241.634V71.5131H240.686ZM241.16 73.6267H230.136V74.5741H241.16V73.6267ZM230.609 74.1004V71.5131H229.661V74.1004H230.609ZM230.136 71.9868H241.16V71.0394H230.136V71.9868ZM242.203 61.1969V63.8006H243.15V61.1969H242.203ZM242.676 63.3269H230.136V64.2742H242.676V63.3269ZM230.609 63.8006V61.1969H229.661V63.8006H230.609ZM230.136 61.6704H242.676V60.7232H230.136V61.6704ZM261.329 77.6435L260.886 77.8098L260.888 77.8166L260.891 77.8233L261.329 77.6435ZM260.44 76.457L260.134 76.8193L260.139 76.8232L260.44 76.457ZM258.693 75.4517L258.505 75.8865L258.507 75.8874L258.693 75.4517ZM255.891 74.4794L255.756 74.9336L255.759 74.9342L255.891 74.4794ZM252.678 73.3094L252.48 73.7397L252.484 73.7416L252.678 73.3094ZM260.851 61.9055L260.622 62.3201L260.626 62.3223L260.851 61.9055ZM263.735 64.5916L263.328 64.8336L263.329 64.8354L263.735 64.5916ZM264.724 68.1182V68.5919H265.198V68.1182H264.724ZM261.56 68.1182H261.086V68.5919H261.56V68.1182ZM260.984 65.7288L260.567 65.956L260.569 65.9588L260.984 65.7288ZM259.237 64.0807L259.017 64.5008L259.022 64.5032L259.237 64.0807ZM251.82 65.3662L251.418 65.1157L251.415 65.1214L251.82 65.3662ZM251.607 68.7445L251.183 68.9563L251.186 68.9631L251.189 68.9697L251.607 68.7445ZM252.611 69.8816L252.32 70.255L252.324 70.2584L252.611 69.8816ZM254.358 70.8539L254.175 71.2903L254.177 71.2913L254.358 70.8539ZM256.913 71.7108L257.041 71.2549L257.039 71.2545L256.913 71.7108ZM262.879 74.5948L262.556 74.9415L262.562 74.9472L262.879 74.5948ZM264.312 76.5888L263.874 76.7692L263.878 76.777L264.312 76.5888ZM259.846 85.0758L259.978 85.5307L259.982 85.5298L259.846 85.0758ZM253.139 85.0594L253.008 85.5145L253.008 85.5148L253.139 85.0594ZM250.222 83.6751L249.948 84.0615L249.95 84.0632L250.222 83.6751ZM248.129 81.4008L247.717 81.6343L247.72 81.6401L248.129 81.4008ZM247.354 78.2368V77.7631H246.881V78.2368H247.354ZM250.518 78.2368H250.993V77.7631H250.518V78.2368ZM250.996 80.3627L250.579 80.5868L250.581 80.59L250.996 80.3627ZM252.299 81.8128L252.027 82.2009L252.03 82.2035L252.299 81.8128ZM254.194 82.6698L254.072 83.1277L254.081 83.1297L254.194 82.6698ZM260.984 81.1537L260.598 80.879L260.594 80.8841L260.984 81.1537ZM262.067 79.1266C262.067 78.5173 261.971 77.9599 261.768 77.4637L260.891 77.8233C261.039 78.1841 261.119 78.6154 261.119 79.1266H262.067ZM261.772 77.4772C261.574 76.9467 261.221 76.4856 260.74 76.0908L260.139 76.8232C260.515 77.1315 260.755 77.4615 260.886 77.8098L261.772 77.4772ZM260.745 76.0947C260.278 75.702 259.65 75.345 258.878 75.0161L258.507 75.8874C259.23 76.1957 259.766 76.5089 260.134 76.8193L260.745 76.0947ZM258.881 75.017C258.12 74.6879 257.167 74.3574 256.023 74.0247L255.759 74.9342C256.88 75.2606 257.793 75.5783 258.505 75.8865L258.881 75.017ZM256.025 74.0252C254.856 73.6786 253.805 73.2956 252.872 72.8771L252.484 73.7416C253.462 74.1801 254.553 74.577 255.756 74.9336L256.025 74.0252ZM252.875 72.879C251.95 72.4534 251.168 71.9739 250.523 71.4439L249.922 72.1755C250.639 72.7661 251.493 73.2865 252.48 73.7397L252.875 72.879ZM250.523 71.4439C249.888 70.922 249.41 70.3304 249.08 69.6698L248.233 70.0934C248.628 70.8829 249.193 71.5768 249.922 72.1755L250.523 71.4439ZM249.08 69.6698C248.755 69.0197 248.586 68.2647 248.586 67.3932H247.639C247.639 68.3894 247.832 69.2933 248.233 70.0934L249.08 69.6698ZM248.586 67.3932C248.586 66.5266 248.764 65.7355 249.116 65.0129L248.263 64.5988C247.846 65.4583 247.639 66.3921 247.639 67.3932H248.586ZM249.116 65.0129C249.468 64.2868 249.974 63.6539 250.637 63.113L250.038 62.3788C249.273 63.0025 248.679 63.7429 248.263 64.5988L249.116 65.0129ZM250.637 63.113C251.312 62.5608 252.122 62.1251 253.073 61.8115L252.777 60.9117C251.728 61.2573 250.813 61.745 250.037 62.3793L250.637 63.113ZM253.073 61.8115C254.018 61.5 255.081 61.3409 256.27 61.3409V60.3936C254.998 60.3936 253.832 60.564 252.777 60.9117L253.073 61.8115ZM256.27 61.3409C258.012 61.3409 259.456 61.6754 260.622 62.3201L261.08 61.4908C259.742 60.7512 258.131 60.3936 256.27 60.3936V61.3409ZM260.626 62.3223C261.823 62.9675 262.717 63.8058 263.328 64.8336L264.143 64.3497C263.435 63.1582 262.406 62.2057 261.077 61.4885L260.626 62.3223ZM263.329 64.8354C263.945 65.8621 264.25 66.9537 264.25 68.1182H265.198C265.198 66.7779 264.844 65.5184 264.142 64.3479L263.329 64.8354ZM264.724 67.6446H261.56V68.5919H264.724V67.6446ZM262.034 68.1182C262.034 67.1481 261.826 66.2704 261.397 65.4987L260.569 65.9588C260.909 66.5713 261.086 67.2866 261.086 68.1182H262.034ZM261.399 65.5014C260.964 64.7068 260.308 64.0929 259.45 63.6583L259.022 64.5032C259.725 64.8596 260.234 65.3444 260.567 65.956L261.399 65.5014ZM259.455 63.6607C258.587 63.2086 257.517 62.9973 256.27 62.9973V63.9447C257.418 63.9447 258.325 64.1399 259.017 64.5008L259.455 63.6607ZM256.27 62.9973C255.096 62.9973 254.087 63.1736 253.27 63.552L253.667 64.4118C254.322 64.1091 255.182 63.9447 256.27 63.9447V62.9973ZM253.27 63.552C252.465 63.9241 251.838 64.4417 251.418 65.1157L252.222 65.6165C252.529 65.126 253 64.7207 253.667 64.4118L253.27 63.552ZM251.415 65.1214C251.014 65.7847 250.82 66.5356 250.82 67.3602H251.767C251.767 66.6907 251.923 66.1123 252.226 65.611L251.415 65.1214ZM250.82 67.3602C250.82 67.9329 250.938 68.4677 251.183 68.9563L252.03 68.5326C251.857 68.1863 251.767 67.7982 251.767 67.3602H250.82ZM251.189 68.9697C251.447 69.4456 251.83 69.8724 252.32 70.255L252.903 69.5082C252.492 69.1876 252.205 68.8563 252.023 68.5192L251.189 68.9697ZM252.324 70.2584C252.826 70.6403 253.446 70.9827 254.175 71.2903L254.542 70.4175C253.865 70.1317 253.32 69.8261 252.898 69.5048L252.324 70.2584ZM254.177 71.2913C254.913 71.5974 255.784 71.889 256.786 72.1672L257.039 71.2545C256.064 70.9834 255.232 70.7037 254.541 70.4165L254.177 71.2913ZM256.785 72.1667C258.127 72.5459 259.277 72.9656 260.236 73.4236L260.643 72.5689C259.624 72.082 258.423 71.6448 257.041 71.2549L256.785 72.1667ZM260.236 73.4236C261.192 73.8805 261.962 74.3883 262.556 74.9415L263.201 74.2481C262.521 73.6148 261.665 73.0569 260.643 72.5689L260.236 73.4236ZM262.562 74.9472C263.161 75.4858 263.595 76.0929 263.874 76.7692L264.75 76.4084C264.414 75.5906 263.892 74.8684 263.195 74.2424L262.562 74.9472ZM263.878 76.777C264.166 77.4447 264.317 78.2141 264.317 79.0938H265.263C265.263 78.1057 265.095 77.2051 264.747 76.4006L263.878 76.777ZM264.317 79.0938C264.317 80.0059 264.132 80.8166 263.773 81.5351L264.621 81.9588C265.052 81.0953 265.263 80.1371 265.263 79.0938H264.317ZM263.773 81.5351C263.412 82.2584 262.894 82.8785 262.212 83.397L262.786 84.1509C263.577 83.5488 264.191 82.8175 264.621 81.9588L263.773 81.5351ZM262.212 83.397C261.529 83.9176 260.697 84.328 259.711 84.6219L259.982 85.5298C261.06 85.2085 261.998 84.751 262.786 84.1509L262.212 83.397ZM259.714 84.621C258.742 84.9031 257.646 85.0471 256.419 85.0471V85.9944C257.719 85.9944 258.907 85.8419 259.978 85.5307L259.714 84.621ZM256.419 85.0471C255.353 85.0471 254.304 84.8995 253.269 84.6039L253.008 85.5148C254.127 85.8344 255.265 85.9944 256.419 85.9944V85.0471ZM253.27 84.6042C252.253 84.3107 251.328 83.8714 250.494 83.287L249.95 84.0632C250.874 84.7093 251.894 85.1928 253.008 85.5145L253.27 84.6042ZM250.496 83.2887C249.682 82.7116 249.031 82.0033 248.538 81.1616L247.72 81.6401C248.282 82.6003 249.026 83.4081 249.948 84.0615L250.496 83.2887ZM248.541 81.1675C248.071 80.3364 247.829 79.3643 247.829 78.2368H246.881C246.881 79.5043 247.155 80.6416 247.717 81.6343L248.541 81.1675ZM247.354 78.7105H250.518V77.7631H247.354V78.7105ZM250.045 78.2368C250.045 79.1217 250.216 79.9108 250.579 80.5868L251.414 80.1386C251.14 79.628 250.993 78.9999 250.993 78.2368H250.045ZM250.581 80.59C250.935 81.2369 251.418 81.775 252.027 82.2009L252.57 81.4248C252.08 81.0817 251.695 80.6529 251.412 80.1352L250.581 80.59ZM252.03 82.2035C252.639 82.6206 253.32 82.9281 254.072 83.1277L254.315 82.212C253.66 82.0382 253.079 81.7742 252.567 81.4223L252.03 82.2035ZM254.081 83.1297C254.833 83.3151 255.613 83.4072 256.419 83.4072V82.4598C255.686 82.4598 254.983 82.3762 254.307 82.2098L254.081 83.1297ZM256.419 83.4072C257.569 83.4072 258.572 83.2481 259.412 82.9118L259.061 82.0323C258.363 82.3113 257.487 82.4598 256.419 82.4598V83.4072ZM259.412 82.9118C260.251 82.5764 260.915 82.0848 261.372 81.4233L260.594 80.8841C260.26 81.3652 259.76 81.7524 259.061 82.0323L259.412 82.9118ZM261.369 81.4283C261.839 80.7678 262.067 79.9935 262.067 79.1266H261.119C261.119 79.8199 260.941 80.3969 260.598 80.879L261.369 81.4283ZM286.541 71.5131H287.015V71.0394H286.541V71.5131ZM286.541 74.1004V74.5741H287.015V74.1004H286.541ZM273.555 74.1004H273.081V74.5741H273.555V74.1004ZM273.555 71.5131V71.0394H273.081V71.5131H273.555ZM274.05 61.1969H274.523V60.7232H274.05V61.1969ZM274.05 85.1912V85.6648H274.523V85.1912H274.05ZM270.869 85.1912H270.396V85.6648H270.869V85.1912ZM270.869 61.1969V60.7232H270.396V61.1969H270.869ZM289.31 61.1969H289.783V60.7232H289.31V61.1969ZM289.31 85.1912V85.6648H289.783V85.1912H289.31ZM286.146 85.1912H285.672V85.6648H286.146V85.1912ZM286.146 61.1969V60.7232H285.672V61.1969H286.146ZM286.067 71.5131V74.1004H287.015V71.5131H286.067ZM286.541 73.6267H273.555V74.5741H286.541V73.6267ZM274.029 74.1004V71.5131H273.081V74.1004H274.029ZM273.555 71.9868H286.541V71.0394H273.555V71.9868ZM273.576 61.1969V85.1912H274.523V61.1969H273.576ZM274.05 84.7175H270.869V85.6648H274.05V84.7175ZM271.343 85.1912V61.1969H270.396V85.1912H271.343ZM270.869 61.6704H274.05V60.7232H270.869V61.6704ZM288.836 61.1969V85.1912H289.783V61.1969H288.836ZM289.31 84.7175H286.146V85.6648H289.31V84.7175ZM286.619 85.1912V61.1969H285.672V85.1912H286.619ZM286.146 61.6704H289.31V60.7232H286.146V61.6704Z" fill="#BAC7E1"/>
</g>
</g>
<defs>
<filter id="filter0_d_3847_384" x="0.707031" y="0" width="293.9" height="123" filterUnits="userSpaceOnUse" color-interpolation-filters="sRGB">
<feFlood flood-opacity="0" result="BackgroundImageFix"/>
<feColorMatrix in="SourceAlpha" type="matrix" values="0 0 0 0 0 0 0 0 0 0 0 0 0 0 0 0 0 0 127 0" result="hardAlpha"/>
<feOffset dy="4"/>
<feGaussianBlur stdDeviation="2"/>
<feComposite in2="hardAlpha" operator="out"/>
<feColorMatrix type="matrix" values="0 0 0 0 0 0 0 0 0 0 0 0 0 0 0 0 0 0 0.27 0"/>
<feBlend mode="normal" in2="BackgroundImageFix" result="effect1_dropShadow_3847_384"/>
<feBlend mode="normal" in="SourceGraphic" in2="effect1_dropShadow_3847_384" result="shape"/>
</filter>
</defs>
</svg>
